<svg width="32" height="32" viewBox="0 0 32 32" fill="none" xmlns="http://www.w3.org/2000/svg">
<path fill-rule="evenodd" clip-rule="evenodd" d="M11.9905 15.2788L17.2791 9.99023L18.6933 11.4044L14.1118 15.9859L18.7209 20.5951L17.3067 22.0093L11.9905 16.693C11.5999 16.3025 11.5999 15.6694 11.9905 15.2788Z" fill="white"/>
<path fill-rule="evenodd" clip-rule="evenodd" d="M1.8 16C1.8 23.8424 8.15756 30.2 16 30.2C23.8424 30.2 30.2 23.8424 30.2 16C30.2 8.15756 23.8424 1.8 16 1.8C8.15756 1.8 1.8 8.15756 1.8 16ZM-6.99382e-07 16C-1.08564e-06 24.8366 7.16344 32 16 32C24.8366 32 32 24.8366 32 16C32 7.16344 24.8366 -3.13124e-07 16 -6.99382e-07C7.16344 -1.08564e-06 -3.13124e-07 7.16344 -6.99382e-07 16Z" fill="white"/>
</svg>
