<svg width="1913" height="928" viewBox="0 0 1913 928" fill="none" xmlns="http://www.w3.org/2000/svg">
<circle r="1.5" transform="matrix(-1 0 0 1 3.5 144.5)" fill="#15316F" fill-opacity="0.5"/>
<circle r="1.5" transform="matrix(-1 0 0 1 54.5 144.5)" fill="#15316F" fill-opacity="0.5"/>
<circle r="1.5" transform="matrix(-1 0 0 1 37.5 144.5)" fill="#15316F" fill-opacity="0.5"/>
<circle r="1.5" transform="matrix(-1 0 0 1 20.5 144.5)" fill="#15316F" fill-opacity="0.5"/>
<circle r="1.5" transform="matrix(-1 0 0 1 207.5 59.5)" fill="#15316F" fill-opacity="0.5"/>
<circle r="1.5" transform="matrix(-1 0 0 1 258.5 59.5)" fill="#15316F" fill-opacity="0.5"/>
<circle r="1.5" transform="matrix(-1 0 0 1 190.5 59.5)" fill="#15316F" fill-opacity="0.5"/>
<circle r="1.5" transform="matrix(-1 0 0 1 241.5 59.5)" fill="#15316F" fill-opacity="0.5"/>
<circle r="1.5" transform="matrix(-1 0 0 1 173.5 59.5)" fill="#15316F" fill-opacity="0.5"/>
<circle r="1.5" transform="matrix(-1 0 0 1 224.5 59.5)" fill="#15316F" fill-opacity="0.5"/>
<circle r="1.5" transform="matrix(-1 0 0 1 207.5 348.5)" fill="#15316F" fill-opacity="0.5"/>
<circle r="1.5" transform="matrix(-1 0 0 1 258.5 348.5)" fill="#15316F" fill-opacity="0.5"/>
<circle r="1.5" transform="matrix(-1 0 0 1 190.5 348.5)" fill="#15316F" fill-opacity="0.5"/>
<circle r="1.5" transform="matrix(-1 0 0 1 241.5 348.5)" fill="#15316F" fill-opacity="0.5"/>
<circle r="1.5" transform="matrix(-1 0 0 1 173.5 348.5)" fill="#15316F" fill-opacity="0.5"/>
<circle r="1.5" transform="matrix(-1 0 0 1 224.5 348.5)" fill="#15316F" fill-opacity="0.5"/>
<circle r="1.5" transform="matrix(-1 0 0 1 105.5 144.5)" fill="#15316F" fill-opacity="0.5"/>
<circle r="1.5" transform="matrix(-1 0 0 1 156.5 144.5)" fill="#15316F" fill-opacity="0.5"/>
<circle r="1.5" transform="matrix(-1 0 0 1 88.5 144.5)" fill="#15316F" fill-opacity="0.5"/>
<circle r="1.5" transform="matrix(-1 0 0 1 139.5 144.5)" fill="#15316F" fill-opacity="0.5"/>
<circle r="1.5" transform="matrix(-1 0 0 1 122.5 144.5)" fill="#15316F" fill-opacity="0.5"/>
<circle r="1.5" transform="matrix(-1 0 0 1 20.5 450.5)" fill="#15316F" fill-opacity="0.5"/>
<circle r="1.5" transform="matrix(-1 0 0 1 3.5 450.5)" fill="#15316F" fill-opacity="0.5"/>
<circle r="1.5" transform="matrix(4.37114e-08 1 1 -4.37114e-08 71.5 110.5)" fill="#15316F" fill-opacity="0.5"/>
<circle r="1.5" transform="matrix(4.37114e-08 1 1 -4.37114e-08 71.5 59.5)" fill="#15316F" fill-opacity="0.5"/>
<circle r="1.5" transform="matrix(4.37114e-08 1 1 -4.37114e-08 71.5 127.5)" fill="#15316F" fill-opacity="0.5"/>
<circle r="1.5" transform="matrix(4.37114e-08 1 1 -4.37114e-08 71.5 76.5)" fill="#15316F" fill-opacity="0.5"/>
<circle r="1.5" transform="matrix(4.37114e-08 1 1 -4.37114e-08 71.5 144.5)" fill="#15316F" fill-opacity="0.5"/>
<circle r="1.5" transform="matrix(4.37114e-08 1 1 -4.37114e-08 71.5 93.5)" fill="#15316F" fill-opacity="0.5"/>
<circle r="1.5" transform="matrix(4.37114e-08 1 1 -4.37114e-08 71.5 8.5)" fill="#15316F" fill-opacity="0.5"/>
<circle r="1.5" transform="matrix(4.37114e-08 1 1 -4.37114e-08 71.5 25.5)" fill="#15316F" fill-opacity="0.5"/>
<circle r="1.5" transform="matrix(4.37114e-08 1 1 -4.37114e-08 71.5 42.5)" fill="#15316F" fill-opacity="0.5"/>
<circle r="1.5" transform="matrix(4.37114e-08 1 1 -4.37114e-08 71.5 314.5)" fill="#15316F" fill-opacity="0.5"/>
<circle r="1.5" transform="matrix(4.37114e-08 1 1 -4.37114e-08 71.5 263.5)" fill="#15316F" fill-opacity="0.5"/>
<circle r="1.5" transform="matrix(4.37114e-08 1 1 -4.37114e-08 71.5 331.5)" fill="#15316F" fill-opacity="0.5"/>
<circle r="1.5" transform="matrix(4.37114e-08 1 1 -4.37114e-08 71.5 280.5)" fill="#15316F" fill-opacity="0.5"/>
<circle r="1.5" transform="matrix(4.37114e-08 1 1 -4.37114e-08 71.5 348.5)" fill="#15316F" fill-opacity="0.5"/>
<circle r="1.5" transform="matrix(4.37114e-08 1 1 -4.37114e-08 71.5 297.5)" fill="#15316F" fill-opacity="0.5"/>
<circle r="1.5" transform="matrix(4.37114e-08 1 1 -4.37114e-08 71.5 212.5)" fill="#15316F" fill-opacity="0.5"/>
<circle r="1.5" transform="matrix(4.37114e-08 1 1 -4.37114e-08 71.5 161.5)" fill="#15316F" fill-opacity="0.5"/>
<circle r="1.5" transform="matrix(4.37114e-08 1 1 -4.37114e-08 71.5 229.5)" fill="#15316F" fill-opacity="0.5"/>
<circle r="1.5" transform="matrix(4.37114e-08 1 1 -4.37114e-08 71.5 178.5)" fill="#15316F" fill-opacity="0.5"/>
<circle r="1.5" transform="matrix(4.37114e-08 1 1 -4.37114e-08 71.5 246.5)" fill="#15316F" fill-opacity="0.5"/>
<circle r="1.5" transform="matrix(4.37114e-08 1 1 -4.37114e-08 71.5 195.5)" fill="#15316F" fill-opacity="0.5"/>
<circle r="1.5" transform="matrix(4.37114e-08 1 1 -4.37114e-08 156.5 8.5)" fill="#15316F" fill-opacity="0.5"/>
<circle r="1.5" transform="matrix(4.37114e-08 1 1 -4.37114e-08 139.5 8.5)" fill="#15316F" fill-opacity="0.5"/>
<circle r="1.5" transform="matrix(4.37114e-08 1 1 -4.37114e-08 122.5 8.5)" fill="#15316F" fill-opacity="0.5"/>
<circle r="1.5" transform="matrix(4.37114e-08 1 1 -4.37114e-08 105.5 8.5)" fill="#15316F" fill-opacity="0.5"/>
<circle r="1.5" transform="matrix(4.37114e-08 1 1 -4.37114e-08 88.5 8.5)" fill="#15316F" fill-opacity="0.5"/>
<circle r="1.5" transform="matrix(4.37114e-08 1 1 -4.37114e-08 54.5 8.5)" fill="#15316F" fill-opacity="0.5"/>
<circle r="1.5" transform="matrix(4.37114e-08 1 1 -4.37114e-08 37.5 8.5)" fill="#15316F" fill-opacity="0.5"/>
<circle r="1.5" transform="matrix(4.37114e-08 1 1 -4.37114e-08 1.5 8.5)" fill="#15316F" fill-opacity="0.5"/>
<circle r="1.5" transform="matrix(4.37114e-08 1 1 -4.37114e-08 156.5 25.5)" fill="#15316F" fill-opacity="0.5"/>
<circle r="1.5" transform="matrix(4.37114e-08 1 1 -4.37114e-08 156.5 42.5)" fill="#15316F" fill-opacity="0.5"/>
<circle r="1.5" transform="matrix(4.37114e-08 1 1 -4.37114e-08 156.5 59.5)" fill="#15316F" fill-opacity="0.5"/>
<circle r="1.5" transform="matrix(4.37114e-08 1 1 -4.37114e-08 156.5 314.5)" fill="#15316F" fill-opacity="0.5"/>
<circle r="1.5" transform="matrix(4.37114e-08 1 1 -4.37114e-08 156.5 263.5)" fill="#15316F" fill-opacity="0.5"/>
<circle r="1.5" transform="matrix(4.37114e-08 1 1 -4.37114e-08 156.5 331.5)" fill="#15316F" fill-opacity="0.5"/>
<circle r="1.5" transform="matrix(4.37114e-08 1 1 -4.37114e-08 156.5 280.5)" fill="#15316F" fill-opacity="0.5"/>
<circle r="1.5" transform="matrix(4.37114e-08 1 1 -4.37114e-08 156.5 297.5)" fill="#15316F" fill-opacity="0.5"/>
<circle r="1.5" transform="matrix(4.37114e-08 1 1 -4.37114e-08 156.5 348.5)" fill="#15316F" fill-opacity="0.5"/>
<circle r="1.5" transform="matrix(4.37114e-08 1 1 -4.37114e-08 156.5 212.5)" fill="#15316F" fill-opacity="0.5"/>
<circle r="1.5" transform="matrix(4.37114e-08 1 1 -4.37114e-08 156.5 195.5)" fill="#15316F" fill-opacity="0.5"/>
<circle r="1.5" transform="matrix(4.37114e-08 1 1 -4.37114e-08 156.5 161.5)" fill="#15316F" fill-opacity="0.5"/>
<circle r="1.5" transform="matrix(4.37114e-08 1 1 -4.37114e-08 156.5 229.5)" fill="#15316F" fill-opacity="0.5"/>
<circle r="1.5" transform="matrix(4.37114e-08 1 1 -4.37114e-08 156.5 178.5)" fill="#15316F" fill-opacity="0.5"/>
<circle r="1.5" transform="matrix(4.37114e-08 1 1 -4.37114e-08 156.5 246.5)" fill="#15316F" fill-opacity="0.5"/>
<circle r="1.5" transform="matrix(4.37114e-08 1 1 -4.37114e-08 20.5 110.5)" fill="#15316F" fill-opacity="0.5"/>
<circle r="1.5" transform="matrix(4.37114e-08 1 1 -4.37114e-08 20.5 59.5)" fill="#15316F" fill-opacity="0.5"/>
<circle r="1.5" transform="matrix(4.37114e-08 1 1 -4.37114e-08 20.5 127.5)" fill="#15316F" fill-opacity="0.5"/>
<circle r="1.5" transform="matrix(4.37114e-08 1 1 -4.37114e-08 20.5 76.5)" fill="#15316F" fill-opacity="0.5"/>
<circle r="1.5" transform="matrix(4.37114e-08 1 1 -4.37114e-08 20.5 93.5)" fill="#15316F" fill-opacity="0.5"/>
<circle r="1.5" transform="matrix(4.37114e-08 1 1 -4.37114e-08 20.5 416.5)" fill="#15316F" fill-opacity="0.5"/>
<circle r="1.5" transform="matrix(4.37114e-08 1 1 -4.37114e-08 20.5 365.5)" fill="#15316F" fill-opacity="0.5"/>
<circle r="1.5" transform="matrix(4.37114e-08 1 1 -4.37114e-08 20.5 433.5)" fill="#15316F" fill-opacity="0.5"/>
<circle r="1.5" transform="matrix(4.37114e-08 1 1 -4.37114e-08 20.5 382.5)" fill="#15316F" fill-opacity="0.5"/>
<circle r="1.5" transform="matrix(4.37114e-08 1 1 -4.37114e-08 20.5 399.5)" fill="#15316F" fill-opacity="0.5"/>
<circle r="1.5" transform="matrix(4.37114e-08 1 1 -4.37114e-08 18.5 8.5)" fill="#15316F" fill-opacity="0.5"/>
<circle r="1.5" transform="matrix(4.37114e-08 1 1 -4.37114e-08 18.5 25.5)" fill="#15316F" fill-opacity="0.5"/>
<circle r="1.5" transform="matrix(4.37114e-08 1 1 -4.37114e-08 18.5 42.5)" fill="#15316F" fill-opacity="0.5"/>
<circle r="1.5" transform="matrix(4.37114e-08 1 1 -4.37114e-08 18.5 314.5)" fill="#15316F" fill-opacity="0.5"/>
<circle r="1.5" transform="matrix(4.37114e-08 1 1 -4.37114e-08 18.5 263.5)" fill="#15316F" fill-opacity="0.5"/>
<circle r="1.5" transform="matrix(4.37114e-08 1 1 -4.37114e-08 18.5 331.5)" fill="#15316F" fill-opacity="0.5"/>
<circle r="1.5" transform="matrix(4.37114e-08 1 1 -4.37114e-08 18.5 280.5)" fill="#15316F" fill-opacity="0.5"/>
<circle r="1.5" transform="matrix(4.37114e-08 1 1 -4.37114e-08 18.5 348.5)" fill="#15316F" fill-opacity="0.5"/>
<circle r="1.5" transform="matrix(4.37114e-08 1 1 -4.37114e-08 18.5 297.5)" fill="#15316F" fill-opacity="0.5"/>
<circle cx="86.5" cy="790.5" r="1.5" fill="#15316F" fill-opacity="0.5"/>
<circle cx="35.5" cy="790.5" r="1.5" fill="#15316F" fill-opacity="0.5"/>
<circle cx="103.5" cy="790.5" r="1.5" fill="#15316F" fill-opacity="0.5"/>
<circle cx="52.5" cy="790.5" r="1.5" fill="#15316F" fill-opacity="0.5"/>
<circle cx="120.5" cy="790.5" r="1.5" fill="#15316F" fill-opacity="0.5"/>
<circle cx="69.5" cy="790.5" r="1.5" fill="#15316F" fill-opacity="0.5"/>
<circle cx="205.5" cy="790.5" r="1.5" fill="#15316F" fill-opacity="0.5"/>
<circle cx="154.5" cy="790.5" r="1.5" fill="#15316F" fill-opacity="0.5"/>
<circle cx="222.5" cy="790.5" r="1.5" fill="#15316F" fill-opacity="0.5"/>
<circle cx="171.5" cy="790.5" r="1.5" fill="#15316F" fill-opacity="0.5"/>
<circle cx="239.5" cy="790.5" r="1.5" fill="#15316F" fill-opacity="0.5"/>
<circle cx="188.5" cy="790.5" r="1.5" fill="#15316F" fill-opacity="0.5"/>
<circle cx="307.5" cy="790.5" r="1.5" fill="#15316F" fill-opacity="0.5"/>
<circle cx="256.5" cy="790.5" r="1.5" fill="#15316F" fill-opacity="0.5"/>
<circle cx="273.5" cy="790.5" r="1.5" fill="#15316F" fill-opacity="0.5"/>
<circle cx="290.5" cy="790.5" r="1.5" fill="#15316F" fill-opacity="0.5"/>
<circle cx="137.5" cy="790.5" r="1.5" fill="#15316F" fill-opacity="0.5"/>
<circle cx="139.5" cy="637.5" r="1.5" fill="#15316F" fill-opacity="0.5"/>
<circle cx="88.5" cy="637.5" r="1.5" fill="#15316F" fill-opacity="0.5"/>
<circle cx="156.5" cy="637.5" r="1.5" fill="#15316F" fill-opacity="0.5"/>
<circle cx="105.5" cy="637.5" r="1.5" fill="#15316F" fill-opacity="0.5"/>
<circle cx="122.5" cy="637.5" r="1.5" fill="#15316F" fill-opacity="0.5"/>
<circle cx="1.5" cy="790.5" r="1.5" fill="#15316F" fill-opacity="0.5"/>
<circle cx="1894.5" cy="488.5" r="1.5" fill="#15316F" fill-opacity="0.5"/>
<circle cx="1843.5" cy="488.5" r="1.5" fill="#15316F" fill-opacity="0.5"/>
<circle cx="1792.5" cy="488.5" r="1.5" fill="#15316F" fill-opacity="0.5"/>
<circle cx="1775.5" cy="267.5" r="1.5" fill="#15316F" fill-opacity="0.5"/>
<circle cx="1894.5" cy="726.5" r="1.5" fill="#15316F" fill-opacity="0.5"/>
<circle cx="1860.5" cy="488.5" r="1.5" fill="#15316F" fill-opacity="0.5"/>
<circle cx="1809.5" cy="488.5" r="1.5" fill="#15316F" fill-opacity="0.5"/>
<circle cx="1792.5" cy="267.5" r="1.5" fill="#15316F" fill-opacity="0.5"/>
<circle cx="1877.5" cy="488.5" r="1.5" fill="#15316F" fill-opacity="0.5"/>
<circle cx="1826.5" cy="488.5" r="1.5" fill="#15316F" fill-opacity="0.5"/>
<circle cx="1809.5" cy="267.5" r="1.5" fill="#15316F" fill-opacity="0.5"/>
<circle cx="18.5" cy="756.5" r="1.5" transform="rotate(90 18.5 756.5)" fill="#15316F" fill-opacity="0.5"/>
<circle cx="18.5" cy="705.5" r="1.5" transform="rotate(90 18.5 705.5)" fill="#15316F" fill-opacity="0.5"/>
<circle cx="18.5" cy="773.5" r="1.5" transform="rotate(90 18.5 773.5)" fill="#15316F" fill-opacity="0.5"/>
<circle cx="18.5" cy="722.5" r="1.5" transform="rotate(90 18.5 722.5)" fill="#15316F" fill-opacity="0.5"/>
<circle cx="18.5" cy="790.5" r="1.5" transform="rotate(90 18.5 790.5)" fill="#15316F" fill-opacity="0.5"/>
<circle cx="18.5" cy="739.5" r="1.5" transform="rotate(90 18.5 739.5)" fill="#15316F" fill-opacity="0.5"/>
<circle cx="18.5" cy="654.5" r="1.5" transform="rotate(90 18.5 654.5)" fill="#15316F" fill-opacity="0.5"/>
<circle cx="18.5" cy="603.5" r="1.5" transform="rotate(90 18.5 603.5)" fill="#15316F" fill-opacity="0.5"/>
<circle cx="18.5" cy="671.5" r="1.5" transform="rotate(90 18.5 671.5)" fill="#15316F" fill-opacity="0.5"/>
<circle cx="18.5" cy="620.5" r="1.5" transform="rotate(90 18.5 620.5)" fill="#15316F" fill-opacity="0.5"/>
<circle cx="18.5" cy="688.5" r="1.5" transform="rotate(90 18.5 688.5)" fill="#15316F" fill-opacity="0.5"/>
<circle cx="18.5" cy="637.5" r="1.5" transform="rotate(90 18.5 637.5)" fill="#15316F" fill-opacity="0.5"/>
<circle cx="18.5" cy="909.5" r="1.5" transform="rotate(90 18.5 909.5)" fill="#15316F" fill-opacity="0.5"/>
<circle cx="18.5" cy="926.5" r="1.5" transform="rotate(90 18.5 926.5)" fill="#15316F" fill-opacity="0.5"/>
<circle cx="18.5" cy="552.5" r="1.5" transform="rotate(90 18.5 552.5)" fill="#15316F" fill-opacity="0.5"/>
<circle cx="18.5" cy="501.5" r="1.5" transform="rotate(90 18.5 501.5)" fill="#15316F" fill-opacity="0.5"/>
<circle cx="18.5" cy="569.5" r="1.5" transform="rotate(90 18.5 569.5)" fill="#15316F" fill-opacity="0.5"/>
<circle cx="18.5" cy="518.5" r="1.5" transform="rotate(90 18.5 518.5)" fill="#15316F" fill-opacity="0.5"/>
<circle cx="18.5" cy="586.5" r="1.5" transform="rotate(90 18.5 586.5)" fill="#15316F" fill-opacity="0.5"/>
<circle cx="18.5" cy="535.5" r="1.5" transform="rotate(90 18.5 535.5)" fill="#15316F" fill-opacity="0.5"/>
<circle cx="18.5" cy="858.5" r="1.5" transform="rotate(90 18.5 858.5)" fill="#15316F" fill-opacity="0.5"/>
<circle cx="18.5" cy="807.5" r="1.5" transform="rotate(90 18.5 807.5)" fill="#15316F" fill-opacity="0.5"/>
<circle cx="18.5" cy="875.5" r="1.5" transform="rotate(90 18.5 875.5)" fill="#15316F" fill-opacity="0.5"/>
<circle cx="18.5" cy="824.5" r="1.5" transform="rotate(90 18.5 824.5)" fill="#15316F" fill-opacity="0.5"/>
<circle cx="18.5" cy="892.5" r="1.5" transform="rotate(90 18.5 892.5)" fill="#15316F" fill-opacity="0.5"/>
<circle cx="18.5" cy="841.5" r="1.5" transform="rotate(90 18.5 841.5)" fill="#15316F" fill-opacity="0.5"/>
<circle cx="1894.5" cy="675.5" r="1.5" transform="rotate(90 1894.5 675.5)" fill="#15316F" fill-opacity="0.5"/>
<circle cx="1894.5" cy="658.5" r="1.5" transform="rotate(90 1894.5 658.5)" fill="#15316F" fill-opacity="0.5"/>
<circle cx="1894.5" cy="624.5" r="1.5" transform="rotate(90 1894.5 624.5)" fill="#15316F" fill-opacity="0.5"/>
<circle cx="1894.5" cy="607.5" r="1.5" transform="rotate(90 1894.5 607.5)" fill="#15316F" fill-opacity="0.5"/>
<circle cx="1894.5" cy="692.5" r="1.5" transform="rotate(90 1894.5 692.5)" fill="#15316F" fill-opacity="0.5"/>
<circle cx="1894.5" cy="641.5" r="1.5" transform="rotate(90 1894.5 641.5)" fill="#15316F" fill-opacity="0.5"/>
<circle cx="1894.5" cy="709.5" r="1.5" transform="rotate(90 1894.5 709.5)" fill="#15316F" fill-opacity="0.5"/>
<circle cx="69.5" cy="756.5" r="1.5" transform="rotate(90 69.5 756.5)" fill="#15316F" fill-opacity="0.5"/>
<circle cx="69.5" cy="705.5" r="1.5" transform="rotate(90 69.5 705.5)" fill="#15316F" fill-opacity="0.5"/>
<circle cx="69.5" cy="773.5" r="1.5" transform="rotate(90 69.5 773.5)" fill="#15316F" fill-opacity="0.5"/>
<circle cx="69.5" cy="722.5" r="1.5" transform="rotate(90 69.5 722.5)" fill="#15316F" fill-opacity="0.5"/>
<circle cx="69.5" cy="739.5" r="1.5" transform="rotate(90 69.5 739.5)" fill="#15316F" fill-opacity="0.5"/>
<circle cx="1894.5" cy="573.5" r="1.5" transform="rotate(90 1894.5 573.5)" fill="#15316F" fill-opacity="0.5"/>
<circle cx="1894.5" cy="522.5" r="1.5" transform="rotate(90 1894.5 522.5)" fill="#15316F" fill-opacity="0.5"/>
<circle cx="1894.5" cy="590.5" r="1.5" transform="rotate(90 1894.5 590.5)" fill="#15316F" fill-opacity="0.5"/>
<circle cx="1894.5" cy="539.5" r="1.5" transform="rotate(90 1894.5 539.5)" fill="#15316F" fill-opacity="0.5"/>
<circle cx="1894.5" cy="556.5" r="1.5" transform="rotate(90 1894.5 556.5)" fill="#15316F" fill-opacity="0.5"/>
<circle cx="71.5" cy="654.5" r="1.5" transform="rotate(90 71.5 654.5)" fill="#15316F" fill-opacity="0.5"/>
<circle cx="71.5" cy="603.5" r="1.5" transform="rotate(90 71.5 603.5)" fill="#15316F" fill-opacity="0.5"/>
<circle cx="71.5" cy="671.5" r="1.5" transform="rotate(90 71.5 671.5)" fill="#15316F" fill-opacity="0.5"/>
<circle cx="71.5" cy="620.5" r="1.5" transform="rotate(90 71.5 620.5)" fill="#15316F" fill-opacity="0.5"/>
<circle cx="71.5" cy="688.5" r="1.5" transform="rotate(90 71.5 688.5)" fill="#15316F" fill-opacity="0.5"/>
<circle cx="71.5" cy="637.5" r="1.5" transform="rotate(90 71.5 637.5)" fill="#15316F" fill-opacity="0.5"/>
<circle cx="71.5" cy="552.5" r="1.5" transform="rotate(90 71.5 552.5)" fill="#15316F" fill-opacity="0.5"/>
<circle cx="71.5" cy="501.5" r="1.5" transform="rotate(90 71.5 501.5)" fill="#15316F" fill-opacity="0.5"/>
<circle cx="71.5" cy="569.5" r="1.5" transform="rotate(90 71.5 569.5)" fill="#15316F" fill-opacity="0.5"/>
<circle cx="71.5" cy="518.5" r="1.5" transform="rotate(90 71.5 518.5)" fill="#15316F" fill-opacity="0.5"/>
<circle cx="71.5" cy="586.5" r="1.5" transform="rotate(90 71.5 586.5)" fill="#15316F" fill-opacity="0.5"/>
<circle cx="71.5" cy="535.5" r="1.5" transform="rotate(90 71.5 535.5)" fill="#15316F" fill-opacity="0.5"/>
<circle cx="224.5" cy="603.5" r="1.5" transform="rotate(-180 224.5 603.5)" fill="#15316F" fill-opacity="0.5"/>
<circle cx="1894.5" cy="471.5" r="1.5" transform="rotate(90 1894.5 471.5)" fill="#15316F" fill-opacity="0.5"/>
<circle cx="1894.5" cy="420.5" r="1.5" transform="rotate(90 1894.5 420.5)" fill="#15316F" fill-opacity="0.5"/>
<circle cx="1894.5" cy="437.5" r="1.5" transform="rotate(90 1894.5 437.5)" fill="#15316F" fill-opacity="0.5"/>
<circle cx="1894.5" cy="505.5" r="1.5" transform="rotate(90 1894.5 505.5)" fill="#15316F" fill-opacity="0.5"/>
<circle cx="1894.5" cy="454.5" r="1.5" transform="rotate(90 1894.5 454.5)" fill="#15316F" fill-opacity="0.5"/>
<circle cx="139.5" cy="603.5" r="1.5" fill="#15316F" fill-opacity="0.5"/>
<circle cx="88.5" cy="603.5" r="1.5" fill="#15316F" fill-opacity="0.5"/>
<circle cx="156.5" cy="603.5" r="1.5" fill="#15316F" fill-opacity="0.5"/>
<circle cx="105.5" cy="603.5" r="1.5" fill="#15316F" fill-opacity="0.5"/>
<circle cx="173.5" cy="603.5" r="1.5" fill="#15316F" fill-opacity="0.5"/>
<circle cx="122.5" cy="603.5" r="1.5" fill="#15316F" fill-opacity="0.5"/>
<circle r="1.5" transform="matrix(-1 0 0 1 1877.5 114.5)" fill="#15316F" fill-opacity="0.5"/>
<circle r="1.5" transform="matrix(-1 0 0 1 1860.5 114.5)" fill="#15316F" fill-opacity="0.5"/>
<circle r="1.5" transform="matrix(-1 0 0 1 1843.5 114.5)" fill="#15316F" fill-opacity="0.5"/>
<circle r="1.5" transform="matrix(-1 0 0 1 1894.5 114.5)" fill="#15316F" fill-opacity="0.5"/>
<circle r="1.5" transform="matrix(-1 0 0 1 1894.5 12.5)" fill="#15316F" fill-opacity="0.5"/>
<circle r="1.5" transform="matrix(-1 0 0 1 1843.5 12.5)" fill="#15316F" fill-opacity="0.5"/>
<circle r="1.5" transform="matrix(-1 0 0 1 1758.5 114.5)" fill="#15316F" fill-opacity="0.5"/>
<circle r="1.5" transform="matrix(-1 0 0 1 1809.5 114.5)" fill="#15316F" fill-opacity="0.5"/>
<circle r="1.5" transform="matrix(-1 0 0 1 1741.5 114.5)" fill="#15316F" fill-opacity="0.5"/>
<circle r="1.5" transform="matrix(-1 0 0 1 1792.5 114.5)" fill="#15316F" fill-opacity="0.5"/>
<circle r="1.5" transform="matrix(-1 0 0 1 1724.5 114.5)" fill="#15316F" fill-opacity="0.5"/>
<circle r="1.5" transform="matrix(-1 0 0 1 1775.5 114.5)" fill="#15316F" fill-opacity="0.5"/>
<circle r="1.5" transform="matrix(-1 0 0 1 1656.5 114.5)" fill="#15316F" fill-opacity="0.5"/>
<circle r="1.5" transform="matrix(-1 0 0 1 1707.5 114.5)" fill="#15316F" fill-opacity="0.5"/>
<circle r="1.5" transform="matrix(-1 0 0 1 1690.5 114.5)" fill="#15316F" fill-opacity="0.5"/>
<circle r="1.5" transform="matrix(-1 0 0 1 1673.5 114.5)" fill="#15316F" fill-opacity="0.5"/>
<circle r="1.5" transform="matrix(-1 0 0 1 1826.5 114.5)" fill="#15316F" fill-opacity="0.5"/>
<circle r="1.5" transform="matrix(-1 0 0 1 241.5 484.5)" fill="#15316F" fill-opacity="0.5"/>
<circle r="1.5" transform="matrix(-1 0 0 1 292.5 484.5)" fill="#15316F" fill-opacity="0.5"/>
<circle r="1.5" transform="matrix(-1 0 0 1 224.5 484.5)" fill="#15316F" fill-opacity="0.5"/>
<circle r="1.5" transform="matrix(-1 0 0 1 275.5 484.5)" fill="#15316F" fill-opacity="0.5"/>
<circle r="1.5" transform="matrix(-1 0 0 1 207.5 484.5)" fill="#15316F" fill-opacity="0.5"/>
<circle r="1.5" transform="matrix(-1 0 0 1 190.5 484.5)" fill="#15316F" fill-opacity="0.5"/>
<circle r="1.5" transform="matrix(-1 0 0 1 258.5 484.5)" fill="#15316F" fill-opacity="0.5"/>
<circle r="1.5" transform="matrix(-1 0 0 1 122.5 484.5)" fill="#15316F" fill-opacity="0.5"/>
<circle r="1.5" transform="matrix(-1 0 0 1 173.5 484.5)" fill="#15316F" fill-opacity="0.5"/>
<circle r="1.5" transform="matrix(-1 0 0 1 105.5 484.5)" fill="#15316F" fill-opacity="0.5"/>
<circle r="1.5" transform="matrix(-1 0 0 1 156.5 484.5)" fill="#15316F" fill-opacity="0.5"/>
<circle r="1.5" transform="matrix(-1 0 0 1 88.5 484.5)" fill="#15316F" fill-opacity="0.5"/>
<circle r="1.5" transform="matrix(-1 0 0 1 71.5 484.5)" fill="#15316F" fill-opacity="0.5"/>
<circle r="1.5" transform="matrix(-1 0 0 1 139.5 484.5)" fill="#15316F" fill-opacity="0.5"/>
<circle r="1.5" transform="matrix(4.37114e-08 1 1 -4.37114e-08 1894.5 386.5)" fill="#15316F" fill-opacity="0.5"/>
<circle r="1.5" transform="matrix(4.37114e-08 1 1 -4.37114e-08 1894.5 335.5)" fill="#15316F" fill-opacity="0.5"/>
<circle r="1.5" transform="matrix(4.37114e-08 1 1 -4.37114e-08 1894.5 403.5)" fill="#15316F" fill-opacity="0.5"/>
<circle r="1.5" transform="matrix(4.37114e-08 1 1 -4.37114e-08 1894.5 352.5)" fill="#15316F" fill-opacity="0.5"/>
<circle r="1.5" transform="matrix(4.37114e-08 1 1 -4.37114e-08 1894.5 369.5)" fill="#15316F" fill-opacity="0.5"/>
<circle r="1.5" transform="matrix(4.37114e-08 1 1 -4.37114e-08 71.5 433.5)" fill="#15316F" fill-opacity="0.5"/>
<circle r="1.5" transform="matrix(4.37114e-08 1 1 -4.37114e-08 71.5 416.5)" fill="#15316F" fill-opacity="0.5"/>
<circle r="1.5" transform="matrix(4.37114e-08 1 1 -4.37114e-08 71.5 382.5)" fill="#15316F" fill-opacity="0.5"/>
<circle r="1.5" transform="matrix(4.37114e-08 1 1 -4.37114e-08 71.5 365.5)" fill="#15316F" fill-opacity="0.5"/>
<circle r="1.5" transform="matrix(4.37114e-08 1 1 -4.37114e-08 71.5 450.5)" fill="#15316F" fill-opacity="0.5"/>
<circle r="1.5" transform="matrix(4.37114e-08 1 1 -4.37114e-08 71.5 399.5)" fill="#15316F" fill-opacity="0.5"/>
<circle r="1.5" transform="matrix(4.37114e-08 1 1 -4.37114e-08 71.5 467.5)" fill="#15316F" fill-opacity="0.5"/>
<circle r="1.5" transform="matrix(4.37114e-08 1 1 -4.37114e-08 1877.5 12.5)" fill="#15316F" fill-opacity="0.5"/>
<circle r="1.5" transform="matrix(4.37114e-08 1 1 -4.37114e-08 1826.5 12.5)" fill="#15316F" fill-opacity="0.5"/>
<circle r="1.5" transform="matrix(4.37114e-08 1 1 -4.37114e-08 1894.5 284.5)" fill="#15316F" fill-opacity="0.5"/>
<circle r="1.5" transform="matrix(4.37114e-08 1 1 -4.37114e-08 1894.5 182.5)" fill="#15316F" fill-opacity="0.5"/>
<circle r="1.5" transform="matrix(4.37114e-08 1 1 -4.37114e-08 1826.5 233.5)" fill="#15316F" fill-opacity="0.5"/>
<circle r="1.5" transform="matrix(4.37114e-08 1 1 -4.37114e-08 1894.5 80.5)" fill="#15316F" fill-opacity="0.5"/>
<circle r="1.5" transform="matrix(4.37114e-08 1 1 -4.37114e-08 1826.5 182.5)" fill="#15316F" fill-opacity="0.5"/>
<circle r="1.5" transform="matrix(4.37114e-08 1 1 -4.37114e-08 1894.5 233.5)" fill="#15316F" fill-opacity="0.5"/>
<circle r="1.5" transform="matrix(4.37114e-08 1 1 -4.37114e-08 1775.5 165.5)" fill="#15316F" fill-opacity="0.5"/>
<circle r="1.5" transform="matrix(4.37114e-08 1 1 -4.37114e-08 1894.5 131.5)" fill="#15316F" fill-opacity="0.5"/>
<circle r="1.5" transform="matrix(4.37114e-08 1 1 -4.37114e-08 1894.5 29.5)" fill="#15316F" fill-opacity="0.5"/>
<circle r="1.5" transform="matrix(4.37114e-08 1 1 -4.37114e-08 1826.5 131.5)" fill="#15316F" fill-opacity="0.5"/>
<circle r="1.5" transform="matrix(4.37114e-08 1 1 -4.37114e-08 1860.5 12.5)" fill="#15316F" fill-opacity="0.5"/>
<circle r="1.5" transform="matrix(4.37114e-08 1 1 -4.37114e-08 1809.5 12.5)" fill="#15316F" fill-opacity="0.5"/>
<circle r="1.5" transform="matrix(4.37114e-08 1 1 -4.37114e-08 1894.5 301.5)" fill="#15316F" fill-opacity="0.5"/>
<circle r="1.5" transform="matrix(4.37114e-08 1 1 -4.37114e-08 1894.5 199.5)" fill="#15316F" fill-opacity="0.5"/>
<circle r="1.5" transform="matrix(4.37114e-08 1 1 -4.37114e-08 1826.5 250.5)" fill="#15316F" fill-opacity="0.5"/>
<circle r="1.5" transform="matrix(4.37114e-08 1 1 -4.37114e-08 1775.5 131.5)" fill="#15316F" fill-opacity="0.5"/>
<circle r="1.5" transform="matrix(4.37114e-08 1 1 -4.37114e-08 1894.5 97.5)" fill="#15316F" fill-opacity="0.5"/>
<circle r="1.5" transform="matrix(4.37114e-08 1 1 -4.37114e-08 1826.5 199.5)" fill="#15316F" fill-opacity="0.5"/>
<circle r="1.5" transform="matrix(4.37114e-08 1 1 -4.37114e-08 1894.5 250.5)" fill="#15316F" fill-opacity="0.5"/>
<circle r="1.5" transform="matrix(4.37114e-08 1 1 -4.37114e-08 1775.5 182.5)" fill="#15316F" fill-opacity="0.5"/>
<circle r="1.5" transform="matrix(4.37114e-08 1 1 -4.37114e-08 1894.5 148.5)" fill="#15316F" fill-opacity="0.5"/>
<circle r="1.5" transform="matrix(4.37114e-08 1 1 -4.37114e-08 1894.5 46.5)" fill="#15316F" fill-opacity="0.5"/>
<circle r="1.5" transform="matrix(4.37114e-08 1 1 -4.37114e-08 1826.5 148.5)" fill="#15316F" fill-opacity="0.5"/>
<circle r="1.5" transform="matrix(4.37114e-08 1 1 -4.37114e-08 1894.5 318.5)" fill="#15316F" fill-opacity="0.5"/>
<circle r="1.5" transform="matrix(4.37114e-08 1 1 -4.37114e-08 1894.5 216.5)" fill="#15316F" fill-opacity="0.5"/>
<circle r="1.5" transform="matrix(4.37114e-08 1 1 -4.37114e-08 1826.5 267.5)" fill="#15316F" fill-opacity="0.5"/>
<circle r="1.5" transform="matrix(4.37114e-08 1 1 -4.37114e-08 1775.5 148.5)" fill="#15316F" fill-opacity="0.5"/>
<circle r="1.5" transform="matrix(4.37114e-08 1 1 -4.37114e-08 1894.5 267.5)" fill="#15316F" fill-opacity="0.5"/>
<circle r="1.5" transform="matrix(4.37114e-08 1 1 -4.37114e-08 1775.5 199.5)" fill="#15316F" fill-opacity="0.5"/>
<circle r="1.5" transform="matrix(4.37114e-08 1 1 -4.37114e-08 1894.5 165.5)" fill="#15316F" fill-opacity="0.5"/>
<circle r="1.5" transform="matrix(4.37114e-08 1 1 -4.37114e-08 1826.5 216.5)" fill="#15316F" fill-opacity="0.5"/>
<circle r="1.5" transform="matrix(4.37114e-08 1 1 -4.37114e-08 1894.5 63.5)" fill="#15316F" fill-opacity="0.5"/>
<circle r="1.5" transform="matrix(4.37114e-08 1 1 -4.37114e-08 1826.5 165.5)" fill="#15316F" fill-opacity="0.5"/>
<circle cx="1894.5" cy="777.5" r="1.5" transform="rotate(-90 1894.5 777.5)" fill="#15316F" fill-opacity="0.5"/>
<circle cx="1894.5" cy="760.5" r="1.5" transform="rotate(-90 1894.5 760.5)" fill="#15316F" fill-opacity="0.5"/>
<circle cx="1894.5" cy="743.5" r="1.5" transform="rotate(-90 1894.5 743.5)" fill="#15316F" fill-opacity="0.5"/>
<circle r="1.5" transform="matrix(-1 0 0 1 1877.5 743.5)" fill="#15316F" fill-opacity="0.5"/>
<circle r="1.5" transform="matrix(-1 0 0 1 1860.5 743.5)" fill="#15316F" fill-opacity="0.5"/>
<circle r="1.5" transform="matrix(-1 0 0 1 1843.5 743.5)" fill="#15316F" fill-opacity="0.5"/>
<circle r="1.5" transform="matrix(-1 0 0 1 1758.5 743.5)" fill="#15316F" fill-opacity="0.5"/>
<circle r="1.5" transform="matrix(-1 0 0 1 1809.5 743.5)" fill="#15316F" fill-opacity="0.5"/>
<circle r="1.5" transform="matrix(-1 0 0 1 1741.5 743.5)" fill="#15316F" fill-opacity="0.5"/>
<circle r="1.5" transform="matrix(-1 0 0 1 1792.5 743.5)" fill="#15316F" fill-opacity="0.5"/>
<circle r="1.5" transform="matrix(-1 0 0 1 1724.5 743.5)" fill="#15316F" fill-opacity="0.5"/>
<circle r="1.5" transform="matrix(-1 0 0 1 1775.5 743.5)" fill="#15316F" fill-opacity="0.5"/>
<circle r="1.5" transform="matrix(-1 0 0 1 1656.5 743.5)" fill="#15316F" fill-opacity="0.5"/>
<circle r="1.5" transform="matrix(-1 0 0 1 1707.5 743.5)" fill="#15316F" fill-opacity="0.5"/>
<circle r="1.5" transform="matrix(-1 0 0 1 1690.5 743.5)" fill="#15316F" fill-opacity="0.5"/>
<circle r="1.5" transform="matrix(-1 0 0 1 1673.5 743.5)" fill="#15316F" fill-opacity="0.5"/>
<circle r="1.5" transform="matrix(-1 0 0 1 1826.5 743.5)" fill="#15316F" fill-opacity="0.5"/>
<circle r="1.5" transform="matrix(1 -8.74228e-08 -8.74228e-08 -1 1741.5 556.5)" fill="#15316F" fill-opacity="0.5"/>
<circle r="1.5" transform="matrix(1 -8.74228e-08 -8.74228e-08 -1 1690.5 556.5)" fill="#15316F" fill-opacity="0.5"/>
<circle r="1.5" transform="matrix(1 -8.74228e-08 -8.74228e-08 -1 1758.5 556.5)" fill="#15316F" fill-opacity="0.5"/>
<circle r="1.5" transform="matrix(1 -8.74228e-08 -8.74228e-08 -1 1707.5 556.5)" fill="#15316F" fill-opacity="0.5"/>
<circle r="1.5" transform="matrix(1 -8.74228e-08 -8.74228e-08 -1 1775.5 556.5)" fill="#15316F" fill-opacity="0.5"/>
<circle r="1.5" transform="matrix(1 -8.74228e-08 -8.74228e-08 -1 1724.5 556.5)" fill="#15316F" fill-opacity="0.5"/>
<circle r="1.5" transform="matrix(-1 0 0 1 1826.5 556.5)" fill="#15316F" fill-opacity="0.5"/>
<circle r="1.5" transform="matrix(-1 0 0 1 1877.5 556.5)" fill="#15316F" fill-opacity="0.5"/>
<circle r="1.5" transform="matrix(-1 0 0 1 1809.5 556.5)" fill="#15316F" fill-opacity="0.5"/>
<circle r="1.5" transform="matrix(-1 0 0 1 1860.5 556.5)" fill="#15316F" fill-opacity="0.5"/>
<circle r="1.5" transform="matrix(-1 0 0 1 1792.5 556.5)" fill="#15316F" fill-opacity="0.5"/>
<circle r="1.5" transform="matrix(-1 0 0 1 1843.5 556.5)" fill="#15316F" fill-opacity="0.5"/>
</svg>
