<svg width="1920" height="1150" viewBox="0 0 1920 1150" fill="none" xmlns="http://www.w3.org/2000/svg">
<circle cx="1920.5" cy="298.5" r="1.5" fill="#15316F" fill-opacity="0.5"/>
<circle cx="1767.5" cy="213.5" r="1.5" fill="#15316F" fill-opacity="0.5"/>
<circle cx="1716.5" cy="213.5" r="1.5" fill="#15316F" fill-opacity="0.5"/>
<circle cx="1784.5" cy="213.5" r="1.5" fill="#15316F" fill-opacity="0.5"/>
<circle cx="1733.5" cy="213.5" r="1.5" fill="#15316F" fill-opacity="0.5"/>
<circle cx="1801.5" cy="213.5" r="1.5" fill="#15316F" fill-opacity="0.5"/>
<circle cx="1750.5" cy="213.5" r="1.5" fill="#15316F" fill-opacity="0.5"/>
<circle cx="1767.5" cy="502.5" r="1.5" fill="#15316F" fill-opacity="0.5"/>
<circle cx="1716.5" cy="502.5" r="1.5" fill="#15316F" fill-opacity="0.5"/>
<circle cx="1784.5" cy="502.5" r="1.5" fill="#15316F" fill-opacity="0.5"/>
<circle cx="1733.5" cy="502.5" r="1.5" fill="#15316F" fill-opacity="0.5"/>
<circle cx="1801.5" cy="502.5" r="1.5" fill="#15316F" fill-opacity="0.5"/>
<circle cx="1750.5" cy="502.5" r="1.5" fill="#15316F" fill-opacity="0.5"/>
<circle cx="1869.5" cy="298.5" r="1.5" fill="#15316F" fill-opacity="0.5"/>
<circle cx="1818.5" cy="298.5" r="1.5" fill="#15316F" fill-opacity="0.5"/>
<circle cx="1886.5" cy="298.5" r="1.5" fill="#15316F" fill-opacity="0.5"/>
<circle cx="1835.5" cy="298.5" r="1.5" fill="#15316F" fill-opacity="0.5"/>
<circle cx="1852.5" cy="298.5" r="1.5" fill="#15316F" fill-opacity="0.5"/>
<circle cx="1801.5" cy="145.5" r="1.5" fill="#15316F" fill-opacity="0.5"/>
<circle cx="1750.5" cy="145.5" r="1.5" fill="#15316F" fill-opacity="0.5"/>
<circle cx="1818.5" cy="145.5" r="1.5" fill="#15316F" fill-opacity="0.5"/>
<circle cx="1767.5" cy="145.5" r="1.5" fill="#15316F" fill-opacity="0.5"/>
<circle cx="1835.5" cy="145.5" r="1.5" fill="#15316F" fill-opacity="0.5"/>
<circle cx="1817.5" cy="35.5" r="1.5" fill="#15316F" fill-opacity="0.5"/>
<circle cx="1784.5" cy="145.5" r="1.5" fill="#15316F" fill-opacity="0.5"/>
<circle cx="1903.5" cy="264.5" r="1.5" transform="rotate(90 1903.5 264.5)" fill="#15316F" fill-opacity="0.5"/>
<circle cx="1903.5" cy="213.5" r="1.5" transform="rotate(90 1903.5 213.5)" fill="#15316F" fill-opacity="0.5"/>
<circle cx="1903.5" cy="281.5" r="1.5" transform="rotate(90 1903.5 281.5)" fill="#15316F" fill-opacity="0.5"/>
<circle cx="1903.5" cy="230.5" r="1.5" transform="rotate(90 1903.5 230.5)" fill="#15316F" fill-opacity="0.5"/>
<circle cx="1903.5" cy="298.5" r="1.5" transform="rotate(90 1903.5 298.5)" fill="#15316F" fill-opacity="0.5"/>
<circle cx="1903.5" cy="247.5" r="1.5" transform="rotate(90 1903.5 247.5)" fill="#15316F" fill-opacity="0.5"/>
<circle cx="1903.5" cy="162.5" r="1.5" transform="rotate(90 1903.5 162.5)" fill="#15316F" fill-opacity="0.5"/>
<circle cx="1903.5" cy="111.5" r="1.5" transform="rotate(90 1903.5 111.5)" fill="#15316F" fill-opacity="0.5"/>
<circle cx="1903.5" cy="179.5" r="1.5" transform="rotate(90 1903.5 179.5)" fill="#15316F" fill-opacity="0.5"/>
<circle cx="1903.5" cy="128.5" r="1.5" transform="rotate(90 1903.5 128.5)" fill="#15316F" fill-opacity="0.5"/>
<circle cx="1903.5" cy="196.5" r="1.5" transform="rotate(90 1903.5 196.5)" fill="#15316F" fill-opacity="0.5"/>
<circle cx="1903.5" cy="145.5" r="1.5" transform="rotate(90 1903.5 145.5)" fill="#15316F" fill-opacity="0.5"/>
<circle cx="1903.5" cy="468.5" r="1.5" transform="rotate(90 1903.5 468.5)" fill="#15316F" fill-opacity="0.5"/>
<circle cx="1903.5" cy="417.5" r="1.5" transform="rotate(90 1903.5 417.5)" fill="#15316F" fill-opacity="0.5"/>
<circle cx="1903.5" cy="485.5" r="1.5" transform="rotate(90 1903.5 485.5)" fill="#15316F" fill-opacity="0.5"/>
<circle cx="1903.5" cy="434.5" r="1.5" transform="rotate(90 1903.5 434.5)" fill="#15316F" fill-opacity="0.5"/>
<circle cx="1903.5" cy="502.5" r="1.5" transform="rotate(90 1903.5 502.5)" fill="#15316F" fill-opacity="0.5"/>
<circle cx="1903.5" cy="451.5" r="1.5" transform="rotate(90 1903.5 451.5)" fill="#15316F" fill-opacity="0.5"/>
<circle cx="1903.5" cy="60.5" r="1.5" transform="rotate(90 1903.5 60.5)" fill="#15316F" fill-opacity="0.5"/>
<circle cx="1903.5" cy="9.5" r="1.5" transform="rotate(90 1903.5 9.5)" fill="#15316F" fill-opacity="0.5"/>
<circle cx="1903.5" cy="77.5" r="1.5" transform="rotate(90 1903.5 77.5)" fill="#15316F" fill-opacity="0.5"/>
<circle cx="1903.5" cy="26.5" r="1.5" transform="rotate(90 1903.5 26.5)" fill="#15316F" fill-opacity="0.5"/>
<circle cx="1903.5" cy="94.5" r="1.5" transform="rotate(90 1903.5 94.5)" fill="#15316F" fill-opacity="0.5"/>
<circle cx="1903.5" cy="43.5" r="1.5" transform="rotate(90 1903.5 43.5)" fill="#15316F" fill-opacity="0.5"/>
<circle cx="1903.5" cy="366.5" r="1.5" transform="rotate(90 1903.5 366.5)" fill="#15316F" fill-opacity="0.5"/>
<circle cx="1903.5" cy="315.5" r="1.5" transform="rotate(90 1903.5 315.5)" fill="#15316F" fill-opacity="0.5"/>
<circle cx="1903.5" cy="383.5" r="1.5" transform="rotate(90 1903.5 383.5)" fill="#15316F" fill-opacity="0.5"/>
<circle cx="1903.5" cy="332.5" r="1.5" transform="rotate(90 1903.5 332.5)" fill="#15316F" fill-opacity="0.5"/>
<circle cx="1903.5" cy="400.5" r="1.5" transform="rotate(90 1903.5 400.5)" fill="#15316F" fill-opacity="0.5"/>
<circle cx="1903.5" cy="349.5" r="1.5" transform="rotate(90 1903.5 349.5)" fill="#15316F" fill-opacity="0.5"/>
<circle cx="1818.5" cy="162.5" r="1.5" transform="rotate(90 1818.5 162.5)" fill="#15316F" fill-opacity="0.5"/>
<circle cx="1817.5" cy="103.5" r="1.5" transform="rotate(90 1817.5 103.5)" fill="#15316F" fill-opacity="0.5"/>
<circle cx="1818.5" cy="179.5" r="1.5" transform="rotate(90 1818.5 179.5)" fill="#15316F" fill-opacity="0.5"/>
<circle cx="1817.5" cy="120.5" r="1.5" transform="rotate(90 1817.5 120.5)" fill="#15316F" fill-opacity="0.5"/>
<circle cx="1818.5" cy="196.5" r="1.5" transform="rotate(90 1818.5 196.5)" fill="#15316F" fill-opacity="0.5"/>
<circle cx="1818.5" cy="213.5" r="1.5" transform="rotate(90 1818.5 213.5)" fill="#15316F" fill-opacity="0.5"/>
<circle cx="1818.5" cy="468.5" r="1.5" transform="rotate(90 1818.5 468.5)" fill="#15316F" fill-opacity="0.5"/>
<circle cx="1818.5" cy="417.5" r="1.5" transform="rotate(90 1818.5 417.5)" fill="#15316F" fill-opacity="0.5"/>
<circle cx="1818.5" cy="485.5" r="1.5" transform="rotate(90 1818.5 485.5)" fill="#15316F" fill-opacity="0.5"/>
<circle cx="1818.5" cy="434.5" r="1.5" transform="rotate(90 1818.5 434.5)" fill="#15316F" fill-opacity="0.5"/>
<circle cx="1818.5" cy="451.5" r="1.5" transform="rotate(90 1818.5 451.5)" fill="#15316F" fill-opacity="0.5"/>
<circle cx="1818.5" cy="502.5" r="1.5" transform="rotate(90 1818.5 502.5)" fill="#15316F" fill-opacity="0.5"/>
<circle cx="1817.5" cy="52.5" r="1.5" transform="rotate(90 1817.5 52.5)" fill="#15316F" fill-opacity="0.5"/>
<circle cx="1817.5" cy="1.5" r="1.5" transform="rotate(90 1817.5 1.5)" fill="#15316F" fill-opacity="0.5"/>
<circle cx="1817.5" cy="69.5" r="1.5" transform="rotate(90 1817.5 69.5)" fill="#15316F" fill-opacity="0.5"/>
<circle cx="1817.5" cy="18.5" r="1.5" transform="rotate(90 1817.5 18.5)" fill="#15316F" fill-opacity="0.5"/>
<circle cx="1817.5" cy="86.5" r="1.5" transform="rotate(90 1817.5 86.5)" fill="#15316F" fill-opacity="0.5"/>
<circle cx="1818.5" cy="366.5" r="1.5" transform="rotate(90 1818.5 366.5)" fill="#15316F" fill-opacity="0.5"/>
<circle cx="1818.5" cy="349.5" r="1.5" transform="rotate(90 1818.5 349.5)" fill="#15316F" fill-opacity="0.5"/>
<circle cx="1818.5" cy="315.5" r="1.5" transform="rotate(90 1818.5 315.5)" fill="#15316F" fill-opacity="0.5"/>
<circle cx="1818.5" cy="383.5" r="1.5" transform="rotate(90 1818.5 383.5)" fill="#15316F" fill-opacity="0.5"/>
<circle cx="1818.5" cy="332.5" r="1.5" transform="rotate(90 1818.5 332.5)" fill="#15316F" fill-opacity="0.5"/>
<circle cx="1818.5" cy="400.5" r="1.5" transform="rotate(90 1818.5 400.5)" fill="#15316F" fill-opacity="0.5"/>
<circle r="1.5" transform="matrix(-1 0 0 1 1888.5 944.5)" fill="#15316F" fill-opacity="0.5"/>
<circle r="1.5" transform="matrix(-1 0 0 1 1871.5 944.5)" fill="#15316F" fill-opacity="0.5"/>
<circle r="1.5" transform="matrix(-1 0 0 1 1854.5 944.5)" fill="#15316F" fill-opacity="0.5"/>
<circle r="1.5" transform="matrix(-1 0 0 1 1905.5 944.5)" fill="#15316F" fill-opacity="0.5"/>
<circle r="1.5" transform="matrix(-1 0 0 1 1769.5 944.5)" fill="#15316F" fill-opacity="0.5"/>
<circle r="1.5" transform="matrix(-1 0 0 1 1820.5 944.5)" fill="#15316F" fill-opacity="0.5"/>
<circle r="1.5" transform="matrix(-1 0 0 1 1752.5 944.5)" fill="#15316F" fill-opacity="0.5"/>
<circle r="1.5" transform="matrix(-1 0 0 1 1803.5 944.5)" fill="#15316F" fill-opacity="0.5"/>
<circle r="1.5" transform="matrix(-1 0 0 1 1735.5 944.5)" fill="#15316F" fill-opacity="0.5"/>
<circle r="1.5" transform="matrix(-1 0 0 1 1786.5 944.5)" fill="#15316F" fill-opacity="0.5"/>
<circle r="1.5" transform="matrix(-1 0 0 1 1667.5 944.5)" fill="#15316F" fill-opacity="0.5"/>
<circle r="1.5" transform="matrix(-1 0 0 1 1718.5 944.5)" fill="#15316F" fill-opacity="0.5"/>
<circle r="1.5" transform="matrix(-1 0 0 1 1701.5 944.5)" fill="#15316F" fill-opacity="0.5"/>
<circle r="1.5" transform="matrix(-1 0 0 1 1684.5 944.5)" fill="#15316F" fill-opacity="0.5"/>
<circle r="1.5" transform="matrix(-1 0 0 1 1837.5 944.5)" fill="#15316F" fill-opacity="0.5"/>
<circle r="1.5" transform="matrix(-1 0 0 1 1835.5 791.5)" fill="#15316F" fill-opacity="0.5"/>
<circle r="1.5" transform="matrix(-1 0 0 1 1886.5 791.5)" fill="#15316F" fill-opacity="0.5"/>
<circle r="1.5" transform="matrix(-1 0 0 1 1818.5 791.5)" fill="#15316F" fill-opacity="0.5"/>
<circle r="1.5" transform="matrix(-1 0 0 1 1869.5 791.5)" fill="#15316F" fill-opacity="0.5"/>
<circle r="1.5" transform="matrix(-1 0 0 1 1852.5 791.5)" fill="#15316F" fill-opacity="0.5"/>
<circle r="1.5" transform="matrix(-1 0 0 1 78.5 655.5)" fill="#15316F" fill-opacity="0.5"/>
<circle r="1.5" transform="matrix(-1 0 0 1 129.5 655.5)" fill="#15316F" fill-opacity="0.5"/>
<circle r="1.5" transform="matrix(-1 0 0 1 78.5 893.5)" fill="#15316F" fill-opacity="0.5"/>
<circle r="1.5" transform="matrix(-1 0 0 1 78.5 1046.5)" fill="#15316F" fill-opacity="0.5"/>
<circle r="1.5" transform="matrix(-1 0 0 1 112.5 655.5)" fill="#15316F" fill-opacity="0.5"/>
<circle r="1.5" transform="matrix(-1 0 0 1 61.5 893.5)" fill="#15316F" fill-opacity="0.5"/>
<circle r="1.5" transform="matrix(-1 0 0 1 44.5 893.5)" fill="#15316F" fill-opacity="0.5"/>
<circle r="1.5" transform="matrix(-1 0 0 1 95.5 655.5)" fill="#15316F" fill-opacity="0.5"/>
<circle r="1.5" transform="matrix(-1 0 0 1 10.5 893.5)" fill="#15316F" fill-opacity="0.5"/>
<circle r="1.5" transform="matrix(-1 0 0 1 24.5 485.5)" fill="#15316F" fill-opacity="0.5"/>
<circle r="1.5" transform="matrix(-1 0 0 1 7.5 485.5)" fill="#15316F" fill-opacity="0.5"/>
<circle r="1.5" transform="matrix(-1 0 0 1 27.5 893.5)" fill="#15316F" fill-opacity="0.5"/>
<circle r="1.5" transform="matrix(4.37114e-08 1 1 -4.37114e-08 78.5 842.5)" fill="#15316F" fill-opacity="0.5"/>
<circle r="1.5" transform="matrix(4.37114e-08 1 1 -4.37114e-08 78.5 995.5)" fill="#15316F" fill-opacity="0.5"/>
<circle r="1.5" transform="matrix(4.37114e-08 1 1 -4.37114e-08 78.5 825.5)" fill="#15316F" fill-opacity="0.5"/>
<circle r="1.5" transform="matrix(4.37114e-08 1 1 -4.37114e-08 78.5 978.5)" fill="#15316F" fill-opacity="0.5"/>
<circle r="1.5" transform="matrix(4.37114e-08 1 1 -4.37114e-08 78.5 791.5)" fill="#15316F" fill-opacity="0.5"/>
<circle r="1.5" transform="matrix(4.37114e-08 1 1 -4.37114e-08 78.5 774.5)" fill="#15316F" fill-opacity="0.5"/>
<circle r="1.5" transform="matrix(4.37114e-08 1 1 -4.37114e-08 78.5 859.5)" fill="#15316F" fill-opacity="0.5"/>
<circle r="1.5" transform="matrix(4.37114e-08 1 1 -4.37114e-08 78.5 1012.5)" fill="#15316F" fill-opacity="0.5"/>
<circle r="1.5" transform="matrix(4.37114e-08 1 1 -4.37114e-08 78.5 808.5)" fill="#15316F" fill-opacity="0.5"/>
<circle r="1.5" transform="matrix(4.37114e-08 1 1 -4.37114e-08 78.5 961.5)" fill="#15316F" fill-opacity="0.5"/>
<circle r="1.5" transform="matrix(4.37114e-08 1 1 -4.37114e-08 78.5 876.5)" fill="#15316F" fill-opacity="0.5"/>
<circle r="1.5" transform="matrix(4.37114e-08 1 1 -4.37114e-08 78.5 1029.5)" fill="#15316F" fill-opacity="0.5"/>
<circle r="1.5" transform="matrix(4.37114e-08 1 1 -4.37114e-08 1905.5 910.5)" fill="#15316F" fill-opacity="0.5"/>
<circle r="1.5" transform="matrix(4.37114e-08 1 1 -4.37114e-08 1905.5 859.5)" fill="#15316F" fill-opacity="0.5"/>
<circle r="1.5" transform="matrix(4.37114e-08 1 1 -4.37114e-08 1905.5 927.5)" fill="#15316F" fill-opacity="0.5"/>
<circle r="1.5" transform="matrix(4.37114e-08 1 1 -4.37114e-08 1905.5 876.5)" fill="#15316F" fill-opacity="0.5"/>
<circle r="1.5" transform="matrix(4.37114e-08 1 1 -4.37114e-08 1905.5 893.5)" fill="#15316F" fill-opacity="0.5"/>
<circle r="1.5" transform="matrix(4.37114e-08 1 1 -4.37114e-08 78.5 740.5)" fill="#15316F" fill-opacity="0.5"/>
<circle r="1.5" transform="matrix(4.37114e-08 1 1 -4.37114e-08 78.5 689.5)" fill="#15316F" fill-opacity="0.5"/>
<circle r="1.5" transform="matrix(4.37114e-08 1 1 -4.37114e-08 78.5 757.5)" fill="#15316F" fill-opacity="0.5"/>
<circle r="1.5" transform="matrix(4.37114e-08 1 1 -4.37114e-08 78.5 706.5)" fill="#15316F" fill-opacity="0.5"/>
<circle r="1.5" transform="matrix(4.37114e-08 1 1 -4.37114e-08 78.5 723.5)" fill="#15316F" fill-opacity="0.5"/>
<circle r="1.5" transform="matrix(4.37114e-08 1 1 -4.37114e-08 1903.5 808.5)" fill="#15316F" fill-opacity="0.5"/>
<circle r="1.5" transform="matrix(4.37114e-08 1 1 -4.37114e-08 1903.5 757.5)" fill="#15316F" fill-opacity="0.5"/>
<circle r="1.5" transform="matrix(4.37114e-08 1 1 -4.37114e-08 1903.5 825.5)" fill="#15316F" fill-opacity="0.5"/>
<circle r="1.5" transform="matrix(4.37114e-08 1 1 -4.37114e-08 1903.5 774.5)" fill="#15316F" fill-opacity="0.5"/>
<circle r="1.5" transform="matrix(4.37114e-08 1 1 -4.37114e-08 1903.5 842.5)" fill="#15316F" fill-opacity="0.5"/>
<circle r="1.5" transform="matrix(4.37114e-08 1 1 -4.37114e-08 1903.5 791.5)" fill="#15316F" fill-opacity="0.5"/>
<circle r="1.5" transform="matrix(4.37114e-08 1 1 -4.37114e-08 1903.5 706.5)" fill="#15316F" fill-opacity="0.5"/>
<circle r="1.5" transform="matrix(4.37114e-08 1 1 -4.37114e-08 1903.5 655.5)" fill="#15316F" fill-opacity="0.5"/>
<circle r="1.5" transform="matrix(4.37114e-08 1 1 -4.37114e-08 1903.5 723.5)" fill="#15316F" fill-opacity="0.5"/>
<circle r="1.5" transform="matrix(4.37114e-08 1 1 -4.37114e-08 1903.5 672.5)" fill="#15316F" fill-opacity="0.5"/>
<circle r="1.5" transform="matrix(4.37114e-08 1 1 -4.37114e-08 1903.5 740.5)" fill="#15316F" fill-opacity="0.5"/>
<circle r="1.5" transform="matrix(4.37114e-08 1 1 -4.37114e-08 1903.5 689.5)" fill="#15316F" fill-opacity="0.5"/>
<circle r="1.5" transform="matrix(1 -8.74228e-08 -8.74228e-08 -1 1750.5 757.5)" fill="#15316F" fill-opacity="0.5"/>
<circle r="1.5" transform="matrix(1 -8.74228e-08 -8.74228e-08 -1 1699.5 757.5)" fill="#15316F" fill-opacity="0.5"/>
<circle r="1.5" transform="matrix(1 -8.74228e-08 -8.74228e-08 -1 1767.5 757.5)" fill="#15316F" fill-opacity="0.5"/>
<circle r="1.5" transform="matrix(1 -8.74228e-08 -8.74228e-08 -1 1716.5 757.5)" fill="#15316F" fill-opacity="0.5"/>
<circle r="1.5" transform="matrix(1 -8.74228e-08 -8.74228e-08 -1 1784.5 757.5)" fill="#15316F" fill-opacity="0.5"/>
<circle r="1.5" transform="matrix(1 -8.74228e-08 -8.74228e-08 -1 1733.5 757.5)" fill="#15316F" fill-opacity="0.5"/>
<circle r="1.5" transform="matrix(4.37114e-08 1 1 -4.37114e-08 78.5 638.5)" fill="#15316F" fill-opacity="0.5"/>
<circle r="1.5" transform="matrix(4.37114e-08 1 1 -4.37114e-08 78.5 587.5)" fill="#15316F" fill-opacity="0.5"/>
<circle r="1.5" transform="matrix(4.37114e-08 1 1 -4.37114e-08 78.5 604.5)" fill="#15316F" fill-opacity="0.5"/>
<circle r="1.5" transform="matrix(4.37114e-08 1 1 -4.37114e-08 78.5 672.5)" fill="#15316F" fill-opacity="0.5"/>
<circle r="1.5" transform="matrix(4.37114e-08 1 1 -4.37114e-08 78.5 621.5)" fill="#15316F" fill-opacity="0.5"/>
<circle r="1.5" transform="matrix(-1 0 0 1 1835.5 757.5)" fill="#15316F" fill-opacity="0.5"/>
<circle r="1.5" transform="matrix(-1 0 0 1 1886.5 757.5)" fill="#15316F" fill-opacity="0.5"/>
<circle r="1.5" transform="matrix(-1 0 0 1 1818.5 757.5)" fill="#15316F" fill-opacity="0.5"/>
<circle r="1.5" transform="matrix(-1 0 0 1 1869.5 757.5)" fill="#15316F" fill-opacity="0.5"/>
<circle r="1.5" transform="matrix(-1 0 0 1 1801.5 757.5)" fill="#15316F" fill-opacity="0.5"/>
<circle r="1.5" transform="matrix(-1 0 0 1 1852.5 757.5)" fill="#15316F" fill-opacity="0.5"/>
<circle cx="93.5" cy="264.5" r="1.5" fill="#15316F" fill-opacity="0.5"/>
<circle cx="42.5" cy="264.5" r="1.5" fill="#15316F" fill-opacity="0.5"/>
<circle cx="110.5" cy="264.5" r="1.5" fill="#15316F" fill-opacity="0.5"/>
<circle cx="59.5" cy="264.5" r="1.5" fill="#15316F" fill-opacity="0.5"/>
<circle cx="127.5" cy="264.5" r="1.5" fill="#15316F" fill-opacity="0.5"/>
<circle cx="76.5" cy="264.5" r="1.5" fill="#15316F" fill-opacity="0.5"/>
<circle cx="212.5" cy="264.5" r="1.5" fill="#15316F" fill-opacity="0.5"/>
<circle cx="161.5" cy="264.5" r="1.5" fill="#15316F" fill-opacity="0.5"/>
<circle cx="229.5" cy="264.5" r="1.5" fill="#15316F" fill-opacity="0.5"/>
<circle cx="178.5" cy="264.5" r="1.5" fill="#15316F" fill-opacity="0.5"/>
<circle cx="246.5" cy="264.5" r="1.5" fill="#15316F" fill-opacity="0.5"/>
<circle cx="195.5" cy="264.5" r="1.5" fill="#15316F" fill-opacity="0.5"/>
<circle cx="314.5" cy="264.5" r="1.5" fill="#15316F" fill-opacity="0.5"/>
<circle cx="263.5" cy="264.5" r="1.5" fill="#15316F" fill-opacity="0.5"/>
<circle cx="280.5" cy="264.5" r="1.5" fill="#15316F" fill-opacity="0.5"/>
<circle cx="297.5" cy="264.5" r="1.5" fill="#15316F" fill-opacity="0.5"/>
<circle cx="144.5" cy="264.5" r="1.5" fill="#15316F" fill-opacity="0.5"/>
<circle cx="144.5" cy="111.5" r="1.5" fill="#15316F" fill-opacity="0.5"/>
<circle cx="93.5" cy="111.5" r="1.5" fill="#15316F" fill-opacity="0.5"/>
<circle cx="161.5" cy="111.5" r="1.5" fill="#15316F" fill-opacity="0.5"/>
<circle cx="110.5" cy="111.5" r="1.5" fill="#15316F" fill-opacity="0.5"/>
<circle cx="127.5" cy="111.5" r="1.5" fill="#15316F" fill-opacity="0.5"/>
<circle cx="8.5" cy="264.5" r="1.5" fill="#15316F" fill-opacity="0.5"/>
<circle cx="1733.5" cy="638.5" r="1.5" fill="#15316F" fill-opacity="0.5"/>
<circle cx="1682.5" cy="638.5" r="1.5" fill="#15316F" fill-opacity="0.5"/>
<circle cx="1750.5" cy="638.5" r="1.5" fill="#15316F" fill-opacity="0.5"/>
<circle cx="1699.5" cy="638.5" r="1.5" fill="#15316F" fill-opacity="0.5"/>
<circle cx="1767.5" cy="638.5" r="1.5" fill="#15316F" fill-opacity="0.5"/>
<circle cx="1784.5" cy="638.5" r="1.5" fill="#15316F" fill-opacity="0.5"/>
<circle cx="1716.5" cy="638.5" r="1.5" fill="#15316F" fill-opacity="0.5"/>
<circle cx="1852.5" cy="638.5" r="1.5" fill="#15316F" fill-opacity="0.5"/>
<circle cx="1801.5" cy="638.5" r="1.5" fill="#15316F" fill-opacity="0.5"/>
<circle cx="1869.5" cy="638.5" r="1.5" fill="#15316F" fill-opacity="0.5"/>
<circle cx="1818.5" cy="638.5" r="1.5" fill="#15316F" fill-opacity="0.5"/>
<circle cx="1886.5" cy="638.5" r="1.5" fill="#15316F" fill-opacity="0.5"/>
<circle cx="1903.5" cy="638.5" r="1.5" fill="#15316F" fill-opacity="0.5"/>
<circle cx="1835.5" cy="638.5" r="1.5" fill="#15316F" fill-opacity="0.5"/>
<circle cx="25.5" cy="230.5" r="1.5" transform="rotate(90 25.5 230.5)" fill="#15316F" fill-opacity="0.5"/>
<circle cx="25.5" cy="179.5" r="1.5" transform="rotate(90 25.5 179.5)" fill="#15316F" fill-opacity="0.5"/>
<circle cx="25.5" cy="247.5" r="1.5" transform="rotate(90 25.5 247.5)" fill="#15316F" fill-opacity="0.5"/>
<circle cx="25.5" cy="196.5" r="1.5" transform="rotate(90 25.5 196.5)" fill="#15316F" fill-opacity="0.5"/>
<circle cx="25.5" cy="264.5" r="1.5" transform="rotate(90 25.5 264.5)" fill="#15316F" fill-opacity="0.5"/>
<circle cx="25.5" cy="213.5" r="1.5" transform="rotate(90 25.5 213.5)" fill="#15316F" fill-opacity="0.5"/>
<circle cx="25.5" cy="128.5" r="1.5" transform="rotate(90 25.5 128.5)" fill="#15316F" fill-opacity="0.5"/>
<circle cx="25.5" cy="77.5002" r="1.5" transform="rotate(90 25.5 77.5002)" fill="#15316F" fill-opacity="0.5"/>
<circle cx="25.5" cy="145.5" r="1.5" transform="rotate(90 25.5 145.5)" fill="#15316F" fill-opacity="0.5"/>
<circle cx="25.5" cy="94.5002" r="1.5" transform="rotate(90 25.5 94.5002)" fill="#15316F" fill-opacity="0.5"/>
<circle cx="25.5" cy="162.5" r="1.5" transform="rotate(90 25.5 162.5)" fill="#15316F" fill-opacity="0.5"/>
<circle cx="25.5" cy="111.5" r="1.5" transform="rotate(90 25.5 111.5)" fill="#15316F" fill-opacity="0.5"/>
<circle cx="25.5" cy="434.5" r="1.5" transform="rotate(90 25.5 434.5)" fill="#15316F" fill-opacity="0.5"/>
<circle cx="25.5" cy="383.5" r="1.5" transform="rotate(90 25.5 383.5)" fill="#15316F" fill-opacity="0.5"/>
<circle cx="25.5" cy="451.5" r="1.5" transform="rotate(90 25.5 451.5)" fill="#15316F" fill-opacity="0.5"/>
<circle cx="25.5" cy="400.5" r="1.5" transform="rotate(90 25.5 400.5)" fill="#15316F" fill-opacity="0.5"/>
<circle cx="25.5" cy="468.5" r="1.5" transform="rotate(90 25.5 468.5)" fill="#15316F" fill-opacity="0.5"/>
<circle cx="25.5" cy="417.5" r="1.5" transform="rotate(90 25.5 417.5)" fill="#15316F" fill-opacity="0.5"/>
<circle cx="25.5" cy="26.5" r="1.5" transform="rotate(90 25.5 26.5)" fill="#15316F" fill-opacity="0.5"/>
<circle cx="25.5" cy="43.5" r="1.5" transform="rotate(90 25.5 43.5)" fill="#15316F" fill-opacity="0.5"/>
<circle cx="25.5" cy="60.5" r="1.5" transform="rotate(90 25.5 60.5)" fill="#15316F" fill-opacity="0.5"/>
<circle cx="25.5" cy="9.5" r="1.5" transform="rotate(90 25.5 9.5)" fill="#15316F" fill-opacity="0.5"/>
<circle cx="59.5" cy="9.5" r="1.5" transform="rotate(90 59.5 9.5)" fill="#15316F" fill-opacity="0.5"/>
<circle cx="42.5" cy="9.5" r="1.5" transform="rotate(90 42.5 9.5)" fill="#15316F" fill-opacity="0.5"/>
<circle cx="8.5" cy="9.5" r="1.5" transform="rotate(90 8.5 9.5)" fill="#15316F" fill-opacity="0.5"/>
<circle cx="25.5" cy="332.5" r="1.5" transform="rotate(90 25.5 332.5)" fill="#15316F" fill-opacity="0.5"/>
<circle cx="25.5" cy="281.5" r="1.5" transform="rotate(90 25.5 281.5)" fill="#15316F" fill-opacity="0.5"/>
<circle cx="25.5" cy="349.5" r="1.5" transform="rotate(90 25.5 349.5)" fill="#15316F" fill-opacity="0.5"/>
<circle cx="25.5" cy="298.5" r="1.5" transform="rotate(90 25.5 298.5)" fill="#15316F" fill-opacity="0.5"/>
<circle cx="25.5" cy="366.5" r="1.5" transform="rotate(90 25.5 366.5)" fill="#15316F" fill-opacity="0.5"/>
<circle cx="25.5" cy="315.5" r="1.5" transform="rotate(90 25.5 315.5)" fill="#15316F" fill-opacity="0.5"/>
<circle cx="78.5" cy="553.5" r="1.5" transform="rotate(90 78.5 553.5)" fill="#15316F" fill-opacity="0.5"/>
<circle cx="78.5" cy="502.5" r="1.5" transform="rotate(90 78.5 502.5)" fill="#15316F" fill-opacity="0.5"/>
<circle cx="78.5" cy="570.5" r="1.5" transform="rotate(90 78.5 570.5)" fill="#15316F" fill-opacity="0.5"/>
<circle cx="78.5" cy="519.5" r="1.5" transform="rotate(90 78.5 519.5)" fill="#15316F" fill-opacity="0.5"/>
<circle cx="78.5" cy="536.5" r="1.5" transform="rotate(90 78.5 536.5)" fill="#15316F" fill-opacity="0.5"/>
<circle cx="1903.5" cy="587.5" r="1.5" transform="rotate(90 1903.5 587.5)" fill="#15316F" fill-opacity="0.5"/>
<circle cx="1903.5" cy="570.5" r="1.5" transform="rotate(90 1903.5 570.5)" fill="#15316F" fill-opacity="0.5"/>
<circle cx="1903.5" cy="536.5" r="1.5" transform="rotate(90 1903.5 536.5)" fill="#15316F" fill-opacity="0.5"/>
<circle cx="1903.5" cy="519.5" r="1.5" transform="rotate(90 1903.5 519.5)" fill="#15316F" fill-opacity="0.5"/>
<circle cx="1903.5" cy="604.5" r="1.5" transform="rotate(90 1903.5 604.5)" fill="#15316F" fill-opacity="0.5"/>
<circle cx="1903.5" cy="553.5" r="1.5" transform="rotate(90 1903.5 553.5)" fill="#15316F" fill-opacity="0.5"/>
<circle cx="1903.5" cy="621.5" r="1.5" transform="rotate(90 1903.5 621.5)" fill="#15316F" fill-opacity="0.5"/>
<circle cx="76.5" cy="128.5" r="1.5" transform="rotate(90 76.5 128.5)" fill="#15316F" fill-opacity="0.5"/>
<circle cx="76.5" cy="77.5" r="1.5" transform="rotate(90 76.5 77.5)" fill="#15316F" fill-opacity="0.5"/>
<circle cx="76.5" cy="145.5" r="1.5" transform="rotate(90 76.5 145.5)" fill="#15316F" fill-opacity="0.5"/>
<circle cx="76.5" cy="94.5" r="1.5" transform="rotate(90 76.5 94.5)" fill="#15316F" fill-opacity="0.5"/>
<circle cx="76.5" cy="162.5" r="1.5" transform="rotate(90 76.5 162.5)" fill="#15316F" fill-opacity="0.5"/>
<circle cx="76.5" cy="111.5" r="1.5" transform="rotate(90 76.5 111.5)" fill="#15316F" fill-opacity="0.5"/>
<circle cx="76.5" cy="26.5002" r="1.5" transform="rotate(90 76.5 26.5002)" fill="#15316F" fill-opacity="0.5"/>
<circle cx="76.5" cy="43.5002" r="1.5" transform="rotate(90 76.5 43.5002)" fill="#15316F" fill-opacity="0.5"/>
<circle cx="76.5" cy="60.5002" r="1.5" transform="rotate(90 76.5 60.5002)" fill="#15316F" fill-opacity="0.5"/>
<circle cx="76.5" cy="9.50024" r="1.5" transform="rotate(90 76.5 9.50024)" fill="#15316F" fill-opacity="0.5"/>
<circle cx="229.5" cy="77.5002" r="1.5" transform="rotate(-180 229.5 77.5002)" fill="#15316F" fill-opacity="0.5"/>
<circle cx="246.5" cy="77.5002" r="1.5" transform="rotate(-90 246.5 77.5002)" fill="#15316F" fill-opacity="0.5"/>
<circle cx="212.5" cy="77.5002" r="1.5" transform="rotate(-180 212.5 77.5002)" fill="#15316F" fill-opacity="0.5"/>
<circle cx="246.5" cy="60.5002" r="1.5" transform="rotate(-90 246.5 60.5002)" fill="#15316F" fill-opacity="0.5"/>
<circle cx="195.5" cy="77.5002" r="1.5" transform="rotate(-180 195.5 77.5002)" fill="#15316F" fill-opacity="0.5"/>
<circle cx="78.5" cy="451.5" r="1.5" transform="rotate(90 78.5 451.5)" fill="#15316F" fill-opacity="0.5"/>
<circle cx="78.5" cy="400.5" r="1.5" transform="rotate(90 78.5 400.5)" fill="#15316F" fill-opacity="0.5"/>
<circle cx="78.5" cy="468.5" r="1.5" transform="rotate(90 78.5 468.5)" fill="#15316F" fill-opacity="0.5"/>
<circle cx="78.5" cy="417.5" r="1.5" transform="rotate(90 78.5 417.5)" fill="#15316F" fill-opacity="0.5"/>
<circle cx="78.5" cy="485.5" r="1.5" transform="rotate(90 78.5 485.5)" fill="#15316F" fill-opacity="0.5"/>
<circle cx="78.5" cy="434.5" r="1.5" transform="rotate(90 78.5 434.5)" fill="#15316F" fill-opacity="0.5"/>
<circle cx="144.5" cy="77.5" r="1.5" fill="#15316F" fill-opacity="0.5"/>
<circle cx="93.5" cy="77.5" r="1.5" fill="#15316F" fill-opacity="0.5"/>
<circle cx="161.5" cy="77.5" r="1.5" fill="#15316F" fill-opacity="0.5"/>
<circle cx="110.5" cy="77.5" r="1.5" fill="#15316F" fill-opacity="0.5"/>
<circle cx="178.5" cy="77.5" r="1.5" fill="#15316F" fill-opacity="0.5"/>
<circle cx="127.5" cy="77.5" r="1.5" fill="#15316F" fill-opacity="0.5"/>
<circle r="1.5" transform="matrix(4.37114e-08 -1 -1 -4.37114e-08 78.5 944.5)" fill="#15316F" fill-opacity="0.5"/>
<circle r="1.5" transform="matrix(4.37114e-08 -1 -1 -4.37114e-08 78.5 1097.5)" fill="#15316F" fill-opacity="0.5"/>
<circle r="1.5" transform="matrix(4.37114e-08 -1 -1 -4.37114e-08 246.5 43.5)" fill="#15316F" fill-opacity="0.5"/>
<circle r="1.5" transform="matrix(4.37114e-08 -1 -1 -4.37114e-08 78.5 927.5)" fill="#15316F" fill-opacity="0.5"/>
<circle r="1.5" transform="matrix(4.37114e-08 -1 -1 -4.37114e-08 78.5 1080.5)" fill="#15316F" fill-opacity="0.5"/>
<circle r="1.5" transform="matrix(4.37114e-08 -1 -1 -4.37114e-08 246.5 26.5)" fill="#15316F" fill-opacity="0.5"/>
<circle r="1.5" transform="matrix(4.37114e-08 -1 -1 -4.37114e-08 78.5 910.5)" fill="#15316F" fill-opacity="0.5"/>
<circle r="1.5" transform="matrix(4.37114e-08 -1 -1 -4.37114e-08 78.5 1063.5)" fill="#15316F" fill-opacity="0.5"/>
<circle r="1.5" transform="matrix(4.37114e-08 -1 -1 -4.37114e-08 246.5 9.5)" fill="#15316F" fill-opacity="0.5"/>
</svg>
