<svg width="1900" height="1099" viewBox="0 0 1900 1099" fill="none" xmlns="http://www.w3.org/2000/svg">
<circle r="1.5" transform="matrix(-1 0 0 1 19.5 324.5)" fill="#15316F" fill-opacity="0.5"/>
<circle r="1.5" transform="matrix(-1 0 0 1 19.5 307.5)" fill="#15316F" fill-opacity="0.5"/>
<circle r="1.5" transform="matrix(-1 0 0 1 2.5 307.5)" fill="#15316F" fill-opacity="0.5"/>
<circle r="1.5" transform="matrix(-1 0 0 1 207.5 494.5)" fill="#15316F" fill-opacity="0.5"/>
<circle r="1.5" transform="matrix(-1 0 0 1 258.5 494.5)" fill="#15316F" fill-opacity="0.5"/>
<circle r="1.5" transform="matrix(-1 0 0 1 190.5 494.5)" fill="#15316F" fill-opacity="0.5"/>
<circle r="1.5" transform="matrix(-1 0 0 1 241.5 494.5)" fill="#15316F" fill-opacity="0.5"/>
<circle r="1.5" transform="matrix(-1 0 0 1 173.5 494.5)" fill="#15316F" fill-opacity="0.5"/>
<circle r="1.5" transform="matrix(-1 0 0 1 224.5 494.5)" fill="#15316F" fill-opacity="0.5"/>
<circle r="1.5" transform="matrix(-1 0 0 1 207.5 213.5)" fill="#15316F" fill-opacity="0.5"/>
<circle r="1.5" transform="matrix(-1 0 0 1 258.5 213.5)" fill="#15316F" fill-opacity="0.5"/>
<circle r="1.5" transform="matrix(-1 0 0 1 190.5 213.5)" fill="#15316F" fill-opacity="0.5"/>
<circle r="1.5" transform="matrix(-1 0 0 1 241.5 213.5)" fill="#15316F" fill-opacity="0.5"/>
<circle r="1.5" transform="matrix(-1 0 0 1 173.5 213.5)" fill="#15316F" fill-opacity="0.5"/>
<circle r="1.5" transform="matrix(-1 0 0 1 224.5 213.5)" fill="#15316F" fill-opacity="0.5"/>
<circle r="1.5" transform="matrix(-1 0 0 1 105.5 290.5)" fill="#15316F" fill-opacity="0.5"/>
<circle r="1.5" transform="matrix(-1 0 0 1 156.5 290.5)" fill="#15316F" fill-opacity="0.5"/>
<circle r="1.5" transform="matrix(-1 0 0 1 88.5 290.5)" fill="#15316F" fill-opacity="0.5"/>
<circle r="1.5" transform="matrix(-1 0 0 1 2.5 154.5)" fill="#15316F" fill-opacity="0.5"/>
<circle r="1.5" transform="matrix(-1 0 0 1 139.5 290.5)" fill="#15316F" fill-opacity="0.5"/>
<circle r="1.5" transform="matrix(-1 0 0 1 122.5 290.5)" fill="#15316F" fill-opacity="0.5"/>
<circle r="1.5" transform="matrix(-1 0 0 1 173.5 145.5)" fill="#15316F" fill-opacity="0.5"/>
<circle r="1.5" transform="matrix(-1 0 0 1 224.5 145.5)" fill="#15316F" fill-opacity="0.5"/>
<circle r="1.5" transform="matrix(-1 0 0 1 156.5 145.5)" fill="#15316F" fill-opacity="0.5"/>
<circle r="1.5" transform="matrix(-1 0 0 1 207.5 145.5)" fill="#15316F" fill-opacity="0.5"/>
<circle r="1.5" transform="matrix(-1 0 0 1 139.5 145.5)" fill="#15316F" fill-opacity="0.5"/>
<circle r="1.5" transform="matrix(-1 0 0 1 157.5 35.5)" fill="#15316F" fill-opacity="0.5"/>
<circle r="1.5" transform="matrix(-1 0 0 1 190.5 145.5)" fill="#15316F" fill-opacity="0.5"/>
<circle r="1.5" transform="matrix(-1 0 0 1 18.5 604.5)" fill="#15316F" fill-opacity="0.5"/>
<circle r="1.5" transform="matrix(-1 0 0 1 1.5 604.5)" fill="#15316F" fill-opacity="0.5"/>
<circle r="1.5" transform="matrix(4.37114e-08 1 1 -4.37114e-08 71.5 154.5)" fill="#15316F" fill-opacity="0.5"/>
<circle r="1.5" transform="matrix(4.37114e-08 1 1 -4.37114e-08 71.5 103.5)" fill="#15316F" fill-opacity="0.5"/>
<circle r="1.5" transform="matrix(4.37114e-08 1 1 -4.37114e-08 71.5 171.5)" fill="#15316F" fill-opacity="0.5"/>
<circle r="1.5" transform="matrix(4.37114e-08 1 1 -4.37114e-08 71.5 120.5)" fill="#15316F" fill-opacity="0.5"/>
<circle r="1.5" transform="matrix(4.37114e-08 1 1 -4.37114e-08 71.5 188.5)" fill="#15316F" fill-opacity="0.5"/>
<circle r="1.5" transform="matrix(4.37114e-08 1 1 -4.37114e-08 71.5 137.5)" fill="#15316F" fill-opacity="0.5"/>
<circle r="1.5" transform="matrix(4.37114e-08 1 1 -4.37114e-08 71.5 460.5)" fill="#15316F" fill-opacity="0.5"/>
<circle r="1.5" transform="matrix(4.37114e-08 1 1 -4.37114e-08 71.5 409.5)" fill="#15316F" fill-opacity="0.5"/>
<circle r="1.5" transform="matrix(4.37114e-08 1 1 -4.37114e-08 71.5 477.5)" fill="#15316F" fill-opacity="0.5"/>
<circle r="1.5" transform="matrix(4.37114e-08 1 1 -4.37114e-08 71.5 426.5)" fill="#15316F" fill-opacity="0.5"/>
<circle r="1.5" transform="matrix(4.37114e-08 1 1 -4.37114e-08 71.5 494.5)" fill="#15316F" fill-opacity="0.5"/>
<circle r="1.5" transform="matrix(4.37114e-08 1 1 -4.37114e-08 71.5 443.5)" fill="#15316F" fill-opacity="0.5"/>
<circle r="1.5" transform="matrix(4.37114e-08 1 1 -4.37114e-08 71.5 256.5)" fill="#15316F" fill-opacity="0.5"/>
<circle r="1.5" transform="matrix(4.37114e-08 1 1 -4.37114e-08 71.5 205.5)" fill="#15316F" fill-opacity="0.5"/>
<circle r="1.5" transform="matrix(4.37114e-08 1 1 -4.37114e-08 71.5 273.5)" fill="#15316F" fill-opacity="0.5"/>
<circle r="1.5" transform="matrix(4.37114e-08 1 1 -4.37114e-08 71.5 222.5)" fill="#15316F" fill-opacity="0.5"/>
<circle r="1.5" transform="matrix(4.37114e-08 1 1 -4.37114e-08 71.5 290.5)" fill="#15316F" fill-opacity="0.5"/>
<circle r="1.5" transform="matrix(4.37114e-08 1 1 -4.37114e-08 71.5 239.5)" fill="#15316F" fill-opacity="0.5"/>
<circle r="1.5" transform="matrix(4.37114e-08 1 1 -4.37114e-08 71.5 358.5)" fill="#15316F" fill-opacity="0.5"/>
<circle r="1.5" transform="matrix(4.37114e-08 1 1 -4.37114e-08 71.5 307.5)" fill="#15316F" fill-opacity="0.5"/>
<circle r="1.5" transform="matrix(4.37114e-08 1 1 -4.37114e-08 71.5 375.5)" fill="#15316F" fill-opacity="0.5"/>
<circle r="1.5" transform="matrix(4.37114e-08 1 1 -4.37114e-08 71.5 324.5)" fill="#15316F" fill-opacity="0.5"/>
<circle r="1.5" transform="matrix(4.37114e-08 1 1 -4.37114e-08 71.5 392.5)" fill="#15316F" fill-opacity="0.5"/>
<circle r="1.5" transform="matrix(4.37114e-08 1 1 -4.37114e-08 71.5 341.5)" fill="#15316F" fill-opacity="0.5"/>
<circle r="1.5" transform="matrix(4.37114e-08 1 1 -4.37114e-08 18.5 570.5)" fill="#15316F" fill-opacity="0.5"/>
<circle r="1.5" transform="matrix(4.37114e-08 1 1 -4.37114e-08 18.5 519.5)" fill="#15316F" fill-opacity="0.5"/>
<circle r="1.5" transform="matrix(4.37114e-08 1 1 -4.37114e-08 18.5 587.5)" fill="#15316F" fill-opacity="0.5"/>
<circle r="1.5" transform="matrix(4.37114e-08 1 1 -4.37114e-08 18.5 536.5)" fill="#15316F" fill-opacity="0.5"/>
<circle r="1.5" transform="matrix(4.37114e-08 1 1 -4.37114e-08 18.5 553.5)" fill="#15316F" fill-opacity="0.5"/>
<circle r="1.5" transform="matrix(4.37114e-08 1 1 -4.37114e-08 71.5 52.5)" fill="#15316F" fill-opacity="0.5"/>
<circle r="1.5" transform="matrix(4.37114e-08 1 1 -4.37114e-08 71.5 1.5)" fill="#15316F" fill-opacity="0.5"/>
<circle r="1.5" transform="matrix(4.37114e-08 1 1 -4.37114e-08 71.5 69.5)" fill="#15316F" fill-opacity="0.5"/>
<circle r="1.5" transform="matrix(4.37114e-08 1 1 -4.37114e-08 71.5 18.5)" fill="#15316F" fill-opacity="0.5"/>
<circle r="1.5" transform="matrix(4.37114e-08 1 1 -4.37114e-08 71.5 86.5)" fill="#15316F" fill-opacity="0.5"/>
<circle r="1.5" transform="matrix(4.37114e-08 1 1 -4.37114e-08 71.5 35.5)" fill="#15316F" fill-opacity="0.5"/>
<circle r="1.5" transform="matrix(4.37114e-08 1 1 -4.37114e-08 156.5 162.5)" fill="#15316F" fill-opacity="0.5"/>
<circle r="1.5" transform="matrix(4.37114e-08 1 1 -4.37114e-08 157.5 103.5)" fill="#15316F" fill-opacity="0.5"/>
<circle r="1.5" transform="matrix(4.37114e-08 1 1 -4.37114e-08 156.5 179.5)" fill="#15316F" fill-opacity="0.5"/>
<circle r="1.5" transform="matrix(4.37114e-08 1 1 -4.37114e-08 157.5 120.5)" fill="#15316F" fill-opacity="0.5"/>
<circle r="1.5" transform="matrix(4.37114e-08 1 1 -4.37114e-08 156.5 196.5)" fill="#15316F" fill-opacity="0.5"/>
<circle r="1.5" transform="matrix(4.37114e-08 1 1 -4.37114e-08 156.5 213.5)" fill="#15316F" fill-opacity="0.5"/>
<circle r="1.5" transform="matrix(4.37114e-08 1 1 -4.37114e-08 156.5 460.5)" fill="#15316F" fill-opacity="0.5"/>
<circle r="1.5" transform="matrix(4.37114e-08 1 1 -4.37114e-08 156.5 409.5)" fill="#15316F" fill-opacity="0.5"/>
<circle r="1.5" transform="matrix(4.37114e-08 1 1 -4.37114e-08 156.5 477.5)" fill="#15316F" fill-opacity="0.5"/>
<circle r="1.5" transform="matrix(4.37114e-08 1 1 -4.37114e-08 156.5 426.5)" fill="#15316F" fill-opacity="0.5"/>
<circle r="1.5" transform="matrix(4.37114e-08 1 1 -4.37114e-08 156.5 443.5)" fill="#15316F" fill-opacity="0.5"/>
<circle r="1.5" transform="matrix(4.37114e-08 1 1 -4.37114e-08 156.5 494.5)" fill="#15316F" fill-opacity="0.5"/>
<circle r="1.5" transform="matrix(4.37114e-08 1 1 -4.37114e-08 157.5 52.5)" fill="#15316F" fill-opacity="0.5"/>
<circle r="1.5" transform="matrix(4.37114e-08 1 1 -4.37114e-08 157.5 1.5)" fill="#15316F" fill-opacity="0.5"/>
<circle r="1.5" transform="matrix(4.37114e-08 1 1 -4.37114e-08 157.5 69.5)" fill="#15316F" fill-opacity="0.5"/>
<circle r="1.5" transform="matrix(4.37114e-08 1 1 -4.37114e-08 157.5 18.5)" fill="#15316F" fill-opacity="0.5"/>
<circle r="1.5" transform="matrix(4.37114e-08 1 1 -4.37114e-08 157.5 86.5)" fill="#15316F" fill-opacity="0.5"/>
<circle r="1.5" transform="matrix(4.37114e-08 1 1 -4.37114e-08 156.5 358.5)" fill="#15316F" fill-opacity="0.5"/>
<circle r="1.5" transform="matrix(4.37114e-08 1 1 -4.37114e-08 156.5 341.5)" fill="#15316F" fill-opacity="0.5"/>
<circle r="1.5" transform="matrix(4.37114e-08 1 1 -4.37114e-08 156.5 307.5)" fill="#15316F" fill-opacity="0.5"/>
<circle r="1.5" transform="matrix(4.37114e-08 1 1 -4.37114e-08 156.5 375.5)" fill="#15316F" fill-opacity="0.5"/>
<circle r="1.5" transform="matrix(4.37114e-08 1 1 -4.37114e-08 156.5 324.5)" fill="#15316F" fill-opacity="0.5"/>
<circle r="1.5" transform="matrix(4.37114e-08 1 1 -4.37114e-08 156.5 392.5)" fill="#15316F" fill-opacity="0.5"/>
<circle r="1.5" transform="matrix(4.37114e-08 1 1 -4.37114e-08 19.5 273.5)" fill="#15316F" fill-opacity="0.5"/>
<circle r="1.5" transform="matrix(4.37114e-08 1 1 -4.37114e-08 19.5 222.5)" fill="#15316F" fill-opacity="0.5"/>
<circle r="1.5" transform="matrix(4.37114e-08 1 1 -4.37114e-08 19.5 290.5)" fill="#15316F" fill-opacity="0.5"/>
<circle r="1.5" transform="matrix(4.37114e-08 1 1 -4.37114e-08 19.5 239.5)" fill="#15316F" fill-opacity="0.5"/>
<circle r="1.5" transform="matrix(4.37114e-08 1 1 -4.37114e-08 19.5 256.5)" fill="#15316F" fill-opacity="0.5"/>
<circle r="1.5" transform="matrix(4.37114e-08 1 1 -4.37114e-08 19.5 171.5)" fill="#15316F" fill-opacity="0.5"/>
<circle r="1.5" transform="matrix(4.37114e-08 1 1 -4.37114e-08 19.5 120.5)" fill="#15316F" fill-opacity="0.5"/>
<circle r="1.5" transform="matrix(4.37114e-08 1 1 -4.37114e-08 19.5 188.5)" fill="#15316F" fill-opacity="0.5"/>
<circle r="1.5" transform="matrix(4.37114e-08 1 1 -4.37114e-08 19.5 137.5)" fill="#15316F" fill-opacity="0.5"/>
<circle r="1.5" transform="matrix(4.37114e-08 1 1 -4.37114e-08 19.5 205.5)" fill="#15316F" fill-opacity="0.5"/>
<circle r="1.5" transform="matrix(4.37114e-08 1 1 -4.37114e-08 19.5 154.5)" fill="#15316F" fill-opacity="0.5"/>
<circle r="1.5" transform="matrix(4.37114e-08 1 1 -4.37114e-08 19.5 69.5)" fill="#15316F" fill-opacity="0.5"/>
<circle r="1.5" transform="matrix(4.37114e-08 1 1 -4.37114e-08 19.5 18.5)" fill="#15316F" fill-opacity="0.5"/>
<circle r="1.5" transform="matrix(4.37114e-08 1 1 -4.37114e-08 19.5 1.5)" fill="#15316F" fill-opacity="0.5"/>
<circle r="1.5" transform="matrix(4.37114e-08 1 1 -4.37114e-08 19.5 86.5)" fill="#15316F" fill-opacity="0.5"/>
<circle r="1.5" transform="matrix(4.37114e-08 1 1 -4.37114e-08 19.5 35.5)" fill="#15316F" fill-opacity="0.5"/>
<circle r="1.5" transform="matrix(4.37114e-08 1 1 -4.37114e-08 19.5 103.5)" fill="#15316F" fill-opacity="0.5"/>
<circle r="1.5" transform="matrix(4.37114e-08 1 1 -4.37114e-08 19.5 52.5)" fill="#15316F" fill-opacity="0.5"/>
<circle r="1.5" transform="matrix(4.37114e-08 1 1 -4.37114e-08 18.5 468.5)" fill="#15316F" fill-opacity="0.5"/>
<circle r="1.5" transform="matrix(4.37114e-08 1 1 -4.37114e-08 18.5 417.5)" fill="#15316F" fill-opacity="0.5"/>
<circle r="1.5" transform="matrix(4.37114e-08 1 1 -4.37114e-08 18.5 485.5)" fill="#15316F" fill-opacity="0.5"/>
<circle r="1.5" transform="matrix(4.37114e-08 1 1 -4.37114e-08 18.5 434.5)" fill="#15316F" fill-opacity="0.5"/>
<circle r="1.5" transform="matrix(4.37114e-08 1 1 -4.37114e-08 18.5 502.5)" fill="#15316F" fill-opacity="0.5"/>
<circle r="1.5" transform="matrix(4.37114e-08 1 1 -4.37114e-08 18.5 451.5)" fill="#15316F" fill-opacity="0.5"/>
<circle r="1.5" transform="matrix(-1 0 0 1 2.5 120.5)" fill="#15316F" fill-opacity="0.5"/>
<circle cx="205.5" cy="944.5" r="1.5" fill="#15316F" fill-opacity="0.5"/>
<circle cx="154.5" cy="944.5" r="1.5" fill="#15316F" fill-opacity="0.5"/>
<circle cx="222.5" cy="944.5" r="1.5" fill="#15316F" fill-opacity="0.5"/>
<circle cx="171.5" cy="944.5" r="1.5" fill="#15316F" fill-opacity="0.5"/>
<circle cx="239.5" cy="944.5" r="1.5" fill="#15316F" fill-opacity="0.5"/>
<circle cx="188.5" cy="944.5" r="1.5" fill="#15316F" fill-opacity="0.5"/>
<circle cx="86.5" cy="944.5" r="1.5" fill="#15316F" fill-opacity="0.5"/>
<circle cx="35.5" cy="944.5" r="1.5" fill="#15316F" fill-opacity="0.5"/>
<circle cx="103.5" cy="944.5" r="1.5" fill="#15316F" fill-opacity="0.5"/>
<circle cx="52.5" cy="944.5" r="1.5" fill="#15316F" fill-opacity="0.5"/>
<circle cx="120.5" cy="944.5" r="1.5" fill="#15316F" fill-opacity="0.5"/>
<circle cx="69.5" cy="944.5" r="1.5" fill="#15316F" fill-opacity="0.5"/>
<circle cx="307.5" cy="944.5" r="1.5" fill="#15316F" fill-opacity="0.5"/>
<circle cx="256.5" cy="944.5" r="1.5" fill="#15316F" fill-opacity="0.5"/>
<circle cx="273.5" cy="944.5" r="1.5" fill="#15316F" fill-opacity="0.5"/>
<circle cx="290.5" cy="944.5" r="1.5" fill="#15316F" fill-opacity="0.5"/>
<circle cx="137.5" cy="944.5" r="1.5" fill="#15316F" fill-opacity="0.5"/>
<circle cx="139.5" cy="783.5" r="1.5" fill="#15316F" fill-opacity="0.5"/>
<circle cx="88.5" cy="783.5" r="1.5" fill="#15316F" fill-opacity="0.5"/>
<circle cx="156.5" cy="783.5" r="1.5" fill="#15316F" fill-opacity="0.5"/>
<circle cx="105.5" cy="783.5" r="1.5" fill="#15316F" fill-opacity="0.5"/>
<circle cx="122.5" cy="783.5" r="1.5" fill="#15316F" fill-opacity="0.5"/>
<circle cx="1.5" cy="944.5" r="1.5" fill="#15316F" fill-opacity="0.5"/>
<circle cx="18.5" cy="910.5" r="1.5" transform="rotate(90 18.5 910.5)" fill="#15316F" fill-opacity="0.5"/>
<circle cx="18.5" cy="859.5" r="1.5" transform="rotate(90 18.5 859.5)" fill="#15316F" fill-opacity="0.5"/>
<circle cx="18.5" cy="927.5" r="1.5" transform="rotate(90 18.5 927.5)" fill="#15316F" fill-opacity="0.5"/>
<circle cx="18.5" cy="876.5" r="1.5" transform="rotate(90 18.5 876.5)" fill="#15316F" fill-opacity="0.5"/>
<circle cx="18.5" cy="944.5" r="1.5" transform="rotate(90 18.5 944.5)" fill="#15316F" fill-opacity="0.5"/>
<circle cx="18.5" cy="893.5" r="1.5" transform="rotate(90 18.5 893.5)" fill="#15316F" fill-opacity="0.5"/>
<circle cx="1898.5" cy="655.5" r="1.5" fill="#15316F" fill-opacity="0.5"/>
<circle cx="1847.5" cy="655.5" r="1.5" fill="#15316F" fill-opacity="0.5"/>
<circle cx="1898.5" cy="893.5" r="1.5" fill="#15316F" fill-opacity="0.5"/>
<circle cx="1864.5" cy="655.5" r="1.5" fill="#15316F" fill-opacity="0.5"/>
<circle cx="1881.5" cy="655.5" r="1.5" fill="#15316F" fill-opacity="0.5"/>
<circle cx="18.5" cy="808.5" r="1.5" transform="rotate(90 18.5 808.5)" fill="#15316F" fill-opacity="0.5"/>
<circle cx="18.5" cy="757.5" r="1.5" transform="rotate(90 18.5 757.5)" fill="#15316F" fill-opacity="0.5"/>
<circle cx="18.5" cy="825.5" r="1.5" transform="rotate(90 18.5 825.5)" fill="#15316F" fill-opacity="0.5"/>
<circle cx="18.5" cy="774.5" r="1.5" transform="rotate(90 18.5 774.5)" fill="#15316F" fill-opacity="0.5"/>
<circle cx="18.5" cy="842.5" r="1.5" transform="rotate(90 18.5 842.5)" fill="#15316F" fill-opacity="0.5"/>
<circle cx="18.5" cy="791.5" r="1.5" transform="rotate(90 18.5 791.5)" fill="#15316F" fill-opacity="0.5"/>
<circle cx="18.5" cy="1063.5" r="1.5" transform="rotate(90 18.5 1063.5)" fill="#15316F" fill-opacity="0.5"/>
<circle cx="18.5" cy="1080.5" r="1.5" transform="rotate(90 18.5 1080.5)" fill="#15316F" fill-opacity="0.5"/>
<circle cx="18.5" cy="1097.5" r="1.5" transform="rotate(90 18.5 1097.5)" fill="#15316F" fill-opacity="0.5"/>
<circle cx="18.5" cy="706.5" r="1.5" transform="rotate(90 18.5 706.5)" fill="#15316F" fill-opacity="0.5"/>
<circle cx="18.5" cy="655.5" r="1.5" transform="rotate(90 18.5 655.5)" fill="#15316F" fill-opacity="0.5"/>
<circle cx="18.5" cy="723.5" r="1.5" transform="rotate(90 18.5 723.5)" fill="#15316F" fill-opacity="0.5"/>
<circle cx="18.5" cy="672.5" r="1.5" transform="rotate(90 18.5 672.5)" fill="#15316F" fill-opacity="0.5"/>
<circle cx="18.5" cy="740.5" r="1.5" transform="rotate(90 18.5 740.5)" fill="#15316F" fill-opacity="0.5"/>
<circle cx="18.5" cy="689.5" r="1.5" transform="rotate(90 18.5 689.5)" fill="#15316F" fill-opacity="0.5"/>
<circle cx="69.5" cy="910.5" r="1.5" transform="rotate(90 69.5 910.5)" fill="#15316F" fill-opacity="0.5"/>
<circle cx="69.5" cy="859.5" r="1.5" transform="rotate(90 69.5 859.5)" fill="#15316F" fill-opacity="0.5"/>
<circle cx="69.5" cy="927.5" r="1.5" transform="rotate(90 69.5 927.5)" fill="#15316F" fill-opacity="0.5"/>
<circle cx="69.5" cy="876.5" r="1.5" transform="rotate(90 69.5 876.5)" fill="#15316F" fill-opacity="0.5"/>
<circle cx="69.5" cy="893.5" r="1.5" transform="rotate(90 69.5 893.5)" fill="#15316F" fill-opacity="0.5"/>
<circle cx="71.5" cy="800.5" r="1.5" transform="rotate(90 71.5 800.5)" fill="#15316F" fill-opacity="0.5"/>
<circle cx="71.5" cy="749.5" r="1.5" transform="rotate(90 71.5 749.5)" fill="#15316F" fill-opacity="0.5"/>
<circle cx="71.5" cy="817.5" r="1.5" transform="rotate(90 71.5 817.5)" fill="#15316F" fill-opacity="0.5"/>
<circle cx="71.5" cy="766.5" r="1.5" transform="rotate(90 71.5 766.5)" fill="#15316F" fill-opacity="0.5"/>
<circle cx="71.5" cy="834.5" r="1.5" transform="rotate(90 71.5 834.5)" fill="#15316F" fill-opacity="0.5"/>
<circle cx="71.5" cy="783.5" r="1.5" transform="rotate(90 71.5 783.5)" fill="#15316F" fill-opacity="0.5"/>
<circle cx="18.5" cy="1012.5" r="1.5" transform="rotate(90 18.5 1012.5)" fill="#15316F" fill-opacity="0.5"/>
<circle cx="18.5" cy="961.5" r="1.5" transform="rotate(90 18.5 961.5)" fill="#15316F" fill-opacity="0.5"/>
<circle cx="18.5" cy="1029.5" r="1.5" transform="rotate(90 18.5 1029.5)" fill="#15316F" fill-opacity="0.5"/>
<circle cx="18.5" cy="978.5" r="1.5" transform="rotate(90 18.5 978.5)" fill="#15316F" fill-opacity="0.5"/>
<circle cx="18.5" cy="1046.5" r="1.5" transform="rotate(90 18.5 1046.5)" fill="#15316F" fill-opacity="0.5"/>
<circle cx="18.5" cy="995.5" r="1.5" transform="rotate(90 18.5 995.5)" fill="#15316F" fill-opacity="0.5"/>
<circle cx="1898.5" cy="842.5" r="1.5" transform="rotate(90 1898.5 842.5)" fill="#15316F" fill-opacity="0.5"/>
<circle cx="1898.5" cy="825.5" r="1.5" transform="rotate(90 1898.5 825.5)" fill="#15316F" fill-opacity="0.5"/>
<circle cx="1898.5" cy="791.5" r="1.5" transform="rotate(90 1898.5 791.5)" fill="#15316F" fill-opacity="0.5"/>
<circle cx="1898.5" cy="774.5" r="1.5" transform="rotate(90 1898.5 774.5)" fill="#15316F" fill-opacity="0.5"/>
<circle cx="1898.5" cy="859.5" r="1.5" transform="rotate(90 1898.5 859.5)" fill="#15316F" fill-opacity="0.5"/>
<circle cx="1898.5" cy="808.5" r="1.5" transform="rotate(90 1898.5 808.5)" fill="#15316F" fill-opacity="0.5"/>
<circle cx="1898.5" cy="876.5" r="1.5" transform="rotate(90 1898.5 876.5)" fill="#15316F" fill-opacity="0.5"/>
<circle cx="1898.5" cy="740.5" r="1.5" transform="rotate(90 1898.5 740.5)" fill="#15316F" fill-opacity="0.5"/>
<circle cx="1898.5" cy="689.5" r="1.5" transform="rotate(90 1898.5 689.5)" fill="#15316F" fill-opacity="0.5"/>
<circle cx="1898.5" cy="757.5" r="1.5" transform="rotate(90 1898.5 757.5)" fill="#15316F" fill-opacity="0.5"/>
<circle cx="1898.5" cy="706.5" r="1.5" transform="rotate(90 1898.5 706.5)" fill="#15316F" fill-opacity="0.5"/>
<circle cx="1898.5" cy="723.5" r="1.5" transform="rotate(90 1898.5 723.5)" fill="#15316F" fill-opacity="0.5"/>
<circle cx="224.5" cy="749.5" r="1.5" transform="rotate(-180 224.5 749.5)" fill="#15316F" fill-opacity="0.5"/>
<circle cx="275.5" cy="749.5" r="1.5" transform="rotate(-180 275.5 749.5)" fill="#15316F" fill-opacity="0.5"/>
<circle cx="207.5" cy="749.5" r="1.5" transform="rotate(-180 207.5 749.5)" fill="#15316F" fill-opacity="0.5"/>
<circle cx="258.5" cy="749.5" r="1.5" transform="rotate(-180 258.5 749.5)" fill="#15316F" fill-opacity="0.5"/>
<circle cx="190.5" cy="749.5" r="1.5" transform="rotate(-180 190.5 749.5)" fill="#15316F" fill-opacity="0.5"/>
<circle cx="241.5" cy="749.5" r="1.5" transform="rotate(-180 241.5 749.5)" fill="#15316F" fill-opacity="0.5"/>
<circle cx="71.5" cy="698.5" r="1.5" transform="rotate(90 71.5 698.5)" fill="#15316F" fill-opacity="0.5"/>
<circle cx="71.5" cy="647.5" r="1.5" transform="rotate(90 71.5 647.5)" fill="#15316F" fill-opacity="0.5"/>
<circle cx="71.5" cy="715.5" r="1.5" transform="rotate(90 71.5 715.5)" fill="#15316F" fill-opacity="0.5"/>
<circle cx="71.5" cy="664.5" r="1.5" transform="rotate(90 71.5 664.5)" fill="#15316F" fill-opacity="0.5"/>
<circle cx="71.5" cy="732.5" r="1.5" transform="rotate(90 71.5 732.5)" fill="#15316F" fill-opacity="0.5"/>
<circle cx="71.5" cy="681.5" r="1.5" transform="rotate(90 71.5 681.5)" fill="#15316F" fill-opacity="0.5"/>
<circle cx="139.5" cy="749.5" r="1.5" fill="#15316F" fill-opacity="0.5"/>
<circle cx="88.5" cy="749.5" r="1.5" fill="#15316F" fill-opacity="0.5"/>
<circle cx="156.5" cy="749.5" r="1.5" fill="#15316F" fill-opacity="0.5"/>
<circle cx="105.5" cy="749.5" r="1.5" fill="#15316F" fill-opacity="0.5"/>
<circle cx="173.5" cy="749.5" r="1.5" fill="#15316F" fill-opacity="0.5"/>
<circle cx="122.5" cy="749.5" r="1.5" fill="#15316F" fill-opacity="0.5"/>
<circle cx="1898.5" cy="638.5" r="1.5" transform="rotate(90 1898.5 638.5)" fill="#15316F" fill-opacity="0.5"/>
<circle cx="1898.5" cy="587.5" r="1.5" transform="rotate(90 1898.5 587.5)" fill="#15316F" fill-opacity="0.5"/>
<circle cx="1898.5" cy="604.5" r="1.5" transform="rotate(90 1898.5 604.5)" fill="#15316F" fill-opacity="0.5"/>
<circle cx="1898.5" cy="672.5" r="1.5" transform="rotate(90 1898.5 672.5)" fill="#15316F" fill-opacity="0.5"/>
<circle cx="1898.5" cy="621.5" r="1.5" transform="rotate(90 1898.5 621.5)" fill="#15316F" fill-opacity="0.5"/>
<circle r="1.5" transform="matrix(-1 0 0 1 241.5 630.5)" fill="#15316F" fill-opacity="0.5"/>
<circle r="1.5" transform="matrix(-1 0 0 1 292.5 630.5)" fill="#15316F" fill-opacity="0.5"/>
<circle r="1.5" transform="matrix(-1 0 0 1 224.5 630.5)" fill="#15316F" fill-opacity="0.5"/>
<circle r="1.5" transform="matrix(-1 0 0 1 275.5 630.5)" fill="#15316F" fill-opacity="0.5"/>
<circle r="1.5" transform="matrix(-1 0 0 1 207.5 630.5)" fill="#15316F" fill-opacity="0.5"/>
<circle r="1.5" transform="matrix(-1 0 0 1 190.5 630.5)" fill="#15316F" fill-opacity="0.5"/>
<circle r="1.5" transform="matrix(-1 0 0 1 258.5 630.5)" fill="#15316F" fill-opacity="0.5"/>
<circle r="1.5" transform="matrix(-1 0 0 1 122.5 630.5)" fill="#15316F" fill-opacity="0.5"/>
<circle r="1.5" transform="matrix(-1 0 0 1 173.5 630.5)" fill="#15316F" fill-opacity="0.5"/>
<circle r="1.5" transform="matrix(-1 0 0 1 105.5 630.5)" fill="#15316F" fill-opacity="0.5"/>
<circle r="1.5" transform="matrix(-1 0 0 1 156.5 630.5)" fill="#15316F" fill-opacity="0.5"/>
<circle r="1.5" transform="matrix(-1 0 0 1 88.5 630.5)" fill="#15316F" fill-opacity="0.5"/>
<circle r="1.5" transform="matrix(-1 0 0 1 71.5 630.5)" fill="#15316F" fill-opacity="0.5"/>
<circle r="1.5" transform="matrix(-1 0 0 1 139.5 630.5)" fill="#15316F" fill-opacity="0.5"/>
<circle r="1.5" transform="matrix(4.37114e-08 1 1 -4.37114e-08 1898.5 553.5)" fill="#15316F" fill-opacity="0.5"/>
<circle r="1.5" transform="matrix(4.37114e-08 1 1 -4.37114e-08 1898.5 502.5)" fill="#15316F" fill-opacity="0.5"/>
<circle r="1.5" transform="matrix(4.37114e-08 1 1 -4.37114e-08 1898.5 570.5)" fill="#15316F" fill-opacity="0.5"/>
<circle r="1.5" transform="matrix(4.37114e-08 1 1 -4.37114e-08 1898.5 519.5)" fill="#15316F" fill-opacity="0.5"/>
<circle r="1.5" transform="matrix(4.37114e-08 1 1 -4.37114e-08 1898.5 536.5)" fill="#15316F" fill-opacity="0.5"/>
<circle r="1.5" transform="matrix(4.37114e-08 1 1 -4.37114e-08 71.5 579.5)" fill="#15316F" fill-opacity="0.5"/>
<circle r="1.5" transform="matrix(4.37114e-08 1 1 -4.37114e-08 71.5 562.5)" fill="#15316F" fill-opacity="0.5"/>
<circle r="1.5" transform="matrix(4.37114e-08 1 1 -4.37114e-08 71.5 528.5)" fill="#15316F" fill-opacity="0.5"/>
<circle r="1.5" transform="matrix(4.37114e-08 1 1 -4.37114e-08 71.5 511.5)" fill="#15316F" fill-opacity="0.5"/>
<circle r="1.5" transform="matrix(4.37114e-08 1 1 -4.37114e-08 71.5 596.5)" fill="#15316F" fill-opacity="0.5"/>
<circle r="1.5" transform="matrix(4.37114e-08 1 1 -4.37114e-08 71.5 545.5)" fill="#15316F" fill-opacity="0.5"/>
<circle r="1.5" transform="matrix(4.37114e-08 1 1 -4.37114e-08 71.5 613.5)" fill="#15316F" fill-opacity="0.5"/>
<circle r="1.5" transform="matrix(4.37114e-08 1 1 -4.37114e-08 1898.5 128.5)" fill="#15316F" fill-opacity="0.5"/>
<circle r="1.5" transform="matrix(4.37114e-08 1 1 -4.37114e-08 1898.5 77.5)" fill="#15316F" fill-opacity="0.5"/>
<circle r="1.5" transform="matrix(4.37114e-08 1 1 -4.37114e-08 1898.5 145.5)" fill="#15316F" fill-opacity="0.5"/>
<circle r="1.5" transform="matrix(4.37114e-08 1 1 -4.37114e-08 1898.5 94.5)" fill="#15316F" fill-opacity="0.5"/>
<circle r="1.5" transform="matrix(4.37114e-08 1 1 -4.37114e-08 1898.5 162.5)" fill="#15316F" fill-opacity="0.5"/>
<circle r="1.5" transform="matrix(4.37114e-08 1 1 -4.37114e-08 1898.5 111.5)" fill="#15316F" fill-opacity="0.5"/>
<circle r="1.5" transform="matrix(4.37114e-08 1 1 -4.37114e-08 1898.5 26.5)" fill="#15316F" fill-opacity="0.5"/>
<circle r="1.5" transform="matrix(4.37114e-08 1 1 -4.37114e-08 1898.5 43.5)" fill="#15316F" fill-opacity="0.5"/>
<circle r="1.5" transform="matrix(4.37114e-08 1 1 -4.37114e-08 1898.5 60.5)" fill="#15316F" fill-opacity="0.5"/>
<circle r="1.5" transform="matrix(4.37114e-08 1 1 -4.37114e-08 1898.5 9.5)" fill="#15316F" fill-opacity="0.5"/>
<circle r="1.5" transform="matrix(1 -8.74228e-08 -8.74228e-08 -1 1745.5 77.5)" fill="#15316F" fill-opacity="0.5"/>
<circle r="1.5" transform="matrix(-1.31134e-07 -1 -1 1.31134e-07 1728.5 77.5)" fill="#15316F" fill-opacity="0.5"/>
<circle r="1.5" transform="matrix(1 -8.74228e-08 -8.74228e-08 -1 1762.5 77.5)" fill="#15316F" fill-opacity="0.5"/>
<circle r="1.5" transform="matrix(-1.31134e-07 -1 -1 1.31134e-07 1728.5 60.5)" fill="#15316F" fill-opacity="0.5"/>
<circle r="1.5" transform="matrix(1 -8.74228e-08 -8.74228e-08 -1 1779.5 77.5)" fill="#15316F" fill-opacity="0.5"/>
<circle r="1.5" transform="matrix(4.37114e-08 1 1 -4.37114e-08 1898.5 434.5)" fill="#15316F" fill-opacity="0.5"/>
<circle r="1.5" transform="matrix(4.37114e-08 1 1 -4.37114e-08 1898.5 383.5)" fill="#15316F" fill-opacity="0.5"/>
<circle r="1.5" transform="matrix(4.37114e-08 1 1 -4.37114e-08 1898.5 451.5)" fill="#15316F" fill-opacity="0.5"/>
<circle r="1.5" transform="matrix(4.37114e-08 1 1 -4.37114e-08 1898.5 400.5)" fill="#15316F" fill-opacity="0.5"/>
<circle r="1.5" transform="matrix(4.37114e-08 1 1 -4.37114e-08 1898.5 468.5)" fill="#15316F" fill-opacity="0.5"/>
<circle r="1.5" transform="matrix(4.37114e-08 1 1 -4.37114e-08 1898.5 417.5)" fill="#15316F" fill-opacity="0.5"/>
<circle r="1.5" transform="matrix(-1 0 0 1 1830.5 77.5)" fill="#15316F" fill-opacity="0.5"/>
<circle r="1.5" transform="matrix(-1 0 0 1 1881.5 77.5)" fill="#15316F" fill-opacity="0.5"/>
<circle r="1.5" transform="matrix(-1 0 0 1 1813.5 77.5)" fill="#15316F" fill-opacity="0.5"/>
<circle r="1.5" transform="matrix(-1 0 0 1 1864.5 77.5)" fill="#15316F" fill-opacity="0.5"/>
<circle r="1.5" transform="matrix(-1 0 0 1 1796.5 77.5)" fill="#15316F" fill-opacity="0.5"/>
<circle r="1.5" transform="matrix(-1 0 0 1 1847.5 77.5)" fill="#15316F" fill-opacity="0.5"/>
<circle cx="1898.5" cy="944.5" r="1.5" transform="rotate(-90 1898.5 944.5)" fill="#15316F" fill-opacity="0.5"/>
<circle cx="1728.5" cy="43.5" r="1.5" transform="rotate(-90 1728.5 43.5)" fill="#15316F" fill-opacity="0.5"/>
<circle cx="1898.5" cy="927.5" r="1.5" transform="rotate(-90 1898.5 927.5)" fill="#15316F" fill-opacity="0.5"/>
<circle cx="1728.5" cy="26.5" r="1.5" transform="rotate(-90 1728.5 26.5)" fill="#15316F" fill-opacity="0.5"/>
<circle cx="1898.5" cy="910.5" r="1.5" transform="rotate(-90 1898.5 910.5)" fill="#15316F" fill-opacity="0.5"/>
<circle cx="1728.5" cy="9.5" r="1.5" transform="rotate(-90 1728.5 9.5)" fill="#15316F" fill-opacity="0.5"/>
<circle r="1.5" transform="matrix(-1 0 0 1 1881.5 910.5)" fill="#15316F" fill-opacity="0.5"/>
<circle r="1.5" transform="matrix(-1 0 0 1 1864.5 910.5)" fill="#15316F" fill-opacity="0.5"/>
<circle r="1.5" transform="matrix(-1 0 0 1 1847.5 910.5)" fill="#15316F" fill-opacity="0.5"/>
<circle r="1.5" transform="matrix(-1 0 0 1 1762.5 910.5)" fill="#15316F" fill-opacity="0.5"/>
<circle r="1.5" transform="matrix(-1 0 0 1 1813.5 910.5)" fill="#15316F" fill-opacity="0.5"/>
<circle r="1.5" transform="matrix(-1 0 0 1 1745.5 910.5)" fill="#15316F" fill-opacity="0.5"/>
<circle r="1.5" transform="matrix(-1 0 0 1 1796.5 910.5)" fill="#15316F" fill-opacity="0.5"/>
<circle r="1.5" transform="matrix(-1 0 0 1 1728.5 910.5)" fill="#15316F" fill-opacity="0.5"/>
<circle r="1.5" transform="matrix(-1 0 0 1 1779.5 910.5)" fill="#15316F" fill-opacity="0.5"/>
<circle r="1.5" transform="matrix(-1 0 0 1 1660.5 910.5)" fill="#15316F" fill-opacity="0.5"/>
<circle r="1.5" transform="matrix(-1 0 0 1 1711.5 910.5)" fill="#15316F" fill-opacity="0.5"/>
<circle r="1.5" transform="matrix(-1 0 0 1 1694.5 910.5)" fill="#15316F" fill-opacity="0.5"/>
<circle r="1.5" transform="matrix(-1 0 0 1 1677.5 910.5)" fill="#15316F" fill-opacity="0.5"/>
<circle r="1.5" transform="matrix(-1 0 0 1 1830.5 910.5)" fill="#15316F" fill-opacity="0.5"/>
<circle r="1.5" transform="matrix(1 -8.74228e-08 -8.74228e-08 -1 1745.5 723.5)" fill="#15316F" fill-opacity="0.5"/>
<circle r="1.5" transform="matrix(1 -8.74228e-08 -8.74228e-08 -1 1694.5 723.5)" fill="#15316F" fill-opacity="0.5"/>
<circle r="1.5" transform="matrix(1 -8.74228e-08 -8.74228e-08 -1 1762.5 723.5)" fill="#15316F" fill-opacity="0.5"/>
<circle r="1.5" transform="matrix(1 -8.74228e-08 -8.74228e-08 -1 1711.5 723.5)" fill="#15316F" fill-opacity="0.5"/>
<circle r="1.5" transform="matrix(1 -8.74228e-08 -8.74228e-08 -1 1779.5 723.5)" fill="#15316F" fill-opacity="0.5"/>
<circle r="1.5" transform="matrix(1 -8.74228e-08 -8.74228e-08 -1 1728.5 723.5)" fill="#15316F" fill-opacity="0.5"/>
<circle r="1.5" transform="matrix(-1 0 0 1 1830.5 723.5)" fill="#15316F" fill-opacity="0.5"/>
<circle r="1.5" transform="matrix(-1 0 0 1 1881.5 723.5)" fill="#15316F" fill-opacity="0.5"/>
<circle r="1.5" transform="matrix(-1 0 0 1 1813.5 723.5)" fill="#15316F" fill-opacity="0.5"/>
<circle r="1.5" transform="matrix(-1 0 0 1 1864.5 723.5)" fill="#15316F" fill-opacity="0.5"/>
<circle r="1.5" transform="matrix(-1 0 0 1 1796.5 723.5)" fill="#15316F" fill-opacity="0.5"/>
<circle r="1.5" transform="matrix(-1 0 0 1 1847.5 723.5)" fill="#15316F" fill-opacity="0.5"/>
<circle r="1.5" transform="matrix(1.19249e-08 -1 -1 -1.19249e-08 1830.5 519.5)" fill="#15316F" fill-opacity="0.5"/>
<circle r="1.5" transform="matrix(1.19249e-08 -1 -1 -1.19249e-08 1830.5 570.5)" fill="#15316F" fill-opacity="0.5"/>
<circle r="1.5" transform="matrix(1.19249e-08 -1 -1 -1.19249e-08 1830.5 502.5)" fill="#15316F" fill-opacity="0.5"/>
<circle r="1.5" transform="matrix(1.19249e-08 -1 -1 -1.19249e-08 1830.5 553.5)" fill="#15316F" fill-opacity="0.5"/>
<circle r="1.5" transform="matrix(1.19249e-08 -1 -1 -1.19249e-08 1830.5 485.5)" fill="#15316F" fill-opacity="0.5"/>
<circle r="1.5" transform="matrix(1.19249e-08 -1 -1 -1.19249e-08 1830.5 536.5)" fill="#15316F" fill-opacity="0.5"/>
<circle r="1.5" transform="matrix(1.19249e-08 -1 -1 -1.19249e-08 1830.5 400.5)" fill="#15316F" fill-opacity="0.5"/>
<circle r="1.5" transform="matrix(1.19249e-08 -1 -1 -1.19249e-08 1830.5 451.5)" fill="#15316F" fill-opacity="0.5"/>
<circle r="1.5" transform="matrix(1.19249e-08 -1 -1 -1.19249e-08 1830.5 383.5)" fill="#15316F" fill-opacity="0.5"/>
<circle r="1.5" transform="matrix(1.19249e-08 -1 -1 -1.19249e-08 1830.5 434.5)" fill="#15316F" fill-opacity="0.5"/>
<circle r="1.5" transform="matrix(1.19249e-08 -1 -1 -1.19249e-08 1830.5 366.5)" fill="#15316F" fill-opacity="0.5"/>
<circle r="1.5" transform="matrix(1.19249e-08 -1 -1 -1.19249e-08 1830.5 417.5)" fill="#15316F" fill-opacity="0.5"/>
<circle r="1.5" transform="matrix(1.19249e-08 -1 -1 -1.19249e-08 1830.5 298.5)" fill="#15316F" fill-opacity="0.5"/>
<circle r="1.5" transform="matrix(1.19249e-08 -1 -1 -1.19249e-08 1830.5 349.5)" fill="#15316F" fill-opacity="0.5"/>
<circle r="1.5" transform="matrix(1.19249e-08 -1 -1 -1.19249e-08 1830.5 332.5)" fill="#15316F" fill-opacity="0.5"/>
<circle r="1.5" transform="matrix(1.19249e-08 -1 -1 -1.19249e-08 1830.5 315.5)" fill="#15316F" fill-opacity="0.5"/>
<circle r="1.5" transform="matrix(1.19249e-08 -1 -1 -1.19249e-08 1830.5 468.5)" fill="#15316F" fill-opacity="0.5"/>
<circle r="1.5" transform="matrix(-1 0 0 1 1864.5 196.5)" fill="#15316F" fill-opacity="0.5"/>
<circle r="1.5" transform="matrix(-1 0 0 1 1847.5 196.5)" fill="#15316F" fill-opacity="0.5"/>
<circle r="1.5" transform="matrix(-1 0 0 1 1898.5 196.5)" fill="#15316F" fill-opacity="0.5"/>
<circle r="1.5" transform="matrix(-1 0 0 1 1898.5 179.5)" fill="#15316F" fill-opacity="0.5"/>
<circle r="1.5" transform="matrix(-1 0 0 1 1830.5 196.5)" fill="#15316F" fill-opacity="0.5"/>
<circle r="1.5" transform="matrix(-1 0 0 1 1881.5 196.5)" fill="#15316F" fill-opacity="0.5"/>
<circle r="1.5" transform="matrix(-1 0 0 1 1864.5 485.5)" fill="#15316F" fill-opacity="0.5"/>
<circle r="1.5" transform="matrix(-1 0 0 1 1847.5 485.5)" fill="#15316F" fill-opacity="0.5"/>
<circle r="1.5" transform="matrix(-1 0 0 1 1898.5 485.5)" fill="#15316F" fill-opacity="0.5"/>
<circle r="1.5" transform="matrix(-1 0 0 1 1881.5 485.5)" fill="#15316F" fill-opacity="0.5"/>
<circle r="1.5" transform="matrix(-1 0 0 1 1762.5 196.5)" fill="#15316F" fill-opacity="0.5"/>
<circle r="1.5" transform="matrix(-1 0 0 1 1813.5 196.5)" fill="#15316F" fill-opacity="0.5"/>
<circle r="1.5" transform="matrix(-1 0 0 1 1745.5 196.5)" fill="#15316F" fill-opacity="0.5"/>
<circle r="1.5" transform="matrix(-1 0 0 1 1796.5 196.5)" fill="#15316F" fill-opacity="0.5"/>
<circle r="1.5" transform="matrix(-1 0 0 1 1779.5 196.5)" fill="#15316F" fill-opacity="0.5"/>
<circle r="1.5" transform="matrix(-4.37114e-08 1 1 4.37114e-08 1830.5 264.5)" fill="#15316F" fill-opacity="0.5"/>
<circle r="1.5" transform="matrix(-4.37114e-08 1 1 4.37114e-08 1830.5 213.5)" fill="#15316F" fill-opacity="0.5"/>
<circle r="1.5" transform="matrix(-4.37114e-08 1 1 4.37114e-08 1830.5 281.5)" fill="#15316F" fill-opacity="0.5"/>
<circle r="1.5" transform="matrix(-4.37114e-08 1 1 4.37114e-08 1830.5 230.5)" fill="#15316F" fill-opacity="0.5"/>
<circle r="1.5" transform="matrix(-4.37114e-08 1 1 4.37114e-08 1830.5 247.5)" fill="#15316F" fill-opacity="0.5"/>
<circle r="1.5" transform="matrix(-1 0 0 1 1830.5 128.5)" fill="#15316F" fill-opacity="0.5"/>
<circle r="1.5" transform="matrix(-1 0 0 1 1881.5 128.5)" fill="#15316F" fill-opacity="0.5"/>
<circle r="1.5" transform="matrix(-1 0 0 1 1813.5 128.5)" fill="#15316F" fill-opacity="0.5"/>
<circle r="1.5" transform="matrix(-1 0 0 1 1864.5 128.5)" fill="#15316F" fill-opacity="0.5"/>
<circle r="1.5" transform="matrix(-1 0 0 1 1796.5 128.5)" fill="#15316F" fill-opacity="0.5"/>
<circle r="1.5" transform="matrix(-1 0 0 1 1847.5 128.5)" fill="#15316F" fill-opacity="0.5"/>
</svg>
