<svg width="643" height="454" viewBox="0 0 643 454" fill="none" xmlns="http://www.w3.org/2000/svg">
<path d="M168 220.5C134.667 253.833 88.5 291 24.5 248C17.0553 242.998 8.65587 238.991 0.5 236.5V454H643V160.5C630.2 178.9 613 184.167 606 184.5C562.5 184.5 555 150 498 150C440.5 155.499 426.437 198.157 399 220.5C364 249 301.333 253.833 268 220.5C234.667 187.166 201.333 187.166 168 220.5Z" fill="url(#paint0_linear)"/>
<path d="M1 170H643M643 241.119H1M1 308.495H643M643 374H1" stroke="#F1F5FF" stroke-opacity="0.2" stroke-width="2" stroke-dasharray="10 10"/>
<path d="M317 241V450" stroke="#F1F5FF" stroke-opacity="0.2" stroke-width="2" stroke-dasharray="10 10"/>
<path fill-rule="evenodd" clip-rule="evenodd" d="M497.942 148H498.014C526.897 148 543.295 156.742 557.84 165.403C558.807 165.979 559.764 166.554 560.716 167.124C574.011 175.101 586.135 182.375 605.967 182.384C612.536 182.055 630.494 175.386 643 157.468V159.115V162.685C630.106 179.55 613.207 185.033 606.075 185.372L606.039 185.373H606.004C585.296 185.373 572.517 177.701 559.228 169.722C558.256 169.139 557.282 168.554 556.302 167.97C541.987 159.447 526.153 151.004 498.086 150.99C469.806 153.703 452.243 165.486 438.307 179.388C432.409 185.272 427.174 191.52 422.026 197.665C421.058 198.82 420.093 199.972 419.128 201.117C413.051 208.322 406.949 215.252 399.971 220.916C382.184 235.352 357.439 243.751 332.942 244.361C308.444 244.97 284.006 237.788 266.976 220.814C250.474 204.366 234.168 196.336 218.041 196.336C201.914 196.336 185.608 204.366 169.106 220.814C152.426 237.439 132.344 255.228 108.286 263.404C84.1053 271.621 56.0808 270.074 23.7231 248.405C16.3978 243.499 9.00911 239.636 0.999983 237.198L1 234.273C9.30105 236.8 17.8334 240.859 25.396 245.923C57.0321 267.109 84.0857 268.469 107.318 260.574C130.671 252.638 150.335 235.295 166.985 218.7C183.814 201.926 200.838 193.346 218.041 193.346C235.244 193.346 252.268 201.926 269.097 218.7C285.397 234.946 308.953 241.966 332.867 241.372C356.783 240.777 380.866 232.566 398.076 218.597C404.815 213.128 410.759 206.393 416.832 199.193C417.785 198.063 418.741 196.922 419.704 195.772C424.851 189.628 430.184 183.261 436.185 177.274C450.5 162.994 468.698 150.788 497.871 148.007L497.942 148Z" fill="#6B7FD7"/>
<g filter="url(#filter0_d)">
<circle cx="316" cy="240" r="15" fill="white"/>
</g>
<path d="M26.996 81V80.256L29.984 76.944C30.384 76.496 30.676 76.092 30.86 75.732C31.044 75.372 31.136 75.012 31.136 74.652C31.136 74.18 31 73.82 30.728 73.572C30.456 73.316 30.068 73.188 29.564 73.188C29.148 73.188 28.74 73.272 28.34 73.44C27.94 73.6 27.54 73.844 27.14 74.172L26.768 73.416C27.104 73.096 27.528 72.84 28.04 72.648C28.552 72.456 29.068 72.36 29.588 72.36C30.108 72.36 30.556 72.452 30.932 72.636C31.316 72.812 31.612 73.068 31.82 73.404C32.028 73.74 32.132 74.14 32.132 74.604C32.132 75.092 32.02 75.564 31.796 76.02C31.58 76.468 31.216 76.972 30.704 77.532L27.824 80.652L27.752 80.172H32.492V81H26.996ZM36.7953 81.096C35.8193 81.096 35.0753 80.728 34.5633 79.992C34.0593 79.248 33.8073 78.16 33.8073 76.728C33.8073 75.296 34.0593 74.212 34.5633 73.476C35.0673 72.732 35.8113 72.36 36.7953 72.36C37.7793 72.36 38.5233 72.732 39.0273 73.476C39.5313 74.212 39.7833 75.292 39.7833 76.716C39.7833 78.148 39.5273 79.236 39.0153 79.98C38.5113 80.724 37.7713 81.096 36.7953 81.096ZM36.7953 80.268C37.4753 80.268 37.9753 79.98 38.2953 79.404C38.6233 78.828 38.7873 77.932 38.7873 76.716C38.7873 75.5 38.6233 74.612 38.2953 74.052C37.9753 73.484 37.4753 73.2 36.7953 73.2C36.1153 73.2 35.6113 73.484 35.2833 74.052C34.9633 74.62 34.8033 75.508 34.8033 76.716C34.8033 77.932 34.9633 78.828 35.2833 79.404C35.6113 79.98 36.1153 80.268 36.7953 80.268ZM41.3866 81V80.256L44.3746 76.944C44.7746 76.496 45.0666 76.092 45.2506 75.732C45.4346 75.372 45.5266 75.012 45.5266 74.652C45.5266 74.18 45.3906 73.82 45.1186 73.572C44.8466 73.316 44.4586 73.188 43.9546 73.188C43.5386 73.188 43.1306 73.272 42.7306 73.44C42.3306 73.6 41.9306 73.844 41.5306 74.172L41.1586 73.416C41.4946 73.096 41.9186 72.84 42.4306 72.648C42.9426 72.456 43.4586 72.36 43.9786 72.36C44.4986 72.36 44.9466 72.452 45.3226 72.636C45.7066 72.812 46.0026 73.068 46.2106 73.404C46.4186 73.74 46.5226 74.14 46.5226 74.604C46.5226 75.092 46.4106 75.564 46.1866 76.02C45.9706 76.468 45.6066 76.972 45.0946 77.532L42.2146 80.652L42.1426 80.172H46.8826V81H41.3866ZM51.1859 81.096C50.2099 81.096 49.4659 80.728 48.9539 79.992C48.4499 79.248 48.1979 78.16 48.1979 76.728C48.1979 75.296 48.4499 74.212 48.9539 73.476C49.4579 72.732 50.2019 72.36 51.1859 72.36C52.1699 72.36 52.9139 72.732 53.4179 73.476C53.9219 74.212 54.1739 75.292 54.1739 76.716C54.1739 78.148 53.9179 79.236 53.4059 79.98C52.9019 80.724 52.1619 81.096 51.1859 81.096ZM51.1859 80.268C51.8659 80.268 52.3659 79.98 52.6859 79.404C53.0139 78.828 53.1779 77.932 53.1779 76.716C53.1779 75.5 53.0139 74.612 52.6859 74.052C52.3659 73.484 51.8659 73.2 51.1859 73.2C50.5059 73.2 50.0019 73.484 49.6739 74.052C49.3539 74.62 49.1939 75.508 49.1939 76.716C49.1939 77.932 49.3539 78.828 49.6739 79.404C50.0019 79.98 50.5059 80.268 51.1859 80.268Z" fill="#888B8E"/>
<path d="M39.26 60H36.54L34.72 55.26C34.56 54.82 34.3133 54.5133 33.98 54.34C33.6467 54.1667 33.2133 54.08 32.68 54.08H30.1V60H27.54V45.76H33.64C35.2533 45.76 36.48 46.1133 37.32 46.82C38.16 47.5267 38.58 48.54 38.58 49.86C38.58 50.8067 38.3267 51.6133 37.82 52.28C37.3267 52.9333 36.62 53.4 35.7 53.68C36.54 53.8533 37.1467 54.44 37.52 55.44L39.26 60ZM33.28 52.08C34.2533 52.08 34.9733 51.9 35.44 51.54C35.9067 51.18 36.14 50.6333 36.14 49.9C36.14 49.18 35.9067 48.6467 35.44 48.3C34.9867 47.94 34.2667 47.76 33.28 47.76H30.06V52.08H33.28ZM41.403 49.9H43.883V60H41.403V49.9ZM44.023 45.32V47.78H41.243V45.32H44.023ZM49.7978 51.78V56.3C49.7978 57.4867 50.3511 58.08 51.4578 58.08C51.7645 58.08 52.0978 58.0267 52.4578 57.92V59.9C52.0178 60.06 51.4845 60.14 50.8578 60.14C49.7111 60.14 48.8311 59.82 48.2178 59.18C47.6045 58.54 47.2978 57.62 47.2978 56.42V51.78H45.3578V49.9H47.2978V47.44L49.7978 46.6V49.9H52.4778V51.78H49.7978ZM58.7759 60.16C57.7493 60.16 56.8426 59.9467 56.0559 59.52C55.2826 59.0933 54.6826 58.4867 54.2559 57.7C53.8426 56.9 53.6359 55.9667 53.6359 54.9C53.6359 53.8333 53.8426 52.9067 54.2559 52.12C54.6826 51.32 55.2826 50.7067 56.0559 50.28C56.8426 49.8533 57.7493 49.64 58.7759 49.64C59.7893 49.64 60.6826 49.8533 61.4559 50.28C62.2293 50.7067 62.8226 51.32 63.2359 52.12C63.6626 52.9067 63.8759 53.8333 63.8759 54.9C63.8759 55.9667 63.6626 56.9 63.2359 57.7C62.8226 58.4867 62.2293 59.0933 61.4559 59.52C60.6826 59.9467 59.7893 60.16 58.7759 60.16ZM58.7559 58.2C59.6093 58.2 60.2559 57.9267 60.6959 57.38C61.1493 56.82 61.3759 55.9933 61.3759 54.9C61.3759 53.82 61.1493 53 60.6959 52.44C60.2426 51.8667 59.6026 51.58 58.7759 51.58C57.9359 51.58 57.2893 51.8667 56.8359 52.44C56.3826 53 56.1559 53.82 56.1559 54.9C56.1559 55.9933 56.3759 56.82 56.8159 57.38C57.2693 57.9267 57.9159 58.2 58.7559 58.2ZM70.7533 47.26C69.6733 47.26 69.1333 47.8533 69.1333 49.04V49.9H71.3933V51.78H69.1333V60H66.6333V51.78H64.7133V49.9H66.6333V48.92C66.6333 47.72 66.9333 46.8 67.5333 46.16C68.1466 45.5067 69.0199 45.18 70.1533 45.18C70.7799 45.18 71.3066 45.26 71.7333 45.42V47.4C71.3599 47.3067 71.0333 47.26 70.7533 47.26ZM77.7994 60.16C76.7727 60.16 75.866 59.9467 75.0794 59.52C74.306 59.0933 73.706 58.4867 73.2794 57.7C72.866 56.9 72.6594 55.9667 72.6594 54.9C72.6594 53.8333 72.866 52.9067 73.2794 52.12C73.706 51.32 74.306 50.7067 75.0794 50.28C75.866 49.8533 76.7727 49.64 77.7994 49.64C78.8127 49.64 79.706 49.8533 80.4794 50.28C81.2527 50.7067 81.846 51.32 82.2594 52.12C82.686 52.9067 82.8994 53.8333 82.8994 54.9C82.8994 55.9667 82.686 56.9 82.2594 57.7C81.846 58.4867 81.2527 59.0933 80.4794 59.52C79.706 59.9467 78.8127 60.16 77.7994 60.16ZM77.7794 58.2C78.6327 58.2 79.2794 57.9267 79.7194 57.38C80.1727 56.82 80.3994 55.9933 80.3994 54.9C80.3994 53.82 80.1727 53 79.7194 52.44C79.266 51.8667 78.626 51.58 77.7994 51.58C76.9594 51.58 76.3127 51.8667 75.8594 52.44C75.406 53 75.1794 53.82 75.1794 54.9C75.1794 55.9933 75.3994 56.82 75.8394 57.38C76.2927 57.9267 76.9394 58.2 77.7794 58.2ZM88.7553 60.16C86.9286 60.16 85.4753 59.7333 84.3953 58.88L85.0953 57.12C86.1753 57.92 87.4086 58.32 88.7953 58.32C89.3953 58.32 89.8553 58.22 90.1753 58.02C90.5086 57.82 90.6753 57.54 90.6753 57.18C90.6753 56.8733 90.562 56.6333 90.3353 56.46C90.1086 56.2733 89.722 56.1133 89.1753 55.98L87.4953 55.6C85.6553 55.2 84.7353 54.26 84.7353 52.78C84.7353 52.1667 84.9086 51.6267 85.2553 51.16C85.602 50.68 86.0886 50.3067 86.7153 50.04C87.342 49.7733 88.0686 49.64 88.8953 49.64C89.6153 49.64 90.3086 49.7533 90.9753 49.98C91.642 50.1933 92.2286 50.5067 92.7353 50.92L91.9953 52.62C90.982 51.8733 89.942 51.5 88.8753 51.5C88.302 51.5 87.8553 51.6067 87.5353 51.82C87.2153 52.0333 87.0553 52.3267 87.0553 52.7C87.0553 52.9933 87.1486 53.2267 87.3353 53.4C87.5353 53.5733 87.8686 53.72 88.3353 53.84L90.0553 54.22C91.0553 54.4467 91.782 54.8 92.2353 55.28C92.702 55.7467 92.9353 56.36 92.9353 57.12C92.9353 58.0533 92.562 58.7933 91.8153 59.34C91.0686 59.8867 90.0486 60.16 88.7553 60.16Z" fill="#15234F"/>
<path d="M29.3682 121.857L26.7773 126H25.3076L28.1104 121.632C27.404 121.404 26.8844 121.055 26.5518 120.586C26.2191 120.117 26.0527 119.522 26.0527 118.802C26.0527 117.899 26.3626 117.209 26.9824 116.73C27.6068 116.247 28.541 116.006 29.7852 116.006H32.5879V126H31.3301V121.857H29.3682ZM31.3301 117.079H29.8193C28.9854 117.079 28.3656 117.225 27.96 117.517C27.5544 117.808 27.3516 118.257 27.3516 118.863C27.3516 120.148 28.1924 120.791 29.874 120.791H31.3301V117.079ZM36.375 118.494V121.618H40.4492V118.494H41.6797V126H40.4492V122.657H36.375V126H35.1445V118.494H36.375ZM50.2451 120.388C50.2451 120.871 50.1084 121.24 49.835 121.495C49.5615 121.746 49.1719 121.917 48.666 122.008V122.069C49.2995 122.156 49.7598 122.345 50.0469 122.637C50.3385 122.924 50.4844 123.311 50.4844 123.799C50.4844 124.51 50.2223 125.054 49.6982 125.433C49.1787 125.811 48.429 126 47.4492 126H44.0723V118.494H47.4355C49.3086 118.494 50.2451 119.125 50.2451 120.388ZM49.2539 123.73C49.2539 123.311 49.0898 123.017 48.7617 122.849C48.4336 122.68 47.9528 122.596 47.3193 122.596H45.3027V125.009H47.3467C48.6182 125.009 49.2539 124.583 49.2539 123.73ZM49.042 120.497C49.042 120.146 48.9053 119.896 48.6318 119.745C48.363 119.595 47.9551 119.52 47.4082 119.52H45.3027V121.577H47.1826C47.8525 121.577 48.3288 121.495 48.6113 121.331C48.8984 121.162 49.042 120.884 49.042 120.497ZM56.7734 126L56.5342 124.934H56.4795C56.1058 125.403 55.7321 125.722 55.3584 125.891C54.9893 126.055 54.5221 126.137 53.957 126.137C53.2188 126.137 52.64 125.943 52.2207 125.556C51.8014 125.168 51.5918 124.621 51.5918 123.915C51.5918 122.393 52.7926 121.595 55.1943 121.522L56.4658 121.475V121.03C56.4658 120.461 56.3428 120.041 56.0967 119.772C55.8506 119.499 55.4564 119.362 54.9141 119.362C54.5176 119.362 54.1416 119.422 53.7861 119.54C53.4352 119.659 53.1048 119.791 52.7949 119.937L52.4189 119.014C52.7972 118.813 53.2096 118.656 53.6562 118.542C54.1029 118.428 54.5449 118.371 54.9824 118.371C55.8893 118.371 56.5638 118.572 57.0059 118.973C57.4479 119.374 57.6689 120.012 57.6689 120.887V126H56.7734ZM54.2373 125.146C54.9255 125.146 55.4655 124.961 55.8574 124.592C56.2539 124.218 56.4521 123.689 56.4521 123.006V122.329L55.3447 122.377C54.4834 122.409 53.8545 122.546 53.458 122.787C53.0661 123.029 52.8701 123.409 52.8701 123.929C52.8701 124.321 52.9886 124.621 53.2256 124.831C53.4671 125.041 53.8044 125.146 54.2373 125.146ZM63.5547 126.137C62.5475 126.137 61.7728 125.774 61.2305 125.05H61.1484L61.1758 125.33C61.2122 125.686 61.2305 126.002 61.2305 126.28V129.363H60V118.494H61.0117L61.1758 119.52H61.2305C61.5221 119.109 61.8594 118.813 62.2422 118.631C62.625 118.449 63.0671 118.357 63.5684 118.357C64.5436 118.357 65.3001 118.697 65.8379 119.376C66.3802 120.05 66.6514 121.003 66.6514 122.233C66.6514 123.459 66.3802 124.416 65.8379 125.104C65.2956 125.793 64.5345 126.137 63.5547 126.137ZM63.3496 119.39C62.6068 119.39 62.069 119.599 61.7363 120.019C61.4082 120.438 61.2396 121.096 61.2305 121.994V122.233C61.2305 123.25 61.3991 123.986 61.7363 124.441C62.0736 124.893 62.6204 125.118 63.377 125.118C64.0059 125.118 64.4958 124.863 64.8467 124.353C65.2021 123.842 65.3799 123.131 65.3799 122.22C65.3799 121.304 65.2021 120.604 64.8467 120.121C64.4958 119.633 63.9967 119.39 63.3496 119.39ZM69.8438 121.577H72.0723C74.0228 121.577 74.998 122.286 74.998 123.703C74.998 124.451 74.7451 125.02 74.2393 125.412C73.7334 125.804 72.9928 126 72.0176 126H68.6133V118.494H69.8438V121.577ZM73.7676 123.771C73.7676 123.37 73.6263 123.074 73.3438 122.883C73.0612 122.691 72.5895 122.596 71.9287 122.596H69.8438V125.009H71.9629C72.5417 125.009 72.986 124.904 73.2959 124.694C73.6104 124.485 73.7676 124.177 73.7676 123.771Z" fill="#B8B9BB"/>
<path d="M161.997 115.862H163.241V117.093H163.706C164.499 117.093 165.183 117.252 165.757 117.571C166.336 117.886 166.775 118.326 167.076 118.891C167.377 119.456 167.527 120.098 167.527 120.818C167.527 121.57 167.359 122.24 167.021 122.828C166.684 123.416 166.217 123.858 165.62 124.154C165.023 124.451 164.319 124.599 163.508 124.599H163.241V126.137H161.997V124.599H161.703C160.892 124.599 160.19 124.448 159.598 124.147C159.005 123.842 158.543 123.396 158.21 122.808C157.877 122.22 157.711 121.557 157.711 120.818C157.711 120.112 157.866 119.476 158.176 118.911C158.486 118.341 158.93 117.897 159.509 117.578C160.088 117.255 160.769 117.093 161.553 117.093H161.997V115.862ZM163.241 123.566H163.412C164.31 123.566 165.007 123.323 165.504 122.835C166.005 122.343 166.256 121.666 166.256 120.805C166.256 119.984 166.023 119.34 165.559 118.87C165.098 118.396 164.453 118.159 163.624 118.159H163.241V123.566ZM161.997 118.159H161.621C160.796 118.159 160.151 118.398 159.687 118.877C159.222 119.351 158.989 119.993 158.989 120.805C158.989 121.666 159.238 122.343 159.734 122.835C160.231 123.323 160.935 123.566 161.847 123.566H161.997V118.159ZM172.647 126.137C171.522 126.137 170.638 125.797 169.995 125.118C169.357 124.435 169.038 123.496 169.038 122.302C169.038 121.099 169.337 120.142 169.934 119.431C170.531 118.715 171.337 118.357 172.354 118.357C173.297 118.357 174.049 118.663 174.609 119.273C175.17 119.88 175.45 120.702 175.45 121.741V122.486H170.31C170.332 123.339 170.549 123.986 170.959 124.428C171.369 124.87 171.95 125.091 172.702 125.091C173.103 125.091 173.484 125.057 173.844 124.988C174.204 124.915 174.625 124.776 175.108 124.571V125.651C174.694 125.829 174.304 125.954 173.939 126.027C173.575 126.1 173.144 126.137 172.647 126.137ZM172.34 119.362C171.752 119.362 171.287 119.551 170.945 119.93C170.604 120.308 170.401 120.834 170.337 121.509H174.158C174.149 120.807 173.987 120.274 173.673 119.909C173.358 119.545 172.914 119.362 172.34 119.362ZM183.53 120.388C183.53 120.871 183.394 121.24 183.12 121.495C182.847 121.746 182.457 121.917 181.951 122.008V122.069C182.585 122.156 183.045 122.345 183.332 122.637C183.624 122.924 183.77 123.311 183.77 123.799C183.77 124.51 183.507 125.054 182.983 125.433C182.464 125.811 181.714 126 180.734 126H177.357V118.494H180.721C182.594 118.494 183.53 119.125 183.53 120.388ZM182.539 123.73C182.539 123.311 182.375 123.017 182.047 122.849C181.719 122.68 181.238 122.596 180.604 122.596H178.588V125.009H180.632C181.903 125.009 182.539 124.583 182.539 123.73ZM182.327 120.497C182.327 120.146 182.19 119.896 181.917 119.745C181.648 119.595 181.24 119.52 180.693 119.52H178.588V121.577H180.468C181.138 121.577 181.614 121.495 181.896 121.331C182.184 121.162 182.327 120.884 182.327 120.497ZM188.979 126.137C187.971 126.137 187.197 125.774 186.654 125.05H186.572L186.6 125.33C186.636 125.686 186.654 126.002 186.654 126.28V129.363H185.424V118.494H186.436L186.6 119.52H186.654C186.946 119.109 187.283 118.813 187.666 118.631C188.049 118.449 188.491 118.357 188.992 118.357C189.967 118.357 190.724 118.697 191.262 119.376C191.804 120.05 192.075 121.003 192.075 122.233C192.075 123.459 191.804 124.416 191.262 125.104C190.719 125.793 189.958 126.137 188.979 126.137ZM188.773 119.39C188.031 119.39 187.493 119.599 187.16 120.019C186.832 120.438 186.663 121.096 186.654 121.994V122.233C186.654 123.25 186.823 123.986 187.16 124.441C187.497 124.893 188.044 125.118 188.801 125.118C189.43 125.118 189.92 124.863 190.271 124.353C190.626 123.842 190.804 123.131 190.804 122.22C190.804 121.304 190.626 120.604 190.271 120.121C189.92 119.633 189.421 119.39 188.773 119.39ZM198.672 126L198.433 124.934H198.378C198.004 125.403 197.631 125.722 197.257 125.891C196.888 126.055 196.421 126.137 195.855 126.137C195.117 126.137 194.538 125.943 194.119 125.556C193.7 125.168 193.49 124.621 193.49 123.915C193.49 122.393 194.691 121.595 197.093 121.522L198.364 121.475V121.03C198.364 120.461 198.241 120.041 197.995 119.772C197.749 119.499 197.355 119.362 196.812 119.362C196.416 119.362 196.04 119.422 195.685 119.54C195.334 119.659 195.003 119.791 194.693 119.937L194.317 119.014C194.696 118.813 195.108 118.656 195.555 118.542C196.001 118.428 196.443 118.371 196.881 118.371C197.788 118.371 198.462 118.572 198.904 118.973C199.346 119.374 199.567 120.012 199.567 120.887V126H198.672ZM196.136 125.146C196.824 125.146 197.364 124.961 197.756 124.592C198.152 124.218 198.351 123.689 198.351 123.006V122.329L197.243 122.377C196.382 122.409 195.753 122.546 195.356 122.787C194.965 123.029 194.769 123.409 194.769 123.929C194.769 124.321 194.887 124.621 195.124 124.831C195.366 125.041 195.703 125.146 196.136 125.146ZM207.613 126H206.362V119.52H204.154C204.027 121.16 203.854 122.45 203.635 123.389C203.421 124.323 203.138 125.009 202.787 125.446C202.441 125.879 201.996 126.096 201.454 126.096C201.158 126.096 200.941 126.064 200.805 126V125.077C200.9 125.114 201.028 125.132 201.188 125.132C201.689 125.132 202.088 124.603 202.384 123.546C202.685 122.489 202.919 120.805 203.088 118.494H207.613V126ZM211.223 121.577H213.451C215.402 121.577 216.377 122.286 216.377 123.703C216.377 124.451 216.124 125.02 215.618 125.412C215.112 125.804 214.372 126 213.396 126H209.992V118.494H211.223V121.577ZM215.146 123.771C215.146 123.37 215.005 123.074 214.723 122.883C214.44 122.691 213.968 122.596 213.308 122.596H211.223V125.009H213.342C213.921 125.009 214.365 124.904 214.675 124.694C214.989 124.485 215.146 124.177 215.146 123.771Z" fill="#B8B9BB"/>
<path d="M431.629 126L430.426 122.903H426.461L425.271 126H424L427.903 115.965H429.038L432.935 126H431.629ZM430.05 121.789L428.929 118.761L428.45 117.264C428.313 117.811 428.17 118.31 428.02 118.761L426.885 121.789H430.05ZM435.375 126H434.145V118.494H440.488V126H439.258V119.547H435.375V126ZM446.436 126.137C445.428 126.137 444.654 125.774 444.111 125.05H444.029L444.057 125.33C444.093 125.686 444.111 126.002 444.111 126.28V129.363H442.881V118.494H443.893L444.057 119.52H444.111C444.403 119.109 444.74 118.813 445.123 118.631C445.506 118.449 445.948 118.357 446.449 118.357C447.424 118.357 448.181 118.697 448.719 119.376C449.261 120.05 449.532 121.003 449.532 122.233C449.532 123.459 449.261 124.416 448.719 125.104C448.176 125.793 447.415 126.137 446.436 126.137ZM446.23 119.39C445.488 119.39 444.95 119.599 444.617 120.019C444.289 120.438 444.12 121.096 444.111 121.994V122.233C444.111 123.25 444.28 123.986 444.617 124.441C444.954 124.893 445.501 125.118 446.258 125.118C446.887 125.118 447.377 124.863 447.728 124.353C448.083 123.842 448.261 123.131 448.261 122.22C448.261 121.304 448.083 120.604 447.728 120.121C447.377 119.633 446.878 119.39 446.23 119.39ZM454.687 126.137C453.561 126.137 452.677 125.797 452.034 125.118C451.396 124.435 451.077 123.496 451.077 122.302C451.077 121.099 451.376 120.142 451.973 119.431C452.57 118.715 453.376 118.357 454.393 118.357C455.336 118.357 456.088 118.663 456.648 119.273C457.209 119.88 457.489 120.702 457.489 121.741V122.486H452.349C452.371 123.339 452.588 123.986 452.998 124.428C453.408 124.87 453.989 125.091 454.741 125.091C455.142 125.091 455.523 125.057 455.883 124.988C456.243 124.915 456.664 124.776 457.147 124.571V125.651C456.733 125.829 456.343 125.954 455.979 126.027C455.614 126.1 455.183 126.137 454.687 126.137ZM454.379 119.362C453.791 119.362 453.326 119.551 452.984 119.93C452.643 120.308 452.44 120.834 452.376 121.509H456.197C456.188 120.807 456.026 120.274 455.712 119.909C455.397 119.545 454.953 119.362 454.379 119.362ZM465.111 126H463.86V119.52H461.652C461.525 121.16 461.352 122.45 461.133 123.389C460.919 124.323 460.636 125.009 460.285 125.446C459.939 125.879 459.494 126.096 458.952 126.096C458.656 126.096 458.439 126.064 458.303 126V125.077C458.398 125.114 458.526 125.132 458.686 125.132C459.187 125.132 459.586 124.603 459.882 123.546C460.183 122.489 460.417 120.805 460.586 118.494H465.111V126ZM468.721 121.577H470.949C472.9 121.577 473.875 122.286 473.875 123.703C473.875 124.451 473.622 125.02 473.116 125.412C472.61 125.804 471.87 126 470.895 126H467.49V118.494H468.721V121.577ZM472.645 123.771C472.645 123.37 472.503 123.074 472.221 122.883C471.938 122.691 471.466 122.596 470.806 122.596H468.721V125.009H470.84C471.419 125.009 471.863 124.904 472.173 124.694C472.487 124.485 472.645 124.177 472.645 123.771Z" fill="#B8B9BB"/>
<path d="M561.77 126L558.475 117.236H558.42C558.488 117.965 558.522 118.866 558.522 119.937V126H557.36V116.006H559.22L562.303 124.195H562.357L565.495 116.006H567.341V126H566.097V119.854C566.097 119.171 566.129 118.303 566.192 117.25H566.138L562.802 126H561.77ZM574.525 126L574.286 124.934H574.231C573.858 125.403 573.484 125.722 573.11 125.891C572.741 126.055 572.274 126.137 571.709 126.137C570.971 126.137 570.392 125.943 569.973 125.556C569.553 125.168 569.344 124.621 569.344 123.915C569.344 122.393 570.545 121.595 572.946 121.522L574.218 121.475V121.03C574.218 120.461 574.095 120.041 573.849 119.772C573.603 119.499 573.208 119.362 572.666 119.362C572.27 119.362 571.894 119.422 571.538 119.54C571.187 119.659 570.857 119.791 570.547 119.937L570.171 119.014C570.549 118.813 570.962 118.656 571.408 118.542C571.855 118.428 572.297 118.371 572.734 118.371C573.641 118.371 574.316 118.572 574.758 118.973C575.2 119.374 575.421 120.012 575.421 120.887V126H574.525ZM571.989 125.146C572.677 125.146 573.217 124.961 573.609 124.592C574.006 124.218 574.204 123.689 574.204 123.006V122.329L573.097 122.377C572.235 122.409 571.606 122.546 571.21 122.787C570.818 123.029 570.622 123.409 570.622 123.929C570.622 124.321 570.741 124.621 570.978 124.831C571.219 125.041 571.556 125.146 571.989 125.146ZM578.914 118.494V123.074L578.859 124.4L578.832 124.783L582.852 118.494H584.362V126H583.214V121.577L583.234 120.627L583.269 119.725L579.276 126H577.752V118.494H578.914ZM581.033 117.517C580.158 117.517 579.52 117.35 579.119 117.018C578.723 116.685 578.502 116.143 578.456 115.391H579.604C579.646 115.865 579.769 116.195 579.974 116.382C580.183 116.569 580.546 116.662 581.061 116.662C581.53 116.662 581.876 116.562 582.1 116.361C582.327 116.161 582.466 115.837 582.517 115.391H583.679C583.61 116.129 583.362 116.669 582.934 117.011C582.505 117.348 581.872 117.517 581.033 117.517Z" fill="#B8B9BB"/>
<path d="M305.273 126L302.523 117.039H302.453C302.552 118.862 302.602 120.078 302.602 120.688V126H300.438V114.578H303.734L306.438 123.312H306.484L309.352 114.578H312.648V126H310.391V120.594C310.391 120.339 310.393 120.044 310.398 119.711C310.409 119.378 310.445 118.492 310.508 117.055H310.438L307.492 126H305.273ZM320.891 126L320.43 124.812H320.367C319.966 125.318 319.552 125.669 319.125 125.867C318.703 126.06 318.151 126.156 317.469 126.156C316.63 126.156 315.969 125.917 315.484 125.438C315.005 124.958 314.766 124.276 314.766 123.391C314.766 122.464 315.089 121.781 315.734 121.344C316.385 120.901 317.365 120.656 318.672 120.609L320.188 120.562V120.18C320.188 119.294 319.734 118.852 318.828 118.852C318.13 118.852 317.31 119.062 316.367 119.484L315.578 117.875C316.583 117.349 317.698 117.086 318.922 117.086C320.094 117.086 320.992 117.341 321.617 117.852C322.242 118.362 322.555 119.138 322.555 120.18V126H320.891ZM320.188 121.953L319.266 121.984C318.573 122.005 318.057 122.13 317.719 122.359C317.38 122.589 317.211 122.938 317.211 123.406C317.211 124.078 317.596 124.414 318.367 124.414C318.919 124.414 319.359 124.255 319.688 123.938C320.021 123.62 320.188 123.198 320.188 122.672V121.953ZM329.812 126.156C328.786 126.156 327.982 125.784 327.398 125.039H327.273C327.357 125.768 327.398 126.19 327.398 126.305V129.844H325.016V117.266H326.953L327.289 118.398H327.398C327.956 117.534 328.781 117.102 329.875 117.102C330.906 117.102 331.714 117.5 332.297 118.297C332.88 119.094 333.172 120.201 333.172 121.617C333.172 122.549 333.034 123.359 332.758 124.047C332.487 124.734 332.099 125.258 331.594 125.617C331.089 125.977 330.495 126.156 329.812 126.156ZM329.109 119.008C328.521 119.008 328.091 119.19 327.82 119.555C327.549 119.914 327.409 120.51 327.398 121.344V121.602C327.398 122.539 327.536 123.211 327.812 123.617C328.094 124.023 328.536 124.227 329.141 124.227C330.208 124.227 330.742 123.346 330.742 121.586C330.742 120.727 330.609 120.083 330.344 119.656C330.083 119.224 329.672 119.008 329.109 119.008ZM342.289 117.266V119.055H339.43V126H337.047V119.055H334.18V117.266H342.289Z" fill="#383E42"/>
<path fill-rule="evenodd" clip-rule="evenodd" d="M275 162C269.477 162 265 166.477 265 172V186.882C265 192.405 269.477 196.882 275 196.882H308.741C309.046 196.882 309.335 197.022 309.525 197.261L315.542 204.85C315.943 205.355 316.709 205.355 317.11 204.85L323.127 197.261C323.317 197.022 323.606 196.882 323.911 196.882H357.652C363.175 196.882 367.652 192.405 367.652 186.882V172C367.652 166.477 363.175 162 357.652 162H275Z" fill="#6B7FD7"/>
<path d="M307.182 176.614V175.116H310.346V185H308.666V176.614H307.182ZM311.783 182.872V181.528L316.697 175.032H318.405V181.472H319.791V182.872H318.405V185H316.795V182.872H311.783ZM316.907 176.936L313.435 181.472H316.907V176.936ZM320.67 182.872V181.528L325.584 175.032H327.292V181.472H328.678V182.872H327.292V185H325.682V182.872H320.67ZM325.794 176.936L322.322 181.472H325.794V176.936ZM329.626 183.754C331.138 182.718 332.347 181.705 333.252 180.716C334.167 179.717 334.624 178.793 334.624 177.944C334.624 177.44 334.498 177.039 334.246 176.74C334.004 176.441 333.607 176.292 333.056 176.292C332.487 176.292 332.058 176.479 331.768 176.852C331.479 177.216 331.316 177.739 331.278 178.42H329.724C329.79 177.291 330.135 176.427 330.76 175.83C331.395 175.233 332.202 174.934 333.182 174.934C334.144 174.934 334.895 175.191 335.436 175.704C335.987 176.208 336.262 176.908 336.262 177.804C336.262 178.523 336.038 179.251 335.59 179.988C335.152 180.725 334.592 181.407 333.91 182.032C333.229 182.648 332.524 183.18 331.796 183.628H336.486V184.93H329.626V183.754ZM337.738 179.988C337.738 181.565 338.018 182.802 338.578 183.698C339.138 184.585 340.071 185.028 341.378 185.028C342.684 185.028 343.618 184.58 344.178 183.684C344.738 182.788 345.018 181.556 345.018 179.988C345.018 178.429 344.738 177.207 344.178 176.32C343.618 175.424 342.684 174.976 341.378 174.976C340.071 174.976 339.138 175.419 338.578 176.306C338.018 177.193 337.738 178.42 337.738 179.988ZM343.422 179.988C343.422 181.127 343.282 181.999 343.002 182.606C342.722 183.213 342.18 183.516 341.378 183.516C340.566 183.516 340.02 183.213 339.74 182.606C339.46 181.999 339.32 181.127 339.32 179.988C339.32 178.859 339.46 177.995 339.74 177.398C340.02 176.801 340.566 176.502 341.378 176.502C342.18 176.502 342.722 176.805 343.002 177.412C343.282 178.009 343.422 178.868 343.422 179.988Z" fill="white"/>
<path d="M299.546 183.625C298.581 183.625 297.796 182.885 297.796 181.975C297.796 181.519 297.404 181.15 296.921 181.15C296.438 181.15 296.046 181.519 296.046 181.975C296.046 183.51 297.163 184.803 298.671 185.171V186.175C298.671 186.631 299.063 187 299.546 187C300.029 187 300.421 186.631 300.421 186.175V185.171C301.929 184.803 303.046 183.51 303.046 181.975C303.046 180.155 301.476 178.675 299.546 178.675C298.581 178.675 297.796 177.935 297.796 177.025C297.796 176.115 298.581 175.375 299.546 175.375C300.511 175.375 301.296 176.115 301.296 177.025C301.296 177.481 301.688 177.85 302.171 177.85C302.654 177.85 303.046 177.481 303.046 177.025C303.046 175.49 301.929 174.197 300.421 173.829V172.825C300.421 172.369 300.029 172 299.546 172C299.063 172 298.671 172.369 298.671 172.825V173.829C297.163 174.197 296.046 175.49 296.046 177.025C296.046 178.845 297.616 180.325 299.546 180.325C300.511 180.325 301.296 181.065 301.296 181.975C301.296 182.885 300.511 183.625 299.546 183.625Z" fill="white"/>
<rect x="287" y="179.861" width="5.96661" height="1.19332" fill="white"/>
<rect x="290.58" y="177.475" width="5.96661" height="1.19332" transform="rotate(90 290.58 177.475)" fill="white"/>
<path d="M123 50L115.807 55L109 50" stroke="#7381A7" stroke-width="2" stroke-linecap="round" stroke-linejoin="round"/>
<path fill-rule="evenodd" clip-rule="evenodd" d="M615 58.5C615 67.6127 607.613 75 598.5 75C589.387 75 582 67.6127 582 58.5C582 49.3873 589.387 42 598.5 42C607.613 42 615 49.3873 615 58.5ZM617 58.5C617 68.7173 608.717 77 598.5 77C588.283 77 580 68.7173 580 58.5C580 48.2827 588.283 40 598.5 40C608.717 40 617 48.2827 617 58.5ZM597.522 51.2619C597.904 50.9127 598.489 50.9127 598.871 51.2619L604.067 56.0119C604.475 56.3846 604.503 57.0171 604.13 57.4247C603.758 57.8323 603.125 57.8607 602.718 57.4881L599.196 54.269V65C599.196 65.5523 598.749 66 598.196 66C597.644 66 597.196 65.5523 597.196 65V54.269L593.675 57.4881C593.267 57.8607 592.635 57.8323 592.262 57.4247C591.889 57.0171 591.918 56.3845 592.325 56.0119L597.522 51.2619Z" fill="#B5BFEB"/>
<defs>
<filter id="filter0_d" x="281" y="209" width="70" height="70" filterUnits="userSpaceOnUse" color-interpolation-filters="sRGB">
<feFlood flood-opacity="0" result="BackgroundImageFix"/>
<feColorMatrix in="SourceAlpha" type="matrix" values="0 0 0 0 0 0 0 0 0 0 0 0 0 0 0 0 0 0 127 0"/>
<feOffset dy="4"/>
<feGaussianBlur stdDeviation="10"/>
<feColorMatrix type="matrix" values="0 0 0 0 0.347604 0 0 0 0 0.536556 0 0 0 0 0.591667 0 0 0 0.25 0"/>
<feBlend mode="normal" in2="BackgroundImageFix" result="effect1_dropShadow"/>
<feBlend mode="normal" in="SourceGraphic" in2="effect1_dropShadow" result="shape"/>
</filter>
<linearGradient id="paint0_linear" x1="201.438" y1="150.811" x2="201.438" y2="454" gradientUnits="userSpaceOnUse">
<stop stop-color="#6B7FD7" stop-opacity="0.8"/>
<stop offset="1" stop-color="#6B7FD7" stop-opacity="0.2"/>
</linearGradient>
</defs>
</svg>
