<svg width="575" height="368" viewBox="0 0 575 368" fill="none" xmlns="http://www.w3.org/2000/svg">
<path d="M24.4 344.576C105.302 187.641 219.433 66.0513 571.936 42.0161" stroke="url(#paint0_linear)" stroke-width="5" stroke-linecap="round"/>
<path d="M23.1088 0.93934C22.523 0.353553 21.5733 0.353553 20.9875 0.93934L11.4416 10.4853C10.8558 11.0711 10.8558 12.0208 11.4416 12.6066C12.0273 13.1924 12.9771 13.1924 13.5629 12.6066L22.0482 4.12132L30.5334 12.6066C31.1192 13.1924 32.069 13.1924 32.6548 12.6066C33.2405 12.0208 33.2405 11.0711 32.6548 10.4853L23.1088 0.93934ZM23.5482 368L23.5482 2L20.5482 2L20.5482 368L23.5482 368Z" fill="#181922"/>
<path d="M573.211 347.012C573.797 346.427 573.797 345.477 573.211 344.891L563.665 335.345C563.08 334.759 562.13 334.759 561.544 335.345C560.958 335.931 560.958 336.881 561.544 337.466L570.029 345.952L561.544 354.437C560.958 355.023 560.958 355.972 561.544 356.558C562.13 357.144 563.08 357.144 563.665 356.558L573.211 347.012ZM0 347.452H572.151V344.452H0V347.452Z" fill="#181922"/>
<line x1="18.741" y1="43.9941" x2="25.3554" y2="43.9941" stroke="#181922" stroke-width="2"/>
<line x1="18.741" y1="117.855" x2="25.3554" y2="117.855" stroke="#181922" stroke-width="2"/>
<line x1="18.741" y1="193.921" x2="25.3554" y2="193.921" stroke="#181922" stroke-width="2"/>
<line x1="18.741" y1="268.885" x2="25.3554" y2="268.885" stroke="#181922" stroke-width="2"/>
<line x1="96.012" y1="349.259" x2="96.012" y2="342.645" stroke="#181922" stroke-width="2"/>
<line x1="170.976" y1="349.259" x2="170.976" y2="342.645" stroke="#181922" stroke-width="2"/>
<line x1="245.94" y1="349.259" x2="245.94" y2="342.645" stroke="#181922" stroke-width="2"/>
<line x1="319.801" y1="349.259" x2="319.801" y2="342.645" stroke="#181922" stroke-width="2"/>
<line x1="395.867" y1="349.259" x2="395.867" y2="342.645" stroke="#181922" stroke-width="2"/>
<line x1="469.729" y1="349.259" x2="469.729" y2="342.645" stroke="#181922" stroke-width="2"/>
<line x1="544.693" y1="349.259" x2="544.693" y2="342.645" stroke="#181922" stroke-width="2"/>
<defs>
<linearGradient id="paint0_linear" x1="591.573" y1="-1.44867" x2="31.7659" y2="356.108" gradientUnits="userSpaceOnUse">
<stop stop-color="#009BBC"/>
<stop offset="1" stop-color="#009BBC" stop-opacity="0.42"/>
</linearGradient>
</defs>
</svg>
