<svg width="707" height="469" viewBox="0 0 707 469" fill="none" xmlns="http://www.w3.org/2000/svg">
<g clip-path="url(#clip0)">
<path d="M146.662 130.118H118.007V276.436H146.662V130.118Z" fill="#FCBA04"/>
<path d="M183.132 88.313H154.477V276.436H183.132V88.313Z" fill="#FFDA8F"/>
<path d="M221.165 105.558H192.51V277.219H221.165V105.558Z" fill="#E59507"/>
<path d="M107.327 204.845H90.9149V219.738H107.327V204.845Z" fill="#FFDA8F"/>
<path d="M107.327 233.324H90.9149V248.217H107.327V233.324Z" fill="#FCBA04"/>
<path d="M107.327 261.543H90.9149V276.436H107.327V261.543Z" fill="#E59507"/>
<path d="M637.967 133.515H254.51C245.132 133.515 237.838 141.092 237.838 150.237V371.542C237.838 380.949 245.392 388.264 254.51 388.264H637.967C647.345 388.264 654.639 380.687 654.639 371.542V150.498C654.639 141.092 647.085 133.515 637.967 133.515Z" fill="#FABE2E"/>
<path d="M633.018 154.94H259.459V367.362H633.018V154.94Z" fill="#FFDA8F"/>
<path d="M656.723 413.87H235.753C226.375 413.87 218.821 406.293 218.821 396.887V388.526H673.656V396.887C673.656 406.293 666.101 413.87 656.723 413.87Z" fill="#E59507"/>
<path d="M486.356 388.526H405.861V398.716H486.356V388.526Z" fill="#F9A806"/>
<path d="M446.238 149.714C449.403 149.714 451.969 147.141 451.969 143.966C451.969 140.791 449.403 138.218 446.238 138.218C443.073 138.218 440.507 140.791 440.507 143.966C440.507 147.141 443.073 149.714 446.238 149.714Z" fill="#FFDA8F"/>
<g opacity="0.4">
<g opacity="0.4">
<path opacity="0.4" d="M297.753 283.229H279.778V340.711H297.753V283.229Z" fill="#F4F3F2"/>
<path opacity="0.4" d="M324.324 228.882H306.349V340.711H324.324V228.882Z" fill="#F4F3F2"/>
<path opacity="0.4" d="M350.895 250.046H332.92V340.972H350.895V250.046Z" fill="#F4F3F2"/>
<path opacity="0.4" d="M377.206 212.422H359.231V340.711H377.206V212.422Z" fill="#F4F3F2"/>
</g>
<g opacity="0.4">
<path opacity="0.4" d="M499.902 181.33H400.13V244.037H499.902V181.33Z" fill="white"/>
<path opacity="0.4" d="M620.514 255.795H400.13V272.778H620.514V255.795Z" fill="white"/>
<path opacity="0.4" d="M620.514 289.761H400.13V306.745H620.514V289.761Z" fill="white"/>
<path opacity="0.4" d="M620.514 323.728H400.13V340.711H620.514V323.728Z" fill="white"/>
<path opacity="0.4" d="M620.253 181.33H520.481V244.037H620.253V181.33Z" fill="white"/>
</g>
</g>
<path d="M615.043 129.073H616.867C618.69 129.073 620.514 127.506 620.514 125.677V123.848C620.514 122.019 622.337 120.451 624.161 120.451C625.984 120.451 627.547 122.28 627.547 124.109V125.938C627.547 127.767 629.11 129.596 630.934 129.596H632.757C634.581 129.596 636.144 131.425 636.144 133.254C636.144 135.083 634.32 136.651 632.497 136.651H630.673C628.85 136.651 627.026 138.218 627.026 140.047V141.876C627.026 143.705 625.203 145.273 623.379 145.273C621.556 145.273 619.993 143.444 619.993 141.615V139.786C619.993 137.957 618.43 136.128 616.606 136.128H614.783C612.959 136.128 611.396 134.299 611.396 132.47C611.396 130.641 612.959 129.073 615.043 129.073Z" fill="#FFDA8F"/>
<path d="M662.454 148.93H663.757C665.32 148.93 666.362 147.885 666.622 146.318V145.011C666.622 143.444 667.925 142.398 669.488 142.398C671.051 142.398 672.093 143.705 672.093 145.273V146.579C672.093 148.147 673.135 149.192 674.698 149.453H676C677.563 149.453 678.605 150.759 678.605 152.327C678.605 153.895 677.303 154.94 675.74 154.94H674.437C672.874 154.94 671.832 155.985 671.572 157.553V158.859C671.572 160.427 670.269 161.472 668.706 161.472C667.143 161.472 666.101 160.166 666.101 158.598V157.291C666.101 155.724 665.059 154.679 663.496 154.417H662.194C660.631 154.417 659.589 153.111 659.589 151.543C659.849 149.976 661.152 148.93 662.454 148.93Z" fill="#FFDA8F"/>
<path d="M640.572 119.406H643.177C646.043 119.406 648.387 117.316 648.387 114.441V111.829C648.387 108.955 650.992 106.864 653.597 106.864C656.463 106.864 658.547 109.477 658.547 112.09V114.703C658.547 117.577 660.631 119.928 663.496 119.928H666.101C668.967 119.928 671.051 122.541 671.051 125.154C671.051 128.028 668.446 130.118 665.841 130.118H663.236C660.37 130.118 658.026 132.209 658.026 135.083V137.695C658.026 140.57 655.421 142.66 652.816 142.66C649.95 142.66 647.866 140.047 647.866 137.434V134.821C647.866 131.947 645.782 129.596 642.917 129.596H640.312C637.446 129.596 635.362 126.983 635.362 124.37C635.362 121.496 637.707 119.406 640.572 119.406Z" fill="#FFDA8F"/>
<path d="M312.779 187.339C347.164 152.851 347.164 96.9345 312.779 62.4464C278.394 27.9583 222.645 27.9583 188.26 62.4464C153.875 96.9345 153.875 152.851 188.26 187.339C222.645 221.827 278.394 221.827 312.779 187.339Z" fill="#E59507"/>
<path d="M304.18 172.07C330.17 142.341 327.211 97.1082 297.571 71.0403C267.93 44.9725 222.833 47.9406 196.843 77.6697C170.853 107.399 173.812 152.631 203.453 178.699C233.093 204.767 278.19 201.799 304.18 172.07Z" fill="#FABE2E"/>
<path d="M301.869 144.434C312.646 115.968 298.375 84.13 269.995 73.321C241.614 62.5121 209.871 76.8256 199.094 105.291C188.318 133.757 202.589 165.595 230.969 176.404C259.35 187.213 291.093 172.899 301.869 144.434Z" fill="#E59507"/>
<path d="M276.492 150.943C290.836 136.556 290.836 113.23 276.492 98.8425C262.148 84.4555 238.891 84.4555 224.547 98.8425C210.203 113.23 210.203 136.556 224.547 150.943C238.891 165.33 262.148 165.33 276.492 150.943Z" fill="#FABE2E"/>
<path d="M271.202 133.432C275.912 121.956 270.456 108.824 259.014 104.099C247.573 99.3746 234.48 104.847 229.769 116.323C225.059 127.798 230.516 140.931 241.957 145.655C253.398 150.38 266.491 144.907 271.202 133.432Z" fill="#E59507"/>
<path d="M239.891 124.97C239.891 130.718 244.58 135.422 250.311 135.422C256.042 135.422 260.731 130.718 260.731 124.97C260.731 119.222 256.042 114.519 250.311 114.519C244.58 114.519 239.891 119.222 239.891 124.97Z" fill="#FABE2E"/>
<path d="M351.397 29.9187L249.506 123.763L251.972 126.457L353.863 32.6131L351.397 29.9187Z" fill="#29A7FF"/>
<path d="M349.301 45.0186L368.839 26.9902L358.158 24.3774L357.898 14.71L338.1 32.7384L338.621 43.9735L349.301 45.0186Z" fill="#29A7FF"/>
<path d="M707 18.5513L632.236 35.5346L649.95 53.8243L593.161 103.468L521.784 90.6649L413.155 188.645L350.113 176.888L191.468 326.602L131.032 314.844L126.083 341.234L199.804 355.343L358.71 205.89L421.23 217.648L529.859 119.145L600.976 131.947L668.706 73.1591L686.941 91.71L707 18.5513Z" fill="#29A7FF"/>
<path d="M212.51 384.076H97.8898V414.385H212.51V384.076Z" fill="#E59507"/>
<path d="M113.52 386.95H107.789V411.249H113.52V386.95Z" fill="#FABE2E"/>
<path d="M128.368 386.95H122.637V411.249H128.368V386.95Z" fill="#FABE2E"/>
<path d="M143.217 386.95H137.486V411.249H143.217V386.95Z" fill="#FABE2E"/>
<path d="M158.066 386.95H152.335V411.249H158.066V386.95Z" fill="#FABE2E"/>
<path d="M172.914 386.95H167.183V411.249H172.914V386.95Z" fill="#FABE2E"/>
<path d="M187.502 386.95H181.771V411.249H187.502V386.95Z" fill="#FABE2E"/>
<path d="M202.351 386.95H196.62V411.249H202.351V386.95Z" fill="#FABE2E"/>
<path d="M200.006 353.768H85.3857V384.077H200.006V353.768Z" fill="#FABE2E"/>
<path d="M101.016 356.642H95.2849V380.941H101.016V356.642Z" fill="#E59507"/>
<path d="M115.864 356.642H110.133V380.941H115.864V356.642Z" fill="#E59507"/>
<path d="M130.713 356.642H124.982V380.941H130.713V356.642Z" fill="#E59507"/>
<path d="M145.562 356.642H139.831V380.941H145.562V356.642Z" fill="#E59507"/>
<path d="M160.41 356.642H154.679V380.941H160.41V356.642Z" fill="#E59507"/>
<path d="M175.259 356.642H169.528V380.941H175.259V356.642Z" fill="#E59507"/>
<path d="M190.107 356.642H184.376V380.941H190.107V356.642Z" fill="#E59507"/>
<path d="M212.51 323.459H97.8898V353.768H212.51V323.459Z" fill="#E59507"/>
<path d="M113.52 326.333H107.789V350.632H113.52V326.333Z" fill="#FABE2E"/>
<path d="M128.368 326.333H122.637V350.632H128.368V326.333Z" fill="#FABE2E"/>
<path d="M143.217 326.333H137.486V350.632H143.217V326.333Z" fill="#FABE2E"/>
<path d="M158.066 326.333H152.335V350.632H158.066V326.333Z" fill="#FABE2E"/>
<path d="M172.914 326.333H167.183V350.632H172.914V326.333Z" fill="#FABE2E"/>
<path d="M187.502 326.333H181.771V350.632H187.502V326.333Z" fill="#FABE2E"/>
<path d="M202.351 326.333H196.62V350.632H202.351V326.333Z" fill="#FABE2E"/>
<path d="M80.8701 414.652C105.323 414.125 124.72 393.815 124.195 369.288C123.669 344.762 103.419 325.307 78.9663 325.834C54.5132 326.362 35.1162 346.672 35.6419 371.198C36.1676 395.724 56.417 415.179 80.8701 414.652Z" fill="#D88809"/>
<path d="M200.006 293.15H85.3857V323.459H200.006V293.15Z" fill="#FABE2E"/>
<path d="M101.016 296.024H95.2849V320.324H101.016V296.024Z" fill="#E59507"/>
<path d="M115.864 296.024H110.133V320.324H115.864V296.024Z" fill="#E59507"/>
<path d="M130.713 296.024H124.982V320.324H130.713V296.024Z" fill="#E59507"/>
<path d="M145.562 296.024H139.831V320.324H145.562V296.024Z" fill="#E59507"/>
<path d="M160.41 296.024H154.679V320.324H160.41V296.024Z" fill="#E59507"/>
<path d="M175.259 296.024H169.528V320.324H175.259V296.024Z" fill="#E59507"/>
<path d="M190.107 296.024H184.376V320.324H190.107V296.024Z" fill="#E59507"/>
<path d="M113.127 386.513C122.143 366.531 113.302 343.002 93.3804 333.958C73.4583 324.915 49.9991 333.782 40.9828 353.764C31.9665 373.746 40.8073 397.275 60.7294 406.319C80.6515 415.362 104.111 406.495 113.127 386.513Z" fill="#FABE2E"/>
<path d="M77.0498 414.384C52.8232 414.384 32.7646 394.527 32.7646 369.967C32.7646 345.406 52.5627 325.549 77.0498 325.549C101.537 325.549 121.335 345.406 121.335 369.967C121.074 394.527 101.276 414.384 77.0498 414.384ZM77.0498 334.955C57.7727 334.955 42.1426 350.632 42.1426 369.967C42.1426 389.301 57.7727 404.978 77.0498 404.978C96.3269 404.978 111.957 389.301 111.957 369.967C111.957 350.893 96.3269 334.955 77.0498 334.955Z" fill="#E59507"/>
<path d="M79.9152 389.041V394.789H74.7052V389.041C69.4952 388.779 64.5457 387.212 61.6802 384.86L64.5457 378.589C67.1507 380.418 70.7977 381.986 74.7052 382.247V373.625C68.9742 372.319 62.4617 370.228 62.4617 362.912C62.4617 357.426 66.3692 352.723 74.7052 351.677V345.929H79.9152V351.677C83.8228 351.939 87.7303 352.984 90.5958 354.813L87.9908 361.345C85.3858 359.777 82.5203 358.993 79.9152 358.732V367.616C85.6463 368.922 92.1588 371.012 92.1588 378.328C92.1588 383.292 88.2513 387.995 79.9152 389.041ZM74.7052 365.787V358.471C71.8397 358.993 70.7977 360.561 70.7977 362.39C71.0582 363.958 72.6212 365.003 74.7052 365.787ZM83.8228 378.328C83.8228 376.499 82.2598 375.454 80.1757 374.67V381.986C82.5203 381.463 83.8228 380.157 83.8228 378.328Z" fill="white"/>
<path d="M75.4866 335.739H76.2682C77.0497 335.739 77.8312 334.955 77.8312 334.171V333.387C77.8312 332.604 78.6127 331.82 79.3942 331.82C80.1757 331.82 80.9572 332.604 80.9572 333.387V334.171C80.9572 334.955 81.7387 335.739 82.5202 335.739H83.3017C84.0832 335.739 84.8647 336.523 84.8647 337.307C84.8647 338.091 84.0832 338.874 83.3017 338.874H82.5202C81.7387 338.874 80.9572 339.658 80.9572 340.442V341.226C80.9572 342.01 80.1757 342.794 79.3942 342.794C78.6127 342.794 77.8312 342.01 77.8312 341.226V340.442C77.8312 339.658 77.0497 338.874 76.2682 338.874H75.4866C74.7051 338.874 73.9236 338.091 73.9236 337.307C73.9236 336.523 74.7051 335.739 75.4866 335.739Z" fill="white"/>
<path d="M97.1083 344.884H97.6293C98.4108 344.884 98.9318 344.362 98.9318 343.839V343.317C98.9318 342.533 99.4528 342.01 100.234 342.272C101.016 342.272 101.537 342.794 101.276 343.578V344.101C101.276 344.884 101.797 345.407 102.318 345.407H102.839C103.621 345.407 104.142 345.93 103.881 346.713C103.881 347.497 103.36 348.02 102.579 347.759H102.058C101.276 347.759 100.755 348.281 100.755 348.804V349.326C100.755 350.11 100.234 350.633 99.4528 350.371C98.6713 350.371 98.1503 349.849 98.4108 349.065V348.542C98.4108 347.759 97.8898 347.236 97.3688 347.236H96.8478C96.0663 347.236 95.5453 346.713 95.8058 345.93C96.0663 345.407 96.5873 344.884 97.1083 344.884Z" fill="white"/>
<path d="M87.2091 331.298H88.5116C89.8141 331.298 90.8562 330.252 90.8562 328.946V327.64C90.8562 326.333 91.8982 325.288 93.2007 325.288C94.5032 325.288 95.5452 326.333 95.5452 327.64V328.946C95.5452 330.252 96.5872 331.298 97.8897 331.298H99.1922C100.495 331.298 101.537 332.343 101.537 333.649C101.537 334.955 100.495 336.001 99.1922 336.001H97.8897C96.5872 336.001 95.5452 337.046 95.5452 338.352V339.658C95.5452 340.965 94.5032 342.01 93.2007 342.01C91.8982 342.01 90.8562 340.965 90.8562 339.658V338.352C90.8562 337.046 89.8141 336.001 88.5116 336.001H87.2091C85.9066 336.001 84.8646 334.955 84.8646 333.649C84.8646 332.343 85.9066 331.298 87.2091 331.298Z" fill="white"/>
</g>
<defs>
<clipPath id="clip0">
<rect width="707" height="469" fill="white"/>
</clipPath>
</defs>
</svg>
