<svg width="76" height="79" viewBox="0 0 76 79" fill="none" xmlns="http://www.w3.org/2000/svg">
<g id="icon_6">
<circle id="Oval" cx="16" cy="62.7002" r="16" fill="#E4EBF7"/>
<circle id="Oval_2" cx="67" cy="9.70007" r="9" fill="#E4EBF7"/>
<g id="order">
<path id="Path" d="M24 51.7002H58V67.7002H24V51.7002Z" fill="#FABE2E"/>
<path id="Path_2" d="M22 46.7002H60V51.7002H22V46.7002Z" fill="#FABE2E"/>
<path id="Path_3" d="M16 17.7001L24 21.7001H58L66 17.7001H16Z" fill="#E4EBF7"/>
<path id="Path_4" d="M31 21.7801L33.759 24.5281C34.512 25.2781 35.5341 25.7001 36.5984 25.7001H45.3193C46.3845 25.7001 47.4056 25.2791 48.1586 24.5281L51 21.7001L31 21.7801Z" fill="#E4EBF7"/>
<path id="Path_5" d="M51 21.7001V33.7001H53H55V21.7001H54H51Z" fill="#383A4A"/>
<path id="Path_6" d="M31 21.7001H28H27V33.7001H29H31V21.7001Z" fill="#383A4A"/>
<path id="Path_7" d="M38 46.7002H44V67.7002H38V46.7002Z" fill="#29A7FF"/>
<path id="Path_8" d="M42 9.70007H40C33.373 9.70007 28 15.0731 28 21.7001H54C54 15.0731 48.627 9.70007 42 9.70007Z" fill="#E4EBF7"/>
<path id="Path_9" d="M36 41.7001H33C33 44.4611 35.239 46.7001 38 46.7001H41C41 43.9391 38.761 41.7001 36 41.7001Z" fill="#29A7FF"/>
<path id="Path_10" d="M49 41.7001H46C43.239 41.7001 41 43.9391 41 46.7001H44C46.761 46.7001 49 44.4611 49 41.7001Z" fill="#29A7FF"/>
<path id="Shape" fill-rule="evenodd" clip-rule="evenodd" d="M61 14.7001H65V16.7001H53.997C52.034 12.0071 47.397 8.70007 42 8.70007H40C34.603 8.70007 29.966 12.0071 28.003 16.7001H17V14.7001H21V12.7001H11V14.7001H15V17.7001C15 18.0911 15.23 18.4211 15.557 18.5851L15.552 18.5941L23.552 22.5941C23.691 22.6641 23.845 22.7001 24 22.7001H26V33.7001C26 34.2531 26.447 34.7001 27 34.7001H28V45.7001H22C21.447 45.7001 21 46.1471 21 46.7001V51.7001C21 52.2531 21.447 52.7001 22 52.7001H23V67.7001C23 68.2531 23.447 68.7001 24 68.7001H58C58.553 68.7001 59 68.2531 59 67.7001V52.7001H60C60.553 52.7001 61 52.2531 61 51.7001V46.7001C61 46.1471 60.553 45.7001 60 45.7001H54V34.7001H55C55.553 34.7001 56 34.2531 56 33.7001V22.7001H58C58.155 22.7001 58.309 22.6641 58.447 22.5951L66.447 18.5951L66.442 18.5861C66.77 18.4211 67 18.0911 67 17.7001V14.7001H71V12.7001H61V14.7001ZM40 10.7001H42C47.728 10.7001 52.442 15.1021 52.949 20.7001H29.051C29.558 15.1021 34.272 10.7001 40 10.7001ZM47.465 23.8211L48.586 22.7001H33.414L34.535 23.8211C35.101 24.3871 35.855 24.7001 36.657 24.7001H45.343C46.145 24.7001 46.897 24.3881 47.465 23.8211ZM20.236 18.7001H27.363C27.209 19.3501 27.103 20.0171 27.05 20.7001H24.236L20.236 18.7001ZM30 32.7001V22.7001H28V32.7001H30ZM23 47.7001H28V50.7001H23V47.7001ZM36 42.7001H34.127C34.571 44.4241 36.14 45.7001 38 45.7001H39.873C39.429 43.9761 37.86 42.7001 36 42.7001ZM37 66.7001H30V52.7001H37V66.7001ZM43 66.7001V47.7001H41H39V66.7001H43ZM45 52.7001H52V66.7001H45V52.7001ZM45 47.7001V50.7001H52V47.7001H45ZM44 45.7001H42.127C42.571 43.9761 44.14 42.7001 46 42.7001H47.873C47.429 44.4241 45.86 45.7001 44 45.7001ZM37 50.7001V47.7001H30V50.7001H37ZM25 52.7001H28V66.7001H25V52.7001ZM54 66.7001H57V52.7001H54V66.7001ZM59 47.7001V50.7001H54V47.7001H59ZM48.46 45.7001H52V34.7001H51C50.447 34.7001 50 34.2531 50 33.7001V24.1141L48.879 25.2351C47.935 26.1791 46.679 26.7001 45.343 26.7001H36.657C35.321 26.7001 34.065 26.1791 33.121 25.2351L32 24.1141V33.7001C32 34.2531 31.553 34.7001 31 34.7001H30V45.7001H33.54C32.586 44.6371 32 43.2381 32 41.7001C32 41.1471 32.447 40.7001 33 40.7001H36C38.086 40.7001 39.924 41.7701 41 43.3901C42.076 41.7711 43.914 40.7001 46 40.7001H49C49.553 40.7001 50 41.1471 50 41.7001C50 43.2381 49.414 44.6371 48.46 45.7001ZM54 32.7001H52V22.7001H54V32.7001ZM54.95 20.7001H57.764L61.764 18.7001H54.637C54.792 19.3501 54.898 20.0171 54.95 20.7001Z" fill="black"/>
<path id="Path_11" d="M36 16.7001H38V18.7001H36V16.7001Z" fill="black"/>
<path id="Path_12" d="M40 16.7001H42V18.7001H40V16.7001Z" fill="black"/>
<path id="Path_13" d="M44 16.7001H46V18.7001H44V16.7001Z" fill="black"/>
</g>
</g>
</svg>
