<svg width="112" height="100" viewBox="0 0 112 100" fill="none" xmlns="http://www.w3.org/2000/svg">
<path d="M30.5547 91.6667V11.1111L41.6658 2.28882e-05H47.2214L58.3325 11.1111V91.6667H30.5547Z" fill="#6C80D7"/>
<path d="M94.4453 22.2222C94.4453 19.4445 90.8731 19.4445 90.8731 19.4445H73.0175C73.0175 19.4445 69.4453 19.4417 69.4453 22.2222V91.6667H94.4453V22.2222Z" fill="#6C80D7"/>
<path d="M80.5551 38.8889C80.5551 36.1111 77.7773 36.1111 77.7773 36.1111H55.5551C52.7773 36.1111 52.7773 38.8889 52.7773 38.8889V91.6667H80.5551V38.8889Z" fill="#4053A4"/>
<path d="M19.444 30.5556C19.444 30.5556 19.444 27.7778 16.6662 27.7778H2.77734V91.6667H19.444V30.5556Z" fill="#283984"/>
<path d="M36.1128 47.2222C36.1128 47.2222 36.1128 44.4445 33.3351 44.4445H16.6684C16.6684 44.4445 13.8906 44.4417 13.8906 47.2222V91.6667H36.1128V47.2222Z" fill="#4053A4"/>
<path d="M30.5556 77.7778H25V72.2222H30.5556V77.7778Z" fill="#FFCC4D"/>
<path d="M30.5556 55.5555H25V50H30.5556V55.5555Z" fill="#B275CF"/>
<path d="M25.0009 66.6667H19.4453V61.1111H25.0009V66.6667Z" fill="#FFCC4D"/>
<path d="M52.7782 22.2222H47.2227V16.6667H52.7782V22.2222Z" fill="#B275CF"/>
<path d="M52.7782 33.3333H47.2227V27.7778H52.7782V33.3333Z" fill="#B275CF"/>
<path d="M47.2235 44.4445H41.668V38.8889H47.2235V44.4445Z" fill="#B275CF"/>
<path d="M75.0009 47.2222H69.4453V41.6667H75.0009V47.2222Z" fill="#B275CF"/>
<path d="M69.4462 58.3333H63.8906V52.7778H69.4462V58.3333Z" fill="#FFCC4D"/>
<path d="M63.8876 75H58.332V69.4444H63.8876V75Z" fill="#FFCC4D"/>
<path d="M88.8876 30.5555H83.332V25H88.8876V30.5555Z" fill="#B275CF"/>
<path d="M88.8876 41.6667H83.332V36.1111H88.8876V41.6667Z" fill="#B275CF"/>
<path d="M97.2222 47.2222C91.3195 47.2222 86.3111 50.9166 84.3 56.1055C82.1167 52.4639 78.1694 50 73.6111 50C71.4917 50 69.5278 50.575 67.7806 51.5055C66.0333 48.9194 63.075 47.2222 59.7222 47.2222C55.4889 47.2222 51.9222 49.9472 50.5889 53.7278C49.1222 53.1222 47.5194 52.7778 45.8333 52.7778C40.9528 52.7778 36.7694 55.6055 34.7111 59.6833C33.0333 58.85 31.1694 58.3333 29.1667 58.3333C25.8806 58.3333 22.9167 59.6278 20.6833 61.7028C18.5528 59.0333 15.3111 57.2916 11.6333 57.2916C5.20833 57.2916 0 62.5 0 68.9222C0 75.3472 5.20833 80.5555 11.6333 80.5555C14.3972 80.5555 16.9028 79.5528 18.9 77.9389C21.1556 81.1916 24.9056 83.3333 29.1667 83.3333C30.725 83.3333 32.2 83.0139 33.575 82.4916C34.7778 83.025 36.1 83.3333 37.5 83.3333C41.3889 83.3333 44.7194 81.0333 46.275 77.7333C49.4194 77.6194 52.2611 76.3611 54.3972 74.3444C55.9139 76.4166 58.3444 77.7778 61.1111 77.7778C64.1389 77.7778 66.7639 76.1472 68.225 73.7333C69.8583 74.5222 71.6722 75 73.6111 75C78.6972 75 83.0528 71.95 85.0083 67.5889C87.3389 71.9778 91.9056 75 97.2222 75C104.894 75 111.111 68.7833 111.111 61.1111C111.111 53.4389 104.894 47.2222 97.2222 47.2222Z" fill="#A6B4F1"/>
<path d="M86.1111 57.525C77.9833 57.525 71.0306 62.5139 68.125 69.5917C67.6389 69.5389 67.1667 69.4444 66.6667 69.4444C64.7167 69.4444 62.8639 69.8528 61.1778 70.5806C59.1417 68.2056 56.1528 66.6667 52.7778 66.6667C46.6417 66.6667 41.6667 71.6417 41.6667 77.7778C41.6667 77.9167 41.7028 78.0472 41.7083 78.1833C40.8028 77.9472 39.8694 77.7778 38.8889 77.7778C36.4556 77.7778 34.225 78.5806 32.3944 79.9083C30.7361 78.5944 28.6667 77.7778 26.3889 77.7778C25.8389 77.7778 25.3111 77.85 24.7861 77.9417C23.0167 72.9972 18.3389 69.4444 12.7889 69.4444C5.72778 69.4444 0 75.1722 0 82.2361C0 89.2972 5.72778 95.025 12.7889 95.025C14.9639 95.025 16.9806 94.4306 18.7722 93.475C20.55 95.7417 23.2833 97.2222 26.3889 97.2222C27.9056 97.2222 29.325 96.8444 30.6028 96.225C32.6389 98.5222 35.5778 100 38.8889 100C43.6917 100 47.7444 96.9361 49.2972 92.6694C50.8139 93.775 52.6667 94.4444 54.6861 94.4444C55.7611 94.4444 56.775 94.225 57.7333 93.8889C60.1528 95.9389 63.2472 97.2222 66.6667 97.2222C70.275 97.2222 73.5333 95.8111 76 93.5556C78.95 95.3556 82.4028 96.4139 86.1111 96.4139C96.85 96.4139 105.556 87.7083 105.556 76.9694C105.556 66.2306 96.85 57.525 86.1111 57.525Z" fill="#7D90E1"/>
</svg>
