<svg width="100" height="82" viewBox="0 0 100 82" fill="none" xmlns="http://www.w3.org/2000/svg">
<path d="M21.1027 70.9258V79.3847C21.1027 79.9832 20.5979 80.459 19.9986 80.428C15.3956 80.1904 12.4554 78.3675 11.1786 74.9598C10.9883 74.4522 11.2274 73.883 11.7198 73.6538L19.6138 69.9798C20.3074 69.6572 21.1027 70.1623 21.1027 70.9258Z" fill="#B275CF"/>
<path d="M16.1112 60.8236L8.1368 63.706C7.57261 63.9099 6.95207 63.5987 6.7769 63.0263C5.43246 58.6296 6.14903 55.252 8.92641 52.8935C9.34023 52.542 9.95813 52.5723 10.3421 52.9557L16.4954 59.1052C17.0361 59.6458 16.8311 60.5635 16.1112 60.8236Z" fill="#B275CF"/>
<path d="M78.5977 70.9258V79.3847C78.5977 79.9832 79.1024 80.459 79.7018 80.428C84.3048 80.1904 87.2449 78.3675 88.5218 74.9598C88.712 74.4522 88.473 73.883 87.9806 73.6538L80.0865 69.9798C79.393 69.6572 78.5977 70.1623 78.5977 70.9258Z" fill="#B275CF"/>
<path d="M83.5867 60.8231L91.5612 63.7055C92.1254 63.9094 92.7459 63.5982 92.9211 63.0258C94.2655 58.6292 93.5489 55.2515 90.7716 52.893C90.3577 52.5415 89.7398 52.5718 89.3559 52.9553L83.2026 59.1048C82.6618 59.6453 82.8669 60.563 83.5867 60.8231Z" fill="#B275CF"/>
<path d="M49.9502 80.9962L49.5331 79.9265L44.6604 46.493L29.8081 18.2899H4.98653L0.103599 23.5653L0.12069 23.5795H0.00390625C0.0364591 24.2126 0.274502 24.8314 0.701759 25.3306L48.5525 81.3269C48.88 81.7124 49.4904 81.962 49.9502 82.0005L50.0601 81.2417L49.9502 80.9962Z" fill="#4053A4"/>
<path d="M99.9996 23.5654L95.727 17.8842H63.7845L49.7461 77.131L49.9495 82.0006C50.3178 81.9174 51.0808 81.6395 51.3473 81.327L99.2346 25.3307C99.6545 24.8401 99.8906 24.2338 99.9294 23.6121L99.9996 23.5654Z" fill="#C6D0FF"/>
<path d="M27.5664 23.5796H72.5382L49.9506 82.0006L27.5664 23.5796Z" fill="#6C80D7"/>
<path d="M99.6923 22.2585C99.8775 22.6826 99.9568 23.1351 99.9324 23.5794H72.5371L89.017 1.00883L89.6518 0.223602C90.0038 0.414328 90.2906 0.720707 90.4575 1.10216L99.6923 22.2585Z" fill="#ECEFFF"/>
<path d="M89.6518 0.223648L89.017 1.00887L72.5371 23.5795L56.7754 0.203358V0.000457764H88.7728C89.0862 0.000457764 89.3873 0.0795892 89.6518 0.223648Z" fill="#C6D0FF"/>
<path d="M56.7765 0.000457764V0.203358L72.5382 23.5795H27.5664L43.3281 0.203358V0.000457764H56.7765Z" fill="#8FA3F9"/>
<path d="M43.3271 0.203358L27.5654 23.5795L11.0855 1.00887L10.4609 0.140459C10.6786 0.0491543 10.9167 0.000457764 11.1629 0.000457764H43.3271V0.203358Z" fill="#6C80D7"/>
<path d="M11.086 1.00852L27.5659 23.5791H0.00375665C-0.0186235 23.1348 0.0586896 22.6823 0.243834 22.2582L9.47868 1.10185C9.674 0.657501 10.03 0.318658 10.4614 0.140106L11.086 1.00852Z" fill="#576BC1"/>
</svg>
