<svg width="94" height="100" viewBox="0 0 94 100" fill="none" xmlns="http://www.w3.org/2000/svg">
<path d="M0 86.2071H67.1666V100H0V86.2071Z" fill="#A6B4F1"/>
<path d="M60.2791 8.62069V86.2069H5.16797V8.62069C5.16797 6.33434 6.07521 4.14163 7.6901 2.52494C9.305 0.908249 11.4953 0 13.7791 0H51.6679C53.9518 0 56.142 0.908249 57.7569 2.52494C59.3718 4.14163 60.2791 6.33434 60.2791 8.62069Z" fill="#6C80D7"/>
<path d="M60.2791 21.8906V86.2074H5.16797V64.326C25.7571 57.4143 46.1353 44.3087 60.2791 21.8906Z" fill="#4053A4"/>
<path d="M92.9995 87.069V55.1724H86.1107V87.069C86.1107 88.6694 85.4756 90.2043 84.3452 91.336C83.2147 92.4677 81.6816 93.1034 80.0829 93.1034C78.4842 93.1034 76.951 92.4677 75.8206 91.336C74.6902 90.2043 74.0551 88.6694 74.0551 87.069V60.3448C74.0551 57.6012 72.9664 54.97 71.0286 53.0299C69.0907 51.0899 66.4624 50 63.7218 50H60.2773V56.8966H63.7218C64.6353 56.8966 65.5114 57.2598 66.1574 57.9065C66.8033 58.5532 67.1662 59.4303 67.1662 60.3448V87.069C67.1662 90.4985 68.5271 93.7876 70.9494 96.2126C73.3718 98.6376 76.6572 100 80.0829 100C83.5086 100 86.794 98.6376 89.2164 96.2126C91.6387 93.7876 92.9995 90.4985 92.9995 87.069Z" fill="#4053A4"/>
<path d="M86.1124 55.1728H93.0013V32.759C93.0013 32.3062 92.9122 31.8577 92.7391 31.4394C92.566 31.021 92.3123 30.6408 91.9925 30.3206L89.5568 27.8823V17.2417H78.9282L74.7703 13.0792C74.4504 12.7591 74.0707 12.5051 73.6528 12.3318C73.2349 12.1585 72.787 12.0693 72.3346 12.0693H67.168V18.9659H70.6124C70.6124 18.9659 70.6234 23.9025 70.6262 29.3107H81.2413L86.1124 34.1872V55.1728Z" fill="#6C80D7"/>
<path d="M86.1092 39.6554H77.4981V29.3105H70.623C70.6245 32.2847 70.623 38.8504 70.6172 41.3674C70.6154 42.0478 70.7478 42.7217 71.0067 43.3507C71.2656 43.9798 71.6459 44.5515 72.1258 45.0331C72.6058 45.5147 73.176 45.8968 73.8037 46.1574C74.4314 46.418 75.1043 46.5521 75.7839 46.5519H86.1092V39.6554Z" fill="#A6B4F1"/>
<path d="M60.2773 12.0693H67.1662V18.9659H60.2773V12.0693Z" fill="#A6B4F1"/>
<path d="M13.7773 10.3447H51.6662V37.9309H13.7773V10.3447Z" fill="#B275CF"/>
<path d="M20.668 22.4142H24.1124V25.8625H20.668V22.4142Z" fill="#8440A4"/>
<path d="M27.5547 22.4141H30.9991V25.8623H27.5547V22.4141Z" fill="#8440A4"/>
<path d="M34.4453 22.4141H37.8898V25.8623H34.4453V22.4141Z" fill="#8440A4"/>
<path d="M41.332 22.4141H44.7765V25.8623H41.332V22.4141Z" fill="#8440A4"/>
<path d="M32.7207 75.8621C31.4296 75.8619 30.1593 75.5357 29.0274 74.9138C27.8955 74.2919 26.9385 73.3943 26.2449 72.304C25.5513 71.2137 25.1436 69.966 25.0593 68.6761C24.9751 67.3863 25.2171 66.096 25.7629 64.9246L32.7207 50L38.432 62.2478L39.6785 64.9246C40.2244 66.096 40.4665 67.3863 40.3823 68.6762C40.298 69.966 39.8903 71.2138 39.1967 72.3041C38.5031 73.3944 37.5461 74.292 36.4142 74.9139C35.2822 75.5358 34.0119 75.8619 32.7207 75.8621Z" fill="#B275CF"/>
<path d="M13.7773 10.3447H51.6662V13.793H13.7773V10.3447Z" fill="#61287B"/>
<path d="M58.5547 86.207H67.1658V100H58.5547V86.207Z" fill="#8C9EEE"/>
<path d="M70.6094 29.3105H77.4983V32.7588H70.6094V29.3105Z" fill="#8C9EEE"/>
<path d="M60.2773 50H63.7218V56.8966H60.2773V50Z" fill="#283984"/>
<path d="M32.7242 75.8613C31.5421 75.8674 30.3748 75.5973 29.3153 75.0724C28.2558 74.5474 27.3332 73.7822 26.6211 72.8376C31.0775 69.9336 35.0621 66.3618 38.4355 62.2471L39.682 64.9238C40.2279 66.0952 40.47 67.3855 40.3857 68.6754C40.3015 69.9653 39.8938 71.2131 39.2002 72.3034C38.5066 73.3937 37.5496 74.2913 36.4177 74.9132C35.2857 75.5351 34.0154 75.8612 32.7242 75.8613Z" fill="#8440A4"/>
</svg>
