<svg width="95" height="100" viewBox="0 0 95 100" fill="none" xmlns="http://www.w3.org/2000/svg">
<path d="M90.25 38.0938H4.75C2.12733 38.0945 0.000665374 35.9636 3.73578e-07 33.3343C3.73578e-07 33.3334 3.73578e-07 33.3326 3.73578e-07 33.3318V19.0457C-0.000807126 16.9965 1.30753 15.177 3.24715 14.5302L45.9971 0.244149C46.9728 -0.0813828 48.0274 -0.0813828 49.003 0.244149L91.753 14.5302C93.6926 15.1771 95.0009 16.9965 95 19.0457V33.3318C95.0007 35.9611 92.8751 38.0931 90.2525 38.0938C90.2517 38.0938 90.2508 38.0938 90.25 38.0938ZM90.25 100H4.75C2.12733 100.001 0.000665374 97.8698 3.73578e-07 95.2405C3.73578e-07 95.2397 3.73578e-07 95.2388 3.73578e-07 95.238V85.714C0.00859787 77.8275 6.38348 71.4365 14.25 71.4279H80.75C88.6165 71.4365 94.9914 77.8275 95 85.714V95.238C95.0007 97.8673 92.8751 99.9993 90.2525 100C90.2517 100 90.2508 100 90.25 100Z" fill="#B2B1FF"/>
<path d="M11.1602 38.0928V71.7882C12.1575 71.5655 13.1858 71.428 14.2495 71.4269H80.7495C81.3183 71.4275 81.8587 71.5309 82.4102 71.5963V38.0928H11.1602Z" fill="#D8D8FF"/>
<path d="M30.1602 71.4269V38.0928H11.1602V71.7882C12.1575 71.5655 13.1858 71.428 14.2495 71.4269H30.1602Z" fill="#6563FF"/>
<path d="M63.4102 38.0928V71.4269H80.7495C81.3183 71.4275 81.8587 71.5309 82.4102 71.5963V38.0928H63.4102Z" fill="#6563FF"/>
<path d="M48.1318 32.2772C55.3844 32.2772 61.2637 26.3948 61.2637 19.1386C61.2637 11.8824 55.3844 6 48.1318 6C40.8793 6 35 11.8824 35 19.1386C35 26.3948 40.8793 32.2772 48.1318 32.2772Z" fill="#A85CCC"/>
<path d="M48.1313 28.7324C53.4268 28.7324 57.7196 24.4374 57.7196 19.1392C57.7196 13.8409 53.4268 9.5459 48.1313 9.5459C42.8358 9.5459 38.543 13.8409 38.543 19.1392C38.543 24.4374 42.8358 28.7324 48.1313 28.7324Z" fill="#8440A4"/>
<path d="M47.5045 25.3948V24.352C46.2538 24.1435 45.0031 23.5178 43.9609 22.6836L45.42 21.0153C46.2538 21.6409 46.8791 22.058 47.5045 22.2665V19.9725C46.4622 19.764 45.6285 19.3469 45.2116 18.9298C44.7947 18.5127 44.3778 17.887 44.3778 16.8443C44.3778 16.0101 44.5863 15.1759 45.2116 14.7588C45.8369 14.1331 46.4622 13.9246 47.5045 13.716V12.8818H49.172V13.716C50.2142 13.9246 51.2564 14.3417 52.2986 14.9673L51.048 16.8443C50.4226 16.4272 49.7973 16.0101 49.172 16.0101V18.3041C50.2142 18.5127 51.048 18.9298 51.6733 19.3469C52.2986 19.764 52.5071 20.5982 52.5071 21.4324C52.5071 22.2665 52.2986 23.1007 51.6733 23.5178C51.048 24.1435 50.2142 24.352 49.3804 24.5606V25.6033H47.5045V25.3948ZM47.5045 15.593C47.0876 15.8015 46.8791 16.0101 46.8791 16.4272C46.8791 16.8443 47.0876 17.0528 47.5045 17.2614V15.593ZM49.7973 21.2238C49.7973 21.0153 49.7973 20.8067 49.5889 20.5982C49.3804 20.3896 49.172 20.3896 48.9635 20.1811V22.058C49.5889 22.058 49.7973 21.6409 49.7973 21.2238Z" fill="#A85CCC"/>
</svg>
