<svg width="142" height="176" viewBox="0 0 142 176" fill="none" xmlns="http://www.w3.org/2000/svg">
<path d="M79.549 15.9595L80.89 14.0204L74.0563 10.1385C73.9272 10.0634 73.8 9.99001 73.6692 9.91838C67.6568 6.62876 58.8964 7.43412 49.142 13.077C31.0073 23.559 16.3164 46.7943 16.3164 64.951C16.3164 72.575 18.9058 78.0956 23.2512 81.1598C23.8993 81.6159 24.584 82.0173 25.2983 82.36L31.227 85.8383L32.5383 83.9428C37.4067 83.99 43.0773 82.3513 49.1315 78.8503C67.2662 68.3682 81.9571 45.1329 81.9571 26.9745C81.9623 22.5772 81.1044 18.8858 79.549 15.9595Z" fill="#FF9D4D"/>
<path d="M65.5287 8.49737C68.493 8.49737 71.1452 9.12629 73.4155 10.3684L73.4434 10.3842C73.5602 10.4488 73.6771 10.5152 73.7921 10.5868L80.1253 14.1926L79.1122 15.6584L78.9379 15.9222L79.0896 16.2052C80.6502 19.1402 81.4419 22.76 81.4419 26.9633C81.4419 44.9296 66.8347 67.9971 48.8796 78.3831C43.1985 81.6675 37.6221 83.404 32.7537 83.404H32.5531H32.2741L32.1154 83.6346L31.0814 85.1283L25.566 81.8964L25.5486 81.8859L25.5294 81.8771C24.8413 81.5457 24.1812 81.1589 23.5555 80.7206L23.5276 80.7014C19.8815 78.1158 17.6286 73.7972 17.0166 68.2085C16.9921 68.0006 16.9712 67.7892 16.9538 67.5761C16.8805 66.7323 16.8422 65.8465 16.8422 64.9416C16.8467 63.3359 16.9556 61.7323 17.1682 60.1408C17.1909 59.9556 17.2171 59.7722 17.245 59.587C17.5819 57.3128 18.083 55.066 18.7446 52.8645C18.7934 52.6898 18.8457 52.5151 18.898 52.3526C19.5572 50.2234 20.3337 48.1326 21.2241 46.0896L21.4351 45.6109C22.307 43.6368 23.3096 41.6522 24.3994 39.7113C24.4831 39.561 24.5739 39.4108 24.6558 39.2588C25.7369 37.3667 26.9227 35.4905 28.1834 33.6788C28.281 33.5356 28.3821 33.3923 28.485 33.2473C29.7614 31.4357 31.1285 29.6624 32.5514 27.9783C32.6647 27.842 32.778 27.7075 32.9001 27.5748C34.377 25.8487 35.9342 24.1856 37.5314 22.636C37.6605 22.5102 37.7895 22.3844 37.9238 22.2568C39.6042 20.6471 41.3678 19.1269 43.2073 17.7024C43.3555 17.5871 43.5054 17.4735 43.6572 17.353C45.4945 15.9545 47.4163 14.6709 49.4114 13.5096L49.7933 13.2912L50.3164 12.9959C52.6771 11.6838 55.1619 10.6094 57.7342 9.78842L57.8092 9.7657C58.0725 9.68359 58.2887 9.61895 58.4945 9.5613C60.7778 8.88416 63.144 8.52845 65.5252 8.50437L65.5287 8.49737ZM65.5287 7.97327C63.0985 7.99725 60.6835 8.36004 58.3533 9.05118C58.1213 9.11757 57.8912 9.18569 57.6558 9.25907C55.019 10.0953 52.4736 11.1969 50.0584 12.547L49.5248 12.8474C49.3957 12.9191 49.2667 12.9942 49.1394 13.0676C47.126 14.2367 45.1868 15.5297 43.3328 16.9389C43.1811 17.0525 43.0294 17.1696 42.8795 17.2884C41.0247 18.7242 39.2466 20.2567 37.5524 21.8795L37.1583 22.2603C35.5308 23.8361 33.976 25.4941 32.4938 27.2341C32.3788 27.3686 32.2619 27.5049 32.1451 27.6429C30.703 29.3497 29.3342 31.1247 28.0508 32.9486C27.9497 33.0918 27.8468 33.2368 27.7474 33.3818C26.4745 35.2127 25.287 37.0907 24.1972 39.0002C24.1083 39.1504 24.0228 39.3042 23.9356 39.4562C22.8336 41.4146 21.8432 43.4027 20.9487 45.396C20.8754 45.5591 20.8039 45.7215 20.7342 45.8834C19.8358 47.9429 19.0523 50.0507 18.3871 52.1971C18.3348 52.3718 18.2825 52.5465 18.2319 52.7212C17.5639 54.947 17.0575 57.2182 16.7166 59.5171C16.6887 59.7058 16.6626 59.8927 16.6399 60.0814C16.4233 61.6942 16.3127 63.3195 16.3086 64.9468C16.3086 65.8786 16.3469 66.7719 16.4237 67.6268C16.4411 67.8451 16.462 68.06 16.4865 68.2732C17.1351 74.1903 19.5572 78.5561 23.2434 81.1556C23.8913 81.6125 24.576 82.0146 25.2905 82.3576L31.2192 85.8359L32.5304 83.9404H32.7467C37.5681 83.9404 43.1654 82.2999 49.1377 78.8478C67.2724 68.3658 81.9615 45.1305 81.9615 26.972C81.9615 22.5853 81.1036 18.8938 79.5482 15.9658L80.8891 14.0267L74.0572 10.1378C73.9293 10.0621 73.8003 9.98874 73.6701 9.91769C71.337 8.64237 68.5906 7.98201 65.5321 7.98201L65.5287 7.97327Z" fill="#FFE840"/>
<path d="M75.5464 64.6783C90.0395 45.3833 92.9531 23.0865 82.0542 14.8769C71.1553 6.6674 50.571 15.6539 36.078 34.9489C21.5849 54.2439 18.6713 76.5408 29.5702 84.7503C40.4691 92.9599 61.0534 83.9733 75.5464 64.6783Z" fill="#FFD071"/>
<path d="M75.5464 64.6783C90.0395 45.3833 92.9531 23.0865 82.0542 14.8769C71.1553 6.6674 50.571 15.6539 36.078 34.9489C21.5849 54.2439 18.6713 76.5408 29.5702 84.7503C40.4691 92.9599 61.0534 83.9733 75.5464 64.6783Z" fill="#FFE840"/>
<path d="M56.636 78.5342C48.9759 82.9664 41.7743 84.1421 36.3565 81.8535C30.9388 79.5649 27.957 74.0706 27.957 66.3959C27.957 58.7213 30.9405 49.7784 36.3565 41.218C41.7725 32.6576 48.9759 25.4949 56.636 21.0714C64.2962 16.648 71.4995 15.4635 76.9155 17.7521C82.3315 20.0407 85.3168 25.5351 85.3168 33.2114C85.3168 40.8878 82.3333 49.8273 76.9155 58.3876C71.4978 66.948 64.2962 74.1038 56.636 78.5342ZM56.636 22.6473C41.6923 31.2915 29.5351 50.5051 29.5351 65.477C29.5351 80.4489 41.6923 85.5973 56.636 76.9531C71.5797 68.3089 83.737 49.0953 83.737 34.1234C83.737 19.1515 71.5797 14.003 56.636 22.6473Z" fill="#FF9D4D"/>
<path d="M60.6471 44.9424V49.3222C60.5565 49.3658 60.464 49.4165 60.3681 49.4706L57.9688 50.8578V46.7663L59.3184 45.9853C59.8074 45.701 60.2546 45.35 60.6471 44.9424Z" fill="#D1975D"/>
<path d="M59.0651 17.7553L58.8018 18.213L49.5234 12.8444L50.057 12.5439L59.0651 17.7553Z" fill="#FFE840"/>
<path d="M50.8669 21.2921L50.6036 21.748L42.8789 17.2817C43.0289 17.1664 43.1805 17.0494 43.3322 16.9324L50.8669 21.2921Z" fill="#FFE840"/>
<path d="M45.1564 26.271L44.8931 26.7286L37.1562 22.2536L37.5503 21.8728L45.1564 26.271Z" fill="#FFE840"/>
<path d="M39.4494 31.2499L39.1861 31.7058L32.1484 27.636C32.2618 27.498 32.3786 27.3618 32.4972 27.2273L39.4494 31.2499Z" fill="#FFE840"/>
<path d="M36.2332 37.6672L35.9699 38.1231L27.75 33.3738C27.8494 33.2289 27.9523 33.0839 28.0534 32.9407L36.2332 37.6672Z" fill="#FFE840"/>
<path d="M34.1505 44.792L33.8872 45.2479L23.9375 39.4496C24.0229 39.2976 24.1119 39.1439 24.1991 38.9937L34.1505 44.792Z" fill="#FFE840"/>
<path d="M30.1039 50.6867L29.8405 51.1445L20.7383 45.8807C20.808 45.7188 20.8796 45.5564 20.9528 45.3933L30.1039 50.6867Z" fill="#FFE840"/>
<path d="M28.5607 58.0782L28.2974 58.5341L18.2344 52.7131C18.2849 52.5384 18.3372 52.3637 18.3895 52.189L28.5607 58.0782Z" fill="#FFE840"/>
<path d="M25.963 64.8545L25.6997 65.3105L16.6445 60.0694C16.6672 59.8808 16.6934 59.6938 16.7213 59.5051L25.963 64.8545Z" fill="#FFE840"/>
<path d="M26.3502 73.3593L26.0869 73.8153L16.4964 68.265C16.472 68.0519 16.451 67.837 16.4336 67.6187L26.3502 73.3593Z" fill="#FFE840"/>
<path d="M62.6055 65.8258L55.0982 70.1684L55.134 48.382L55.3727 44.5933L55.3055 44.6322L53.7883 48.4442L52.6514 50.5909L48.5859 47.4886L56.3708 32.9395L62.6055 29.333L62.6055 65.8258Z" fill="#FF9D4D"/>
<path d="M66.9503 14.0236L66.687 14.4796L57.6562 9.25598C57.8899 9.18261 58.1201 9.11448 58.3537 9.0481L66.9503 14.0236Z" fill="#FFE840"/>
<path d="M110.65 172.55C127.413 172.55 141.003 164.689 141.003 154.992C141.003 145.295 127.413 137.435 110.65 137.435C93.8864 137.435 80.2969 145.295 80.2969 154.992C80.2969 164.689 93.8864 172.55 110.65 172.55Z" fill="#9879C2" fill-opacity="0.5"/>
<path d="M60.9942 54.1246L58.4344 51.9391C58.228 51.7629 58.0595 51.5466 57.9392 51.3031L57.8014 51.0236C57.7007 50.8188 57.6592 50.5898 57.6817 50.3625C57.7042 50.1353 57.7898 49.9189 57.9287 49.7378L58.7622 48.6582C58.7843 48.63 58.8131 48.6078 58.8459 48.5935L60.2496 47.9803C60.3015 47.9577 60.3423 47.9154 60.3632 47.8627C60.3841 47.81 60.3834 47.7512 60.3612 47.6991L58.5809 43.4853C58.5602 43.4356 58.5588 43.3799 58.5768 43.3292C58.5949 43.2785 58.6311 43.2364 58.6785 43.211C58.8059 43.1434 58.9544 43.1276 59.0932 43.167C59.2319 43.2064 59.35 43.2979 59.4231 43.4224L61.6167 47.1365C61.625 47.1505 61.635 47.1634 61.6463 47.175L62.9454 48.5446C62.9756 48.5759 63.0146 48.5973 63.0571 48.606C63.0997 48.6148 63.1439 48.6105 63.184 48.5937C63.2241 48.5769 63.2582 48.5484 63.2819 48.5119C63.3056 48.4754 63.3178 48.4326 63.3168 48.3891L63.254 46.4674C63.2473 46.2596 63.3089 46.0552 63.4292 45.8858C63.5495 45.7163 63.722 45.5911 63.9201 45.5293L63.9585 45.517C63.9911 45.5068 64.0257 45.5045 64.0594 45.5102C64.093 45.516 64.1249 45.5296 64.1522 45.5501C64.1796 45.5705 64.2018 45.5972 64.2169 45.6279C64.232 45.6586 64.2397 45.6924 64.2393 45.7267L64.2166 46.9164C64.2113 47.2658 64.262 47.6138 64.3666 47.9471L64.7257 49.0757C64.782 49.2539 64.8014 49.4416 64.7829 49.6276C64.7643 49.8135 64.7081 49.9937 64.6176 50.1571L64.037 51.2053C64.0093 51.2541 64.0018 51.3118 64.0161 51.366L64.3386 52.5889C64.3522 52.6386 64.3475 52.6915 64.3254 52.738C64.3033 52.7845 64.2653 52.8215 64.2183 52.8423L61.2209 54.163C61.1833 54.1788 61.1421 54.1836 61.1019 54.1768C61.0618 54.17 61.0244 54.1519 60.9942 54.1246Z" fill="#FFD0A6"/>
<path d="M111.782 64.6013L114.289 80.5935C114.476 81.7774 114.185 82.9869 113.482 83.9565L107.236 92.578L104.289 86.4425L108.872 78.836L104.289 64.6013H111.782Z" fill="url(#paint0_linear)"/>
<path d="M101.819 152.435C101.819 152.381 101.819 152.327 101.819 152.271L100.155 146.401H94.9242L94.9992 147.091L95.2433 149.244C94.5359 149.02 93.7872 148.959 93.0531 149.066C92.319 149.173 91.6186 149.445 91.0043 149.862L90.4812 150.276C90.2879 150.426 90.1458 150.633 90.0746 150.868C90.0034 151.103 90.0066 151.353 90.0836 151.586C90.1449 151.775 90.252 151.946 90.3953 152.083C90.5387 152.22 90.7138 152.32 90.9049 152.372L98.0542 154.883C99.7979 155.671 101.805 154.418 101.815 152.526V152.505C101.815 152.505 101.821 152.475 101.819 152.435Z" fill="#281A10"/>
<path d="M110.148 144.181V144.202C110.137 146.099 108.137 147.346 106.386 146.558L99.4116 144.113C99.3347 143.88 99.3316 143.629 99.4028 143.395C99.474 143.161 99.616 142.954 99.8092 142.804L100.332 142.39C100.978 141.952 101.719 141.673 102.494 141.578C103.269 141.483 104.055 141.574 104.787 141.844L110.085 143.802C110.099 143.847 110.111 143.893 110.12 143.94C110.136 144.019 110.145 144.1 110.148 144.181Z" fill="#281A10"/>
<path d="M111.149 144.966C111.152 144.908 111.152 144.849 111.149 144.791L109.483 138.921H104.252L104.327 139.62L104.571 141.771C103.864 141.547 103.115 141.487 102.381 141.594C101.647 141.701 100.946 141.974 100.332 142.391L99.8092 142.805C99.616 142.955 99.474 143.161 99.4028 143.396C99.3316 143.63 99.3347 143.881 99.4116 144.113C99.4726 144.302 99.5796 144.474 99.723 144.611C99.8663 144.749 100.042 144.848 100.233 144.901L107.382 147.412C109.126 148.2 111.133 146.947 111.143 145.055V145.034C111.143 145.034 111.152 145.008 111.149 144.966Z" fill="#281A10"/>
<path d="M111.151 140.526V140.561L103.909 140.433L99.7347 121.281L98.4688 98.0263L110.256 96.6042L110.237 96.8453L108.169 120.442C109.933 126.312 110.916 132.389 111.093 138.517L111.151 140.526Z" fill="url(#paint1_linear)"/>
<path d="M111.153 140.526L105.901 140.434L101.726 121.281L99.0078 98.2014L110.237 96.8457L108.169 120.443C109.933 126.312 110.917 132.39 111.094 138.517L111.153 140.526Z" fill="url(#paint2_linear)"/>
<path d="M101.824 147.604V147.655L93.6981 147.511L89.0127 126.023L87.5898 99.935L100.818 98.3435L100.786 98.6824L98.4846 125.08C100.46 131.666 101.559 138.484 101.756 145.357L101.824 147.604Z" fill="url(#paint3_linear)"/>
<path d="M101.824 147.604L96.4602 147.511L91.7749 126.023L90.3555 99.935L100.786 98.6824L98.4847 125.08C100.46 131.666 101.56 138.483 101.756 145.357L101.824 147.604Z" fill="url(#paint4_linear)"/>
<path d="M94.8512 63.1199C89.8746 63.9742 86.1936 68.8851 86.1029 73.9514C85.9512 82.5275 84.9555 95.6545 86.1517 103.893C86.231 104.457 86.5012 104.977 86.917 105.365C87.3327 105.753 87.869 105.987 88.436 106.027L92.6209 106.315C98.7885 106.738 102.26 103.17 108.072 101.051C109.185 100.648 110.137 99.8917 110.783 98.8977C111.428 97.9037 111.733 96.7258 111.65 95.5427L109.294 80.8381L111.781 64.6014C111.792 63.6824 111.591 62.7733 111.195 61.9446C110.798 61.1158 110.217 60.3897 109.495 59.8226C108.773 59.2554 107.931 58.8624 107.033 58.6741C106.135 58.4858 105.206 58.5072 104.318 58.7367L94.8512 63.1199Z" fill="url(#paint5_linear)"/>
<path d="M103.755 59.1648L102.583 56.3066L104.277 51.4255C105.022 50.1479 105.366 48.6751 105.265 47.1988C105.163 45.7224 104.62 44.3109 103.706 43.1481C102.853 42.0615 101.713 41.2353 100.416 40.7624C99.1194 40.2896 97.7164 40.1889 96.3654 40.4717L93.0523 41.1705C92.7228 41.2398 92.4105 41.3745 92.1338 41.5666C91.8571 41.7587 91.6216 42.0044 91.4412 42.2892C91.2608 42.574 91.1391 42.8921 91.0834 43.2248C91.0277 43.5574 91.039 43.8979 91.1167 44.226L91.1255 44.2627C91.267 44.8546 91.299 45.4675 91.2196 46.0709L90.8447 48.8818C90.534 49.8631 90.4788 50.9077 90.6843 51.9164L90.9232 53.0939C91.2214 54.0162 91.872 54.7827 92.7326 55.2259C93.5932 55.6691 94.594 55.7531 95.5161 55.4593L96.1212 62.7566L103.755 59.1648Z" fill="#FFD0A6"/>
<path d="M91.2424 45.7127L93.5494 47.6729C93.7777 48.6761 93.8226 49.7126 93.6819 50.7319C93.4395 52.3514 96.5678 54.481 96.5678 54.481L98.3673 56.787C98.557 57.0268 98.8028 57.2161 99.0829 57.338C99.3631 57.4599 99.6689 57.5107 99.9733 57.4858L102.08 57.3111C102.644 57.2675 103.185 57.0649 103.64 56.7268C104.095 56.3886 104.445 55.9287 104.65 55.3999C105.03 54.4198 105.433 53.286 105.506 52.706C105.579 52.126 106.104 50.9101 106.592 49.8881C107.236 48.5539 107.403 47.0384 107.065 45.5957C106.857 44.7344 106.554 43.8487 106.118 43.2424C105.016 41.7348 104.788 40.1485 101.888 39.4672C98.9881 38.7858 94.362 38.5727 93.1815 39.247C92.001 39.9214 92.1719 40.3459 91.089 42.0423C90.0062 43.7386 91.2424 45.7127 91.2424 45.7127Z" fill="#89603E"/>
<path d="M104.291 59.0456L103.128 57.6343L95.9319 60.5635L95.7383 62.9547L104.291 59.0456Z" fill="#7B5BAA"/>
<path d="M93.8066 52.2238L94.5215 51.1758C94.8075 50.76 95.4997 50.6657 95.9391 50.9836C96.0603 51.0605 96.1528 51.1752 96.2023 51.31C96.2518 51.4449 96.2555 51.5923 96.2129 51.7294L95.2643 54.5137L93.1719 53.6176L93.8066 52.2238Z" fill="#FFD0A6"/>
<path d="M88.6584 75.8541L70.8933 72.9785L70.2429 72.8737C69.7592 72.7956 69.3045 72.5912 68.9246 72.2812C68.5448 71.9711 68.2531 71.5663 68.0789 71.1074L60.9297 54.0496L64.2864 52.4214L72.3267 65.8472L89.1989 65.3231C90.5995 65.245 91.9737 65.7276 93.0191 66.6646C94.0646 67.6016 94.6957 68.9163 94.7736 70.3195C94.8515 71.7227 94.3699 73.0995 93.4347 74.1469C92.4994 75.1944 91.1872 75.8266 89.7866 75.9047C89.4098 75.9261 89.0318 75.9091 88.6584 75.8541Z" fill="url(#paint6_linear)"/>
<path d="M29.591 176C45.733 176 58.8187 168.43 58.8187 159.093C58.8187 149.755 45.733 142.186 29.591 142.186C13.449 142.186 0.363281 149.755 0.363281 159.093C0.363281 168.43 13.449 176 29.591 176Z" fill="#9879C2" fill-opacity="0.5"/>
<path d="M18.937 147.247L17.2964 150.062L17.0687 153.135L19.9352 158.154C20.0462 158.319 20.0999 158.516 20.088 158.715C20.0761 158.913 19.9993 159.103 19.8694 159.253C17.9911 161.09 16.3285 161.262 14.1365 159.688L9.63281 153.143L10.0493 150.868L11.7557 148.619L16.5022 145.588L18.937 147.247Z" fill="#1A142D"/>
<path d="M32.1964 145.262L31.5961 147.903L36.0526 152.126C36.148 152.216 36.2199 152.329 36.262 152.453C36.3041 152.578 36.3152 152.711 36.2942 152.84C36.2733 152.97 36.2209 153.093 36.1418 153.198C36.0627 153.303 35.9591 153.386 35.8402 153.442C33.1811 154.684 30.2017 153.901 27.6472 152.457L24.1501 150.53C23.9684 150.427 23.8088 150.289 23.6806 150.124C23.5524 149.959 23.4581 149.77 23.4032 149.568C23.3483 149.367 23.3339 149.156 23.3608 148.949C23.3877 148.741 23.4554 148.541 23.56 148.36L25.5125 145.262H32.1964Z" fill="#1A142D"/>
<path d="M33.5837 65.1577L38.885 81.882L39.0013 82.2469C39.1891 82.8408 39.5748 83.3519 40.0939 83.6947L55.9033 94.1347C56.3436 94.4333 56.8817 94.5505 57.406 94.4621C57.9303 94.3737 58.4005 94.0865 58.7191 93.66C59.0124 93.2524 59.144 92.7501 59.0886 92.2507C59.0331 91.7512 58.7945 91.2903 58.419 90.9571L45.4272 80.1319L41.6857 63.0865C41.1798 60.789 38.8799 59.267 36.5968 59.816C35.5304 60.073 34.6071 60.7387 34.0252 61.6701C33.4432 62.6016 33.249 63.7245 33.4842 64.7978C33.5112 64.9127 33.5466 65.0394 33.5837 65.1577Z" fill="url(#paint7_linear)"/>
<path d="M24.9023 145.341L27.1904 145.3L33.0515 145.197L37.7525 123.64L39.1722 97.4651L28.2123 96.1457L25.8938 95.8687L28.2544 122.704C27.2667 126.006 26.4956 129.369 25.9461 132.772C25.3924 136.173 25.0657 139.607 24.9681 143.052L24.9023 145.341Z" fill="url(#paint8_linear)"/>
<path d="M27.1914 145.299L33.0525 145.196L37.7534 123.639L39.1732 97.4644L28.2132 96.145L30.5502 122.703C29.5619 126.005 28.7903 129.368 28.2402 132.771C27.6865 136.172 27.3598 139.606 27.2622 143.051L27.1914 145.299Z" fill="url(#paint9_linear)"/>
<path d="M10.5312 149.171L18.6551 149.864L18.7377 149.612L25.5144 128.896L29.5898 102.999L19.5774 100.742L16.5424 100.066L16.1596 126.994C13.5204 133.367 11.7267 140.06 10.8246 146.901L10.5312 149.171Z" fill="url(#paint10_linear)"/>
<path d="M13.5664 149.171L18.7378 149.612L25.5145 128.896L29.5899 102.999L19.5775 100.742L19.2032 126.987C16.5599 133.359 14.7661 140.053 13.8682 146.894L13.5664 149.171Z" fill="url(#paint11_linear)"/>
<path d="M36.2639 111.345L38.4272 110.91L39.992 107.964L36.1374 107.43L34.8644 107.871L33.0703 110.009L36.2639 111.345Z" fill="#FFD0A6"/>
<path d="M34.383 58.603L33.7085 58.7145L29.7208 57.1772L20.5195 64.9769C20.0558 65.0816 14.0329 69.2255 12.2135 73.486C11.9281 74.167 11.8444 74.9159 11.9724 75.6433C12.4479 78.4763 13.9115 87.1679 14.9771 93.4658L14.7815 104.953C14.8692 105.474 15.061 105.971 15.3454 106.415C15.6297 106.859 16.0008 107.241 16.4363 107.538C16.8717 107.835 17.3626 108.041 17.8794 108.143C18.3963 108.245 18.9283 108.242 19.4437 108.133L36.9325 104.458C37.8558 104.264 38.6777 103.741 39.2467 102.987C39.8156 102.233 40.0932 101.298 40.0282 100.355L38.9491 84.7741C38.7805 82.2402 39.0149 80.7924 39.3808 79.2112C40.0131 76.4829 41.6621 75.0977 41.4682 72.3035L41.6368 70.9892C41.5491 69.7476 42.2337 67.4061 42.2556 66.1611C42.2597 65.5028 42.2066 64.8455 42.0971 64.1964C41.9594 63.3207 41.6502 62.4808 41.1874 61.7252C40.7247 60.9695 40.1174 60.313 39.4006 59.7932C38.6837 59.2734 37.8714 58.9007 37.0103 58.6964C36.1492 58.4922 35.2564 58.4605 34.383 58.603Z" fill="url(#paint12_linear)"/>
<path d="M34.9248 49.99L34.7562 55.2067L33.5657 60.7223C33.4902 61.0703 33.3029 61.3838 33.0324 61.6148C32.762 61.8458 32.4233 61.9816 32.0684 62.0012L30.1412 62.1059C30.2423 62.3148 30.301 62.5418 30.3138 62.7736C30.3266 63.0054 30.2933 63.2375 30.2157 63.4563C30.1382 63.6751 30.0181 63.8763 29.8623 64.0482C29.7065 64.22 29.5182 64.3592 29.3082 64.4575L29.2054 64.5064C28.9799 64.6109 28.7349 64.6665 28.4865 64.6697C28.2381 64.6729 27.9918 64.6236 27.7637 64.525L27.3388 64.3392L23.1538 62.5266L23.3106 60.5281L22.3748 58.1782L20.4728 50.4293C20.2739 49.6224 20.3378 48.773 20.6549 48.0051C20.8506 47.5226 21.1091 47.0681 21.4238 46.6536C21.9232 45.9964 22.5527 45.4497 23.2728 45.0477C23.993 44.6456 24.7882 44.397 25.6088 44.3173L28.1954 44.0689C28.3824 44.0509 28.5711 44.0681 28.7518 44.1196L31.2068 44.8393C32.3097 45.1618 33.2739 45.8433 33.9472 46.776C34.6205 47.7088 34.9644 48.8396 34.9248 49.99Z" fill="#FFD0A6"/>
<path d="M34.8869 51.174C34.8869 51.174 34.5952 50.0624 34.0337 50.0201C33.4722 49.9779 31.9598 50.7128 29.9279 50.4087C27.8961 50.1046 27.2014 50.6688 26.7715 51.6656C26.3415 52.6623 25.8053 56.2436 24.7262 56.9363C23.647 57.6289 22.261 57.6728 21.7214 56.9363C21.1819 56.1997 18.7032 50.4526 20.0859 48.1146C21.4685 45.7765 22.1329 43.4233 25.2 43.1632C28.2671 42.903 33.7235 44.6683 34.5362 45.3728C35.2882 46.0232 36.0723 49.9627 35.671 50.7787C35.2697 51.5946 34.8869 51.174 34.8869 51.174Z" fill="#89603E"/>
<path d="M24.5814 63.1284C25.0224 63.4127 25.4907 63.6521 25.9792 63.8429C26.476 64.0545 27.0129 64.1552 27.5524 64.138C28.092 64.1207 28.6213 63.986 29.1037 63.7432C29.4012 63.5954 29.6453 63.3583 29.8019 63.0649C29.9585 62.7715 30.0197 62.4365 29.9771 62.1066L31.1186 62.0441L31.2282 62.5508C31.3359 63.0542 31.3102 63.577 31.1538 64.0674C30.9973 64.5578 30.7154 64.9986 30.3362 65.3461C30.1112 65.5543 29.8444 65.7119 29.5536 65.8084C29.2627 65.9048 28.9547 65.9378 28.6501 65.9052C27.6283 65.792 26.1698 65.5032 25.2677 65.3123C24.5358 65.1681 23.8584 64.8225 23.3118 64.3141C23.0302 64.0456 22.816 63.7466 22.8565 63.4831L23.0689 61.5171L24.5814 63.1284Z" fill="#7B5BAA"/>
<path d="M12.2772 78.7993L16.1857 95.9037L16.2717 96.2788C16.4094 96.8856 16.7518 97.4262 17.2412 97.8093L32.1923 109.564C32.5947 109.879 33.1014 110.03 33.6104 109.987C34.1194 109.943 34.5932 109.708 34.9367 109.329C35.2801 108.951 35.4677 108.455 35.4619 107.944C35.4561 107.432 35.2573 106.941 34.9053 106.57L21.8039 92.7869L22.8578 94.6925L20.5191 77.3025C20.4532 76.7501 20.2784 76.2163 20.0047 75.7322C19.731 75.2481 19.364 74.8234 18.925 74.4827C18.4859 74.142 17.9837 73.8922 17.4474 73.7478C16.9112 73.6034 16.3516 73.5673 15.8012 73.6415C15.2509 73.7158 14.7208 73.899 14.2418 74.1804C13.7628 74.4618 13.3444 74.8358 13.0109 75.2807C12.6775 75.7256 12.4357 76.2325 12.2996 76.7719C12.1635 77.3112 12.1358 77.8723 12.2182 78.4225C12.2266 78.5476 12.2502 78.6776 12.2772 78.7993Z" fill="url(#paint13_linear)"/>
<path d="M34.9422 107.449L36.3417 108.474V109.348C36.2054 109.353 36.0711 109.313 35.9607 109.233L25.0985 101.249C24.8613 101.073 24.6741 100.839 24.5558 100.568C24.4374 100.297 24.392 100 24.424 99.7066L24.532 98.7318L24.795 98.8096C24.9648 98.599 25.1829 98.4326 25.4307 98.3247L36.4749 93.478L34.9422 107.449Z" fill="url(#paint14_linear)"/>
<path d="M63.3435 96.6499L63.3014 97.0452C63.2817 97.2168 63.2175 97.3803 63.1152 97.5193C63.0128 97.6583 62.8759 97.768 62.718 97.8375L36.5472 109.298C36.4816 109.327 36.4113 109.343 36.3398 109.347V108.474L63.3435 96.6499Z" fill="url(#paint15_linear)"/>
<path d="M63.3446 96.65L36.3409 108.475L34.9414 107.45L36.4741 93.4775L38.0625 92.7832L46.4595 89.1055C47.4547 88.6695 48.5468 88.5033 49.6263 88.6234C50.7059 88.7434 51.735 89.1456 52.6106 89.7897L62.1137 96.7784L63.3446 96.65Z" fill="#7B5BAA"/>
<path d="M36.3415 108.472L63.3435 96.6468L52.7208 88.8303C51.8444 88.1876 50.815 87.7869 49.7354 87.6683C48.6559 87.5498 47.5642 87.7174 46.5697 88.1545L25.5265 97.3631C25.2522 97.4807 25.0139 97.6693 24.836 97.9094C24.6582 98.1495 24.5471 98.4326 24.5142 98.7298C24.4813 99.027 24.5277 99.3276 24.6486 99.6009C24.7696 99.8743 24.9609 100.111 25.2028 100.286L36.3415 108.472Z" fill="white"/>
<path d="M34.8652 103.65L55.8274 94.4217L49.1536 89.5142L28.1914 98.743L34.8652 103.65Z" fill="url(#paint16_linear)"/>
<path d="M39.1804 86.0536C38.8743 86.5701 38.6818 87.146 38.6155 87.743L38.0625 92.7822L36.3409 108.468L34.9414 107.442L36.4741 93.4782L37.216 86.7209C37.2819 86.1192 37.4756 85.5385 37.7843 85.0181L39.1804 86.0536Z" fill="url(#paint17_linear)"/>
<path d="M37.7852 85.0207L39.1729 86.0445C39.6273 85.2731 40.3129 84.6648 41.1322 84.3062L63.6052 74.4675C63.8375 74.3656 64.0928 74.3276 64.3446 74.3573C64.5965 74.387 64.836 74.4833 65.0384 74.6364L63.6372 73.611C63.4349 73.4584 63.1957 73.3623 62.9442 73.3326C62.6927 73.3029 62.4378 73.3407 62.2056 73.4421L39.7343 83.2807C38.9186 83.6416 38.2367 84.2503 37.7852 85.0207Z" fill="url(#paint18_linear)"/>
<path d="M38.6187 87.749L36.5312 106.752L61.9466 95.6263L64.1925 75.1736V75.1973L65.0356 74.6381C64.8332 74.485 64.5938 74.3886 64.3419 74.3589C64.09 74.3292 63.8347 74.3673 63.6024 74.4692L41.1294 84.3078C40.4425 84.6059 39.8467 85.0808 39.4025 85.6843C38.9582 86.2878 38.6814 86.9985 38.6002 87.7439L38.6187 87.749Z" fill="#00CBFC"/>
<path d="M65.6148 75.9542L63.3435 96.6502L36.3398 108.475L38.0614 92.79L38.6145 87.7508C38.6979 87.006 38.9756 86.2963 39.4195 85.6932C39.8635 85.09 40.4581 84.6146 41.1437 84.3147L63.6201 74.4743C63.8522 74.3729 64.1071 74.3351 64.3586 74.3648C64.6102 74.3945 64.8493 74.4906 65.0516 74.6432C65.2519 74.7931 65.4094 74.9931 65.5082 75.2232C65.607 75.4533 65.6438 75.7054 65.6148 75.9542Z" fill="url(#paint19_linear)"/>
<defs>
<linearGradient id="paint0_linear" x1="38981.1" y1="48179.4" x2="39560.8" y2="48179.4" gradientUnits="userSpaceOnUse">
<stop stop-color="#6A5EBF"/>
<stop offset="1" stop-color="#6E3AA5"/>
</linearGradient>
<linearGradient id="paint1_linear" x1="48707.9" y1="85757" x2="49630.3" y2="85757" gradientUnits="userSpaceOnUse">
<stop stop-color="#6A5EBF"/>
<stop offset="1" stop-color="#6E3AA5"/>
</linearGradient>
<linearGradient id="paint2_linear" x1="46687.4" y1="85244.7" x2="47533.2" y2="85244.7" gradientUnits="userSpaceOnUse">
<stop stop-color="#2E256B"/>
<stop offset="1" stop-color="#5A3087"/>
</linearGradient>
<linearGradient id="paint3_linear" x1="53757.1" y1="97439.1" x2="54919.1" y2="97439.1" gradientUnits="userSpaceOnUse">
<stop stop-color="#6A5EBF"/>
<stop offset="1" stop-color="#6E3AA5"/>
</linearGradient>
<linearGradient id="paint4_linear" x1="43514.3" y1="96710.6" x2="44268.6" y2="96710.6" gradientUnits="userSpaceOnUse">
<stop stop-color="#2E256B"/>
<stop offset="1" stop-color="#5A3087"/>
</linearGradient>
<linearGradient id="paint5_linear" x1="98611.4" y1="83323.7" x2="102552" y2="83323.7" gradientUnits="userSpaceOnUse">
<stop stop-color="#2E256B"/>
<stop offset="1" stop-color="#5A3087"/>
</linearGradient>
<linearGradient id="paint6_linear" x1="122527" y1="38515.9" x2="129099" y2="38515.9" gradientUnits="userSpaceOnUse">
<stop stop-color="#6A5EBF"/>
<stop offset="1" stop-color="#6E3AA5"/>
</linearGradient>
<linearGradient id="paint7_linear" x1="33.3864" y1="77.0911" x2="59.0968" y2="77.0911" gradientUnits="userSpaceOnUse">
<stop stop-color="#6A5EBF"/>
<stop offset="1" stop-color="#6E3AA5"/>
</linearGradient>
<linearGradient id="paint8_linear" x1="24.9023" y1="120.606" x2="39.1756" y2="120.606" gradientUnits="userSpaceOnUse">
<stop stop-color="#2E256B"/>
<stop offset="1" stop-color="#5A3087"/>
</linearGradient>
<linearGradient id="paint9_linear" x1="18634.2" y1="41202.5" x2="19485.9" y2="41202.5" gradientUnits="userSpaceOnUse">
<stop stop-color="#6A5EBF"/>
<stop offset="1" stop-color="#6E3AA5"/>
</linearGradient>
<linearGradient id="paint10_linear" x1="27724.3" y1="42994.6" x2="29878.7" y2="42994.6" gradientUnits="userSpaceOnUse">
<stop stop-color="#2E256B"/>
<stop offset="1" stop-color="#5A3087"/>
</linearGradient>
<linearGradient id="paint11_linear" x1="23602.4" y1="42258.5" x2="25125.2" y2="42258.5" gradientUnits="userSpaceOnUse">
<stop stop-color="#6A5EBF"/>
<stop offset="1" stop-color="#6E3AA5"/>
</linearGradient>
<linearGradient id="paint12_linear" x1="44381.6" y1="31252.3" x2="49841" y2="31252.3" gradientUnits="userSpaceOnUse">
<stop stop-color="#2E256B"/>
<stop offset="1" stop-color="#5A3087"/>
</linearGradient>
<linearGradient id="paint13_linear" x1="34106.2" y1="24282" x2="37323.3" y2="24282" gradientUnits="userSpaceOnUse">
<stop stop-color="#6A5EBF"/>
<stop offset="1" stop-color="#6E3AA5"/>
</linearGradient>
<linearGradient id="paint14_linear" x1="24.4089" y1="101.416" x2="36.4749" y2="101.416" gradientUnits="userSpaceOnUse">
<stop stop-color="#483CA6"/>
<stop offset="1" stop-color="#59278F"/>
</linearGradient>
<linearGradient id="paint15_linear" x1="43436.9" y1="9382.73" x2="47761.6" y2="9382.73" gradientUnits="userSpaceOnUse">
<stop stop-color="#2E256B"/>
<stop offset="1" stop-color="#5A3087"/>
</linearGradient>
<linearGradient id="paint16_linear" x1="28.1914" y1="96.5823" x2="55.8257" y2="96.5823" gradientUnits="userSpaceOnUse">
<stop stop-color="#7FC1E2"/>
<stop offset="1" stop-color="#304D87"/>
</linearGradient>
<linearGradient id="paint17_linear" x1="6812.69" y1="16367.5" x2="6919.26" y2="16367.5" gradientUnits="userSpaceOnUse">
<stop stop-color="#483CA6"/>
<stop offset="1" stop-color="#59278F"/>
</linearGradient>
<linearGradient id="paint18_linear" x1="44072.7" y1="7622.14" x2="48478.8" y2="7622.14" gradientUnits="userSpaceOnUse">
<stop stop-color="#6A5EBF"/>
<stop offset="1" stop-color="#6E3AA5"/>
</linearGradient>
<linearGradient id="paint19_linear" x1="47102.8" y1="22688.7" x2="52188.9" y2="22688.7" gradientUnits="userSpaceOnUse">
<stop stop-color="#2E256B"/>
<stop offset="1" stop-color="#5A3087"/>
</linearGradient>
</defs>
</svg>
