<svg width="177" height="168" viewBox="0 0 177 168" fill="none" xmlns="http://www.w3.org/2000/svg">
<mask id="mask0" mask-type="alpha" maskUnits="userSpaceOnUse" x="0" y="0" width="157" height="168">
<path d="M133.703 11.6386C153.062 27.3852 156.58 54.4607 156.356 79.628C156.13 104.948 151.369 131.082 132.49 147.652C112.487 165.208 84.4104 172.622 59.0339 165.044C34.8708 157.828 20.6729 134.668 10.6007 111.253C0.921588 88.7516 -5.07638 63.3206 5.85485 41.4171C16.7127 19.6606 40.4772 9.89124 63.9104 4.43314C87.8887 -1.1519 114.51 -3.97244 133.703 11.6386Z" fill="#E672D7"/>
</mask>
<g mask="url(#mask0)">
<path d="M155.938 37.4766L7.73438 125.787" stroke="#15234F"/>
<path d="M198.895 74.9541L50.6914 163.264" stroke="#15234F"/>
<path d="M169.684 49.1079L21.4805 137.418" stroke="#15234F"/>
<path d="M212.641 86.5845L64.4375 174.894" stroke="#15234F"/>
<path d="M181.712 62.0308L33.5078 150.341" stroke="#15234F"/>
</g>
<path d="M50.9206 75.5246C60.5633 75.5246 68.3803 70.9994 68.3803 65.4173C68.3803 59.8352 60.5633 55.3101 50.9206 55.3101C41.2779 55.3101 33.4609 59.8352 33.4609 65.4173C33.4609 70.9994 41.2779 75.5246 50.9206 75.5246Z" fill="#9879C2" fill-opacity="0.5"/>
<path d="M158.542 121.241C168.184 121.241 176.001 116.716 176.001 111.134C176.001 105.552 168.184 101.026 158.542 101.026C148.899 101.026 141.082 105.552 141.082 111.134C141.082 116.716 148.899 121.241 158.542 121.241Z" fill="#9879C2" fill-opacity="0.5"/>
<path d="M147.874 87.9829L138.277 89.1717L106.525 70.791C105.459 70.1733 104.25 69.8481 103.018 69.8481C101.787 69.8481 100.577 70.1733 99.5111 70.791L48.5869 100.275L31.8594 102.341L32.4125 111.525C32.4096 112.101 32.5594 112.667 32.8465 113.166C33.1336 113.665 33.5477 114.078 34.0464 114.364L36.9291 116.032L73.988 137.486C74.7668 137.937 75.65 138.174 76.549 138.174C77.448 138.174 78.3312 137.937 79.11 137.486L142.64 100.704L145.606 98.9881C146.085 98.714 146.484 98.3198 146.765 97.8443C147.046 97.3687 147.199 96.828 147.209 96.2753L147.874 87.9829Z" fill="#9879C2" fill-opacity="0.5"/>
<path d="M147.21 82.5806L138.03 87.0859L139.859 88.6958L79.107 123.866C78.4605 124.241 77.74 124.469 76.9961 124.535V133.548C77.7399 133.482 78.4604 133.254 79.107 132.88L145.603 94.3819C146.093 94.1014 146.5 93.6953 146.782 93.2052C147.065 92.7152 147.212 92.1587 147.209 91.5929C148.092 88.6541 148.093 85.5196 147.21 82.5806Z" fill="#634D99"/>
<path d="M73.9886 123.866L37.6968 102.86L39.1738 101.726L32.4084 97.9116L32.2847 98.4789C31.6733 101.266 31.7156 104.157 32.4084 106.924C32.4055 107.5 32.5553 108.066 32.8424 108.565C33.1295 109.063 33.5436 109.477 34.0423 109.762L73.9791 132.885C74.8902 133.413 75.9419 133.646 76.9902 133.552V124.54C75.9444 124.629 74.8966 124.394 73.9886 123.866Z" fill="url(#paint0_linear)"/>
<path d="M76.5354 133.807C75.5975 133.807 74.6762 133.559 73.865 133.087L33.9282 109.964C33.3964 109.661 32.9542 109.221 32.6463 108.691C32.3385 108.161 32.176 107.558 32.1754 106.945C31.4841 104.149 31.4435 101.232 32.0565 98.4187L32.1801 97.8497C32.1886 97.8133 32.2053 97.7794 32.229 97.7505C32.2526 97.7215 32.2825 97.6984 32.3164 97.6829C32.3505 97.6678 32.3876 97.661 32.4247 97.6629C32.4619 97.6649 32.4981 97.6755 32.5304 97.694L39.2959 101.508C39.3302 101.527 39.3592 101.555 39.3802 101.588C39.4012 101.621 39.4136 101.659 39.4163 101.699C39.4194 101.738 39.4126 101.778 39.3965 101.815C39.3805 101.851 39.3557 101.883 39.3244 101.907L38.131 102.822L74.1059 123.65C74.8484 124.08 75.6907 124.307 76.548 124.307C77.4054 124.307 78.2477 124.08 78.9902 123.65L139.452 88.6451L137.867 87.2562C137.837 87.2304 137.814 87.1975 137.801 87.1606C137.787 87.1237 137.782 87.0839 137.788 87.0448C137.793 87.0059 137.808 86.9689 137.831 86.937C137.854 86.9051 137.884 86.8794 137.919 86.8621L147.1 82.3567C147.131 82.3417 147.165 82.334 147.2 82.334C147.234 82.334 147.268 82.3417 147.3 82.3567C147.331 82.3702 147.36 82.3906 147.383 82.4165C147.406 82.4423 147.423 82.4729 147.433 82.5061C148.328 85.4783 148.331 88.6491 147.442 91.6233C147.44 92.2253 147.279 92.816 146.977 93.3358C146.674 93.8557 146.24 94.2862 145.718 94.5839L79.2263 133.087C78.5501 133.48 77.7958 133.719 77.0171 133.786C76.8555 133.801 76.6954 133.807 76.5354 133.807ZM32.5748 98.2741L32.5193 98.5267C31.9193 101.277 31.9611 104.129 32.6413 106.86C32.6463 106.88 32.6489 106.899 32.6492 106.919C32.6459 107.453 32.7843 107.978 33.0503 108.44C33.3163 108.902 33.7003 109.285 34.1627 109.549L74.0995 132.672C74.8424 133.101 75.6845 133.327 76.5417 133.327C77.3989 133.327 78.241 133.101 78.9839 132.672L145.479 94.174C145.933 93.915 146.31 93.5394 146.571 93.0858C146.832 92.6322 146.968 92.1169 146.965 91.5931C146.963 91.5736 146.963 91.5538 146.965 91.5343C147.812 88.7298 147.84 85.7409 147.046 82.9209L138.442 87.1434L140.003 88.5164C140.031 88.5416 140.053 88.5731 140.067 88.6083C140.081 88.6436 140.086 88.6816 140.082 88.7192C140.078 88.7569 140.066 88.7931 140.046 88.825C140.025 88.8568 139.998 88.8834 139.965 88.9026L79.2263 124.079C78.4113 124.551 77.4867 124.799 76.5457 124.799C75.6046 124.799 74.6801 124.551 73.865 124.079L37.5843 103.067C37.5503 103.047 37.5217 103.02 37.501 102.986C37.4802 102.953 37.468 102.915 37.4653 102.876C37.4627 102.836 37.4697 102.797 37.4857 102.761C37.5018 102.725 37.5264 102.694 37.5573 102.67L38.7475 101.756L32.5748 98.2741Z" fill="#BF89EF"/>
<path d="M142.638 87.0861L79.1067 123.866C78.3282 124.318 77.4449 124.555 76.5457 124.555C75.6464 124.555 74.7631 124.318 73.9846 123.866L36.9258 102.412L99.5109 66.1786C100.577 65.561 101.787 65.2358 103.018 65.2358C104.249 65.2358 105.459 65.561 106.525 66.1786L142.638 87.0861Z" fill="#3C3568"/>
<path d="M145.605 85.3698L142.638 87.0861L79.107 123.866C78.3285 124.318 77.4452 124.555 76.546 124.555C75.6468 124.555 74.7635 124.318 73.985 123.866L36.9261 102.412L34.0434 100.742C33.5468 100.454 33.1345 100.041 32.8478 99.5427C32.5611 99.0446 32.4102 98.4796 32.4102 97.9046C32.4102 97.3295 32.5611 96.7645 32.8478 96.2664C33.1345 95.7684 33.5468 95.3547 34.0434 95.0671L99.5128 57.1743C100.579 56.5566 101.789 56.2314 103.02 56.2314C104.251 56.2314 105.461 56.5566 106.527 57.1743L145.605 79.7981C146.092 80.081 146.496 80.4873 146.777 80.9762C147.058 81.4652 147.206 82.0196 147.206 82.5839C147.206 83.1483 147.058 83.7027 146.777 84.1916C146.496 84.6806 146.092 85.0869 145.605 85.3698Z" fill="url(#paint1_linear)"/>
<path d="M76.5383 124.795C75.5994 124.795 74.6771 124.547 73.8648 124.075L33.9279 100.952C33.3952 100.643 32.9528 100.199 32.6452 99.665C32.3377 99.1306 32.1758 98.5244 32.1758 97.9073C32.1758 97.2902 32.3377 96.684 32.6452 96.1496C32.9528 95.6151 33.3952 95.1712 33.9279 94.8624L99.391 56.9601C100.494 56.3237 101.745 55.9888 103.018 55.9888C104.291 55.9888 105.541 56.3237 106.645 56.9601L145.723 79.5823C146.247 79.8862 146.682 80.3231 146.985 80.849C147.287 81.375 147.446 81.9715 147.446 82.5787C147.446 83.1859 147.287 83.7824 146.985 84.3084C146.682 84.8343 146.247 85.2712 145.723 85.5751L79.2261 124.08C78.55 124.473 77.7957 124.712 77.0169 124.779C76.8569 124.789 76.6968 124.795 76.5383 124.795ZM103.019 56.4674C101.829 56.466 100.661 56.779 99.6304 57.3749L34.1625 95.2772C33.7025 95.544 33.3206 95.9275 33.055 96.3892C32.7895 96.8508 32.6497 97.3744 32.6497 97.9073C32.6497 98.4402 32.7895 98.9638 33.055 99.4254C33.3206 99.8871 33.7025 100.271 34.1625 100.537L74.0993 123.66C74.8418 124.09 75.6841 124.316 76.5415 124.316C77.3989 124.316 78.2411 124.09 78.9836 123.66L145.478 85.162C145.93 84.9003 146.305 84.5239 146.566 84.0707C146.827 83.6176 146.965 83.1035 146.965 82.5803C146.965 82.057 146.827 81.543 146.566 81.0898C146.305 80.6367 145.93 80.2604 145.478 79.9987L106.405 57.3749C105.376 56.7792 104.207 56.4662 103.019 56.4674Z" fill="#BF89EF"/>
<path d="M102.537 78.2569L104.466 79.3694C105.745 80.1088 107.195 80.498 108.671 80.498C110.147 80.498 111.597 80.1088 112.876 79.3694L127.547 70.9021C127.679 70.8252 127.789 70.7147 127.866 70.5817C127.943 70.4486 127.983 70.2977 127.983 70.1441C127.983 69.9905 127.943 69.8396 127.866 69.7065C127.789 69.5734 127.679 69.463 127.547 69.3861L120.04 65.0396C119.865 64.9385 119.667 64.8853 119.465 64.8853C119.263 64.8853 119.065 64.9385 118.891 65.0396L102.539 74.4778C102.207 74.6682 101.931 74.9432 101.739 75.2749C101.547 75.6067 101.445 75.9834 101.445 76.3669C101.445 76.7505 101.546 77.1273 101.738 77.4591C101.929 77.791 102.205 78.0662 102.537 78.2569Z" fill="#322754"/>
<path d="M80.0495 106.06C89.6922 106.06 97.5092 101.535 97.5092 95.9525C97.5092 90.3704 89.6922 85.8452 80.0495 85.8452C70.4068 85.8452 62.5898 90.3704 62.5898 95.9525C62.5898 101.535 70.4068 106.06 80.0495 106.06Z" fill="#5C468C"/>
<path d="M108.754 79.1848C111.441 79.1848 113.618 77.924 113.618 76.3688C113.618 74.8135 111.441 73.5527 108.754 73.5527C106.068 73.5527 103.891 74.8135 103.891 76.3688C103.891 77.924 106.068 79.1848 108.754 79.1848Z" fill="#FFE840"/>
<path d="M63.418 62.9221V66.1196V66.5614H63.4005C63.3131 67.5292 62.9964 68.462 62.4766 69.2821C62.4132 69.3854 62.3466 69.4887 62.2769 69.5904C61.5185 70.6543 60.5655 71.564 59.4687 72.2714L59.2706 72.4017C59.0772 72.5267 58.8749 72.6496 58.6636 72.7704C57.9532 73.1794 57.215 73.5379 56.4544 73.8431L56.2563 73.921C55.3396 74.2777 54.3998 74.5714 53.4433 74.7998L53.2452 74.8475C52.3172 75.0619 51.3781 75.2248 50.4322 75.3354L50.2325 75.3576C49.2987 75.4592 48.3603 75.5122 47.4211 75.5165H47.2214C46.282 75.5183 45.3431 75.4722 44.4084 75.3783C44.3418 75.3783 44.2752 75.3655 44.2087 75.3576C43.2638 75.2588 42.3252 75.1071 41.3973 74.9031L41.1976 74.8586C40.2426 74.6421 39.3029 74.3629 38.3846 74.0227C38.318 73.9973 38.2514 73.9734 38.1849 73.9464C37.3223 73.6182 36.4871 73.2218 35.6872 72.7609L35.3703 72.5749L35.1706 72.451C34.0984 71.7978 33.1464 70.9646 32.356 69.9877C32.2863 69.8987 32.2213 69.8097 32.1579 69.7207C31.4709 68.7996 31.0503 67.7065 30.9424 66.5614H30.9297V62.9221H31.8948C31.9788 62.7871 32.0676 62.6536 32.1642 62.5217C32.2276 62.4311 32.2942 62.3421 32.3623 62.2547C32.6267 61.9171 32.9142 61.5985 33.2229 61.3012C33.6379 60.9016 34.0824 60.534 34.5525 60.2015C34.9059 59.9504 35.2847 59.7056 35.6888 59.472C42.028 55.7994 52.3197 55.7994 58.6683 59.472C59.0725 59.7056 59.4496 59.9488 59.8031 60.2015C60.2733 60.5339 60.7177 60.9015 61.1327 61.3012C61.5614 61.7129 61.9474 62.1671 62.2848 62.6568C62.3467 62.7458 62.4037 62.8347 62.4608 62.9253L63.418 62.9221Z" fill="#FF9D4D"/>
<path d="M47.177 56.9136C51.4813 56.9136 55.5257 57.883 58.5653 59.6423C58.9599 59.8711 59.3371 60.119 59.6842 60.3606C60.1455 60.688 60.582 61.0492 60.9901 61.4412C61.4091 61.8439 61.7866 62.2879 62.1169 62.7666C62.1739 62.8476 62.2294 62.9255 62.288 63.0288L62.3466 63.121H63.223V66.363L63.2088 66.5457C63.1236 67.4819 62.8166 68.3842 62.3134 69.1774C62.2542 69.2728 62.1892 69.3729 62.1184 69.4778C61.3742 70.5246 60.4371 71.419 59.3577 72.1127L59.1628 72.2414C58.971 72.3654 58.7698 72.4877 58.5653 72.6069C57.8633 73.0102 57.1341 73.3638 56.3831 73.6653L56.185 73.7432C55.2762 74.0972 54.3443 74.3881 53.3957 74.6141C53.3308 74.6315 53.2658 74.6459 53.2008 74.6617C52.2779 74.8724 51.3441 75.0316 50.4036 75.1385L50.2119 75.1607C49.2849 75.2608 48.3534 75.3138 47.4211 75.3197H47.1691C46.2499 75.3197 45.3291 75.2736 44.4258 75.183L44.2309 75.1623C43.2936 75.0638 42.3624 74.9137 41.4416 74.7126L41.2435 74.6681C40.2971 74.4533 39.3659 74.1762 38.4559 73.8386L38.4321 73.829L38.2578 73.7638C37.4052 73.4393 36.5796 73.0477 35.7887 72.5926C35.6841 72.5306 35.5795 72.4703 35.4717 72.4067L35.2752 72.2859C34.2228 71.6439 33.2889 70.8246 32.5145 69.864C32.4527 69.7861 32.3893 69.705 32.3211 69.6049C31.6542 68.7138 31.2461 67.655 31.142 66.5457L31.1262 66.363V63.121H32.0026L32.0612 63.0272C32.1405 62.8985 32.2292 62.7666 32.3227 62.6363C32.3814 62.5553 32.4432 62.4774 32.5161 62.3773C32.7739 62.046 33.0552 61.7337 33.3576 61.4428C33.7657 61.0496 34.2027 60.6878 34.665 60.3606C35.0153 60.1111 35.3925 59.8679 35.7855 59.6423C38.8236 57.883 42.8679 56.9136 47.1738 56.9136H47.177ZM47.177 56.7134C43.0185 56.7134 38.86 57.6319 35.6888 59.469C35.2847 59.7026 34.9059 59.9458 34.5525 60.1985C34.0824 60.531 33.6379 60.8986 33.2229 61.2982C32.9142 61.5955 32.6267 61.9141 32.3623 62.2517C32.2942 62.3391 32.2276 62.4281 32.1642 62.5187C32.0676 62.6506 31.9788 62.7841 31.8948 62.9192H30.9297V66.5584H30.9487C31.0567 67.7035 31.4772 68.7967 32.1642 69.7177C32.2276 69.8067 32.2926 69.8958 32.3623 69.9848C33.1514 70.9649 34.103 71.8014 35.1754 72.4575L35.375 72.5815L35.692 72.7674C36.4919 73.2284 37.3271 73.6248 38.1896 73.953C38.2562 73.98 38.3228 74.0038 38.3893 74.0292C39.3077 74.3694 40.2474 74.6487 41.2023 74.8652L41.402 74.9097C42.33 75.1136 43.2686 75.2653 44.2134 75.3642C44.28 75.3721 44.3466 75.3801 44.4131 75.3848C45.3299 75.4771 46.2508 75.5233 47.1722 75.5231H47.2261H47.4258C48.3651 75.5188 49.3035 75.4658 50.2372 75.3642L50.4369 75.3419C51.3828 75.2314 52.3219 75.0685 53.2499 74.854L53.448 74.8063C54.4045 74.5779 55.3444 74.2843 56.261 73.9275L56.4591 73.8496C57.2197 73.5444 57.9579 73.186 58.6683 72.7769C58.8796 72.6562 59.0814 72.5333 59.2737 72.4083L59.4718 72.2779C60.5704 71.5711 61.525 70.6613 62.2848 69.597C62.3546 69.4937 62.4211 69.392 62.4845 69.2887C63.0043 68.4685 63.3211 67.5358 63.4085 66.568H63.418V66.1262V62.9287H62.4528C62.3958 62.8381 62.3387 62.7491 62.2769 62.6601C61.9395 62.1704 61.5535 61.7163 61.1248 61.3045C60.7098 60.9049 60.2653 60.5373 59.7951 60.2048C59.4417 59.9522 59.0645 59.709 58.6604 59.4754C55.4908 57.6383 51.3292 56.7197 47.1722 56.7197L47.177 56.7134Z" fill="#FFE840"/>
<path d="M47.1754 72.2289C56.1477 72.2289 63.4211 68.0175 63.4211 62.8225C63.4211 57.6275 56.1477 53.416 47.1754 53.416C38.2031 53.416 30.9297 57.6275 30.9297 62.8225C30.9297 68.0175 38.2031 72.2289 47.1754 72.2289Z" fill="#FFE840"/>
<path d="M61.128 61.3062C60.6082 59.6916 59.2627 58.2057 57.212 57.0154C54.5305 55.4628 50.9663 54.6094 47.1755 54.6094C43.3846 54.6094 39.8189 55.4628 37.1374 57.0154C35.0882 58.2025 33.7412 59.6884 33.2214 61.3062C33.062 61.7985 32.9807 62.3128 32.9805 62.8303C32.9805 64.4099 33.7443 65.9228 35.1738 67.2244C35.2383 67.2848 35.3048 67.3436 35.3735 67.4008C35.9219 67.8684 36.5124 68.2838 37.1374 68.6419C37.4749 68.8358 37.8236 69.0202 38.1849 69.1902L38.3846 69.284C39.2927 69.6968 40.2337 70.0328 41.1976 70.2884L41.3973 70.3424C42.3222 70.5784 43.2613 70.7541 44.2087 70.8684C44.2753 70.8779 44.3419 70.8859 44.4084 70.8923C45.327 70.9978 46.2509 71.0508 47.1755 71.0512H47.4211C48.3611 71.0426 49.2998 70.9794 50.2325 70.862C50.2991 70.8541 50.3657 70.8462 50.4322 70.835C51.3814 70.709 52.3212 70.5194 53.2452 70.2677L53.4433 70.2121C54.4098 69.9403 55.351 69.5851 56.2563 69.1505C56.3229 69.1203 56.3895 69.0869 56.4544 69.0536C56.7143 68.9248 56.9663 68.7882 57.212 68.6467C57.9534 68.2257 58.6446 67.7213 59.2722 67.1433C59.3403 67.0798 59.4053 67.0162 59.4703 66.9511C60.7112 65.7147 61.3721 64.3035 61.3721 62.8351C61.3713 62.3158 61.2889 61.7998 61.128 61.3062ZM59.4671 65.9387C59.4037 66.0229 59.3372 66.1072 59.269 66.1914C58.531 67.05 57.6473 67.771 56.6589 68.3209C56.5923 68.3607 56.5242 68.3988 56.4544 68.437L56.2563 68.545C55.358 69.0193 54.4159 69.4051 53.4433 69.6972L53.2452 69.756C52.3231 70.0247 51.3831 70.227 50.4322 70.3615L50.2325 70.3885C49.3005 70.5141 48.3615 70.5815 47.4211 70.5903H47.2214C46.2814 70.5949 45.342 70.5418 44.4084 70.4314L44.2087 70.406C43.2598 70.2838 42.3204 70.0958 41.3973 69.8434L41.1976 69.7878C40.2284 69.5135 39.2867 69.1495 38.3846 68.7008L38.1849 68.599C38.0169 68.5116 37.8521 68.4195 37.6905 68.3257C36.8342 67.8441 36.0535 67.2384 35.3735 66.5283C35.3054 66.4536 35.2388 66.3805 35.1738 66.3058C33.5367 64.3988 33.3291 62.1914 34.551 60.2113C35.1976 59.164 36.2436 58.1819 37.6905 57.3507C42.9203 54.3217 51.4291 54.3217 56.6589 57.3507C58.1058 58.1882 59.1518 59.1704 59.7984 60.2113C60.9426 62.0532 60.8332 64.1128 59.4671 65.9308V65.9387Z" fill="#FF9D4D"/>
<path d="M32.7862 67.1005V70.3981C32.7163 70.3091 32.6495 70.2201 32.5859 70.1311V66.8335C32.6495 66.9225 32.7163 67.0131 32.7862 67.1005Z" fill="#FFE840"/>
<path d="M35.376 69.2872V72.5895L35.1758 72.4655V69.168L35.376 69.2872Z" fill="#FFE840"/>
<path d="M38.3877 70.7334V74.0326C38.321 74.0071 38.2542 73.9833 38.1875 73.9563V70.6587L38.3877 70.7334Z" fill="#FFE840"/>
<path d="M41.3995 71.6153V74.9129L41.1992 74.8684V71.5708L41.3995 71.6153Z" fill="#FFE840"/>
<path d="M44.4112 72.0905V75.3881C44.3444 75.3881 44.2777 75.3754 44.2109 75.3674V72.0698C44.2777 72.0778 44.3444 72.0857 44.4112 72.0905Z" fill="#FFE840"/>
<path d="M47.4229 72.2261V75.5237H47.2227V72.2261H47.4229Z" fill="#FFE840"/>
<path d="M50.4346 72.0376V75.3352L50.2344 75.3574V72.0598L50.4346 72.0376Z" fill="#FFE840"/>
<path d="M53.4447 71.5024V74.8L53.2461 74.8477V71.5485L53.4447 71.5024Z" fill="#FFE840"/>
<path d="M56.4565 70.5459V73.8435L56.2578 73.9213V70.6222C56.3246 70.5984 56.3913 70.5713 56.4565 70.5459Z" fill="#FFE840"/>
<path d="M59.4682 68.9741V72.2717L59.2695 72.402V69.1044L59.4682 68.9741Z" fill="#FFE840"/>
<path d="M62.1416 66.3149V69.6125C62.0781 69.7158 62.0113 69.8175 61.9414 69.9208V66.6232C62.0113 66.5199 62.0781 66.4182 62.1416 66.3149Z" fill="#FFE840"/>
<path d="M170.391 108.36V111.557V112.002H170.373C170.285 112.969 169.968 113.901 169.449 114.721C169.386 114.824 169.319 114.928 169.248 115.029C168.49 116.095 167.536 117.005 166.437 117.71L166.237 117.842C166.044 117.966 165.841 118.09 165.633 118.211C164.923 118.619 164.184 118.977 163.424 119.282L163.226 119.36C162.309 119.717 161.369 120.011 160.413 120.239L160.215 120.288C159.286 120.503 158.347 120.665 157.4 120.774C157.335 120.782 157.269 120.792 157.202 120.798C156.268 120.898 155.329 120.951 154.389 120.957H154.191C153.251 120.959 152.313 120.914 151.378 120.82L151.178 120.8C150.233 120.7 149.295 120.549 148.367 120.345L148.167 120.301C147.211 120.087 146.27 119.81 145.351 119.471L145.151 119.396C144.289 119.068 143.453 118.672 142.654 118.211C142.546 118.149 142.443 118.087 142.337 118.023C142.268 117.984 142.202 117.942 142.137 117.901C141.065 117.244 140.115 116.407 139.329 115.425C139.259 115.338 139.194 115.249 139.129 115.16C138.444 114.238 138.023 113.145 137.913 112H137.902V108.36H138.853C138.937 108.226 139.026 108.091 139.121 107.959C139.186 107.868 139.251 107.781 139.321 107.692C139.585 107.354 139.872 107.035 140.181 106.739C140.596 106.339 141.041 105.971 141.511 105.639C141.863 105.387 142.242 105.143 142.647 104.908C148.986 101.235 159.278 101.235 165.627 104.908C166.031 105.143 166.408 105.385 166.761 105.639C167.231 105.971 167.675 106.339 168.09 106.739C168.519 107.149 168.905 107.603 169.242 108.093C169.303 108.182 169.362 108.272 169.419 108.361L170.391 108.36Z" fill="#FF9D4D"/>
<path d="M154.14 102.352C158.446 102.352 162.49 103.32 165.53 105.079C165.925 105.308 166.302 105.556 166.649 105.799C167.111 106.126 167.547 106.487 167.955 106.88C168.374 107.282 168.752 107.726 169.082 108.205C169.139 108.286 169.194 108.364 169.253 108.466L169.311 108.56H170.188V111.8L170.174 111.984C170.088 112.921 169.78 113.823 169.277 114.616C169.219 114.71 169.154 114.811 169.083 114.915C168.339 115.959 167.402 116.851 166.324 117.543L166.129 117.672C165.937 117.794 165.736 117.917 165.532 118.036C164.829 118.44 164.098 118.794 163.346 119.096L163.151 119.172C162.242 119.526 161.309 119.818 160.36 120.045L160.167 120.091C159.245 120.305 158.311 120.467 157.37 120.575L157.178 120.598C156.251 120.698 155.319 120.751 154.386 120.757H154.376H154.189H154.134C153.218 120.757 152.303 120.711 151.392 120.618L151.197 120.599C150.259 120.5 149.328 120.349 148.406 120.148L148.204 120.107C147.257 119.892 146.325 119.616 145.414 119.279L145.39 119.269L145.218 119.202C144.365 118.878 143.539 118.486 142.749 118.031C142.642 117.971 142.539 117.909 142.432 117.847L142.235 117.726C141.188 117.081 140.259 116.26 139.487 115.301C139.427 115.223 139.364 115.142 139.295 115.043C138.628 114.152 138.22 113.093 138.116 111.984L138.1 111.8V108.56H138.978L139.035 108.466C139.116 108.335 139.205 108.205 139.299 108.075C139.357 107.992 139.419 107.908 139.492 107.814C139.751 107.484 140.032 107.171 140.333 106.88C140.742 106.487 141.179 106.126 141.641 105.799C141.991 105.548 142.368 105.306 142.76 105.079C145.799 103.32 149.844 102.352 154.148 102.352H154.14ZM154.14 102.152C149.983 102.152 145.825 103.07 142.654 104.906C142.248 105.141 141.869 105.385 141.517 105.637C141.047 105.97 140.603 106.337 140.188 106.737C139.878 107.034 139.591 107.352 139.327 107.69C139.257 107.779 139.192 107.867 139.127 107.957C139.032 108.089 138.944 108.224 138.86 108.358H137.902V112.002H137.92C138.029 113.146 138.45 114.239 139.135 115.161C139.2 115.25 139.265 115.339 139.335 115.426C140.123 116.408 141.075 117.245 142.148 117.901C142.213 117.942 142.28 117.983 142.348 118.023C142.451 118.087 142.554 118.149 142.665 118.211C143.465 118.672 144.3 119.068 145.162 119.396L145.362 119.471C146.28 119.812 147.22 120.092 148.175 120.308L148.375 120.353C149.303 120.556 150.241 120.708 151.186 120.807L151.386 120.828C152.297 120.919 153.221 120.965 154.143 120.965H154.397C155.337 120.959 156.275 120.906 157.21 120.806C157.276 120.806 157.343 120.79 157.408 120.782C158.355 120.673 159.294 120.511 160.223 120.296L160.421 120.246C161.377 120.018 162.317 119.725 163.234 119.368L163.432 119.29C164.192 118.985 164.931 118.627 165.641 118.219C165.849 118.098 166.051 117.974 166.245 117.85L166.444 117.718C167.544 117.012 168.498 116.102 169.256 115.037C169.327 114.935 169.394 114.832 169.457 114.729C169.976 113.909 170.293 112.977 170.381 112.01H170.399V111.568V108.37H169.433C169.376 108.281 169.318 108.191 169.256 108.102C168.919 107.612 168.533 107.159 168.104 106.748C167.69 106.348 167.246 105.98 166.776 105.648C166.422 105.395 166.045 105.152 165.641 104.917C162.471 103.082 158.31 102.163 154.151 102.163L154.14 102.152Z" fill="#FFE840"/>
<path d="M154.14 117.665C163.113 117.665 170.386 113.454 170.386 108.259C170.386 103.064 163.113 98.8525 154.14 98.8525C145.168 98.8525 137.895 103.064 137.895 108.259C137.895 113.454 145.168 117.665 154.14 117.665Z" fill="#FFE840"/>
<path d="M168.095 106.737C167.577 105.122 166.23 103.636 164.181 102.446C161.499 100.893 157.935 100.038 154.144 100.038C150.353 100.038 146.788 100.893 144.106 102.446C142.057 103.633 140.71 105.119 140.19 106.737C140.031 107.228 139.949 107.742 139.949 108.259C139.949 109.848 140.713 111.352 142.143 112.655C142.208 112.715 142.274 112.772 142.342 112.83C142.891 113.297 143.481 113.713 144.106 114.071C144.442 114.265 144.792 114.449 145.154 114.621C145.22 114.652 145.287 114.684 145.353 114.713C146.261 115.126 147.202 115.462 148.166 115.717L148.366 115.771C149.291 116.008 150.23 116.185 151.177 116.299L151.377 116.323C152.296 116.428 153.22 116.481 154.144 116.481H154.387C155.327 116.474 156.267 116.412 157.2 116.294L157.398 116.267C158.348 116.141 159.288 115.951 160.212 115.7C160.279 115.681 160.346 115.663 160.41 115.642C161.377 115.371 162.318 115.016 163.224 114.582L163.422 114.485C163.682 114.355 163.933 114.22 164.179 114.077C164.92 113.656 165.612 113.152 166.239 112.575C166.308 112.512 166.374 112.447 166.439 112.383C167.68 111.145 168.341 109.735 168.341 108.265C168.34 107.746 168.257 107.23 168.095 106.737ZM166.431 111.366C166.368 111.45 166.301 111.536 166.231 111.619C165.495 112.478 164.612 113.2 163.623 113.75C163.556 113.789 163.488 113.828 163.418 113.866C163.349 113.904 163.287 113.939 163.22 113.972C162.322 114.447 161.38 114.833 160.407 115.124L160.209 115.183C159.287 115.453 158.346 115.655 157.395 115.79L157.197 115.817C156.264 115.943 155.324 116.01 154.384 116.019H154.185C153.245 116.022 152.306 115.966 151.372 115.852L151.173 115.827C150.224 115.706 149.284 115.519 148.361 115.266L148.162 115.21C147.193 114.935 146.251 114.571 145.349 114.123L145.149 114.02C144.981 113.933 144.816 113.842 144.654 113.748C143.798 113.267 143.017 112.66 142.337 111.949C142.269 111.876 142.203 111.801 142.138 111.727C140.501 109.82 140.293 107.614 141.515 105.634C142.162 104.585 143.208 103.603 144.654 102.773C149.884 99.7457 158.393 99.7457 163.623 102.773C165.07 103.611 166.116 104.593 166.762 105.634C167.911 107.491 167.802 109.551 166.431 111.366Z" fill="#FF9D4D"/>
<path d="M154.661 106.933L156.192 107.818C156.157 107.836 156.122 107.853 156.089 107.872L155.251 108.359L153.824 107.531L154.3 107.257C154.444 107.179 154.568 107.068 154.661 106.933Z" fill="#D1975D"/>
<path d="M139.755 112.539V115.835C139.683 115.748 139.618 115.659 139.555 115.57V112.272C139.617 112.361 139.684 112.45 139.755 112.539Z" fill="#FFE840"/>
<path d="M142.341 114.724V118.021C142.273 117.981 142.206 117.94 142.141 117.899V114.6C142.206 114.643 142.273 114.684 142.341 114.724Z" fill="#FFE840"/>
<path d="M145.353 116.172V119.471L145.152 119.396V116.099L145.353 116.172Z" fill="#FFE840"/>
<path d="M148.364 117.054V120.351L148.164 120.307V117.008L148.364 117.054Z" fill="#FFE840"/>
<path d="M151.376 117.528V120.826L151.176 120.805V117.508L151.376 117.528Z" fill="#FFE840"/>
<path d="M154.386 117.664V120.962H154.188V117.664H154.386Z" fill="#FFE840"/>
<path d="M157.398 117.475V120.772C157.333 120.78 157.266 120.79 157.199 120.796V117.498C157.268 117.492 157.334 117.483 157.398 117.475Z" fill="#FFE840"/>
<path d="M160.41 116.939V120.237L160.211 120.286V116.987L160.41 116.939Z" fill="#FFE840"/>
<path d="M163.417 115.983V119.28L163.219 119.358V116.061L163.417 115.983Z" fill="#FFE840"/>
<path d="M166.431 114.411V117.708L166.23 117.84V114.544C166.304 114.498 166.37 114.455 166.431 114.411Z" fill="#FFE840"/>
<path d="M169.108 111.752V115.05C169.045 115.153 168.978 115.256 168.906 115.358V112.06C168.978 111.959 169.043 111.855 169.108 111.752Z" fill="#FFE840"/>
<path d="M89.7837 93.3475V96.5449V96.9867H89.7663C89.6789 97.9545 89.3621 98.8873 88.8423 99.7074C88.7805 99.8107 88.7124 99.914 88.6426 100.016C87.8838 101.08 86.9296 101.99 85.8312 102.697L85.6315 102.827C85.4361 102.952 85.2343 103.075 85.0261 103.196C84.3163 103.605 83.5786 103.963 82.8185 104.268L82.6188 104.346C81.7027 104.703 80.7633 104.996 79.8074 105.225L79.6077 105.273C78.6798 105.487 77.7406 105.65 76.7947 105.761L76.5966 105.783C75.6623 105.885 74.7234 105.938 73.7836 105.942H73.5839C72.6445 105.944 71.7056 105.897 70.7709 105.804C70.7059 105.804 70.6394 105.791 70.5728 105.783C69.6274 105.684 68.6883 105.532 67.7598 105.328L67.5617 105.284C66.6067 105.068 65.6669 104.789 64.7487 104.448C64.6821 104.423 64.614 104.399 64.549 104.372C63.6861 104.043 62.8504 103.647 62.0498 103.186L61.7328 103L61.5347 102.876C60.4621 102.221 59.5105 101.384 58.7217 100.403C58.652 100.314 58.5854 100.227 58.522 100.136C57.835 99.2154 57.4144 98.1223 57.3065 96.9772H57.2891V93.3379H58.2526C58.3366 93.2028 58.4269 93.0693 58.522 92.9374C58.5854 92.8474 58.652 92.7584 58.7217 92.6705C58.9851 92.3321 59.2727 92.0134 59.5823 91.7169C59.997 91.317 60.4415 90.9493 60.9119 90.6172C61.2637 90.3661 61.6425 90.1214 62.0466 89.8878C68.3858 86.2151 78.6775 86.2151 85.0261 89.8878C85.4297 90.1219 85.808 90.365 86.1608 90.6172C86.631 90.9497 87.0755 91.3174 87.4905 91.7169C87.9196 92.1282 88.3057 92.5824 88.6426 93.0725C88.7044 93.1615 88.7631 93.2505 88.8185 93.3411L89.7837 93.3475Z" fill="#FF9D4D"/>
<path d="M73.5387 87.3389C77.8446 87.3389 81.889 88.3083 84.927 90.0675C85.3232 90.2964 85.7004 90.5443 86.0475 90.7875C86.5092 91.1143 86.9457 91.4755 87.3534 91.8681C87.7727 92.27 88.1503 92.7135 88.4801 93.1919C88.5356 93.2729 88.5927 93.3588 88.6513 93.4541L88.7099 93.5479H89.5863V96.7883L89.5705 96.971C89.485 97.9077 89.1781 98.8104 88.6751 99.6043C88.618 99.6981 88.553 99.7982 88.4817 99.9031C87.7367 100.947 86.8003 101.838 85.7226 102.53C85.6576 102.573 85.5926 102.617 85.5261 102.659C85.3359 102.783 85.1346 102.905 84.9286 103.024C84.2271 103.427 83.4985 103.781 82.7479 104.083H82.7384L82.5498 104.157C81.6405 104.511 80.7081 104.802 79.759 105.028L79.5657 105.076C78.6444 105.287 77.7122 105.446 76.7733 105.553L76.5767 105.575C75.6487 105.676 74.7162 105.729 73.7828 105.734H73.5308C72.6116 105.734 71.6908 105.688 70.7891 105.597C70.7241 105.597 70.6591 105.584 70.5942 105.578C69.6564 105.478 68.7248 105.328 67.8033 105.127L67.6068 105.082C66.6598 104.868 65.7281 104.591 64.8176 104.253L64.7938 104.243C64.7367 104.223 64.6797 104.202 64.6211 104.178C63.768 103.853 62.9419 103.462 62.1504 103.007L61.8413 102.822L61.6448 102.7C60.5909 102.056 59.6559 101.235 58.8809 100.272C58.8191 100.194 58.7557 100.113 58.6876 100.013C58.022 99.1208 57.6141 98.0625 57.5085 96.9535L57.4942 96.7708V93.5304H58.3706L58.4293 93.435C58.5101 93.3063 58.5973 93.1744 58.6923 93.0441C58.7494 92.9615 58.8128 92.8773 58.8857 92.7851C59.1436 92.4538 59.4248 92.1415 59.7272 91.8506C60.1347 91.4579 60.5713 91.0967 61.0331 90.77C61.3849 90.5189 61.7621 90.2773 62.1535 90.0501C65.1916 88.2908 69.236 87.3214 73.5419 87.3214L73.5387 87.3389ZM73.5387 87.1387C69.3802 87.1387 65.2233 88.0572 62.0505 89.8943C61.6464 90.1279 61.2676 90.3711 60.9158 90.6238C60.4454 90.9559 60.0009 91.3235 59.5862 91.7235C59.2766 92.02 58.989 92.3387 58.7256 92.677C58.6559 92.7639 58.5893 92.8529 58.5259 92.944C58.4309 93.0759 58.3405 93.2094 58.2565 93.3445H57.293V96.9837H57.3104C57.4184 98.1288 57.8389 99.2219 58.5259 100.143C58.5893 100.234 58.6559 100.321 58.7256 100.41C59.5144 101.391 60.466 102.227 61.5386 102.883L61.7367 103.007L62.0537 103.193C62.8543 103.653 63.69 104.05 64.5529 104.378C64.6179 104.405 64.686 104.429 64.7526 104.455C65.6708 104.795 66.6106 105.074 67.5656 105.29L67.7637 105.335C68.6922 105.539 69.6313 105.691 70.5767 105.789C70.6433 105.797 70.7098 105.805 70.7748 105.81C71.6916 105.902 72.6125 105.949 73.5339 105.948H73.5878H73.7875C74.7273 105.944 75.6662 105.891 76.6005 105.789L76.7986 105.767C77.7445 105.657 78.6837 105.494 79.6116 105.279L79.8113 105.232C80.7672 105.003 81.7066 104.709 82.6227 104.353L82.8224 104.275C83.5825 103.97 84.3202 103.611 85.03 103.202C85.2413 103.081 85.4431 102.959 85.6354 102.834L85.8351 102.703C86.9335 101.997 87.8877 101.087 88.6465 100.022C88.7163 99.9206 88.7844 99.8173 88.8462 99.714C89.366 98.8938 89.6828 97.961 89.7702 96.9933H89.7876V96.5515V93.354H88.8225C88.767 93.2634 88.7083 93.1744 88.6465 93.0854C88.3096 92.5954 87.9235 92.1411 87.4944 91.7298C87.0794 91.3303 86.6349 90.9627 86.1648 90.6301C85.8129 90.3769 85.4347 90.1338 85.03 89.9007C81.8604 88.0636 77.7004 87.145 73.5419 87.145L73.5387 87.1387Z" fill="#FFE840"/>
<path d="M73.5387 102.654C82.511 102.654 89.7844 98.4423 89.7844 93.2473C89.7844 88.0522 82.511 83.8408 73.5387 83.8408C64.5664 83.8408 57.293 88.0522 57.293 93.2473C57.293 98.4423 64.5664 102.654 73.5387 102.654Z" fill="#FFE840"/>
<path d="M87.4913 91.7233C86.9715 90.1087 85.626 88.6228 83.5768 87.4325C80.8954 85.8799 77.3296 85.0249 73.5387 85.0249C69.7479 85.0249 66.1821 85.8799 63.5022 87.4325C61.4515 88.6181 60.106 90.104 59.5862 91.7233C59.4264 92.2155 59.3445 92.7298 59.3438 93.2474C59.3438 94.8271 60.1092 96.34 61.5387 97.6415C61.6037 97.7019 61.6686 97.7607 61.7368 97.8179C62.2855 98.2859 62.8765 98.7014 63.5022 99.0591C63.8382 99.253 64.1885 99.4373 64.5498 99.6074C64.6164 99.6407 64.6829 99.6709 64.7495 99.7011C65.6575 100.114 66.5985 100.45 67.5625 100.705L67.7606 100.76C68.6859 100.996 69.6256 101.171 70.5736 101.286L70.7717 101.311C71.6904 101.416 72.6142 101.469 73.5387 101.47H73.7844C74.725 101.462 75.6642 101.399 76.5974 101.281L76.7955 101.255C77.7448 101.129 78.6846 100.939 79.6085 100.686L79.8082 100.631C80.7742 100.359 81.7149 100.004 82.6196 99.5692C82.6862 99.539 82.7543 99.5056 82.8193 99.4723C83.0776 99.3435 83.3312 99.2069 83.5768 99.0655C84.3181 98.6442 85.0093 98.1398 85.6371 97.562C85.7052 97.4985 85.7718 97.4349 85.8368 97.3698C87.0761 96.1334 87.7385 94.7222 87.7385 93.2538C87.7368 92.7338 87.6534 92.2173 87.4913 91.7233ZM85.832 96.3559C85.7686 96.4396 85.702 96.5238 85.6323 96.6085C84.8949 97.4676 84.0118 98.1891 83.0238 98.7397L82.8193 98.8541C82.7543 98.8906 82.6878 98.9272 82.6196 98.9621C81.7218 99.4364 80.7803 99.8222 79.8082 100.114L79.6085 100.173C78.6865 100.442 77.7464 100.644 76.7955 100.779C76.7305 100.79 76.664 100.798 76.5974 100.806C75.6648 100.931 74.7253 100.999 73.7844 101.007H73.5847C72.6447 101.012 71.7053 100.959 70.7717 100.849L70.5736 100.823C69.6241 100.701 68.6842 100.513 67.7606 100.261L67.5625 100.205C66.5931 99.9311 65.6514 99.5672 64.7495 99.1179C64.6813 99.0845 64.6148 99.0511 64.5498 99.0162C64.3818 98.9283 64.217 98.8377 64.0553 98.7444C63.1991 98.2614 62.418 97.6553 61.7368 96.9455C61.6686 96.8708 61.6037 96.7977 61.5387 96.723C59.9016 94.816 59.6924 92.6085 60.9159 90.6284C61.5625 89.5811 62.6084 88.599 64.0553 87.7679C69.2852 84.7404 77.7939 84.7404 83.0238 87.7679C84.4707 88.6054 85.5166 89.5875 86.1616 90.6284C87.3074 92.4798 87.1918 94.5378 85.832 96.3559Z" fill="#FF9D4D"/>
<path d="M74.0571 91.9204L75.5864 92.8072C75.5532 92.8231 75.5183 92.8422 75.485 92.8612L74.6451 93.3475L73.2188 92.5195L73.6942 92.2462C73.8386 92.1672 73.9629 92.0557 74.0571 91.9204Z" fill="#D1975D"/>
<path d="M59.1479 97.5253V100.823C59.0779 100.734 59.0128 100.646 58.9492 100.556V97.2583C59.0128 97.3489 59.0795 97.4379 59.1479 97.5253Z" fill="#FFE840"/>
<path d="M61.7338 99.7123V103.01L61.5352 102.886V99.5884L61.7338 99.7123Z" fill="#FFE840"/>
<path d="M64.7471 101.158V104.457C64.6804 104.432 64.612 104.408 64.5469 104.381V101.083L64.7471 101.158Z" fill="#FFE840"/>
<path d="M67.7611 102.041V105.338L67.5625 105.294V101.99L67.7611 102.041Z" fill="#FFE840"/>
<path d="M70.769 102.516V105.813C70.7038 105.813 70.6371 105.801 70.5703 105.793V102.495C70.6371 102.503 70.707 102.511 70.769 102.516Z" fill="#FFE840"/>
<path d="M73.7823 102.65V105.948H73.582V102.65H73.7823Z" fill="#FFE840"/>
<path d="M76.7924 102.466V105.764L76.5938 105.786V102.489L76.7924 102.466Z" fill="#FFE840"/>
<path d="M79.8057 101.928V105.225L79.6055 105.273V101.974L79.8057 101.928Z" fill="#FFE840"/>
<path d="M82.8174 100.971V104.268L82.6172 104.346V101.047L82.8174 100.971Z" fill="#FFE840"/>
<path d="M85.8291 99.3994V102.697L85.6289 102.827V99.5297L85.8291 99.3994Z" fill="#FFE840"/>
<path d="M88.501 96.7451V100.043C88.439 100.146 88.3707 100.248 88.3008 100.351V97.0534C88.3707 96.9453 88.4375 96.8436 88.501 96.7451Z" fill="#FFE840"/>
<path d="M55.441 64.7923L52.5351 66.4747L45.2666 62.2505L44.1376 61.4898L44.1116 61.5049L44.5061 62.4133L44.5643 62.9565L41.1659 62.8111L40.818 59.1205L43.2312 57.7234L55.441 64.7923Z" fill="#FF9D4D"/>
<path d="M82.0738 95.8079L79.168 97.4903L71.8994 93.2661L70.7704 92.5054L70.7444 92.5205L71.1389 93.4289L71.1971 93.9721L67.7987 93.8267L67.4508 90.1362L69.8641 88.739L82.0738 95.8079Z" fill="#FF9D4D"/>
<path d="M161.972 110.453L159.066 112.136L151.798 107.912L150.669 107.151L150.643 107.166L151.037 108.074L151.096 108.618L147.697 108.472L147.349 104.782L149.762 103.384L161.972 110.453Z" fill="#FF9D4D"/>
<defs>
<linearGradient id="paint0_linear" x1="14017.3" y1="145329" x2="26873" y2="145329" gradientUnits="userSpaceOnUse">
<stop stop-color="#483CA6"/>
<stop offset="1" stop-color="#59278F"/>
</linearGradient>
<linearGradient id="paint1_linear" x1="36003.7" y1="267408" x2="119160" y2="267408" gradientUnits="userSpaceOnUse">
<stop stop-color="#6A5EBF"/>
<stop offset="1" stop-color="#6E3AA5"/>
</linearGradient>
</defs>
</svg>
