<svg width="74" height="78" viewBox="0 0 74 78" fill="none" xmlns="http://www.w3.org/2000/svg">
<g id="icon_5">
<circle id="Oval" cx="16.5" cy="61.7002" r="16" fill="#E4EBF7"/>
<circle id="Oval_2" cx="65" cy="9" r="9" fill="#E4EBF7"/>
<g id="loan (2)">
<path id="Path" d="M56 43L45.618 42L42.962 43.974L43 44L42.961 43.974L39.081 46.858C37.807 47.707 37.628 49.51 38.711 50.593C39.529 51.411 40.811 51.538 41.773 50.896L45.618 48L41.773 50.896C40.81 51.538 39.529 51.411 38.711 50.593C37.628 49.51 37.807 47.707 39.081 46.858L42.961 43.974L40 42L29 43L23 42V56H28L43 62L54 59L43 50L54 59L61 57V42L56 43Z" fill="#F2F8FF"/>
<g id="Group">
<path id="Path_2" d="M23 41H19V57H23V56V42V41Z" fill="#29A7FF"/>
<path id="Path_3" d="M61 42V57H65V41H61V42Z" fill="#29A7FF"/>
</g>
<path id="Path_4" d="M65 40H71V58H65V40Z" fill="#383A4A"/>
<path id="Path_5" d="M13 40H19V58H13V40Z" fill="#383A4A"/>
<path id="Shape" fill-rule="evenodd" clip-rule="evenodd" d="M71 39H65C64.448 39 64 39.447 64 40H61C60.448 40 60 40.447 60 41V41.18L55.949 41.99L45.714 41.005C45.47 40.984 45.221 41.049 45.022 41.197L42.931 42.752L40.555 41.168C40.365 41.041 40.132 40.98 39.91 41.004L29.038 41.992L24 41.153V41C24 40.447 23.552 40 23 40H20C20 39.447 19.552 39 19 39H13C12.448 39 12 39.447 12 40V44H14V41H18V57H14V46H12V58C12 58.553 12.448 59 13 59H19C19.552 59 20 58.553 20 58H23C23.552 58 24 57.553 24 57H27.808L42.629 62.929C42.748 62.976 42.874 63 43 63C43.088 63 43.177 62.988 43.263 62.965L54.263 59.965C54.265 59.9645 54.2668 59.9635 54.2685 59.9625C54.2698 59.9617 54.2712 59.961 54.2726 59.9604L54.274 59.96L54.275 59.962L61.142 58H64C64 58.553 64.448 59 65 59H71C71.552 59 72 58.553 72 58V54H70V57H66V41H70V52H72V40C72 39.447 71.552 39 71 39ZM45.905 43.032L55.904 43.995C56.002 44.004 56.099 43.999 56.196 43.98L60 43.22V56.246L54.228 57.895L44.601 50.018L46.219 48.799L45.016 47.201L41.218 50.064C40.654 50.44 39.896 50.365 39.418 49.885C39.114 49.581 38.965 49.163 39.007 48.736C39.049 48.309 39.278 47.928 39.677 47.661L45.905 43.032ZM20 56H22V42H20V56ZM43.06 60.947L28.372 55.071C28.253 55.024 28.127 55 28 55H24V43.18L28.835 43.986C28.919 44 29.006 44.004 29.09 43.996L39.738 43.028L41.225 44.019L38.526 46.026C37.668 46.597 37.118 47.513 37.016 48.54C36.914 49.565 37.274 50.572 38.003 51.3C38.658 51.954 39.528 52.295 40.415 52.295C41.088 52.295 41.77 52.099 42.374 51.695L42.956 51.257L51.865 58.546L43.06 60.947ZM62 42V56H64V42H62Z" fill="black"/>
<path id="Path_6" d="M65.2154 26.999L67 26.1322C62.2489 16.7984 52.67 11 42 11C31.33 11 21.7511 16.7984 17 26.1332L18.7846 27C23.1969 18.3307 32.0923 12.9458 42 12.9458C51.9077 12.9458 60.8031 18.3307 65.2154 26.999Z" fill="black"/>
<circle id="Oval_3" cx="42" cy="27" r="9" fill="#FABE2E" stroke="black" stroke-width="2"/>
<path id="Path_7" d="M45 25V23C45 22.4477 44.5523 22 44 22H43V21H41V22H40C39.4477 22 39 22.4477 39 23V27C39 27.5523 39.4477 28 40 28H43V30H41V29H39V31C39 31.5523 39.4477 32 40 32H44C44.5523 32 45 31.5523 45 31V27C45 26.4477 44.5523 26 44 26H41V24H43V25H45Z" fill="black"/>
</g>
</g>
</svg>
