<svg width="85" height="100" viewBox="0 0 85 100" fill="none" xmlns="http://www.w3.org/2000/svg">
<path d="M49.0371 71.2644L8.72656 47.8394L8.81823 76.5748L49.1287 99.9999L49.0371 71.2644Z" fill="#AFBEFF"/>
<path d="M84.1288 51.0059L43.8183 27.5808L8.72656 47.8392L49.0371 71.2642L84.1288 51.0059Z" fill="#6C80D7"/>
<path d="M49.0352 71.2645L49.1268 99.9999L84.2165 79.7395L84.1269 51.0061L49.0352 71.2645Z" fill="#4053A4"/>
<path d="M37.7755 44.567L58.7552 56.7587C58.8618 56.8212 58.9462 56.9005 59.0352 56.9762C60.017 56.1376 59.9333 54.5305 58.7552 53.8461L37.7755 41.6545C36.6401 40.9947 35.2385 40.9928 34.1009 41.6488C32.9195 42.3313 32.8326 43.9413 33.8157 44.7815C33.9062 44.704 33.9924 44.6238 34.1009 44.5613C35.2385 43.9053 36.6401 43.9072 37.7755 44.567Z" fill="#4C5671"/>
<path d="M55.0764 57.1914C56.2119 57.8514 57.6137 57.8533 58.751 57.1962C58.8596 57.1339 58.9456 57.0535 59.0358 56.976C58.9469 56.9004 58.8625 56.821 58.7558 56.7585L37.7762 44.5668C36.6408 43.907 35.2391 43.9051 34.1016 44.5612C33.9931 44.6237 33.9068 44.7039 33.8164 44.7814C33.9056 44.8581 33.9899 44.9374 34.0968 44.9997L55.0764 57.1914Z" fill="#373F51"/>
<path d="M19.4486 6.08844C20.4022 9.83365 18.9126 15.0639 16.1263 17.7626C14.7194 19.1201 13.2517 19.5826 12.0201 19.2314C10.8009 18.8837 9.52484 17.8201 9.05714 15.9553C8.10359 12.2103 9.24734 6.54177 12.0436 3.82677C13.4369 2.47781 15.5244 2.37093 16.7492 2.71468C17.9742 3.05864 18.9703 4.20948 19.4486 6.08844Z" fill="#704536"/>
<path d="M37.432 23.3123C39.632 29.4318 42.2193 27.8083 44.6043 30.4844C45.656 31.6575 48.4118 35.1358 47.9804 34.3669L49.2691 33.0056C49.2691 33.0056 54.5271 27.6531 55.3629 25.7527C56.1852 23.8383 54.9181 22.625 54.19 19.9689C53.4618 17.3127 51.0218 17.3937 51.0218 17.3937L50.8735 18.6608C50.105 18.9308 49.2827 19.51 48.6893 19.915C47.7727 20.5212 45.5887 18.0545 45.602 16.4766C45.6156 14.8862 46.3166 13.0529 45.966 12.1491C45.6156 11.2458 44.7798 13.6731 44.4562 14.8191C44.1327 15.9783 43.081 14.1449 43.081 14.1449C43.0002 12.3247 44.4562 9.6416 44.4562 9.6416C43.2966 10.1945 41.3418 14.347 41.1395 13.2681C40.1074 7.76389 34.1322 11.7181 33.482 15.3041C33.0237 17.9064 37.0008 22.126 37.432 23.3123Z" fill="#FFD89F"/>
<path d="M47.4475 33.3176C51.4333 35.6189 54.6536 41.1968 54.6406 45.7768C54.6277 50.3568 51.3863 52.2041 47.4004 49.9029C43.4146 47.6016 40.1942 42.0237 40.2071 37.4437C40.2202 32.8637 43.4615 31.0164 47.4475 33.3176Z" fill="#FFDD94"/>
<path d="M49.1464 30.5634C46.7125 29.1584 44.5072 29.028 42.915 29.9532L41.2227 30.9365C42.815 30.0113 45.0202 30.1418 47.4541 31.5472C52.2908 34.3395 56.1987 41.1082 56.1829 46.6662C56.1752 49.4272 55.2004 51.3695 53.6283 52.283L55.3206 51.2997C56.8927 50.3862 57.8675 48.4435 57.8752 45.6826C57.891 40.1249 53.9831 33.3561 49.1464 30.5634Z" fill="#FFDD94"/>
<path d="M47.4541 31.547C52.2908 34.3395 56.1987 41.1085 56.1829 46.666C56.1672 52.2237 52.2337 54.4654 47.397 51.6729C42.5601 48.8804 38.6522 42.1116 38.668 36.5539C38.6839 30.9962 42.6172 28.7545 47.4541 31.547ZM47.402 49.9027C51.3879 52.2039 54.6293 50.3566 54.6422 45.7766C54.6552 41.1966 51.4349 35.6187 47.4491 33.3174C43.463 31.0162 40.2218 32.8635 40.2087 37.4435C40.1957 42.0235 43.4162 47.6014 47.402 49.9027Z" fill="#FEBB61"/>
<path d="M48.1609 36.8204L48.1578 37.9521C49.2032 38.8558 49.9669 40.254 49.9638 41.3769L48.5726 40.5736C48.574 40.0981 48.0655 39.3986 47.4561 39.0469C46.8505 38.6973 46.3357 38.8058 46.3344 39.2815C46.333 39.7617 46.8455 40.4631 47.4509 40.8127C48.8347 41.6115 49.9582 43.3719 49.9542 44.7371C49.9511 45.869 49.1819 46.3821 48.1349 46.0732L48.1315 47.2048L46.7403 46.4017L46.7436 45.2698C45.698 44.3706 44.9305 42.9702 44.9336 41.8386L46.3249 42.6417C46.3236 43.1173 46.8359 43.8192 47.4415 44.1688C48.0509 44.5206 48.5617 44.4096 48.5632 43.934C48.5644 43.4581 48.0559 42.7631 47.4465 42.4115C46.063 41.6125 44.9392 39.8479 44.9432 38.4781C44.9463 37.3552 45.7194 36.8446 46.7665 37.149L46.7699 36.0171L48.1609 36.8204Z" fill="#FEBB61"/>
<path d="M53.314 25.3289C52.613 27.1628 51.8715 28.5857 52.1411 32.9001C49.6213 30.5245 48.2045 30.0614 47.8136 29.9132C47.9213 26.7041 48.272 22.5786 48.6628 21.3113C49.2965 19.2622 51.9795 18.5478 51.9795 18.5478C51.0222 18.2649 49.593 19.3161 48.6899 19.923C47.773 20.5161 45.5891 18.0628 45.6026 16.4715C45.6161 14.8943 46.317 13.0609 45.9665 12.1572C45.6161 11.254 44.7803 13.6674 44.4565 14.8265C44.133 15.9726 43.0815 14.1392 43.0815 14.1392C43.0005 12.333 44.4565 9.64966 44.4565 9.64966C43.2972 10.1888 41.3424 14.3413 41.1401 13.2632C40.9378 12.198 40.1155 10.4588 38.5111 10.499C36.9203 10.5259 33.9542 12.6963 33.4826 15.2986C33.024 17.9138 37.0011 22.1203 37.4326 23.3205C37.864 24.5068 38.8211 26.758 40.3178 27.783C41.8276 28.7941 43.3915 29.1174 44.6049 30.4793C45.1982 31.1534 46.398 32.4607 47.2338 33.3239C47.9078 34.0118 48.8492 34.8045 48.6495 36.3435C48.2449 38.2853 46.2361 39.4578 44.3082 38.9858C40.9378 38.1637 35.8417 35.3462 33.9948 32.771C31.4871 29.2793 30.0042 29.5353 30.0042 29.5353C30.0042 29.5353 25.4202 28.4572 19.1108 25.3157C15.3629 23.4553 10.6444 17.5907 10.2533 16.5928C8.86478 13.0203 10.496 7.20944 13.0979 4.68882C13.1519 4.63486 13.6373 4.24381 13.6912 4.20298C14.8642 3.12485 16.1987 3.16485 17.6144 3.75798C19.2725 4.47298 22.8048 6.60319 38.4707 2.66673C44.0926 1.25068 46.3169 1.0486 47.9078 3.66402C49.4853 6.30632 52.5053 10.8228 55.7813 14.6922C59.0438 18.5609 54.0422 23.4014 53.314 25.3289Z" fill="#FFD89F"/>
<path d="M47.0359 33.2884L45.0447 31.7159C44.8326 31.548 44.5147 31.6276 44.4234 31.8824C43.7836 33.6664 41.6705 35.6826 40.7639 36.4897C40.557 36.6741 40.5936 37.0026 40.8349 37.1382C41.4726 37.4982 42.6722 38.1349 44.0722 38.6799C46.1587 39.491 47.4737 39.1499 48.6641 37.1962C49.8314 35.2805 47.0359 33.2884 47.0359 33.2884Z" fill="#E3E7F0"/>
<path d="M35.3913 32.7874C34.4265 31.4713 33.6769 29.9938 32.5778 28.788C31.5619 27.6738 30.2834 26.8326 28.975 26.083C27.1669 25.0463 25.2432 24.1509 23.1875 23.8084C21.1306 23.4655 18.8904 23.6532 17.1094 22.5688C15.6563 21.6832 14.7936 20.1152 13.7315 18.7863C12.8444 17.6763 11.5948 16.6607 10.2344 16.5386C10.241 16.5561 10.2452 16.5754 10.2521 16.5929C10.6431 17.5911 15.3617 23.4555 19.1096 25.3159C25.419 28.4571 30.003 29.5353 30.003 29.5353C30.003 29.5353 31.4859 29.2796 33.9936 32.7711C35.6275 35.049 39.8028 37.5142 43.0782 38.6228C41.9907 37.9157 40.7721 37.3703 39.6567 36.6942C37.9973 35.6878 36.5388 34.3519 35.3913 32.7874Z" fill="#F7C9A4"/>
<path d="M0.288597 13.2683C0.753806 15.1227 1.74797 16.2734 2.95506 16.6204L12.0182 19.2371C10.798 18.8825 9.81674 17.7396 9.33841 15.8771C8.38695 12.1288 9.88445 6.89167 12.6674 4.18854C14.0734 2.82791 15.5486 2.36812 16.7688 2.7227L7.71903 0.114154C6.48819 -0.238347 5.0234 0.218737 3.61756 1.57999C0.824223 4.28562 -0.66578 9.50876 0.288597 13.2683Z" fill="#89603E"/>
</svg>
