<svg width="21" height="21" viewBox="0 0 21 21" fill="none" xmlns="http://www.w3.org/2000/svg">
<g clip-path="url(#clip0)">
<path d="M20.7335 15.341C20.6797 15.251 20.3472 14.5284 18.7471 13.0433C17.072 11.4882 17.297 11.7407 19.3146 9.05174C20.5435 7.41412 21.0347 6.41405 20.881 5.98651C20.7347 5.57898 19.8309 5.68649 19.8309 5.68649L16.8257 5.70399C16.8257 5.70399 16.6032 5.67399 16.4369 5.77275C16.2757 5.87026 16.1719 6.09527 16.1719 6.09527C16.1719 6.09527 15.6956 7.36287 15.0606 8.44045C13.7217 10.7144 13.1854 10.8344 12.9667 10.6931C12.4579 10.3643 12.5854 9.37052 12.5854 8.66546C12.5854 6.46155 12.9192 5.54273 11.9341 5.30521C11.6066 5.22646 11.3665 5.17395 10.5302 5.1652C9.45765 5.15395 8.54883 5.16895 8.03505 5.42022C7.69252 5.58774 7.42875 5.96151 7.59001 5.98276C7.78878 6.00902 8.23881 6.10402 8.47758 6.42905C8.78635 6.84783 8.7751 7.7904 8.7751 7.7904C8.7751 7.7904 8.95261 10.3843 8.36132 10.7069C7.95504 10.9281 7.39875 10.4768 6.20491 8.41294C5.59362 7.35662 5.13108 6.18778 5.13108 6.18778C5.13108 6.18778 5.04233 5.97026 4.88356 5.85401C4.69105 5.71274 4.42103 5.66774 4.42103 5.66774L1.56332 5.68524C1.56332 5.68524 1.13454 5.69774 0.977027 5.88401C0.837017 6.05027 0.965776 6.39279 0.965776 6.39279C0.965776 6.39279 3.20344 11.6269 5.73613 14.2659C8.06005 16.6848 10.6977 16.526 10.6977 16.526H11.8928C11.8928 16.526 12.2541 16.486 12.4379 16.2873C12.6079 16.1048 12.6016 15.7622 12.6016 15.7622C12.6016 15.7622 12.5779 14.1584 13.3229 13.9221C14.0567 13.6896 14.9993 15.4722 15.9981 16.1585C16.7532 16.6773 17.327 16.5635 17.327 16.5635L19.9984 16.526C19.9984 16.526 21.396 16.4398 20.7335 15.341Z" fill="#8966FF"/>
</g>
<defs>
<clipPath id="clip0">
<rect width="20" height="20" fill="white" transform="translate(0.911865 0.868164)"/>
</clipPath>
</defs>
</svg>
