<svg width="99" height="100" viewBox="0 0 99 100" fill="none" xmlns="http://www.w3.org/2000/svg">
<ellipse cx="49.4993" cy="50.6029" rx="49.4993" ry="49.3976" fill="#C6D0FF"/>
<path d="M49.4979 71.5438C61.7528 71.5438 71.6873 61.6297 71.6873 49.4001C71.6873 37.1704 61.7528 27.2563 49.4979 27.2563C37.2431 27.2563 27.3086 37.1704 27.3086 49.4001C27.3086 61.6297 37.2431 71.5438 49.4979 71.5438Z" fill="#4053A4"/>
<path d="M10.2422 17.0356V22.1457C10.2422 23.0492 10.6018 23.9157 11.2421 24.5546C11.8823 25.1935 12.7506 25.5524 13.6559 25.5524C14.5605 25.5497 15.4272 25.19 16.0668 24.5517C16.7064 23.9134 17.067 23.0484 17.0697 22.1457V17.0356H10.2422Z" fill="#FFD89F"/>
<path d="M10.2422 17.0356V19.5225C11.2791 20.1238 12.4567 20.4411 13.6559 20.4423C14.2324 20.4475 14.8068 20.373 15.3628 20.2209C15.962 20.0699 16.5367 19.8347 17.0697 19.5225V17.0356H10.2422Z" fill="#F2BC9E"/>
<path d="M23.5378 25.3619L17.0687 22.1425C17.0676 22.8547 16.8428 23.5486 16.4261 24.1266C16.0093 24.7047 15.4215 25.1379 14.7453 25.3654C14.0691 25.5928 13.3384 25.6031 12.6561 25.3947C11.9737 25.1863 11.3739 24.7698 10.9411 24.2036C10.4866 23.6123 10.2405 22.8878 10.2412 22.1425L3.77219 25.3619C2.64036 25.9315 1.68874 26.8028 1.02289 27.8792C0.357043 28.9556 0.00298807 30.195 0 31.46V37.4728H27.31V31.46C27.307 30.195 26.9529 28.9556 26.2871 27.8792C25.6212 26.8028 24.6696 25.9315 23.5378 25.3619Z" fill="#6C80D7"/>
<path d="M22.1897 3.40719V5.11055L20.4828 8.51728L15.3622 5.11055L11.9484 8.51728H6.82781L5.12094 6.81392V3.40719L3.41406 0.000457764H18.7759C19.6805 0.00315373 20.5472 0.362942 21.1868 1.00124C21.8264 1.63955 22.187 2.5045 22.1897 3.40719Z" fill="#89603E"/>
<path d="M15.3625 5.10788L11.9487 8.51461H6.82812V11.9213C6.83263 13.727 7.5534 15.4574 8.83283 16.7342C10.1123 18.011 11.8462 18.7303 13.6556 18.7348C14.2321 18.74 14.8065 18.6655 15.3625 18.5134C15.9617 18.3623 16.5364 18.1272 17.0694 17.815C18.5602 16.9596 19.6704 15.5717 20.1759 13.9313C20.1759 13.9268 20.1777 13.9225 20.1809 13.9193C20.1841 13.9161 20.1884 13.9143 20.1929 13.9143C20.386 13.2675 20.4837 12.5962 20.4831 11.9213V8.51461L15.3625 5.10788ZM81.9305 78.3526V83.4627C81.9305 84.3662 82.2902 85.2327 82.9304 85.8716C83.5706 86.5105 84.4389 86.8694 85.3443 86.8694C86.2488 86.8667 87.1156 86.5069 87.7552 85.8686C88.3948 85.2303 88.7553 84.3654 88.758 83.4627V78.3526H81.9305Z" fill="#FFD89F"/>
<path d="M81.9297 78.354V80.8409C82.9666 81.4422 84.1442 81.7595 85.3434 81.7607C85.9199 81.7659 86.4943 81.6914 87.0503 81.5393C87.6495 81.3882 88.2242 81.1531 88.7572 80.8409V78.354H81.9297Z" fill="#F2BC9E"/>
<path d="M95.2272 86.6866L88.7582 83.4673C88.757 84.1794 88.5323 84.8733 88.1155 85.4513C87.6988 86.0294 87.111 86.4626 86.4348 86.6901C85.7585 86.9175 85.0279 86.9278 84.3455 86.7194C83.6632 86.511 83.0634 86.0945 82.6305 85.5283C82.176 84.937 81.93 84.2125 81.9307 83.4673L75.4616 86.6866C74.3298 87.2562 73.3782 88.1275 72.7123 89.2039C72.0465 90.2803 71.6924 91.5197 71.6895 92.7847V98.7975H98.9994V92.7847C98.9964 91.5197 98.6424 90.2803 97.9765 89.2039C97.3107 88.1275 96.3591 87.2562 95.2272 86.6866Z" fill="#6C80D7"/>
<path d="M93.8772 64.7255V66.4289L92.1703 69.8356L87.0497 66.4289L83.6359 69.8356H78.5153L76.8084 68.1323V64.7255L75.1016 61.3188H90.4634C91.368 61.3215 92.2347 61.6813 92.8743 62.3196C93.5139 62.9579 93.8745 63.8229 93.8772 64.7255Z" fill="#89603E"/>
<path d="M87.05 66.4321L83.6362 69.8388H78.5156V73.2456C78.5201 75.0512 79.2409 76.7816 80.5203 78.0584C81.7998 79.3352 83.5337 80.0545 85.3431 80.059C85.9196 80.0642 86.494 79.9897 87.05 79.8376C87.6492 79.6865 88.2239 79.4514 88.7569 79.1392C90.2477 78.2838 91.3579 76.8959 91.8634 75.2555C91.8634 75.251 91.8652 75.2467 91.8684 75.2435C91.8716 75.2403 91.8759 75.2385 91.8804 75.2385C92.0735 74.5917 92.1712 73.9204 92.1706 73.2456V69.8388L87.05 66.4321Z" fill="#FFD89F"/>
<path d="M47.2055 54.9732C46.6178 54.4828 46.2652 53.7473 46.2652 53.1343H44.502C44.502 54.3602 45.0897 55.5862 46.0301 56.4443C46.7353 57.0573 47.6757 57.5477 48.6161 57.6702V59.3661H50.3793V57.6702C51.3197 57.5477 52.26 57.0573 52.9653 56.4443C53.9057 55.5862 54.4934 54.3602 54.4934 53.1343C54.4934 51.9084 53.9057 50.6824 52.9653 49.8243C52.0249 48.9661 50.8495 48.4758 49.5565 48.4758C48.7336 48.4758 47.9108 48.2306 47.2055 47.6176C46.6178 47.1272 46.2652 46.3917 46.2652 45.7787C46.2652 45.0431 46.6178 44.4302 47.2055 43.9398C48.381 42.8365 50.6144 42.8365 51.7898 43.9398C52.3776 44.4302 52.7302 45.1657 52.7302 45.7787H54.4934C54.4934 44.5528 53.9057 43.3268 52.9653 42.4687C52.26 41.8557 51.3197 41.4879 50.3793 41.2428V39.4243H48.6161V41.2428C47.6757 41.3653 46.7353 41.7331 46.0301 42.4687C45.0897 43.3268 44.502 44.5528 44.502 45.7787C44.502 47.0046 45.0897 48.2306 46.0301 49.0887C46.9704 49.9469 48.1459 50.4372 49.4389 50.4372C50.2617 50.4372 51.0846 50.6824 51.7898 51.2954C52.3776 51.7858 52.7302 52.5213 52.7302 53.1343C52.7302 53.8699 52.3776 54.4828 51.7898 54.9732C50.6144 56.0765 48.4985 56.0765 47.2055 54.9732Z" fill="#C6D0FF"/>
<path d="M49.4984 66.4311C52.8743 66.4311 56.1744 65.432 58.9813 63.5604C61.7882 61.6887 63.976 59.0284 65.2679 55.9159C66.5598 52.8034 66.8978 49.3785 66.2392 46.0743C65.5806 42.7701 63.9549 39.735 61.5678 37.3528C59.1807 34.9706 56.1394 33.3483 52.8284 32.691C49.5174 32.0338 46.0854 32.3711 42.9665 33.6604C39.8476 34.9496 37.1818 37.1328 35.3063 39.934C33.4308 42.7352 32.4297 46.0285 32.4297 49.3974C32.4347 53.9135 34.2346 58.2432 37.4345 61.4365C40.6344 64.6299 44.973 66.4261 49.4984 66.4311ZM49.4984 35.7705C52.1991 35.7705 54.8392 36.5697 57.0847 38.067C59.3303 39.5644 61.0805 41.6926 62.114 44.1826C63.1475 46.6726 63.4179 49.4125 62.891 52.0559C62.3641 54.6992 61.0636 57.1273 59.1539 59.0331C57.2443 60.9388 54.8112 62.2367 52.1624 62.7625C49.5136 63.2883 46.768 63.0184 44.2729 61.987C41.7778 60.9556 39.6451 59.209 38.1447 56.9681C36.6443 54.7272 35.8434 52.0926 35.8434 49.3974C35.8475 45.7846 37.2875 42.3209 39.8474 39.7662C42.4073 37.2115 45.8781 35.7745 49.4984 35.7705Z" fill="#C6D0FF"/>
</svg>
