<svg width="77" height="79" viewBox="0 0 77 79" fill="none" xmlns="http://www.w3.org/2000/svg">
<g id="icon_1">
<circle id="Oval" cx="16.5" cy="62.7002" r="16" fill="#E4EBF7"/>
<circle id="Oval_2" cx="67.5" cy="9.70007" r="9" fill="#E4EBF7"/>
<g id="hack (1)">
<path id="Path" d="M17.431 67.7002H66.569C68.74 67.7002 70.5 65.9093 70.5 63.7002H13.5C13.5 65.9093 15.26 67.7002 17.431 67.7002Z" fill="#E4EBF7"/>
<g id="Group">
<ellipse id="Oval_3" cx="18.4636" cy="14.7001" rx="1.96364" ry="2" fill="#29A7FF"/>
<ellipse id="Oval_4" cx="68.5364" cy="17.7001" rx="1.96364" ry="2" fill="#29A7FF"/>
<ellipse id="Oval_5" cx="59.7" cy="11.7001" rx="1.96364" ry="2" fill="#29A7FF"/>
<ellipse id="Oval_6" cx="43.0091" cy="17.7001" rx="1.96364" ry="2" fill="#29A7FF"/>
</g>
<path id="Path_2" d="M18.5 30.7001H65.5V63.7001H18.5V30.7001Z" fill="#E4EBF7"/>
<path id="Path_3" d="M22.5 33.7001H61.5V59.7001H22.5V33.7001Z" fill="#383A4A"/>
<path id="Path_4" d="M50.5 38.7001H39.5V34.7001C39.5 34.1478 39.9477 33.7001 40.5 33.7001H49.5C49.5 31.4909 47.7091 29.7001 45.5 29.7001H39.5C37.2909 29.7001 35.5 31.4909 35.5 33.7001V38.7001H34.5C32.8431 38.7001 31.5 40.0432 31.5 41.7001V51.7001C31.5 53.3569 32.8431 54.7001 34.5 54.7001H50.5C52.1569 54.7001 53.5 53.3569 53.5 51.7001V41.7001C53.5 40.0432 52.1569 38.7001 50.5 38.7001Z" fill="#FABE2E"/>
<path id="Path_5" d="M34.5 33.7001V37.7001C32.2909 37.7001 30.5 39.4909 30.5 41.7001V51.7001C30.5 53.9092 32.2909 55.7001 34.5 55.7001H50.5C52.7091 55.7001 54.5 53.9092 54.5 51.7001V41.7001C54.5 39.4909 52.7091 37.7001 50.5 37.7001H49.5V39.7001H50.5C51.6046 39.7001 52.5 40.5955 52.5 41.7001V51.7001C52.5 52.8046 51.6046 53.7001 50.5 53.7001H34.5C33.3954 53.7001 32.5 52.8046 32.5 51.7001V41.7001C32.5 40.5955 33.3954 39.7001 34.5 39.7001H46.5V37.7001H40.5V34.7001H44.5V32.7001H40.5C39.3954 32.7001 38.5 33.5955 38.5 34.7001V37.7001H36.5V33.7001C36.5 32.0432 37.8431 30.7001 39.5 30.7001H45.5C47.1569 30.7001 48.5 32.0432 48.5 33.7001H50.5C50.4967 30.94 48.2601 28.7034 45.5 28.7001H39.5C36.7399 28.7034 34.5033 30.94 34.5 33.7001Z" fill="black"/>
<path id="Path_6" d="M45.5 44.7001V42.7001C45.5 42.1478 45.0523 41.7001 44.5 41.7001H43.5V40.7001H41.5V41.7001H40.5C39.9477 41.7001 39.5 42.1478 39.5 42.7001V46.7001C39.5 47.2524 39.9477 47.7001 40.5 47.7001H43.5V49.7001H41.5V48.7001H39.5V50.7001C39.5 51.2524 39.9477 51.7001 40.5 51.7001H44.5C45.0523 51.7001 45.5 51.2524 45.5 50.7001V46.7001C45.5 46.1478 45.0523 45.7001 44.5 45.7001H41.5V43.7001H43.5V44.7001H45.5Z" fill="black"/>
<path id="Path_7" d="M51.7619 34.7001H60.5476V58.7001H23.4524V34.7001H32.2381V32.7001H22.4762C21.9371 32.7001 21.5 33.1478 21.5 33.7001V59.7001C21.5 60.2524 21.9371 60.7001 22.4762 60.7001H61.5238C62.0629 60.7001 62.5 60.2524 62.5 59.7001V33.7001C62.5 33.1478 62.0629 32.7001 61.5238 32.7001H51.7619V34.7001Z" fill="black"/>
<path id="Shape" fill-rule="evenodd" clip-rule="evenodd" d="M13.4833 62.7002H70.5167C71.0597 62.7002 71.5 63.1479 71.5 63.7002C71.4967 66.4602 69.2974 68.6969 66.5833 68.7002H17.4167C14.7026 68.6969 12.5033 66.4602 12.5 63.7002C12.5 63.1479 12.9403 62.7002 13.4833 62.7002ZM17.4167 66.7002H66.5833C67.8331 66.6986 68.9469 65.8979 69.3652 64.7002H14.6348C15.0531 65.8979 16.1669 66.6986 17.4167 66.7002Z" fill="black"/>
<path id="Path_8" d="M17.5 30.6688V60.7001H19.5V31.6376H32.5V29.7001H18.5C17.9477 29.7001 17.5 30.1338 17.5 30.6688Z" fill="black"/>
<path id="Path_9" d="M51.5 31.6376H64.5V60.7001H66.5V30.6688C66.5 30.1338 66.0523 29.7001 65.5 29.7001H51.5V31.6376Z" fill="black"/>
<path id="Shape_2" fill-rule="evenodd" clip-rule="evenodd" d="M18.8477 11.7204C20.3645 11.8971 21.5065 13.1842 21.5002 14.7102C21.4949 15.9759 20.6946 17.1019 19.5003 17.5238V20.7051H24.5C25.0523 20.7051 25.5 21.1525 25.5 21.7043V26.7001H23.5001V22.7034H18.5003C17.948 22.7034 17.5003 22.2561 17.5003 21.7043V17.5238C16.0605 17.0151 15.233 15.5069 15.5781 14.0204C15.9232 12.5339 17.3308 11.5438 18.8477 11.7204ZM19.5003 14.7102C19.5003 14.1583 19.0526 13.711 18.5003 13.711C17.948 13.711 17.5003 14.1583 17.5003 14.7102C17.5003 15.262 17.948 15.7093 18.5003 15.7093C19.0526 15.7093 19.5003 15.262 19.5003 14.7102Z" fill="black"/>
<path id="Shape_3" fill-rule="evenodd" clip-rule="evenodd" d="M65.655 16.7422C66.0639 15.5189 67.2112 14.6958 68.5011 14.7001C70.0668 14.6977 71.3701 15.902 71.4909 17.4629C71.6118 19.0239 70.5096 20.4144 68.9621 20.6531L66.2079 23.4071C66.0203 23.5946 65.766 23.7 65.5008 23.7001H58.5002V26.7001H56.5V22.7001C56.5 22.1478 56.9478 21.7001 57.5001 21.7001H65.0868L66.7009 20.0851C65.6677 19.313 65.2461 17.9654 65.655 16.7422ZM67.501 17.7001C67.501 18.2524 67.9487 18.7001 68.5011 18.7001C69.0534 18.7001 69.5011 18.2524 69.5011 17.7001C69.5011 17.1478 69.0534 16.7001 68.5011 16.7001C67.9487 16.7001 67.501 17.1478 67.501 17.7001Z" fill="black"/>
<path id="Shape_4" fill-rule="evenodd" clip-rule="evenodd" d="M51.5 20.7042C51.4993 20.3465 51.69 20.0157 52 19.8368L58.4998 16.1234V14.5245C57.1223 14.0378 56.296 12.6301 56.5431 11.191C56.7901 9.75197 58.0387 8.70007 59.4998 8.70007C60.9609 8.70007 62.2094 9.75197 62.4565 11.191C62.7036 12.6301 61.8773 14.0378 60.4998 14.5245V16.707C60.5005 17.0647 60.3098 17.3955 59.9998 17.5744L53.5 21.2838V26.7001H51.5V20.7042ZM60.4998 11.7104C60.4998 11.1585 60.0521 10.7111 59.4998 10.7111C58.9475 10.7111 58.4998 11.1585 58.4998 11.7104C58.4998 12.2623 58.9475 12.7097 59.4998 12.7097C60.0521 12.7097 60.4998 12.2623 60.4998 11.7104Z" fill="black"/>
<path id="Path_10" d="M25.5 8.70007V15.7001C25.4999 16.0039 25.6379 16.2912 25.875 16.4811L30.5 20.1801V26.7001H32.5V19.7001C32.5001 19.3963 32.3621 19.1089 32.125 18.9191L27.5 15.2201V8.70007L25.5 8.70007Z" fill="black"/>
<path id="Path_11" d="M30.5 10.7001V13.7001C30.4999 14.0039 30.6379 14.2912 30.875 14.4811L35.5 18.1801V23.7001H37.5V17.7001C37.5001 17.3963 37.3621 17.1089 37.125 16.9191L32.5 13.2201V10.7001L30.5 10.7001Z" fill="black"/>
<path id="Shape_5" fill-rule="evenodd" clip-rule="evenodd" d="M49.5 11.7001C49.4999 12.1886 49.1468 12.6055 48.6651 12.6861L43.5006 13.5471V14.8871C44.6986 15.3045 45.5013 16.4343 45.5013 17.7031C45.5013 18.9718 44.6986 20.1017 43.5006 20.5191V21.9191L46.7433 22.7301C47.1881 22.8415 47.5002 23.2414 47.5002 23.7001V26.7001H45.5004V24.4811L42.2577 23.6701C41.8128 23.5586 41.5008 23.1588 41.5008 22.7001V20.5161C40.3027 20.0987 39.5 18.9688 39.5 17.7001C39.5 16.4313 40.3027 15.3015 41.5008 14.8841V12.7001C41.5009 12.2116 41.8539 11.7947 42.3357 11.7141L47.5002 10.8531V8.70007H49.5V11.7001ZM41.5008 17.7001C41.5008 18.2524 41.9484 18.7001 42.5007 18.7001C43.0529 18.7001 43.5006 18.2524 43.5006 17.7001C43.5006 17.1478 43.0529 16.7001 42.5007 16.7001C41.9484 16.7001 41.5008 17.1478 41.5008 17.7001Z" fill="black"/>
</g>
</g>
</svg>
