<svg width="129" height="82" viewBox="0 0 129 82" fill="none" xmlns="http://www.w3.org/2000/svg">
<path d="M88.1127 7.1514C88.2161 6.27964 88.5425 5.44933 89.0605 4.74086C89.5785 4.03238 90.2705 3.46976 91.0695 3.1074C92.6618 2.39465 94.3733 1.9865 96.1156 1.90405C98.8036 1.5804 101.516 1.50775 104.217 1.68706C105.562 1.73569 106.876 2.10423 108.051 2.76217C110.515 4.33047 111.126 7.69391 110.623 10.653C110.506 11.8062 109.982 12.8798 109.145 13.6811C108.633 14.0411 108.063 14.3113 107.46 14.48C102.301 16.1383 96.827 16.5672 91.4736 15.7326C89.8769 15.4861 88.0438 14.914 87.5312 13.3753" fill="#8440A4"/>
<path d="M39.1815 5.56341C39.0866 4.69559 38.769 3.86709 38.2596 3.15846C37.7501 2.44984 37.0661 1.88518 36.2741 1.51938C34.6852 0.806711 32.9769 0.398541 31.2377 0.316031C28.5502 -0.0123882 25.8376 -0.0850467 23.1363 0.0990333C21.7886 0.143084 20.4709 0.508296 19.2925 1.16431C16.8286 2.74246 16.2175 6.14536 16.73 9.05509C16.8447 10.209 17.3692 11.2835 18.2084 12.0832C18.7191 12.4439 19.2897 12.7111 19.8937 12.8723C25.0205 14.5332 30.4628 14.9789 35.7911 14.1742C37.3779 13.9277 39.2209 13.3457 39.7334 11.8169" fill="#8440A4"/>
<path d="M63.8791 7.97022C54.0233 8.21681 41.6543 6.85565 38.3231 5.89889C34.9918 4.94213 20.5826 0.661395 13.5554 7.48692C6.52826 14.3125 -0.420075 59.6055 0.0628592 68.9759C0.545793 78.3462 12.4417 84.8659 19.5872 80.7331C26.7326 76.6003 36.5687 57.2186 38.9538 56.9029C41.3389 56.5873 48.1591 59.7634 52.6041 56.5873C55.0191 54.9153 57.255 52.9982 59.2765 50.8665C59.2765 50.8665 68.1467 50.541 68.9549 50.541C69.763 50.541 72.7691 56.5873 77.0563 57.8499C81.3436 59.1124 89.1198 56.7451 90.2335 56.2618C91.3472 55.7785 98.8081 70.406 106.427 77.7149C114.045 85.0237 128.178 80.5753 128.967 68.9759C129.755 57.3764 116.273 15.2791 111.66 9.23275C107.048 3.18644 90.5489 4.952 83.5611 7.01347C76.5734 9.07493 70.0193 7.81241 63.8791 7.97022Z" fill="#6C80D7"/>
<path d="M106.377 70.2486C98.7588 62.9397 91.298 48.3221 90.1843 48.7955C89.0706 49.269 81.3141 51.6559 77.0071 50.3836C72.7001 49.1112 69.704 43.0747 68.9056 43.0747C68.1073 43.0747 59.2272 43.4002 59.2272 43.4002C57.2058 45.5319 54.9698 47.449 52.5549 49.121C48.1099 52.2971 41.2897 49.121 38.9046 49.4367C36.5195 49.7523 26.6834 69.1636 19.538 73.2668C12.836 77.1432 1.93552 71.6394 0.230463 63.2061C0.0395622 65.1232 -0.0328526 67.0502 0.0136343 68.9762C0.486712 78.3465 12.3925 84.8663 19.538 80.7335C26.6834 76.6007 36.5195 57.2189 38.9046 56.9033C41.2897 56.5877 48.1099 59.7637 52.5549 56.5877C54.9698 54.9157 57.2058 52.9986 59.2272 50.8669C59.2272 50.8669 68.0975 50.5414 68.9056 50.5414C69.7138 50.5414 72.7198 56.5877 77.0071 57.8502C81.2944 59.1127 89.0706 56.7455 90.1843 56.2622C91.298 55.7789 98.7588 70.4064 106.377 77.7152C113.996 85.0241 128.129 80.5757 128.918 68.9762C128.987 67.1725 128.888 65.3662 128.622 63.5809C126.394 73.6121 113.523 77.1037 106.377 70.2486Z" fill="#4053A4"/>
<path d="M40.943 35.2225C46.4431 29.7181 46.4431 20.7937 40.9429 15.2893C35.4428 9.78485 26.5254 9.78484 21.0253 15.2892C15.5251 20.7937 15.5251 29.7181 21.0253 35.2225C26.5254 40.7269 35.4428 40.7269 40.943 35.2225Z" fill="#4053A4"/>
<path d="M39.5718 33.9583C45.072 28.4539 45.072 19.5295 39.5718 14.0251C34.0717 8.52069 25.1543 8.52069 19.6542 14.0251C14.154 19.5295 14.154 28.4539 19.6542 33.9583C25.1543 39.4627 34.0717 39.4627 39.5718 33.9583Z" fill="#B275CF"/>
<path d="M29.6112 38.0831C31.7939 38.0827 33.9465 37.5735 35.8984 36.5959C37.8503 35.6183 39.5479 34.1992 40.8566 32.451C39.4349 32.5118 38.0107 32.4192 36.6088 32.1749C34.2745 31.7186 32.0219 30.914 29.9266 29.7879C26.4566 28.1235 23.4201 25.6755 21.0563 22.6369C19.5549 20.6295 18.5424 18.2991 18.0996 15.8311C16.6016 17.9376 15.7119 20.4161 15.5279 22.995C15.344 25.574 15.8728 28.1538 17.0566 30.4519C18.2404 32.75 20.0334 34.6777 22.2392 36.0238C24.445 37.3698 26.9784 38.0823 29.5619 38.0831H29.6112Z" fill="#8440A4"/>
<path d="M108.943 35.9695C114.443 30.4651 114.443 21.5407 108.943 16.0363C103.443 10.5319 94.5254 10.5319 89.0253 16.0363C83.5251 21.5407 83.5251 30.4651 89.0253 35.9695C94.5254 41.474 103.443 41.474 108.943 35.9695Z" fill="#4053A4"/>
<path d="M110.423 33.9461C115.924 28.4417 115.924 19.5173 110.423 14.0129C104.923 8.50847 96.0058 8.50847 90.5057 14.0129C85.0056 19.5173 85.0056 28.4417 90.5057 33.9461C96.0058 39.4505 104.923 39.4505 110.423 33.9461Z" fill="#B275CF"/>
<path d="M100.473 38.0831C102.654 38.0812 104.804 37.5713 106.754 36.5937C108.705 35.6162 110.4 34.1979 111.708 32.451C110.286 32.5118 108.862 32.4192 107.46 32.1749C105.126 31.7171 102.874 30.9125 100.778 29.7879C97.3082 28.1235 94.2717 25.6755 91.9079 22.6369C90.4064 20.6295 89.394 18.2991 88.9512 15.8311C87.4527 17.9382 86.5629 20.4177 86.3793 22.9975C86.1957 25.5773 86.7255 28.1579 87.9104 30.4563C89.0954 32.7548 90.8899 34.6823 93.0971 36.0276C95.3043 37.3729 97.839 38.0841 100.423 38.0831H100.473Z" fill="#8440A4"/>
<path d="M80.5164 54.8221C85.7528 54.8221 89.9977 50.5738 89.9977 45.3334C89.9977 40.0929 85.7528 35.8447 80.5164 35.8447C75.2801 35.8447 71.0352 40.0929 71.0352 45.3334C71.0352 50.5738 75.2801 54.8221 80.5164 54.8221Z" fill="#B275CF"/>
<path d="M80.5262 54.822C81.9945 54.8208 83.4423 54.477 84.7546 53.8178C86.0668 53.1586 87.2074 52.2022 88.0856 51.0245C87.1293 51.0641 86.1715 51.0046 85.2274 50.847C83.6583 50.5358 82.1439 49.994 80.7332 49.2393C78.3973 48.1183 76.3554 46.4667 74.7704 44.416C73.759 43.069 73.0833 41.5001 72.7993 39.8394C71.7888 41.2572 71.1883 42.9263 71.0635 44.6633C70.9386 46.4003 71.2944 48.1382 72.0917 49.6862C72.8891 51.2342 74.0971 52.5324 75.5832 53.4384C77.0694 54.3443 78.7762 54.8231 80.5164 54.822H80.5262Z" fill="#8440A4"/>
<path d="M80.5167 51.4286C83.8806 51.4286 86.6075 48.6995 86.6075 45.3329C86.6075 41.9664 83.8806 39.2373 80.5167 39.2373C77.1528 39.2373 74.4258 41.9664 74.4258 45.3329C74.4258 48.6995 77.1528 51.4286 80.5167 51.4286Z" fill="#6C80D7"/>
<path d="M80.5271 51.4585C81.4704 51.4581 82.4007 51.2377 83.2441 50.8148C84.0876 50.392 84.8209 49.7782 85.386 49.0222C84.7692 49.047 84.1515 49.0074 83.543 48.9039C82.5338 48.7058 81.5603 48.3567 80.6552 47.8682C79.1547 47.147 77.8422 46.0867 76.8213 44.7711C76.1764 43.8964 75.7444 42.8832 75.5598 41.812C74.914 42.7214 74.5299 43.7907 74.4495 44.9034C74.369 46.0161 74.5953 47.1296 75.1036 48.1225C75.6118 49.1154 76.3826 49.9497 77.332 50.5345C78.2814 51.1192 79.3729 51.432 80.4877 51.4388L80.5271 51.4585Z" fill="#4053A4"/>
<path d="M46.0203 54.8221C51.2567 54.8221 55.5016 50.5738 55.5016 45.3334C55.5016 40.0929 51.2567 35.8447 46.0203 35.8447C40.784 35.8447 36.5391 40.0929 36.5391 45.3334C36.5391 50.5738 40.784 54.8221 46.0203 54.8221Z" fill="#B275CF"/>
<path d="M46.0223 54.822C47.4906 54.8208 48.9384 54.477 50.2507 53.8178C51.5629 53.1586 52.7035 52.2022 53.5817 51.0245C52.6254 51.0641 51.6676 51.0046 50.7235 50.847C49.1548 50.5342 47.6406 49.9925 46.2293 49.2393C43.8959 48.1143 41.8549 46.4634 40.2665 44.416C39.2591 43.0668 38.5837 41.4988 38.2954 39.8394C37.2849 41.2572 36.6844 42.9263 36.5596 44.6633C36.4347 46.4003 36.7905 48.1382 37.5878 49.6862C38.3851 51.2342 39.5932 52.5324 41.0793 53.4384C42.5655 54.3443 44.2723 54.8231 46.0124 54.822H46.0223Z" fill="#8440A4"/>
<path d="M46.0206 51.4286C49.3845 51.4286 52.1114 48.6995 52.1114 45.3329C52.1114 41.9664 49.3845 39.2373 46.0206 39.2373C42.6567 39.2373 39.9297 41.9664 39.9297 45.3329C39.9297 48.6995 42.6567 51.4286 46.0206 51.4286Z" fill="#6C80D7"/>
<path d="M46.0186 51.4585C46.9621 51.4589 47.8927 51.2388 48.7362 50.8159C49.5797 50.3929 50.313 49.7787 50.8775 49.0222C50.264 49.047 49.6496 49.0073 49.0443 48.9039C48.0316 48.7075 47.0546 48.3583 46.1467 47.8682C44.6475 47.1494 43.3377 46.0886 42.3227 44.7711C41.6699 43.9009 41.2371 42.8857 41.0612 41.812C40.4117 42.7205 40.0246 43.7904 39.9423 44.9044C39.86 46.0184 40.0857 47.1336 40.5946 48.1278C41.1036 49.122 41.8761 49.9568 42.8276 50.5408C43.7791 51.1248 44.8729 51.4355 45.989 51.4388L46.0186 51.4585Z" fill="#4053A4"/>
<path d="M36.9734 20.0818H33.5238V16.6296C33.5212 15.8691 33.2182 15.1405 32.6809 14.6028C32.1436 14.0651 31.4156 13.7619 30.6558 13.7593H28.5762C27.8164 13.7619 27.0884 14.0651 26.5511 14.6028C26.0138 15.1405 25.7108 15.8691 25.7082 16.6296V20.0818H22.2587C21.5005 20.0844 20.774 20.3862 20.237 20.9218C19.7 21.4574 19.3958 22.1834 19.3906 22.9422V25.0332C19.3932 25.7937 19.6962 26.5222 20.2335 27.06C20.7708 27.5977 21.4988 27.9009 22.2587 27.9035H25.7082V31.3557C25.7134 32.1145 26.0175 32.8405 26.5545 33.3761C27.0916 33.9117 27.8181 34.2135 28.5762 34.2161H30.6558C31.4139 34.2135 32.1405 33.9117 32.6775 33.3761C33.2145 32.8405 33.5186 32.1145 33.5238 31.3557V27.9035H36.9734C37.7323 27.9009 38.4593 27.5974 38.995 27.0594C39.5307 26.5214 39.8316 25.7928 39.8315 25.0332V22.9422C39.829 22.1843 39.527 21.4583 38.9915 20.9224C38.4561 20.3866 37.7306 20.0844 36.9734 20.0818Z" fill="#61287B"/>
<path d="M35.2969 21.0007H32.6556V18.3573C32.6556 17.7739 32.424 17.2145 32.0118 16.802C31.5996 16.3895 31.0406 16.1577 30.4577 16.1577H28.8709C28.288 16.1577 27.729 16.3895 27.3168 16.802C26.9046 17.2145 26.6731 17.7739 26.6731 18.3573V21.0007H24.0317C23.4522 21.0033 22.8972 21.2348 22.4875 21.6449C22.0777 22.055 21.8463 22.6104 21.8438 23.1904V24.8277C21.8437 25.4094 22.0739 25.9674 22.484 26.3796C22.894 26.7918 23.4505 27.0247 24.0317 27.0273H26.6731V29.6707C26.6757 30.2523 26.9084 30.8093 27.3203 31.2196C27.7322 31.63 28.2897 31.8604 28.8709 31.8604H30.369C30.9502 31.8604 31.5077 31.63 31.9196 31.2196C32.3315 30.8093 32.5642 30.2523 32.5668 29.6707V27.0273H35.2969C35.8781 27.0247 36.4346 26.7918 36.8446 26.3796C37.2547 25.9674 37.4849 25.4094 37.4849 24.8277V23.2298C37.4888 22.9393 37.4352 22.6509 37.3271 22.3813C37.219 22.1117 37.0586 21.8661 36.8552 21.6588C36.6517 21.4516 36.4093 21.2867 36.1418 21.1738C35.8744 21.0608 35.5872 21.002 35.2969 21.0007Z" fill="#B275CF"/>
<path d="M29.8963 25.2515C30.7128 25.2515 31.3747 24.5891 31.3747 23.772C31.3747 22.9549 30.7128 22.2925 29.8963 22.2925C29.0799 22.2925 28.418 22.9549 28.418 23.772C28.418 24.5891 29.0799 25.2515 29.8963 25.2515Z" fill="#61287B"/>
<path d="M100.602 21.0585C102.894 21.0585 104.752 19.1993 104.752 16.9059C104.752 14.6126 102.894 12.7534 100.602 12.7534C98.3108 12.7534 96.4531 14.6126 96.4531 16.9059C96.4531 19.1993 98.3108 21.0585 100.602 21.0585Z" fill="#6C80D7"/>
<path d="M101.783 19.4314C101.107 19.4314 100.441 19.2656 99.8431 18.9483C99.2455 18.631 98.7347 18.1719 98.3554 17.6113C97.9761 17.0507 97.7399 16.4056 97.6674 15.7324C97.5949 15.0593 97.6884 14.3786 97.9397 13.75C97.4566 14.1557 97.0724 14.6665 96.8167 15.2434C96.5609 15.8204 96.4402 16.4481 96.4638 17.0789C96.4875 17.7096 96.6548 18.3266 96.9531 18.8827C97.2513 19.4388 97.6726 19.9194 98.1848 20.2877C98.6969 20.656 99.2864 20.9024 99.9082 21.0079C100.53 21.1135 101.168 21.0754 101.772 20.8967C102.377 20.718 102.933 20.4033 103.398 19.9767C103.863 19.5501 104.224 19.0228 104.454 18.4352C103.71 19.0739 102.764 19.4271 101.783 19.4314Z" fill="#61287B"/>
<path d="M113.158 24.235C113.158 25.0563 112.915 25.8592 112.459 26.5421C112.003 27.2249 111.355 27.7572 110.597 28.0715C109.838 28.3858 109.004 28.468 108.199 28.3078C107.394 28.1476 106.655 27.7521 106.075 27.1713C105.494 26.5906 105.099 25.8507 104.939 25.0452C104.779 24.2397 104.861 23.4047 105.175 22.6459C105.489 21.8872 106.021 21.2386 106.703 20.7823C107.386 20.3261 108.188 20.0825 109.009 20.0825C110.109 20.0825 111.165 20.52 111.943 21.2988C112.721 22.0775 113.158 23.1337 113.158 24.235Z" fill="#6C80D7"/>
<path d="M110.2 26.8004C109.523 26.8038 108.855 26.6407 108.256 26.3252C107.657 26.0098 107.144 25.5518 106.764 24.9916C106.383 24.4313 106.146 23.786 106.073 23.1124C106 22.4389 106.094 21.7577 106.346 21.1289C105.863 21.5346 105.479 22.0454 105.223 22.6223C104.967 23.1993 104.846 23.827 104.87 24.4578C104.894 25.0885 105.061 25.7055 105.359 26.2616C105.658 26.8177 106.079 27.2983 106.591 27.6666C107.103 28.0349 107.693 28.2813 108.314 28.3868C108.936 28.4924 109.574 28.4543 110.179 28.2756C110.784 28.0969 111.34 27.7822 111.804 27.3556C112.269 26.929 112.631 26.4017 112.861 25.8141C112.119 26.4494 111.176 26.7991 110.2 26.8004Z" fill="#61287B"/>
<path d="M100.602 35.1146C102.894 35.1146 104.752 33.2555 104.752 30.9621C104.752 28.6687 102.894 26.8096 100.602 26.8096C98.3108 26.8096 96.4531 28.6687 96.4531 30.9621C96.4531 33.2555 98.3108 35.1146 100.602 35.1146Z" fill="#6C80D7"/>
<path d="M101.783 33.4869C101.107 33.4887 100.441 33.3244 99.843 33.0083C99.2452 32.6922 98.7341 32.234 98.3546 31.674C97.975 31.114 97.7387 30.4693 97.6663 29.7965C97.594 29.1237 97.6877 28.4434 97.9395 27.8154C97.4624 28.2223 97.0841 28.7326 96.8332 29.3075C96.5824 29.8825 96.4657 30.507 96.4919 31.1338C96.5181 31.7606 96.6865 32.3732 96.9844 32.9252C97.2824 33.4772 97.7019 33.954 98.2114 34.3196C98.7208 34.6852 99.3067 34.9299 99.9246 35.0352C100.543 35.1405 101.176 35.1037 101.778 34.9274C102.38 34.7512 102.933 34.4402 103.397 34.018C103.861 33.5958 104.222 33.0735 104.454 32.4907C103.71 33.1295 102.763 33.4826 101.783 33.4869Z" fill="#61287B"/>
<path d="M91.868 28.4964C94.1596 28.4964 96.0173 26.6373 96.0173 24.3439C96.0173 22.0505 94.1596 20.1914 91.868 20.1914C89.5765 20.1914 87.7188 22.0505 87.7188 24.3439C87.7188 26.6373 89.5765 28.4964 91.868 28.4964Z" fill="#6C80D7"/>
<path d="M93.0626 26.8683C92.3856 26.8717 91.7182 26.7085 91.1191 26.3931C90.52 26.0777 90.0075 25.6197 89.6268 25.0595C89.2462 24.4992 89.0089 23.8539 88.9361 23.1803C88.8632 22.5067 88.957 21.8256 89.209 21.1968C88.7319 21.6037 88.3536 22.1139 88.1027 22.6889C87.8519 23.2638 87.7352 23.8884 87.7614 24.5152C87.7876 25.142 87.9561 25.7546 88.254 26.3065C88.5519 26.8585 88.9714 27.3354 89.4809 27.701C89.9903 28.0665 90.5762 28.3113 91.1942 28.4166C91.8121 28.5219 92.4459 28.485 93.0475 28.3088C93.6492 28.1325 94.2028 27.8215 94.6665 27.3994C95.1301 26.9772 95.4917 26.4549 95.7237 25.8721C94.9832 26.5102 94.0398 26.8634 93.0626 26.8683Z" fill="#61287B"/>
<path d="M124.58 51.36C116.202 50.6301 105.785 53.8456 100.266 60.4739C100.167 60.5922 100.266 60.7994 100.443 60.7007C104.109 58.0968 107.411 55.769 111.688 54.181C115.839 52.8049 120.22 52.2619 124.58 52.5831C125.378 52.6225 125.349 51.4586 124.58 51.36Z" fill="#4053A4"/>
<path d="M3.76 51.36C12.1374 50.6301 22.555 53.8456 28.0742 60.4739C28.1728 60.5922 28.0742 60.7994 27.8968 60.7007C24.2305 58.0968 20.9288 55.769 16.6514 54.181C12.5011 52.8049 8.12032 52.2619 3.76 52.5831C2.97154 52.6225 3.0011 51.4586 3.76 51.36Z" fill="#4053A4"/>
<path d="M83.5125 7.0134C76.5346 9.07486 70.0199 7.81234 63.8009 7.99974C58.0939 8.0892 52.3868 7.83228 46.7109 7.23039C46.7277 7.82852 46.7836 8.4249 46.8785 9.01568L48.7117 21.7494C48.6768 22.3154 48.7671 22.8821 48.9761 23.4092C49.1851 23.9363 49.5077 24.4107 49.9208 24.7988C50.334 25.1868 50.8276 25.479 51.3665 25.6543C51.9053 25.8296 52.4762 25.8839 53.0384 25.8132C58.0628 26.4176 63.1165 26.7469 68.1768 26.7995C71.7113 26.9714 75.2507 26.5819 78.6634 25.6455C79.1433 25.559 79.5868 25.332 79.9377 24.9931C80.2886 24.6542 80.5311 24.2188 80.6346 23.7419C82.6027 18.309 83.7616 12.6161 84.0742 6.8457L83.5125 7.0134Z" fill="#4053A4"/>
</svg>
