<svg width="100" height="100" viewBox="0 0 100 100" fill="none" xmlns="http://www.w3.org/2000/svg">
<path d="M91.5 38.7101H8.5L0 53.2262V100H100V53.2262L91.5 38.7101Z" fill="#6C80D7"/>
<path d="M27.7259 40.523H10.2373L0 52.9379V99.8138H32.418V52.9379L27.7259 40.523Z" fill="#4D63BF"/>
<path d="M22.581 66.1295H9.67773V88.7101H22.581V66.1295Z" fill="#AFBEFF"/>
<path d="M22.581 75.8069H9.67773V79.0327H22.581V75.8069Z" fill="#4053A4"/>
<path d="M90.3231 66.1295H77.4199V88.7101H90.3231V66.1295Z" fill="#AFBEFF"/>
<path d="M90.3231 75.8069H77.4199V79.0327H90.3231V75.8069Z" fill="#4053A4"/>
<path d="M62.872 0.000457764H49.9688V9.67787H62.872V0.000457764Z" fill="#8440A4"/>
<path d="M51.7512 23.4779V0.000457764H48.5254V23.4763L50.1383 20.3972L51.7512 23.4779Z" fill="#6C80D7"/>
<path d="M91.5 38.7101H8.5L0 53.2262H100L91.5 38.7101Z" fill="#4053A4"/>
<path d="M71.1073 53.2263H29.1719V100H71.1073V53.2263Z" fill="#4053A4"/>
<path d="M50.1384 19.3553L32.3965 53.2262V100H67.8803V53.2262L50.1384 19.3553Z" fill="#6C80D7"/>
<path d="M50.138 67.7424C47.1963 67.691 44.3546 68.8098 42.2375 70.8528C40.1204 72.8959 38.9011 75.6959 38.8477 78.6376V100H61.4283V78.6376C61.3749 75.6959 60.1556 72.8959 58.0385 70.8528C55.9214 68.8098 53.0797 67.691 50.138 67.7424Z" fill="#4053A4"/>
<path d="M50.3188 54.1906C53.8819 54.1906 56.7704 51.3021 56.7704 47.739C56.7704 44.1758 53.8819 41.2874 50.3188 41.2874C46.7557 41.2874 43.8672 44.1758 43.8672 47.739C43.8672 51.3021 46.7557 54.1906 50.3188 54.1906Z" fill="#4053A4"/>
</svg>
