<svg width="157" height="168" viewBox="0 0 157 168" fill="none" xmlns="http://www.w3.org/2000/svg">
<mask id="mask0" mask-type="alpha" maskUnits="userSpaceOnUse" x="0" y="0" width="157" height="168">
<path d="M111.795 6.51769C132.776 17.2106 151.942 35.5903 156.2 61.1786C160.438 86.6449 147.159 110.205 132.338 129.961C117.46 149.792 99.0507 168.121 76.062 167.999C52.4265 167.875 32.0176 150.856 17.9582 129.358C3.96075 107.954 -4.46145 80.9229 2.47839 55.4802C9.14662 31.0333 30.1336 17.0607 51.1572 7.64433C70.9326 -1.21305 92.4025 -3.36537 111.795 6.51769Z" fill="#E672D7"/>
</mask>
<g mask="url(#mask0)">
<path d="M-0.902608 45.6621L147.902 133.972" stroke="#15234F"/>
<path d="M-44.0354 83.1392L104.77 171.449" stroke="#15234F"/>
<path d="M-14.7034 57.293L134.102 145.603" stroke="#15234F"/>
<path d="M-57.8362 94.7695L90.9688 183.08" stroke="#15234F"/>
<path d="M-26.7815 70.2158L122.023 158.526" stroke="#15234F"/>
<path d="M84.4737 151.885C106.85 151.885 124.99 141.426 124.99 128.523C124.99 115.62 106.85 105.161 84.4737 105.161C62.0969 105.161 43.957 115.62 43.957 128.523C43.957 141.426 62.0969 151.885 84.4737 151.885Z" fill="#9879C2" fill-opacity="0.5"/>
<path d="M110.708 121.127V125.319V125.899H110.686C110.57 127.167 110.153 128.39 109.469 129.465C109.387 129.598 109.298 129.733 109.207 129.867C108.35 131.123 107.111 132.313 105.505 133.381L105.243 133.552C104.987 133.714 104.722 133.875 104.448 134.035C103.511 134.571 102.537 135.04 101.534 135.44L101.274 135.543C100.067 136.01 98.8305 136.394 97.5718 136.693C97.4844 136.717 97.4004 136.736 97.3096 136.756C96.0886 137.039 94.8527 137.253 93.6077 137.396L93.3455 137.425C92.1166 137.561 90.8816 137.633 89.6453 137.643H89.3831C88.1469 137.646 86.9113 137.587 85.6813 137.463C85.5938 137.463 85.5099 137.446 85.419 137.437C84.1756 137.307 82.9403 137.107 81.7189 136.84L81.4567 136.782C80.1997 136.499 78.9631 136.133 77.7548 135.686C77.6674 135.654 77.5834 135.621 77.4926 135.587C76.357 135.156 75.2573 134.637 74.2037 134.033C74.0649 133.953 73.9261 133.87 73.7924 133.788L73.5302 133.627C72.1185 132.768 70.8661 131.671 69.8283 130.385C69.7358 130.269 69.6569 130.153 69.5661 130.043C68.663 128.835 68.1093 127.403 67.9654 125.903H67.9414V121.131H69.2113C69.321 120.959 69.441 120.788 69.5661 120.605C69.6501 120.487 69.7375 120.372 69.8283 120.263C70.1752 119.819 70.5532 119.4 70.9595 119.01C71.5059 118.487 72.0908 118.005 72.7093 117.569C73.1743 117.239 73.6724 116.92 74.2037 116.612C82.5535 111.799 96.091 111.799 104.441 116.612C104.972 116.919 105.47 117.238 105.934 117.569C106.553 118.004 107.138 118.486 107.683 119.01C108.248 119.549 108.756 120.145 109.2 120.786C109.281 120.903 109.358 121.019 109.431 121.129L110.708 121.127Z" fill="#FF9D4D"/>
<path d="M89.3292 113.253C94.9952 113.253 100.318 114.522 104.317 116.827C104.831 117.129 105.333 117.445 105.791 117.772C106.396 118.201 106.969 118.674 107.504 119.188C108.056 119.715 108.552 120.298 108.987 120.925C109.061 121.031 109.134 121.144 109.213 121.267L109.288 121.389H110.442V125.637L110.421 125.878C110.309 127.105 109.906 128.288 109.244 129.327C109.169 129.451 109.083 129.582 108.989 129.719C108.132 130.976 106.905 132.135 105.357 133.163L105.1 133.334C104.848 133.495 104.586 133.656 104.313 133.812C103.389 134.341 102.43 134.805 101.441 135.2L101.182 135.301C99.9859 135.765 98.7594 136.146 97.5111 136.443L97.2557 136.504C96.0431 136.784 94.8158 136.996 93.5795 137.139L93.3225 137.168C92.1016 137.303 90.8746 137.375 89.6463 137.384H89.3875H89.3155C88.1158 137.384 86.8956 137.323 85.7062 137.204L85.4508 137.179C84.2166 137.049 82.9905 136.851 81.7781 136.587L81.5193 136.528C80.2735 136.247 79.0477 135.884 77.85 135.441L77.8174 135.431L77.5912 135.344C76.4666 134.918 75.3777 134.402 74.3349 133.803C74.1961 133.723 74.0607 133.642 73.9271 133.56L73.6683 133.403C72.282 132.558 71.0518 131.481 70.0315 130.219C69.951 130.117 69.8601 130.007 69.7779 129.877C68.9018 128.708 68.3652 127.321 68.2269 125.868L68.2063 125.627V121.396H69.3597L69.4368 121.272C69.5431 121.101 69.6579 120.93 69.7796 120.759C69.855 120.651 69.9373 120.54 70.0332 120.417C70.373 119.983 70.743 119.573 71.1404 119.191C71.6754 118.677 72.2482 118.204 72.8542 117.776C73.3152 117.447 73.8122 117.129 74.3281 116.831C78.3264 114.525 83.6479 113.257 89.3138 113.257L89.3292 113.253ZM89.3292 112.991C83.8587 112.991 78.3864 114.19 74.2115 116.601C73.6803 116.908 73.1821 117.227 72.7171 117.558C72.0986 117.994 71.5137 118.476 70.9673 118.999C70.561 119.39 70.183 119.808 69.8361 120.252C69.7453 120.369 69.6648 120.483 69.5739 120.595C69.4488 120.766 69.3288 120.937 69.2192 121.12H67.9492V125.892H67.9732C68.1171 127.393 68.6708 128.825 69.5739 130.033C69.6579 130.149 69.7453 130.265 69.8361 130.375C70.8739 131.66 72.1263 132.757 73.538 133.617L73.8002 133.778C73.9339 133.86 74.0727 133.949 74.2115 134.022C75.2651 134.626 76.3648 135.146 77.5004 135.577C77.5861 135.611 77.6718 135.643 77.7626 135.676C78.9709 136.123 80.2076 136.489 81.4645 136.771L81.7267 136.83C82.9481 137.097 84.1834 137.296 85.4268 137.427C85.5142 137.435 85.5982 137.446 85.6891 137.453C86.8887 137.572 88.1038 137.632 89.319 137.632H89.6617C90.898 137.623 92.133 137.55 93.3619 137.415L93.6241 137.386C94.8691 137.242 96.105 137.028 97.326 136.746C97.4134 136.725 97.4973 136.706 97.5882 136.682C98.8469 136.383 100.084 135.999 101.29 135.532L101.551 135.429C102.554 135.03 103.527 134.56 104.464 134.024C104.738 133.866 105.003 133.705 105.259 133.541L105.521 133.37C107.127 132.302 108.361 131.113 109.223 129.856C109.314 129.723 109.395 129.588 109.486 129.454C110.17 128.379 110.587 127.157 110.702 125.889H110.725V125.308V121.117H109.455C109.381 120.999 109.304 120.882 109.223 120.774C108.779 120.133 108.271 119.537 107.707 118.998C107.161 118.474 106.576 117.992 105.957 117.556C105.5 117.227 105.002 116.908 104.464 116.6C100.289 114.193 94.8169 112.99 89.3447 112.99L89.3292 112.991Z" fill="#FFE840"/>
<path d="M89.3253 133.324C101.133 133.324 110.705 127.805 110.705 120.997C110.705 114.189 101.133 108.669 89.3253 108.669C77.5175 108.669 67.9453 114.189 67.9453 120.997C67.9453 127.805 77.5175 133.324 89.3253 133.324Z" fill="#FFE840"/>
<path d="M107.689 118.999C107.004 116.883 105.235 114.936 102.538 113.38C99.0089 111.345 94.3113 110.225 89.3292 110.225C84.3471 110.225 79.6478 111.345 76.119 113.38C73.4214 114.936 71.6493 116.883 70.9655 118.999C70.7565 119.644 70.6495 120.318 70.6484 120.996C70.6484 123.068 71.6545 125.05 73.5362 126.756C73.6202 126.835 73.7076 126.912 73.7985 126.986C74.5194 127.599 75.2963 128.144 76.119 128.613C76.5634 128.867 77.0233 129.107 77.4986 129.334L77.7608 129.455C78.9558 129.997 80.1941 130.437 81.4627 130.772L81.7249 130.842C82.9421 131.15 84.1781 131.379 85.4251 131.527L85.6873 131.559C86.8964 131.695 88.1124 131.763 89.3292 131.761H89.6514C90.8885 131.751 92.124 131.668 93.3515 131.515C93.4389 131.503 93.5229 131.492 93.6137 131.479C94.8629 131.314 96.0997 131.066 97.3156 130.736C97.4047 130.712 97.487 130.688 97.5778 130.66C98.85 130.306 100.089 129.841 101.28 129.271C101.365 129.231 101.451 129.187 101.54 129.144C101.883 128.975 102.215 128.797 102.538 128.61C103.511 128.058 104.419 127.397 105.242 126.64C105.333 126.556 105.413 126.469 105.504 126.388C107.138 124.767 108.008 122.917 108.008 120.993C108.007 120.316 107.899 119.643 107.689 118.999ZM105.504 125.07C105.42 125.181 105.333 125.291 105.242 125.402C104.273 126.527 103.113 127.473 101.814 128.194C101.727 128.245 101.643 128.295 101.545 128.346L101.285 128.487C100.102 129.108 98.8627 129.613 97.583 129.996L97.3208 130.073C96.1073 130.426 94.8702 130.691 93.6189 130.868C93.5332 130.881 93.4458 130.893 93.3567 130.904C92.13 131.068 90.8942 131.156 89.6565 131.167H89.3943C88.1571 131.17 86.9208 131.097 85.6924 130.95L85.4302 130.915C84.1813 130.756 82.9449 130.51 81.7301 130.179L81.4678 130.106C80.1925 129.746 78.9533 129.27 77.766 128.682L77.5038 128.548C77.2827 128.434 77.065 128.314 76.8525 128.191C75.7247 127.563 74.6957 126.773 73.7985 125.846C73.7076 125.748 73.6271 125.652 73.5362 125.553C71.3802 123.061 71.1077 120.161 72.7153 117.566C73.5722 116.197 74.9433 114.905 76.8474 113.801C83.7284 109.833 94.9265 109.833 101.809 113.801C103.713 114.898 105.09 116.187 105.94 117.566C107.446 119.99 107.302 122.688 105.504 125.07Z" fill="#FF9D4D"/>
<path d="M90.0146 119.258L92.0267 120.42C91.9809 120.441 91.9363 120.464 91.893 120.49L90.7876 121.127L88.9023 120.042L89.5227 119.684C89.7177 119.582 89.8862 119.436 90.0146 119.258Z" fill="#D1975D"/>
<path d="M96.0335 124.153L98.09 125.343L99.3223 124.631L97.2537 123.433L97.3085 123.398C97.3988 123.343 97.4862 123.285 97.5708 123.227C97.844 123.038 98.0983 122.822 98.33 122.584C98.6351 122.286 98.8607 121.916 98.9864 121.509C99.0849 121.152 99.0381 120.771 98.8561 120.449C98.6722 120.107 98.3214 119.785 97.8038 119.482C97.7267 119.439 97.6479 119.395 97.5708 119.356C97.4936 119.316 97.3994 119.268 97.3085 119.227C96.6377 118.918 95.9168 118.731 95.18 118.676C94.6553 118.636 94.1279 118.652 93.6067 118.724C93.5198 118.735 93.4324 118.749 93.3445 118.765C93.0296 118.824 92.7188 118.902 92.4138 119C92.5686 118.798 92.6643 118.558 92.6903 118.306C92.7163 118.053 92.6716 117.799 92.5612 117.57C92.2851 117.044 91.8545 116.616 91.3273 116.341C90.9081 116.108 90.4613 115.927 89.9974 115.804C89.4873 115.665 88.964 115.58 88.436 115.551C87.9017 115.521 87.3657 115.553 86.8388 115.646C86.3345 115.731 85.8494 115.905 85.406 116.16L85.017 116.384L83.0255 115.234L81.7915 115.944L83.7779 117.089L82.2783 117.955L80.2919 116.81L79.058 117.521L81.0443 118.666L78.8438 119.936L81.4625 121.447L81.7247 121.598L85.4248 123.73L85.6871 123.883L89.3889 126.017L89.6512 126.168L91.0959 127.001L93.2999 125.733L95.3565 126.923L96.5904 126.211L94.5339 125.012L96.0335 124.153ZM91.8997 120.49C91.943 120.465 91.9876 120.441 92.0334 120.42C92.2125 120.335 92.4021 120.273 92.5972 120.237C92.8485 120.19 93.1043 120.171 93.3599 120.181H93.401C93.4747 120.181 93.5484 120.189 93.6221 120.198C93.8275 120.219 94.0309 120.256 94.2305 120.309C94.4895 120.376 94.7384 120.476 94.9709 120.608C95.1658 120.715 95.3367 120.86 95.473 121.035C95.5796 121.175 95.6422 121.343 95.653 121.519C95.6552 121.691 95.601 121.859 95.4987 121.997C95.4253 122.098 95.3369 122.188 95.2365 122.264C95.1819 122.308 95.1247 122.349 95.0651 122.387L95.012 122.419L94.0608 122.967L94.0266 122.988L93.6272 123.217L93.365 123.368L92.527 123.852L91.473 124.46L88.2321 122.594L88.5749 122.394L89.2844 121.986L89.3872 121.926L89.6494 121.776L90.784 121.12L91.8997 120.49ZM85.4248 118.486L85.6871 118.334L85.8139 118.26L86.5388 117.841C86.58 117.817 86.6262 117.8 86.6708 117.777C86.8218 117.703 86.9804 117.646 87.1438 117.606C87.3949 117.548 87.6523 117.522 87.9099 117.529C88.4285 117.538 88.9366 117.677 89.3872 117.933L89.4215 117.952C89.5038 118 89.5792 118.05 89.6494 118.099C89.9785 118.335 90.1413 118.586 90.1379 118.852C90.135 118.997 90.0911 119.139 90.0111 119.26C89.9136 119.396 89.7909 119.512 89.6494 119.602C89.61 119.628 89.5689 119.653 89.5243 119.679L89.3872 119.758L88.9039 120.037L87.4026 120.903L86.993 121.139L86.3486 121.51L85.9921 121.303L85.5911 121.074L85.4197 120.976L84.6639 120.54L83.2569 119.729L83.6476 119.503L84.3092 119.121L85.4248 118.486Z" fill="#FF9D4D"/>
<path d="M70.3908 126.605V130.926C70.2984 130.81 70.2196 130.694 70.1289 130.584V126.262C70.2128 126.372 70.3052 126.49 70.3908 126.605Z" fill="#FFE840"/>
<path d="M73.797 129.47V133.792L73.5352 133.631V129.307C73.6207 129.362 73.708 129.417 73.797 129.47Z" fill="#FFE840"/>
<path d="M77.7619 131.366V135.69C77.6746 135.657 77.5907 135.625 77.5 135.59V131.269C77.5856 131.301 77.6763 131.335 77.7619 131.366Z" fill="#FFE840"/>
<path d="M81.7228 132.522V136.843L81.4609 136.785V132.463L81.7228 132.522Z" fill="#FFE840"/>
<path d="M85.6877 133.145V137.467C85.6004 137.467 85.5165 137.45 85.4258 137.441V133.119C85.5131 133.128 85.6004 133.138 85.6877 133.145Z" fill="#FFE840"/>
<path d="M89.6525 133.322V137.644H89.3906V133.322H89.6525Z" fill="#FFE840"/>
<path d="M93.6134 133.074V137.398L93.3516 137.427V133.105C93.4394 133.097 93.5267 133.087 93.6134 133.074Z" fill="#FFE840"/>
<path d="M97.5783 132.373V136.694C97.491 136.718 97.4071 136.737 97.3164 136.758V132.434C97.4043 132.416 97.4916 132.395 97.5783 132.373Z" fill="#FFE840"/>
<path d="M101.541 131.12V135.442L101.281 135.544V131.221L101.541 131.12Z" fill="#FFE840"/>
<path d="M105.504 129.059V133.377L105.242 133.548V129.225C105.331 129.173 105.418 129.117 105.504 129.059Z" fill="#FFE840"/>
<path d="M109.021 125.574V129.896C108.938 130.031 108.85 130.166 108.758 130.3V125.978C108.85 125.846 108.938 125.709 109.021 125.574Z" fill="#FFE840"/>
<path d="M124.491 117.801V121.991V122.57H124.463C124.348 123.838 123.932 125.06 123.248 126.135C123.166 126.27 123.077 126.404 122.984 126.537C122.127 127.794 120.89 128.983 119.284 130.051L119.022 130.223C118.766 130.386 118.5 130.547 118.225 130.705C117.288 131.242 116.315 131.711 115.312 132.111L115.049 132.213C113.844 132.68 112.607 133.065 111.349 133.363C111.262 133.387 111.178 133.406 111.087 133.427C109.866 133.709 108.63 133.923 107.385 134.067L107.123 134.096C105.893 134.231 104.658 134.304 103.421 134.313H103.16C101.924 134.32 100.688 134.263 99.4569 134.142L99.1964 134.117C97.9525 133.986 96.7167 133.787 95.4945 133.521L95.2323 133.461C93.9755 133.178 92.7388 132.812 91.5304 132.366L91.2682 132.266C90.1332 131.836 89.034 131.316 87.9811 130.712C87.8405 130.632 87.7034 130.541 87.568 130.467L87.3058 130.307C85.8945 129.446 84.6421 128.35 83.604 127.065C83.5114 126.948 83.4326 126.832 83.3417 126.722C82.4385 125.515 81.8854 124.082 81.7427 122.582H81.7188V117.801H82.9887C83.0984 117.63 83.2166 117.449 83.3417 117.276C83.4257 117.156 83.5131 117.041 83.604 116.925C83.9514 116.481 84.33 116.062 84.7368 115.672C85.2825 115.148 85.8675 114.666 86.4866 114.231C86.9436 113.9 87.4418 113.581 87.9811 113.274C96.3291 108.461 109.867 108.461 118.216 113.274C118.75 113.582 119.248 113.901 119.711 114.231C120.329 114.667 120.914 115.149 121.461 115.672C122.025 116.211 122.533 116.806 122.976 117.449C123.058 117.565 123.133 117.681 123.209 117.801H124.491Z" fill="#FF9D4D"/>
<path d="M103.11 109.928C108.776 109.928 114.098 111.198 118.098 113.503C118.612 113.803 119.113 114.119 119.57 114.446C120.176 114.875 120.749 115.348 121.284 115.862C121.836 116.389 122.334 116.971 122.768 117.599C122.842 117.705 122.915 117.818 122.993 117.942L123.07 118.063H124.223V122.311L124.204 122.553C124.092 123.78 123.688 124.962 123.025 126.002C122.95 126.125 122.864 126.257 122.77 126.394C121.913 127.65 120.686 128.809 119.14 129.838L118.883 130.009C118.631 130.17 118.369 130.33 118.096 130.486C117.172 131.015 116.212 131.479 115.224 131.874L114.963 131.975C113.767 132.439 112.541 132.821 111.292 133.117C111.207 133.139 111.121 133.16 111.037 133.179C109.825 133.458 108.598 133.67 107.362 133.814L107.104 133.843C105.883 133.977 104.656 134.049 103.428 134.058H103.169H103.098C101.89 134.058 100.677 133.997 99.4892 133.887C99.4035 133.887 99.3178 133.87 99.2338 133.862C97.9996 133.732 96.7734 133.534 95.5611 133.269L95.3006 133.211C94.0551 132.93 92.8293 132.567 91.6313 132.126L91.6004 132.114L91.3725 132.027C90.2479 131.6 89.1591 131.085 88.1162 130.486L87.7066 130.245L87.4495 130.086C86.0629 129.241 84.8326 128.164 83.8128 126.902C83.7322 126.799 83.6414 126.69 83.5574 126.56C82.6405 125.283 82.1178 123.934 82.015 122.551L81.9961 122.31V118.061H83.1495L83.2266 117.938C83.3312 117.767 83.4477 117.596 83.5694 117.425C83.6448 117.317 83.7288 117.206 83.8248 117.082C84.1641 116.648 84.5341 116.238 84.9319 115.857C85.4669 115.343 86.0397 114.87 86.6457 114.441C87.1085 114.113 87.6038 113.794 88.1196 113.498C92.118 111.193 97.4411 109.923 103.107 109.923L103.11 109.928ZM103.11 109.666C97.6382 109.666 92.166 110.864 87.9928 113.276C87.4604 113.584 86.9622 113.903 86.4983 114.232C85.8792 114.668 85.2943 115.15 84.7485 115.674C84.3417 116.064 83.9631 116.483 83.6157 116.927C83.5248 117.043 83.4443 117.158 83.3535 117.277C83.2284 117.449 83.1101 117.62 83.0004 117.803H81.7305V122.573H81.7545C81.8971 124.074 82.4503 125.506 83.3535 126.714C83.4374 126.83 83.5248 126.947 83.6157 127.056C84.6539 128.341 85.9062 129.438 87.3176 130.298L87.5798 130.459C87.7152 130.541 87.8523 130.63 87.9928 130.704C89.0457 131.307 90.1449 131.827 91.2799 132.258L91.5421 132.357C92.7506 132.803 93.9872 133.169 95.244 133.453L95.5062 133.512C96.7284 133.778 97.9642 133.977 99.2081 134.108L99.4686 134.134C100.675 134.252 101.888 134.309 103.1 134.305H103.433C104.67 134.295 105.905 134.223 107.135 134.088L107.397 134.058C108.642 133.914 109.878 133.701 111.099 133.418C111.186 133.398 111.27 133.379 111.361 133.355C112.619 133.056 113.855 132.672 115.061 132.205L115.323 132.102C116.326 131.703 117.3 131.233 118.237 130.697C118.513 130.537 118.779 130.376 119.034 130.214L119.296 130.043C120.902 128.975 122.134 127.785 122.996 126.529C123.089 126.395 123.178 126.262 123.26 126.127C123.944 125.052 124.36 123.829 124.475 122.561H124.499V121.983V117.801H123.229C123.154 117.681 123.078 117.565 122.996 117.449C122.553 116.806 122.045 116.211 121.481 115.672C120.935 115.149 120.35 114.667 119.731 114.231C119.266 113.9 118.768 113.581 118.237 113.274C114.062 110.867 108.59 109.664 103.119 109.664L103.11 109.666Z" fill="#FFE840"/>
<path d="M103.11 129.991C114.918 129.991 124.49 124.472 124.49 117.664C124.49 110.856 114.918 105.337 103.11 105.337C91.3026 105.337 81.7305 110.856 81.7305 117.664C81.7305 124.472 91.3026 129.991 103.11 129.991Z" fill="#FFE840"/>
<path d="M121.472 115.667C120.787 113.551 119.016 111.604 116.319 110.048C112.79 108.014 108.093 106.893 103.11 106.893C98.1283 106.893 93.429 108.014 89.902 110.048C87.2044 111.604 85.4323 113.551 84.7485 115.667C84.5381 116.312 84.4305 116.986 84.4297 117.664C84.4297 119.736 85.4374 121.718 87.3175 123.424C87.4032 123.503 87.4906 123.58 87.5797 123.655C88.302 124.267 89.0794 124.812 89.902 125.281C90.3441 125.535 90.8051 125.776 91.273 126.002L91.5352 126.123C92.7304 126.664 93.9687 127.104 95.2371 127.44L95.4993 127.51C96.7171 127.818 97.9537 128.047 99.2012 128.194L99.4617 128.227C100.671 128.364 101.887 128.432 103.104 128.431H103.165H103.426C104.663 128.42 105.9 128.338 107.128 128.184L107.39 128.15C108.639 127.984 109.876 127.735 111.092 127.405L111.354 127.332C112.625 126.976 113.863 126.51 115.054 125.94C115.142 125.901 115.225 125.858 115.316 125.814C115.659 125.644 115.991 125.466 116.312 125.28C117.286 124.727 118.194 124.066 119.018 123.309C119.107 123.226 119.19 123.138 119.28 123.058C120.912 121.437 121.783 119.588 121.783 117.663C121.784 116.985 121.679 116.312 121.472 115.667ZM119.287 121.738C119.203 121.849 119.116 121.961 119.025 122.07C118.056 123.195 116.896 124.14 115.597 124.862L115.328 125.014C115.243 125.062 115.157 125.108 115.066 125.155C113.884 125.776 112.645 126.281 111.366 126.664C111.279 126.69 111.195 126.717 111.104 126.741C109.89 127.093 108.653 127.359 107.402 127.536C107.315 127.549 107.228 127.561 107.14 127.571C105.912 127.736 104.676 127.824 103.438 127.835H103.177C101.939 127.838 100.703 127.765 99.4737 127.618L99.2132 127.583C97.9635 127.425 96.7265 127.179 95.5113 126.847L95.2491 126.774C93.9739 126.414 92.7347 125.937 91.5472 125.35L91.285 125.216C91.0639 125.102 90.8463 124.982 90.6337 124.858C89.5076 124.226 88.4804 123.432 87.5849 122.502C87.4957 122.404 87.4135 122.308 87.3226 122.209C85.1683 119.717 84.8941 116.817 86.5034 114.222C87.3603 112.853 88.7314 111.562 90.6337 110.457C97.5165 106.489 108.715 106.489 115.597 110.457C117.501 111.556 118.878 112.843 119.728 114.222C121.229 116.658 121.083 119.356 119.287 121.738Z" fill="#FF9D4D"/>
<path d="M103.794 115.918L105.808 117.081C105.762 117.102 105.716 117.125 105.673 117.151L104.569 117.788L102.684 116.702L103.306 116.345C103.5 116.243 103.667 116.097 103.794 115.918Z" fill="#D1975D"/>
<path d="M113.423 121.653L110.505 123.336L103.207 119.111L102.073 118.351L102.047 118.366L102.443 119.274L102.502 119.817L99.0897 119.672L98.7404 115.982L101.163 114.584L113.423 121.653Z" fill="#FF9D4D"/>
<path d="M84.172 123.278V127.6C84.0796 127.484 84.0009 127.367 83.9102 127.258V122.936C83.994 123.039 84.0813 123.157 84.172 123.278Z" fill="#FFE840"/>
<path d="M87.5783 126.137V130.468L87.3164 130.307V125.983C87.402 126.03 87.4893 126.084 87.5783 126.137Z" fill="#FFE840"/>
<path d="M91.5392 128.033V132.35L91.2773 132.251V127.929L91.5392 128.033Z" fill="#FFE840"/>
<path d="M95.5002 129.191V133.513L95.2383 133.453V129.131L95.5002 129.191Z" fill="#FFE840"/>
<path d="M99.4672 129.812V134.134L99.207 134.108V129.783L99.4672 129.812Z" fill="#FFE840"/>
<path d="M103.432 129.99V134.312H103.172V129.99H103.432Z" fill="#FFE840"/>
<path d="M107.395 129.744V134.062L107.133 134.091V129.769L107.395 129.744Z" fill="#FFE840"/>
<path d="M111.36 129.041V133.362C111.272 133.386 111.188 133.405 111.098 133.426V129.099L111.36 129.041Z" fill="#FFE840"/>
<path d="M115.32 127.788V132.11L115.059 132.212V127.889L115.32 127.788Z" fill="#FFE840"/>
<path d="M119.285 125.726V130.048L119.023 130.219V125.897C119.112 125.846 119.2 125.784 119.285 125.726Z" fill="#FFE840"/>
<path d="M122.801 122.251V126.573C122.719 126.707 122.63 126.842 122.539 126.976V122.645C122.63 122.512 122.717 122.376 122.801 122.251Z" fill="#FFE840"/>
<path d="M109.263 109.185V113.377V113.957H109.241C109.125 115.225 108.708 116.447 108.024 117.522C107.942 117.656 107.852 117.791 107.762 117.924C106.905 119.181 105.666 120.37 104.06 121.438L103.799 121.61C103.542 121.772 103.277 121.933 103.002 122.092C102.065 122.628 101.092 123.098 100.089 123.498L99.8284 123.6C98.622 124.067 97.3852 124.452 96.1265 124.75C96.0391 124.774 95.9551 124.793 95.8643 124.814C94.6433 125.096 93.4074 125.31 92.1624 125.454L91.9019 125.483C90.6724 125.618 89.4369 125.691 88.2 125.7H87.9378C86.7016 125.704 85.466 125.644 84.2359 125.521C84.1485 125.521 84.0646 125.504 83.9737 125.495C82.7302 125.364 81.495 125.165 80.2736 124.898L80.0113 124.839C78.7544 124.557 77.5177 124.191 76.3095 123.744C76.2221 123.711 76.1381 123.679 76.0473 123.645C74.9117 123.214 73.8119 122.694 72.7584 122.091C72.6196 122.01 72.4808 121.928 72.3471 121.846L72.0849 121.685C70.6735 120.825 69.4212 119.728 68.383 118.443C68.2905 118.327 68.2116 118.21 68.1208 118.101C67.2177 116.893 66.664 115.461 66.5201 113.96H66.4961V109.188H67.766C67.8774 109.017 67.9957 108.846 68.1208 108.663C68.2048 108.545 68.2922 108.43 68.383 108.32C68.7299 107.877 69.1079 107.458 69.5141 107.067C70.0606 106.544 70.6455 106.062 71.264 105.626C71.729 105.296 72.2271 104.978 72.7584 104.669C81.1082 99.8563 94.6457 99.8563 102.996 104.669C103.527 104.976 104.024 105.295 104.488 105.626C105.107 106.061 105.692 106.543 106.238 107.067C106.802 107.607 107.31 108.202 107.755 108.844C107.835 108.961 107.912 109.077 107.986 109.186L109.263 109.185Z" fill="#FF9D4D"/>
<path d="M87.8839 101.312C93.5498 101.312 98.873 102.58 102.871 104.886C103.386 105.187 103.888 105.504 104.345 105.83C104.951 106.259 105.524 106.732 106.059 107.246C106.611 107.774 107.107 108.356 107.542 108.983C107.617 109.089 107.691 109.202 107.768 109.326L107.845 109.447H108.997V113.694L108.978 113.935C108.865 115.162 108.461 116.345 107.799 117.384C107.723 117.507 107.638 117.639 107.543 117.776C106.686 119.032 105.459 120.191 103.913 121.22L103.655 121.391C103.404 121.552 103.14 121.713 102.87 121.869C101.945 122.397 100.985 122.861 99.9956 123.257L99.7368 123.358C98.5407 123.822 97.3141 124.203 96.0657 124.499L95.8104 124.561C94.5983 124.841 93.3716 125.053 92.1359 125.196L91.8771 125.225C90.6563 125.36 89.4293 125.432 88.201 125.441H87.8719C86.662 125.441 85.4503 125.379 84.2626 125.261C84.1769 125.261 84.0912 125.244 84.0055 125.235C82.7719 125.106 81.5463 124.908 80.3345 124.643L80.074 124.585C78.8283 124.304 77.6025 123.941 76.4047 123.498L76.3738 123.488L76.1459 123.4C75.0213 122.974 73.9324 122.459 72.8896 121.86C72.7525 121.78 72.6154 121.699 72.4817 121.617L72.223 121.46C70.8367 120.615 69.6065 119.538 68.5862 118.276C68.5057 118.173 68.4234 118.064 68.3326 117.934C67.4596 116.764 66.9259 115.377 66.7901 113.925L66.7695 113.683V109.435H67.923L68.0001 109.312C68.1063 109.141 68.2212 108.97 68.3428 108.798C68.4182 108.691 68.5022 108.579 68.5965 108.456C68.9369 108.022 69.3074 107.613 69.7053 107.231C70.2399 106.716 70.8128 106.243 71.4192 105.815C71.8819 105.486 72.3772 105.168 72.8931 104.87C76.8914 102.565 82.2146 101.296 87.8788 101.296L87.8839 101.312ZM87.8839 101.05C82.4134 101.05 76.9411 102.248 72.7662 104.66C72.2349 104.967 71.7368 105.286 71.2718 105.617C70.6533 106.053 70.0684 106.534 69.522 107.058C69.1157 107.448 68.7377 107.867 68.3908 108.311C68.3 108.427 68.2194 108.542 68.1286 108.653C68.0035 108.824 67.8852 108.995 67.7738 109.178H66.5039V113.95H66.5348C66.6787 115.451 67.2324 116.883 68.1355 118.091C68.2195 118.207 68.3069 118.324 68.3977 118.433C69.4359 119.718 70.6882 120.815 72.0996 121.675L72.3618 121.836C72.4955 121.918 72.6343 122.007 72.7731 122.081C73.8266 122.685 74.9263 123.204 76.0619 123.635C76.1476 123.669 76.2333 123.702 76.3241 123.734C77.5324 124.181 78.7691 124.547 80.026 124.83L80.2882 124.888C81.507 125.161 82.74 125.367 83.9815 125.504C84.0689 125.513 84.1529 125.523 84.2438 125.53C85.4434 125.65 86.6603 125.709 87.8754 125.709H88.2078C89.4447 125.7 90.6802 125.627 91.9097 125.492L92.1702 125.463C93.4152 125.319 94.6511 125.106 95.8721 124.823C95.9595 124.802 96.0435 124.783 96.1343 124.76C97.393 124.461 98.6298 124.076 99.8362 123.609L100.097 123.507C101.1 123.107 102.073 122.637 103.01 122.101C103.284 121.943 103.55 121.782 103.807 121.619L104.068 121.448C105.673 120.379 106.907 119.19 107.769 117.934C107.862 117.8 107.949 117.665 108.032 117.531C108.716 116.456 109.133 115.234 109.249 113.966H109.271V113.386V109.194H108.001C107.927 109.076 107.85 108.959 107.769 108.851C107.325 108.21 106.817 107.614 106.253 107.075C105.707 106.551 105.122 106.069 104.503 105.634C104.04 105.304 103.543 104.985 103.01 104.677C98.8353 102.27 93.363 101.067 87.8908 101.067L87.8839 101.05Z" fill="#FFE840"/>
<path d="M87.8839 121.382C99.6918 121.382 109.264 115.863 109.264 109.055C109.264 102.247 99.6918 96.7275 87.8839 96.7275C76.0761 96.7275 66.5039 102.247 66.5039 109.055C66.5039 115.863 76.0761 121.382 87.8839 121.382Z" fill="#FFE840"/>
<path d="M106.248 107.058C105.562 104.942 103.794 102.994 101.096 101.438C97.5675 99.4031 92.8699 98.2837 87.8878 98.2837C82.9057 98.2837 78.2063 99.4031 74.6793 101.438C71.9817 102.994 70.2096 104.942 69.5241 107.058C69.3151 107.703 69.2081 108.377 69.207 109.055C69.207 111.126 70.213 113.108 72.0948 114.815C72.1788 114.894 72.2662 114.971 72.357 115.044C73.0783 115.658 73.8558 116.203 74.6793 116.672C75.1215 116.925 75.5785 117.165 76.0503 117.393L76.3126 117.514C77.5076 118.055 78.7459 118.496 80.0144 118.83L80.2766 118.9C81.4938 119.209 82.7298 119.437 83.9768 119.585L84.239 119.618C85.4482 119.754 86.6641 119.821 87.8809 119.82H88.2031C89.4408 119.809 90.6769 119.727 91.905 119.573L92.1655 119.537C93.4147 119.372 94.6514 119.124 95.8674 118.794C95.9565 118.77 96.0387 118.746 96.1296 118.719C97.4017 118.364 98.6404 117.899 99.8314 117.329C99.9188 117.29 100.003 117.245 100.092 117.203C100.435 117.034 100.767 116.856 101.089 116.668C102.063 116.116 102.971 115.455 103.796 114.698C103.885 114.615 103.967 114.527 104.056 114.447C105.689 112.826 106.56 110.976 106.56 109.052C106.561 108.375 106.456 107.702 106.248 107.058ZM104.07 113.129C103.987 113.24 103.898 113.35 103.809 113.461C102.84 114.585 101.68 115.53 100.382 116.253C100.294 116.304 100.21 116.354 100.112 116.405L99.852 116.545C98.6695 117.166 97.4298 117.672 96.1501 118.055L95.8879 118.132C94.6745 118.484 93.4373 118.75 92.186 118.926C92.1003 118.94 92.0147 118.952 91.9255 118.962C90.6983 119.127 89.4619 119.215 88.2237 119.226H87.9615C86.7242 119.228 85.488 119.156 84.2596 119.008L83.9974 118.974C82.7484 118.814 81.5121 118.569 80.2972 118.238L80.035 118.164C78.7597 117.805 77.5205 117.328 76.3331 116.74L76.0709 116.607C75.8498 116.492 75.6322 116.372 75.4197 116.249C74.2907 115.619 73.261 114.826 72.3639 113.896C72.2731 113.798 72.1925 113.702 72.1017 113.603C69.9474 111.111 69.6732 108.211 71.2808 105.616C72.1377 104.247 73.5087 102.955 75.4128 101.851C82.2938 97.8832 93.492 97.8832 100.375 101.851C102.279 102.948 103.655 104.237 104.505 105.616C106.006 108.045 105.861 110.746 104.07 113.129Z" fill="#FF9D4D"/>
<path d="M88.5693 107.316L90.5813 108.478C90.5368 108.499 90.4922 108.523 90.4477 108.548L89.3422 109.185L87.457 108.1L88.0774 107.742C88.2724 107.64 88.4409 107.494 88.5693 107.316Z" fill="#D1975D"/>
<path d="M94.5911 112.211L96.6477 113.401L97.8799 112.689L95.8113 111.491L95.8662 111.456C95.9576 111.4 96.045 111.343 96.1284 111.285C96.4016 111.096 96.6559 110.88 96.8876 110.642C97.1927 110.343 97.4183 109.974 97.544 109.567C97.6426 109.21 97.5958 108.829 97.4138 108.507C97.2298 108.165 96.8791 107.842 96.3615 107.54C96.2844 107.497 96.2072 107.453 96.1284 107.413C96.0496 107.374 95.957 107.326 95.8662 107.285C95.1954 106.976 94.4744 106.789 93.7376 106.734C93.213 106.694 92.6856 106.71 92.1643 106.782C92.0769 106.794 91.9929 106.807 91.9038 106.823C91.5845 106.88 91.269 106.957 90.9595 107.054C91.1142 106.853 91.2099 106.613 91.2359 106.36C91.262 106.108 91.2173 105.853 91.1069 105.625C90.8307 105.099 90.4001 104.67 89.8729 104.396C89.4537 104.162 89.007 103.982 88.543 103.858C88.0329 103.719 87.5096 103.634 86.9817 103.605C86.4473 103.575 85.9113 103.607 85.3844 103.701C84.8801 103.786 84.395 103.96 83.9516 104.214L83.5643 104.439L81.5763 103.293L80.3423 104.004L82.3287 105.149L80.8308 106.015L78.8427 104.87L77.6088 105.58L79.5951 106.725L77.3945 107.995L80.0133 109.507L80.2755 109.657L83.9756 111.79L84.2378 111.942L87.9397 114.077L88.2019 114.227L89.6484 115.061L91.8507 113.793L93.9073 114.982L95.1395 114.27L93.0829 113.072L94.5911 112.211ZM90.4488 108.548C90.4933 108.523 90.5379 108.499 90.5824 108.478C90.7617 108.393 90.9512 108.331 91.1463 108.295C91.3982 108.247 91.6546 108.228 91.9107 108.238H91.9501C92.0238 108.238 92.0975 108.247 92.1712 108.256C92.3766 108.277 92.58 108.314 92.7796 108.367C93.0385 108.434 93.2875 108.534 93.52 108.666C93.7149 108.772 93.8858 108.918 94.0221 109.093C94.1263 109.233 94.186 109.402 94.1935 109.577C94.1966 109.749 94.1423 109.917 94.0392 110.054C93.9658 110.156 93.8774 110.246 93.777 110.321C93.7228 110.366 93.6655 110.406 93.6056 110.443C93.5868 110.455 93.5714 110.467 93.5525 110.477L92.6013 111.025L92.5671 111.046L92.1677 111.275L91.9072 111.425L91.0675 111.91L90.0135 112.517L86.7863 110.657L87.1291 110.457L87.8386 110.049L87.9414 109.989L88.2037 109.839L89.3382 109.183L90.4488 108.548ZM83.9825 106.544L84.2447 106.392L84.3732 106.318L85.0982 105.899C85.141 105.875 85.1873 105.858 85.2302 105.835C85.3811 105.761 85.5398 105.704 85.7032 105.664C85.9548 105.606 86.2128 105.58 86.471 105.587C86.989 105.596 87.4965 105.735 87.9466 105.991L87.9809 106.01C88.0594 106.055 88.1355 106.104 88.2088 106.157C88.539 106.393 88.7018 106.644 88.6972 106.91C88.6944 107.055 88.6504 107.196 88.5704 107.318C88.473 107.454 88.3502 107.57 88.2088 107.66C88.1694 107.686 88.1282 107.711 88.0837 107.737L87.9466 107.816L87.4633 108.095L85.962 108.961L85.5524 109.197L84.908 109.568L84.5515 109.361L84.1522 109.132L83.9808 109.034L83.2267 108.598L81.8179 107.787L82.2087 107.561L82.8702 107.179L83.9825 106.544Z" fill="#FF9D4D"/>
<path d="M68.9477 114.662V118.984C68.857 118.868 68.7765 118.751 68.6875 118.642V114.32C68.7628 114.429 68.857 114.549 68.9477 114.662Z" fill="#FFE840"/>
<path d="M72.3634 117.527V121.849L72.1016 121.688V117.365C72.1803 117.42 72.2676 117.474 72.3634 117.527Z" fill="#FFE840"/>
<path d="M76.3166 119.424V123.748C76.2293 123.715 76.1454 123.683 76.0547 123.649V119.327C76.1403 119.359 76.2293 119.393 76.3166 119.424Z" fill="#FFE840"/>
<path d="M80.2814 120.58V124.902L80.0195 124.843V120.521L80.2814 120.58Z" fill="#FFE840"/>
<path d="M84.2424 121.202V125.524C84.1551 125.524 84.0712 125.507 83.9805 125.499V121.177C84.0678 121.185 84.1551 121.196 84.2424 121.202Z" fill="#FFE840"/>
<path d="M88.2072 121.381V125.703H87.9453V121.381H88.2072Z" fill="#FFE840"/>
<path d="M92.1703 121.132V125.456L91.9102 125.485V121.163L92.1703 121.132Z" fill="#FFE840"/>
<path d="M96.133 120.43V124.752C96.0457 124.776 95.9618 124.795 95.8711 124.815V120.493L96.133 120.43Z" fill="#FFE840"/>
<path d="M100.096 119.17V123.492L99.8359 123.595V119.271L100.096 119.17Z" fill="#FFE840"/>
<path d="M104.069 117.117V121.439L103.809 121.61V117.288C103.898 117.231 103.976 117.175 104.069 117.117Z" fill="#FFE840"/>
<path d="M107.576 113.632V117.954C107.494 118.089 107.405 118.224 107.312 118.358V114.036C107.405 113.902 107.494 113.767 107.576 113.632Z" fill="#FFE840"/>
<path d="M115.583 101.957V106.149V106.729H115.561C115.445 107.997 115.028 109.219 114.344 110.293C114.262 110.428 114.173 110.563 114.082 110.697C113.225 111.953 111.986 113.143 110.38 114.211L110.118 114.382C109.862 114.546 109.597 114.708 109.323 114.866C108.386 115.402 107.412 115.872 106.409 116.272L106.149 116.374C104.942 116.841 103.705 117.225 102.447 117.524L102.185 117.588C100.964 117.87 99.7277 118.083 98.4827 118.226C98.3947 118.239 98.3073 118.249 98.2205 118.257C96.9916 118.392 95.7566 118.465 94.5203 118.474H94.2581C93.0219 118.478 91.7863 118.418 90.5563 118.295C90.4688 118.295 90.3849 118.278 90.294 118.269C89.0506 118.138 87.8153 117.939 86.5939 117.672L86.3317 117.613C85.075 117.33 83.8383 116.964 82.6298 116.518C82.5424 116.485 82.4584 116.453 82.3676 116.419C81.2323 115.987 80.1326 115.468 79.0787 114.865C78.9399 114.784 78.8011 114.702 78.6657 114.62L78.4052 114.459C76.993 113.599 75.7406 112.502 74.7033 111.215C74.6108 111.101 74.5319 110.984 74.4411 110.873C73.4882 109.546 72.9535 108.143 72.8404 106.733H72.8164V101.96H74.0863C74.196 101.789 74.3143 101.618 74.4411 101.435C74.5251 101.317 74.6125 101.202 74.7033 101.093C75.0502 100.649 75.4282 100.23 75.8345 99.8397C76.3806 99.316 76.9655 98.8342 77.5843 98.3985C78.0493 98.0687 78.5474 97.7498 79.0787 97.4417C87.4285 92.6269 100.966 92.6269 109.316 97.4417C109.847 97.7475 110.345 98.0665 110.809 98.3985C111.428 98.8337 112.013 99.3155 112.558 99.8397C113.123 100.379 113.631 100.975 114.075 101.616C114.156 101.733 114.233 101.849 114.306 101.959L115.583 101.957Z" fill="#FF9D4D"/>
<path d="M94.2003 94.0812C99.8662 94.0812 105.189 95.3513 109.188 97.6569C109.702 97.9581 110.204 98.2747 110.662 98.6C111.267 99.0291 111.84 99.5028 112.375 100.017C112.927 100.545 113.424 101.127 113.858 101.755C113.932 101.861 114.005 101.972 114.084 102.097L114.16 102.22H115.313V106.468L115.292 106.708C115.181 107.935 114.777 109.118 114.115 110.159C114.04 110.282 113.954 110.414 113.86 110.551C113.003 111.807 111.776 112.966 110.228 113.995L109.971 114.166C109.719 114.327 109.457 114.486 109.184 114.643C108.261 115.172 107.301 115.636 106.312 116.031L106.053 116.132C104.857 116.596 103.631 116.978 102.382 117.274L102.127 117.336C100.914 117.615 99.6869 117.827 98.4506 117.971L98.1936 118C96.9726 118.133 95.7456 118.205 94.5174 118.215H94.1866C92.9869 118.215 91.765 118.156 90.5773 118.044L90.3219 118.019C89.0878 117.888 87.8618 117.69 86.6492 117.426L86.3904 117.368C85.1446 117.087 83.9188 116.724 82.7211 116.281L82.6885 116.271L82.4623 116.184C81.3377 115.757 80.2488 115.242 79.206 114.643C79.0672 114.563 78.9318 114.482 78.7981 114.4L78.5394 114.243C77.1527 113.398 75.9224 112.32 74.9026 111.057C74.8221 110.956 74.7312 110.845 74.649 110.715C73.7304 109.436 73.2076 108.088 73.1065 106.706L73.086 106.465V102.225H74.2394L74.3165 102.102C74.4227 101.931 74.5376 101.76 74.6592 101.588C74.7347 101.481 74.8186 101.369 74.9129 101.246C75.2527 100.812 75.6227 100.403 76.02 100.021C76.5554 99.5066 77.1283 99.0328 77.7339 98.6034C78.1949 98.2765 78.6919 97.9581 79.2078 97.6603C83.2061 95.3547 88.5276 94.0846 94.1935 94.0846L94.2003 94.0812ZM94.2003 93.821C88.7298 93.821 83.2575 95.0192 79.0826 97.4309C78.5514 97.7367 78.0532 98.0556 77.5882 98.3877C76.9694 98.8234 76.3845 99.3052 75.8384 99.8289C75.4321 100.219 75.0541 100.638 74.7072 101.082C74.6164 101.198 74.5359 101.313 74.445 101.424C74.3182 101.595 74.2 101.766 74.0903 101.95H72.8203V106.722H72.8443C72.9574 108.132 73.4921 109.536 74.445 110.862C74.529 110.979 74.6164 111.095 74.7072 111.205C75.7445 112.491 76.9969 113.588 78.4091 114.448L78.6696 114.609C78.805 114.691 78.9438 114.78 79.0826 114.854C80.1365 115.457 81.2362 115.977 82.3715 116.408C82.4572 116.442 82.5429 116.475 82.6337 116.507C83.8422 116.953 85.0789 117.319 86.3356 117.603L86.5978 117.661C87.8192 117.928 89.0545 118.127 90.2979 118.258C90.3853 118.267 90.4693 118.277 90.5602 118.284C91.7598 118.404 92.9749 118.464 94.19 118.464H94.5328C95.7691 118.454 97.0041 118.381 98.233 118.246C98.3198 118.238 98.4072 118.228 98.4952 118.215C99.7402 118.072 100.976 117.859 102.197 117.577L102.459 117.514C103.718 117.215 104.955 116.83 106.161 116.363L106.422 116.261C107.425 115.861 108.398 115.392 109.335 114.855C109.609 114.697 109.874 114.535 110.13 114.371L110.393 114.2C111.998 113.132 113.232 111.942 114.094 110.686C114.185 110.552 114.274 110.417 114.357 110.282C115.041 109.208 115.458 107.986 115.573 106.718H115.596V106.138V101.946H114.326C114.252 101.828 114.175 101.712 114.094 101.604C113.65 100.962 113.142 100.367 112.578 99.8272C112.032 99.303 111.447 98.8212 110.828 98.386C110.365 98.0562 109.868 97.7373 109.335 97.4292C105.16 95.0226 99.688 93.8193 94.2158 93.8193L94.2003 93.821Z" fill="#FFE840"/>
<path d="M94.2003 114.152C106.008 114.152 115.58 108.633 115.58 101.825C115.58 95.0167 106.008 89.4976 94.2003 89.4976C82.3925 89.4976 72.8203 95.0167 72.8203 101.825C72.8203 108.633 82.3925 114.152 94.2003 114.152Z" fill="#FFE840"/>
<path d="M112.564 99.8291C111.879 97.7135 110.11 95.7656 107.413 94.2097C103.884 92.1746 99.1863 91.0552 94.2025 91.0552C89.2186 91.0552 84.5228 92.1746 80.994 94.2097C78.2964 95.7656 76.5243 97.7135 75.8405 99.8291C75.6306 100.474 75.5237 101.148 75.5234 101.827C75.5234 103.896 76.5295 105.88 78.4112 107.586C78.4952 107.665 78.5826 107.74 78.6717 107.816C79.3936 108.429 80.171 108.974 80.994 109.443C81.4379 109.697 81.8972 109.938 82.365 110.162C82.4519 110.206 82.5393 110.247 82.6273 110.286C83.822 110.827 85.0604 111.267 86.3291 111.6L86.5913 111.672C87.8085 111.98 89.0445 112.209 90.2915 112.357L90.5537 112.389C91.7623 112.525 92.9777 112.593 94.1939 112.591H94.5178C95.7549 112.581 96.9904 112.498 98.218 112.345C98.3054 112.333 98.3893 112.322 98.4802 112.309C99.7294 112.144 100.966 111.896 102.182 111.566C102.271 111.542 102.353 111.518 102.444 111.49C103.716 111.136 104.955 110.671 106.146 110.101L106.407 109.974C106.749 109.803 107.08 109.632 107.404 109.44C108.377 108.887 109.285 108.227 110.109 107.47C110.2 107.387 110.287 107.303 110.371 107.218C112.004 105.596 112.875 103.747 112.875 101.823C112.876 101.146 112.772 100.473 112.564 99.8291ZM110.379 105.9C110.295 106.01 110.208 106.121 110.117 106.232C109.148 107.357 107.988 108.303 106.689 109.024C106.602 109.075 106.518 109.125 106.42 109.175L106.16 109.317C104.977 109.938 103.738 110.443 102.458 110.826L102.196 110.903C100.982 111.256 99.7452 111.521 98.4939 111.698C98.4082 111.711 98.3208 111.723 98.2317 111.734C97.0049 111.897 95.7691 111.985 94.5315 111.997H94.2693C93.0321 112.001 91.7958 111.929 90.5674 111.782L90.3052 111.747C89.0561 111.588 87.8197 111.341 86.6051 111.01C86.5176 110.987 86.4337 110.963 86.3428 110.938C85.0675 110.578 83.8283 110.101 82.641 109.514C82.5518 109.469 82.4696 109.425 82.3788 109.378C82.1577 109.264 81.94 109.146 81.7275 109.022C80.6001 108.39 79.5722 107.595 78.6769 106.664C78.5878 106.568 78.5055 106.47 78.4164 106.373C76.2604 103.881 75.9879 100.981 77.5955 98.3861C78.4524 97.0168 79.8234 95.7245 81.7275 94.6205C88.6085 90.6529 99.8067 90.6529 106.689 94.6205C108.593 95.7177 109.97 97.0048 110.82 98.3861C112.321 100.818 112.177 103.518 110.379 105.9Z" fill="#FF9D4D"/>
<path d="M94.884 100.087L96.8977 101.248C96.8532 101.27 96.8069 101.294 96.7641 101.32L95.6586 101.957L93.7734 100.871L94.3938 100.514C94.5887 100.412 94.7567 100.266 94.884 100.087Z" fill="#D1975D"/>
<path d="M75.2658 107.433V111.754C75.1734 111.639 75.0946 111.523 75.0039 111.411V107.089C75.0883 107.202 75.1756 107.317 75.2658 107.433Z" fill="#FFE840"/>
<path d="M78.6703 110.299V114.621L78.4102 114.46V110.137L78.6703 110.299Z" fill="#FFE840"/>
<path d="M104.798 105.284L101.88 106.966L94.5821 102.742L93.4485 101.982L93.4224 101.997L93.8185 102.905L93.8769 103.448L90.4647 103.303L90.1154 99.6124L92.5384 98.2152L104.798 105.284Z" fill="#FF9D4D"/>
<path d="M82.633 112.196V116.519C82.5457 116.487 82.4618 116.454 82.3711 116.42V112.098C82.4567 112.131 82.5457 112.165 82.633 112.196Z" fill="#FFE840"/>
<path d="M86.5978 113.351V117.673L86.3359 117.615V113.291L86.5978 113.351Z" fill="#FFE840"/>
<path d="M90.5627 113.974V118.296C90.4754 118.296 90.3915 118.279 90.3008 118.27V113.947C90.3881 113.957 90.4754 113.967 90.5627 113.974Z" fill="#FFE840"/>
<path d="M94.5236 114.152V118.474H94.2617V114.152H94.5236Z" fill="#FFE840"/>
<path d="M98.4884 113.904V118.226C98.4006 118.239 98.3133 118.249 98.2266 118.257V113.935C98.3144 113.927 98.4017 113.917 98.4884 113.904Z" fill="#FFE840"/>
<path d="M102.449 113.202V117.524L102.188 117.587V113.264C102.275 113.246 102.363 113.225 102.449 113.202Z" fill="#FFE840"/>
<path d="M106.413 111.948V116.271L106.152 116.374V112.05L106.413 111.948Z" fill="#FFE840"/>
<path d="M110.379 109.888V114.207L110.117 114.378V110.056L110.379 109.888Z" fill="#FFE840"/>
<path d="M113.896 106.403V110.725C113.813 110.86 113.725 110.996 113.633 111.129V106.807C113.725 106.675 113.813 106.539 113.896 106.403Z" fill="#FFE840"/>
<path d="M105.626 91.7844V95.9745V96.553H105.612C105.495 97.8211 105.078 99.0433 104.395 100.118C104.313 100.254 104.224 100.387 104.133 100.522C103.276 101.777 102.037 102.967 100.431 104.035L100.169 104.206C99.9133 104.368 99.6545 104.531 99.3735 104.688C98.4365 105.225 97.4629 105.694 96.4599 106.094L96.1977 106.196C94.992 106.663 93.7557 107.048 92.4976 107.347C92.4102 107.371 92.3262 107.391 92.2354 107.41C91.0144 107.692 89.7785 107.906 88.5335 108.05L88.2713 108.079C87.0425 108.215 85.8074 108.288 84.5711 108.297H84.3089C83.0727 108.299 81.8371 108.238 80.607 108.115L80.3448 108.09C79.1015 107.959 77.8662 107.76 76.6447 107.494L76.3824 107.434C75.1255 107.151 73.8888 106.785 72.6806 106.339C72.5932 106.306 72.5092 106.273 72.4184 106.239C71.2828 105.809 70.183 105.289 69.1295 104.685C68.989 104.605 68.8519 104.522 68.7165 104.44L68.456 104.279C67.0442 103.419 65.7913 102.323 64.7524 101.038C64.6616 100.921 64.581 100.805 64.4919 100.695C63.5872 99.4884 63.0333 98.0557 62.8912 96.5547H62.8672V91.7844H64.1371C64.2468 91.6132 64.3651 91.4318 64.4919 91.2589C64.5742 91.1408 64.6633 91.0244 64.7524 90.9166C65.0999 90.4727 65.4784 90.054 65.8852 89.6636C66.4313 89.1399 67.0163 88.6581 67.6351 88.2224C68.1001 87.8938 68.5982 87.5749 69.1295 87.2656C77.4793 82.4525 91.0151 82.4525 99.3666 87.2656C99.8979 87.5737 100.395 87.8927 100.859 88.2224C101.478 88.6586 102.063 89.1403 102.609 89.6636C103.173 90.2033 103.682 90.7986 104.126 91.4403C104.206 91.5567 104.284 91.6748 104.357 91.7929L105.626 91.7844Z" fill="#FF9D4D"/>
<path d="M84.2433 83.9106C89.9092 83.9106 95.2324 85.1806 99.2307 87.4862C99.7449 87.7857 100.247 88.1024 100.703 88.4293C101.309 88.8579 101.882 89.3311 102.417 89.8449C102.968 90.3727 103.465 90.9547 103.899 91.5822C103.973 91.6883 104.047 91.7995 104.124 91.9245L104.201 92.046H105.354V96.2943L105.334 96.5357C105.221 97.7624 104.818 98.9448 104.156 99.9846C104.079 100.108 103.993 100.24 103.899 100.377C103.042 101.633 101.815 102.792 100.269 103.82L100.012 103.992C99.7603 104.153 99.4981 104.313 99.2256 104.469C98.3018 104.998 97.342 105.462 96.3532 105.857L96.0944 105.958C94.8975 106.422 93.6704 106.804 92.4217 107.102L92.1663 107.163C90.9541 107.442 89.7274 107.653 88.4919 107.797L88.2331 107.826C87.0145 107.961 85.7898 108.034 84.5638 108.045H84.305H84.233C83.0333 108.045 81.8114 107.983 80.6237 107.865L80.3683 107.839C79.1341 107.71 77.908 107.512 76.6956 107.247L76.4368 107.189C75.1912 106.908 73.9654 106.546 72.7675 106.104L72.7349 106.092C72.6612 106.064 72.5858 106.037 72.507 106.005C71.3824 105.578 70.2936 105.063 69.2507 104.464L68.8428 104.223L68.584 104.063C67.1978 103.219 65.9676 102.142 64.9473 100.88C64.8667 100.777 64.7845 100.668 64.6936 100.537C63.775 99.2606 63.2523 97.9118 63.1409 96.5288L63.1221 96.2875V92.0392H64.2755L64.3526 91.9159C64.4571 91.7448 64.5737 91.5736 64.6954 91.4025C64.7725 91.2946 64.8547 91.1834 64.9507 91.0601C65.2905 90.6262 65.6605 90.2166 66.0579 89.8346C66.5932 89.3209 67.166 88.8477 67.7717 88.419C68.2344 88.0904 68.7314 87.772 69.2456 87.4759C73.2457 85.1703 78.5671 83.9003 84.233 83.9003L84.2433 83.9106ZM84.2433 83.6487C78.771 83.6487 73.3005 84.8469 69.1256 87.2586C68.5943 87.5667 68.0962 87.8856 67.6312 88.2154C67.0124 88.6511 66.4274 89.1328 65.8813 89.6566C65.4745 90.0469 65.096 90.4656 64.7485 90.9095C64.6577 91.0259 64.5771 91.1423 64.488 91.2518C64.3612 91.423 64.2429 91.5941 64.1332 91.7773H62.8633V96.5476H62.8873C63.0294 98.0486 63.5832 99.4813 64.488 100.688C64.5703 100.805 64.6594 100.921 64.7485 101.03C65.7874 102.316 67.0403 103.412 68.4521 104.272L68.7126 104.433C68.848 104.515 68.9851 104.604 69.1256 104.678C70.1791 105.282 71.2788 105.802 72.4144 106.232C72.5001 106.266 72.5858 106.299 72.6767 106.331C73.8849 106.778 75.1216 107.144 76.3785 107.427L76.6407 107.487C77.8623 107.753 79.0976 107.951 80.3409 108.082L80.6031 108.108C81.8093 108.23 83.0208 108.29 84.233 108.29H84.305H84.5672C85.8035 108.281 87.0385 108.208 88.2674 108.072L88.5296 108.043C89.7746 107.899 91.0105 107.685 92.2315 107.403C92.3189 107.384 92.4028 107.364 92.4937 107.34C93.7518 107.041 94.988 106.656 96.1938 106.189L96.456 106.087C97.459 105.687 98.4326 105.217 99.3696 104.681C99.6438 104.523 99.9088 104.362 100.165 104.199L100.427 104.028C102.033 102.959 103.265 101.77 104.129 100.515C104.22 100.38 104.3 100.247 104.391 100.111C105.074 99.0362 105.491 97.814 105.608 96.5459H105.63V95.9674V91.7841H104.36C104.287 91.666 104.209 91.5479 104.129 91.4315C103.684 90.7901 103.176 90.1949 102.612 89.6549C102.066 89.1316 101.481 88.6498 100.862 88.2137C100.397 87.8827 99.8997 87.5638 99.3696 87.2568C95.1947 84.8503 89.7224 83.647 84.2502 83.647L84.2433 83.6487Z" fill="#FFE840"/>
<path d="M84.2433 103.987C96.0512 103.987 105.623 98.4679 105.623 91.6598C105.623 84.8516 96.0512 79.3325 84.2433 79.3325C72.4354 79.3325 62.8633 84.8516 62.8633 91.6598C62.8633 98.4679 72.4354 103.987 84.2433 103.987Z" fill="#FFE840"/>
<path d="M94.4462 94.9457L91.5285 96.6281L84.2305 92.4039L83.0969 91.6433L83.0708 91.6583L83.4669 92.5667L83.5253 93.1099L80.1131 92.9645L79.7638 89.274L82.1869 87.8768L94.4462 94.9457Z" fill="#FF9D4D"/>
<path d="M102.607 89.6621C101.922 87.5465 100.151 85.5986 97.4539 84.0428C93.9251 82.0093 89.2275 80.8882 84.2454 80.8882C79.2633 80.8882 74.5657 82.0093 71.0369 84.0428C68.3394 85.5986 66.5673 87.5465 65.8835 89.6621C65.6736 90.3072 65.5666 90.9813 65.5664 91.6596C65.5664 93.7307 66.5724 95.7128 68.4542 97.4193C68.5382 97.498 68.6256 97.575 68.7147 97.6503C69.4366 98.2632 70.214 98.8075 71.0369 99.2764C71.4791 99.532 71.9361 99.7722 72.408 99.997L72.6702 100.119C73.8652 100.66 75.1035 101.1 76.3721 101.435L76.6343 101.505C77.8515 101.813 79.0875 102.042 80.3345 102.19L80.5967 102.222C81.8052 102.359 83.0206 102.427 84.2369 102.426H84.2986H84.5608C85.7979 102.415 87.0334 102.333 88.2609 102.179L88.5231 102.145C89.7722 101.979 91.0089 101.73 92.225 101.401L92.4872 101.327C93.7586 100.971 94.9967 100.505 96.1874 99.9354C96.2748 99.896 96.3588 99.8532 96.4496 99.8087C96.7924 99.6398 97.1243 99.4618 97.4453 99.2747C98.4194 98.7228 99.3273 98.0618 100.151 97.3046C100.242 97.2224 100.329 97.1386 100.414 97.053C102.045 95.432 102.916 93.5835 102.916 91.6579C102.918 90.9806 102.814 90.3071 102.607 89.6621ZM100.422 95.7333C100.338 95.8445 100.251 95.9558 100.16 96.0654C99.1913 97.1906 98.0309 98.1357 96.7324 98.857L96.4633 99.0094C96.3776 99.0573 96.2919 99.1035 96.2011 99.1497C95.0192 99.7707 93.7801 100.276 92.5009 100.659L92.2387 100.736C91.0253 101.089 89.7882 101.354 88.5369 101.531C88.4512 101.544 88.3638 101.556 88.2746 101.567C87.0479 101.731 85.8122 101.819 84.5745 101.83H84.3123C83.075 101.833 81.8388 101.76 80.6104 101.613L80.3482 101.579C79.0991 101.42 77.8626 101.174 76.648 100.843L76.3858 100.769C75.1105 100.409 73.8713 99.9326 72.6839 99.3449L72.4217 99.2114C72.2006 99.0967 71.983 98.9769 71.7688 98.8536C70.6426 98.221 69.6154 97.4269 68.7198 96.4967C68.6307 96.3991 68.5485 96.3033 68.4593 96.2057C66.3033 93.7118 66.0291 90.8123 67.6384 88.2175C68.4953 86.8481 69.8664 85.5576 71.7688 84.4518C78.6515 80.4842 89.8496 80.4842 96.7324 84.4518C98.6365 85.5507 100.013 86.8379 100.863 88.2175C102.364 90.6531 102.22 93.3524 100.422 95.7333Z" fill="#FF9D4D"/>
<path d="M84.927 89.9219L86.9407 91.0824C86.8944 91.1046 86.8499 91.1269 86.807 91.1526L85.7016 91.7893L83.8164 90.7058L84.4385 90.3464C84.6323 90.2449 84.7995 90.0995 84.927 89.9219Z" fill="#D1975D"/>
<path d="M65.3088 97.2618V101.584C65.2163 101.467 65.1376 101.351 65.0469 101.241V96.9194C65.1307 97.0341 65.218 97.1522 65.3088 97.2618Z" fill="#FFE840"/>
<path d="M68.7133 100.132V104.45L68.4531 104.289V99.9658L68.7133 100.132Z" fill="#FFE840"/>
<path d="M72.6759 102.028V106.352C72.5887 106.319 72.5048 106.287 72.4141 106.253V101.931C72.4996 101.965 72.5887 101.997 72.6759 102.028Z" fill="#FFE840"/>
<path d="M76.6447 103.185V107.507L76.3828 107.447V103.125L76.6447 103.185Z" fill="#FFE840"/>
<path d="M80.6017 103.806V108.128L80.3398 108.103V103.781L80.6017 103.806Z" fill="#FFE840"/>
<path d="M84.5666 103.985V108.307H84.3047V103.983L84.5666 103.985Z" fill="#FFE840"/>
<path d="M88.5314 103.738V108.06L88.2695 108.089V103.766L88.5314 103.738Z" fill="#FFE840"/>
<path d="M92.4923 103.035V107.36C92.4051 107.384 92.3212 107.405 92.2305 107.424V103.099L92.4923 103.035Z" fill="#FFE840"/>
<path d="M96.4572 101.782V106.104L96.1953 106.206V101.883L96.4572 101.782Z" fill="#FFE840"/>
<path d="M100.422 99.7217V104.044L100.16 104.215V99.8912C100.249 99.8295 100.336 99.7799 100.422 99.7217Z" fill="#FFE840"/>
<path d="M103.934 96.2344V100.556C103.852 100.69 103.763 100.825 103.672 100.959V96.6366C103.764 96.5065 103.852 96.3713 103.934 96.2344Z" fill="#FFE840"/>
<path d="M82.485 89.9973L64.4675 102.768L61.2507 130.25L55.7664 130.079L55.1888 98.4802C55.1722 97.8061 55.3092 97.137 55.5895 96.5235C55.8698 95.91 56.286 95.3681 56.8067 94.9388L57.2352 94.5965L75.1053 79.9893C76.3839 78.9441 78.0258 78.4489 79.67 78.6128C81.3141 78.7767 82.8258 79.5861 83.8724 80.8631C84.9189 82.1401 85.4147 83.78 85.2506 85.422C85.0865 87.0641 84.276 88.5738 82.9974 89.619C82.8398 89.7508 82.6615 89.8809 82.485 89.9973Z" fill="url(#paint0_linear)"/>
<path d="M94.7348 91.7351C94.5524 91.8706 94.3624 91.9958 94.1659 92.1099L76.3043 104.793L72.0558 135.495L66.4961 135.127L66.5149 134.163L67.0291 100.191C67.0418 99.5073 67.2107 98.8359 67.5228 98.2278C67.835 97.6197 68.2822 97.0909 68.8303 96.6817L69.2554 96.3668L87.4716 82.8705C88.742 81.9249 90.3267 81.5011 91.9002 81.686C92.746 81.7829 93.5628 82.0524 94.2998 82.4779C95.0369 82.9034 95.6785 83.4757 96.1848 84.1593C98.2413 86.9151 97.4993 89.6879 94.7348 91.7351Z" fill="url(#paint1_linear)"/>
<path d="M91.7667 90.5724C91.584 90.7074 91.3947 90.833 91.1994 90.949L73.3311 103.624L69.0825 134.326L66.5117 134.154L67.0259 100.182C67.0386 99.4983 67.2074 98.827 67.5196 98.2188C67.8318 97.6107 68.279 97.0819 68.8271 96.6727L69.2521 96.3578L87.4684 82.8615C88.7409 81.9181 90.3269 81.4973 91.9004 81.6856C92.4022 82.0552 92.8458 82.4977 93.2166 82.9984C95.2749 85.7542 94.5311 88.5322 91.7667 90.5724Z" fill="url(#paint2_linear)"/>
<path d="M66.5958 135.125H66.3867L66.93 100.187C66.9408 99.4871 67.1124 98.799 67.4315 98.1758C67.7507 97.5526 68.2088 97.0109 68.7707 96.5925L87.412 82.7812L87.5371 82.9524L68.8958 96.7637C68.3605 97.1623 67.9238 97.6781 67.6193 98.2715C67.3148 98.865 67.1505 99.5203 67.1391 100.187L66.5958 135.125Z" fill="#7B5BAA"/>
<path d="M86.7436 50.1913L84.1318 69.3463L84.1009 69.5825C84.0369 70.0433 83.8335 70.4735 83.5181 70.8158C83.2026 71.158 82.7901 71.396 82.3357 71.4979L64.3319 75.5031C63.9231 75.5947 63.4948 75.525 63.1362 75.3087C62.7776 75.0924 62.5166 74.7461 62.4076 74.3421C62.2985 73.9382 62.3499 73.5077 62.5511 73.1407C62.7522 72.7737 63.0875 72.4985 63.487 72.3725L81.0657 66.7943L79.2696 68.9458L79.8369 49.623C79.8739 48.7112 80.2695 47.8507 80.9378 47.2284C81.6061 46.6061 82.4932 46.272 83.4065 46.2989C84.3199 46.3257 85.1858 46.7112 85.8163 47.3716C86.4469 48.0321 86.7912 48.9143 86.7745 49.8267C86.7711 49.9517 86.7591 50.0749 86.7436 50.1913Z" fill="url(#paint3_linear)"/>
<path d="M86.9281 46.9392L82.3762 46.3333C82.1798 46.3073 81.9801 46.3319 81.7959 46.4047C81.6117 46.4775 81.4492 46.5961 81.3239 46.7492L81.2896 46.7903C78.4669 50.1623 77.8362 54.5184 78.0008 58.9105L77.4386 66.2705L76.1653 82.2573C76.1216 82.801 76.2372 83.3457 76.498 83.825C76.7588 84.3042 77.1535 84.6974 77.634 84.9566L82.4961 87.5805C84.2585 88.531 86.1622 89.1927 88.1346 89.5404L92.8477 90.3705C93.5053 90.4869 94.1803 90.4617 94.8274 90.2967C95.4746 90.1316 96.079 89.8305 96.6003 89.4135C97.1215 88.9964 97.5476 88.473 97.8501 87.8783C98.1526 87.2835 98.3244 86.6312 98.3542 85.9648C98.5256 82.3583 98.6507 77.7985 98.4433 75.243C98.1485 71.5989 99.9772 60.5365 100.8 55.8312C100.912 55.1907 100.822 54.5314 100.544 53.9438C100.265 53.3562 99.8108 52.8693 99.2437 52.55C96.6061 51.0643 92.4158 48.7844 92.4158 48.7844L86.9281 46.9392Z" fill="url(#paint4_linear)"/>
<path d="M93.6667 90.5435C93.3875 90.5437 93.1087 90.5191 92.8338 90.4699L88.1208 89.6398C86.1372 89.2934 84.2224 88.6305 82.4497 87.6765L77.5876 85.0543C77.0892 84.7853 76.6798 84.3774 76.4093 83.8802C76.1388 83.383 76.0188 82.818 76.064 82.254L77.3391 66.2673L77.8995 58.8473C77.7076 53.7414 78.6622 50.0066 80.9039 47.1088C81.1647 46.7618 81.5131 46.4902 81.9133 46.3214C82.0635 46.2527 82.2283 46.2221 82.3932 46.2324C83.7762 46.419 86.9451 46.8401 86.9451 46.8401H86.9657L92.4499 48.6801C92.5082 48.7109 96.6899 50.9925 99.2967 52.4628C99.8818 52.7931 100.35 53.2962 100.638 53.903C100.925 54.5097 101.018 55.1905 100.903 55.8519C100.097 60.4733 98.2529 71.599 98.5477 75.2363C98.7585 77.8328 98.6163 82.5091 98.4586 85.9751C98.4021 87.2079 97.8717 88.3713 96.9778 89.2233C96.0839 90.0752 94.8955 90.55 93.6599 90.5487L93.6667 90.5435ZM82.3195 46.4258C82.2064 46.4315 82.0954 46.4582 81.9921 46.5046C81.626 46.6584 81.3076 46.9072 81.0701 47.2252C78.8593 50.0819 77.9184 53.7722 78.1086 58.8387L77.5465 66.2809L76.2714 82.2677C76.2305 82.7911 76.3425 83.3152 76.5937 83.7763C76.845 84.2375 77.2247 84.616 77.687 84.866L82.5491 87.49C84.3019 88.4352 86.1952 89.0934 88.1568 89.4395L92.8698 90.2697C93.5125 90.3833 94.172 90.3587 94.8043 90.1975C95.4367 90.0362 96.0273 89.742 96.5367 89.3345C97.0461 88.927 97.4625 88.4156 97.7582 87.8345C98.0539 87.2534 98.222 86.616 98.2512 85.9649C98.4089 82.5056 98.5512 77.8397 98.3404 75.2534C98.0439 71.5888 99.8828 60.4391 100.699 55.8142C100.806 55.1955 100.719 54.5589 100.45 53.9914C100.181 53.4239 99.7428 52.9534 99.1956 52.6443C96.5888 51.1757 92.4105 48.894 92.3677 48.8786L86.9074 47.0489L82.3658 46.443L82.3195 46.4258Z" fill="#7B5BAA"/>
<path d="M81.7163 32.0768C81.7163 32.0768 81.5741 35.1578 82.0299 36.1728C82.5938 37.4325 84.2236 38.4938 84.2236 38.4938L85.0154 31.8184L81.7163 32.0768Z" fill="#704E34"/>
<path d="M92.5871 44.9487C92.5871 44.9487 89.6427 43.1875 88.1311 43.8618C86.6196 44.5362 85.4936 48.1598 85.4936 48.1598L84.8629 51.732C84.8313 51.9119 84.849 52.0971 84.9142 52.2678C84.9793 52.4385 85.0895 52.5884 85.233 52.7017C85.3764 52.815 85.5479 52.8875 85.7293 52.9114C85.9106 52.9353 86.095 52.9099 86.2631 52.8377L91.9873 50.3866C92.2227 50.2864 92.4148 50.106 92.5294 49.8774C92.6439 49.6489 92.6735 49.3871 92.6128 49.1388C92.2272 47.5402 92.5871 44.9487 92.5871 44.9487Z" fill="#EFC392"/>
<path d="M82.1829 38.8178C82.248 40.3582 82.901 41.8217 82.9541 43.357C83.0055 44.8273 82.5993 46.5732 83.6928 47.5591C84.4503 48.2438 85.5951 48.1976 86.6063 48.1137C88.8342 47.9288 91.3193 47.6122 92.7109 45.8663C93.1805 45.2758 93.477 44.5706 93.7684 43.8739C94.182 42.888 94.5944 41.9021 95.0057 40.9162C95.6193 39.4511 96.2431 37.9277 96.1849 36.3427C96.1197 34.5934 95.2337 32.9947 94.3699 31.4731C93.0571 29.1572 87.9945 28.6232 85.6688 29.9685C83.1598 31.4286 82.0766 36.1835 82.1829 38.8178Z" fill="#FFD89F"/>
<path d="M83.8109 33.9051C84.0325 33.8384 84.2679 33.8317 84.4928 33.8859C84.7178 33.94 84.9243 34.053 85.0912 34.2132L85.8127 34.8978C85.9897 35.071 86.2128 35.1898 86.4554 35.2402L89.2129 35.7999C89.419 35.8422 89.6118 35.9335 89.775 36.0661C89.9382 36.1987 90.067 36.3686 90.1504 36.5616L90.3852 37.1127C90.4968 37.3711 90.6892 37.5865 90.9335 37.7265C91.1779 37.8666 91.4611 37.9239 91.7408 37.8898L92.6903 37.7751C93.273 37.7032 93.3073 38.3554 93.5283 38.898L93.6483 40.4384C94.0116 41.3285 95.7615 40.0756 96.4007 39.3549L96.5584 39.1838C96.6754 39.053 96.7646 38.8999 96.8206 38.7336C97.004 38.1876 97.3022 36.8234 96.992 34.2251C96.5772 30.6701 95.4495 28.7154 93.4324 28.4775C91.4152 28.2395 88.0938 26.9969 86.6113 27.8852C85.1289 28.7736 81.511 29.2545 81.451 30.73C81.4167 31.5858 81.8863 32.5957 82.2908 33.3077C82.4384 33.5651 82.6694 33.7645 82.9458 33.8731C83.2221 33.9817 83.5273 33.993 83.8109 33.9051Z" fill="#89603E"/>
<path d="M94.4233 39.321C94.4233 39.321 94.7661 41.5684 94.0548 43.203C93.3436 44.8376 94.8021 42.9856 94.8021 42.9856L96.8193 38.7236L94.4233 39.321Z" fill="#89603E"/>
<path d="M66.5892 134.824C66.5892 134.824 64.1625 137.817 63.2387 138.237C62.3149 138.656 56.9798 142.278 59.5848 143.284C62.1898 144.291 66.0117 144.036 67.3159 142.781C69.2457 140.922 71.5576 141.174 71.8935 140.251C72.2294 139.329 72.3563 134.885 72.3563 134.885L66.5892 134.824Z" fill="#1A142D"/>
<path d="M55.9551 129.478C55.9551 129.478 53.8985 132.412 52.9696 132.831C52.0407 133.251 46.7107 136.872 49.3157 137.881C51.9208 138.889 55.7426 138.632 57.0451 137.377C58.9766 135.517 61.2886 135.768 61.6245 134.846C61.9604 133.923 61.6587 129.478 61.6587 129.478H55.9551Z" fill="#1A142D"/>
<path d="M76.0822 91.2707L74.6546 92.2498L74.6289 93.1193C74.7648 93.1291 74.9 93.0929 75.0128 93.0166L86.0876 85.3878C86.3315 85.222 86.5271 84.9947 86.6545 84.7289C86.7818 84.4631 86.8363 84.1684 86.8125 83.8747L86.7354 82.9025L86.4698 82.9709C86.3065 82.7563 86.0936 82.5842 85.8493 82.4694L74.9614 77.3345L76.0822 91.2707Z" fill="#7B5BAA"/>
<path d="M48.0508 79.7031L48.0816 80.0968C48.0962 80.268 48.1555 80.4323 48.2535 80.5735C48.3515 80.7146 48.4849 80.8277 48.6403 80.9013L74.4198 93.0694C74.4841 93.101 74.5539 93.1201 74.6254 93.1258L74.6511 92.2563L48.0508 79.7031Z" fill="#634D99"/>
<path d="M48.0508 79.704L74.6563 92.2572L76.0839 91.2781L74.963 77.3384L73.3983 76.6007L65.1257 72.6947C64.1448 72.2328 63.0597 72.036 61.9788 72.124C60.898 72.212 59.8591 72.5817 58.9662 73.1963L49.2762 79.8717L48.0508 79.704Z" fill="#7B5BAA"/>
<path d="M74.6563 92.2552L48.0508 79.7003L58.889 72.2341C59.782 71.6194 60.8209 71.2496 61.9019 71.1619C62.9829 71.0742 64.0679 71.2716 65.0485 71.7343L85.7739 81.5146C86.0408 81.6421 86.2695 81.8371 86.4373 82.0804C86.6051 82.3237 86.7062 82.6067 86.7303 82.9012C86.7544 83.1956 86.7007 83.4912 86.5747 83.7585C86.4487 84.0258 86.2547 84.2554 86.0121 84.4244L74.6563 92.2552Z" fill="white"/>
<path d="M76.2688 87.5015L55.6172 77.7041L62.4211 73.0176L83.0727 82.8133L76.2688 87.5015Z" fill="#BF89EF"/>
<path d="M102.733 57.6745L100.449 77.9301L100.411 78.2724C100.341 78.8879 100.079 79.4659 99.6624 79.9248C99.2457 80.3836 98.6952 80.7001 98.0887 80.8296L79.0275 84.8588C78.5365 84.9604 78.0253 84.8722 77.5968 84.6122C77.1683 84.3521 76.8545 83.9395 76.7187 83.4575C76.5828 82.9755 76.635 82.46 76.8646 82.0148C77.0943 81.5697 77.4844 81.2281 77.9563 81.059L96.3286 74.5752L93.9669 77.4662L94.5942 57.0976C94.6011 56.5559 94.716 56.021 94.9322 55.5241C95.1484 55.0272 95.4616 54.5783 95.8534 54.2036C96.2452 53.8289 96.7078 53.5359 97.2143 53.3417C97.7207 53.1476 98.2608 53.0561 98.803 53.0727C99.3453 53.0893 99.8787 53.2136 100.372 53.4384C100.866 53.6632 101.31 53.9839 101.678 54.3819C102.046 54.7798 102.331 55.2471 102.516 55.7563C102.702 56.2654 102.783 56.8064 102.757 57.3475C102.754 57.452 102.745 57.5666 102.733 57.6745Z" fill="url(#paint5_linear)"/>
<path d="M79.1561 80.6043C79.6082 81.0026 79.9035 81.5488 79.989 82.1448L79.857 84.0824C79.917 84.6575 79.5348 85.0991 78.9316 85.1487L75.8587 85.6982L75.5005 81.455L77.7884 81.366L76.8424 81.1401C76.048 80.9447 75.2966 80.604 74.6264 80.1353C74.4076 79.9945 74.2249 79.8044 74.0931 79.5802C73.9612 79.3561 73.8839 79.1042 73.8672 78.8448C73.8672 78.6103 74.1517 78.5247 74.3813 78.6856L74.7926 78.9731C75.4246 79.4216 76.1658 79.6918 76.9384 79.7553L77.3291 79.781C78.0135 79.8424 78.6572 80.1325 79.1561 80.6043Z" fill="#FFD89F"/>
<path d="M75.5013 81.4614L73.2733 81.7798L71.1327 81.6993C71.1212 81.6977 71.1095 81.6993 71.0988 81.7037C71.0881 81.7081 71.0787 81.7153 71.0717 81.7246C71.0647 81.7338 71.0604 81.7448 71.059 81.7563C71.0577 81.7678 71.0595 81.7795 71.0642 81.7901C71.071 81.8126 71.0802 81.8344 71.0916 81.8551C71.1696 82.0042 71.2816 82.133 71.4185 82.2311C71.5554 82.3292 71.7135 82.3939 71.8799 82.42L73.5629 82.6681L76.1337 82.7726L75.5013 81.4614Z" fill="#FFD89F"/>
<path d="M75.8726 83.818L75.1322 83.9378C74.8531 83.9782 74.5686 83.9589 74.2976 83.8814L72.9265 83.5065C72.7981 83.4729 72.6802 83.4075 72.5837 83.3165L72.0559 82.8201C72.0089 82.7855 71.9759 82.7352 71.963 82.6783C71.9501 82.6214 71.9581 82.5618 71.9856 82.5103C72.0289 82.4634 72.0885 82.4348 72.1522 82.4303C72.2159 82.4258 72.279 82.4459 72.3284 82.4864L72.5957 82.6575C72.724 82.7398 72.8663 82.7978 73.0156 82.8287L74.3181 83.0786C74.4709 83.114 74.6298 83.114 74.7826 83.0786L75.8623 82.8013L75.8726 83.818Z" fill="#FFD89F"/>
<path d="M75.8518 83.8408L74.7224 84.1113C74.655 84.1266 74.5855 84.1306 74.5167 84.1232L73.6598 84.0222C73.5784 84.0124 73.4995 83.988 73.4267 83.9503L72.5287 83.4968C72.4018 83.4334 72.2699 83.4779 72.251 83.5909C72.246 83.6555 72.2595 83.7202 72.2898 83.7774C72.3201 83.8347 72.3661 83.8822 72.4224 83.9144L73.1679 84.4279C73.3225 84.5372 73.4972 84.6145 73.6821 84.6555L74.7001 84.8695C74.7799 84.8872 74.8618 84.8941 74.9435 84.89L75.8843 84.8336L75.8518 83.8408Z" fill="#FFD89F"/>
<path d="M75.9811 84.8521L74.8756 84.9616C74.6805 84.9753 74.4859 84.93 74.3169 84.8315L73.9176 84.6039C73.866 84.5668 73.8026 84.55 73.7394 84.5566C73.6762 84.5632 73.6176 84.5928 73.5748 84.6398C73.5571 84.6754 73.5537 84.7165 73.5656 84.7544C73.5774 84.7924 73.6034 84.8243 73.6383 84.8435L73.9262 85.0438C74.2068 85.2397 74.5211 85.3824 74.8534 85.4648L75.8594 85.7045L75.9811 84.8521Z" fill="#FFD89F"/>
<path d="M72.4805 69.8655C72.7729 70.3926 72.9483 70.9764 72.9946 71.5772L73.4008 76.606L74.6587 92.2624L76.0864 91.2834L74.9655 77.3437L74.4205 70.593C74.3733 69.9924 74.198 69.4088 73.9064 68.8813L72.4805 69.8655Z" fill="#7B5BAA"/>
<path d="M73.9059 68.8805L72.4834 69.8647C72.0528 69.0834 71.3865 68.4575 70.5793 68.076L48.4367 57.635C48.2087 57.526 47.9556 57.4797 47.7037 57.5011C47.4518 57.5225 47.2102 57.6106 47.0039 57.7565L48.4315 56.7757C48.6384 56.631 48.88 56.5436 49.1317 56.5226C49.3834 56.5015 49.6362 56.5475 49.8643 56.6559L72.0052 67.097C72.8109 67.4769 73.4761 68.101 73.9059 68.8805Z" fill="#BF89EF"/>
<path d="M72.9914 71.5698L74.5185 90.54L49.476 78.7296L47.8342 58.3148L47.8256 58.3388L46.9961 57.7585C47.2024 57.6127 47.444 57.5245 47.6959 57.5031C47.9478 57.4818 48.2008 57.528 48.4289 57.637L70.5715 68.0781C71.2463 68.3968 71.825 68.8876 72.2492 69.5009C72.6735 70.1142 72.9283 70.8285 72.988 71.5715L72.9914 71.5698Z" fill="#00CBFC"/>
<path d="M46.3881 59.0436L48.0505 79.7031L74.656 92.2563L73.3912 76.5999L72.9851 71.5711C72.9258 70.8279 72.6712 70.1134 72.2469 69.5C71.8226 68.8866 71.2436 68.3959 70.5686 68.0776L48.4259 57.6366C48.1977 57.5276 47.9447 57.4811 47.6926 57.5019C47.4406 57.5226 47.1986 57.6099 46.9914 57.7547C46.7864 57.8977 46.6227 58.0921 46.5168 58.3184C46.4109 58.5446 46.3665 58.7947 46.3881 59.0436Z" fill="url(#paint6_linear)"/>
</g>
<defs>
<linearGradient id="paint0_linear" x1="14164.1" y1="107279" x2="19448.3" y2="107279" gradientUnits="userSpaceOnUse">
<stop stop-color="#6A5EBF"/>
<stop offset="1" stop-color="#6E3AA5"/>
</linearGradient>
<linearGradient id="paint1_linear" x1="16570.7" y1="113117" x2="22130.2" y2="113117" gradientUnits="userSpaceOnUse">
<stop stop-color="#2E256B"/>
<stop offset="1" stop-color="#5A3087"/>
</linearGradient>
<linearGradient id="paint2_linear" x1="14978.6" y1="110488" x2="19514.8" y2="110488" gradientUnits="userSpaceOnUse">
<stop stop-color="#6A5EBF"/>
<stop offset="1" stop-color="#6E3AA5"/>
</linearGradient>
<linearGradient id="paint3_linear" x1="12533" y1="53289.3" x2="16013.3" y2="53289.3" gradientUnits="userSpaceOnUse">
<stop stop-color="#6A5EBF"/>
<stop offset="1" stop-color="#6E3AA5"/>
</linearGradient>
<linearGradient id="paint4_linear" x1="14671.9" y1="82295.9" x2="18229.1" y2="82295.9" gradientUnits="userSpaceOnUse">
<stop stop-color="#2E256B"/>
<stop offset="1" stop-color="#5A3087"/>
</linearGradient>
<linearGradient id="paint5_linear" x1="15589.1" y1="59510.2" x2="19569.9" y2="59510.2" gradientUnits="userSpaceOnUse">
<stop stop-color="#6A5EBF"/>
<stop offset="1" stop-color="#6E3AA5"/>
</linearGradient>
<linearGradient id="paint6_linear" x1="11848.2" y1="66176.9" x2="16512.1" y2="66176.9" gradientUnits="userSpaceOnUse">
<stop stop-color="#2E256B"/>
<stop offset="1" stop-color="#5A3087"/>
</linearGradient>
</defs>
</svg>
