<svg width="100" height="100" viewBox="0 0 100 100" fill="none" xmlns="http://www.w3.org/2000/svg">
<path d="M18.2374 27.4276C17.0546 26.2175 15.542 25.382 13.8879 25.0253C12.2337 24.6686 10.5112 24.8064 8.93485 25.4215C7.35848 26.0367 5.99792 27.1021 5.02265 28.4849C4.04737 29.8677 3.50047 31.5069 3.45007 33.1983C2.50824 33.7417 1.70825 34.5001 1.11537 35.4116C0.522496 36.3231 0.153543 37.3618 0.0386258 38.4431C-0.0762918 39.5243 0.0660821 40.6174 0.454128 41.6332C0.842173 42.6489 1.46489 43.5585 2.27147 44.2877C3.07804 45.0169 4.0456 45.5451 5.0952 45.8291C6.14479 46.1131 7.24666 46.1449 8.31089 45.9219C9.37512 45.6989 10.3715 45.2275 11.2188 44.546C12.0661 43.8645 12.7403 42.9924 13.1863 42.0007C14.5726 41.8191 15.8941 41.3033 17.0369 40.4979C18.0367 40.9254 19.1234 41.1104 20.2084 41.0378C21.2933 40.9653 22.3457 40.6372 23.2797 40.0804C24.2137 39.5236 25.0028 38.7539 25.5826 37.834C26.1623 36.9141 26.5164 35.8702 26.6159 34.7874C26.7153 33.7046 26.5573 32.6136 26.1548 31.6035C25.7522 30.5934 25.1166 29.6928 24.2996 28.9752C23.4827 28.2576 22.5077 27.7434 21.4541 27.4744C20.4005 27.2054 19.2983 27.1894 18.2374 27.4276Z" fill="#576BC1"/>
<path d="M15.2044 43.2075C14.8572 43.2076 14.5181 43.1028 14.2314 42.907C13.9447 42.7111 13.7239 42.4333 13.5977 42.1099L10.4636 34.0788C10.3813 33.8679 10.3414 33.6428 10.3461 33.4164C10.3508 33.1901 10.4 32.9668 10.4909 32.7595C10.5819 32.5521 10.7128 32.3647 10.8762 32.2079C11.0396 32.0512 11.2322 31.9281 11.4432 31.8458C11.6541 31.7635 11.8792 31.7236 12.1056 31.7283C12.3319 31.733 12.5552 31.7822 12.7625 31.8731C12.9699 31.9641 13.1573 32.095 13.314 32.2584C13.4708 32.4218 13.5938 32.6144 13.6761 32.8254L16.8108 40.8562C16.9129 41.1175 16.9496 41.3998 16.9179 41.6785C16.8861 41.9573 16.7868 42.224 16.6286 42.4557C16.4704 42.6874 16.258 42.8769 16.0099 43.0079C15.7619 43.139 15.4856 43.2074 15.205 43.2075H15.2044Z" fill="#4053A4"/>
<path d="M18.4174 41.9535C18.3646 41.9535 18.3114 41.9509 18.2577 41.9462C18.0322 41.9255 17.813 41.8605 17.6126 41.7551C17.4123 41.6496 17.2346 41.5057 17.0898 41.3316C16.9451 41.1575 16.836 40.9566 16.7689 40.7403C16.7018 40.524 16.6779 40.2967 16.6987 40.0712C16.9673 37.2091 18.1512 34.5098 20.0747 32.3736C20.226 32.2035 20.4094 32.065 20.6145 31.9661C20.8195 31.8673 21.0421 31.81 21.2694 31.7976C21.4967 31.7852 21.7241 31.8179 21.9387 31.8939C22.1533 31.9699 22.3507 32.0876 22.5195 32.2403C22.6884 32.3929 22.8253 32.5775 22.9225 32.7833C23.0196 32.9892 23.075 33.2122 23.0855 33.4396C23.096 33.667 23.0614 33.8942 22.9837 34.1081C22.9059 34.3221 22.7866 34.5185 22.6325 34.6861C21.2082 36.2681 20.3316 38.267 20.1325 40.3865C20.0933 40.8145 19.8958 41.2124 19.5785 41.5022C19.2612 41.7921 18.8472 41.953 18.4174 41.9535Z" fill="#4053A4"/>
<path d="M11.9909 44.4616C11.5637 44.462 11.1516 44.3033 10.8351 44.0163C9.25315 42.5919 7.25427 41.7152 5.13486 41.5163C4.90938 41.4956 4.69018 41.4307 4.48979 41.3252C4.2894 41.2198 4.11174 41.0759 3.96694 40.9018C3.82215 40.7277 3.71307 40.5268 3.64592 40.3106C3.57877 40.0944 3.55487 39.867 3.57559 39.6415C3.59631 39.416 3.66123 39.1968 3.76666 38.9964C3.87209 38.7961 4.01596 38.6184 4.19005 38.4736C4.36414 38.3288 4.56504 38.2197 4.78129 38.1526C4.99754 38.0854 5.22489 38.0615 5.45038 38.0822C8.31189 38.3512 11.0107 39.5347 13.1469 41.4575C13.4057 41.691 13.5876 41.9975 13.6687 42.3366C13.7497 42.6756 13.7261 43.0313 13.6009 43.3566C13.4757 43.682 13.2548 43.9617 12.9674 44.159C12.68 44.3562 12.3395 44.4617 11.9909 44.4616Z" fill="#4053A4"/>
<path d="M35.4182 74.3105L22.5689 79.3256L10.1846 54.5006C9.59874 53.3259 9.26408 52.0421 9.20198 50.7309C9.13989 49.4197 9.35171 48.11 9.82396 46.8853C10.2962 45.6605 11.0185 44.5476 11.9448 43.6175C12.871 42.6874 13.981 41.9606 15.2038 41.4833C16.4267 41.0061 17.7356 40.789 19.0471 40.8458C20.3586 40.9026 21.6439 41.2321 22.8209 41.8133C23.998 42.3945 25.041 43.2146 25.8834 44.2214C26.7258 45.2281 27.3492 46.3994 27.7137 47.6605L35.4182 74.3105Z" fill="#B275CF"/>
<path d="M53.4492 0.000427246H60.3458V48.2763H53.4492V0.000427246Z" fill="#4053A4"/>
<path d="M56.7048 34.9015C56.541 33.8649 56.2679 32.8484 55.8902 31.8692L48.2759 12.0696L43.1035 13.7938L50.4893 32.9964C51.306 35.1194 51.7246 37.3747 51.7242 39.6494V45.7679L56.7048 34.9015Z" fill="#4053A4"/>
<path d="M64.2911 65.033C65.142 66.1677 65.602 67.5478 65.602 68.9662C65.602 70.3845 65.142 71.7646 64.2911 72.8994L64.2674 72.9317C63.5848 73.8418 62.6998 74.5804 61.6823 75.0891C60.6648 75.5979 59.5429 75.8627 58.4053 75.8627H55.3881C54.2505 75.8627 53.1285 75.5979 52.1111 75.0891C51.0936 74.5804 50.2085 73.8418 49.526 72.9317L49.5023 72.8994C48.6514 71.7646 48.1914 70.3845 48.1914 68.9662C48.1914 67.5478 48.6514 66.1677 49.5023 65.033L51.7243 62.0696V45.7679L56.7049 34.9015L56.8967 34.4834L65.5174 12.0696L70.6898 13.7938L63.304 32.9964C62.4873 35.1194 62.0687 37.3747 62.0691 39.6494V62.0696L64.2911 65.033Z" fill="#4053A4"/>
<path d="M64.2911 72.8989L64.2674 72.9312C63.5425 73.8988 62.5887 74.6712 61.4915 75.179L51.1833 74.5346C50.549 74.0919 49.9895 73.5506 49.526 72.9312L49.5023 72.8989C48.6514 71.7641 48.1914 70.384 48.1914 68.9657C48.1914 67.5473 48.6514 66.1672 49.5023 65.0325L49.6553 64.8277L51.7243 63.7933L62.0691 39.6489V62.0691L64.2911 65.0325C65.142 66.1672 65.602 67.5473 65.602 68.9657C65.602 70.384 65.142 71.7641 64.2911 72.8989Z" fill="#027E2A"/>
<path d="M12.1873 59.1907C11.785 59.1912 11.3952 59.051 11.0853 58.7944C10.7755 58.5378 10.5651 58.1809 10.4907 57.7855C10.4163 57.3902 10.4824 56.9812 10.6777 56.6295C10.8731 56.2778 11.1852 56.0055 11.5602 55.8596L14.7724 54.6062C15.1984 54.44 15.673 54.4497 16.0918 54.6334C16.5106 54.8171 16.8393 55.1596 17.0055 55.5856C17.1718 56.0116 17.162 56.4862 16.9783 56.905C16.7946 57.3238 16.4521 57.6525 16.0261 57.8187L12.8149 59.0724C12.6149 59.1505 12.402 59.1907 12.1873 59.1907Z" fill="#4053A4"/>
<path d="M21.8237 55.4297C21.4215 55.4302 21.0317 55.29 20.722 55.0334C20.4122 54.7768 20.2019 54.42 20.1275 54.0247C20.053 53.6295 20.1191 53.2206 20.3143 52.8689C20.5095 52.5172 20.8215 52.2448 21.1963 52.0989L24.4088 50.8455C24.8348 50.6793 25.3094 50.6891 25.7282 50.8728C26.1469 51.0565 26.4756 51.399 26.6418 51.825C26.808 52.251 26.7982 52.7256 26.6145 53.1444C26.4308 53.5631 26.0883 53.8918 25.6623 54.058L22.4511 55.3116C22.2511 55.3897 22.0383 55.4298 21.8237 55.4297Z" fill="#4053A4"/>
<path d="M14.9588 65.459C14.5565 65.4596 14.1667 65.3194 13.8568 65.0628C13.547 64.8061 13.3366 64.4493 13.2622 64.0539C13.1878 63.6585 13.2539 63.2496 13.4492 62.8979C13.6445 62.5462 13.9567 62.2738 14.3316 62.128L18.8855 60.4039C19.0965 60.3215 19.3216 60.2816 19.548 60.2863C19.7744 60.2909 19.9976 60.3402 20.205 60.4311C20.4124 60.5221 20.5998 60.653 20.7566 60.8164C20.9133 60.9798 21.0364 61.1724 21.1187 61.3834C21.201 61.5943 21.241 61.8194 21.2363 62.0458C21.2316 62.2722 21.1824 62.4955 21.0915 62.7028C21.0005 62.9102 20.8696 63.0976 20.7062 63.2544C20.5428 63.4112 20.3501 63.5343 20.1392 63.6166L15.5851 65.3407C15.3855 65.4187 15.1731 65.4589 14.9588 65.459Z" fill="#4053A4"/>
<path d="M25.9368 61.2288C25.5345 61.2292 25.1449 61.0889 24.8351 60.8323C24.5254 60.5757 24.3151 60.2189 24.2407 59.8237C24.1663 59.4284 24.2324 59.0195 24.4276 58.6679C24.6228 58.3162 24.9348 58.0439 25.3096 57.8979L26.9158 57.271C27.3419 57.1048 27.8165 57.1146 28.2353 57.2983C28.6541 57.4821 28.9827 57.8246 29.1489 58.2506C29.3151 58.6767 29.3053 59.1513 29.1216 59.5701C28.9379 59.9889 28.5953 60.3175 28.1693 60.4837L26.563 61.1104C26.3634 61.1885 26.1511 61.2286 25.9368 61.2288Z" fill="#4053A4"/>
<path d="M35.5605 37.9312H39.6526C41.0136 37.9312 42.3477 38.3103 43.5054 39.0259C44.6631 39.7416 45.5986 40.7655 46.2071 41.9829L47.6295 44.8278H43.5375C42.1767 44.8277 40.8428 44.4488 39.6852 43.7333C38.5276 43.0179 37.5922 41.9943 36.9836 40.7771L35.5605 37.9312Z" fill="#4053A4"/>
<path d="M43.8862 54.7421C43.429 54.7421 42.9904 54.5605 42.6671 54.2371C42.3438 53.9138 42.1621 53.4753 42.1621 53.018C42.1683 50.1901 43.1509 47.4512 44.9438 45.2643C46.7366 43.0774 49.2296 41.5767 52.0013 41.016L52.169 40.9824C52.6174 40.8928 53.0831 40.985 53.4635 41.2387C53.844 41.4924 54.108 41.8868 54.1977 42.3352C54.2873 42.7836 54.1951 43.2493 53.9414 43.6297C53.6877 44.0102 53.2933 44.2743 52.8449 44.3639L52.6774 44.3973C50.6866 44.8 48.8959 45.8779 47.6082 47.4487C46.3205 49.0195 45.6148 50.9868 45.6104 53.018C45.6104 53.4753 45.4287 53.9138 45.1054 54.2371C44.7821 54.5605 44.3435 54.7421 43.8862 54.7421Z" fill="#576BC1"/>
<path d="M64.2911 72.8989L64.2674 72.9312C63.5425 73.8988 62.5887 74.6712 61.4915 75.179L51.1833 74.5346C50.549 74.0919 49.9895 73.5506 49.526 72.9312L49.5023 72.8989C48.6514 71.7641 48.1914 70.384 48.1914 68.9657C48.1914 67.5473 48.6514 66.1672 49.5023 65.0325L49.6553 64.8277L51.7243 63.7933L62.0691 39.6489V62.0691L64.2911 65.0325C65.142 66.1672 65.602 67.5473 65.602 68.9657C65.602 70.384 65.142 71.7641 64.2911 72.8989Z" fill="#C6D0FF"/>
<path d="M37.7136 49.5696C38.5519 49.5696 39.3772 49.7766 40.1163 50.1721C40.8554 50.5677 41.4854 51.1396 41.9504 51.8371C42.163 52.1559 42.451 52.4173 42.7888 52.5981C43.1266 52.7789 43.5039 52.8735 43.8871 52.8735C44.2703 52.8735 44.6475 52.7789 44.9853 52.5981C45.3232 52.4173 45.6112 52.1559 45.8237 51.8371C46.2887 51.1396 46.9187 50.5677 47.6577 50.1722C48.3968 49.7766 49.2221 49.5697 50.0604 49.5696C50.824 49.5696 51.5778 49.7414 52.2661 50.0722C52.9544 50.403 53.5594 50.8843 54.0364 51.4806L54.4414 51.9867C55.892 53.7999 56.7435 56.0189 56.8783 58.3371C57.0131 60.6553 56.4244 62.9581 55.1938 64.9272L51.8295 70.3099C51.5095 70.822 51.0644 71.2443 50.5362 71.5371C50.008 71.8298 49.414 71.9834 48.8101 71.9834C47.8658 71.9834 46.9602 71.6083 46.2925 70.9405C45.9766 70.6247 45.6016 70.3741 45.1889 70.2031C44.7761 70.0322 44.3338 69.9442 43.8871 69.9442C43.4404 69.9442 42.998 70.0322 42.5853 70.2031C42.1726 70.3741 41.7976 70.6247 41.4817 70.9405C40.8139 71.6082 39.9083 71.9833 38.964 71.9834C38.3601 71.9835 37.7661 71.8299 37.2379 71.5371C36.7097 71.2444 36.2647 70.8221 35.9446 70.3099L32.5804 64.9272C31.3497 62.9581 30.7611 60.6553 30.8959 58.3371C31.0306 56.0189 31.8822 53.7999 33.3328 51.9867L33.7375 51.4806C34.2146 50.8844 34.8196 50.403 35.5079 50.0722C36.1961 49.7415 36.95 49.5697 37.7136 49.5696Z" fill="#B275CF"/>
<path d="M38.9223 63.7933C38.6959 63.7936 38.4716 63.7491 38.2624 63.6625C38.0531 63.5758 37.8631 63.4487 37.7031 63.2884C36.944 62.531 36.4429 61.5537 36.271 60.4953C36.0992 59.4368 36.2652 58.3511 36.7456 57.3925L37.3794 56.125C37.5861 55.7197 37.9445 55.4125 38.3767 55.2704C38.8089 55.1282 39.2797 55.1626 39.6866 55.3661C40.0935 55.5696 40.4035 55.9256 40.549 56.3567C40.6945 56.7877 40.6638 57.2588 40.4635 57.6673L39.8299 58.9347C39.6738 59.246 39.6199 59.5986 39.6757 59.9423C39.7315 60.286 39.8942 60.6034 40.1406 60.8494C40.3819 61.0904 40.5463 61.3976 40.613 61.7321C40.6797 62.0666 40.6457 62.4133 40.5153 62.7285C40.3848 63.0436 40.1639 63.313 39.8803 63.5026C39.5968 63.6921 39.2634 63.7933 38.9223 63.7933Z" fill="#C6D0FF"/>
<path d="M0 79.3105H100V89.6553H0V79.3105Z" fill="#576BC1"/>
<path d="M10.3443 86.2073H6.89601C6.43874 86.2073 6.0002 86.0257 5.67686 85.7023C5.35353 85.379 5.17188 84.9404 5.17188 84.4832C5.17188 84.0259 5.35353 83.5874 5.67686 83.264C6.0002 82.9407 6.43874 82.759 6.89601 82.759H10.3443C10.8016 82.759 11.2401 82.9407 11.5634 83.264C11.8868 83.5874 12.0684 84.0259 12.0684 84.4832C12.0684 84.9404 11.8868 85.379 11.5634 85.7023C11.2401 86.0257 10.8016 86.2073 10.3443 86.2073Z" fill="#4053A4"/>
<path d="M93.1041 86.2073H89.6558C89.1985 86.2073 88.76 86.0257 88.4366 85.7023C88.1133 85.379 87.9316 84.9404 87.9316 84.4832C87.9316 84.0259 88.1133 83.5874 88.4366 83.264C88.76 82.9407 89.1985 82.759 89.6558 82.759H93.1041C93.5613 82.759 93.9999 82.9407 94.3232 83.264C94.6465 83.5874 94.8282 84.0259 94.8282 84.4832C94.8282 84.9404 94.6465 85.379 94.3232 85.7023C93.9999 86.0257 93.5613 86.2073 93.1041 86.2073Z" fill="#4053A4"/>
<path d="M0 89.6555H100V100H0V89.6555Z" fill="#6C80D7"/>
<path d="M10.3443 96.552H6.89601C6.43874 96.552 6.0002 96.3704 5.67686 96.047C5.35353 95.7237 5.17188 95.2852 5.17188 94.8279C5.17188 94.3706 5.35353 93.9321 5.67686 93.6087C6.0002 93.2854 6.43874 93.1038 6.89601 93.1038H10.3443C10.8016 93.1038 11.2401 93.2854 11.5634 93.6087C11.8868 93.9321 12.0684 94.3706 12.0684 94.8279C12.0684 95.2852 11.8868 95.7237 11.5634 96.047C11.2401 96.3704 10.8016 96.552 10.3443 96.552Z" fill="#4053A4"/>
<path d="M51.7232 86.2071H48.2749C47.8176 86.2071 47.3791 86.0254 47.0558 85.7021C46.7324 85.3787 46.5508 84.9402 46.5508 84.4829C46.5508 84.0257 46.7324 83.5871 47.0558 83.2638C47.3791 82.9404 47.8176 82.7588 48.2749 82.7588H51.7232C52.1805 82.7588 52.619 82.9404 52.9423 83.2638C53.2657 83.5871 53.4473 84.0257 53.4473 84.4829C53.4473 84.9402 53.2657 85.3787 52.9423 85.7021C52.619 86.0254 52.1805 86.2071 51.7232 86.2071Z" fill="#4053A4"/>
<path d="M51.7232 96.552H48.2749C47.8176 96.552 47.3791 96.3704 47.0558 96.047C46.7324 95.7237 46.5508 95.2852 46.5508 94.8279C46.5508 94.3706 46.7324 93.9321 47.0558 93.6087C47.3791 93.2854 47.8176 93.1038 48.2749 93.1038H51.7232C52.1805 93.1038 52.619 93.2854 52.9423 93.6087C53.2657 93.9321 53.4473 94.3706 53.4473 94.8279C53.4473 95.2852 53.2657 95.7237 52.9423 96.047C52.619 96.3704 52.1805 96.552 51.7232 96.552Z" fill="#4053A4"/>
<path d="M93.1021 96.552H89.6538C89.1966 96.552 88.758 96.3704 88.4347 96.047C88.1113 95.7237 87.9297 95.2852 87.9297 94.8279C87.9297 94.3706 88.1113 93.9321 88.4347 93.6087C88.758 93.2854 89.1966 93.1038 89.6538 93.1038H93.1021C93.5594 93.1038 93.9979 93.2854 94.3213 93.6087C94.6446 93.9321 94.8262 94.3706 94.8262 94.8279C94.8262 95.2852 94.6446 95.7237 94.3213 96.047C93.9979 96.3704 93.5594 96.552 93.1021 96.552Z" fill="#4053A4"/>
<path d="M70.6895 58.621L72.2043 60.1359C73.3639 61.2954 74.2838 62.672 74.9113 64.1871C75.5389 65.7021 75.8619 67.3259 75.8619 68.9658H81.0343V67.2417C81.0343 65.6018 80.7113 63.978 80.0837 62.4629C79.4562 60.9479 78.5363 59.5713 77.3767 58.4117L75.8619 56.8969L70.6895 58.621Z" fill="#4053A4"/>
<path d="M91.38 58.621L89.8651 60.1359C88.7055 61.2954 87.7857 62.672 87.1581 64.1871C86.5306 65.7021 86.2076 67.3259 86.2076 68.9658H81.0352V67.2417C81.0351 65.6018 81.3581 63.978 81.9857 62.4629C82.6133 60.9479 83.5331 59.5713 84.6927 58.4117L86.2076 56.8969L91.38 58.621Z" fill="#4053A4"/>
<path d="M99.9995 45.2591C100 44.3103 99.7919 43.3729 99.3891 42.5138C98.9862 41.6547 98.3988 40.895 97.6687 40.2889C97.8864 39.3746 97.902 38.4239 97.7145 37.503C97.527 36.582 97.1409 35.7131 96.5831 34.9567C96.0253 34.2003 95.3093 33.5747 94.4849 33.1234C93.6605 32.6721 92.7476 32.4061 91.8099 32.3438C90.6766 30.3738 89.044 28.7374 87.0767 27.5996C85.1093 26.4617 82.8768 25.8625 80.6041 25.8625C78.3314 25.8625 76.0988 26.4617 74.1315 27.5996C72.1642 28.7374 70.5316 30.3738 69.3983 32.3438C68.4604 32.4059 67.5474 32.6719 66.7229 33.1231C65.8984 33.5743 65.1822 34.1999 64.6243 34.9563C64.0664 35.7127 63.6803 36.5817 63.4927 37.5027C63.3051 38.4237 63.3207 39.3745 63.5383 40.2889C62.2265 41.3794 61.399 42.9444 61.2365 44.6426C61.0739 46.3407 61.5893 48.0343 62.6705 49.354C61.7318 51.0946 61.4201 53.105 61.7877 55.0482C62.1552 56.9914 63.1797 58.749 64.6894 60.0265C66.199 61.304 68.102 62.0236 70.0792 62.0647C72.0563 62.1057 73.9875 61.4657 75.5489 60.252C77.3833 60.0124 79.1244 59.3021 80.603 58.1902C82.0815 59.3022 83.8227 60.0127 85.6571 60.2524C87.2185 61.4663 89.1498 62.1064 91.1271 62.0654C93.1044 62.0244 95.0074 61.3048 96.5171 60.0272C98.0268 58.7496 99.0513 56.9917 99.4188 55.0485C99.7863 53.1052 99.4745 51.0946 98.5355 49.354C99.4839 48.2002 100.001 46.7526 99.9995 45.2591Z" fill="#B275CF"/>
<path d="M85.4822 37.9316C85.1256 37.9316 84.7777 37.821 84.4866 37.615C84.1954 37.409 83.9753 37.1179 83.8565 36.7816C83.6185 36.1093 83.1779 35.5272 82.5955 35.1156C82.0131 34.704 81.3174 34.4829 80.6042 34.4829C79.8909 34.4829 79.1953 34.704 78.6128 35.1156C78.0304 35.5272 77.5898 36.1093 77.3518 36.7816C77.1994 37.2127 76.882 37.5657 76.4694 37.7628C76.0568 37.9599 75.5827 37.9851 75.1516 37.8327C74.7204 37.6803 74.3675 37.3629 74.1704 36.9502C73.9733 36.5376 73.9481 36.0636 74.1005 35.6325C74.5762 34.2878 75.4571 33.1236 76.6218 32.3002C77.7865 31.4768 79.1778 31.0347 80.6042 31.0347C82.0305 31.0347 83.4218 31.4768 84.5865 32.3002C85.7512 33.1236 86.6321 34.2878 87.1078 35.6325C87.1998 35.8925 87.2281 36.1709 87.1902 36.4442C87.1523 36.7174 87.0494 36.9776 86.8902 37.2029C86.7309 37.4281 86.5199 37.6118 86.2749 37.7387C86.0299 37.8655 85.7581 37.9316 85.4822 37.9316Z" fill="#4053A4"/>
<path d="M71.983 50.0003C70.6112 50.0003 69.2955 49.4553 68.3255 48.4853C67.3555 47.5153 66.8105 46.1997 66.8105 44.8279C66.8105 43.4561 67.3555 42.1404 68.3255 41.1704C69.2955 40.2004 70.6112 39.6555 71.983 39.6555C72.4402 39.6555 72.8788 39.8371 73.2021 40.1604C73.5255 40.4838 73.7071 40.9223 73.7071 41.3796C73.7071 41.8369 73.5255 42.2754 73.2021 42.5987C72.8788 42.9221 72.4402 43.1037 71.983 43.1037C71.5257 43.1037 71.0871 43.2854 70.7638 43.6087C70.4405 43.9321 70.2588 44.3706 70.2588 44.8279C70.2588 45.2851 70.4405 45.7237 70.7638 46.047C71.0871 46.3704 71.5257 46.552 71.983 46.552C72.4402 46.552 72.8788 46.7337 73.2021 47.057C73.5255 47.3803 73.7071 47.8189 73.7071 48.2761C73.7071 48.7334 73.5255 49.172 73.2021 49.4953C72.8788 49.8186 72.4402 50.0003 71.983 50.0003Z" fill="#4053A4"/>
<path d="M0 68.9661H100V79.311H0V68.9661Z" fill="#6C80D7"/>
<path d="M10.3443 75.8623H6.89601C6.43874 75.8623 6.0002 75.6806 5.67686 75.3573C5.35353 75.034 5.17188 74.5954 5.17188 74.1381C5.17188 73.6809 5.35353 73.2423 5.67686 72.919C6.0002 72.5956 6.43874 72.414 6.89601 72.414H10.3443C10.8016 72.414 11.2401 72.5956 11.5634 72.919C11.8868 73.2423 12.0684 73.6809 12.0684 74.1381C12.0684 74.5954 11.8868 75.034 11.5634 75.3573C11.2401 75.6806 10.8016 75.8623 10.3443 75.8623Z" fill="#4053A4"/>
<path d="M93.1041 75.8623H89.6558C89.1985 75.8623 88.76 75.6806 88.4366 75.3573C88.1133 75.034 87.9316 74.5954 87.9316 74.1381C87.9316 73.6809 88.1133 73.2423 88.4366 72.919C88.76 72.5956 89.1985 72.414 89.6558 72.414H93.1041C93.5613 72.414 93.9999 72.5956 94.3232 72.919C94.6465 73.2423 94.8282 73.6809 94.8282 74.1381C94.8282 74.5954 94.6465 75.034 94.3232 75.3573C93.9999 75.6806 93.5613 75.8623 93.1041 75.8623Z" fill="#4053A4"/>
<path d="M51.7232 75.8623H48.2749C47.8176 75.8623 47.3791 75.6806 47.0558 75.3573C46.7324 75.034 46.5508 74.5954 46.5508 74.1381C46.5508 73.6809 46.7324 73.2423 47.0558 72.919C47.3791 72.5956 47.8176 72.414 48.2749 72.414H51.7232C52.1805 72.414 52.619 72.5956 52.9423 72.919C53.2657 73.2423 53.4473 73.6809 53.4473 74.1381C53.4473 74.5954 53.2657 75.034 52.9423 75.3573C52.619 75.6806 52.1805 75.8623 51.7232 75.8623Z" fill="#4053A4"/>
</svg>
