<svg width="100" height="100" viewBox="0 0 100 100" fill="none" xmlns="http://www.w3.org/2000/svg">
<path d="M13.8613 14.4946H25.1172V35.1409H13.8613V14.4946Z" fill="#4053A4"/>
<path d="M10.7344 6.15375H28.2435V15.747H10.7344V6.15375Z" fill="#6C80D7"/>
<path d="M8.23438 52.2425V100H91.6111V52.2425L49.9228 10.5327L8.23438 52.2425Z" fill="#6C80D7"/>
<path d="M98.2803 46.1941L53.6738 1.56455C51.5894 -0.520946 48.2543 -0.520946 46.1699 1.56455L1.56331 46.1941C-0.521105 48.2796 -0.521105 51.6164 1.56331 53.7019C3.64773 55.7873 6.9828 55.7873 9.06722 53.7019L49.9218 12.8262L90.7764 53.7019C92.8609 55.7873 96.1959 55.7873 98.2803 53.7019C100.573 51.6164 100.573 48.2796 98.2803 46.1941Z" fill="#4053A4"/>
<path d="M37.208 66.8411C44.4605 66.8411 50.3399 60.9588 50.3399 53.7025C50.3399 46.4463 44.4605 40.5639 37.208 40.5639C29.9555 40.5639 24.0762 46.4463 24.0762 53.7025C24.0762 60.9588 29.9555 66.8411 37.208 66.8411Z" fill="#A85CCC"/>
<path d="M37.2075 63.2963C42.503 63.2963 46.7958 59.0013 46.7958 53.7031C46.7958 48.4048 42.503 44.1098 37.2075 44.1098C31.912 44.1098 27.6191 48.4048 27.6191 53.7031C27.6191 59.0013 31.912 63.2963 37.2075 63.2963Z" fill="#8440A4"/>
<path d="M36.5826 59.9587V58.9159C35.3319 58.7074 34.0813 58.0817 33.0391 57.2476L34.4982 55.5792C35.3319 56.2048 35.9572 56.6219 36.5826 56.8305V54.5364C35.5404 54.3279 34.7066 53.9108 34.2897 53.4937C33.8728 53.0766 33.4559 52.4509 33.4559 51.4082C33.4559 50.574 33.6644 49.7398 34.2897 49.3227C34.915 48.697 35.5404 48.4885 36.5826 48.2799V47.4457H38.2501V48.2799C39.2923 48.4885 40.3345 48.9056 41.3767 49.5312L40.1261 51.4082C39.5008 50.9911 38.8754 50.574 38.2501 50.574V52.868C39.2923 53.0766 40.1261 53.4937 40.7514 53.9108C41.3767 54.3279 41.5852 55.1621 41.5852 55.9963C41.5852 56.8305 41.3767 57.6646 40.7514 58.0817C40.1261 58.7074 39.2923 58.9159 38.4586 59.1245V60.1672H36.5826V59.9587ZM36.5826 50.1569C36.1657 50.3654 35.9572 50.574 35.9572 50.9911C35.9572 51.4082 36.1657 51.6167 36.5826 51.8253V50.1569ZM38.8754 55.7877C38.8754 55.5792 38.8754 55.3706 38.667 55.1621C38.4586 54.9535 38.2501 54.9535 38.0417 54.745V56.6219C38.667 56.6219 38.8754 56.2048 38.8754 55.7877Z" fill="#A85CCC"/>
<path d="M62.0127 91.6585C69.2652 91.6585 75.1445 85.7761 75.1445 78.5199C75.1445 71.2636 69.2652 65.3813 62.0127 65.3813C54.7602 65.3813 48.8809 71.2636 48.8809 78.5199C48.8809 85.7761 54.7602 91.6585 62.0127 91.6585Z" fill="#A85CCC"/>
<path d="M62.0122 88.1137C67.3076 88.1137 71.6005 83.8187 71.6005 78.5205C71.6005 73.2222 67.3076 68.9272 62.0122 68.9272C56.7167 68.9272 52.4238 73.2222 52.4238 78.5205C52.4238 83.8187 56.7167 88.1137 62.0122 88.1137Z" fill="#8440A4"/>
<path d="M56.3848 78.1028V76.8515H57.8439C58.0523 75.6002 58.6776 74.766 59.5114 73.9318C60.3452 73.0976 61.3874 72.8891 62.638 72.8891C64.0971 72.8891 65.5562 73.5147 66.5984 74.766L65.1393 76.643C64.3056 75.8088 63.4718 75.1831 62.4296 75.1831C61.1789 75.1831 60.5536 75.8088 60.1367 76.8515H63.6802V78.1028H59.7198V78.937H63.6802V80.1883H60.3452C60.5536 80.6054 60.9705 81.0225 61.3874 81.2311C61.8043 81.4396 62.2211 81.6482 62.8465 81.6482C63.8887 81.6482 64.7224 81.2311 65.3478 80.3969L66.8069 82.0653C66.1815 82.6909 65.5562 83.108 64.9309 83.5251C64.3056 83.9422 63.4718 83.9422 62.8465 83.9422C61.5958 83.9422 60.762 83.5251 59.7198 82.8995C58.6776 82.2738 58.2607 81.2311 57.8439 80.1883H56.3848V78.937H57.6354V78.5199V78.1028H56.3848Z" fill="#A85CCC"/>
<path d="M37.6244 77.2681L34.9146 78.1023C36.7906 83.5246 42.0016 86.8614 47.4211 86.8614C46.1705 87.9041 44.9198 88.5298 43.4607 88.9469C36.5821 91.2409 29.0782 87.6956 26.5769 80.8134L23.8672 81.6476L28.036 71.6373L37.6244 77.2681Z" fill="#4053A4"/>
<path d="M61.1776 54.9536L63.8874 54.1194C62.0114 48.6972 56.8003 45.3604 51.3809 45.3604C52.6315 44.3176 53.8822 43.692 55.3413 43.2749C62.2198 40.9808 69.7237 44.5262 72.2251 51.4083L74.9348 50.5741L70.766 60.5845L61.1776 54.9536Z" fill="#4053A4"/>
</svg>
