<svg width="194" height="147" viewBox="0 0 194 147" fill="none" xmlns="http://www.w3.org/2000/svg">
<path d="M44.1325 20.0005L192.938 108.311" stroke="#15234F"/>
<path d="M0.999736 57.4775L149.805 145.788" stroke="#15234F"/>
<path d="M30.3318 31.6313L179.137 119.941" stroke="#15234F"/>
<path d="M18.2536 44.5542L167.059 132.864" stroke="#15234F"/>
<path d="M163.41 78.9486L148.752 76.3076L80.7157 37.076C77.8008 35.3956 73.0769 35.3956 70.1621 37.076L37.0253 56.1834L29.2617 54.785L30.9756 63.2987C30.9525 63.4915 30.9525 63.6864 30.9756 63.8792C31.0945 64.8768 31.8169 65.8566 33.1427 66.6211L111.938 111.918C113.424 112.78 115.401 113.198 117.357 113.177C119.218 113.157 121.073 112.732 122.49 111.918L159.579 90.3721C160.881 89.6209 161.602 88.6619 161.739 87.6806H161.763L163.41 78.9486Z" fill="#9879C2" fill-opacity="0.5"/>
<path d="M163.41 73.8985V78.9459C163.41 80.0459 162.681 81.1474 161.223 81.9877L122.484 104.325C121.063 105.143 119.214 105.563 117.352 105.584V100.179C119.213 100.16 121.068 99.7337 122.484 98.9217L161.217 76.5855C162.521 75.8343 163.24 74.8738 163.379 73.894L163.41 73.8985Z" fill="#634D99"/>
<path d="M117.357 100.179V105.584C115.401 105.607 113.432 105.187 111.938 104.326L31.4272 57.9014C30.1058 57.1399 29.3849 56.1645 29.2615 55.1684H29.2422V49.7573H29.26C29.3804 50.7549 30.1028 51.7347 31.4272 52.4992L111.938 98.9234C113.432 99.7829 115.401 100.202 117.357 100.179Z" fill="#7B5BAA"/>
<path d="M163.386 73.8941C163.248 74.8739 162.528 75.8344 161.225 76.5856L122.486 98.9217C121.065 99.7397 119.215 100.16 117.353 100.179C115.397 100.201 113.427 99.7828 111.933 98.9217L31.4289 52.4961C30.1045 51.7316 29.3821 50.7518 29.2617 49.7542L33.6392 50.5425L70.1636 29.4859C73.0769 27.8055 77.8008 27.8055 80.7171 29.4859L155.172 72.417L163.386 73.8941Z" fill="#223954"/>
<path d="M163.385 73.8942C163.247 74.8739 162.528 75.8344 161.224 76.5856L122.485 98.9218C121.064 99.7398 119.215 100.16 117.352 100.179C115.396 100.201 113.427 99.7828 111.933 98.9218L31.4283 52.4962C30.1039 51.7316 29.3815 50.7519 29.2611 49.7543C29.1125 48.5548 29.8393 47.3285 31.4283 46.4111L70.163 24.0779C73.0763 22.3989 77.8002 22.3989 80.7165 24.0779L161.226 70.502C162.835 71.4313 163.556 72.6858 163.385 73.8942Z" fill="url(#paint0_linear)"/>
<path d="M163.41 73.8985V78.9459C163.41 80.0459 162.681 81.1474 161.223 81.9877L122.484 104.325C121.063 105.143 119.214 105.563 117.352 105.584V100.179C119.213 100.16 121.068 99.7337 122.484 98.9217L161.217 76.5855C162.521 75.8343 163.24 74.8738 163.379 73.894L163.41 73.8985Z" fill="url(#paint1_linear)"/>
<path d="M117.357 100.179V105.584C115.401 105.607 113.432 105.187 111.938 104.326L31.4272 57.9014C30.1058 57.1399 29.3849 56.1645 29.2615 55.1684H29.2422V49.7573H29.26C29.3804 50.7549 30.1028 51.7347 31.4272 52.4992L111.938 98.9234C113.432 99.7829 115.401 100.202 117.357 100.179Z" fill="url(#paint2_linear)"/>
<path d="M92.1244 5.82022C90.9676 5.1532 89.9554 5.181 89.2324 5.70907C88.5094 4.34723 87.4972 3.15214 86.3404 2.48512C84.2196 1.26225 82.4844 2.2628 82.4844 4.70857C82.4844 9.54452 89.2324 17.2709 89.2324 17.2709C89.2324 17.2709 95.9804 17.3264 95.9804 12.4905C95.9804 10.0447 94.2452 7.04309 92.1244 5.82022Z" fill="#EA5774"/>
<path d="M94.2926 7.84867C94.7264 8.82142 94.9674 9.79417 94.9674 10.7391C94.9674 15.5751 88.2194 15.5195 88.2194 15.5195C88.2194 15.5195 86.0504 13.046 84.2187 10.0444C86.195 13.7964 89.2316 17.2705 89.2316 17.2705C89.2316 17.2705 95.9796 17.326 95.9796 12.4901C95.9796 10.9337 95.3048 9.21052 94.2926 7.84867Z" fill="#E13759"/>
<path d="M117.209 105.827C115.175 105.827 113.267 105.37 111.817 104.536L31.3069 58.1117C30.042 57.3828 29.2467 56.4164 29.049 55.3743L29 55.3654V49.4659C29 48.2352 29.8175 47.0609 31.3054 46.1999L70.0401 23.8667C73.0129 22.1506 77.8601 22.1506 80.8345 23.8667L161.345 70.2893C162.892 71.18 163.723 72.4107 163.647 73.6904V78.9456C163.647 80.1852 162.83 81.3401 161.34 82.1967L122.607 104.533C121.198 105.345 119.337 105.802 117.356 105.824L117.209 105.827ZM29.4876 54.9987L29.5054 55.1382C29.6228 56.0913 30.3497 56.9984 31.5507 57.6901L112.061 104.114C113.472 104.928 115.352 105.363 117.357 105.34C119.252 105.321 121.032 104.885 122.37 104.114L161.103 81.7796C162.44 81.0121 163.167 80.007 163.167 78.9486V74.1016L163.111 74.0927L163.145 73.8596C163.307 72.7017 162.564 71.5541 161.103 70.7124L80.5936 24.2898C77.7516 22.6568 73.1274 22.6568 70.2853 24.2898L31.5507 46.6245C30.1118 47.4543 29.3656 48.5855 29.5039 49.7271L29.5425 50.0478L29.4876 50.0389V54.9987Z" fill="#BF89EF"/>
<path d="M31.4297 46.4094L70.1643 24.0776L31.4297 46.4094Z" fill="#925FC4"/>
<path d="M147.579 66.1074L105.498 90.372L37.8633 51.3735L79.9454 27.1089L147.579 66.1074Z" fill="url(#paint3_linear)"/>
<path d="M75.6288 37.2083L48.1657 53.0438L44.2891 50.8081L71.7507 34.9727L75.6288 37.2083Z" fill="white"/>
<path d="M81.3927 40.6257L64.4965 50.3686L62.1094 48.9925L79.007 39.2495L81.3927 40.6257Z" fill="white"/>
<path d="M85.5372 42.8337L68.6396 52.5766L66.2539 51.2005L83.1515 41.4575L85.5372 42.8337Z" fill="white"/>
<path d="M89.6818 45.0407L72.7841 54.7836L70.3984 53.4075L87.2961 43.6646L89.6818 45.0407Z" fill="white"/>
<path d="M116.443 74.2873L99.5458 84.0302L97.1602 82.6541L114.058 72.9111L116.443 74.2873Z" fill="white"/>
<path d="M71.8558 34.7936L71.6484 35.1523L136.561 72.5817L136.768 72.223L71.8558 34.7936Z" fill="white"/>
<path d="M82.0661 12.8981L81.8016 12.5165L83.1542 11.7475L83.23 11.7045C84.4191 11.0558 86.1553 11.2131 88.0861 12.328C91.6744 14.3959 94.5833 18.9802 94.5833 22.5638C94.5833 24.0691 94.072 25.1588 93.2113 25.763C93.0827 25.853 92.947 25.9324 92.8055 26.0005L91.6297 26.6863L91.3711 26.3122C90.4064 26.3211 89.2901 25.999 88.0861 25.3072C84.4964 23.2378 81.5875 18.655 81.5875 15.064C81.5679 14.3138 81.7322 13.5703 82.0661 12.8981Z" fill="#FF9D4D"/>
<path d="M84.844 11.4252C85.3157 11.4306 85.7843 11.501 86.2367 11.6346L86.372 11.6747H86.3809C86.8925 11.8378 87.3865 12.0516 87.8554 12.313L87.961 12.3724L88.0368 12.4139C88.4314 12.6429 88.8116 12.8958 89.1754 13.1711C89.2051 13.1933 89.2348 13.2156 89.2631 13.2394C89.6255 13.5203 89.9728 13.82 90.3036 14.1375L90.314 14.1479L90.3809 14.2117C90.6975 14.519 91.0066 14.8471 91.298 15.1871L91.3664 15.2672C91.6473 15.5983 91.9178 15.9486 92.172 16.3064L92.2315 16.3895C92.4797 16.7473 92.7145 17.1184 92.9286 17.4925C92.9464 17.5207 92.9628 17.5504 92.9806 17.5816C93.1962 17.9631 93.3938 18.355 93.5678 18.7455C93.5811 18.7766 93.596 18.8078 93.6094 18.8405C93.7856 19.2439 93.9395 19.6567 94.0702 20.0771C94.0806 20.1097 94.091 20.1439 94.0999 20.1765C94.231 20.6112 94.3304 21.0547 94.3972 21.5037C94.3972 21.5393 94.4076 21.5764 94.412 21.6136C94.4541 21.927 94.4755 22.2429 94.476 22.5592C94.476 22.7393 94.4685 22.913 94.4537 23.0803C94.4537 23.1218 94.4462 23.1634 94.4418 23.205C94.3214 24.3065 93.8754 25.1586 93.1545 25.6693C93.0282 25.7571 92.895 25.8345 92.7562 25.9009L91.6651 26.5392L91.46 26.2423L91.4288 26.1978H91.3337C90.3705 26.1978 89.2661 25.8549 88.1423 25.2061C84.5868 23.1575 81.6957 18.6059 81.6957 15.0594C81.6742 14.3243 81.834 13.5953 82.161 12.9365L82.1907 12.8801L82.155 12.8281L81.9544 12.5401L83.2089 11.8276L83.2773 11.789C83.7579 11.5361 84.2949 11.4089 84.838 11.4193L84.844 11.4252ZM84.844 11.3213C84.2831 11.3113 83.7288 11.443 83.2327 11.7043L83.1569 11.7474L81.8042 12.5164L82.0688 12.8979C81.7344 13.572 81.5706 14.3177 81.5917 15.0698C81.5917 18.6549 84.5006 23.2347 88.0903 25.313C89.2795 25.9944 90.3794 26.318 91.3337 26.318H91.3753L91.6339 26.6921L92.8097 26.0063C92.9512 25.9382 93.0869 25.8588 93.2155 25.7687C93.9453 25.2551 94.424 24.3941 94.5533 23.2258C94.5533 23.1842 94.5622 23.1411 94.5651 23.0996C94.58 22.9284 94.5875 22.7517 94.5875 22.5696C94.5867 22.2484 94.5648 21.9275 94.522 21.6091C94.522 21.572 94.5131 21.5364 94.5072 21.4978C94.4406 21.0458 94.3412 20.5993 94.2099 20.1617C94.201 20.1275 94.1906 20.0934 94.1802 20.0593C94.0487 19.6357 93.8934 19.2198 93.7149 18.8137C93.7015 18.7811 93.6867 18.7499 93.6733 18.7172C93.4979 18.3238 93.3002 17.9305 93.0787 17.5445L93.0267 17.4539C92.8112 17.0783 92.5808 16.7116 92.3236 16.345L92.2642 16.2604C92.01 15.8996 91.738 15.5508 91.4526 15.2212C91.4303 15.193 91.408 15.1663 91.3842 15.1395C91.0869 14.7981 90.7822 14.4685 90.4612 14.1583L90.3839 14.084C90.0483 13.7633 89.6961 13.4605 89.3285 13.177L89.2393 13.1087C88.8727 12.8306 88.4889 12.5757 88.0903 12.3457L88.013 12.3011L87.9075 12.2417C87.429 11.9758 86.9251 11.7584 86.4032 11.593L86.2665 11.5529C85.8051 11.4158 85.3268 11.3438 84.8454 11.3391L84.844 11.3213Z" fill="#FFE840"/>
<path d="M91.9638 26.4634C94.1209 24.8429 93.5446 20.4421 90.6765 16.634C87.8085 12.8259 83.7347 11.0525 81.5776 12.6729C79.4205 14.2934 79.9969 18.6941 82.865 22.5023C85.733 26.3104 89.8067 28.0838 91.9638 26.4634Z" fill="#FFD071"/>
<path d="M91.9638 26.4634C94.1209 24.8429 93.5446 20.4421 90.6765 16.634C87.8085 12.8259 83.7347 11.0525 81.5776 12.6729C79.4205 14.2934 79.9969 18.6941 82.865 22.5023C85.733 26.3104 89.8067 28.0838 91.9638 26.4634Z" fill="#FFE840"/>
<path d="M82.5891 21.2703C81.5174 19.5809 80.9258 17.8173 80.9258 16.3031C80.9258 14.7889 81.5204 13.7037 82.5891 13.2524C83.6579 12.8011 85.0878 13.0312 86.6025 13.9056C88.1171 14.78 89.5456 16.1917 90.6158 17.8811C91.686 19.5705 92.2791 21.3357 92.2791 22.8499C92.2791 24.3641 91.6845 25.4478 90.6158 25.9006C89.5471 26.3533 88.1171 26.1218 86.6025 25.2459C85.0878 24.37 83.6623 22.9538 82.5891 21.2703ZM81.2394 16.4827C81.2394 19.4369 83.646 23.2284 86.6039 24.9341C89.5619 26.6399 91.9699 25.6244 91.9699 22.6702C91.9699 19.716 89.5619 15.9245 86.6039 14.2173C83.646 12.5101 81.2394 13.5285 81.2394 16.4827Z" fill="#FF9D4D"/>
<path d="M86.125 13.2524L86.177 13.343L88.0142 12.283L87.9087 12.2236L86.125 13.2524Z" fill="#FFE840"/>
<path d="M87.7461 13.9499L87.7996 14.0404L89.3276 13.1586L89.2385 13.0903L87.7461 13.9499Z" fill="#FFE840"/>
<path d="M88.8789 14.9373L88.9309 15.0278L90.462 14.1445L90.3847 14.0703L88.8789 14.9373Z" fill="#FFE840"/>
<path d="M90.0078 15.9158L90.0599 16.0064L91.4526 15.2032C91.4303 15.175 91.408 15.1483 91.3842 15.1216L90.0078 15.9158Z" fill="#FFE840"/>
<path d="M90.6445 17.1823L90.6965 17.2728L92.3212 16.3346L92.2617 16.25L90.6445 17.1823Z" fill="#FFE840"/>
<path d="M91.2578 18.4736L91.3099 18.5642L93.0772 17.5339L93.0252 17.4434L91.2578 18.4736Z" fill="#FFE840"/>
<path d="M91.8633 19.7517L91.9153 19.8407L93.7168 18.8016C93.7035 18.7689 93.6886 18.7377 93.6752 18.7051L91.8633 19.7517Z" fill="#FFE840"/>
<path d="M92.1641 21.2097L92.2161 21.3003L94.2079 20.1513C94.199 20.1171 94.1886 20.083 94.1782 20.0488L92.1641 21.2097Z" fill="#FFE840"/>
<path d="M92.6758 22.5473L92.7278 22.6378L94.5205 21.5986C94.5205 21.5615 94.5115 21.5259 94.5056 21.4873L92.6758 22.5473Z" fill="#FFE840"/>
<path d="M92.6094 24.226L92.6614 24.315L94.561 23.2195C94.561 23.1779 94.57 23.1348 94.5729 23.0933L92.6094 24.226Z" fill="#FFE840"/>
<path d="M84.5625 12.5165L84.6145 12.6071L86.3982 11.5679L86.2615 11.5278L84.5625 12.5165Z" fill="#FFE840"/>
<path d="M87.301 19.4237V20.2907L87.2446 20.2565L86.7695 19.9819V19.1729L87.0368 19.3213C87.117 19.373 87.2069 19.4079 87.301 19.4237Z" fill="#D1975D"/>
<path d="M105.671 39.6752V40.5422L105.616 40.5066L105.141 40.2334V39.4229L105.408 39.5713C105.487 39.6234 105.577 39.6588 105.671 39.6752Z" fill="#D1975D"/>
<path d="M135.311 85.1738C138.694 85.1738 141.438 83.5919 141.438 81.6406C141.438 79.6893 138.694 78.1074 135.311 78.1074C131.927 78.1074 129.184 79.6893 129.184 81.6406C129.184 83.5919 131.927 85.1738 135.311 85.1738Z" fill="url(#paint4_linear)"/>
<path d="M87.4932 23.5142L85.9301 22.6128L85.9376 18.0996L85.9873 17.3706L85.9733 17.3625L85.6574 17.7894L85.4207 17.962L84.5742 16.3419L86.1951 15.1915L87.4932 15.9401L87.4932 23.5142Z" fill="#FF9D4D"/>
<path d="M118.086 52.7487C120.243 51.1269 119.667 46.7237 116.802 42.9138C113.936 39.1039 109.865 37.3301 107.709 38.9519C105.553 40.5737 106.128 44.9769 108.994 48.7868C111.859 52.5967 115.93 54.3705 118.086 52.7487Z" fill="#FFD071"/>
<path d="M118.373 32.6061C117.201 31.9296 116.176 31.9572 115.444 32.4918C114.711 31.1117 113.686 29.9004 112.515 29.224C110.367 27.9839 108.609 28.9966 108.609 31.4744C108.609 36.3737 115.444 44.2052 115.444 44.2052C115.444 44.2052 122.278 44.2653 122.278 39.3659C122.278 36.8881 120.521 33.8462 118.373 32.6061Z" fill="#EA5774"/>
<path d="M120.573 34.6558C121.013 35.6413 121.257 36.6268 121.257 37.5842C121.257 42.4835 114.42 42.4272 114.42 42.4272C114.42 42.4272 112.223 39.9212 110.367 36.8803C112.369 40.6815 115.446 44.2011 115.446 44.2011C115.446 44.2011 122.282 44.2574 122.282 39.3581C122.282 37.7813 121.599 36.0355 120.573 34.6558Z" fill="#E13759"/>
<path d="M107.584 39.1805L107.32 38.7975L108.672 38.03L108.748 37.987C109.937 37.3367 111.672 37.4956 113.603 38.609C117.193 40.6784 120.102 45.2626 120.102 48.8522C120.102 50.3575 119.589 51.4457 118.73 52.0514C118.602 52.1411 118.466 52.22 118.325 52.2874L117.15 52.9747L116.891 52.6006C115.926 52.6096 114.81 52.2859 113.604 51.5956C110.016 49.5262 107.107 44.9435 107.107 41.3524C107.086 40.6004 107.25 39.8547 107.584 39.1805Z" fill="#FF9D4D"/>
<path d="M110.36 37.7075C110.831 37.7127 111.299 37.7832 111.751 37.9168L111.886 37.9569H111.895C112.407 38.12 112.902 38.3339 113.371 38.5952L113.477 38.6531L113.551 38.6962C113.946 38.9252 114.327 39.178 114.691 39.4533L114.779 39.5201C115.141 39.8015 115.488 40.1018 115.819 40.4197L115.897 40.4939C116.213 40.7998 116.521 41.1278 116.814 41.4693L116.882 41.5494C117.163 41.882 117.433 42.2308 117.686 42.5886L117.746 42.6732C117.995 43.031 118.23 43.4021 118.444 43.7747C118.462 43.8044 118.478 43.8341 118.495 43.8638C118.712 44.2468 118.909 44.6387 119.089 45.0292L119.131 45.1242C119.307 45.5265 119.46 45.9384 119.59 46.3578V46.3697L119.617 46.4603C119.748 46.8944 119.848 47.3374 119.914 47.7859C119.914 47.8231 119.925 47.8587 119.929 47.8958C119.971 48.2098 119.993 48.5262 119.993 48.8429C119.993 49.0211 119.993 49.1962 119.971 49.364C119.971 49.4056 119.963 49.4471 119.959 49.4887C119.837 50.5902 119.391 51.4438 118.669 51.953C118.542 52.0405 118.409 52.1179 118.27 52.1846L117.179 52.8229L116.974 52.526L116.943 52.48H116.849C115.886 52.48 114.782 52.1371 113.656 51.4883C110.102 49.4397 107.211 44.8867 107.211 41.3416C107.19 40.6066 107.349 39.8775 107.677 39.2187L107.706 39.1623L107.671 39.1104L107.47 38.8135L108.725 38.1024L108.793 38.0623C109.274 37.8094 109.81 37.6823 110.354 37.6926L110.36 37.7075ZM110.36 37.6036C109.799 37.5934 109.244 37.7252 108.748 37.9866L108.672 38.0296L107.32 38.7971L107.584 39.1801C107.25 39.8543 107.086 40.6 107.107 41.352C107.107 44.9371 110.016 49.5169 113.604 51.5952C114.794 52.2766 115.895 52.6003 116.849 52.6003H116.891L117.15 52.9744L118.325 52.287C118.466 52.2197 118.602 52.1407 118.73 52.051C119.459 51.5373 119.938 50.6763 120.067 49.508C120.067 49.4664 120.076 49.4234 120.079 49.3803C120.094 49.2111 120.102 49.0344 120.102 48.8518C120.101 48.5306 120.079 48.2097 120.036 47.8913C120.036 47.8542 120.027 47.8171 120.021 47.78C119.955 47.3281 119.855 46.8815 119.724 46.4439L119.693 46.3415C119.562 45.9179 119.407 45.5021 119.229 45.096C119.216 45.0633 119.201 45.0321 119.186 44.9995C119.011 44.6046 118.813 44.2127 118.591 43.8267C118.575 43.797 118.559 43.7658 118.541 43.7361C118.324 43.3591 118.089 42.9894 117.838 42.6272L117.777 42.5426C117.523 42.1813 117.253 41.832 116.967 41.4945L116.898 41.4143C116.601 41.0714 116.304 40.7433 115.975 40.4331L115.897 40.3574C115.561 40.0375 115.209 39.7352 114.843 39.4518L114.753 39.3835C114.386 39.1054 114.002 38.8501 113.603 38.619L113.527 38.5759L113.422 38.5165C112.943 38.25 112.439 38.0326 111.917 37.8678L111.781 37.8277C111.319 37.6907 110.841 37.6187 110.36 37.614V37.6036Z" fill="#FFE840"/>
<path d="M117.469 52.7487C119.625 51.1269 119.05 46.7237 116.184 42.9138C113.319 39.1039 109.248 37.3301 107.091 38.9519C104.935 40.5737 105.511 44.9769 108.376 48.7868C111.242 52.5967 115.313 54.3705 117.469 52.7487Z" fill="#FFE840"/>
<path d="M108.105 47.5528C107.033 45.8634 106.441 44.0998 106.441 42.5841C106.441 41.0684 107.036 39.9862 108.105 39.5334C109.173 39.0807 110.603 39.3137 112.118 40.1881C113.633 41.0625 115.06 42.4743 116.131 44.1637C117.203 45.8531 117.795 47.6182 117.795 49.1324C117.795 50.6466 117.2 51.7303 116.131 52.1831C115.063 52.6359 113.633 52.4028 112.118 51.5284C110.603 50.654 109.176 49.2422 108.105 47.5528ZM106.754 42.7652C106.754 45.7194 109.162 49.5109 112.12 51.2167C115.078 52.9224 117.484 51.907 117.484 48.9528C117.484 45.9985 115.078 42.2056 112.12 40.4998C109.162 38.7941 106.754 39.811 106.754 42.7652Z" fill="#FF9D4D"/>
<path d="M111.641 39.5356L111.693 39.6262L113.53 38.5662L113.424 38.5068L111.641 39.5356Z" fill="#FFE840"/>
<path d="M113.262 40.2326L113.314 40.3231L114.843 39.4413L114.754 39.373L113.262 40.2326Z" fill="#FFE840"/>
<path d="M114.395 41.2157L114.447 41.3063L115.978 40.4156L115.899 40.3398L114.395 41.2157Z" fill="#FFE840"/>
<path d="M115.523 42.1966L115.575 42.2871L116.968 41.4825L116.9 41.4023L115.523 42.1966Z" fill="#FFE840"/>
<path d="M116.16 43.4645L116.212 43.5551L117.838 42.6168L117.777 42.5322L116.16 43.4645Z" fill="#FFE840"/>
<path d="M116.773 44.7563L116.825 44.8454L118.591 43.8166C118.575 43.7869 118.559 43.7558 118.541 43.7261L116.773 44.7563Z" fill="#FFE840"/>
<path d="M117.375 46.0339L117.427 46.123L119.229 45.0838C119.215 45.0511 119.2 45.02 119.185 44.9873L117.375 46.0339Z" fill="#FFE840"/>
<path d="M117.68 47.492L117.732 47.5825L119.724 46.4335L119.692 46.3311L117.68 47.492Z" fill="#FFE840"/>
<path d="M118.188 48.83L118.24 48.9205L120.032 47.8814C120.032 47.8442 120.023 47.8071 120.017 47.77L118.188 48.83Z" fill="#FFE840"/>
<path d="M118.117 50.5101L118.169 50.6007L120.069 49.5051C120.069 49.4635 120.078 49.4205 120.081 49.3774L118.117 50.5101Z" fill="#FFE840"/>
<path d="M110.078 38.7987L110.13 38.8877L111.914 37.8575L111.777 37.8174L110.078 38.7987Z" fill="#FFE840"/>
<path d="M113.255 50.0111L111.692 49.1098L111.699 44.5966L111.749 43.8676L111.735 43.8596L111.419 44.2864L111.182 44.459L110.336 42.839L111.957 41.6885L113.255 42.437L113.255 50.0111Z" fill="#FF9D4D"/>
<path d="M88.8648 43.8063C87.6932 43.1298 86.6681 43.1574 85.9358 43.692C85.2036 42.3119 84.1785 41.1006 83.0069 40.4242C80.8589 39.1841 79.1016 40.1967 79.1016 42.6746C79.1016 47.5739 85.9358 55.4054 85.9358 55.4054C85.9358 55.4054 92.7701 55.4655 92.7701 50.5661C92.7701 48.0883 91.0127 45.0464 88.8648 43.8063Z" fill="#EA5774"/>
<path d="M91.0652 45.856C91.5047 46.8415 91.7489 47.827 91.7489 48.7844C91.7489 53.6837 84.9124 53.6274 84.9124 53.6274C84.9124 53.6274 82.715 51.1214 80.8594 48.0805C82.8615 51.8817 85.9379 55.4013 85.9379 55.4013C85.9379 55.4013 92.7743 55.4576 92.7743 50.5583C92.7743 48.9815 92.0907 47.2357 91.0652 45.856Z" fill="#E13759"/>
<path d="M88.1372 64.8897C90.2933 63.2679 89.7181 58.8646 86.8523 55.0548C83.9866 51.2449 79.9156 49.4711 77.7595 51.0929C75.6034 52.7147 76.1786 57.1179 79.0443 60.9278C81.9101 64.7377 85.9811 66.5115 88.1372 64.8897Z" fill="#FFD071"/>
<path d="M78.3241 51.3223L78.0595 50.9393L79.4122 50.1718L79.488 50.1288C80.6771 49.48 82.4132 49.6389 84.3441 50.7523C87.9323 52.8217 90.8412 57.4044 90.8412 60.9955C90.8412 62.4993 90.3299 63.589 89.4693 64.1932C89.3406 64.2827 89.2049 64.3616 89.0635 64.4292L87.8877 65.1151L87.6291 64.7425C86.6644 64.7514 85.5481 64.4277 84.3441 63.7374C80.7544 61.668 77.8455 57.0838 77.8455 53.4942C77.8248 52.742 77.9892 51.9963 78.3241 51.3223Z" fill="#FF9D4D"/>
<path d="M81.1018 49.8494C81.5735 49.854 82.0423 49.9245 82.4945 50.0587L82.6298 50.0988H82.6387C83.15 50.2629 83.6439 50.4767 84.1133 50.7372L84.2188 50.7965L84.2946 50.8396C84.6893 51.0684 85.0696 51.3213 85.4332 51.5967L85.5209 51.6635C85.8855 51.9451 86.2353 52.2454 86.5688 52.5631L86.6446 52.6374C86.9612 52.9432 87.2704 53.2712 87.5618 53.6112L87.6301 53.6914C87.9111 54.0239 88.1816 54.3743 88.4357 54.7305L88.4952 54.8152C88.7435 55.1729 88.9783 55.5426 89.1924 55.9167L89.2444 56.0057C89.4599 56.3888 89.6576 56.7807 89.8315 57.1696C89.8449 57.2023 89.8598 57.2335 89.8731 57.2646C90.0489 57.6683 90.2027 58.0811 90.3339 58.5012C90.3443 58.5354 90.3547 58.568 90.3636 58.6022C90.4948 59.0363 90.5941 59.4794 90.6609 59.9279C90.6609 59.965 90.6713 60.0006 90.6758 60.0377C90.7179 60.3517 90.7392 60.6681 90.7397 60.9849C90.7397 61.163 90.7323 61.3382 90.7174 61.5044C90.7174 61.546 90.71 61.5876 90.7055 61.6291C90.5851 62.7321 90.1392 63.5828 89.4183 64.0935C89.2923 64.1823 89.1591 64.2602 89.0199 64.3265L87.9289 64.9634L87.7237 64.6665L87.6925 64.6205H87.5974C86.6342 64.6205 85.5298 64.2775 84.4061 63.6288C80.8506 61.5787 77.9595 57.0271 77.9595 53.4821C77.9378 52.747 78.0976 52.018 78.4247 51.3592L78.4544 51.3028L78.4188 51.2508L78.2181 50.9539L79.4726 50.2413L79.5425 50.2027C80.0232 49.9499 80.5601 49.8227 81.1033 49.8331L81.1018 49.8494ZM81.1018 49.7455C80.5411 49.7357 79.987 49.8669 79.4905 50.127L79.4147 50.1701L78.062 50.9376L78.3266 51.3206C77.9922 51.9947 77.8284 52.7404 77.8495 53.4925C77.8495 57.0761 80.7584 61.6574 84.3481 63.7357C85.5372 64.4171 86.6372 64.7407 87.5915 64.7407H87.6331L87.8917 65.1148L89.0675 64.429C89.2093 64.3614 89.345 64.282 89.4733 64.1914C90.2031 63.6793 90.6817 62.8182 90.811 61.6499C90.811 61.6084 90.82 61.5653 90.823 61.5223C90.8378 61.3515 90.8452 61.1764 90.8452 60.9938C90.8445 60.6725 90.8226 60.3517 90.7798 60.0333C90.7798 59.9962 90.7709 59.959 90.765 59.9219C90.6985 59.47 90.5992 59.0234 90.4677 58.5859C90.4588 58.5517 90.4484 58.5176 90.438 58.4834C90.3062 58.0594 90.1509 57.6431 89.9727 57.2364L89.9311 57.1414C89.7557 56.7465 89.5565 56.3546 89.3365 55.9686L89.2845 55.8781C89.069 55.501 88.8386 55.1358 88.5814 54.7691L88.522 54.683C88.2678 54.3238 87.9958 53.9734 87.7104 53.6439L87.642 53.5637C87.3447 53.2208 87.04 52.8927 86.7189 52.5824L86.6417 52.5067C86.3062 52.1864 85.9539 51.8841 85.5863 51.6012L85.4971 51.5329C85.1302 51.2546 84.7465 50.9993 84.3481 50.7683L84.2708 50.7253L84.1653 50.6659C83.6871 50.3993 83.1832 50.182 82.661 50.0172L82.5243 49.9756C82.0627 49.8397 81.5845 49.7683 81.1033 49.7633L81.1018 49.7455Z" fill="#FFE840"/>
<path d="M88.2114 64.8895C90.3676 63.2677 89.7923 58.8645 86.9265 55.0546C84.0608 51.2448 79.9898 49.471 77.8337 51.0928C75.6776 52.7146 76.2528 57.1178 79.1186 60.9277C81.9843 64.7376 86.0553 66.5113 88.2114 64.8895Z" fill="#FFE840"/>
<path d="M78.8469 59.6948C77.7752 58.0054 77.1836 56.2403 77.1836 54.7261C77.1836 53.2119 77.7782 52.1282 78.8469 51.6754C79.9156 51.2226 81.3456 51.4557 82.8602 52.3301C84.3749 53.2045 85.8033 54.6162 86.8736 56.3056C87.9438 57.995 88.5369 59.7586 88.5369 61.2743C88.5369 62.79 87.9423 63.8723 86.8736 64.3251C85.8048 64.7778 84.3749 64.5448 82.8602 63.6704C81.3456 62.796 79.9201 61.3842 78.8469 59.6948ZM77.4972 54.9057C77.4972 57.8614 79.9037 61.6529 82.8617 63.3586C85.8197 65.0643 88.2262 64.0474 88.2262 61.0932C88.2262 58.139 85.8197 54.3476 82.8617 52.6418C79.9037 50.9361 77.4972 51.9515 77.4972 54.9057Z" fill="#FF9D4D"/>
<path d="M82.3789 51.6708L82.4309 51.7598L84.2681 50.7014L84.1626 50.642L82.3789 51.6708Z" fill="#FFE840"/>
<path d="M84.0039 52.3751L84.0559 52.4656L85.5854 51.5838L85.4962 51.5155L84.0039 52.3751Z" fill="#FFE840"/>
<path d="M85.1367 53.3577L85.1888 53.4482L86.7197 52.5575L86.6424 52.4818L85.1367 53.3577Z" fill="#FFE840"/>
<path d="M86.2656 54.3429L86.3176 54.432L87.7104 53.6289L87.6421 53.5487L86.2656 54.3429Z" fill="#FFE840"/>
<path d="M86.9023 55.6065L86.9558 55.6956L88.5805 54.7588L88.521 54.6727L86.9023 55.6065Z" fill="#FFE840"/>
<path d="M87.5156 56.8968L87.5677 56.9874L89.335 55.9586L89.283 55.868L87.5156 56.8968Z" fill="#FFE840"/>
<path d="M88.1094 58.1749L88.1614 58.2654L89.9629 57.2262L89.9213 57.1312L88.1094 58.1749Z" fill="#FFE840"/>
<path d="M88.418 59.6344L88.47 59.7235L90.4618 58.576C90.4529 58.5418 90.4424 58.5077 90.432 58.4735L88.418 59.6344Z" fill="#FFE840"/>
<path d="M88.9336 60.97L88.9856 61.0605L90.7782 60.0214C90.7782 59.9843 90.7693 59.9471 90.7634 59.91L88.9336 60.97Z" fill="#FFE840"/>
<path d="M88.8555 62.6565L88.9075 62.7471L90.8071 61.6515C90.8071 61.6099 90.8161 61.5669 90.819 61.5238L88.8555 62.6565Z" fill="#FFE840"/>
<path d="M80.8281 50.9392L80.8802 51.0297L82.6639 49.9995L82.5271 49.9579L80.8281 50.9392Z" fill="#FFE840"/>
<path d="M83.8174 62.0725L82.2543 61.1712L82.2618 56.658L82.3115 55.929L82.2975 55.921L81.9816 56.3478L81.7449 56.5204L80.8984 54.9004L82.5193 53.7499L83.8174 54.4984L83.8174 62.0725Z" fill="#FF9D4D"/>
<defs>
<linearGradient id="paint0_linear" x1="302673" y1="138473" x2="423774" y2="138473" gradientUnits="userSpaceOnUse">
<stop stop-color="#6A5EBF"/>
<stop offset="1" stop-color="#6E3AA5"/>
</linearGradient>
<linearGradient id="paint1_linear" x1="131315" y1="62816.4" x2="145585" y2="62816.4" gradientUnits="userSpaceOnUse">
<stop stop-color="#2E256B"/>
<stop offset="1" stop-color="#5A3087"/>
</linearGradient>
<linearGradient id="paint2_linear" x1="198791" y1="106043" x2="251026" y2="106043" gradientUnits="userSpaceOnUse">
<stop stop-color="#483CA6"/>
<stop offset="1" stop-color="#59278F"/>
</linearGradient>
<linearGradient id="paint3_linear" x1="220535" y1="96352.2" x2="301518" y2="96352.2" gradientUnits="userSpaceOnUse">
<stop stop-color="#7FC1E2"/>
<stop offset="1" stop-color="#304D87"/>
</linearGradient>
<linearGradient id="paint4_linear" x1="32284.7" y1="11927.5" x2="33294.9" y2="11927.5" gradientUnits="userSpaceOnUse">
<stop stop-color="#2E256B"/>
<stop offset="1" stop-color="#5A3087"/>
</linearGradient>
</defs>
</svg>
