<svg width="157" height="168" viewBox="0 0 157 168" fill="none" xmlns="http://www.w3.org/2000/svg">
<mask id="mask0" mask-type="alpha" maskUnits="userSpaceOnUse" x="0" y="0" width="157" height="168">
<path d="M122.962 18.7915C141.039 32.5622 153.904 65.423 155.86 88.0139C157.856 111.081 153.948 135.503 136.951 151.288C119.868 167.153 95.1655 168.817 71.9991 165.894C47.8258 162.845 22.6433 155.809 9.70282 135.235C-3.7345 113.87 -2.00302 74.7352 7.51651 51.3735C16.9233 28.2885 34.9227 8.91968 59.0088 2.23731C82.4524 -4.26678 103.629 4.06352 122.962 18.7915Z" fill="#E672D7"/>
</mask>
<g mask="url(#mask0)">
<path d="M26.3362 115.83L-8.63672 134.786" stroke="#15234F"/>
<path d="M40.1526 123.154L5.17969 142.11" stroke="#15234F"/>
<path d="M53.1058 130.909L18.1328 149.865" stroke="#15234F"/>
<path d="M66.0589 138.664L31.0859 157.62" stroke="#15234F"/>
<path d="M81.6019 143.833L46.6289 162.79" stroke="#15234F"/>
<path d="M75.9899 143.833L117.871 167.529" stroke="#15234F"/>
<path d="M90.6698 137.802L131.688 160.204" stroke="#15234F"/>
<path d="M103.621 130.047L138.594 149.004" stroke="#15234F"/>
<path d="M116.574 122.292L151.547 141.249" stroke="#15234F"/>
<path d="M126.937 113.676L161.91 132.632" stroke="#15234F"/>
<path d="M44.0376 37.8511L35.4023 42.5901V65.4237L44.0376 60.2538V37.8511Z" fill="#15234F"/>
<path d="M68.6509 15.4482L60.0156 20.1873V49.914L68.6509 44.7441V15.4482Z" fill="#15234F"/>
<path d="M57.4244 7.69385L48.7891 12.4329V56.8076L57.4244 51.6377V7.69385Z" fill="#15234F"/>
</g>
<path d="M105.128 114.93L80.3992 100.683L55.67 114.93H26.1992L29.0913 130.242L80.3992 159.8L131.117 130.582L134.598 114.93H105.128Z" fill="#9879C2" fill-opacity="0.5"/>
<path d="M131.512 60.2737L84.5837 33.2416C83.3106 32.5082 81.8665 32.1221 80.3965 32.1221C78.9264 32.1221 77.4823 32.5082 76.2092 33.2416L29.2835 60.2737C28.3494 60.8117 27.5737 61.5855 27.0343 62.5175C26.495 63.4494 26.211 64.5066 26.2109 65.5828L28.8099 66.6043L29.3485 63.851L77.773 93.0889L77.9737 97.6416L82.3255 97.2843L83.3492 93.2215L131.443 63.8568L131.982 66.61L134.581 65.5885C134.582 64.5118 134.299 63.4537 133.76 62.5207C133.222 61.5877 132.446 60.8127 131.512 60.2737Z" fill="url(#paint0_linear)"/>
<path d="M77.6849 97.9678L77.4726 93.2682L29.4481 64.9524L29.0424 67.0256L25.9062 65.7923V65.5834C25.9081 64.4537 26.207 63.3443 26.773 62.3659C27.339 61.3875 28.1524 60.5744 29.1319 60.0078L76.0576 32.9771C77.3782 32.2189 78.875 31.8198 80.3986 31.8198C81.9222 31.8198 83.4191 32.2189 84.7396 32.9771L131.665 60.0078C132.645 60.5744 133.458 61.3875 134.024 62.3659C134.59 63.3443 134.889 64.4537 134.891 65.5834V65.7923L131.755 67.0256L131.229 64.3429L83.6221 93.4123L82.5738 97.5658L77.6849 97.9678ZM29.012 63.9828L78.0718 92.9095L78.2696 97.3051L82.0858 96.991L83.0864 93.0204L83.1932 92.9556L131.664 63.3532L132.217 66.1799L134.274 65.3702C134.237 64.384 133.95 63.4233 133.441 62.5776C132.931 61.7319 132.215 61.0287 131.359 60.5337L84.4335 33.5015C83.2064 32.7966 81.8153 32.4256 80.3993 32.4256C78.9834 32.4256 77.5923 32.7966 76.3652 33.5015L29.4394 60.5337C28.5838 61.0287 27.8678 61.7319 27.3581 62.5776C26.8483 63.4233 26.5614 64.384 26.5242 65.3702L28.5817 66.1799L29.012 63.9828Z" fill="#BF89EF"/>
<path d="M131.528 63.8137L83.1974 91.6556C82.3512 92.1429 81.6485 92.8438 81.1598 93.688C80.6712 94.5322 80.4138 95.4898 80.4136 96.4647V139.149L74.9023 144.158L77.1302 145.266C78.148 145.771 79.2683 146.037 80.4051 146.044C81.5419 146.05 82.665 145.796 83.6883 145.302L84.7351 144.798C84.8814 144.739 85.0232 144.671 85.1596 144.592L133.575 116.701C133.887 116.521 134.145 116.263 134.325 115.952C134.505 115.642 134.599 115.289 134.599 114.93V65.5829C134.599 65.2243 134.505 64.872 134.325 64.5615C134.145 64.2509 133.887 63.993 133.575 63.8137C133.264 63.6344 132.911 63.54 132.552 63.54C132.192 63.54 131.839 63.6344 131.528 63.8137Z" fill="url(#paint1_linear)"/>
<path d="M80.4477 146.346C79.2496 146.347 78.0675 146.071 76.994 145.54L74.3633 144.234L80.107 139.014V96.4651C80.1087 95.437 80.3807 94.4274 80.8958 93.537C81.4109 92.6466 82.151 91.9066 83.0424 91.3909L131.373 63.5476L131.528 63.8142L131.373 63.5476C131.731 63.3412 132.137 63.2325 132.551 63.2324C132.964 63.2324 133.371 63.341 133.729 63.5473C134.087 63.7537 134.384 64.0505 134.591 64.4079C134.798 64.7653 134.906 65.1707 134.906 65.5834V114.931C134.906 115.343 134.797 115.748 134.59 116.105C134.384 116.463 134.087 116.76 133.729 116.967L85.3136 144.859C85.1671 144.942 85.0151 145.015 84.8588 145.078L83.8221 145.579C82.7691 146.084 81.6159 146.346 80.4477 146.346ZM75.4404 144.084L77.2669 144.991C78.2435 145.473 79.3169 145.726 80.4061 145.732C81.4952 145.738 82.5715 145.497 83.5535 145.027L84.6205 144.513C84.7535 144.461 84.8823 144.399 85.006 144.327L133.419 116.435C133.683 116.282 133.902 116.062 134.054 115.798C134.206 115.534 134.286 115.235 134.285 114.931V65.5834C134.285 65.2798 134.205 64.9817 134.053 64.7187C133.901 64.4556 133.683 64.2368 133.42 64.0841C133.157 63.9314 132.859 63.85 132.555 63.8482C132.25 63.8463 131.951 63.924 131.686 64.0735L83.3499 91.9226C82.551 92.3835 81.8874 93.0457 81.4254 93.8429C80.9635 94.64 80.7195 95.5443 80.7178 96.4651V139.279L75.4404 144.084Z" fill="#BF89EF"/>
<path d="M75.6544 144.591L27.2386 116.7C26.9272 116.521 26.6687 116.263 26.489 115.952C26.3093 115.641 26.2147 115.289 26.2148 114.93V65.5823C26.2147 65.2235 26.3093 64.871 26.4891 64.5602C26.6688 64.2494 26.9274 63.9914 27.2389 63.8121C27.5504 63.6327 27.9037 63.5384 28.2633 63.5386C28.6229 63.5388 28.9761 63.6335 29.2874 63.8131L77.618 91.655C78.4639 92.1426 79.1662 92.8436 79.6546 93.6878C80.143 94.5319 80.4002 95.4894 80.4004 96.4641V141.857C80.4006 142.411 80.2545 142.956 79.9769 143.436C79.6992 143.916 79.2998 144.314 78.8188 144.592C78.3377 144.869 77.792 145.015 77.2365 145.015C76.681 145.014 76.1354 144.868 75.6544 144.591Z" fill="url(#paint2_linear)"/>
<path d="M77.2368 145.33C76.6281 145.328 76.0305 145.167 75.5042 144.862L27.0884 116.969C26.7306 116.763 26.4335 116.466 26.2268 116.108C26.02 115.751 25.9108 115.346 25.9102 114.934V65.5833C25.9104 65.1708 26.0194 64.7657 26.2261 64.4085C26.4329 64.0513 26.7303 63.7547 27.0882 63.5485C27.4462 63.3422 27.8523 63.2336 28.2656 63.2334C28.679 63.2332 29.0852 63.3416 29.4433 63.5476L77.774 91.3908C78.6658 91.9061 79.4064 92.646 79.9218 93.5364C80.4371 94.4269 80.7092 95.4368 80.7108 96.4651V141.858C80.7089 142.775 80.3436 143.655 79.6944 144.305C79.0453 144.955 78.165 145.322 77.2455 145.327L77.2368 145.33ZM75.8089 144.321C76.2432 144.571 76.7359 144.703 77.2374 144.703C77.7389 144.703 78.2315 144.571 78.6658 144.321C79.1001 144.071 79.4607 143.711 79.7115 143.277C79.9622 142.844 80.0942 142.352 80.0942 141.852V96.4651C80.0931 95.5444 79.8496 94.6403 79.3882 93.843C78.9268 93.0458 78.2636 92.3835 77.465 91.9225L29.1329 64.0734C28.8683 63.9213 28.5682 63.8413 28.2628 63.8415C27.9574 63.8416 27.6574 63.9219 27.3929 64.0743C27.1285 64.2267 26.9088 64.4458 26.756 64.7097C26.6032 64.9735 26.5226 65.2728 26.5224 65.5775V114.931C26.5222 115.235 26.6021 115.534 26.7541 115.798C26.9062 116.062 27.125 116.282 27.3887 116.435L75.8089 144.321Z" fill="#BF89EF"/>
<path d="M71.912 97.4582V136.574L32.7109 113.99V74.8735L35.4399 76.4468L71.912 97.4582Z" fill="url(#paint3_linear)"/>
<path d="M71.9135 97.4577V133.499L35.4414 112.487V76.4463L71.9135 97.4577Z" fill="url(#paint4_linear)"/>
<path d="M32.4249 71.0999C32.7786 70.8345 32.6841 70.1137 32.2139 69.4899C31.7438 68.8662 31.076 68.5757 30.7223 68.8412C30.3687 69.1066 30.4632 69.8274 30.9333 70.4512C31.4035 71.0749 32.0713 71.3654 32.4249 71.0999Z" fill="#634D99"/>
<path d="M32.4249 71.0999C32.7786 70.8345 32.6841 70.1137 32.2139 69.4899C31.7438 68.8662 31.076 68.5757 30.7223 68.8412C30.3687 69.1066 30.4632 69.8274 30.9333 70.4512C31.4035 71.0749 32.0713 71.3654 32.4249 71.0999Z" fill="url(#paint5_linear)"/>
<path d="M43.171 77.3328C43.5247 77.0674 43.4302 76.3466 42.96 75.7228C42.4899 75.0991 41.8221 74.8086 41.4684 75.0741C41.1148 75.3395 41.2093 76.0603 41.6794 76.6841C42.1496 77.3078 42.8174 77.5983 43.171 77.3328Z" fill="url(#paint6_linear)"/>
<path d="M54.1348 83.0591C54.1348 83.6469 53.6584 83.8471 53.0694 83.5086C52.4803 83.17 52.0039 82.4195 52.0039 81.8318C52.0039 81.244 52.4818 81.0438 53.0694 81.3823C53.657 81.7209 54.1348 82.4728 54.1348 83.0591Z" fill="url(#paint7_linear)"/>
<path d="M64.8809 89.2933C64.8809 89.8796 64.403 90.0813 63.8154 89.7413C63.2278 89.4014 62.75 88.6523 62.75 88.066C62.75 87.4797 63.2264 87.2766 63.8154 87.6166C64.4045 87.9565 64.8809 88.7085 64.8809 89.2933Z" fill="url(#paint8_linear)"/>
<path d="M75.627 95.5289C75.627 96.1166 75.1506 96.3168 74.5616 95.9783C73.9725 95.6398 73.4961 94.8893 73.4961 94.3015C73.4961 93.7138 73.9725 93.5135 74.5616 93.8521C75.1506 94.1906 75.627 94.9426 75.627 95.5289Z" fill="url(#paint9_linear)"/>
<path d="M130.495 71.5228C130.965 70.899 131.06 70.1782 130.706 69.9128C130.353 69.6473 129.685 69.9378 129.215 70.5615C128.744 71.1853 128.65 71.9061 129.004 72.1715C129.357 72.437 130.025 72.1465 130.495 71.5228Z" fill="#925FC4"/>
<path d="M130.495 71.5228C130.965 70.899 131.06 70.1782 130.706 69.9128C130.353 69.6473 129.685 69.9378 129.215 70.5615C128.744 71.1853 128.65 71.9061 129.004 72.1715C129.357 72.437 130.025 72.1465 130.495 71.5228Z" fill="url(#paint10_linear)"/>
<path d="M118.039 77.8858C118.039 78.4721 118.515 78.6738 119.105 78.3338C119.694 77.9939 120.17 77.2448 120.17 76.657C120.17 76.0693 119.692 75.8691 119.105 76.209C118.517 76.549 118.039 77.2981 118.039 77.8858Z" fill="url(#paint11_linear)"/>
<path d="M109.003 83.9896C109.473 83.3658 109.568 82.645 109.214 82.3796C108.86 82.1141 108.193 82.4046 107.722 83.0283C107.252 83.6521 107.158 84.3729 107.511 84.6383C107.865 84.9038 108.533 84.6133 109.003 83.9896Z" fill="url(#paint12_linear)"/>
<path d="M96.5469 90.3531C96.5469 90.9409 97.0248 91.1425 97.6123 90.8026C98.1999 90.4626 98.6778 89.7135 98.6778 89.1258C98.6778 88.538 98.2014 88.3378 97.6123 88.6778C97.0233 89.0177 96.5469 89.7668 96.5469 90.3531Z" fill="url(#paint13_linear)"/>
<path d="M85.8008 96.5896C85.8008 97.1773 86.2772 97.3776 86.8662 97.039C87.4553 96.7005 87.9317 95.9485 87.9317 95.3622C87.9317 94.7759 87.4538 94.5743 86.8662 94.9128C86.2787 95.2513 85.8008 96.0018 85.8008 96.5896Z" fill="url(#paint14_linear)"/>
<path d="M128.184 115.387C128.184 115.974 128.661 116.175 129.249 115.835C129.837 115.495 130.314 114.746 130.314 114.158C130.314 113.571 129.838 113.371 129.249 113.71C128.66 114.05 128.184 114.8 128.184 115.387Z" fill="#925FC4"/>
<path d="M128.184 115.387C128.184 115.974 128.661 116.175 129.249 115.835C129.837 115.495 130.314 114.746 130.314 114.158C130.314 113.571 129.838 113.371 129.249 113.71C128.66 114.05 128.184 114.8 128.184 115.387Z" fill="url(#paint15_linear)"/>
<path d="M117.441 121.622C117.441 122.21 117.918 122.41 118.507 122.071C119.096 121.733 119.572 120.981 119.572 120.394C119.572 119.808 119.094 119.606 118.507 119.945C117.919 120.284 117.441 121.034 117.441 121.622Z" fill="url(#paint16_linear)"/>
<path d="M106.695 127.856C106.695 128.444 107.172 128.645 107.759 128.306C108.347 127.966 108.825 127.216 108.825 126.629C108.825 126.041 108.348 125.841 107.759 126.181C107.17 126.521 106.695 127.27 106.695 127.856Z" fill="url(#paint17_linear)"/>
<path d="M95.9492 134.093C95.9492 134.68 96.4257 134.88 97.0147 134.542C97.6037 134.203 98.0801 133.451 98.0801 132.865C98.0801 132.279 97.6037 132.077 97.0147 132.416C96.4257 132.754 95.9492 133.503 95.9492 134.093Z" fill="url(#paint18_linear)"/>
<path d="M85.2031 140.325C85.2031 140.913 85.6795 141.114 86.2686 140.774C86.8576 140.434 87.3326 139.685 87.3326 139.097C87.3326 138.51 86.8561 138.309 86.2686 138.649C85.681 138.989 85.2031 139.739 85.2031 140.325Z" fill="url(#paint19_linear)"/>
<path d="M31.5748 115.837C31.5748 116.423 31.0984 116.625 30.5093 116.287C29.9203 115.948 29.4453 115.196 29.4453 114.61C29.4453 114.023 29.9217 113.822 30.5093 114.16C31.0969 114.499 31.5748 115.249 31.5748 115.837Z" fill="#634D99"/>
<path d="M31.5748 115.837C31.5748 116.423 31.0984 116.625 30.5093 116.287C29.9203 115.948 29.4453 115.196 29.4453 114.61C29.4453 114.023 29.9217 113.822 30.5093 114.16C31.0969 114.499 31.5748 115.249 31.5748 115.837Z" fill="url(#paint20_linear)"/>
<path d="M42.1047 122.581C42.4583 122.315 42.3638 121.595 41.8937 120.971C41.4235 120.347 40.7557 120.057 40.402 120.322C40.0484 120.588 40.1429 121.308 40.613 121.932C41.0832 122.556 41.751 122.846 42.1047 122.581Z" fill="url(#paint21_linear)"/>
<path d="M53.0684 128.306C53.0684 128.892 52.592 129.094 52.0029 128.755C51.4139 128.417 50.9375 127.665 50.9375 127.079C50.9375 126.492 51.4153 126.291 52.0029 126.629C52.5905 126.968 53.0684 127.718 53.0684 128.306Z" fill="url(#paint22_linear)"/>
<path d="M63.8145 134.54C63.8145 135.128 63.3366 135.328 62.7491 134.99C62.1615 134.651 61.6836 133.9 61.6836 133.313C61.6836 132.725 62.16 132.525 62.7491 132.863C63.3381 133.202 63.8145 133.948 63.8145 134.54Z" fill="url(#paint23_linear)"/>
<path d="M74.5606 140.776C74.5606 141.362 74.0841 141.564 73.4951 141.225C72.9061 140.887 72.4297 140.135 72.4297 139.548C72.4297 138.962 72.9075 138.759 73.4951 139.099C74.0827 139.439 74.5606 140.188 74.5606 140.776Z" fill="url(#paint24_linear)"/>
<path d="M123.392 87.9637C122.998 87.7345 122.585 87.5416 122.156 87.3874C120.498 86.7967 118.575 86.7391 116.515 87.203C114.758 87.6208 113.075 88.3008 111.522 89.22C107.623 91.469 103.959 95.0852 101.213 99.4044C98.4505 103.754 96.9258 108.337 96.9258 112.293C96.9258 115.886 98.1906 118.697 100.502 120.279C100.661 120.388 100.823 120.492 100.99 120.587C102.225 121.298 103.659 121.649 105.222 121.649C105.642 121.649 106.061 121.624 106.478 121.576C108.483 121.349 110.654 120.596 112.862 119.322C116.76 117.076 120.425 113.457 123.168 109.139C125.933 104.788 127.455 100.207 127.455 96.2493C127.455 92.4184 126.013 89.4736 123.392 87.9637ZM106.035 118.954C104.616 119.098 103.354 118.87 102.33 118.281C102.127 118.165 101.934 118.033 101.753 117.886C100.362 116.769 99.6027 114.819 99.6027 112.3C99.6027 105.065 105.55 95.7522 112.86 91.5396C114.143 90.7787 115.527 90.2048 116.972 89.8352C117.681 89.6615 118.408 89.5706 119.138 89.5643C119.734 89.5591 120.328 89.6377 120.903 89.7977C121.303 89.9084 121.689 90.0691 122.049 90.2761C123.806 91.2846 124.775 93.4139 124.775 96.2565C124.775 103.493 118.828 112.806 111.518 117.017C109.568 118.142 107.696 118.794 106.035 118.954Z" fill="#FFD071"/>
<path d="M109.529 118.952L108.574 102.813L123.126 89.1777L124.959 91.1256L111.322 103.905L112.201 118.795L109.529 118.952Z" fill="#FFD071"/>
<path d="M106.035 118.953C108.094 119.187 110.179 118.953 112.133 118.267C114.088 117.581 115.861 116.461 117.319 114.992C119.002 113.285 120.498 111.404 121.781 109.381C124.235 105.525 125.704 101.494 126.008 97.8695C126.041 97.4962 125.933 97.1241 125.706 96.8258C125.479 96.5275 125.149 96.3243 124.779 96.2559C124.779 103.493 118.832 112.805 111.522 117.017C109.568 118.142 107.696 118.793 106.035 118.953Z" fill="#D1975D"/>
<path d="M104.835 95.9673L103.281 98.1587L110.1 102.971L111.653 100.779L104.835 95.9673Z" fill="#FFD071"/>
<path d="M114.038 98.7743L114.239 98.4861L113.212 97.9099L113.155 97.8767C112.251 97.3854 110.935 97.505 109.47 98.3493C106.747 99.9182 104.539 103.392 104.539 106.109C104.539 107.25 104.929 108.076 105.582 108.534C105.679 108.603 105.782 108.663 105.889 108.714L106.78 109.234L106.978 108.946C107.708 108.953 108.566 108.708 109.47 108.185C112.193 106.616 114.401 103.143 114.401 100.424C114.418 99.8527 114.293 99.286 114.038 98.7743Z" fill="#D1975D"/>
<path d="M113.437 106.067C115.613 103.18 116.051 99.8441 114.414 98.6158C112.778 97.3875 109.687 98.7321 107.511 101.619C105.335 104.506 104.897 107.842 106.533 109.07C108.17 110.298 111.261 108.954 113.437 106.067Z" fill="#FFD071"/>
<path d="M101.318 54.5033V58.5992V59.1755H101.295C101.182 60.4148 100.774 61.6092 100.105 62.6592C100.024 62.7917 99.9377 62.9243 99.8482 63.0539C99.005 64.2814 97.7979 65.4441 96.227 66.4886L95.9714 66.6572C95.7202 66.8176 95.4603 66.9751 95.1917 67.1297C94.2776 67.6535 93.3276 68.1123 92.3487 68.5027L92.0932 68.6036C90.9132 69.0606 89.7033 69.4366 88.4719 69.7288L88.2149 69.7907C87.02 70.0659 85.8105 70.2742 84.5923 70.4145L84.3367 70.4448C83.134 70.5769 81.9254 70.6476 80.7155 70.6566H80.4599C79.2501 70.659 78.041 70.5998 76.8372 70.4794L76.5802 70.4534C75.3639 70.3285 74.1554 70.1361 72.9605 69.8772L72.7034 69.8195C71.4735 69.5429 70.2633 69.1853 69.0808 68.7491C68.9956 68.7174 68.9089 68.6857 68.8252 68.6511C67.7142 68.2308 66.6386 67.723 65.6083 67.1326C65.4639 67.0534 65.3368 66.9741 65.204 66.8934L64.9484 66.7364C63.4194 65.7726 62.2051 64.7007 61.3257 63.5668C61.2348 63.453 61.151 63.3392 61.0687 63.2254C60.1374 61.9287 59.6148 60.5572 59.5036 59.1784H59.4805V54.5033H60.7222C60.8305 54.3318 60.946 54.1589 61.0687 53.9904C61.151 53.8751 61.2362 53.7613 61.3257 53.6475C61.6655 53.2137 62.0356 52.8045 62.4332 52.4229C62.9681 51.9114 63.5405 51.4404 64.1456 51.0139C64.599 50.6921 65.0866 50.3804 65.6083 50.0788C73.7762 45.3735 87.0223 45.3735 95.1917 50.0788C95.7125 50.3795 96.1996 50.6911 96.6529 51.0139C97.2581 51.4403 97.8305 51.9113 98.3653 52.4229C98.9163 52.9509 99.4131 53.5324 99.8482 54.1589C99.9276 54.2742 100.003 54.388 100.075 54.5033H101.318Z" fill="#FF9D4D"/>
<path d="M80.3993 46.8058C85.9423 46.8058 91.1503 48.0477 95.0632 50.301C95.5729 50.5891 96.058 50.9046 96.5071 51.223C97.102 51.6415 97.6643 52.1043 98.1892 52.6076C98.7268 53.1232 99.2101 53.6924 99.6316 54.3062C99.7038 54.4099 99.776 54.5194 99.8525 54.6404L99.9276 54.76H101.055V58.9121L101.035 59.147C100.925 60.347 100.529 61.5034 99.88 62.5197C99.8063 62.6407 99.7211 62.7689 99.6302 62.9029C98.7855 64.1304 97.59 65.2628 96.0782 66.2684L95.8256 66.4341C95.5787 66.5926 95.3202 66.7496 95.056 66.9009C94.1548 67.4164 93.2182 67.868 92.2534 68.2523C92.1697 68.2854 92.0845 68.32 91.9993 68.3517C90.8289 68.8057 89.6287 69.1787 88.407 69.4683L88.1572 69.5288C86.9712 69.8018 85.7709 70.0086 84.5619 70.1483L84.3078 70.1771C83.1138 70.3084 81.9138 70.3791 80.7126 70.3889H80.3892C79.2066 70.3889 78.0198 70.3298 76.8575 70.2131C76.7766 70.2131 76.6943 70.1973 76.6077 70.1886C75.4005 70.0626 74.2012 69.8702 73.0153 69.6123L72.7612 69.5547C71.5422 69.2796 70.3427 68.9249 69.1703 68.4929L69.1385 68.4814C69.0663 68.454 68.9941 68.4281 68.9162 68.3964C67.8195 67.9805 66.7574 67.479 65.7397 66.8966C65.6039 66.8173 65.4711 66.7395 65.3397 66.6589L65.087 66.5033C63.6128 65.574 62.4159 64.528 61.5293 63.3913C61.4499 63.2919 61.369 63.1839 61.281 63.0599C60.3814 61.8123 59.8703 60.494 59.7621 59.1412L59.7433 58.9064V54.76H60.8724L60.9475 54.639C61.0514 54.4738 61.164 54.3066 61.2853 54.1376C61.3604 54.0324 61.4412 53.9244 61.5351 53.8048C61.8678 53.3812 62.2297 52.9811 62.618 52.6076C63.1438 52.1048 63.7066 51.642 64.3016 51.223C64.7535 50.9017 65.2386 50.592 65.7454 50.301C69.6583 48.0477 74.8664 46.8058 80.4094 46.8058H80.3993ZM80.3993 46.5508C75.0454 46.5508 69.6915 47.7264 65.6083 50.0791C65.0866 50.3797 64.599 50.6914 64.1456 51.0141C63.5405 51.4406 62.9681 51.9116 62.4332 52.4231C62.0356 52.8048 61.6655 53.214 61.3257 53.6477C61.2362 53.7616 61.151 53.8754 61.0687 53.9906C60.946 54.1592 60.8305 54.3321 60.7222 54.5035H59.4805V59.1758H59.5036C59.6148 60.5545 60.1374 61.9275 61.0687 63.2228C61.151 63.3366 61.2348 63.4504 61.3257 63.5642C62.2108 64.698 63.4194 65.7699 64.9484 66.7338L65.204 66.8908C65.3368 66.9715 65.4711 67.0507 65.6083 67.13C66.6386 67.7204 67.7142 68.2282 68.8252 68.6485C68.9089 68.6831 68.9956 68.7148 69.0808 68.7465C70.2633 69.1827 71.4735 69.5403 72.7034 69.8169L72.9605 69.8745C74.1554 70.1335 75.3639 70.3259 76.5802 70.4508L76.8372 70.4768C78.0175 70.595 79.203 70.6542 80.3892 70.654H80.4599H80.7155C81.9254 70.6449 83.134 70.5743 84.3367 70.4422L84.5923 70.4119C85.8105 70.2716 87.02 70.0633 88.2149 69.7881L88.4719 69.7261C89.7033 69.4339 90.9132 69.058 92.0932 68.6009L92.3487 68.5001C93.3276 68.1097 94.2776 67.6509 95.1917 67.1271C95.4603 66.9715 95.7202 66.814 95.9714 66.6545L96.227 66.486C97.7979 65.4415 99.005 64.2788 99.8482 63.0513C99.9377 62.9216 100.024 62.7891 100.105 62.6565C100.774 61.6066 101.182 60.4121 101.295 59.1729H101.318V58.5995V54.5035H100.075C100.003 54.3883 99.9305 54.2745 99.8482 54.1592C99.4131 53.5327 98.9163 52.9511 98.3653 52.4231C97.8305 51.9116 97.2581 51.4406 96.6529 51.0141C96.1996 50.6914 95.7125 50.3797 95.1917 50.0791C91.107 47.7264 85.7531 46.5508 80.3993 46.5508Z" fill="#FFE840"/>
<path d="M80.3993 66.4264C91.9524 66.4264 101.318 61.0307 101.318 54.3748C101.318 47.7189 91.9524 42.3232 80.3993 42.3232C68.8461 42.3232 59.4805 47.7189 59.4805 54.3748C59.4805 61.0307 68.8461 66.4264 80.3993 66.4264Z" fill="#FFE840"/>
<path d="M98.3637 52.4223C97.6937 50.3549 95.9611 48.4502 93.3217 46.9303C89.8694 44.9406 85.2793 43.8457 80.3976 43.8457C75.5159 43.8457 70.9258 44.9406 67.475 46.9303C64.8356 48.4502 63.1015 50.3549 62.4315 52.4223C62.2269 53.0529 62.1222 53.7116 62.1211 54.3745C62.1211 56.3987 63.1058 58.3379 64.9468 60.0048C65.0291 60.0826 65.1142 60.1575 65.2023 60.231C65.9083 60.8292 66.6693 61.3598 67.475 61.8158C67.9081 62.065 68.3572 62.3013 68.8235 62.5203L69.0791 62.6398C70.2487 63.1692 71.4604 63.6005 72.7018 63.9293L72.9588 63.997C74.1494 64.3004 75.3586 64.5261 76.5786 64.6727L76.8356 64.7044C78.0182 64.8368 79.2075 64.9027 80.3976 64.9018H80.7152C81.926 64.8918 83.1352 64.811 84.3365 64.6597C84.4217 64.6496 84.5069 64.6396 84.5921 64.6266C85.8145 64.4649 87.0247 64.2218 88.2147 63.899L88.4717 63.827C89.7159 63.4788 90.9275 63.0238 92.0929 62.467C92.1781 62.4281 92.2648 62.3863 92.3485 62.3431C92.6816 62.1779 93.0064 62.0035 93.3231 61.8201C94.2755 61.2805 95.1634 60.6348 95.9697 59.8953C96.0563 59.8146 96.143 59.7325 96.2253 59.6489C97.8222 58.0641 98.6799 56.2575 98.6799 54.3745C98.6769 53.7113 98.5702 53.0526 98.3637 52.4223ZM96.2253 58.3566C96.143 58.4661 96.0578 58.5741 95.9697 58.6822C95.1482 59.6691 94.0277 60.594 92.6098 61.4109C92.5232 61.4613 92.4366 61.5103 92.3471 61.555C92.2575 61.5996 92.1767 61.6486 92.0915 61.6991C90.9346 62.3055 89.722 62.7996 88.4703 63.1743L88.2133 63.2493C87.0258 63.594 85.8152 63.8535 84.5906 64.0258L84.335 64.0618C83.1349 64.222 81.926 64.3076 80.7152 64.3183H80.4597C79.2489 64.3216 78.0391 64.2509 76.837 64.1065L76.58 64.0734C75.3581 63.9176 74.1485 63.6769 72.9602 63.353C72.8736 63.3299 72.787 63.3069 72.7032 63.2824C71.4552 62.9305 70.2424 62.4642 69.0805 61.8892C68.9939 61.846 68.9087 61.8028 68.825 61.7581C68.6084 61.6472 68.3918 61.5305 68.1868 61.4095C67.0841 60.7919 66.0789 60.0151 65.2038 59.1043C65.1157 59.0107 65.0305 58.9156 64.9482 58.8162C62.8387 56.3799 62.5716 53.5446 64.1454 51.0075C64.9785 49.6662 66.3242 48.407 68.1882 47.3337C74.9224 43.4553 85.8785 43.4553 92.6127 47.3337C94.4753 48.407 95.8224 49.6662 96.6556 51.0075C98.1254 53.3904 97.9839 56.0298 96.2253 58.3566Z" fill="#FF9D4D"/>
<path d="M61.87 59.858V64.0802C61.7806 63.9678 61.6955 63.854 61.6133 63.7402V59.5151C61.6955 59.6304 61.7806 59.7514 61.87 59.858Z" fill="#FFE840"/>
<path d="M65.2045 62.657V66.8821L64.9492 66.7251V62.4985C65.0329 62.5533 65.1237 62.6051 65.2045 62.657Z" fill="#FFE840"/>
<path d="M69.0795 64.5058V68.7324C68.9944 68.7007 68.9079 68.669 68.8242 68.6344V64.4165L69.0795 64.5058Z" fill="#FFE840"/>
<path d="M72.9599 65.6426V69.8662L72.7031 69.8086V65.5835L72.9599 65.6426Z" fill="#FFE840"/>
<path d="M76.8348 66.251V70.4747L76.5781 70.4488V66.2251L76.8348 66.251Z" fill="#FFE840"/>
<path d="M80.7162 66.4248V70.6485H80.4609V66.4262L80.7162 66.4248Z" fill="#FFE840"/>
<path d="M84.5912 66.1816V70.4111L84.3359 70.4413V66.2105L84.5912 66.1816Z" fill="#FFE840"/>
<path d="M88.4716 65.4961V69.7212L88.2148 69.7831V65.5566L88.4716 65.4961Z" fill="#FFE840"/>
<path d="M92.3491 64.269V68.4941L92.0938 68.595V64.3684C92.1793 64.3367 92.2644 64.3036 92.3491 64.269Z" fill="#FFE840"/>
<path d="M96.228 62.2568V66.4805L95.9727 66.649V62.4239L96.228 62.2568Z" fill="#FFE840"/>
<path d="M99.6669 58.8506V63.0742C99.5876 63.2068 99.501 63.3379 99.4102 63.469V59.2453C99.501 59.1142 99.5861 58.9817 99.6669 58.8506Z" fill="#FFE840"/>
<path d="M90.8077 56.8857L87.2164 58.9564L78.2336 53.757L76.8383 52.8208L76.8062 52.8393L77.2937 53.9575L77.3656 54.6261L73.1657 54.4471L72.7357 49.9046L75.7182 48.1848L90.8077 56.8857Z" fill="#FF9D4D"/>
<defs>
<linearGradient id="paint0_linear" x1="239146" y1="35058.2" x2="320484" y2="35058.2" gradientUnits="userSpaceOnUse">
<stop stop-color="#6A5EBF"/>
<stop offset="1" stop-color="#6E3AA5"/>
</linearGradient>
<linearGradient id="paint1_linear" x1="151927" y1="67025.2" x2="176608" y2="67025.2" gradientUnits="userSpaceOnUse">
<stop stop-color="#2E256B"/>
<stop offset="1" stop-color="#5A3087"/>
</linearGradient>
<linearGradient id="paint2_linear" x1="119588" y1="65901" x2="139922" y2="65901" gradientUnits="userSpaceOnUse">
<stop stop-color="#483CA6"/>
<stop offset="1" stop-color="#59278F"/>
</linearGradient>
<linearGradient id="paint3_linear" x1="76377.6" y1="35221.7" x2="87020.6" y2="35221.7" gradientUnits="userSpaceOnUse">
<stop stop-color="#2E256B"/>
<stop offset="1" stop-color="#5A3087"/>
</linearGradient>
<linearGradient id="paint4_linear" x1="71755" y1="32278.5" x2="80967.8" y2="32278.5" gradientUnits="userSpaceOnUse">
<stop stop-color="#483CA6"/>
<stop offset="1" stop-color="#59278F"/>
</linearGradient>
<linearGradient id="paint5_linear" x1="3614.28" y1="1679.53" x2="3637.93" y2="1679.53" gradientUnits="userSpaceOnUse">
<stop stop-color="#2E256B"/>
<stop offset="1" stop-color="#5A3087"/>
</linearGradient>
<linearGradient id="paint6_linear" x1="3744.27" y1="1808.09" x2="3767.93" y2="1808.09" gradientUnits="userSpaceOnUse">
<stop stop-color="#2E256B"/>
<stop offset="1" stop-color="#5A3087"/>
</linearGradient>
<linearGradient id="paint7_linear" x1="5134.46" y1="1693.22" x2="5165.91" y2="1693.22" gradientUnits="userSpaceOnUse">
<stop stop-color="#2E256B"/>
<stop offset="1" stop-color="#5A3087"/>
</linearGradient>
<linearGradient id="paint8_linear" x1="5303.81" y1="1805.42" x2="5335.26" y2="1805.42" gradientUnits="userSpaceOnUse">
<stop stop-color="#2E256B"/>
<stop offset="1" stop-color="#5A3087"/>
</linearGradient>
<linearGradient id="paint9_linear" x1="5473.13" y1="1918.2" x2="5504.58" y2="1918.2" gradientUnits="userSpaceOnUse">
<stop stop-color="#2E256B"/>
<stop offset="1" stop-color="#5A3087"/>
</linearGradient>
<linearGradient id="paint10_linear" x1="8390.49" y1="993.428" x2="8432.3" y2="993.428" gradientUnits="userSpaceOnUse">
<stop stop-color="#483CA6"/>
<stop offset="1" stop-color="#59278F"/>
</linearGradient>
<linearGradient id="paint11_linear" x1="6175.08" y1="1600.03" x2="6206.53" y2="1600.03" gradientUnits="userSpaceOnUse">
<stop stop-color="#483CA6"/>
<stop offset="1" stop-color="#59278F"/>
</linearGradient>
<linearGradient id="paint12_linear" x1="7947.42" y1="1144.29" x2="7989.19" y2="1144.29" gradientUnits="userSpaceOnUse">
<stop stop-color="#483CA6"/>
<stop offset="1" stop-color="#59278F"/>
</linearGradient>
<linearGradient id="paint13_linear" x1="5836.4" y1="1824.97" x2="5867.85" y2="1824.97" gradientUnits="userSpaceOnUse">
<stop stop-color="#483CA6"/>
<stop offset="1" stop-color="#59278F"/>
</linearGradient>
<linearGradient id="paint14_linear" x1="5667.07" y1="1937.09" x2="5698.53" y2="1937.09" gradientUnits="userSpaceOnUse">
<stop stop-color="#483CA6"/>
<stop offset="1" stop-color="#59278F"/>
</linearGradient>
<linearGradient id="paint15_linear" x1="6334.96" y1="2276.73" x2="6366.41" y2="2276.73" gradientUnits="userSpaceOnUse">
<stop stop-color="#483CA6"/>
<stop offset="1" stop-color="#59278F"/>
</linearGradient>
<linearGradient id="paint16_linear" x1="6165.64" y1="2388.69" x2="6197.09" y2="2388.69" gradientUnits="userSpaceOnUse">
<stop stop-color="#483CA6"/>
<stop offset="1" stop-color="#59278F"/>
</linearGradient>
<linearGradient id="paint17_linear" x1="5992.32" y1="2501.66" x2="6023.72" y2="2501.66" gradientUnits="userSpaceOnUse">
<stop stop-color="#483CA6"/>
<stop offset="1" stop-color="#59278F"/>
</linearGradient>
<linearGradient id="paint18_linear" x1="5826.96" y1="2613.65" x2="5858.41" y2="2613.65" gradientUnits="userSpaceOnUse">
<stop stop-color="#483CA6"/>
<stop offset="1" stop-color="#59278F"/>
</linearGradient>
<linearGradient id="paint19_linear" x1="5653.86" y1="2726.66" x2="5685.26" y2="2726.66" gradientUnits="userSpaceOnUse">
<stop stop-color="#483CA6"/>
<stop offset="1" stop-color="#59278F"/>
</linearGradient>
<linearGradient id="paint20_linear" x1="4775.79" y1="2284.05" x2="4807.2" y2="2284.05" gradientUnits="userSpaceOnUse">
<stop stop-color="#2E256B"/>
<stop offset="1" stop-color="#5A3087"/>
</linearGradient>
<linearGradient id="paint21_linear" x1="3731.43" y1="2740.94" x2="3755.08" y2="2740.94" gradientUnits="userSpaceOnUse">
<stop stop-color="#2E256B"/>
<stop offset="1" stop-color="#5A3087"/>
</linearGradient>
<linearGradient id="paint22_linear" x1="5117.67" y1="2508.99" x2="5149.12" y2="2508.99" gradientUnits="userSpaceOnUse">
<stop stop-color="#2E256B"/>
<stop offset="1" stop-color="#5A3087"/>
</linearGradient>
<linearGradient id="paint23_linear" x1="5287.01" y1="2622.07" x2="5318.47" y2="2622.07" gradientUnits="userSpaceOnUse">
<stop stop-color="#2E256B"/>
<stop offset="1" stop-color="#5A3087"/>
</linearGradient>
<linearGradient id="paint24_linear" x1="5456.34" y1="2734.59" x2="5487.79" y2="2734.59" gradientUnits="userSpaceOnUse">
<stop stop-color="#2E256B"/>
<stop offset="1" stop-color="#5A3087"/>
</linearGradient>
</defs>
</svg>
