<svg width="77" height="79" viewBox="0 0 77 79" fill="none" xmlns="http://www.w3.org/2000/svg">
<g id="icon_4">
<circle id="Oval" cx="16.5" cy="62.7002" r="16" fill="#E4EBF7"/>
<circle id="Oval_2" cx="67.5" cy="9.70007" r="9" fill="#E4EBF7"/>
<g id="network (1)">
<g id="Group">
<circle id="Oval_3" cx="40.5" cy="15.7001" r="6" fill="#F2F8FF"/>
<circle id="Oval_4" cx="62.5" cy="53.7002" r="6" fill="#F2F8FF"/>
<circle id="Oval_5" cx="19.5" cy="53.7002" r="6" fill="#F2F8FF"/>
</g>
<path id="Path" d="M40.5 9.70007H32.5C32.5 13.0141 35.186 15.7001 38.5 15.7001H46.5C46.5 12.3861 43.814 9.70007 40.5 9.70007Z" fill="#383A4A"/>
<path id="Path_2" d="M19.5 47.7002H11.5C11.5 51.0142 14.186 53.7002 17.5 53.7002H25.5C25.5 50.3862 22.814 47.7002 19.5 47.7002Z" fill="#383A4A"/>
<path id="Path_3" d="M40.5 21.7001C36.634 21.7001 33.5 24.8341 33.5 28.7001V29.7001H47.5V28.7001C47.5 24.8341 44.366 21.7001 40.5 21.7001Z" fill="#29A7FF"/>
<path id="Path_4" d="M19.5 59.7002C15.634 59.7002 12.5 62.8342 12.5 66.7002V67.7002H26.5V66.7002C26.5 62.8342 23.366 59.7002 19.5 59.7002Z" fill="#FABE2E"/>
<path id="Path_5" d="M62.5 59.7002C58.634 59.7002 55.5 62.8342 55.5 66.7002V67.7002H69.5V66.7002C69.5 62.8342 66.366 59.7002 62.5 59.7002Z" fill="#FABE2E"/>
<path id="Path_6" d="M62.5 47.7002H54.5C54.5 51.0142 57.186 53.7002 60.5 53.7002H68.5C68.5 50.3862 65.814 47.7002 62.5 47.7002Z" fill="#383A4A"/>
<path id="Shape" fill-rule="evenodd" clip-rule="evenodd" d="M47.5 30.7001C48.052 30.7001 48.5 30.2521 48.5 29.7001V28.7001C48.5 25.6301 46.76 22.9621 44.216 21.6221C46.185 20.3811 47.5 18.1941 47.5 15.7001C47.5 11.8401 44.36 8.70007 40.5 8.70007H32.5C31.948 8.70007 31.5 9.14807 31.5 9.70007C31.5 13.5601 34.64 16.7001 38.5 16.7001H45.399C44.934 18.9791 42.915 20.7001 40.5 20.7001C38.048 20.7001 35.974 18.9481 35.569 16.5341L33.596 16.8651C33.938 18.9011 35.13 20.5961 36.772 21.6261C34.235 22.9701 32.5 25.6351 32.5 28.7001V29.7001C32.5 30.2521 32.948 30.7001 33.5 30.7001H47.5ZM33.601 10.7001H40.5C42.915 10.7001 44.935 12.4211 45.399 14.7001H38.5C36.085 14.7001 34.065 12.9791 33.601 10.7001ZM39.5 27.7001V22.7901C36.667 23.2691 34.5 25.7331 34.5 28.7001H46.5C46.5 25.7321 44.333 23.2681 41.5 22.7901V27.7001H39.5Z" fill="black"/>
<path id="Shape_2" fill-rule="evenodd" clip-rule="evenodd" d="M23.216 59.6222C25.185 58.3812 26.5 56.1942 26.5 53.7002C26.5 49.8402 23.36 46.7002 19.5 46.7002H11.5C10.948 46.7002 10.5 47.1482 10.5 47.7002C10.5 51.5602 13.64 54.7002 17.5 54.7002H24.399C23.934 56.9792 21.915 58.7002 19.5 58.7002C17.048 58.7002 14.974 56.9482 14.569 54.5342L12.596 54.8652C12.938 56.9012 14.13 58.5962 15.772 59.6262C13.235 60.9702 11.5 63.6352 11.5 66.7002V67.7002C11.5 68.2522 11.948 68.7002 12.5 68.7002H26.5C27.052 68.7002 27.5 68.2522 27.5 67.7002V66.7002C27.5 63.6302 25.76 60.9622 23.216 59.6222ZM12.601 48.7002H19.5C21.915 48.7002 23.935 50.4212 24.399 52.7002H17.5C15.085 52.7002 13.065 50.9792 12.601 48.7002ZM18.5 60.7902C15.667 61.2692 13.5 63.7332 13.5 66.7002H25.5C25.5 63.7322 23.333 61.2682 20.5 60.7902V65.7002H18.5V60.7902Z" fill="black"/>
<path id="Shape_3" fill-rule="evenodd" clip-rule="evenodd" d="M66.216 59.6222C68.185 58.3812 69.5 56.1942 69.5 53.7002C69.5 49.8402 66.36 46.7002 62.5 46.7002H54.5C53.948 46.7002 53.5 47.1482 53.5 47.7002C53.5 51.5602 56.64 54.7002 60.5 54.7002H67.399C66.934 56.9792 64.915 58.7002 62.5 58.7002C60.048 58.7002 57.974 56.9482 57.569 54.5342L55.596 54.8652C55.938 56.9012 57.13 58.5962 58.772 59.6262C56.235 60.9702 54.5 63.6352 54.5 66.7002V67.7002C54.5 68.2522 54.948 68.7002 55.5 68.7002H69.5C70.052 68.7002 70.5 68.2522 70.5 67.7002V66.7002C70.5 63.6302 68.76 60.9622 66.216 59.6222ZM55.601 48.7002H62.5C64.915 48.7002 66.935 50.4212 67.399 52.7002H60.5C58.085 52.7002 56.065 50.9792 55.601 48.7002ZM61.5 60.7902C58.667 61.2692 56.5 63.7332 56.5 66.7002H68.5C68.5 63.7322 66.333 61.2682 63.5 60.7902V65.7002H61.5V60.7902Z" fill="black"/>
<path id="Path_7" d="M50.4715 49.7001L51.5 47.9715L41.9986 42.2141V32.7001H40.0014V42.2141L30.5 47.9715L31.5285 49.7001L41 43.9608L50.4715 49.7001Z" fill="black"/>
<path id="Path_8" d="M64.4792 43.7001C64.4931 43.377 64.5 43.0529 64.5 42.7288C64.5 42.3837 64.4931 42.0414 64.4772 41.7001L62.5 41.7854C62.5148 42.098 62.5208 42.4115 62.5208 42.7279C62.5208 43.027 62.5148 43.3252 62.502 43.6215L64.4792 43.7001Z" fill="black"/>
<path id="Path_9" d="M52.3149 24.7001L53.5 22.8522C52.8581 22.4407 52.1931 22.0523 51.5216 21.7001L50.5 23.6434C51.1156 23.9671 51.7257 24.3215 52.3149 24.7001Z" fill="black"/>
<path id="Path_10" d="M49.5 20.5419C48.7482 20.2274 47.9778 19.9444 47.2108 19.7001L46.5 21.9273C47.2038 22.1517 47.91 22.4113 48.5986 22.7001L49.5 20.5419Z" fill="black"/>
<path id="Path_11" d="M53.5 25.387C54.0359 25.8012 54.56 26.2432 55.0565 26.7001L56.5 25.1335C55.9577 24.634 55.3867 24.1527 54.8018 23.7001L53.5 25.387Z" fill="black"/>
<path id="Path_12" d="M56.5 28.1377C56.957 28.6386 57.397 29.164 57.8082 29.7001L59.5 28.4042C59.0526 27.8191 58.5721 27.2457 58.0735 26.7001L56.5 28.1377Z" fill="black"/>
<path id="Path_13" d="M62.5 38.0742C62.6184 38.6089 62.7152 39.1558 62.7861 39.7001L64.5 39.4763C64.4222 38.8819 64.3176 38.285 64.188 37.7001L62.5 38.0742Z" fill="black"/>
<path id="Path_14" d="M60.5 34.5974C60.7836 35.2815 61.0414 35.989 61.2652 36.7001L63.5 35.9949C63.2562 35.2194 62.9738 34.4474 62.6645 33.7001L60.5 34.5974Z" fill="black"/>
<path id="Path_15" d="M58.5 30.8803C58.8738 31.4671 59.2277 32.0792 59.5509 32.7001L61.5 31.6847C61.1471 31.0078 60.7613 30.3396 60.3534 29.7001L58.5 30.8803Z" fill="black"/>
<path id="Path_16" d="M16.5 39.452L18.1878 39.7001C18.2655 39.1715 18.3704 38.6353 18.5 38.1059L16.8437 37.7001C16.7004 38.2815 16.5853 38.8714 16.5 39.452Z" fill="black"/>
<path id="Path_17" d="M16.5 42.7034C16.5 43.0372 16.5079 43.3701 16.5217 43.7001L18.497 43.6188C18.4842 43.3156 18.4773 43.0105 18.4773 42.7034C18.4773 42.4002 18.4852 42.097 18.5 41.7957L16.5257 41.7001C16.5089 42.0339 16.5 42.3677 16.5 42.7034Z" fill="black"/>
<path id="Path_18" d="M27.5 25.3596L26.1681 23.7001C25.5936 24.1607 25.033 24.6479 24.5 25.1479L25.9553 26.7001C26.4489 26.2373 26.9691 25.7862 27.5 25.3596Z" fill="black"/>
<path id="Path_19" d="M21.5 28.3896L23.1778 29.7001C23.5951 29.1667 24.0401 28.6408 24.5 28.1373L22.9287 26.7001C22.4315 27.2451 21.9503 27.8126 21.5 28.3896H21.5Z" fill="black"/>
<path id="Path_20" d="M17.5 35.9478L19.689 36.7001C19.925 36.0114 20.198 35.3193 20.5 34.641L18.3862 33.7001C18.0565 34.4397 17.758 35.1954 17.5 35.9478Z" fill="black"/>
<path id="Path_21" d="M19.5 31.6465L21.4148 32.7001C21.7481 32.0957 22.1131 31.4924 22.5 30.9055L20.677 29.7001C20.2563 30.335 19.8607 30.9897 19.5 31.6465H19.5Z" fill="black"/>
<path id="Path_22" d="M32.9413 19.7001C32.459 19.9611 31.9735 20.2561 31.5 20.578L32.1793 22.7001C32.6141 22.4051 33.0587 22.1347 33.5 21.8971L32.9413 19.7001Z" fill="black"/>
<path id="Path_23" d="M30.5 23.5915L29.422 21.7001C28.774 22.0692 28.1272 22.4732 27.5 22.9012L28.7272 24.7001C29.3065 24.3048 29.9033 23.9324 30.5 23.5915Z" fill="black"/>
<path id="Path_24" d="M24.5 59.092C24.7577 59.2996 25.0203 59.5027 25.2869 59.7002L26.5 58.2578C26.255 58.0769 26.014 57.8904 25.7778 57.7002L24.5 59.092Z" fill="black"/>
<path id="Path_25" d="M56.5 59.0917L55.2218 57.7002C54.9858 57.8911 54.7458 58.0765 54.5 58.2573L55.7096 59.7002C55.9789 59.5038 56.2424 59.3 56.5 59.0917Z" fill="black"/>
<path id="Path_26" d="M43.5 63.008L43.7535 64.7002C44.3363 64.6138 44.9233 64.5001 45.5 64.3633L45.1003 62.7002C44.5718 62.825 44.0329 62.9285 43.5 63.008Z" fill="black"/>
<path id="Path_27" d="M50.5 60.7683L51.5451 62.7002C52.2096 62.3423 52.8674 61.9505 53.5 61.5344L52.291 59.7002C51.7112 60.0811 51.1095 60.44 50.5 60.7683H50.5Z" fill="black"/>
<path id="Path_28" d="M47.5 62.4901L48.2398 64.7002C48.9994 64.4474 49.7602 64.1573 50.5 63.8381L49.5709 61.7002C48.8931 61.9926 48.1965 62.2583 47.5 62.4901Z" fill="black"/>
<path id="Path_29" d="M35.5 64.4249C36.0954 64.5419 36.7041 64.6342 37.3092 64.7002L37.5 62.9517C36.9452 62.8919 36.3878 62.8066 35.8428 62.7002L35.5 64.4249Z" fill="black"/>
<path id="Path_30" d="M31.5 63.9155C32.2646 64.2099 33.0506 64.4734 33.8378 64.7002L34.5 62.4196C33.7795 62.2119 33.059 61.9697 32.3587 61.7002L31.5 63.9155Z" fill="black"/>
<path id="Path_31" d="M39.5426 63.7364L39.5 65.6943C39.678 65.6982 39.8551 65.7002 40.0331 65.7002C40.5256 65.7002 41.0152 65.6845 41.5 65.6542L41.38 63.7002C40.7724 63.7384 40.156 63.7501 39.5426 63.7364Z" fill="black"/>
<path id="Path_32" d="M29.0331 61.2002L29.5611 60.229C29.2507 60.0597 28.9448 59.8827 28.6421 59.7002L27.5 61.594C27.8292 61.7931 28.1638 61.9856 28.5029 62.1703C28.8398 62.3551 29.1811 62.5309 29.5258 62.7002L30.5 60.7146C30.1841 60.5586 29.8715 60.3971 29.5633 60.229L29.0331 61.2002Z" fill="black"/>
</g>
</g>
</svg>
