<svg width="79" height="144" viewBox="0 0 79 144" fill="none" xmlns="http://www.w3.org/2000/svg">
<g style="mix-blend-mode:multiply">
<path d="M74.9764 108.733C72.9374 106.268 68.5374 107.501 66.2301 105.285C64.7813 103.892 64.513 101.418 62.7512 100.444C60.9895 99.4709 58.8699 100.578 56.8846 100.846C53.3074 101.347 49.8911 99.0601 47.4675 96.327C45.044 93.5939 43.1391 90.4232 40.3131 88.1813C37.2441 85.8016 33.3579 84.7293 29.5009 85.1981C29.0689 85.2291 28.6484 85.3509 28.2668 85.5554C27.7925 85.9178 27.3944 86.37 27.0952 86.8862C25.9664 88.427 24.2834 89.4707 22.4001 89.798C20.6115 90.1106 18.8229 89.7533 17.0343 90.1641C14.3514 90.7983 12.3481 93.1384 11.3554 95.7018C10.3627 98.2652 10.2107 101.061 10.014 103.803C9.60258 109.757 8.96465 115.667 8.10015 121.532C7.7156 124.149 7.5099 126.891 6.44568 129.285C5.55137 131.348 4.97902 134.153 5.73023 136.35C6.01885 137.098 6.51523 137.749 7.16112 138.225C8.05543 138.94 9.24486 138.788 10.166 139.404C11.0871 140.021 11.1587 141.244 11.7221 142.138C12.7953 143.817 15.1652 143.924 17.1505 143.844C19.8335 143.736 22.6952 143.558 24.779 141.887C26.5676 140.432 27.4619 138.127 28.2131 135.939L31.7903 125.855C32.5237 123.783 33.2928 121.639 34.822 120.058C36.787 118.222 39.3745 117.194 42.0659 117.182C44.7092 117.184 47.3457 117.45 49.9358 117.977C53.4534 118.525 56.9919 118.903 60.5512 119.112C63.2802 119.396 66.0373 119.24 68.7163 118.647C70.0539 118.339 71.3144 117.761 72.4201 116.948C73.5259 116.136 74.4536 115.106 75.1463 113.922C75.987 112.306 76.1569 110.153 74.9764 108.733Z" fill="#9879C2" fill-opacity="0.5"/>
</g>
<path d="M42.03 52.3828C42.03 52.5972 41.9764 52.8116 41.9406 53.0259C41.8442 53.4727 41.602 53.8748 41.252 54.1692L40.3577 55.0624C40.2492 55.1899 40.1152 55.2934 39.9642 55.366C39.8892 55.403 39.805 55.4168 39.7221 55.4056C39.6393 55.3945 39.5617 55.3589 39.4992 55.3035C39.4397 55.2268 39.4074 55.1326 39.4074 55.0356C39.4074 54.9386 39.4397 54.8443 39.4992 54.7676C39.6198 54.6115 39.7647 54.4758 39.9284 54.3657C40.8227 53.6333 40.8227 52.8294 40.7065 51.7576C40.7018 51.5148 40.6502 51.2753 40.5544 51.052C40.5544 51.052 40.1609 50.5608 40.152 50.7483C40.2575 51.5897 40.2785 52.4395 40.2146 53.285C40.152 53.5797 39.9195 53.9459 39.5528 53.8208C39.1861 53.6958 39.1683 53.2492 39.1146 52.9902C39.006 52.4572 38.9372 51.9168 38.9089 51.3736C38.9173 50.9781 38.8661 50.5837 38.7569 50.2035C38.6853 49.9892 38.5691 49.7927 38.4975 49.5872C38.4125 49.0517 38.4125 48.5061 38.4975 47.9706C38.4812 47.2524 38.4155 46.5362 38.3008 45.827C38.3008 45.9699 39.6065 45.5948 39.7227 45.5501C40.1699 45.3626 40.7333 44.657 41.0195 45.3804C41.1117 45.7886 41.1686 46.204 41.1894 46.6219C41.2799 47.1176 41.4024 47.6068 41.5561 48.0867C41.726 48.6673 41.887 49.2568 42.0569 49.873C42.1347 50.1179 42.1915 50.3689 42.2268 50.6233C42.233 50.8868 42.212 51.1501 42.1642 51.4093C42.1284 51.704 42.0837 52.0434 42.03 52.3828Z" fill="#FFCEB3"/>
<path d="M41.1613 45.6305C40.6694 42.951 39.8377 40.2715 39.2206 37.592C38.9256 36.3343 38.7016 35.061 38.5499 33.7782C38.4668 33.2251 38.419 32.6672 38.4068 32.108C38.4068 31.4292 38.4068 30.7504 38.4068 30.0805C38.4068 27.401 38.2548 24.7215 37.9954 22.042C37.9459 21.3924 37.8473 20.7475 37.7003 20.1127C37.5325 19.4629 37.2925 18.8338 36.9849 18.2371C36.5277 17.1887 35.7759 16.2952 34.8207 15.6648C34.7948 15.6433 34.7648 15.6274 34.7324 15.6182C34.7001 15.6089 34.6662 15.6066 34.6328 15.6112C34.5709 15.637 34.518 15.6805 34.4808 15.7362C34.2402 16.0258 34.0359 16.3438 33.8727 16.683C33.7205 16.911 33.5974 17.157 33.506 17.4154C33.0946 22.8369 34.293 28.2406 34.9101 33.6442C35.1337 35.6181 35.2768 37.592 35.6613 39.5391C36.1806 41.9446 36.9602 44.2866 37.9865 46.5237C38.0666 46.7688 38.2273 46.9797 38.4426 47.1221C38.6173 47.1846 38.8046 47.203 38.9881 47.1757L40.0255 47.1043C40.3785 47.1171 40.7244 47.003 41.0003 46.7827C41.1081 46.6134 41.1783 46.4229 41.2061 46.2241C41.2339 46.0253 41.2186 45.8229 41.1613 45.6305Z" fill="#6A5EBF"/>
<path d="M26.4049 96.9164C26.4049 96.7556 26.3244 96.5859 26.2886 96.4251C26.0611 95.2336 25.989 94.0178 26.074 92.8078C26.221 92.1387 26.1058 91.4387 25.752 90.8518C25.5714 90.6524 25.3524 90.4914 25.1081 90.3784C23.9663 89.7405 22.6502 89.4839 21.352 89.646C19.6797 90.0568 20.0285 92.5398 20.3504 93.7456C20.4667 94.1833 20.6276 94.6388 20.735 95.0318C20.9943 96.1304 20.6813 97.2915 21.039 98.3365C21.4114 99.2915 22.0282 100.132 22.8276 100.775C23.6146 101.463 24.6163 102.132 25.6537 101.784C26.0713 101.592 26.4215 101.279 26.6591 100.885C26.8966 100.492 27.0106 100.037 26.9862 99.578C26.9171 98.6681 26.7215 97.7723 26.4049 96.9164Z" fill="#1A1A1A"/>
<path d="M34.0697 52.6594C34.0214 52.2422 33.8709 51.8435 33.6315 51.4983C33.1935 51.071 32.6223 50.8063 32.0128 50.748C29.0614 50.1512 26.074 49.7484 23.0697 49.5422L17.8202 48.4883C17.137 51.5811 16.9828 54.767 17.3641 57.9112C17.5538 60.1183 17.9156 62.3072 18.4462 64.4581C19.1576 66.7857 19.6281 69.18 19.8502 71.6034C19.8502 71.7731 19.8502 71.9429 19.8502 72.1126C19.7876 72.7378 19.7161 73.3719 19.6535 74.0061C19.3257 76.8469 19.1496 79.7031 19.1258 82.5626C19.209 85.3893 19.6446 88.1947 20.4226 90.9137C20.4825 91.2082 20.6011 91.4877 20.7714 91.7354C20.9943 92.0008 21.2847 92.2014 21.612 92.316C22.5063 92.7001 26.2892 93.361 26.3071 91.7176C26.3071 89.7169 26.3489 87.7162 26.4323 85.7155C26.3676 83.7693 26.4693 81.821 26.7364 79.892C27.0494 78.4183 27.2819 76.9267 27.6307 75.4262C27.6474 75.3536 27.6683 75.282 27.6933 75.2118C28.0769 73.9615 28.3463 72.679 28.4982 71.3802C29.1421 68.3166 29.8218 65.262 31.7713 62.8594C32.4404 62.1446 33.0618 61.3867 33.6315 60.5907C35.1429 58.3042 34.6331 55.3299 34.0697 52.6594Z" fill="#2E256B"/>
<path d="M42.1192 94.9868C42.002 94.7274 41.8613 94.4792 41.6988 94.2455C41.0119 93.3704 40.2154 92.587 39.3289 91.9143C38.524 91.2355 37.6208 90.8604 37.1468 89.8332C36.9605 89.3047 36.7049 88.8031 36.3866 88.3416C36.1005 87.9754 36.011 87.4485 35.4923 87.3591C34.9736 87.2698 34.8037 86.9394 34.4639 86.5196C34.4267 86.4638 34.3738 86.4203 34.3119 86.3945C34.2275 86.3678 34.1369 86.3678 34.0525 86.3945L31.5127 87.3324C31.4096 87.3591 31.3165 87.4149 31.2444 87.4931C31.1842 87.5954 31.159 87.7146 31.1728 87.8325C31.1728 88.4935 31.1728 89.1544 31.1728 89.8154C31.1107 90.4764 31.2781 91.1386 31.6468 91.691C32.0761 92.2001 32.9615 92.3341 33.5428 92.5842C35.1883 93.3077 36.2793 94.8528 37.5135 96.1569C37.8399 96.5589 38.2476 96.8876 38.7099 97.1215C39.1722 97.3555 39.6787 97.4893 40.1964 97.5145C40.6798 97.6127 41.1816 97.5628 41.6362 97.3715C41.9345 97.2766 42.1847 97.0704 42.3346 96.7959C42.4845 96.5214 42.5227 96.1997 42.4411 95.8978C42.3741 95.5814 42.2659 95.2751 42.1192 94.9868Z" fill="#281A10"/>
<path d="M38.9514 54.2677C38.658 51.6908 38.0821 49.1539 37.2344 46.7026L33.9433 46.5239C33.0127 46.9255 32.2706 47.6667 31.8685 48.5961C30.6585 50.4787 29.708 52.5156 29.0425 54.6518C28.755 55.8447 28.5784 57.0616 28.5149 58.287C28.3136 61.1283 28.3495 63.9813 28.6222 66.8167C28.7653 68.2726 28.962 69.7284 29.2303 71.1664C29.6374 72.6312 29.9363 74.1238 30.1246 75.6323C30.2364 77.3572 30.2364 79.0877 30.1246 80.8126C30.0262 81.9023 29.8653 82.983 29.8563 84.0816C29.8936 85.5645 30.0976 87.0386 30.4645 88.476C30.5006 88.7245 30.6025 88.9588 30.7596 89.1548C30.8993 89.2932 31.0715 89.3945 31.2604 89.4496C31.99 89.7071 32.7711 89.7847 33.5372 89.6759C34.3033 89.567 35.0317 89.2749 35.6604 88.8243C35.786 88.7468 35.8905 88.6394 35.9644 88.5117C36.0198 88.3697 36.0442 88.2174 36.036 88.0652C36.036 85.9305 35.9823 83.7779 36.197 81.6522C36.3184 80.1745 36.6187 78.717 37.0913 77.3114C37.7224 75.614 37.9964 73.8049 37.8961 71.9971C37.7134 70.0615 37.6716 68.1152 37.7709 66.1736C37.9677 64.3426 38.397 62.4759 38.6653 60.6538C38.8659 59.5464 39.0003 58.4279 39.0677 57.3045C39.1107 56.2907 39.0718 55.2752 38.9514 54.2677Z" fill="#2E256B"/>
<path d="M38.1927 28.0711C38.1927 27.7317 38.1212 27.3923 38.0675 27.044C37.7814 25.1237 37.3253 23.2391 37.1732 21.3098C36.9586 19.2377 36.7529 16.3081 34.5797 15.3703C33.4514 15.0247 32.2616 14.9272 31.092 15.0845L27.1033 15.147C26.4952 15.147 25.8871 15.147 25.3147 15.147C25.0912 15.147 24.2416 14.7987 24.1074 14.8433C23.7229 14.9594 23.5082 15.8883 23.392 16.2009C23.2757 16.5135 23.1952 16.844 23.07 17.1477C22.9448 17.4514 22.7302 17.7014 22.5781 18.0409C22.2981 18.6917 21.9504 19.3114 21.5408 19.8897L19.7521 22.203C19.4721 22.5465 19.1736 22.8745 18.8578 23.1855C18.518 23.5338 18.205 23.9 17.8562 24.2484C17.1715 24.7647 16.6954 25.5096 16.5148 26.3473C16.4898 26.7829 16.5321 27.2197 16.64 27.6424C16.8048 28.2078 16.9126 28.7883 16.9619 29.3751C16.9307 29.9255 16.9307 30.4772 16.9619 31.0275C17.0586 32.2623 17.2409 33.4888 17.5074 34.6984C18.3302 39.2714 18.9383 44.0142 17.8026 48.5157C17.709 48.7755 17.709 49.0598 17.8026 49.3196C17.9107 49.4852 18.0623 49.6181 18.2408 49.7036C23.4066 52.8471 29.1617 54.9018 35.1521 55.7415C35.3543 55.5689 35.498 55.338 35.5635 55.0805L36.2342 55.2591C38.0228 51.8651 38.2911 47.8637 38.1927 44.0231C38.0944 40.1825 38.0228 36.458 38.1927 32.6531C38.2971 31.1275 38.2971 29.5967 38.1927 28.0711Z" fill="#2E256B"/>
<path d="M32.7464 18.1126C32.5954 17.7806 32.3864 17.4782 32.1293 17.2194C31.7701 16.688 31.3725 16.1836 30.9399 15.7099C30.443 15.3239 29.86 15.0634 29.2407 14.9507C28.9456 14.8882 28.6504 14.8257 28.3464 14.7811C27.621 14.6769 26.8871 14.644 26.1553 14.6828C25.8296 14.7363 25.4973 14.7363 25.1716 14.6828C24.8765 14.5935 24.6171 14.4238 24.2773 14.3523C24.1521 14.3523 24.009 14.2898 23.9464 14.1826C23.9196 14.3812 23.9196 14.5825 23.9464 14.7811C23.9682 14.959 23.9682 15.139 23.9464 15.3169C23.8526 15.721 23.8345 16.1389 23.8927 16.5495C24.0524 17.1885 24.3586 17.7817 24.787 18.2823C25.6813 19.4612 26.5757 20.5866 27.5147 21.712C27.8317 22.1358 28.2082 22.5119 28.6326 22.8285C28.9471 23.0265 29.2832 23.1883 29.6342 23.3108C30.4569 23.6413 31.2886 23.9271 32.1293 24.204C32.3439 22.891 31.8163 21.5245 32.2456 20.2204C32.3618 19.8721 32.5586 19.5416 32.6927 19.1933C32.8366 18.8504 32.8556 18.468 32.7464 18.1126Z" fill="#F2BC9E"/>
<path d="M34.4379 20.6219C34.0443 20.308 33.775 19.865 33.6777 19.3715C33.5895 18.8795 33.5595 18.3789 33.5883 17.8799C33.2249 18.2517 32.9445 18.6961 32.7655 19.1839C32.4739 19.8173 32.2288 20.471 32.0322 21.14C31.8877 21.7246 31.8127 22.3241 31.8086 22.9263C31.8086 23.1764 31.8086 23.4354 31.8086 23.6855C31.8083 23.8242 31.8263 23.9623 31.8623 24.0963L31.9159 24.2928C31.9159 24.2928 32.0053 24.4357 31.9964 24.4625C32.0322 24.2122 32.1045 23.9685 32.211 23.7391C32.3457 23.5191 32.5014 23.3127 32.6761 23.1228C32.8343 22.9278 33.0045 22.7428 33.1858 22.569L33.472 22.3011C33.5346 22.2386 33.6598 22.0778 33.7492 22.0599L33.1948 22.1939C33.471 21.5743 33.8984 21.0338 34.4379 20.6219Z" fill="#6A5EBF"/>
<path d="M33.2994 6.53665C33.0494 5.96937 32.6311 5.49239 32.1011 5.1701C31.5703 4.89555 30.9652 4.79849 30.3751 4.89322C29.5397 4.99016 28.7427 5.29749 28.0588 5.78639C26.9409 6.33122 25.8409 6.90286 24.7051 7.41196C23.9092 7.7603 23.7393 7.99251 23.5068 8.89461C23.2743 9.79671 22.7734 10.9132 23.0686 11.7796C22.5946 11.2883 21.4588 10.806 21.593 11.985C21.6866 12.4491 21.9063 12.8786 22.2279 13.2265L23.2027 14.4769C23.3279 14.6466 24.3832 15.2004 24.2491 14.5752C24.9287 17.8263 27.9694 20.7291 31.4035 20.5862C31.7349 20.598 32.0631 20.5176 32.3515 20.354C32.592 20.1916 32.7936 19.9781 32.9417 19.7287C33.7273 18.4764 34.2308 17.0684 34.4173 15.6023C34.4964 14.8907 34.5173 14.1737 34.4799 13.4587C34.4786 13.0874 34.4457 12.7169 34.3815 12.3512C34.2815 12.1082 34.2417 11.8447 34.2653 11.5831C34.5515 11.5831 34.5962 11.2883 34.5962 11.0561C34.5857 10.2028 34.508 9.35165 34.3637 8.51056C34.3637 8.44803 34.3637 8.36765 34.2563 8.35872C34.149 8.34979 34.149 8.43016 34.1311 8.50162C34.0776 8.7115 34.0594 8.92885 34.0775 9.1447C33.926 8.97631 33.8119 8.77788 33.7426 8.5624C33.6732 8.34692 33.6502 8.11924 33.675 7.89427C33.6513 7.41966 33.523 6.95612 33.2994 6.53665Z" fill="#FFCEB3"/>
<path d="M33.7677 6.59915C33.5909 5.02142 32.9708 3.52582 31.979 2.28515C31.6476 1.84475 31.2347 1.47183 30.7628 1.18656C30.2557 0.933925 29.7075 0.773624 29.1441 0.713184C28.0034 0.490344 26.8247 0.561034 25.7189 0.918609C24.9307 1.23848 24.1856 1.65555 23.501 2.16011C22.9006 2.617 22.373 3.16205 21.936 3.77674C21.5709 4.22348 21.3551 4.7732 21.3189 5.34871C21.2811 6.42505 21.4108 7.50074 21.7035 8.53733C21.8551 9.02089 21.9629 9.51712 22.0254 10.02C22.0054 10.3845 22.0602 10.7492 22.1864 11.0918C22.3964 11.4088 22.6783 11.6719 23.0091 11.8599C23.4205 12.1457 23.2864 11.583 23.2774 11.3955C23.3 11.0265 23.363 10.6611 23.4652 10.3058C23.5896 9.59269 23.8507 8.91031 24.2343 8.29617C24.3248 8.14906 24.4471 8.02395 24.5921 7.92997C25.0035 7.69774 25.7547 7.92997 26.2108 7.92997C27.1078 8.01391 28.0123 7.89713 28.8585 7.58813C29.7047 7.27913 30.4713 6.78567 31.1026 6.14363C31.3219 5.86343 31.6078 5.64238 31.9343 5.50056C32.4888 5.33086 32.8286 5.84888 33.0433 6.26867C33.2123 6.55328 33.3559 6.85215 33.4725 7.16184C33.5461 7.56584 33.588 7.97498 33.5977 8.38549C33.605 8.57821 33.6538 8.7671 33.7408 8.93925C33.7739 8.99187 33.8201 9.03497 33.875 9.06429C33.8989 9.08388 33.929 9.09459 33.9599 9.09459C33.9909 9.09459 34.0209 9.08388 34.0449 9.06429C34.054 9.04313 34.0587 9.02034 34.0587 8.99731C34.0587 8.97427 34.054 8.95148 34.0449 8.93032C34.1075 8.65396 34.1075 8.36711 34.0449 8.09074C33.8664 7.61341 33.7726 7.10866 33.7677 6.59915Z" fill="#89603E"/>
<path d="M30.7702 23.5783C30.2655 23.4794 29.7796 23.3015 29.3304 23.0514C28.9512 22.7677 28.6034 22.4443 28.293 22.0868C27.8906 21.7027 27.4702 21.3544 27.0589 20.9792C26.2212 20.1643 25.499 19.2387 24.9125 18.2283C24.5925 17.7003 24.343 17.1328 24.1702 16.5402C24.1067 16.2869 24.056 16.0305 24.0182 15.7721C24.0182 15.6202 23.8751 14.9772 24.0182 14.8789C23.5288 15.4204 23.1951 16.0839 23.0524 16.7992C22.8377 17.3887 22.641 17.9782 22.4621 18.5855C22.3795 18.8112 22.3579 19.0545 22.3995 19.2911C22.5002 19.5423 22.6633 19.7636 22.8735 19.9342C23.9698 21.2171 24.767 22.7272 25.2076 24.3554C25.3929 24.8403 25.5395 25.339 25.6459 25.847C26.9963 25.847 27.9442 24.275 29.2946 24.2572C29.2052 24.5299 29.2052 24.824 29.2946 25.0967C30.1412 24.7151 31.0504 24.4912 31.9775 24.4358C31.8458 24.2179 31.6707 24.0294 31.463 23.8819C31.2554 23.7344 31.0195 23.6311 30.7702 23.5783Z" fill="#6A5EBF"/>
<path d="M40.4746 59.2067C40.6624 59.2067 40.9307 59.2067 40.9397 58.9744C40.9438 58.9104 40.9247 58.847 40.886 58.7958C40.7092 58.5476 40.5019 58.3225 40.2689 58.1259C39.9828 57.8133 39.795 57.4114 39.5356 57.072C38.8883 56.341 38.0231 55.8369 37.0673 55.634C36.1183 55.4444 35.1854 55.1816 34.2771 54.848C33.2218 54.3746 32.1576 53.5976 30.9682 54.1335C30.63 54.3055 30.3268 54.5387 30.0738 54.8212C29.5616 55.3728 29.2065 56.0513 29.0454 56.7862C29.0317 56.8419 29.0317 56.9001 29.0454 56.9559C29.0678 57.0559 29.1209 57.1465 29.1974 57.2149C29.4196 57.5014 29.5892 57.8249 29.6982 58.1706C29.7429 58.4759 29.8209 58.7754 29.9308 59.0638C30.0555 59.254 30.2166 59.4179 30.4047 59.546C31.299 60.2427 32.2917 60.9126 33.2576 61.5736L34.5812 62.4667C34.8923 62.7173 35.2612 62.8861 35.6543 62.958C35.9942 62.958 36.4145 62.7436 36.3608 62.4042C37.2551 62.6721 37.7559 63.6368 38.6413 63.7975C38.8172 63.8374 39.0015 63.812 39.16 63.7261C39.2382 63.6828 39.2988 63.6136 39.3315 63.5305C39.3641 63.4473 39.3667 63.3554 39.3389 63.2706C39.5222 63.4535 39.7457 63.5911 39.9917 63.6725C40.1148 63.7139 40.2481 63.7135 40.371 63.6715C40.4939 63.6295 40.5995 63.5483 40.6714 63.4403C40.8145 63.1723 40.6714 62.8508 40.4836 62.5471C40.7608 62.6007 41.0023 62.3238 41.0291 62.0469C41.0291 61.7667 40.9449 61.493 40.7876 61.2609C40.0132 59.957 39.1148 58.7307 38.1047 57.5989C39.0437 57.724 39.5177 59.028 40.4746 59.2067Z" fill="#FFCEB3"/>
<path d="M32.4426 53.7495C32.1832 53.4905 31.9149 53.2404 31.6466 52.9903C28.9637 50.5073 25.7979 48.5781 23.2402 45.9522C23.1178 45.8317 23.0071 45.7002 22.9093 45.5592C22.8251 45.4369 22.756 45.305 22.7036 45.1662C22.632 45.0233 22.5694 44.8714 22.4979 44.7285C22.1849 44.9339 21.8808 44.7285 21.6036 44.8893C20.2956 45.5129 18.8675 45.8451 17.4182 45.8628L16.1394 46.5952C15.9068 46.7292 15.567 46.8274 15.5044 47.1043C15.4797 47.6005 15.5589 48.0963 15.7369 48.5602C15.8935 49.1192 16.2032 49.6234 16.6312 50.0161C16.9179 50.2376 17.2164 50.4434 17.5255 50.6324C19.1889 51.7577 20.6914 53.1511 22.2833 54.3837C23.8108 55.5971 25.4052 56.7243 27.0588 57.7598C27.8561 58.2858 28.7357 58.6753 29.6613 58.912C29.384 58.8495 29.8312 57.2775 29.9027 57.081C30.1667 56.4139 30.562 55.8064 31.0653 55.2947C31.637 54.74 32.397 54.4211 33.1938 54.4015C33.0596 54.0889 32.6483 53.9639 32.4426 53.7495Z" fill="#6A5EBF"/>
<path d="M23.3125 29.6877C23.2643 29.0583 23.1381 28.4373 22.9369 27.8388C22.5852 26.8545 21.9173 26.0141 21.0373 25.4486C20.1572 24.8831 19.1145 24.6244 18.0718 24.7128C17.2401 24.7664 17.0434 25.0343 16.6231 25.7399C16.0127 26.7725 15.5663 27.8933 15.2995 29.0625C14.7568 32.0252 14.5349 35.0376 14.6377 38.0477C14.5519 41.1508 14.7857 44.2545 15.3353 47.3099C15.4108 47.9715 15.6439 48.6055 16.0149 49.1588L19.6995 46.7919C19.8426 46.7025 22.6865 44.8269 22.7938 45.2913C22.2339 42.6274 22.1371 39.8871 22.5076 37.1903C22.7938 34.6716 23.5629 32.2332 23.3125 29.6877Z" fill="#6A5EBF"/>
<path d="M55.56 59.0284C55.4974 58.9806 55.4235 58.9498 55.3454 58.9391C54.8215 58.8245 54.2748 58.8744 53.7804 59.082L52.7698 59.8233C52.4121 60.3949 52.117 61.0023 51.795 61.6096C51.4526 62.1455 51.2553 62.7611 51.2227 63.396C51.2227 63.8068 51.4015 64.2087 51.4552 64.6285C51.4698 64.8984 51.5026 65.167 51.5535 65.4324C51.6397 65.6791 51.7634 65.911 51.9202 66.1201C52.1885 66.531 52.4568 66.9418 52.734 67.3527C53.0113 67.7636 54.2633 68.1476 53.9771 67.4509C54.2096 67.5045 54.5763 67.5313 54.7015 67.2544C54.7245 67.1545 54.7245 67.0507 54.7015 66.9508C54.8231 66.9687 54.9466 66.9687 55.0682 66.9508C55.4438 66.8436 55.4974 65.9683 55.0682 65.8611C55.2113 65.8611 55.3096 65.7003 55.3186 65.5485C55.3441 65.0941 55.2581 64.6403 55.0682 64.2266C54.8786 63.915 54.7426 63.5738 54.6657 63.2173C54.66 62.9799 54.6994 62.7434 54.782 62.5207C54.934 61.9669 55.1397 61.4042 55.247 60.8326C55.247 60.645 55.247 60.4664 55.247 60.2788C55.247 60.0912 55.4706 59.8054 55.4527 59.6089C55.4348 59.4124 55.7031 59.1891 55.56 59.0284Z" fill="#F2BC9E"/>
<path d="M54.2184 59.3938C53.6014 59.1258 52.8054 59.8314 52.555 60.3405C52.3243 60.9062 52.2591 61.5257 52.3672 62.1269C52.4388 62.636 52.6623 63.1183 52.7697 63.6274C52.9753 64.5831 52.7697 65.6906 53.4136 66.4498C53.4547 66.5099 53.5092 66.5597 53.5728 66.5953C53.6364 66.631 53.7074 66.6515 53.7802 66.6552C54.0396 66.6552 54.129 66.3069 54.129 66.0479C54.0507 65.1504 54.1141 64.2462 54.3168 63.3684C54.4688 62.9575 54.7192 62.5913 54.8713 62.1894C55.1352 61.5238 55.1352 60.7828 54.8713 60.1172C54.757 59.7999 54.5226 59.5401 54.2184 59.3938Z" fill="#FFCEB3"/>
<path d="M60.0243 33.8674C60.3105 32.2508 60.6413 30.652 61.008 29.0532C60.1747 29.8347 59.4172 30.6929 58.7454 31.6166C58.484 31.9963 58.2594 32.4001 58.0747 32.8224C57.6574 33.9096 57.4687 35.071 57.5202 36.2343C57.4796 38.4953 57.2643 40.7498 56.8763 42.9777C56.3681 46.5643 55.3471 50.0594 53.8446 53.3563C53.478 54.1244 53.0755 54.8747 52.7446 55.6607C52.4185 56.4529 52.1612 57.2717 51.9755 58.108C51.9352 58.242 51.9352 58.3848 51.9755 58.5188C52.0753 58.6629 52.2251 58.7648 52.3958 58.8046C53.5584 59.1887 54.721 59.5549 55.8926 59.8943C55.9862 59.9388 56.0885 59.9618 56.1922 59.9618C56.2958 59.9618 56.3982 59.9388 56.4918 59.8943C56.6158 59.7794 56.695 59.6243 56.7153 59.4567C57.0999 57.9383 57.4934 56.4199 57.8779 54.8926C58.2625 53.3652 58.7096 51.6325 59.121 49.998C59.5388 48.4571 59.8378 46.8865 60.0153 45.2999C60.3283 41.9863 59.1836 38.6191 59.7292 35.3501C59.8454 34.8588 59.9348 34.3586 60.0243 33.8674Z" fill="white"/>
<path d="M64.6731 99.3101C63.6298 99.6945 62.502 99.7901 61.4088 99.587C60.8275 99.3995 60.3446 98.9082 59.7365 98.9082C59.5648 99.4898 59.3278 100.05 59.03 100.578C58.2761 101.919 57.1094 102.981 55.7032 103.606C55.0246 103.962 54.3986 104.41 53.843 104.937C53.2816 105.383 52.8342 105.955 52.5373 106.607C52.3932 106.936 52.3486 107.3 52.409 107.654C52.4694 108.008 52.6321 108.336 52.8771 108.599C53.1734 108.849 53.5379 109.005 53.9235 109.046C55.0125 109.106 56.0891 108.791 56.9731 108.152C57.8674 107.59 58.7617 106.893 59.656 106.42C60.9438 105.795 62.4283 105.589 63.6178 104.785C64.0538 104.53 64.3886 104.133 64.5657 103.66C64.6758 103.037 64.6328 102.396 64.4405 101.793C64.3258 100.959 64.4053 100.109 64.6731 99.3101Z" fill="#1A1A1A"/>
<path d="M66.9279 66.3164C66.5562 65.6023 66.0664 64.9561 65.4791 64.405C64.2867 63.2141 63.0943 62.0232 61.9019 60.8323C60.4263 60.8323 59.2995 61.0378 58.1458 59.8677C57.9222 59.6444 57.6092 59.3765 57.3409 59.5372C57.2733 59.5915 57.2177 59.6593 57.1777 59.7361C57.1376 59.813 57.1141 59.8974 57.1084 59.9838C56.4815 63.0716 56.3938 66.2444 56.8491 69.3621C56.9743 70.2552 57.1531 71.1484 57.3141 72.0416C57.636 73.8279 57.8954 75.6143 58.0921 77.4006C58.3694 79.955 58.6734 82.5274 58.7897 85.0907C58.9671 89.938 58.8985 94.7912 58.584 99.6315C58.4894 100.24 58.583 100.864 58.8523 101.418C59.0758 101.704 59.3551 101.942 59.6733 102.117C59.9915 102.292 60.342 102.4 60.7035 102.436C61.4762 102.575 62.2623 102.626 63.0466 102.588C63.3836 102.583 63.7158 102.507 64.0214 102.365C64.3064 102.156 64.5427 101.889 64.7141 101.58C64.8855 101.272 64.9878 100.93 65.0141 100.578C65.4164 98.4344 65.614 96.2572 65.6043 94.076C65.658 91.5126 65.5328 88.9135 66.2035 86.4394C66.4986 85.3408 66.9547 84.2869 67.2677 83.1972C67.6979 81.7189 67.8822 80.18 67.8133 78.6421C67.8133 77.6953 67.8133 76.7396 67.7596 75.7929C67.6523 73.5153 67.5539 71.2377 67.4466 68.9601C67.4385 68.0545 67.2626 67.1581 66.9279 66.3164Z" fill="#6A5EBF"/>
<path d="M75.3621 106.526C75.3526 106.469 75.3376 106.412 75.3174 106.357C75.2143 106.085 75.0594 105.837 74.8613 105.624C74.5449 105.117 74.1316 104.677 73.6451 104.329C73.0728 104.043 72.4194 103.961 71.7939 104.097C70.989 104.606 70.1483 105.079 69.3703 105.624C68.7801 106.035 68.8784 106.58 68.6459 107.241C68.369 107.943 68.0182 108.614 67.5996 109.242C66.8007 110.334 66.1678 111.537 65.7215 112.814C65.4883 113.755 65.5255 114.743 65.8288 115.664C66.0614 116.298 66.8036 116.423 67.4118 116.432C68.7285 116.429 70.0129 116.024 71.0932 115.272C72.1736 114.521 72.9983 113.457 73.4573 112.225C73.9313 110.876 73.9849 109.456 74.7898 108.241C75.182 107.758 75.3854 107.148 75.3621 106.526Z" fill="#1A1A1A"/>
<path d="M77.8562 65.8254C77.5968 64.6911 77.3106 62.6547 76.5415 61.7615C75.7724 60.8684 74.3326 62.0384 73.4383 62.4225C72.5355 62.7368 71.6082 62.9758 70.6659 63.137C69.7583 63.4366 68.8283 63.6636 67.8846 63.8158L62.3757 65.7718C61.889 66.8068 61.5143 67.8907 61.2578 69.0051C61.0052 70.1266 61.1148 71.2991 61.5708 72.3545C62.063 73.2114 62.6642 74.0009 63.3595 74.7035C65.1979 76.9347 66.5092 79.551 67.196 82.358C67.5637 83.7843 67.8297 85.2349 67.992 86.6988C68.1529 87.9939 68.1619 89.3068 68.3586 90.5751C68.7815 93.467 68.9729 96.388 68.931 99.3103C68.931 100.793 68.8505 102.276 68.7521 103.776C68.7521 104.5 68.6537 105.214 68.5822 105.938C68.5107 106.661 68.3139 107.054 69.0025 107.474C69.8093 107.956 70.713 108.253 71.6486 108.344C72.5841 108.435 73.5283 108.318 74.4131 108.001C74.5621 107.952 74.7036 107.883 74.8334 107.795C75.361 107.429 75.4147 106.822 75.5846 106.268C75.7993 105.518 76.1123 104.812 76.309 104.053C76.6588 102.604 76.8891 101.128 76.9976 99.6408C77.2077 97.2944 77.2346 94.9353 77.0781 92.5847C76.9261 90.3876 76.6667 88.1189 76.6578 85.9396C76.599 83.5998 76.797 81.2607 77.248 78.9639C77.4716 77.9189 77.7757 76.8829 78.0082 75.8379C78.7128 72.5315 78.6608 69.1089 77.8562 65.8254Z" fill="#6A5EBF"/>
<path d="M77.4247 48.1048C77.541 46.6311 77.6751 45.1663 77.693 43.7015C77.7109 42.2367 78.1581 40.8433 78.3101 39.4143C78.4542 38.6281 78.4356 37.8208 78.2557 37.042C78.0758 36.2633 77.7382 35.5295 77.2638 34.8859C76.5483 34.0553 75.5467 33.5997 74.8939 32.6798C74.563 32.2153 71.5223 28.2139 71.0752 27.3833C70.7532 27.9996 70.7174 27.8924 70.0557 27.9281C69.5459 27.9281 69.0361 28.0889 68.5174 28.08C67.5069 28.08 66.4874 27.946 65.4857 27.8835L61.7654 27.6512C60.2438 29.4197 59.1622 31.5221 58.6085 33.7873C57.1776 38.7355 57.0793 43.9516 56.9809 49.1051C56.9809 51.2755 57.0524 53.4816 56.9809 55.6342C56.8736 58.7871 56.337 61.8417 56.3996 65.0125C56.3737 65.6721 56.477 66.3305 56.7037 66.9506C57.3476 68.4422 59.1362 69.0228 60.737 69.3264C65.6895 70.2958 70.7952 70.1616 75.6898 68.9334C76.4431 68.8076 77.1377 68.4482 77.6751 67.9063C78.0895 67.293 78.2992 66.5646 78.2743 65.8252C78.4621 62.0025 77.4426 58.2244 77.2548 54.4016C77.1729 52.3012 77.2297 50.1977 77.4247 48.1048Z" fill="#2E256B"/>
<path d="M63.0979 28.9647L62.6328 29.6167L63.3572 33.752C64.7702 31.9657 66.9344 31.0725 68.723 29.6792C69.1112 29.3994 69.4601 29.0689 69.7604 28.6967C70.0108 28.3752 70.1182 27.9732 70.3865 27.6606C70.4931 27.5631 70.5784 27.4445 70.6369 27.3123C70.677 27.154 70.677 26.9883 70.6369 26.83C70.4848 25.4992 70.306 24.0701 70.923 22.8911C69.9592 24.3103 68.7475 25.5447 67.3458 26.5352C66.6774 27.0507 65.972 27.5164 65.2352 27.9286C65.1369 28.0358 63.0889 28.9289 63.0979 28.9647Z" fill="#F2BC9E"/>
<path d="M63.4647 32.492C63.3842 31.7774 63.1785 31.0897 63.0443 30.3841C62.9381 29.4598 62.6939 28.5567 62.3199 27.7046C61.8109 28.5136 61.1736 29.2345 60.433 29.8393C60.0767 30.0603 59.7466 30.321 59.4492 30.6163C59.7402 30.5348 60.0458 30.5196 60.3435 30.5717C60.4915 30.5989 60.6275 30.6709 60.7331 30.778C60.8387 30.885 60.9087 31.0219 60.9338 31.1701C60.9284 31.3103 60.8938 31.4478 60.8322 31.5739C60.7706 31.7 60.6834 31.8119 60.576 31.9025C60.3882 32.1079 60.2004 32.2955 59.9947 32.483C60.6069 32.7145 61.1533 33.0916 61.5866 33.5816C61.837 33.8228 62.1321 34.055 62.3647 34.323C62.5274 34.5948 62.6254 34.9004 62.6508 35.2161C62.6592 35.3071 62.6934 35.3938 62.7492 35.4662C62.7546 35.2877 62.8104 35.1143 62.9102 34.966C62.9875 34.8575 63.0776 34.7585 63.1785 34.6713C63.2667 34.5452 63.3164 34.3963 63.3216 34.2426C63.3216 34.0461 63.4289 33.8585 63.4557 33.6531C63.5107 33.2682 63.5138 32.8777 63.4647 32.492Z" fill="#6A5EBF"/>
<path d="M70.8606 20.622C70.3151 20.622 69.7249 20.622 69.394 21.0239C69.2062 20.8274 69.1614 20.5327 69.0094 20.3183C68.8574 20.104 68.6964 20.0146 68.5712 19.836C68.334 19.4391 68.1789 18.9987 68.1151 18.5409C68.0525 18.1569 68.0346 17.7371 67.9541 17.353C67.8794 17.1251 67.8402 16.8872 67.8379 16.6474C67.8379 15.8168 68.0257 14.9861 68.1151 14.1555C68.1151 13.95 68.1151 13.691 67.9541 13.5838C67.8413 13.5436 67.7181 13.5436 67.6053 13.5838C67.4354 13.5838 67.2118 13.7357 67.0419 13.6821C66.872 13.6285 66.7558 13.4767 66.6127 13.4141C66.2447 13.2896 65.8527 13.2529 65.468 13.307C64.1599 13.4075 62.8671 13.6532 61.6135 14.0394C60.5135 14.3788 59.8249 14.7092 59.6371 15.8972C59.4582 16.8618 59.2883 17.8175 59.1094 18.7821C59.0473 19.0393 59.0202 19.3037 59.0289 19.5681C59.0842 19.8858 59.162 20.1991 59.2615 20.5059C59.409 21.7332 59.427 22.9726 59.3151 24.2036C59.3266 25.5431 59.4553 26.879 59.6997 28.1961C59.7405 28.5074 59.8343 28.8094 59.9769 29.0892C60.2763 29.4514 60.6711 29.7228 61.1167 29.8728C61.5623 30.0227 62.0411 30.0452 62.4989 29.9377C64.6555 29.6995 66.6362 28.6369 68.0257 26.9724C68.3345 26.6083 68.5848 26.1985 68.7679 25.7577C68.9283 25.2984 69.2447 24.9097 69.6622 24.6591C69.8858 24.5341 70.1183 24.4537 70.3419 24.3465C70.9103 24.0578 71.3694 23.5925 71.65 23.0206C71.9307 22.4487 72.0177 21.8013 71.898 21.1758C71.885 21.076 71.8502 20.9803 71.7961 20.8954C71.742 20.8106 71.67 20.7386 71.585 20.6845C71.4061 20.5595 71.1736 20.6399 70.95 20.6399L70.8606 20.622Z" fill="#FFCEB3"/>
<path d="M72.2917 13.4765C72.1216 13.3955 71.9572 13.303 71.7998 13.1996C71.5587 12.9485 71.3835 12.6416 71.29 12.3064C70.8841 11.4772 70.1727 10.837 69.3047 10.5201C68.4455 10.2048 67.5371 10.0446 66.6218 10.0467C65.8067 9.97696 64.9864 10.0962 64.225 10.3951C63.8405 10.4576 63.4559 10.538 63.0714 10.5915C62.5499 10.7032 62.0735 10.9675 61.7031 11.3507C61.2375 11.7353 60.8093 12.163 60.4242 12.628C60.2356 12.8503 60.0595 13.0829 59.8966 13.3246C59.8161 13.4318 59.5746 13.9766 59.4673 14.0034C59.6641 13.9499 59.8608 13.9141 60.0576 13.8784C59.7091 14.3342 59.4594 14.8573 59.3242 15.4146C60.4825 15.1866 61.6714 15.1594 62.8388 15.3343C63.7077 15.4211 64.5841 15.2763 65.3787 14.9145C65.6577 14.7158 65.9576 14.5481 66.273 14.4143L67.6681 14.0928C67.7134 14.8937 67.5533 15.693 67.2031 16.415C66.8551 17.3302 66.5566 18.2634 66.3088 19.2106C66.9674 19.4794 67.5534 19.8992 68.0195 20.436C68.4856 20.9729 68.8186 21.6118 68.9917 22.301C69.0625 21.8968 69.2635 21.5267 69.564 21.247C69.7891 21.0877 70.0573 21.0004 70.3331 20.9969C70.6347 20.9761 70.9376 21.0094 71.2274 21.0952C71.6209 21.2024 71.7909 21.4257 72.0055 21.0416C72.3855 20.111 72.644 19.1354 72.7746 18.1388C73.1372 17.0277 73.1897 15.8388 72.9266 14.7001C72.8339 14.3501 72.6892 14.0159 72.4974 13.7087C72.4429 13.6199 72.3733 13.5413 72.2917 13.4765Z" fill="#89603E"/>
<path d="M71.1729 26.8029C70.994 26.18 70.7418 25.5804 70.4217 25.0166C70.4846 25.64 70.4177 26.2696 70.2253 26.866C70.0329 27.4624 69.7192 28.0126 69.3039 28.4821C68.8038 28.9742 68.2452 29.4032 67.6404 29.7593C66.3222 30.6236 65.0505 31.5568 63.8307 32.5549C63.5157 32.7889 63.2408 33.0725 63.0169 33.3945C62.8042 33.7188 62.6735 34.0898 62.6361 34.4756C62.5988 34.8615 62.6558 35.2506 62.8022 35.6096C62.867 35.2858 63.0565 35.0003 63.3299 34.8147C63.5455 34.6726 63.7961 34.5922 64.0543 34.5824C64.2421 34.5824 64.251 34.5824 64.1616 34.3859C64.0045 34.1122 63.9098 33.8072 63.8843 33.4928C63.8843 33.4302 63.8307 33.2337 63.8843 33.1802C63.938 33.1266 64.1974 33.2873 64.2689 33.3499C64.3404 33.4124 64.5909 33.6267 64.7429 33.7786C64.9923 34.0306 65.255 34.2691 65.5299 34.4931C66.1297 34.879 66.7926 35.1571 67.4884 35.3148C67.712 34.9218 67.8014 34.4217 67.9982 34.0465C68.2318 33.635 68.5343 33.2664 68.8925 32.9569C69.2949 32.546 69.7868 32.1977 70.1624 31.7957C70.8616 31.1774 71.3495 30.356 71.5575 29.4467C71.6433 28.5474 71.5114 27.6407 71.1729 26.8029Z" fill="#6A5EBF"/>
<path d="M44.7943 61.0108C44.5182 60.7007 44.3056 60.3396 44.1683 59.9479C44.1057 59.7961 43.6407 58.2063 43.426 58.2866L42.7464 58.5367L42.2187 58.6975C41.6128 58.9091 40.9811 59.0382 40.3407 59.0815C39.0529 59.0815 37.8098 58.4474 36.5309 58.6171C36.101 58.6911 35.6809 58.814 35.2789 58.9833L32.7838 59.8765C31.9068 60.132 31.0913 60.5636 30.3871 61.1448C30.3124 61.1981 30.2612 61.278 30.244 61.368C30.244 61.6003 30.5301 61.6896 30.7537 61.6985C30.5766 61.761 30.4171 61.8652 30.2887 62.0022C30.2226 62.0726 30.1775 62.1602 30.1585 62.2549C30.1395 62.3496 30.1475 62.4477 30.1814 62.5381C30.227 62.6189 30.2933 62.6863 30.3733 62.7333C30.4534 62.7804 30.5445 62.8055 30.6375 62.8061C30.8242 62.8024 31.0088 62.7661 31.183 62.6989C31.183 63.1454 31.7375 63.4045 32.1846 63.3598C32.6318 63.3152 33.0789 63.0829 33.4903 63.0383C33.4548 63.0986 33.4322 63.1657 33.4238 63.2352C33.4154 63.3047 33.4215 63.3752 33.4417 63.4423C33.4618 63.5093 33.4956 63.5715 33.5409 63.625C33.5862 63.6784 33.642 63.7219 33.7049 63.7528C33.8604 63.7929 34.0235 63.7929 34.1789 63.7528C34.7155 63.6992 35.2521 63.592 35.7976 63.5295C36.7814 63.4134 37.783 63.592 38.7578 63.4849C39.3927 63.4223 40.0187 63.2437 40.6537 63.1812C41.2236 63.1619 41.7914 63.1023 42.3529 63.0026C43.4665 62.7367 44.4943 62.1927 45.3399 61.4216C45.1398 61.3106 44.9562 61.1723 44.7943 61.0108Z" fill="#FFCEB3"/>
<path d="M77.72 36.3951C77.4904 35.8994 77.1337 35.4732 76.6861 35.1595C76.2386 34.8458 75.7159 34.6558 75.1712 34.6087C74.0667 34.5298 72.9631 34.775 71.9964 35.3143C70.0696 36.292 68.5037 37.8558 67.5249 39.7802C66.9883 40.852 66.6306 42.022 66.1923 43.1385C65.2217 45.6668 63.6358 47.9137 61.5777 49.6764C59.5135 51.2264 57.2403 52.4773 54.8257 53.392L48.2436 56.2412L44.89 57.6971C43.9956 58.0901 43.1013 58.4206 42.207 58.8314C42.3475 58.8098 42.4909 58.816 42.629 58.8497C42.7672 58.8834 42.8973 58.944 43.0119 59.0279C43.2396 59.1979 43.4389 59.4029 43.6021 59.6353C44.0005 60.1466 44.2842 60.7376 44.4339 61.368C44.5201 61.908 44.4551 62.4614 44.246 62.9668C45.1404 62.7256 46.0347 62.5291 46.929 62.288C47.8233 62.0468 48.9769 61.9664 49.9696 61.7342C51.1501 61.4573 52.3127 61.0911 53.4664 60.7249C58.0631 59.2601 62.8208 57.5453 66.5501 54.3924C69.6354 51.7843 71.7549 48.2385 74.4736 45.2463C75.7704 43.8173 77.2549 42.415 77.7557 40.5572C77.9607 39.6797 78.0271 38.7757 77.9525 37.8777C77.9621 37.3737 77.8834 36.872 77.72 36.3951Z" fill="#6A5EBF"/>
<path d="M6.0426 57.5902L5.08569 57.0186C4.48404 56.9573 3.87681 57.0545 3.32448 57.3005C2.77216 57.5465 2.29403 57.9328 1.93773 58.4209C0.949497 59.6807 0.330359 61.1894 0.149118 62.7795C-0.0297816 64.3605 -0.0477609 65.9555 0.0954583 67.5401C0.16509 70.7425 0.741592 73.9138 1.80358 76.9362C2.17919 77.8741 2.63529 78.7672 3.09138 79.6604L6.06943 85.5196C6.76699 77.097 4.12878 68.469 6.12308 60.2608C6.31983 59.3676 6.57024 58.3405 6.0426 57.5902Z" fill="white"/>
<path d="M18.6772 129.49C18.6705 129.312 18.6148 129.139 18.5162 128.99C18.2569 128.606 17.6935 128.633 17.2463 128.731C16.2195 128.954 15.2372 129.346 14.3398 129.892C13.8721 130.249 13.3267 130.491 12.748 130.598C12.1845 130.598 11.4244 130.214 10.8967 130.499C10.6421 130.741 10.4455 131.036 10.3216 131.364C10.1977 131.692 10.1497 132.044 10.1813 132.393C10.234 132.788 10.4239 133.151 10.7179 133.42C11.2193 134.072 11.5567 134.835 11.7016 135.644C11.7723 135.921 11.8838 136.186 12.0325 136.43C12.1658 136.151 12.2389 135.846 12.2471 135.537C12.3187 134.965 12.3813 133.572 12.9626 133.268C13.7585 132.84 14.8049 133.617 15.6455 133.733C16.1541 133.781 16.6658 133.683 17.1205 133.45C17.5752 133.217 17.9539 132.86 18.2122 132.42C18.7039 131.527 18.8684 130.491 18.6772 129.49Z" fill="#212121"/>
<path d="M12.6877 131.375C12.6162 131.526 12.5267 131.66 12.4731 131.812C12.4194 131.964 12.4731 131.955 12.4731 132.027C12.4731 132.098 12.4731 132.161 12.4731 132.232C12.5804 132.455 12.8934 132.232 13.0186 132.152C13.6874 131.729 14.4478 131.471 15.2365 131.401C15.5367 131.409 15.8367 131.382 16.1308 131.321C16.3667 131.25 16.5799 131.119 16.7493 130.94C16.9188 130.762 17.0385 130.542 17.0966 130.303C17.1471 130.163 17.1499 130.01 17.1047 129.867C17.0594 129.725 16.9686 129.602 16.8462 129.517C16.6774 129.4 16.4841 129.323 16.2811 129.292C16.0781 129.261 15.8707 129.277 15.6747 129.338C15.2842 129.466 14.9115 129.643 14.5657 129.865C14.2218 130.089 13.835 130.238 13.43 130.303C13.3146 130.302 13.1998 130.321 13.0901 130.356C13.0159 130.391 12.9535 130.447 12.9105 130.517C12.8676 130.587 12.8461 130.668 12.8487 130.749C12.8265 130.965 12.7723 131.175 12.6877 131.375Z" fill="#FFCEB3"/>
<path d="M10.3001 108.278C9.87754 108.11 9.47305 107.901 9.09276 107.652C8.61878 107.34 8.01065 106.956 7.53667 107.277C7.38007 107.431 7.26949 107.625 7.21736 107.838C7.16522 108.051 7.1736 108.274 7.24155 108.483C7.38463 109.251 7.71553 109.984 7.91228 110.743C8.53829 113.235 7.63504 115.825 7.42041 118.379C7.26799 120.562 7.57256 122.752 8.31471 124.81C9.01227 126.811 9.7456 128.776 10.5147 130.759C10.6295 131.108 10.7952 131.439 11.0066 131.741C11.1348 131.963 11.3253 132.142 11.5544 132.257C11.7835 132.372 12.0412 132.418 12.296 132.389C12.5507 132.359 12.7913 132.256 12.988 132.092C13.1848 131.927 13.3291 131.709 13.4033 131.464C13.7789 129.883 14.0383 128.258 14.2976 126.641C15.0278 120.982 15.0968 115.257 14.5033 109.582C13.9543 109.457 13.3991 109.362 12.8399 109.296C12.4881 109.191 12.1468 109.053 11.8204 108.885C11.2838 108.662 10.7919 108.483 10.3001 108.278Z" fill="#FFCEB3"/>
<path d="M27.3719 138.52C27.2914 140.083 25.3329 140.655 24.0629 140.842C23.3865 140.963 22.6889 140.84 22.0955 140.494C21.702 140.235 21.389 139.842 20.9955 139.556C20.8124 139.4 20.587 139.302 20.348 139.275C20.109 139.248 19.8673 139.293 19.654 139.404C19.5733 139.456 19.5059 139.527 19.4573 139.61C19.381 139.728 19.3237 139.858 19.2873 139.994C19.0101 140.887 18.8223 141.78 18.5898 142.628C18.5898 142.727 18.4825 142.843 18.402 142.789C18.3875 142.752 18.3875 142.71 18.402 142.673C18.3594 141.909 18.2212 141.153 17.9906 140.422C17.9393 140.215 17.8414 140.023 17.7044 139.86C17.6148 139.761 17.516 139.671 17.4093 139.592C17.2428 139.425 17.1146 139.224 17.0337 139.002C16.6044 137.93 17.5077 137.377 17.5077 136.367C17.5077 136.18 17.463 135.956 17.5971 135.831C17.7312 135.706 18.6166 135.689 18.8581 135.662C19.0995 135.635 19.4751 135.608 19.7524 135.599C20.0263 135.581 20.3012 135.581 20.5751 135.599C20.6272 135.581 20.684 135.581 20.7361 135.599C20.7801 135.635 20.8089 135.686 20.8166 135.742C21.0402 136.448 21.2101 136.68 21.8987 136.832C22.4868 136.953 23.0875 137.001 23.6873 136.975C24.1524 136.975 24.6264 136.894 25.1003 136.885C25.4007 136.874 25.7012 136.901 25.9946 136.966C26.3668 137.03 26.7058 137.219 26.9561 137.502C27.2064 137.784 27.3531 138.143 27.3719 138.52Z" fill="#212121"/>
<path d="M24.6189 137.627C23.8593 137.849 23.0552 137.87 22.2848 137.69C21.3482 137.441 20.3832 137.315 19.4141 137.315C19.5367 136.935 19.6323 136.547 19.7002 136.154L19.7539 135.591C20.0279 135.573 20.3027 135.573 20.5767 135.591C20.6287 135.573 20.6856 135.573 20.7376 135.591C20.7816 135.627 20.8104 135.678 20.8181 135.734C21.0417 136.439 21.2116 136.672 21.9002 136.824C22.4883 136.945 23.089 136.993 23.6889 136.966C24.0823 136.966 24.288 136.886 24.5832 137.172C24.6401 137.221 24.6859 137.282 24.7173 137.35C24.7366 137.373 24.7496 137.4 24.755 137.43C24.7604 137.459 24.758 137.489 24.7481 137.517C24.7381 137.545 24.7209 137.57 24.6983 137.59C24.6756 137.609 24.6482 137.622 24.6189 137.627Z" fill="#FCC4A5"/>
<path d="M26.0227 93.3348C25.442 90.748 24.6891 88.2028 23.769 85.7161C23.7431 85.6431 23.7132 85.5715 23.6796 85.5017C23.6276 85.3993 23.5425 85.3175 23.4381 85.2695C23.3496 85.2514 23.2584 85.2514 23.1699 85.2695C20.8338 85.4788 18.4794 85.23 16.239 84.5371C15.6837 84.2628 15.0458 84.2055 14.4504 84.3763C13.5713 85.0123 12.6444 85.5796 11.678 86.0733C10.9663 86.2894 10.3104 86.6578 9.75589 87.153C9.2014 87.6481 8.76171 88.2581 8.46745 88.9404C7.94948 90.348 7.81975 91.8689 8.09184 93.3437C8.42002 95.4969 9.23008 97.5485 10.4618 99.3458C11.0177 100.141 11.6147 100.908 12.2504 101.641C12.8764 102.374 13.7886 102.945 14.1374 103.883C14.7902 105.669 13.717 107.527 13.8691 109.287C14.0658 111.609 14.9512 113.753 14.7634 116.155C14.6201 117.329 14.4141 118.495 14.1463 119.647C13.334 123.717 13.9333 127.941 15.8455 131.625C16.2481 132.227 16.584 132.871 16.8471 133.545C17.0617 134.295 17.1512 135.117 17.2943 135.885C17.3289 136.381 17.5569 136.842 17.9292 137.171C18.2019 137.324 18.5114 137.398 18.8235 137.386C19.1677 137.418 19.5146 137.366 19.8341 137.234C20.0554 137.122 20.2499 136.963 20.4042 136.769C20.5586 136.575 20.6691 136.349 20.7284 136.109C20.8343 135.631 20.8734 135.141 20.8447 134.653C20.8326 133.618 20.8744 132.584 20.9699 131.553C21.0503 130.812 21.1666 130.062 21.2382 129.312C21.307 128.42 21.3279 127.526 21.3008 126.632C21.339 125.851 21.4437 125.074 21.6138 124.31C21.8463 122.863 22.2577 121.434 22.4634 119.987C22.669 118.54 23.0178 116.852 23.3577 115.307C23.6833 114.731 23.9328 114.116 24.0999 113.476C25.0369 110.169 25.6951 106.79 26.0674 103.374C26.1568 102.642 26.2373 101.9 26.2999 101.159C26.4251 99.8371 26.4967 98.4794 26.5324 97.1754C26.5128 95.8797 26.3417 94.5908 26.0227 93.3348Z" fill="#FCC4A5"/>
<path d="M24.5557 89.3245C24.3654 89.6303 24.1028 89.8848 23.7909 90.0654C23.479 90.2461 23.1274 90.3474 22.7671 90.3605C22.0324 90.3736 21.2991 90.2926 20.585 90.1194C18.2114 89.8357 15.8202 89.7253 13.4306 89.7889C11.6549 89.7924 9.88766 89.5459 8.18097 89.0565C7.41895 88.8185 6.67728 88.5198 5.96309 88.1633C5.53382 87.94 4.12082 86.3234 4.35334 85.8232C3.38749 87.9133 2.0818 90.5124 2.56472 92.8882C3.1567 95.3422 3.98016 97.7347 5.02407 100.034C6.18215 102.955 6.78858 106.065 6.81268 109.206L7.93951 110.1C12.9872 112.488 18.7435 112.918 24.0907 111.305C24.2778 111.279 24.4506 111.19 24.5818 111.054C24.713 110.918 24.7951 110.743 24.8151 110.555C26.2728 105.571 27.7395 100.373 26.8452 95.264C26.462 93.1582 25.6854 91.1433 24.5557 89.3245Z" fill="#6A5EBF"/>
<path d="M22.1565 79.2313C22.0284 78.4309 22.0865 77.6119 22.3264 76.8376C22.8183 75.5514 24.1955 74.6672 24.3923 73.3096C24.431 72.3847 24.1394 71.4762 23.5695 70.7462C23.0021 70.0247 22.5745 69.2038 22.3085 68.3257C22.0581 67.1735 22.4606 65.6462 22.55 64.5029C22.6516 64.0425 22.6547 63.5658 22.5592 63.1041C22.4637 62.6423 22.2716 62.2059 21.9955 61.8234C21.5093 61.3217 20.8881 60.9711 20.2069 60.8142C19.4352 60.6785 18.6819 60.4537 17.9622 60.1443C17.524 59.8942 17.1215 59.5816 16.6923 59.3226C16.263 59.0635 15.5833 58.7777 15.0378 58.4919C13.6337 57.7684 12.3549 56.7056 10.7988 56.4019C9.53633 56.2562 8.25741 56.4281 7.07848 56.9021C5.95542 57.2706 4.85884 57.7153 3.79637 58.2329C3.456 58.4044 3.14018 58.6207 2.85735 58.876C2.6053 59.1248 2.41802 59.4314 2.31182 59.7691C1.98725 60.5788 1.77658 61.4294 1.68581 62.2968C1.63795 63.4018 1.76164 64.5075 2.05247 65.5747C3.00044 70.0406 4.00206 74.5064 4.73539 79.0526C4.82827 79.6591 4.88501 80.2705 4.90531 80.8836C4.8848 81.4243 4.78847 81.9595 4.61913 82.4735C4.29718 83.7596 3.98417 85.0369 3.66222 86.323C3.51341 86.659 3.46054 87.0296 3.50947 87.3937C3.5584 87.7578 3.70722 88.1013 3.93946 88.3862C5.37109 89.8828 7.12285 91.0369 9.06384 91.7624C12.6299 93.2581 16.4873 93.9327 20.35 93.7363C21.4446 93.7031 22.525 93.4794 23.5427 93.0754C24.6337 92.593 25.8142 91.5748 25.8053 90.2797C25.6691 89.6946 25.4492 89.132 25.1524 88.6095C24.8901 87.9724 24.6397 87.3382 24.4012 86.7071C23.9183 85.4745 23.4532 84.2419 22.9882 83.0004C22.5828 81.8833 22.3243 80.7185 22.2191 79.5349L22.1565 79.2313Z" fill="#1F2B54"/>
<path d="M21.415 44.282C21.2729 43.4289 20.9983 42.6032 20.6011 41.8347L19.8231 40.8701C19.8231 41.0755 19.8231 41.281 19.7605 41.4953C19.6081 41.3445 19.4197 41.235 19.2132 41.1772C19.0066 41.1193 18.7887 41.1151 18.58 41.1649C17.2739 41.4026 16.0687 42.0247 15.119 42.9512C13.9718 43.9974 12.8962 45.1193 11.8995 46.3095C11.4077 46.8722 10.9069 47.4349 10.415 48.0065C10.1796 48.2215 9.98295 48.4753 9.83369 48.7568C9.733 49.0433 9.69044 49.3469 9.70849 49.65C9.78004 51.3827 10.5491 53.0351 9.70849 54.7053C9.25983 55.6407 8.48814 56.3828 7.53533 56.7953C7.47626 56.8174 7.4239 56.8543 7.38329 56.9025C7.32069 56.9918 7.38329 57.1168 7.38329 57.2151C7.52638 57.4652 7.66947 57.7242 7.8215 57.9743C7.9633 58.2435 8.14411 58.4903 8.35809 58.7067C8.58624 58.897 8.84271 59.0507 9.11825 59.1622C11.5239 60.234 14.2873 60.0554 16.8719 59.582C16.9804 59.5702 17.0831 59.5267 17.167 59.4569C17.2178 59.3885 17.2516 59.3088 17.2654 59.2247C17.461 58.0174 17.518 56.7918 17.4353 55.5717C17.6829 55.6248 17.9389 55.6248 18.1865 55.5717C18.5002 55.4356 18.7631 55.2044 18.9377 54.9107C19.1882 54.3926 19.5137 53.9141 19.9036 53.4906C20.2914 52.8709 20.638 52.2265 20.941 51.5613C21.0931 51.3177 21.1992 51.0483 21.254 50.7664C21.2645 50.4467 21.2253 50.1273 21.1377 49.8197C20.9857 49.2363 20.9613 48.627 21.0662 48.0333C21.1735 47.6135 21.5223 47.2563 21.567 46.8097C21.5792 46.6594 21.564 46.5081 21.5223 46.3631C21.425 45.9284 21.3652 45.4861 21.3434 45.0412L21.415 44.282Z" fill="#FFCEB3"/>
<path d="M21.1845 42.2366C20.9579 41.7833 20.6884 41.3526 20.3797 40.9504C20.1473 40.6484 19.8733 40.3808 19.5659 40.1555C18.9447 39.6152 18.249 39.167 17.5 38.8247C16.3715 38.4661 15.1798 38.3504 14.0033 38.4853L11.9732 39.1016C10.274 40.0371 8.90355 41.4713 8.04718 43.2101C7.19716 44.9635 7.03757 46.9718 7.60003 48.8371C7.84962 49.5332 8.14848 50.2108 8.49433 50.8646C8.66417 51.3193 8.93651 51.7288 9.29027 52.0614C9.65693 52.3204 9.81791 52.7938 10.1846 53.026C10.3917 53.137 10.6207 53.201 10.8553 53.2136C11.363 53.257 11.8742 53.2329 12.3756 53.1422C13.5723 52.9526 14.7066 52.4811 15.6846 51.7667C16.4799 51.2171 17.2251 50.5984 17.9114 49.9178C18.2423 49.5695 18.5463 49.1854 18.8504 48.8103C19.1286 48.4255 19.4271 48.0558 19.7447 47.7028C20.2545 48.0333 19.5301 49.3194 19.3333 49.6945C18.9303 50.332 18.6286 51.028 18.439 51.7578C18.3678 52.1442 18.3772 52.5412 18.4666 52.9239C18.5559 53.3065 18.7233 53.6667 18.9583 53.9819C19.1933 54.297 19.4908 54.5604 19.8323 54.7556C20.1738 54.9507 20.552 55.0734 20.9431 55.1161C20.4065 54.4194 19.4764 54.0353 19.1545 53.2136C19.0478 52.8677 19.0262 52.5011 19.0916 52.145C19.157 51.789 19.3074 51.4539 19.5301 51.1683C19.9844 50.6932 20.3319 50.1269 20.5496 49.507C20.5596 49.003 20.5387 48.4989 20.487 47.9975C20.5406 46.9168 21.4707 46.0504 21.6406 44.9697C21.7295 44.181 21.6314 43.3824 21.3545 42.6385C21.3089 42.5001 21.252 42.3657 21.1845 42.2366Z" fill="#89603E"/>
<path d="M15.7083 40.1109C15.5654 39.1297 15.1035 38.2227 14.3936 37.5296C13.8395 36.9814 13.1457 36.5951 12.3875 36.4124C11.6293 36.2298 10.8355 36.2579 10.092 36.4935C9.39224 36.8484 8.7789 37.3522 8.29526 37.9695C7.81161 38.5868 7.46943 39.3025 7.29285 40.0662C7.11307 40.7959 7.14081 41.5613 7.37293 42.2762C7.60506 42.991 8.03237 43.627 8.60675 44.1125C9.18114 44.5979 9.8798 44.9136 10.6241 45.0241C11.3684 45.1345 12.1288 45.0352 12.8197 44.7375C13.2446 44.5502 13.6443 44.3101 14.0091 44.0229C14.3355 43.7781 14.6353 43.4997 14.9034 43.1923C15.3557 42.6148 15.6348 41.9211 15.7083 41.1916C15.7508 40.8326 15.7508 40.4699 15.7083 40.1109Z" fill="#89603E"/>
<path d="M39.1317 58.3939C39.0161 58.2193 38.8361 58.0973 38.6309 58.0545C38.0367 57.8597 37.4139 57.7661 36.7887 57.7776C36.6227 57.7665 36.4567 57.7972 36.3057 57.8669C35.9301 58.0634 35.9212 58.7601 35.7423 59.0906C35.528 59.5643 35.1758 59.9626 34.7317 60.2338C34.3561 60.4482 33.5334 60.6715 34.2041 61.0198C34.5529 61.1984 34.9195 61.3592 35.2773 61.5289C35.4176 61.524 35.5571 61.5522 35.6845 61.6112C35.8119 61.6701 35.9236 61.7582 36.0106 61.8683C36.5489 62.4245 36.9741 63.0797 37.2626 63.7975C38.4431 62.5114 38.8366 60.7072 39.1854 59.0012C39.2394 58.7988 39.2204 58.5838 39.1317 58.3939Z" fill="white"/>
<path d="M36.4687 60.4484C36.2691 60.273 36.0343 60.142 35.78 60.0644C35.3585 59.9883 34.9239 60.0348 34.528 60.1983C33.489 60.6392 32.4972 61.1838 31.5679 61.8239C30.6307 62.4669 29.5293 62.8294 28.3931 62.8689C26.5508 62.8153 24.9947 61.0201 23.1167 61.6185C22.5592 61.8449 22.0738 62.2185 21.7126 62.6992C21.0964 63.3481 20.6711 64.154 20.4833 65.0285C20.2956 65.9029 20.3527 66.8121 20.6484 67.6563C20.9664 68.3892 21.4686 69.0275 22.1063 69.5095C22.744 69.9915 23.4956 70.3007 24.2882 70.4072C25.4852 70.5298 26.6944 70.4514 27.8654 70.175C28.5924 70.046 29.3095 69.8669 30.0118 69.6391C31.9797 68.8387 33.7948 67.7056 35.3776 66.2898C35.8262 65.9575 36.2398 65.5804 36.6117 65.1644C37.1798 64.4913 37.4959 63.6419 37.506 62.7617C37.512 62.324 37.4222 61.8902 37.2431 61.4907C37.0639 61.0912 36.7996 60.7355 36.4687 60.4484Z" fill="#6A5EBF"/>
<path d="M40.4838 55.3931C40.4285 55.3753 40.3691 55.3753 40.3139 55.3931C39.8935 55.5181 39.974 56.1612 39.8667 56.5006C39.8667 56.5721 39.8041 56.6614 39.7236 56.6703C39.6431 56.6792 39.5716 56.6078 39.5269 56.5274C39.3237 56.134 39.2368 55.691 39.2765 55.2502C39.2765 55.0448 39.2765 54.357 38.9188 54.5178C38.561 54.6785 38.5074 55.2859 38.4716 55.6968C38.4731 55.8579 38.4363 56.017 38.3643 56.1612C38.3577 56.1803 38.3457 56.1972 38.3299 56.2098C38.3141 56.2225 38.295 56.2304 38.2749 56.2327H38.2122C38.0513 56.1523 38.0155 55.9379 37.9976 55.7593C37.9603 55.4568 37.8974 55.158 37.8098 54.8661C37.7974 54.7816 37.7636 54.7016 37.7114 54.6339C37.4074 54.232 37.148 54.9733 37.1123 55.1877C37.0765 55.5619 37.0765 55.9388 37.1123 56.3131C37.1235 56.4991 37.0929 56.6852 37.0228 56.8579C37.019 56.8705 37.0121 56.882 37.0027 56.8914C36.9934 56.9007 36.9818 56.9076 36.9692 56.9115C36.9155 56.9115 36.8618 56.9115 36.835 56.8222C36.7162 56.5333 36.6234 56.2344 36.5578 55.929C36.4977 55.7733 36.4229 55.6238 36.3342 55.4824C36.3342 55.4109 36.2269 55.3395 36.1464 55.3574C36.1159 55.3659 36.0874 55.3807 36.0628 55.4006C36.0382 55.4206 36.018 55.4454 36.0033 55.4735C35.836 55.7133 35.7092 55.9788 35.6277 56.2595C35.6014 56.5566 35.6014 56.8555 35.6277 57.1526C35.6493 57.6636 35.4981 58.167 35.1984 58.5817C35.1781 58.612 35.1504 58.6365 35.1179 58.6531C35.0767 58.6618 35.034 58.6618 34.9927 58.6531C34.7545 58.5964 34.5124 58.5576 34.2684 58.537C34.0269 58.537 33.5619 58.537 33.544 58.8854C33.539 58.9618 33.5527 59.0383 33.5838 59.1083C33.615 59.1783 33.6627 59.2398 33.7228 59.2873C33.7882 59.3388 33.8604 59.3808 33.9375 59.4123C34.2236 59.5463 34.5098 59.7071 34.8318 59.8143C35.1537 59.9214 35.109 59.8947 35.2342 59.6803C35.3594 59.4659 35.6277 59.189 35.7708 58.9122C35.8891 58.7513 36.0388 58.6161 36.211 58.5148C36.3832 58.4134 36.5742 58.3481 36.7724 58.3227C37.1826 58.2024 37.6218 58.2277 38.0155 58.3941C38.6057 58.6978 38.7757 59.4302 38.9724 60.0644C38.9724 60.109 38.9724 60.1537 39.044 60.1626C39.1155 60.1715 39.1334 60.1626 39.1692 60.1626C39.8068 59.6368 40.3045 58.9619 40.6179 58.1976C41.0052 57.4548 41.0947 56.5925 40.8683 55.7861C40.827 55.6788 40.7593 55.5836 40.6716 55.5092C40.6496 55.4784 40.6216 55.4522 40.5894 55.4323C40.5571 55.4124 40.5212 55.399 40.4838 55.3931Z" fill="#F2BC9E"/>
</svg>
