<svg width="76" height="79" viewBox="0 0 76 79" fill="none" xmlns="http://www.w3.org/2000/svg">
<g id="icon_2">
<circle id="Oval" cx="16" cy="62.7002" r="16" fill="#E4EBF7"/>
<circle id="Oval_2" cx="67" cy="9.70007" r="9" fill="#E4EBF7"/>
<g id="debt">
<path id="Path" d="M23 9.70007H52C52.5523 9.70007 53 10.1478 53 10.7001V66.7001C53 67.2524 52.5523 67.7001 52 67.7001H14C13.4477 67.7001 13 67.2524 13 66.7001V19.7001L23 9.70007Z" fill="#E4EBF7"/>
<path id="Path_2" d="M20 47.7002H40V52.7002H20V47.7002Z" fill="#FABE2E"/>
<path id="Path_3" d="M17 52.7002H37V57.7002H17V52.7002Z" fill="#FABE2E"/>
<path id="Path_4" d="M20 57.7002H40V62.7002H20V57.7002Z" fill="#FABE2E"/>
<path id="Path_5" d="M17 62.7002H37V67.7002H17V62.7002Z" fill="#FABE2E"/>
<path id="Path_6" d="M59 9.70007H63V13.7001H59V9.70007Z" fill="#29A7FF"/>
<path id="Path_7" d="M23 18.7001V9.70007L13 19.7001H22C22.5523 19.7001 23 19.2524 23 18.7001Z" fill="#29A7FF"/>
<path id="Shape" fill-rule="evenodd" clip-rule="evenodd" d="M49 35.7001H69C70.1046 35.7001 71 36.5955 71 37.7001V47.7001H47V37.7001C47 36.5955 47.8954 35.7001 49 35.7001ZM51 43.7001H67V39.7001H51V43.7001Z" fill="#383A4A"/>
<path id="Path_8" d="M59 47.7002H47V65.7002C47 66.8048 47.8954 67.7002 49 67.7002H69C70.1046 67.7002 71 66.8048 71 65.7002V47.7002H59Z" fill="#EBEBEB"/>
<path id="Path_9" d="M51 39.7001H67V43.7001H51V39.7001Z" fill="#29A7FF"/>
<circle id="Oval_3" cx="34" cy="38.7001" r="9" fill="#FABE2E"/>
<path id="Path_10" d="M57 13.7001H65V32.7001H57V13.7001Z" fill="#E4EBF7"/>
<path id="Path_11" d="M64 64.7002H66V65.7002H64V64.7002Z" fill="black"/>
<path id="Path_12" d="M64 60.7002H66V61.7002H64V60.7002Z" fill="black"/>
<path id="Shape_2" fill-rule="evenodd" clip-rule="evenodd" d="M49 34.7001H69C70.6569 34.7001 72 36.0432 72 37.7001V65.7001C72 67.3569 70.6569 68.7001 69 68.7001H49C47.3431 68.7001 46 67.3569 46 65.7001V37.7001C46 36.0432 47.3431 34.7001 49 34.7001ZM69 36.7001H49C48.4477 36.7001 48 37.1478 48 37.7001V46.7001H70V37.7001C70 37.1478 69.5523 36.7001 69 36.7001ZM60 48.7001H70V56.7001H60V48.7001ZM48 56.7001H58V48.7001H48V56.7001ZM48 65.7001V58.7001H58V66.7001H49C48.4477 66.7001 48 66.2524 48 65.7001ZM60 66.7001H69C69.5523 66.7001 70 66.2524 70 65.7001V58.7001H60V66.7001Z" fill="black"/>
<path id="Shape_3" fill-rule="evenodd" clip-rule="evenodd" d="M67 44.7001H51C50.4477 44.7001 50 44.2524 50 43.7001V39.7001C50 39.1478 50.4477 38.7001 51 38.7001H67C67.5523 38.7001 68 39.1478 68 39.7001V43.7001C68 44.2524 67.5523 44.7001 67 44.7001ZM66 40.7001H52V42.7001H66V40.7001Z" fill="black"/>
<path id="Path_13" d="M50 53.7002H52V55.7002H54V53.7002H56V51.7002H54V49.7002H52V51.7002H50V53.7002Z" fill="black"/>
<path id="Path_14" d="M62 51.7002H68V53.7002H62V51.7002Z" fill="black"/>
<path id="Path_15" d="M56 61.2002L54.5 59.7002L53 61.2002L51.5 59.7002L50 61.2002L51.5 62.7002L50 64.2002L51.5 65.7002L53 64.2002L54.5 65.7002L56 64.2002L54.5 62.7002L56 61.2002Z" fill="black"/>
<path id="Path_16" d="M62 61.7002H68V63.7002H62V61.7002Z" fill="black"/>
<path id="Shape_4" fill-rule="evenodd" clip-rule="evenodd" d="M44 38.7001C44.0091 33.991 40.7316 29.9136 36.1307 28.9103C31.5297 27.9069 26.8522 30.2495 24.8999 34.5348C22.9476 38.8201 24.2496 43.8869 28.026 46.7001H20C19.4477 46.7001 19 47.1478 19 47.7001V51.7001H17C16.4477 51.7001 16 52.1478 16 52.7001V57.7001C16 58.2524 16.4477 58.7001 17 58.7001H19V61.7001H17C16.4477 61.7001 16 62.1478 16 62.7001V66.7001H14V20.7001H22C23.1046 20.7001 24 19.8046 24 18.7001V10.7001H52V32.7001H54V10.7001C54 9.5955 53.1046 8.70007 52 8.70007H23V8.70907C22.7359 8.70597 22.4815 8.80816 22.293 8.99307L12.293 18.9931C12.1079 19.1815 12.0057 19.436 12.009 19.7001H12V66.7001C12 67.8046 12.8954 68.7001 14 68.7001H44V66.7001H38V63.7001H40C40.5523 63.7001 41 63.2524 41 62.7001V57.7001C41 57.1478 40.5523 56.7001 40 56.7001H38V53.7001H40C40.5523 53.7001 41 53.2524 41 52.7001V47.7001C41 47.1478 40.5523 46.7001 40 46.7001H39.974C42.5044 44.8191 43.997 41.853 44 38.7001ZM22 12.1141V18.7001H15.414L22 12.1141ZM18 63.7001V66.7001H36V63.7001H18ZM39 61.7001H21V58.7001H39V61.7001ZM18 56.7001H20H36V53.7001H18V56.7001ZM39 48.7001V51.7001H21V48.7001H39ZM34 30.7001C29.5817 30.7001 26 34.2818 26 38.7001C26.005 43.1163 29.5838 46.6951 34 46.7001C38.4183 46.7001 42 43.1184 42 38.7001C42 34.2818 38.4183 30.7001 34 30.7001Z" fill="black"/>
<path id="Path_17" d="M37 36.7001V34.7001C37 34.1478 36.5523 33.7001 36 33.7001H35V32.7001H33V33.7001H32C31.4477 33.7001 31 34.1478 31 34.7001V38.7001C31 39.2524 31.4477 39.7001 32 39.7001H35V41.7001H33V40.7001H31V42.7001C31 43.2524 31.4477 43.7001 32 43.7001H36C36.5523 43.7001 37 43.2524 37 42.7001V38.7001C37 38.1478 36.5523 37.7001 36 37.7001H33V35.7001H35V36.7001H37Z" fill="black"/>
<path id="Shape_5" fill-rule="evenodd" clip-rule="evenodd" d="M59 8.70007H63C63.5523 8.70007 64 9.14779 64 9.70007V12.7001H65C65.5523 12.7001 66 13.1478 66 13.7001H68C69.1046 13.7001 70 14.5955 70 15.7001V28.7001H68V15.7001H66V32.7001H64V14.7001H58V32.7001H56V13.7001C56 13.1478 56.4477 12.7001 57 12.7001H58V9.70007C58 9.14779 58.4477 8.70007 59 8.70007ZM62 10.7001H60V12.7001H62V10.7001Z" fill="black"/>
<path id="Path_18" d="M27 16.7001H44V18.7001H27V16.7001Z" fill="black"/>
<path id="Path_19" d="M16 22.7001H50V24.7001H16V22.7001Z" fill="black"/>
<path id="Path_20" d="M16 26.7001H28V28.7001H16V26.7001Z" fill="black"/>
<path id="Path_21" d="M41 26.7001H50V28.7001H41V26.7001Z" fill="black"/>
</g>
</g>
</svg>
