<svg width="107" height="100" viewBox="0 0 107 100" fill="none" xmlns="http://www.w3.org/2000/svg">
<path d="M97.4039 86.0209C103.404 79.5834 106.675 71.625 106.675 63.3333C106.675 52.9583 101.55 43.5624 93.3414 36.8958C93.1539 60.6667 70.7996 80.0001 43.3412 80.0001H24.7578C31.9453 91.8543 46.5496 100 63.3413 100H103.341C104.696 100 105.904 99.1876 106.425 97.9376C106.946 96.6876 106.654 95.2501 105.696 94.3126L97.4039 86.0209Z" fill="#4053A4"/>
<path d="M43.3389 0C19.443 0 0.00542231 16.4376 0.00542231 36.6668C0.00542231 44.9585 3.27627 52.896 9.27629 59.3544L0.984592 67.6461C0.0262557 68.6044 -0.265412 70.0419 0.255423 71.2711C0.776258 72.5211 1.9846 73.3336 3.33877 73.3336H43.3389C67.2348 73.3336 86.6724 56.896 86.6724 36.6668C86.6724 16.4376 67.2348 0 43.3389 0Z" fill="#6C80D7"/>
<path d="M63.3413 26.6674H23.3412C21.5078 26.6674 20.0078 28.1674 20.0078 30.0007C20.0078 31.834 21.5078 33.334 23.3412 33.334H63.3413C65.1746 33.334 66.6746 31.834 66.6746 30.0007C66.6746 28.1674 65.1746 26.6674 63.3413 26.6674Z" fill="#C6D0FF"/>
<path d="M50.004 40.0005H23.3373C21.5039 40.0005 20.0039 41.5005 20.0039 43.3338C20.0039 45.1672 21.5039 46.6672 23.3373 46.6672H50.004C51.8374 46.6672 53.3374 45.1672 53.3374 43.3338C53.3374 41.5005 51.8374 40.0005 50.004 40.0005Z" fill="#C6D0FF"/>
</svg>
