<svg width="102" height="100" viewBox="0 0 102 100" fill="none" xmlns="http://www.w3.org/2000/svg">
<path d="M91.9059 85.7631L86.5172 63.3102C85.9885 61.1075 84.8403 59.1021 83.2083 57.5312C81.5762 55.9602 79.5285 54.8893 77.3072 54.445L59.3228 50.8482H42.3736L24.3893 54.445C22.168 54.8893 20.1203 55.9602 18.4882 57.5312C16.8561 59.1021 15.7079 61.1075 15.1793 63.3102L9.79057 85.7631C9.4318 87.258 9.41662 88.8148 9.74617 90.3164C10.0757 91.818 10.7414 93.2253 11.6932 94.4326C12.645 95.6399 13.8582 96.6156 15.2414 97.2865C16.6246 97.9574 18.142 98.3059 19.6793 98.3059H82.0172C83.5545 98.3059 85.0719 97.9574 86.4551 97.2865C87.8383 96.6156 89.0514 95.6399 90.0032 94.4326C90.955 93.2253 91.6208 91.818 91.9503 90.3164C92.2798 88.8148 92.2647 87.258 91.9059 85.7631Z" fill="#FDA5A3"/>
<path d="M15.1784 63.3102L10.748 81.7701L22.0337 89.8313H79.661L91.287 83.188L86.5163 63.3102C85.9877 61.1075 84.8395 59.1021 83.2074 57.5312C81.5753 55.9602 79.5276 54.8893 77.3063 54.445L59.322 50.8482H42.3728L24.3885 54.445C22.1671 54.8893 20.1194 55.9602 18.4874 57.5312C16.8553 59.1021 15.7071 61.1075 15.1784 63.3102Z" fill="#B275CF"/>
<path d="M56.8965 98.3054H82.0161C83.5534 98.3054 85.0708 97.9568 86.454 97.2859C87.8372 96.6151 89.0504 95.6393 90.0022 94.432C90.954 93.2248 91.6197 91.8174 91.9492 90.3158C92.2788 88.8142 92.2636 87.2574 91.9048 85.7626L88.5491 71.7805C85.5068 78.2289 81.1011 83.9401 75.6362 88.5196C70.1714 93.0992 63.7776 96.4379 56.8965 98.3054Z" fill="#D78D8B"/>
<path d="M73.998 89.8308H79.6613L91.2872 83.1874L89.6777 76.4809L88.5496 71.7805C85.2018 78.8678 80.2136 85.0554 73.998 89.8308Z" fill="#8440A4"/>
<path d="M59.3223 50.8482L56.9519 52.2704C55.1079 53.3768 52.998 53.9612 50.8476 53.9612C48.6973 53.9612 46.5874 53.3768 44.7434 52.2704L42.373 50.8482V42.3736H59.3223V50.8482Z" fill="#FFD89F"/>
<path d="M83.0508 33.8984C92.4116 33.8984 100 26.31 100 16.9492C100 7.58845 92.4116 3.05176e-05 83.0508 3.05176e-05C73.69 3.05176e-05 66.1016 7.58845 66.1016 16.9492C66.1016 26.31 73.69 33.8984 83.0508 33.8984Z" fill="#4D63BF"/>
<path d="M33.8984 15.2543V32.0981C33.8984 34.1306 34.5075 36.1164 35.6469 37.7994C36.7864 39.4825 38.404 40.7854 40.2911 41.5403L44.5529 43.245C48.5937 44.8613 53.1015 44.8613 57.1424 43.245L61.4042 41.5403C63.2913 40.7854 64.9089 39.4825 66.0484 37.7994C67.1878 36.1164 67.7968 34.1306 67.7968 32.0981V8.47464L33.8984 15.2543Z" fill="#FFD89F"/>
<path d="M51.6289 13.2552L67.7959 18.6442V8.47464L51.6289 13.2552Z" fill="#89603E"/>
<path d="M79.1646 23.2325L76.7676 20.8354L81.3559 16.2473V5.08475H84.7458V17.6511L79.1646 23.2325Z" fill="#AFBEFF"/>
<path d="M43.4983 3.05176e-05C42.2376 3.1074e-05 40.9893 0.248339 39.8246 0.730779C38.6599 1.21322 37.6016 1.92034 36.7102 2.81177C35.8187 3.7032 35.1116 4.76148 34.6292 5.9262C34.1467 7.09091 33.8984 8.33923 33.8984 9.59991V16.9492L66.4811 10.1612C68.769 9.68454 70.8229 8.43446 72.2973 6.62126C73.7716 4.80806 74.5765 2.54239 74.5765 0.205404V3.05176e-05H43.4983Z" fill="#89603E"/>
<path d="M76.2707 61.0176H25.423C24.524 61.0176 23.6618 61.3747 23.0261 62.0105C22.3903 62.6462 22.0332 63.5084 22.0332 64.4074V98.3059H79.6605V64.4074C79.6605 63.5084 79.3034 62.6462 78.6676 62.0105C78.0319 61.3747 77.1697 61.0176 76.2707 61.0176Z" fill="#6C80D7"/>
<path d="M50.8484 84.7457C53.6567 84.7457 55.9332 82.4692 55.9332 79.661C55.9332 76.8527 53.6567 74.5762 50.8484 74.5762C48.0402 74.5762 45.7637 76.8527 45.7637 79.661C45.7637 82.4692 48.0402 84.7457 50.8484 84.7457Z" fill="#AFBEFF"/>
<path d="M10.1691 74.5762H20.3387C21.2377 74.5762 22.0999 74.9333 22.7356 75.5691C23.3714 76.2048 23.7285 77.067 23.7285 77.966V81.3559L22.3388 95.2526C22.2552 96.089 21.8637 96.8646 21.2404 97.4287C20.6171 97.9927 19.8065 98.3051 18.9658 98.3051H11.542C10.7013 98.3051 9.89068 97.9927 9.26738 97.4287C8.64408 96.8646 8.25261 96.089 8.16896 95.2526L6.7793 81.3559V77.966C6.7793 77.067 7.13644 76.2048 7.77216 75.5691C8.40788 74.9333 9.2701 74.5762 10.1691 74.5762Z" fill="#AFBEFF"/>
<path d="M20.3387 74.5762H10.1691C9.2701 74.5762 8.40788 74.9333 7.77216 75.5691C7.13644 76.2048 6.7793 77.067 6.7793 77.966V81.3559H23.7285V77.966C23.7285 77.067 23.3714 76.2048 22.7356 75.5691C22.0999 74.9333 21.2377 74.5762 20.3387 74.5762Z" fill="#4053A4"/>
<path d="M22.339 95.2533L23.3906 84.7373C22.7228 88.0075 21.1052 91.0081 18.7404 93.3635C16.3755 95.7189 13.3685 97.3245 10.0957 97.9793C10.5477 98.194 11.0418 98.3055 11.5422 98.3058H18.966C19.8067 98.3058 20.6173 97.9934 21.2406 97.4294C21.8639 96.8653 22.2554 96.0897 22.339 95.2533Z" fill="#4053A4"/>
<path d="M42.373 98.3055H79.6613V64.407C79.6604 64.1459 79.6293 63.8857 79.5687 63.6316C78.9068 73.0451 74.7005 81.8575 67.7979 88.2921C60.8953 94.7268 51.8097 98.305 42.373 98.3055Z" fill="#4053A4"/>
<path d="M101.695 96.6104H0V100H101.695V96.6104Z" fill="#314394"/>
<path d="M76.0898 32.4019C79.2266 33.8155 82.7193 34.2408 86.1037 33.6215C89.488 33.0021 92.6037 31.3674 95.0366 28.9345C97.4694 26.5017 99.1042 23.386 99.7235 20.0016C100.343 16.6173 99.9175 13.1246 98.5039 9.98782C96.8713 15.2644 93.9767 20.0634 90.0711 23.9691C86.1654 27.8747 81.3665 30.7692 76.0898 32.4019Z" fill="#4053A4"/>
<path d="M49.082 53.8274C51.8068 54.2385 54.5898 53.688 56.9528 52.2704L59.3232 50.8482V42.3736H59.214C58.8723 45.08 57.7228 47.6206 55.9153 49.6638C54.1079 51.7071 51.7266 53.1581 49.082 53.8274Z" fill="#F2BC9E"/>
<path d="M45.6992 43.6506C49.4455 44.8473 53.4913 44.7037 57.1433 43.2445L61.4051 41.5398C63.2922 40.785 64.9098 39.482 66.0493 37.799C67.1887 36.1159 67.7978 34.1301 67.7978 32.0976V11.864C67.7977 18.7842 65.6805 25.5387 61.7303 31.2207C57.7801 36.9027 52.186 41.2401 45.6992 43.6506Z" fill="#F2BC9E"/>
</svg>
