<svg width="76" height="79" viewBox="0 0 76 79" fill="none" xmlns="http://www.w3.org/2000/svg">
<g id="icon_3">
<circle id="Oval" cx="16" cy="62.7002" r="16" fill="#E4EBF7"/>
<circle id="Oval_2" cx="67" cy="9.70007" r="9" fill="#E4EBF7"/>
<g id="teleconference (1)">
<path id="Path" d="M66 27.7001H18C17.448 27.7001 17 28.1481 17 28.7001V59.7001H21H61H67V28.7001C67 28.1481 66.552 27.7001 66 27.7001Z" fill="#383A4A"/>
<path id="Path_2" d="M67 59.7002H63H21H17H13C13 64.1182 16.582 67.7002 21 67.7002H63C67.418 67.7002 71 64.1182 71 59.7002H67Z" fill="#383A4A"/>
<path id="Path_3" d="M21 31.7001H63V59.7001H21V31.7001Z" fill="#E4EBF7"/>
<path id="Path_4" opacity="0.12" d="M63 64.7002H21C17.643 64.7002 14.774 62.6312 13.587 59.7002H13C13 64.1182 16.582 67.7002 21 67.7002H63C67.418 67.7002 71 64.1182 71 59.7002H70.413C69.226 62.6312 66.357 64.7002 63 64.7002Z" fill="#303030"/>
<path id="Path_5" d="M45.4733 48.0598V46.7002C45.0095 46.9777 44.5261 47.232 44.0024 47.4334C42.9633 47.8334 41.7868 47.8334 40.7476 47.4334C40.2239 47.232 39.7395 46.9777 39.2767 46.7002V48.0598C39.2767 49.1132 38.784 50.0589 38 50.7345L42.3745 52.7002L47 50.9192C46.0755 50.238 45.4733 49.2171 45.4733 48.0598Z" fill="#F2F8FF"/>
<path id="Path_6" d="M44 33.705V33.6566L44.215 34.7208C44.674 36.9899 46.661 38.6417 49 38.6991V35.6348C49 34.1125 48.416 32.7288 47.463 31.6783C46.364 30.4666 44.775 29.7001 43 29.7001H41C37.686 29.7001 35 32.3568 35 35.6348V38.7001L39.05 38.6566C41.792 38.6259 44 36.4182 44 33.705Z" fill="#383A4A"/>
<path id="Path_7" d="M43.576 47.3685C44.083 47.1459 44.552 46.8648 45 46.5581C47.462 44.8769 49 42.0365 49 38.9305C46.661 38.871 44.674 37.158 44.215 34.8048L44 33.7001V33.7503C44 36.564 41.792 38.8536 39.05 38.8843L35 38.9305C35 42.0365 36.538 44.8769 39 46.5581C39.449 46.8648 39.917 47.1459 40.424 47.3685C41.431 47.8106 42.569 47.8106 43.576 47.3685Z" fill="#F2F8FF"/>
<path id="Path_8" d="M67 9.70007H27C24.791 9.70007 23 11.4911 23 13.7001V17.7001C23 19.9091 24.791 21.7001 27 21.7001H33L36 24.7001V21.7001H67C69.209 21.7001 71 19.9091 71 17.7001V13.7001C71 11.4911 69.209 9.70007 67 9.70007Z" fill="#29A7FF"/>
<path id="Path_9" d="M49 51.8037C48.038 51.8037 47.168 51.4553 46.478 50.8966L42 52.7908L37.764 50.7002C37.045 51.3803 36.074 51.8037 35 51.8037C32.791 51.8037 31 53.5715 31 55.752V59.7002H53V55.752C53 53.5715 51.209 51.8037 49 51.8037Z" fill="#FABE2E"/>
<path id="Shape" fill-rule="evenodd" clip-rule="evenodd" d="M71 58.7001H68V28.7001C68 27.5971 67.103 26.7001 66 26.7001H18C16.897 26.7001 16 27.5971 16 28.7001V58.7001H13C12.447 58.7001 12 59.1481 12 59.7001C12 64.6621 16.037 68.7001 21 68.7001H63C67.963 68.7001 72 64.6621 72 59.7001C72 59.1481 71.553 58.7001 71 58.7001ZM66 28.7001V58.7001H64V31.7001C64 31.1481 63.553 30.7001 63 30.7001H47.889C46.626 29.4651 44.901 28.7001 43 28.7001H66ZM48 37.6281V35.7001C48 32.9431 45.757 30.7001 43 30.7001H41C38.243 30.7001 36 32.9431 36 35.7001V37.7881L39.039 37.7541C41.223 37.7301 43 35.9331 43 33.7491C43 33.2351 43.39 32.7801 43.901 32.7291C44.432 32.6741 44.879 33.0011 44.98 33.5041L45.195 34.5811C45.495 36.0801 46.593 37.2201 48 37.6281ZM39.061 39.7541C41.139 39.7311 42.972 38.6381 44.034 36.9931C44.897 38.3761 46.301 39.3471 47.936 39.6731C47.624 42.4991 45.838 44.9681 43.183 46.1061H43.182C42.43 46.4271 41.57 46.4271 40.818 46.1061C38.198 44.9831 36.421 42.5651 36.074 39.7871L39.061 39.7541ZM40.031 47.9441C40.0232 47.9406 40.0158 47.9364 40.0083 47.9321L40.0083 47.9321C39.9985 47.9266 39.9888 47.921 39.978 47.9171C39.941 48.7601 39.695 49.5431 39.29 50.2281L42.032 51.5991L44.809 50.4091C44.34 49.6851 44.062 48.8321 44.022 47.9171L44.0147 47.9205C44.0083 47.9237 44.0022 47.9271 43.996 47.9306L43.996 47.9306C43.9875 47.9353 43.979 47.9401 43.97 47.9441C43.344 48.2121 42.672 48.3461 42 48.3461C41.328 48.3461 40.656 48.2131 40.031 47.9441ZM37.892 51.7641L41.553 53.5951C41.693 53.6651 41.847 53.7001 42 53.7001C42.134 53.7001 42.268 53.6731 42.394 53.6191L46.351 51.9231C47.121 52.4081 48.025 52.7001 49 52.7001C50.654 52.7001 52 54.0461 52 55.7001V58.7001H32V55.7001C32 54.0461 33.346 52.7001 35 52.7001C36.079 52.7001 37.073 52.3481 37.892 51.7641ZM46 47.7001C46 49.3541 47.346 50.7001 49 50.7001C51.757 50.7001 54 52.9431 54 55.7001V58.7001H62V32.7001H49.315C49.749 33.6111 50 34.6251 50 35.7001V38.7981C50 41.9811 48.474 44.8921 46 46.7431V47.7001ZM18 28.7001H41C39.098 28.7001 37.373 29.4651 36.111 30.7001H28V32.7001H34.685C34.251 33.6111 34 34.6251 34 35.7001V38.7991C34 41.9821 35.526 44.8931 38 46.7441V47.7001C38 49.3541 36.654 50.7001 35 50.7001C32.243 50.7001 30 52.9431 30 55.7001V58.7001H22V32.7001H26V30.7001H21C20.447 30.7001 20 31.1481 20 31.7001V58.7001H18V28.7001ZM14.071 60.7001C14.558 64.0881 17.479 66.7001 21 66.7001H63C66.521 66.7001 69.442 64.0881 69.928 60.7001H14.071Z" fill="black"/>
<path id="Path_10" d="M27 62.7002H57V64.7002H27V62.7002Z" fill="black"/>
<path id="Shape_2" fill-rule="evenodd" clip-rule="evenodd" d="M27 8.70007H67C69.757 8.70007 72 10.9431 72 13.7001V17.7001C72 20.4571 69.757 22.7001 67 22.7001H37V24.7001C37 25.1041 36.757 25.4691 36.383 25.6241C36.259 25.6751 36.129 25.7001 36 25.7001C35.74 25.7001 35.484 25.5981 35.293 25.4071L32.586 22.7001H27C24.243 22.7001 22 20.4571 22 17.7001V13.7001C22 10.9431 24.243 8.70007 27 8.70007ZM67 20.7001C68.654 20.7001 70 19.3541 70 17.7001V13.7001C70 12.0461 68.654 10.7001 67 10.7001H27C25.346 10.7001 24 12.0461 24 13.7001V17.7001C24 19.3541 25.346 20.7001 27 20.7001H33C33.266 20.7001 33.52 20.8051 33.707 20.9931L35 22.2861V21.7001C35 21.1481 35.447 20.7001 36 20.7001H67Z" fill="black"/>
<path id="Path_11" d="M29 12.7001H39V14.7001H29V12.7001Z" fill="black"/>
<path id="Path_12" d="M42 12.7001H64V14.7001H42V12.7001Z" fill="black"/>
<path id="Path_13" d="M29 16.7001H31V18.7001H29V16.7001Z" fill="black"/>
<path id="Path_14" d="M33 16.7001H56V18.7001H33V16.7001Z" fill="black"/>
<path id="Path_15" d="M58 16.7001H64V18.7001H58V16.7001Z" fill="black"/>
</g>
</g>
</svg>
