<svg width="17" height="17" viewBox="0 0 17 17" fill="none" xmlns="http://www.w3.org/2000/svg">
<g clip-path="url(#clip0)">
<path d="M12.5808 0.910156H5.24291C2.85473 0.910156 0.911865 2.85302 0.911865 5.2412V12.5792C0.911865 14.9673 2.85473 16.9101 5.24291 16.9101H12.5809C14.969 16.9101 16.9118 14.9673 16.9118 12.5792V5.2412C16.9118 2.85302 14.969 0.910156 12.5808 0.910156V0.910156ZM8.91185 13.285C6.4995 13.285 4.53698 11.3225 4.53698 8.91014C4.53698 6.49779 6.4995 4.53527 8.91185 4.53527C11.3242 4.53527 13.2867 6.49779 13.2867 8.91014C13.2867 11.3225 11.3242 13.285 8.91185 13.285ZM13.3913 5.56701C12.6784 5.56701 12.0986 4.98717 12.0986 4.27429C12.0986 3.5614 12.6784 2.98144 13.3913 2.98144C14.1042 2.98144 14.6842 3.5614 14.6842 4.27429C14.6842 4.98717 14.1042 5.56701 13.3913 5.56701Z" fill="#8966FF"/>
<path d="M8.91186 5.47314C7.01684 5.47314 5.47498 7.01489 5.47498 8.91003C5.47498 10.805 7.01684 12.3469 8.91186 12.3469C10.807 12.3469 12.3487 10.805 12.3487 8.91003C12.3487 7.01489 10.807 5.47314 8.91186 5.47314Z" fill="#8966FF"/>
<path d="M13.3914 3.91943C13.1958 3.91943 13.0366 4.07861 13.0366 4.27417C13.0366 4.46973 13.1958 4.6289 13.3914 4.6289C13.587 4.6289 13.7462 4.46985 13.7462 4.27417C13.7462 4.07849 13.587 3.91943 13.3914 3.91943Z" fill="#8966FF"/>
</g>
<defs>
<clipPath id="clip0">
<rect width="16" height="16" fill="white" transform="translate(0.911865 0.910156)"/>
</clipPath>
</defs>
</svg>
