<svg width="544" height="533" viewBox="0 0 544 533" fill="none" xmlns="http://www.w3.org/2000/svg">
<path fill-rule="evenodd" clip-rule="evenodd" d="M293.305 18.3716L291.706 18.3716L291.706 46.106L264 46.106L264 109.979L265.599 109.979L265.599 47.7036L293.305 47.7036L293.305 18.3716Z" fill="#6C80D7"/>
<g filter="url(#filter0_d)">
<circle cx="292.5" cy="14.5" r="6.5" transform="rotate(90 292.5 14.5)" fill="#6B7FD7"/>
</g>
<path fill-rule="evenodd" clip-rule="evenodd" d="M501.595 151.714L501.627 153.312L453.068 153.312L453.068 194.879L235 194.879L235 193.281L451.471 193.281L451.471 151.714L501.595 151.714Z" fill="#6C80D7"/>
<g filter="url(#filter1_d)">
<circle cx="507.5" cy="152.5" r="6.5" fill="#6B7FD7"/>
</g>
<path fill-rule="evenodd" clip-rule="evenodd" d="M505.604 285.306L505.604 283.707L477.869 283.707L477.869 256.001L393.997 256.001L393.997 257.6L476.272 257.6L476.272 285.306L505.604 285.306Z" fill="#6C80D7"/>
<path fill-rule="evenodd" clip-rule="evenodd" d="M136.947 377.306L136.947 375.707L164.681 375.707L164.681 348.001L248.554 348.001L248.554 349.6L166.279 349.6L166.279 377.306L136.947 377.306Z" fill="#6C80D7"/>
<g filter="url(#filter2_d)">
<circle cx="511.5" cy="284.501" r="6.5" fill="#6B7FD7"/>
</g>
<g filter="url(#filter3_d)">
<circle r="6.5" transform="matrix(-1 0 0 1 130.496 377.5)" fill="#6B7FD7"/>
</g>
<path fill-rule="evenodd" clip-rule="evenodd" d="M427.525 100.982L427.573 99.3833L321.781 99.3833L321.781 140.95L218 140.95L218 142.549L323.379 142.549L323.379 100.982L388.081 100.982L388.081 123.364L464.697 123.364L464.697 121.765L389.678 121.765L389.678 100.982L427.525 100.982Z" fill="#6C80D7"/>
<g filter="url(#filter4_d)">
<circle cx="470.496" cy="122.5" r="6.5" fill="#6B7FD7"/>
</g>
<g filter="url(#filter5_d)">
<circle cx="433.496" cy="100.5" r="6.5" fill="#6B7FD7"/>
</g>
<path fill-rule="evenodd" clip-rule="evenodd" d="M242.149 465.219L242.149 381.374L302.101 381.374L302.101 232.001L303.7 232.001L303.7 359.008L333.276 359.008L333.276 392.833L331.677 392.833L331.678 360.605L303.7 360.605L303.7 382.971L243.748 382.971L243.748 442.081L282.117 442.081L282.117 508.609L280.518 508.609L280.518 443.679L243.748 443.679L243.748 465.251L242.149 465.219Z" fill="#6C80D7"/>
<g filter="url(#filter6_d)">
<circle cx="242.5" cy="471.5" r="6.5" fill="#6B7FD7"/>
</g>
<g filter="url(#filter7_d)">
<circle cx="332.5" cy="398.5" r="6.5" fill="#6B7FD7"/>
</g>
<g filter="url(#filter8_d)">
<circle cx="281.5" cy="514.5" r="6.5" fill="#6B7FD7"/>
</g>
<path fill-rule="evenodd" clip-rule="evenodd" d="M178.956 215.08L90.592 215.08L90.592 216.678L177.358 216.678L177.358 266.766L90.5624 266.766L90.5624 311.003L22.1681 311.003L22.1681 312.602L92.1599 312.602L92.1599 268.365L341.109 268.365L341.109 266.766L178.956 266.766L178.956 215.08Z" fill="#6C80D7"/>
<g filter="url(#filter9_d)">
<circle cx="84.5" cy="215.501" r="6.5" fill="#6B7FD7"/>
</g>
<g filter="url(#filter10_d)">
<circle cx="16.5" cy="311.5" r="6.5" fill="#6B7FD7"/>
</g>
<path fill-rule="evenodd" clip-rule="evenodd" d="M142.924 86.7137L142.892 88.3124L171.451 88.3125L171.451 129.879L349.52 129.879L349.52 128.281L173.049 128.281L173.049 86.7137L142.924 86.7137Z" fill="#6C80D7"/>
<g filter="url(#filter11_d)">
<circle cx="136.504" cy="87.501" r="6.5" fill="#6B7FD7"/>
</g>
<path fill-rule="evenodd" clip-rule="evenodd" d="M71.5515 128.692L71.5515 130.291L121.248 130.291L121.248 155.871L42.1241 155.871L42.1241 157.47L145.978 157.47L147.576 157.47L396.797 157.47L396.797 155.871L122.813 155.871L122.813 128.692L71.5515 128.692Z" fill="#6C80D7"/>
<path fill-rule="evenodd" clip-rule="evenodd" d="M492.245 376.862L492.245 375.264L442.549 375.264L442.549 349.684L521.673 349.684L521.673 348.085L417.819 348.085L416.221 348.085L237 348.085L237 349.684L440.983 349.684L440.983 376.862L492.245 376.862Z" fill="#6C80D7"/>
<g filter="url(#filter12_d)">
<circle cx="36.5" cy="156.5" r="6.5" fill="#6B7FD7"/>
</g>
<g filter="url(#filter13_d)">
<circle cx="527.5" cy="348.5" r="6.5" transform="rotate(-180 527.5 348.5)" fill="#6B7FD7"/>
</g>
<g filter="url(#filter14_d)">
<circle cx="65.5" cy="129.5" r="6.5" fill="#6B7FD7"/>
</g>
<g filter="url(#filter15_d)">
<circle cx="498.5" cy="375.5" r="6.5" transform="rotate(-180 498.5 375.5)" fill="#6B7FD7"/>
</g>
<defs>
<filter id="filter0_d" x="276" y="0" width="33" height="33" filterUnits="userSpaceOnUse" color-interpolation-filters="sRGB">
<feFlood flood-opacity="0" result="BackgroundImageFix"/>
<feColorMatrix in="SourceAlpha" type="matrix" values="0 0 0 0 0 0 0 0 0 0 0 0 0 0 0 0 0 0 127 0"/>
<feOffset dy="2"/>
<feGaussianBlur stdDeviation="5"/>
<feColorMatrix type="matrix" values="0 0 0 0 0.290278 0 0 0 0 0.383995 0 0 0 0 0.791667 0 0 0 1 0"/>
<feBlend mode="normal" in2="BackgroundImageFix" result="effect1_dropShadow"/>
<feBlend mode="normal" in="SourceGraphic" in2="effect1_dropShadow" result="shape"/>
</filter>
<filter id="filter1_d" x="491" y="138" width="33" height="33" filterUnits="userSpaceOnUse" color-interpolation-filters="sRGB">
<feFlood flood-opacity="0" result="BackgroundImageFix"/>
<feColorMatrix in="SourceAlpha" type="matrix" values="0 0 0 0 0 0 0 0 0 0 0 0 0 0 0 0 0 0 127 0"/>
<feOffset dy="2"/>
<feGaussianBlur stdDeviation="5"/>
<feColorMatrix type="matrix" values="0 0 0 0 0.290278 0 0 0 0 0.383995 0 0 0 0 0.791667 0 0 0 1 0"/>
<feBlend mode="normal" in2="BackgroundImageFix" result="effect1_dropShadow"/>
<feBlend mode="normal" in="SourceGraphic" in2="effect1_dropShadow" result="shape"/>
</filter>
<filter id="filter2_d" x="495" y="270.001" width="33" height="33" filterUnits="userSpaceOnUse" color-interpolation-filters="sRGB">
<feFlood flood-opacity="0" result="BackgroundImageFix"/>
<feColorMatrix in="SourceAlpha" type="matrix" values="0 0 0 0 0 0 0 0 0 0 0 0 0 0 0 0 0 0 127 0"/>
<feOffset dy="2"/>
<feGaussianBlur stdDeviation="5"/>
<feColorMatrix type="matrix" values="0 0 0 0 0.290278 0 0 0 0 0.383995 0 0 0 0 0.791667 0 0 0 1 0"/>
<feBlend mode="normal" in2="BackgroundImageFix" result="effect1_dropShadow"/>
<feBlend mode="normal" in="SourceGraphic" in2="effect1_dropShadow" result="shape"/>
</filter>
<filter id="filter3_d" x="113.996" y="363" width="33" height="33" filterUnits="userSpaceOnUse" color-interpolation-filters="sRGB">
<feFlood flood-opacity="0" result="BackgroundImageFix"/>
<feColorMatrix in="SourceAlpha" type="matrix" values="0 0 0 0 0 0 0 0 0 0 0 0 0 0 0 0 0 0 127 0"/>
<feOffset dy="2"/>
<feGaussianBlur stdDeviation="5"/>
<feColorMatrix type="matrix" values="0 0 0 0 0.290278 0 0 0 0 0.383995 0 0 0 0 0.791667 0 0 0 1 0"/>
<feBlend mode="normal" in2="BackgroundImageFix" result="effect1_dropShadow"/>
<feBlend mode="normal" in="SourceGraphic" in2="effect1_dropShadow" result="shape"/>
</filter>
<filter id="filter4_d" x="453.996" y="108" width="33" height="33" filterUnits="userSpaceOnUse" color-interpolation-filters="sRGB">
<feFlood flood-opacity="0" result="BackgroundImageFix"/>
<feColorMatrix in="SourceAlpha" type="matrix" values="0 0 0 0 0 0 0 0 0 0 0 0 0 0 0 0 0 0 127 0"/>
<feOffset dy="2"/>
<feGaussianBlur stdDeviation="5"/>
<feColorMatrix type="matrix" values="0 0 0 0 0.290278 0 0 0 0 0.383995 0 0 0 0 0.791667 0 0 0 1 0"/>
<feBlend mode="normal" in2="BackgroundImageFix" result="effect1_dropShadow"/>
<feBlend mode="normal" in="SourceGraphic" in2="effect1_dropShadow" result="shape"/>
</filter>
<filter id="filter5_d" x="416.996" y="86" width="33" height="33" filterUnits="userSpaceOnUse" color-interpolation-filters="sRGB">
<feFlood flood-opacity="0" result="BackgroundImageFix"/>
<feColorMatrix in="SourceAlpha" type="matrix" values="0 0 0 0 0 0 0 0 0 0 0 0 0 0 0 0 0 0 127 0"/>
<feOffset dy="2"/>
<feGaussianBlur stdDeviation="5"/>
<feColorMatrix type="matrix" values="0 0 0 0 0.290278 0 0 0 0 0.383995 0 0 0 0 0.791667 0 0 0 1 0"/>
<feBlend mode="normal" in2="BackgroundImageFix" result="effect1_dropShadow"/>
<feBlend mode="normal" in="SourceGraphic" in2="effect1_dropShadow" result="shape"/>
</filter>
<filter id="filter6_d" x="226" y="457" width="33" height="33" filterUnits="userSpaceOnUse" color-interpolation-filters="sRGB">
<feFlood flood-opacity="0" result="BackgroundImageFix"/>
<feColorMatrix in="SourceAlpha" type="matrix" values="0 0 0 0 0 0 0 0 0 0 0 0 0 0 0 0 0 0 127 0"/>
<feOffset dy="2"/>
<feGaussianBlur stdDeviation="5"/>
<feColorMatrix type="matrix" values="0 0 0 0 0.290278 0 0 0 0 0.383995 0 0 0 0 0.791667 0 0 0 1 0"/>
<feBlend mode="normal" in2="BackgroundImageFix" result="effect1_dropShadow"/>
<feBlend mode="normal" in="SourceGraphic" in2="effect1_dropShadow" result="shape"/>
</filter>
<filter id="filter7_d" x="316" y="384" width="33" height="33" filterUnits="userSpaceOnUse" color-interpolation-filters="sRGB">
<feFlood flood-opacity="0" result="BackgroundImageFix"/>
<feColorMatrix in="SourceAlpha" type="matrix" values="0 0 0 0 0 0 0 0 0 0 0 0 0 0 0 0 0 0 127 0"/>
<feOffset dy="2"/>
<feGaussianBlur stdDeviation="5"/>
<feColorMatrix type="matrix" values="0 0 0 0 0.290278 0 0 0 0 0.383995 0 0 0 0 0.791667 0 0 0 1 0"/>
<feBlend mode="normal" in2="BackgroundImageFix" result="effect1_dropShadow"/>
<feBlend mode="normal" in="SourceGraphic" in2="effect1_dropShadow" result="shape"/>
</filter>
<filter id="filter8_d" x="265" y="500" width="33" height="33" filterUnits="userSpaceOnUse" color-interpolation-filters="sRGB">
<feFlood flood-opacity="0" result="BackgroundImageFix"/>
<feColorMatrix in="SourceAlpha" type="matrix" values="0 0 0 0 0 0 0 0 0 0 0 0 0 0 0 0 0 0 127 0"/>
<feOffset dy="2"/>
<feGaussianBlur stdDeviation="5"/>
<feColorMatrix type="matrix" values="0 0 0 0 0.290278 0 0 0 0 0.383995 0 0 0 0 0.791667 0 0 0 1 0"/>
<feBlend mode="normal" in2="BackgroundImageFix" result="effect1_dropShadow"/>
<feBlend mode="normal" in="SourceGraphic" in2="effect1_dropShadow" result="shape"/>
</filter>
<filter id="filter9_d" x="68" y="201.001" width="33" height="33" filterUnits="userSpaceOnUse" color-interpolation-filters="sRGB">
<feFlood flood-opacity="0" result="BackgroundImageFix"/>
<feColorMatrix in="SourceAlpha" type="matrix" values="0 0 0 0 0 0 0 0 0 0 0 0 0 0 0 0 0 0 127 0"/>
<feOffset dy="2"/>
<feGaussianBlur stdDeviation="5"/>
<feColorMatrix type="matrix" values="0 0 0 0 0.290278 0 0 0 0 0.383995 0 0 0 0 0.791667 0 0 0 1 0"/>
<feBlend mode="normal" in2="BackgroundImageFix" result="effect1_dropShadow"/>
<feBlend mode="normal" in="SourceGraphic" in2="effect1_dropShadow" result="shape"/>
</filter>
<filter id="filter10_d" x="0" y="297" width="33" height="33" filterUnits="userSpaceOnUse" color-interpolation-filters="sRGB">
<feFlood flood-opacity="0" result="BackgroundImageFix"/>
<feColorMatrix in="SourceAlpha" type="matrix" values="0 0 0 0 0 0 0 0 0 0 0 0 0 0 0 0 0 0 127 0"/>
<feOffset dy="2"/>
<feGaussianBlur stdDeviation="5"/>
<feColorMatrix type="matrix" values="0 0 0 0 0.290278 0 0 0 0 0.383995 0 0 0 0 0.791667 0 0 0 1 0"/>
<feBlend mode="normal" in2="BackgroundImageFix" result="effect1_dropShadow"/>
<feBlend mode="normal" in="SourceGraphic" in2="effect1_dropShadow" result="shape"/>
</filter>
<filter id="filter11_d" x="120.004" y="73.001" width="33" height="33" filterUnits="userSpaceOnUse" color-interpolation-filters="sRGB">
<feFlood flood-opacity="0" result="BackgroundImageFix"/>
<feColorMatrix in="SourceAlpha" type="matrix" values="0 0 0 0 0 0 0 0 0 0 0 0 0 0 0 0 0 0 127 0"/>
<feOffset dy="2"/>
<feGaussianBlur stdDeviation="5"/>
<feColorMatrix type="matrix" values="0 0 0 0 0.290278 0 0 0 0 0.383995 0 0 0 0 0.791667 0 0 0 1 0"/>
<feBlend mode="normal" in2="BackgroundImageFix" result="effect1_dropShadow"/>
<feBlend mode="normal" in="SourceGraphic" in2="effect1_dropShadow" result="shape"/>
</filter>
<filter id="filter12_d" x="20" y="142" width="33" height="33" filterUnits="userSpaceOnUse" color-interpolation-filters="sRGB">
<feFlood flood-opacity="0" result="BackgroundImageFix"/>
<feColorMatrix in="SourceAlpha" type="matrix" values="0 0 0 0 0 0 0 0 0 0 0 0 0 0 0 0 0 0 127 0"/>
<feOffset dy="2"/>
<feGaussianBlur stdDeviation="5"/>
<feColorMatrix type="matrix" values="0 0 0 0 0.290278 0 0 0 0 0.383995 0 0 0 0 0.791667 0 0 0 1 0"/>
<feBlend mode="normal" in2="BackgroundImageFix" result="effect1_dropShadow"/>
<feBlend mode="normal" in="SourceGraphic" in2="effect1_dropShadow" result="shape"/>
</filter>
<filter id="filter13_d" x="511" y="334" width="33" height="33" filterUnits="userSpaceOnUse" color-interpolation-filters="sRGB">
<feFlood flood-opacity="0" result="BackgroundImageFix"/>
<feColorMatrix in="SourceAlpha" type="matrix" values="0 0 0 0 0 0 0 0 0 0 0 0 0 0 0 0 0 0 127 0"/>
<feOffset dy="2"/>
<feGaussianBlur stdDeviation="5"/>
<feColorMatrix type="matrix" values="0 0 0 0 0.290278 0 0 0 0 0.383995 0 0 0 0 0.791667 0 0 0 1 0"/>
<feBlend mode="normal" in2="BackgroundImageFix" result="effect1_dropShadow"/>
<feBlend mode="normal" in="SourceGraphic" in2="effect1_dropShadow" result="shape"/>
</filter>
<filter id="filter14_d" x="49" y="115" width="33" height="33" filterUnits="userSpaceOnUse" color-interpolation-filters="sRGB">
<feFlood flood-opacity="0" result="BackgroundImageFix"/>
<feColorMatrix in="SourceAlpha" type="matrix" values="0 0 0 0 0 0 0 0 0 0 0 0 0 0 0 0 0 0 127 0"/>
<feOffset dy="2"/>
<feGaussianBlur stdDeviation="5"/>
<feColorMatrix type="matrix" values="0 0 0 0 0.290278 0 0 0 0 0.383995 0 0 0 0 0.791667 0 0 0 1 0"/>
<feBlend mode="normal" in2="BackgroundImageFix" result="effect1_dropShadow"/>
<feBlend mode="normal" in="SourceGraphic" in2="effect1_dropShadow" result="shape"/>
</filter>
<filter id="filter15_d" x="482" y="361" width="33" height="33" filterUnits="userSpaceOnUse" color-interpolation-filters="sRGB">
<feFlood flood-opacity="0" result="BackgroundImageFix"/>
<feColorMatrix in="SourceAlpha" type="matrix" values="0 0 0 0 0 0 0 0 0 0 0 0 0 0 0 0 0 0 127 0"/>
<feOffset dy="2"/>
<feGaussianBlur stdDeviation="5"/>
<feColorMatrix type="matrix" values="0 0 0 0 0.290278 0 0 0 0 0.383995 0 0 0 0 0.791667 0 0 0 1 0"/>
<feBlend mode="normal" in2="BackgroundImageFix" result="effect1_dropShadow"/>
<feBlend mode="normal" in="SourceGraphic" in2="effect1_dropShadow" result="shape"/>
</filter>
</defs>
</svg>
