<svg width="225" height="59" viewBox="0 0 225 59" fill="none" xmlns="http://www.w3.org/2000/svg">
<path d="M161.215 40.6893V18.0812H171.488L173.83 21.2012H164.895V26.8351H171.488L173.83 30.0635H164.895V40.6803L161.215 40.6893Z" fill="white"/>
<path d="M96.293 40.6893V18.0812L99.9736 21.2102V40.7255L96.293 40.6893Z" fill="white"/>
<path d="M153.473 29.34C153.486 30.8336 153.194 32.314 152.614 33.6904C152.034 35.0667 151.178 36.3098 150.1 37.3433C149.017 38.4008 147.739 39.239 146.338 39.8121C144.943 40.3807 143.45 40.6696 141.943 40.6621C140.421 40.6658 138.913 40.3741 137.503 39.803C136.106 39.2364 134.834 38.4006 133.759 37.3433C132.689 36.3184 131.837 35.0881 131.254 33.726C130.377 31.6471 130.147 29.3521 130.593 27.1404C131.04 24.9287 132.143 22.903 133.759 21.3278C134.833 20.2722 136.106 19.4393 137.503 18.877C138.915 18.3137 140.423 18.0282 141.943 18.036C143.455 18.0273 144.954 18.313 146.356 18.877C147.751 19.4392 149.022 20.2709 150.096 21.3245C151.17 22.3781 152.026 23.6329 152.614 25.0174C153.183 26.3874 153.475 27.8566 153.473 29.34ZM149.856 29.34C149.868 27.1988 149.037 25.1388 147.541 23.6066C146.818 22.8581 145.952 22.2628 144.994 21.8561C144.036 21.4495 143.006 21.24 141.966 21.24C140.925 21.24 139.895 21.4495 138.937 21.8561C137.979 22.2628 137.113 22.8581 136.39 23.6066C135.656 24.3551 135.076 25.2398 134.681 26.2111C134.289 27.2073 134.089 28.2692 134.094 29.34C134.075 31.4709 134.901 33.5223 136.39 35.0463C137.116 35.7946 137.983 36.391 138.941 36.8007C139.902 37.2066 140.936 37.4127 141.979 37.4066C143.011 37.4119 144.033 37.2056 144.982 36.8007C145.941 36.3889 146.811 35.7928 147.541 35.0463C149.036 33.5246 149.868 31.4732 149.856 29.34V29.34Z" fill="white"/>
<path d="M203.536 29.34C203.533 30.8363 203.225 32.3162 202.632 33.6898C202.05 35.0547 201.194 36.2859 200.118 37.3071C199.037 38.3636 197.763 39.2018 196.365 39.7759C194.969 40.3429 193.476 40.6317 191.97 40.6259C190.445 40.6308 188.934 40.339 187.521 39.7668C186.126 39.2 184.857 38.3642 183.786 37.3071C182.713 36.285 181.86 35.0539 181.281 33.6898C180.136 30.8936 180.136 27.7593 181.281 24.9631C181.855 23.5805 182.708 22.3308 183.786 21.2915C184.86 20.236 186.132 19.4031 187.53 18.8408C190.374 17.7197 193.538 17.7197 196.383 18.8408C197.779 19.401 199.048 20.2341 200.118 21.2915C201.191 22.3351 202.043 23.5838 202.624 24.9633C203.205 26.3428 203.503 27.825 203.5 29.3219L203.536 29.34ZM199.874 29.34C199.879 28.2741 199.676 27.2175 199.277 26.2291C198.883 25.2501 198.299 24.3588 197.559 23.6066C196.847 22.8567 195.988 22.2624 195.036 21.8613C194.072 21.4636 193.04 21.2607 191.998 21.2643C190.956 21.268 189.925 21.4781 188.965 21.8826C188.005 22.2871 187.134 22.8778 186.403 23.6208C185.673 24.3637 185.097 25.2441 184.708 26.211C184.311 27.2061 184.112 28.2688 184.12 29.34C184.111 30.3996 184.311 31.4506 184.708 32.4328C185.499 34.3918 187.029 35.9609 188.968 36.8006C189.928 37.2082 190.962 37.4145 192.006 37.4066C193.038 37.4118 194.06 37.2056 195.008 36.8006C195.965 36.3886 196.832 35.7925 197.559 35.0463C199.054 33.5246 199.886 31.4732 199.874 29.34V29.34Z" fill="white"/>
<path d="M74.6173 30.5609V40.6893H71V18.0812H76.3717C77.5846 18.0527 78.7971 18.1528 79.989 18.3797C80.7905 18.5417 81.5486 18.8715 82.2136 19.3473C82.9516 19.8997 83.5367 20.6311 83.9137 21.4724C84.3182 22.3638 84.522 23.3332 84.5106 24.312C84.5925 25.0771 84.5137 25.8509 84.2792 26.5838C84.0448 27.3167 83.6598 27.9926 83.149 28.5681C82.6382 29.1436 82.0128 29.6061 81.3129 29.9259C80.613 30.2457 79.8541 30.4158 79.0846 30.4252L87.2235 40.7254H82.8828L75.0062 30.5971L74.6173 30.5609ZM74.8615 27.6942H75.5487C77.5925 27.6942 78.9399 27.4681 79.6091 27.0159C79.9663 26.7306 80.2457 26.3597 80.4211 25.9376C80.5966 25.5154 80.6626 25.0558 80.6129 24.6014C80.665 24.108 80.5939 23.6094 80.4061 23.1501C80.2183 22.6909 79.9196 22.2854 79.5368 21.9698C78.8224 21.4544 77.493 21.2011 75.5487 21.2011H74.8615V27.6942Z" fill="white"/>
<path d="M210.113 35.7969L212.908 34.4947C213.123 35.3787 213.642 36.1593 214.373 36.7012C215.173 37.2369 216.123 37.503 217.086 37.4609C217.998 37.498 218.889 37.173 219.563 36.5566C219.871 36.2538 220.11 35.8893 220.266 35.4871C220.422 35.0849 220.491 34.6541 220.468 34.2234C220.468 32.9573 219.416 31.8269 217.312 30.8322L216.633 30.5066C214.865 29.769 213.254 28.7009 211.886 27.3596C211.08 26.3994 210.655 25.1763 210.692 23.9232C210.666 23.1217 210.814 22.3241 211.126 21.5856C211.438 20.847 211.907 20.1851 212.501 19.6457C213.796 18.5161 215.477 17.9298 217.194 18.0089C218.583 17.9558 219.961 18.2676 221.191 18.9132C222.232 19.4941 223.024 20.4369 223.416 21.5629L220.703 22.9736C220.345 22.3752 219.856 21.8652 219.274 21.4815C218.727 21.1585 218.1 20.9955 217.465 21.0113C216.648 20.9667 215.844 21.2314 215.214 21.7528C214.938 21.9996 214.72 22.3043 214.577 22.6452C214.433 22.9861 214.366 23.3546 214.382 23.7242C214.382 25.0264 215.603 26.2292 217.999 27.3415L218.442 27.5495C220.088 28.2021 221.584 29.1837 222.837 30.4343C223.651 31.422 224.075 32.6731 224.031 33.9521C224.075 34.8535 223.926 35.7539 223.594 36.5931C223.262 37.4322 222.754 38.1906 222.105 38.8174C220.666 40.0802 218.789 40.7294 216.878 40.626C215.274 40.694 213.691 40.2506 212.356 39.3599C211.197 38.487 210.399 37.2192 210.113 35.7969V35.7969Z" fill="white"/>
<path d="M118.596 21.2011V40.7164H114.915V21.2011H109.679L107.328 18.0722H123.018L125.36 21.2011H118.596Z" fill="white"/>
<path d="M12.8446 50.4828L10.9023 52.4244C16.1628 56.6789 22.7243 59 29.4908 59C36.2572 59 42.8188 56.6789 48.0792 52.4244L46.1369 50.4828C41.3992 54.2323 35.5335 56.2724 29.4908 56.2724C23.448 56.2724 17.5824 54.2323 12.8446 50.4828Z" fill="url(#paint0_linear)"/>
<path d="M46.1369 8.51462L48.0792 6.57299C42.8181 2.32012 36.2568 0 29.4908 0C22.7248 0 16.1635 2.32012 10.9023 6.57299L12.8446 8.51462C17.5838 4.76819 23.4489 2.73003 29.4908 2.73003C35.5327 2.73003 41.3978 4.76819 46.1369 8.51462V8.51462Z" fill="url(#paint1_linear)"/>
<path d="M47.9228 15.406L45.9805 17.3567C48.5644 20.8781 49.9577 25.1315 49.9577 29.4987C49.9577 33.8659 48.5644 38.1193 45.9805 41.6407L47.9228 43.5914C51.0153 39.5438 52.6907 34.5919 52.6907 29.4987C52.6907 24.4055 51.0153 19.4536 47.9228 15.406V15.406Z" fill="url(#paint2_linear)"/>
<path d="M13.0005 17.3567L11.0491 15.406C7.96377 19.4567 6.29297 24.4074 6.29297 29.4987C6.29297 34.59 7.96377 39.5407 11.0491 43.5914L13.0005 41.6407C10.4152 38.1198 9.02114 33.8662 9.02114 29.4987C9.02114 25.1311 10.4152 20.8775 13.0005 17.3567V17.3567Z" fill="url(#paint3_linear)"/>
<path d="M51.3073 49.3798C51.6994 48.9605 52.0733 48.5229 52.4289 48.0854C56.6808 42.8232 59 36.2631 59 29.4987C59 22.7343 56.6808 16.1742 52.4289 10.912C52.0733 10.4745 51.6994 10.046 51.3073 9.61761C50.9152 9.18918 50.6873 8.95216 50.3955 8.63311C50.1037 8.31407 49.7389 7.99502 49.4106 7.72155L47.4775 9.65408L44.9334 12.1973C44.5048 11.8145 44.0671 11.4498 43.6112 11.1035C39.5656 7.99909 34.6109 6.31103 29.5108 6.2995C24.4108 6.28797 19.4485 7.9536 15.3888 11.0396C14.9329 11.386 14.477 11.7507 14.0666 12.1335L11.5225 9.59027L9.58938 7.65777C9.2611 7.9677 8.93282 8.27763 8.60454 8.56932C8.27627 8.86102 7.96624 9.21652 7.69268 9.5538C7.41912 9.89107 6.9267 10.4107 6.57107 10.8482C2.31921 16.1104 0 22.6705 0 29.4349C0 36.1993 2.31921 42.7593 6.57107 48.0216C6.9267 48.4591 7.30057 48.9331 7.69268 49.316C8.08478 49.6988 8.31275 49.9814 8.60454 50.3005C8.89634 50.6195 9.2611 50.9477 9.58938 51.212L11.5225 49.2795L14.0666 46.7363C14.4881 47.1236 14.9294 47.4887 15.3888 47.8301C19.4383 50.9165 24.3896 52.5882 29.4818 52.5882C34.5739 52.5882 39.5253 50.9165 43.5747 47.8301C44.0341 47.4887 44.4754 47.1236 44.8969 46.7363L47.441 49.2795L49.3742 51.212C49.7024 50.9112 50.0307 50.5922 50.359 50.3005C50.6873 50.0088 51.0064 49.7171 51.3073 49.3798ZM46.8392 44.9131L44.906 42.9442C44.6051 43.2906 44.2951 43.6279 43.9941 43.9469C43.6932 44.2659 43.3376 44.585 43.0002 44.8585C42.6628 45.1319 42.0883 45.5968 41.6598 45.9432C38.1361 48.5236 33.8817 49.9147 29.5137 49.9147C25.1457 49.9147 20.8913 48.5236 17.3676 45.9432C16.9117 45.6059 16.4557 45.2413 16.0363 44.8585C15.6168 44.4756 15.3615 44.2568 15.0332 43.9469C14.7049 43.637 14.404 43.2906 14.1213 42.9442L12.1882 44.8858L9.65319 47.4199C9.26108 46.9915 8.89634 46.5631 8.54071 46.1164C4.79381 41.3768 2.75558 35.5124 2.75558 29.4713C2.75558 23.4303 4.79381 17.5659 8.54071 12.8263C8.89634 12.3796 9.26108 11.9147 9.65319 11.5228L12.1882 14.0569L14.1213 15.9985C14.4223 15.6521 14.7323 15.324 15.0332 14.9958C15.3341 14.6676 15.6898 14.3577 16.0363 14.0842C16.3828 13.8108 16.9482 13.3459 17.3676 13.0086C20.8896 10.4242 25.1446 9.03058 29.5137 9.03058C33.8827 9.03058 38.1378 10.4242 41.6598 13.0086C42.1157 13.3459 42.5716 13.7014 43.0002 14.0842C43.4288 14.4671 43.675 14.695 43.9941 14.9958C44.3133 15.2966 44.6324 15.6521 44.906 15.9985L46.8392 14.0569L49.3742 11.5228C49.7571 11.9512 50.131 12.3796 50.4775 12.8263C54.229 17.5639 56.2702 23.4291 56.2702 29.4713C56.2702 35.5136 54.229 41.3788 50.4775 46.1164C50.131 46.5631 49.7571 47.028 49.3742 47.4199L46.8392 44.9131Z" fill="url(#paint4_linear)"/>
<path d="M29.3938 25.734C30.6431 25.5608 33.169 24.8862 33.169 22.7805C33.169 20.1188 31.3452 19.5081 29.0838 19.5081H22.2812L23.1293 20.5017C23.7079 21.1746 24.0308 22.0299 24.0411 22.9173V33.856C24.0428 34.6823 23.7594 35.484 23.2387 36.1257H26.2023V25.889L26.7494 26.1077L36.7252 42.8531V38.2953L29.3938 25.734ZM28.3269 19.8089C28.712 19.7971 29.0954 19.8651 29.4528 20.0087C29.8103 20.1523 30.1342 20.3684 30.404 20.6432C30.6738 20.9181 30.8838 21.2459 31.0207 21.6059C31.1576 21.9659 31.2184 22.3503 31.1993 22.735C31.1993 24.3758 30.0504 25.5517 27.2874 25.5517C26.9127 25.5679 26.5377 25.528 26.1749 25.4332V22.8899C26.1772 21.9772 25.928 21.0815 25.4546 20.3011L25.1354 19.7724L28.3269 19.8089Z" fill="url(#paint5_linear)"/>
<defs>
<linearGradient id="paint0_linear" x1="10549.1" y1="3200.33" x2="10549.1" y2="3740.83" gradientUnits="userSpaceOnUse">
<stop stop-color="#CA9B4B"/>
<stop offset="0.22" stop-color="#BF9349"/>
<stop offset="0.61" stop-color="#A17F43"/>
<stop offset="1" stop-color="#7D653B"/>
</linearGradient>
<linearGradient id="paint1_linear" x1="10549.1" y1="3148.88" x2="10549.1" y2="3689.21" gradientUnits="userSpaceOnUse">
<stop stop-color="#CA9B4B"/>
<stop offset="0.22" stop-color="#BF9349"/>
<stop offset="0.61" stop-color="#A17F43"/>
<stop offset="1" stop-color="#7D653B"/>
</linearGradient>
<linearGradient id="paint2_linear" x1="2094.13" y1="10438.9" x2="2094.13" y2="12227.6" gradientUnits="userSpaceOnUse">
<stop stop-color="#CA9B4B"/>
<stop offset="0.22" stop-color="#BF9349"/>
<stop offset="0.61" stop-color="#A17F43"/>
<stop offset="1" stop-color="#7D653B"/>
</linearGradient>
<linearGradient id="paint3_linear" x1="1761.66" y1="10438.9" x2="1761.66" y2="12227.6" gradientUnits="userSpaceOnUse">
<stop stop-color="#CA9B4B"/>
<stop offset="0.22" stop-color="#BF9349"/>
<stop offset="0.61" stop-color="#A17F43"/>
<stop offset="1" stop-color="#7D653B"/>
</linearGradient>
<linearGradient id="paint4_linear" x1="16724.1" y1="17124.8" x2="16724.1" y2="20062.3" gradientUnits="userSpaceOnUse">
<stop stop-color="#CA9B4B"/>
<stop offset="0.22" stop-color="#BF9349"/>
<stop offset="0.61" stop-color="#A17F43"/>
<stop offset="1" stop-color="#7D653B"/>
</linearGradient>
<linearGradient id="paint5_linear" x1="4002.47" y1="9452.75" x2="4230.83" y2="9452.75" gradientUnits="userSpaceOnUse">
<stop stop-color="#CA9B4B"/>
<stop offset="0.21" stop-color="#C5984A"/>
<stop offset="0.45" stop-color="#B88E47"/>
<stop offset="0.7" stop-color="#A27F43"/>
<stop offset="0.95" stop-color="#83693C"/>
<stop offset="1" stop-color="#7D653B"/>
</linearGradient>
</defs>
</svg>
