<svg width="138" height="123" viewBox="0 0 138 123" fill="none" xmlns="http://www.w3.org/2000/svg">
<g opacity="0.3">
<path opacity="0.7" d="M89.2991 59.3603L0 111.128V55.702L89.2991 3.95166V59.3603Z" fill="#CFE9FF"/>
<path opacity="0.3" d="M0 51.7504V60.9996L89.2991 9.24914V0L0 51.7504Z" fill="#788EFF"/>
</g>
<g opacity="0.5">
<path opacity="0.7" d="M99.5453 65.3142L10.2461 117.065V61.6386L99.5453 9.88818V65.3142Z" fill="#CFE9FF"/>
<path opacity="0.5" d="M10.2461 57.6869V66.9361L99.5453 15.1857V5.93652L10.2461 57.6869Z" fill="#788EFF"/>
</g>
<path opacity="0.9" d="M109.787 71.2497L20.4883 123V67.5742L109.787 15.8237V71.2497Z" fill="#95ACF4"/>
<path d="M20.5078 63.6398V72.8716L109.79 21.1212V11.8721L20.5078 63.6398Z" fill="#788EFF"/>
<path d="M97.9953 24.4006L94.661 26.3333C94.4375 26.4713 94.2656 26.3333 94.2656 26.178V22.7267C94.278 22.5992 94.3202 22.4764 94.3889 22.3684C94.4577 22.2605 94.5509 22.1704 94.661 22.1056L97.9953 20.1728C98.2187 20.052 98.3906 20.1728 98.3906 20.3454V23.6931C98.3941 23.8358 98.3593 23.9769 98.2898 24.1014C98.2202 24.2259 98.1185 24.3292 97.9953 24.4006Z" fill="#455CBA"/>
<path d="M103.118 21.3446L99.7664 23.2772C99.5602 23.4153 99.3711 23.2772 99.3711 23.1219V19.7743C99.3847 19.6448 99.4274 19.5201 99.4958 19.4095C99.5643 19.299 99.6568 19.2054 99.7664 19.1358L103.118 17.2031C103.324 17.0823 103.513 17.2031 103.513 17.3757V20.7233C103.5 20.8505 103.457 20.9727 103.388 21.0805C103.32 21.1883 103.227 21.2787 103.118 21.3446Z" fill="#455CBA"/>
<path d="M100.027 20.0519V22.0881C100.027 22.2951 100.216 22.3814 100.44 22.2434L102.468 21.07C102.577 21.0041 102.67 20.9137 102.738 20.8059C102.807 20.6981 102.85 20.5759 102.863 20.4487V18.4125C102.863 18.1882 102.674 18.1192 102.468 18.24L100.44 19.4134C100.327 19.481 100.231 19.5738 100.16 19.6845C100.088 19.7952 100.043 19.9209 100.027 20.0519ZM101.97 20.8629L100.921 21.4841C100.698 21.6049 100.526 21.4841 100.526 21.3115V20.2589C100.535 20.1284 100.576 20.0021 100.645 19.8909C100.714 19.7798 100.809 19.687 100.921 19.6205L101.97 19.0165C102.193 18.8785 102.365 19.0165 102.365 19.1718V20.2417C102.368 20.3844 102.334 20.5254 102.264 20.6499C102.194 20.7745 102.093 20.8778 101.97 20.9492V20.8629Z" fill="#FFFFF7"/>
<path d="M108.226 18.3773L104.891 20.3099C104.685 20.448 104.496 20.3099 104.496 20.1546V16.807C104.512 16.6782 104.556 16.5544 104.624 16.4442C104.692 16.3339 104.783 16.2399 104.891 16.1685L108.226 14.2358C108.449 14.115 108.621 14.2358 108.621 14.4084V17.756C108.61 17.884 108.568 18.0073 108.5 18.1155C108.431 18.2237 108.337 18.3136 108.226 18.3773Z" fill="#455CBA"/>
<path d="M105.25 17.1007L106.161 17.4803C106.161 17.4803 106.161 17.5666 106.161 17.6356L105.25 19.1024V19.1887L105.491 19.2922C105.504 19.2998 105.518 19.3038 105.534 19.3038C105.549 19.3038 105.563 19.2998 105.577 19.2922L106.505 17.8427C106.505 17.8427 106.608 17.722 106.659 17.7392L107.57 18.1361C107.57 18.1361 107.57 18.1361 107.656 18.1361L107.914 17.7564C107.914 17.7564 107.914 17.7564 107.914 17.6529L106.986 17.2733C106.986 17.2733 106.986 17.187 106.986 17.118L107.914 15.6685C107.914 15.6685 107.914 15.5822 107.914 15.565L107.656 15.4614H107.57L106.659 16.9282C106.659 16.9282 106.539 17.0317 106.505 17.0144L105.577 16.6175H105.491L105.25 17.0144V17.1007Z" fill="#FFFFF7"/>
<path d="M94.9375 24.9692V25.3143C94.9375 25.3143 94.9375 25.4178 95.0578 25.3143L97.6359 23.8303C97.6718 23.8072 97.7025 23.7768 97.7262 23.7412C97.7498 23.7056 97.7659 23.6654 97.7734 23.6232V23.2781C97.7734 23.2781 97.7733 23.1918 97.6359 23.2781L95.0578 24.7794C95.0239 24.7988 94.9952 24.8263 94.9743 24.8594C94.9533 24.8924 94.9407 24.9301 94.9375 24.9692Z" fill="#FFFFF7"/>
<path d="M31.5938 73.3712L34.1378 71.9044V72.5084L31.5938 73.9924V73.3712ZM28.345 80.0837L24.3914 82.3788V83.069L29.0669 80.3598L30.6828 79.4108V78.8068L28.345 80.17V80.0837ZM31.7829 76.2529V75.649L29.8061 76.7878L28.4997 77.5471V78.1511L29.8061 77.4091L31.7829 76.2529ZM27.5715 78.082L24.3398 79.963V80.5842L27.5715 78.7033V78.082ZM29.2904 75.3211L30.6483 74.5273V73.9234L28.3106 75.2694L24.3914 77.5471V78.1511L29.2904 75.3211ZM25.5087 75.1313L28.7059 73.2849V72.7155L25.5087 74.5273L24.4773 75.1313V75.7353L25.5087 75.1313ZM31.886 71.4386L32.9174 70.8346V70.2306L31.5594 71.0244L29.6342 72.1288V72.7155L31.886 71.4213V71.4386ZM34.2066 76.7189L31.6797 78.1856V78.7895L34.2066 77.3228V76.7189ZM29.2044 88.2458L24.3914 91.024V91.697L29.2044 88.9015V88.2458ZM24.443 93.4226V94.0265L25.4056 93.4743L29.4451 91.1275V90.5236L26.0072 92.508L24.443 93.4226ZM34.155 80.5497L30.7171 82.5686L28.3965 83.9318V84.5358L30.7171 83.1898L34.155 81.1709V80.5497ZM33.6565 88.0732L32.7799 88.5909L30.3733 89.9714V90.5926L32.2986 89.4709L33.6565 88.6772V88.0732ZM27.2792 86.9516L24.3914 88.6772V89.2811L27.2792 87.5556L30.4765 85.7092V85.1052L27.2277 87.0034L27.2792 86.9516ZM31.4047 84.5703V85.1742L33.1236 84.1906V83.5867L31.4047 84.5703ZM30.1327 88.3148L33.1752 86.5892V85.9853L30.1327 87.7109V88.3148ZM24.3914 86.8136L27.4167 85.088V84.484L24.3914 86.2096V86.8136ZM33.1924 94.3716L30.1499 96.0972V96.8737L33.1924 95.1481V94.3716ZM32.6252 100.135L34.3441 99.1515V98.5993L32.6252 99.5656V100.135ZM28.1387 102.724L31.5766 100.739V100.135L28.1387 102.102V102.724ZM33.5706 96.5459L30.5796 98.2715V98.8754L33.5706 97.1498V96.5459ZM24.443 97.633L25.6978 96.9082L29.4451 94.734V94.1301L26.0072 96.1145L24.443 97.029V97.633ZM29.5998 98.8237L25.7322 101.067L24.3742 101.861V102.465L26.2135 101.395L29.6514 99.4448L29.5998 98.8237ZM24.443 100.049L26.6948 98.7546L29.2388 97.2706V96.6667L25.5087 98.8409L24.3742 99.4966L24.443 100.049ZM24.443 104.88L27.2792 103.241V102.637L24.443 104.277V104.88ZM33.6909 91.6797L32.5736 92.3354L32.3329 92.4735L30.4077 93.5951V94.1991L32.3329 93.0774L32.5736 92.9394L33.6909 92.3009V91.6797ZM31.5422 103.362L29.617 104.484V105.088L31.8688 103.776L32.9002 103.189V102.585L31.5422 103.362ZM28.6888 105.088L25.5087 106.917L24.4773 107.521V108.125L25.5087 107.538L28.7059 105.674L28.6888 105.088ZM27.4339 108.228L24.443 109.954V110.558L27.4339 108.832V108.228ZM31.6282 105.795L28.3622 107.693V108.297L31.8001 106.261L34.1034 104.932V104.328L31.5594 105.795H31.6282ZM28.3794 113.112L31.4219 111.386V110.678L28.3794 112.404V113.112ZM24.4258 115.389L27.4511 113.664V113.06L24.4258 114.785V115.389ZM30.5281 108.849L28.5856 109.971V110.575L30.5281 109.453L31.8688 108.677V108.056L30.5281 108.849ZM24.4258 112.991L27.6574 111.11V110.506L24.3914 112.404L24.4258 112.991ZM41.6152 72.3876L39.2603 73.7508V74.3548L41.6152 72.9916V72.3876ZM41.6152 65.1747L40.2057 65.9857V66.6069L41.6152 65.7786V65.1747ZM39.2603 66.5379L38.0398 67.2453V67.8493L39.2603 67.1418V66.5379ZM41.6496 67.556L39.3118 68.9192V69.5231L41.6496 68.1772V67.556ZM38.2117 72.008L37.2147 72.5774V73.1814L38.2117 72.6119V72.008ZM39.1399 72.008L41.7356 70.5067V69.8855L39.1399 71.404V72.008ZM41.684 83.4486L39.4837 84.7256V85.3295L41.684 84.0698V83.4486ZM41.684 81.0156L37.5241 83.4314V84.0353L41.684 81.6368V81.0156ZM38.5211 85.2778L37.3006 85.9853V86.5892L38.5211 85.8817V85.2778ZM38.418 81.1191L41.684 79.2209V78.617L38.418 80.4979V81.1191ZM39.329 78.1856L41.684 76.8051V76.2011L39.329 77.5644V78.1856ZM37.3006 90.2647L38.5211 89.5572V88.9533L37.3006 89.6608V90.2647ZM39.4493 89.0223L41.6496 87.7453V87.1414L39.4493 88.4184V89.0223ZM39.1915 93.992L41.6668 92.5598V91.9558L39.2603 93.4226L39.1915 93.992ZM38.779 91.8178L41.6496 90.0922V89.4882L38.779 91.2138V91.8178ZM37.8507 91.8178L36.6819 92.4907V93.0947L37.8507 92.4217V91.8178ZM41.6668 94.4234L38.2289 96.4078V96.8737L41.6668 94.8893V94.4234ZM38.2289 93.992L37.06 94.665V95.1481L38.2289 94.4751V93.992ZM39.0712 104.535L41.6668 103.034V102.43L39.0712 103.931V104.535ZM37.146 105.657L38.143 105.07V104.466L37.146 105.053V105.657ZM38.0398 100.308L39.2603 99.6001V98.9962L38.0398 99.7037V100.308ZM41.6496 100.032L39.3118 101.377V101.999L41.6496 100.636V100.032ZM41.6496 98.3059V97.702L40.2401 98.5303V99.1342L41.6496 98.3059ZM39.329 106.934L41.684 105.553V104.949L39.329 106.313V106.934ZM53.0806 61.758L55.6246 60.2912V59.6873L53.0806 61.154V61.758ZM49.8318 67.8666L45.8782 70.1444V70.7655L50.5537 68.0564L52.1696 67.1073V66.5033L49.8318 67.8666ZM53.2697 64.0358V63.4318L51.2929 64.5707L49.9865 65.33V65.8131L51.2929 65.0539L53.2697 64.0358ZM49.0583 65.8649L45.7922 67.5387V68.1427L49.0411 66.2618L49.0583 65.8649ZM50.7772 63.0867L52.1351 62.2929V61.6889L49.7974 63.0522L45.8782 65.33V65.8131L50.7772 62.9659V63.0867ZM46.9268 62.9141L50.124 61.0505V60.4466L46.9268 62.3102L45.8954 62.8969V63.5008L46.9268 62.9141ZM53.3041 59.2041L54.3354 58.6174V58.0135L52.9775 58.79L51.0522 59.9116V60.5155L53.3041 59.2041ZM55.6246 64.5017L53.0118 65.8131V66.4171L55.5559 64.9503L55.6246 64.5017ZM50.6741 76.0804L45.861 78.8586V79.4625L50.6741 76.6843V76.0804ZM45.8954 81.2572V81.8611L46.8752 81.2917L50.9147 78.9621V78.3409L47.4768 80.3426L45.8954 81.2572ZM55.6246 68.3842L52.1867 70.4032L49.8662 71.7491V72.3531L52.1867 71.0072L55.6246 68.9882V68.3842ZM53.6306 76.7706L52.754 77.2711L51.843 77.806V78.4099L52.2727 78.1683L53.6306 77.3746V76.7706ZM48.7488 74.7862L45.861 76.5118V77.133L48.7488 75.4074L51.9461 73.561V72.7155L48.7488 74.5791V74.7862ZM52.8743 72.3876V72.9916L54.5933 72.0252V71.4213L52.8743 72.3876ZM51.6023 76.1494L54.6448 74.4238V73.8026L51.6023 75.5282V76.1494ZM45.861 74.6481L48.8864 72.9225V72.3013L45.861 74.0269V74.6481ZM54.0604 82.5341L51.6195 83.9491V84.5703L54.0604 83.1381V82.5341ZM49.5739 90.351L53.0118 88.3838V87.7799L49.5739 89.747V90.351ZM45.861 85.2778L47.133 84.5358L50.8804 82.3788V81.7748L47.4425 83.7592L45.861 84.6738V85.2778ZM51.0178 86.4684L47.1502 88.7117L45.7922 89.5055V90.1094L47.6315 89.0395L51.0694 87.0724L51.0178 86.4684ZM45.861 87.6936L48.1128 86.3822L50.6569 84.9154V84.3114L46.9612 86.5202L45.8438 87.1759L45.861 87.6936ZM45.861 92.5253L48.6973 90.7997V90.1957L45.861 91.835V92.5253ZM54.4557 79.6696L53.9401 79.963L53.6994 80.1183L51.7742 81.2226V81.8439L53.0978 81.0673L53.3556 80.9293L54.4557 80.2736V79.6696ZM52.9087 91.0067L50.9835 92.1284V92.7323L53.2353 91.4209L54.2667 90.8169V90.213L52.9087 91.0067ZM50.0552 92.7323L46.858 94.5787L45.8267 95.1826V95.7866L46.858 95.1826L50.0552 93.3363V92.7323ZM48.8004 95.8729L45.8094 97.5985V98.2024L48.8004 96.4768V95.8729ZM53.0118 93.4226L49.7458 95.3207V95.9247L53.1837 93.8884L55.4871 92.5598V91.9386L53.0118 93.4226ZM49.763 100.722L52.8056 98.9962V98.3923L49.763 100.118V100.722ZM45.8094 103.017L48.8348 101.291V100.687L45.8094 102.413V103.017ZM51.8945 96.4768L49.9693 97.5812V98.2024L51.8945 97.0808L53.2525 96.287V95.6831L51.8945 96.4768ZM45.7922 100.618L49.0411 98.7373V98.1334L45.7922 100.014V100.618ZM63.0848 59.9979L60.7127 61.3783V61.9823L63.0848 60.6019V59.9979ZM63.0848 52.7849L61.6581 53.6132V54.2172L63.0848 53.3888V52.7849ZM60.7299 54.1481L59.5094 54.8556V55.4596L60.7299 54.7348V54.1481ZM63.102 55.1835L60.7814 56.5467V57.1852L63.102 55.8219V55.1835ZM59.6641 59.6183L58.6672 60.2049V60.8089L59.6641 60.2394V59.6183ZM60.5924 59.6183L63.188 58.117V57.513L60.5924 59.0143V59.6183ZM75.0831 48.2121L77.6271 46.7454V47.3493L75.0831 48.816V48.2121ZM71.8343 54.9074L67.7948 57.1852V57.7891L72.4703 55.0799L74.0861 54.1481V53.5442L71.7483 54.8902L71.8343 54.9074ZM75.2722 51.0766V50.4726L73.2954 51.6288L71.989 52.3708V52.992L73.2954 52.2327L75.2722 51.0766ZM71.0607 52.923L67.8119 54.8038V55.4596L71.0607 53.5787V52.923ZM72.7797 50.1448L74.1377 49.351V48.747L71.7827 50.1102L67.8635 52.3708V52.992L72.7797 50.1448ZM68.9293 49.9549L72.1265 48.1085V47.5046L68.9293 49.351L67.8979 49.9549V50.5589L68.9293 49.9549ZM75.3065 46.2622L76.3379 45.6755V45.106L74.9799 45.8998L73.0547 47.0214V47.6254L75.3065 46.314V46.2622ZM77.6271 51.5425L75.0831 53.0092V53.734L77.6271 52.25V51.5425ZM85.1389 47.194L82.7668 48.5572V49.1612L85.1389 47.798V47.194ZM85.1389 39.981L83.7122 40.8093V41.4133L85.1389 40.585V39.981ZM82.784 41.3443L81.5635 42.0518V42.6557L82.784 41.9482V41.3443ZM85.1561 42.3796L82.8183 43.7256V44.3295L85.1561 42.9835V42.3796ZM81.7182 46.8144L80.7212 47.4011V48.005L81.7182 47.4183V46.8144ZM82.6464 46.8144L85.2248 45.3131V44.7091L82.6464 46.2104V46.8144ZM85.1733 58.2723L82.9902 59.5492V60.1532L85.1733 58.8763V58.2723ZM85.1733 55.8392L81.0135 58.2378V58.9108L85.1733 56.4949V55.8392ZM81.9073 55.9255L85.1733 54.0274V53.4234L81.9073 55.3216V55.9255ZM82.8011 52.992L85.1733 51.6288V51.0076L82.8011 52.388V52.992ZM96.5527 36.3401L99.0967 34.856V34.2521L96.5527 35.7188V36.3401ZM93.3039 42.4314L89.3503 44.7264V45.3304L94.0258 42.6212L95.6416 41.6721V41.0682L93.3039 42.4314ZM96.7418 38.6006V37.9966L94.765 39.1355L93.4586 39.8948V40.4987L94.765 39.7567L96.7418 38.6006ZM92.5303 40.4297L89.2816 42.3106V42.9318L92.5303 41.0509V40.4297ZM94.2493 37.6688L95.6073 36.875V36.271L93.2523 37.617L89.2128 39.9293V40.5332L94.129 37.7032L94.2493 37.6688ZM90.3989 37.4789L93.5961 35.6326V35.0286L90.3989 36.875L89.3675 37.4789V38.2037L90.3989 37.5997V37.4789ZM96.7761 33.7862L97.8075 33.1822V32.5782L96.4495 33.3721L94.5243 34.4764V35.0976L96.7761 33.7862ZM99.0967 39.0665L96.5527 40.5332V41.1372L99.0967 39.6704V39.0665ZM94.1462 50.6452L89.3331 53.4406V54.0446L94.1462 51.2491V50.6452ZM89.3675 55.8219V56.4259L90.3301 55.8737L94.3868 53.5269V52.923L90.949 54.9074L89.3675 55.8219ZM99.0967 42.9491L95.6588 44.968L93.3383 46.3312V46.9352L95.6588 45.5892L99.0967 43.5702V42.9491ZM98.5982 50.4726L97.7216 50.9903L95.315 52.3708V52.992L97.2403 51.8704L98.5982 51.0766V50.4726ZM92.2037 49.351L89.3331 51.0766V51.6805L92.2037 49.9549L95.401 48.1085V47.5046L92.2037 49.351ZM96.3293 46.9697V47.5736L98.0482 46.59V45.9861L96.3293 46.9697ZM95.0744 50.7142L98.1169 48.9886V48.3847L95.0744 50.1102V50.7142ZM89.3331 49.213L92.3413 47.4874V46.8834L89.3331 48.609V49.213ZM98.1341 56.771L95.0916 58.4966V59.1005L98.1341 57.375V56.771ZM97.5497 62.5345L99.2686 61.5509V60.9469L97.5497 61.9133V62.5345ZM93.0804 65.1229L96.5183 63.1385V62.5345L93.0804 64.5189V65.1229ZM98.5123 58.9452L95.5213 60.6708V61.2748L98.5123 59.5492V58.9452ZM89.3675 60.0324L90.6395 59.3077L94.2665 57.1852V56.5812L90.8286 58.5656L89.2472 59.4802L89.3675 60.0324ZM94.5243 61.223L90.6739 63.4663L89.2987 64.2601V64.8641L91.1552 63.7942L94.5931 61.8443L94.5243 61.223ZM89.3675 62.4482L91.6193 61.154L94.1634 59.67V59.0661L90.4848 61.1885L89.3675 61.8443V62.4482ZM89.3675 67.2799L92.1866 65.6405V65.0366L89.3675 66.6759V67.2799ZM98.6154 54.0791L97.4981 54.7348L97.2574 54.8729L95.3322 55.9945V56.5985L97.2574 55.4769L97.4981 55.3388L98.6154 54.7003V54.0791ZM96.3293 65.8131L94.404 66.9347V67.5387L96.6559 66.2272L97.6872 65.6405V65.0366L96.3293 65.8131ZM93.4758 67.5387L90.2785 69.3851L89.2472 69.9891V70.593L90.2785 70.0063L93.4758 68.1427V67.5387ZM92.2037 70.6793L89.2128 72.4049V73.0088L92.2037 71.2833V70.6793ZM96.4152 68.2462L93.132 70.1444V70.7483L96.6559 68.7121L98.9592 67.3834V66.7794L96.4152 68.2462ZM93.1664 75.5627L96.1917 73.8371V73.2331L93.1664 74.9587V75.5627ZM89.2128 77.8405L92.221 76.1149V75.5109L89.2128 77.2365V77.8405ZM95.2979 71.3005L93.3727 72.4221V73.0261L95.2979 71.9044L96.6559 71.1279V70.5067L95.2979 71.3005ZM106.488 34.7525L104.116 36.1157V36.7197L106.488 35.3565V34.7525ZM106.488 27.5396L105.061 28.3506V28.9718L106.488 28.1435V27.5396ZM104.133 28.9027L102.913 29.6102V30.2142L104.133 29.5067V28.9027ZM106.505 29.9381L104.168 31.2841V31.888L106.505 30.5421V29.9381ZM103.067 34.3729L102.071 34.9423V35.5463L103.067 34.9768V34.3729ZM103.996 34.3729L106.574 32.8716V32.2504L103.996 33.7689V34.3729ZM106.523 45.8135L104.322 47.0905V47.7117L106.523 46.4347V45.8135ZM106.523 43.3805L102.363 45.7963V46.4002L106.523 44.0016V43.3805ZM103.343 47.6427L102.122 48.3502V48.9541L103.343 48.2466V47.6427ZM103.257 43.484L106.505 41.5858V40.9819L103.257 42.8628V43.484ZM104.15 40.5505L106.523 39.17V38.566L104.15 39.9293V40.5505ZM102.122 52.6296L103.343 51.9221V51.3182L102.122 52.0257V52.6296ZM104.271 51.3872L106.471 50.1102V49.5063L104.271 50.7832V51.3872ZM104.03 56.3569L106.488 54.9247V54.3207L104.03 55.7357V56.3569ZM103.6 54.1827L106.488 52.4571V52.0084L103.6 53.734V54.1827ZM102.672 54.1827L101.52 54.8556V55.4596L102.672 54.7866V54.1827ZM106.505 56.7883L103.067 58.7727V59.3766L106.505 57.3922V56.7883ZM103.067 56.3569L101.881 57.0299V57.6338L103.067 56.9608V56.3569ZM103.91 66.9002L106.488 65.399V64.795L103.91 66.2963V66.9002ZM101.985 68.0219L102.982 67.4352V66.8312L101.985 67.4179V68.0219ZM102.878 62.6725L104.099 61.965V61.3611L102.878 62.0686V62.6725ZM106.471 62.3964L104.133 63.7424V64.3636L106.471 63.0004V62.3964ZM106.471 60.6708V60.0669L105.044 60.8952V61.4991L106.471 60.6708ZM104.133 69.2988L106.505 67.9183V67.3144L104.133 68.6776V69.2988Z" fill="#FFFFF7"/>
<path d="M77.3178 60.8438L77.4553 60.9301L76.1317 60.1536C74.2753 59.1182 71.7484 59.2908 68.9465 60.9128C65.9518 62.856 63.4566 65.4818 61.6644 68.5764C59.8721 71.671 58.8334 75.1469 58.6328 78.7209C58.6328 82.0513 59.8189 84.3635 61.7097 85.4161L62.9646 86.1409C64.8554 87.228 67.3995 87.0554 70.2186 85.4334C73.2133 83.4902 75.7084 80.8644 77.5007 77.7698C79.293 74.6752 80.3317 71.1993 80.5322 67.6253C80.5151 64.2087 79.2946 61.8619 77.3178 60.8438Z" fill="#788EFF"/>
<path d="M81.22 64.6744H81.3575L78.6931 63.1214C77.6443 62.6571 76.4926 62.4765 75.3527 62.5976C74.2128 62.7187 73.1243 63.1373 72.1955 63.8116C69.4903 65.5795 67.2395 67.964 65.6265 70.7708C64.0134 73.5776 63.0837 76.7273 62.9132 79.9632C62.7864 81.132 62.9766 82.3135 63.4637 83.3827C63.9509 84.452 64.7169 85.3692 65.6807 86.0372L68.2763 87.5212C69.328 88.0129 70.4915 88.2131 71.6462 88.1008C72.8009 87.9885 73.9046 87.5679 74.8427 86.8827C77.5479 85.1148 79.7987 82.7303 81.4118 79.9236C83.0248 77.1168 83.9545 73.9671 84.125 70.7313C84.125 67.7115 83.0077 65.589 81.22 64.6744Z" fill="url(#paint0_linear)"/>
<path d="M66.0078 81.4823C66.0078 87.263 70.0473 89.6098 75.0323 86.6591C77.6599 84.9419 79.8468 82.6264 81.4149 79.9008C82.983 77.1752 83.8882 74.1165 84.0567 70.9735C84.0567 65.1928 80.0172 62.846 75.0323 65.7967C72.4046 67.514 70.2178 69.8295 68.6497 72.5551C67.0815 75.2807 66.1764 78.3394 66.0078 81.4823Z" fill="#D3D3D1"/>
<path d="M137.737 110.834C137.286 109.7 136.573 108.689 135.658 107.884C135.884 107.655 136.075 107.393 136.225 107.107C136.538 106.508 136.67 105.83 136.603 105.157C136.54 104.496 136.341 103.856 136.019 103.276C135.691 102.706 135.279 102.188 134.798 101.74C134.329 101.286 133.81 100.887 133.251 100.55C132.701 100.187 132.134 99.9286 131.532 99.6007L130.982 99.2729C131.204 98.8732 131.344 98.4333 131.395 97.9787C131.435 97.471 131.406 96.96 131.309 96.4602C131.264 96.2085 131.201 95.9605 131.12 95.7182C131.042 95.4665 130.938 95.2236 130.81 94.9934C130.683 94.7661 130.533 94.5523 130.363 94.355C130.199 94.1639 130.021 93.9851 129.83 93.82C129.638 93.654 129.437 93.4985 129.229 93.3541L128.61 92.94C127.777 92.4469 126.909 92.0144 126.014 91.6458C125.359 90.8097 124.646 90.0198 123.883 89.2817C123.1 88.5328 122.279 87.8244 121.425 87.1592C120.995 86.8314 120.565 86.5035 120.118 86.1929C119.671 85.8823 119.224 85.5889 118.76 85.3129L118.056 84.916L117.334 84.5191C116.87 84.2775 116.388 84.0705 115.89 83.8461C114.841 82.8798 113.724 81.9997 112.624 81.1024L110.905 79.7392C110.355 79.2733 109.805 78.8247 109.289 78.3242L108.275 77.5132L107.243 76.7195C106.556 76.2018 105.834 75.7014 105.112 75.2182C103.662 74.2588 102.132 73.4274 100.54 72.7333L99.3363 72.2502C98.9237 72.1121 98.5112 71.9568 98.0814 71.8533C97.6517 71.7497 97.2392 71.629 96.8094 71.5254C96.3797 71.4219 95.9499 71.3701 95.503 71.3184C95.0561 71.2666 94.6263 71.2321 94.1966 71.2148C93.7558 71.1888 93.3139 71.1888 92.873 71.2148C92.4261 71.2148 91.9792 71.3011 91.5495 71.3874C91.1197 71.4737 90.7931 71.5599 90.415 71.6462C88.1803 70.283 85.9629 68.9025 83.7282 67.5566C81.4936 66.2106 79.1559 64.7956 76.8525 63.4324C76.7665 63.4324 76.6806 63.5359 76.5946 63.4324C71.8675 60.3608 56.8096 78.2379 60.0928 80.464C60.0616 80.4372 60.022 80.4226 59.981 80.4226C59.9401 80.4226 59.9004 80.4372 59.8693 80.464C59.8414 80.498 59.8261 80.5407 59.8261 80.5848C59.8261 80.6288 59.8414 80.6716 59.8693 80.7056L66.6076 85.1058L73.2255 89.3853L74.9445 96.6155C75.2195 97.8579 75.5289 99.0831 75.8211 100.308L76.268 102.155L76.4915 103.069C76.5605 103.426 76.7204 103.759 76.9556 104.036C77.1963 104.312 77.4369 104.484 77.6604 104.709L78.3651 105.33L79.7747 106.607L82.5937 109.126C82.8445 109.37 83.1516 109.548 83.4876 109.644C83.805 109.711 84.1266 109.758 84.4502 109.782L86.3239 110.006L90.0711 110.472C91.326 110.61 92.5808 110.748 93.8184 110.972C95.0561 111.197 96.2937 111.421 97.5486 111.576C98.1816 111.657 98.8185 111.703 99.4566 111.714C99.7824 111.747 100.111 111.747 100.436 111.714C100.608 111.69 100.775 111.644 100.935 111.576C101.086 111.497 101.229 111.404 101.365 111.3C101.878 110.866 102.199 110.246 102.258 109.575C102.271 109.186 102.231 108.797 102.138 108.419C102.791 108.798 103.445 109.178 104.132 109.523C105.387 110.161 106.659 110.748 107.948 111.248C110.504 112.399 113.105 113.446 115.752 114.389C117.076 114.855 118.417 115.286 119.757 115.666C121.114 116.078 122.507 116.361 123.917 116.512C124.272 116.537 124.628 116.537 124.983 116.512C125.169 116.501 125.353 116.472 125.533 116.425C125.709 116.375 125.882 116.312 126.049 116.235C126.39 116.098 126.714 115.918 127.011 115.701C127.322 115.483 127.576 115.193 127.75 114.855C127.874 114.601 127.95 114.326 127.974 114.044C129.172 114.56 130.415 114.964 131.687 115.252C132.439 115.402 133.206 115.466 133.973 115.442C134.758 115.409 135.523 115.19 136.208 114.803C136.919 114.425 137.482 113.817 137.806 113.078C138.033 112.343 138.009 111.554 137.737 110.834Z" fill="#FFD2B1"/>
<path d="M131.12 96.4419C130.954 95.7171 130.626 95.0396 130.162 94.4599C129.697 93.8802 129.108 93.4133 128.439 93.0943C127.854 92.8009 127.115 92.4041 125.895 91.8691C124.814 90.6574 123.629 89.5431 122.354 88.5388C120.504 86.6737 118.346 85.1441 115.977 84.0177C113.532 82.4369 111.276 80.5782 109.255 78.4786C108.31 77.7538 99.0794 69.4882 90.4674 72.0421L76.8878 63.604L60.6094 80.6528L87.3905 96.7008L98.4949 92.6111L104.58 89.971C105.406 90.2301 106.21 90.5532 106.986 90.9373C108.052 91.4722 109.049 92.128 110.063 92.6629C112.728 94.2332 127.579 100.997 129.711 100.221C130.372 99.8794 130.882 99.3032 131.142 98.6046C131.403 97.906 131.395 97.1351 131.12 96.4419Z" fill="#FFD2B1"/>
<path d="M108.704 98.1686C109.941 98.7898 116.989 102.707 118.192 103.345C121.304 105.174 132.683 109.765 134.883 108.281C135.596 107.827 136.118 107.126 136.349 106.312C136.581 105.497 136.505 104.626 136.138 103.863C135.468 102.258 131.909 99.9805 130.362 99.1867C128.815 98.3929 127.148 97.858 125.584 97.0987C121.149 94.9072 112.038 87.6943 108.068 84.7435C106.95 83.9152 105.781 83.1732 104.63 82.3967C103.304 81.3944 101.881 80.5273 100.384 79.8083C98.8582 79.0946 97.1193 78.9898 95.5194 79.515C94.737 79.8082 94.0707 80.3488 93.6211 81.0554C93.1715 81.762 92.963 82.5961 93.0269 83.432C93.1649 84.0831 93.4088 84.707 93.7489 85.2784C95.1584 87.9876 96.4305 91.8874 98.9057 93.9064C101.381 95.9253 105.644 96.5983 108.704 98.1686Z" fill="#FFD2B1"/>
<g style="mix-blend-mode:multiply" opacity="0.4">
<path d="M120.342 99.1685C119.197 98.4779 118.141 97.6492 117.197 96.7009C114.805 94.7273 112.135 93.1222 109.272 91.9383C107.847 90.9701 106.486 89.9094 105.198 88.7632L103.634 89.6777C103.654 89.8218 103.616 89.9678 103.529 90.0841C103.442 90.2004 103.313 90.2776 103.17 90.299C102.931 90.3382 102.695 90.3959 102.465 90.4715H102.328C102.259 90.5336 102.176 90.5772 102.085 90.5983C101.995 90.6194 101.901 90.6174 101.812 90.5923C101.072 90.8642 100.39 91.274 99.801 91.8002C99.2849 92.2933 98.7071 92.7168 98.082 93.0599C98.34 93.3419 98.6156 93.607 98.9071 93.8537C101.606 96.0452 107.743 97.6155 110.819 99.1857C112.04 99.807 119.105 103.724 120.291 104.362C123.402 106.192 132.684 109.66 134.885 108.176C135.418 107.853 135.85 107.385 136.13 106.826C136.41 106.268 136.526 105.641 136.466 105.018C134.747 108.59 129.848 107.313 126.995 104.362C125.008 102.352 122.773 100.606 120.342 99.1685Z" fill="#FFCCB5"/>
</g>
<path d="M110.855 105.985C112.161 106.641 120 109.609 121.272 110.351C124.572 112.283 132.479 117.098 136.278 114.699C136.641 114.543 136.966 114.308 137.229 114.012C137.492 113.716 137.687 113.365 137.8 112.985C137.913 112.604 137.942 112.204 137.884 111.811C137.826 111.419 137.683 111.044 137.464 110.713C136.641 109.026 135.254 107.683 133.545 106.917C131.826 106.054 130.107 105.502 128.388 104.691C125.793 103.397 121.959 99.6347 116.751 97.3397C113.399 94.5615 110.116 92.6116 108.156 91.1966C106.97 90.3165 105.561 88.9706 104.323 88.1423C102.912 87.0726 101.397 86.1477 99.8021 85.3814C98.1888 84.6088 96.3391 84.4975 94.6453 85.0708C93.8115 85.3775 93.1009 85.9504 92.6227 86.7017C92.1445 87.4529 91.9251 88.3409 91.9981 89.2294C92.1396 89.9282 92.3952 90.5987 92.7545 91.2139C94.2671 94.0956 95.6079 98.2543 98.2207 100.377C100.833 102.499 107.589 104.311 110.855 105.985Z" fill="#FFD2B1"/>
<g style="mix-blend-mode:multiply" opacity="0.4">
<path d="M131.015 113.405C127.887 112.37 126.322 110.265 123.314 107.556C119.385 106.356 115.75 104.346 112.64 101.654C108.738 98.203 103.306 97.2367 99.5069 94.2514C99.5069 94.2514 95.0892 92.0426 93.5938 92.6983C94.8314 95.3902 96.1378 98.5999 98.3208 100.377C101.191 102.707 107.586 104.312 110.852 105.985C112.158 106.641 119.997 109.609 121.269 110.351C124.569 112.284 132.476 117.098 136.275 114.7C136.64 114.516 136.965 114.262 137.231 113.951C137.497 113.639 137.698 113.278 137.822 112.888C136.809 113.509 135.664 113.88 134.481 113.97C133.297 114.06 132.11 113.866 131.015 113.405Z" fill="#FFCCB5"/>
</g>
<path d="M99.4232 106.469C100.712 107.107 101.898 107.901 103.136 108.626C106.368 110.507 122.045 117.668 125.878 116.27C128.301 115.373 128.25 113.923 127.597 112.249C126.783 110.621 125.435 109.323 123.781 108.574C122.182 107.728 121.219 108.125 119.604 107.331C118.572 106.831 117.455 105.451 115.856 104.398C113.931 103.121 111.421 102.224 109.256 100.947C105.56 98.1858 103.188 97.0987 100.661 94.3033C98.977 92.8154 97.1905 91.4488 95.3149 90.2136C93.9375 89.1724 92.4572 88.2761 90.8972 87.5389C89.3254 86.7912 87.5255 86.686 85.8779 87.2456C85.0648 87.5392 84.3712 88.0942 83.9049 88.8245C83.4386 89.5547 83.2257 90.4192 83.2995 91.2835C83.4429 91.9628 83.6923 92.615 84.0386 93.2161C85.4997 96.0116 86.8233 100.119 89.3502 102.12C91.877 104.122 96.2087 104.847 99.4232 106.469Z" fill="#FFD2B1"/>
<g style="mix-blend-mode:multiply" opacity="0.4">
<path d="M94.5743 104.674C96.2143 105.126 97.8176 105.703 99.3702 106.4C100.659 107.038 101.845 107.832 103.083 108.557C106.315 110.438 121.991 117.599 125.825 116.201C127.544 115.58 127.991 114.683 127.905 113.63C127.574 113.792 127.236 113.936 126.891 114.062C125.973 114.528 124.934 114.697 123.917 114.545C123.573 114.571 123.229 114.571 122.885 114.545C122.237 114.503 121.596 114.381 120.977 114.182C119.438 113.548 118.097 112.511 117.093 111.18C116.976 111.063 116.836 110.972 116.682 110.913C116.528 110.853 116.363 110.827 116.199 110.835C114.182 110.945 112.169 110.567 110.329 109.732C108.489 108.897 106.876 107.63 105.627 106.038C101.003 105.382 98.442 103.294 96.5339 102.88C94.1962 102.362 93.182 101.482 90.7927 101.43C90.669 101.396 90.5382 101.396 90.4145 101.43C89.2628 101.965 90.8099 102.966 91.2224 103.156C92.2799 103.786 93.4042 104.295 94.5743 104.674Z" fill="#FFCCB5"/>
</g>
<path d="M60.1289 80.6713L73.657 89.2992C73.657 89.2992 75.7884 98.3931 76.9058 103.19C77 103.569 77.2033 103.911 77.4902 104.174L82.9393 109.126C83.2284 109.385 83.5871 109.553 83.9706 109.609C85.8443 109.868 89.6088 110.351 91.4996 110.558C94.2328 110.852 99.4927 112.129 100.988 111.421C102.484 110.714 103.034 107.59 99.063 104.415C96.1613 102.231 92.6658 100.985 89.0415 100.843C88.7001 97.8189 88.0374 94.8397 87.0647 91.9566C87.6721 89.516 87.8811 86.9927 87.6836 84.4849L65.6639 75.1494L60.1289 80.6713Z" fill="#FFD2B1"/>
<path opacity="0.8" d="M137.739 110.834C137.287 109.7 136.574 108.689 135.659 107.883C135.886 107.655 136.077 107.393 136.226 107.107C136.54 106.508 136.671 105.83 136.604 105.157C136.541 104.496 136.342 103.856 136.02 103.276C135.692 102.706 135.28 102.188 134.799 101.74C134.33 101.286 133.811 100.886 133.252 100.55C132.702 100.187 132.135 99.9284 131.533 99.6006L130.983 99.2728C131.205 98.8731 131.345 98.4331 131.396 97.9786C131.436 97.4708 131.408 96.9599 131.31 96.46C131.265 96.2084 131.202 95.9603 131.121 95.718C131.043 95.4663 130.939 95.2235 130.811 94.9933C130.684 94.766 130.534 94.5521 130.365 94.3548C130.2 94.1637 130.022 93.9849 129.832 93.8199C129.64 93.6539 129.439 93.4983 129.23 93.3539L128.611 92.9398C127.778 92.4467 126.91 92.0142 126.016 91.6456C125.36 90.8095 124.648 90.0196 123.884 89.2816C123.101 88.5327 122.281 87.8242 121.426 87.1591C120.996 86.8312 120.567 86.5034 120.12 86.1928C119.673 85.8821 119.226 85.5888 118.762 85.3127L118.057 84.9158L117.335 84.5189C116.871 84.2773 116.389 84.0703 115.891 83.846C114.842 82.8796 113.725 81.9995 112.625 81.1022L110.906 79.7391C110.356 79.2732 109.806 78.8245 109.29 78.3241L108.276 77.513L107.245 76.7193C106.557 76.2016 105.835 75.7012 105.113 75.218C103.663 74.2587 102.134 73.4273 100.541 72.7332L99.3376 72.25C98.925 72.112 98.5125 71.9566 98.0827 71.8531C97.653 71.7496 97.2405 71.6288 96.8107 71.5252C96.381 71.4217 95.9512 71.3699 95.5043 71.3182C95.0574 71.2664 94.6276 71.2319 94.1979 71.2146C93.7571 71.1887 93.3151 71.1887 92.8743 71.2146C92.4274 71.2146 91.9805 71.3009 91.5508 71.3872C91.121 71.4735 90.7944 71.5598 90.4162 71.646C88.1816 70.2828 85.9642 68.9024 83.7295 67.5564C81.4949 66.2104 79.1571 64.7954 76.8537 63.4322C76.834 63.4103 76.8095 63.3933 76.7821 63.3826C76.7547 63.3718 76.7251 63.3677 76.6958 63.3705C76.6666 63.3732 76.6383 63.3827 76.6134 63.3984C76.5884 63.414 76.5674 63.4352 76.5521 63.4604C76.5367 63.4856 76.5275 63.5141 76.525 63.5435C76.5225 63.573 76.527 63.6025 76.5379 63.63C76.5488 63.6574 76.566 63.6819 76.588 63.7015C76.61 63.7211 76.6363 63.7352 76.6647 63.7428C78.8993 65.1923 81.1339 66.6418 83.4029 68.0568C85.6719 69.4718 87.9065 70.9041 90.1584 72.3018C90.2411 72.3354 90.3336 72.3354 90.4162 72.3018C90.8234 72.187 91.2366 72.0948 91.6539 72.0257C92.0629 71.9485 92.4762 71.8966 92.8915 71.8704C93.3213 71.8704 93.7338 71.8704 94.1635 71.8704C94.5933 71.8704 94.9886 71.8704 95.4184 71.9566L96.656 72.1465L97.8936 72.4398C98.3062 72.5433 98.7016 72.6814 99.1141 72.8022L100.3 73.2336C101.882 73.878 103.406 74.6574 104.855 75.5631C105.577 76.0118 106.299 76.4949 106.987 77.0126L108.018 77.7891L109.015 78.5829C109.548 79.0833 110.098 79.5492 110.631 79.9979L112.35 81.3783C113.45 82.2929 114.55 83.2075 115.582 84.1911C116.132 84.4672 116.613 84.6915 117.077 84.9503C117.541 85.2092 117.541 85.2092 117.765 85.3472C118.003 85.4686 118.233 85.607 118.452 85.7614C118.899 86.0375 119.346 86.3308 119.776 86.6414C120.206 86.952 120.635 87.2626 121.048 87.5905C121.896 88.2462 122.704 88.9365 123.472 89.6612C124.163 90.3206 124.812 91.0238 125.414 91.7664C125.105 91.8791 124.806 92.0176 124.52 92.1806C124.246 92.3392 123.992 92.5303 123.764 92.75L123.557 92.9916V93.0778C123.547 93.0876 123.538 93.0995 123.532 93.1129C123.526 93.1263 123.523 93.1408 123.523 93.1555C123.523 93.1702 123.526 93.1847 123.532 93.1981C123.538 93.2115 123.547 93.2235 123.557 93.2332C123.565 93.2439 123.576 93.2526 123.588 93.2586C123.6 93.2646 123.613 93.2677 123.626 93.2677C123.64 93.2677 123.653 93.2646 123.665 93.2586C123.677 93.2526 123.687 93.2439 123.695 93.2332H123.781C123.841 93.1555 123.91 93.0859 123.987 93.0261C124.204 92.8318 124.447 92.6691 124.709 92.5429C124.977 92.4205 125.252 92.3167 125.534 92.2323H125.741C126.649 92.5881 127.529 93.015 128.371 93.5092C128.577 93.63 128.783 93.7508 128.972 93.8889C129.163 94.023 129.346 94.167 129.522 94.3203C129.697 94.4724 129.863 94.6337 130.021 94.8034C130.162 94.9863 130.294 95.1764 130.416 95.3729C130.528 95.5704 130.62 95.7784 130.691 95.9941C130.691 96.2012 130.829 96.4428 130.88 96.6671C130.974 97.1266 131.009 97.5964 130.983 98.0648C130.954 98.4575 130.843 98.8396 130.657 99.1864C129.883 98.7205 129.092 98.2546 128.267 97.8578C128.022 97.5539 127.758 97.2658 127.477 96.995C127.184 96.7189 126.875 96.4428 126.548 96.1839C125.915 95.6831 125.255 95.2165 124.572 94.7862C123.242 93.9447 121.817 93.2669 120.326 92.7672C120.311 92.7309 120.284 92.7009 120.249 92.6821C120.215 92.6633 120.175 92.6568 120.137 92.6637C119.192 91.7407 118.168 90.9034 117.077 90.1616C115.977 89.3678 114.842 88.6259 113.639 87.8839C114.722 88.7121 115.822 89.4886 116.905 90.2997C117.908 91.0347 118.856 91.8421 119.741 92.7155L119.501 92.8018C119.151 92.9695 118.812 93.1597 118.487 93.3712C117.799 93.8544 117.18 94.3893 117.18 94.3893C117.169 94.399 117.16 94.411 117.154 94.4244C117.148 94.4378 117.145 94.4523 117.145 94.467C117.145 94.4817 117.148 94.4962 117.154 94.5096C117.16 94.523 117.169 94.5349 117.18 94.5446C117.199 94.5616 117.224 94.571 117.249 94.571C117.274 94.571 117.299 94.5616 117.318 94.5446C117.747 94.2093 118.195 93.8982 118.658 93.6128C118.978 93.4267 119.311 93.2652 119.655 93.1296C119.764 93.114 119.874 93.114 119.982 93.1296C121.517 93.5881 122.972 94.2807 124.297 95.1831C124.963 95.6256 125.606 96.1037 126.222 96.6153C126.514 96.8742 126.823 97.133 127.099 97.4091C127.374 97.6852 127.459 97.806 127.631 98.0131H127.494C127.115 98.1582 126.761 98.362 126.445 98.617C126.135 98.8677 125.853 99.1512 125.603 99.4625L125.259 99.8767C125.252 99.8972 125.251 99.9195 125.257 99.9405C125.263 99.9614 125.276 99.9799 125.293 99.9933C125.31 100.007 125.331 100.014 125.353 100.015C125.375 100.016 125.396 100.01 125.414 99.9975L125.775 99.6178C126.032 99.3399 126.314 99.0858 126.617 98.8586C126.914 98.638 127.245 98.4688 127.597 98.3581H127.906C129.075 98.9448 130.158 99.6179 131.344 100.239C131.912 100.55 132.496 100.826 133.063 101.136C133.602 101.447 134.109 101.811 134.576 102.223C135.51 103.04 136.12 104.167 136.295 105.399C136.333 105.998 136.202 106.596 135.917 107.124C135.774 107.379 135.594 107.612 135.384 107.814L134.92 107.435C133.719 106.5 132.416 105.707 131.035 105.071C129.659 104.461 128.225 103.992 126.755 103.673C125.318 102.388 123.77 101.233 122.131 100.222C120.492 99.211 118.766 98.3505 116.974 97.6507C116.971 97.6088 116.954 97.5691 116.926 97.5379C116.898 97.5067 116.86 97.4856 116.819 97.4781C116.269 96.9604 115.736 96.4945 115.186 96.0459C114.636 95.5972 113.931 95.1141 113.278 94.6654C111.989 93.7854 110.665 92.9398 109.307 92.1633C110.614 93.0433 111.92 93.8889 113.192 94.8034C113.834 95.2521 114.453 95.718 115.049 96.2012C115.53 96.6153 115.994 97.0295 116.424 97.4781H116.097C115.6 97.5992 115.128 97.8097 114.705 98.0993C114.299 98.3929 113.919 98.722 113.57 99.0829L113.244 99.4453L113.123 99.5833C113.113 99.5914 113.104 99.6018 113.098 99.6138C113.092 99.6258 113.089 99.6389 113.089 99.6523C113.089 99.6657 113.092 99.679 113.098 99.6909C113.104 99.7029 113.113 99.7133 113.123 99.7214H113.261L113.399 99.5833C113.484 99.5833 113.588 99.3763 113.725 99.2382C114.073 98.9079 114.453 98.6131 114.86 98.3581C115.253 98.1018 115.69 97.9205 116.149 97.8232H116.596H116.75C118.553 98.5358 120.28 99.4259 121.907 100.481C123.399 101.448 124.808 102.539 126.119 103.742C125.677 103.846 125.262 104.039 124.898 104.311C124.556 104.548 124.244 104.826 123.97 105.14L123.609 105.554C123.598 105.564 123.589 105.576 123.583 105.589C123.577 105.602 123.574 105.617 123.574 105.632C123.574 105.646 123.577 105.661 123.583 105.674C123.589 105.688 123.598 105.699 123.609 105.709C123.617 105.72 123.627 105.729 123.639 105.735C123.651 105.741 123.664 105.744 123.678 105.744C123.691 105.744 123.704 105.741 123.716 105.735C123.728 105.729 123.739 105.72 123.747 105.709L124.125 105.312C124.411 105.037 124.722 104.789 125.053 104.57C125.371 104.355 125.727 104.203 126.101 104.122C126.216 104.106 126.331 104.106 126.445 104.122C127.926 104.48 129.371 104.977 130.76 105.606C132.12 106.216 133.406 106.98 134.593 107.883C135.799 108.727 136.746 109.893 137.326 111.248C137.647 111.883 137.72 112.615 137.533 113.302C137.241 113.959 136.739 114.5 136.106 114.838C135.477 115.2 134.768 115.402 134.043 115.424C133.311 115.453 132.578 115.395 131.86 115.252C130.558 114.976 129.29 114.56 128.078 114.009C128.049 113.661 127.974 113.319 127.855 112.991C127.764 112.634 127.612 112.296 127.408 111.99C127.212 111.678 126.981 111.388 126.72 111.128C125.708 110.132 124.548 109.3 123.282 108.66C122.02 108.082 120.708 107.62 119.363 107.279C119.218 107.104 119.063 106.937 118.899 106.779C118.729 106.588 118.545 106.409 118.349 106.244C117.971 105.899 117.576 105.571 117.18 105.26C116.372 104.657 115.461 104.104 114.653 103.535C112.933 102.506 111.127 101.628 109.256 100.912C108.153 100.03 107.006 99.2065 105.818 98.4445C104.615 97.6507 103.411 96.9087 102.174 96.1839C103.326 97.0295 104.512 97.8232 105.612 98.6515C106.712 99.4798 107.674 100.17 108.637 100.998H108.465C108.014 101.151 107.595 101.385 107.228 101.689C107.039 101.849 106.866 102.029 106.712 102.223L106.506 102.5L106.351 102.758C106.276 102.891 106.213 103.029 106.162 103.173V103.328C106.151 103.336 106.142 103.346 106.136 103.358C106.13 103.37 106.127 103.383 106.127 103.397C106.127 103.41 106.13 103.424 106.136 103.435C106.142 103.447 106.151 103.458 106.162 103.466C106.181 103.483 106.205 103.492 106.231 103.492C106.256 103.492 106.28 103.483 106.299 103.466L106.385 103.311C106.441 103.177 106.51 103.05 106.592 102.931L106.746 102.689L106.952 102.431C107.102 102.258 107.269 102.102 107.451 101.965C107.798 101.707 108.188 101.514 108.603 101.395L109.05 101.309C109.995 101.689 110.889 102.085 111.783 102.534C112.677 102.983 113.502 103.449 114.395 103.966C115.252 104.495 116.078 105.071 116.871 105.692C117.266 106.003 117.644 106.296 118.005 106.641C118.366 106.986 118.366 106.969 118.538 107.141L118.762 107.4H118.607C118.189 107.515 117.801 107.721 117.472 108.004C117.3 108.146 117.139 108.302 116.991 108.47C116.854 108.643 116.733 108.798 116.63 108.953L116.424 109.316V109.454C116.407 109.473 116.398 109.497 116.398 109.523C116.398 109.548 116.407 109.573 116.424 109.592C116.424 109.592 116.544 109.592 116.561 109.592L116.647 109.454C116.712 109.338 116.787 109.228 116.871 109.126C116.969 108.97 117.085 108.825 117.215 108.694C117.363 108.538 117.524 108.393 117.696 108.263C118.009 108.032 118.366 107.867 118.744 107.78H119.088C119.088 107.78 119.088 107.78 119.191 107.78C120.531 108.116 121.842 108.56 123.111 109.109C124.371 109.707 125.531 110.499 126.548 111.455C127.052 111.924 127.42 112.52 127.614 113.181C127.863 113.789 127.863 114.471 127.614 115.079C127.277 115.643 126.754 116.07 126.136 116.287C125.512 116.551 124.831 116.646 124.159 116.563C122.779 116.441 121.414 116.181 120.085 115.787C118.744 115.407 117.421 114.941 116.114 114.458C113.484 113.492 110.958 112.404 108.362 111.248C107.09 110.662 105.835 110.058 104.598 109.419C103.738 108.988 102.879 108.487 102.088 107.97C101.517 106.807 100.708 105.779 99.7157 104.95C98.7135 104.155 97.6436 103.451 96.5185 102.845C94.2232 101.824 91.7904 101.15 89.2989 100.843C89.127 99.4625 88.8864 98.0648 88.5942 96.7016C88.4223 95.9596 88.2332 95.2176 88.0441 94.4756C87.855 93.7336 87.6659 93.1642 87.4425 92.5257C87.4499 92.4916 87.4499 92.4563 87.4425 92.4222V92.2841C87.8907 91.6636 88.3039 91.0184 88.6801 90.3514C88.8897 89.9824 89.079 89.6022 89.2473 89.2125C89.3379 89.0214 89.4182 88.8256 89.488 88.6258C89.5772 88.4262 89.6463 88.2181 89.6943 88.0046C89.7023 87.9855 89.706 87.9648 89.705 87.944C89.7039 87.9232 89.6983 87.903 89.6883 87.8847C89.6784 87.8665 89.6646 87.8507 89.6477 87.8386C89.6309 87.8265 89.6115 87.8184 89.5911 87.8148C89.5709 87.8068 89.5492 87.8031 89.5274 87.804C89.5057 87.805 89.4844 87.8105 89.4649 87.8203C89.4454 87.8301 89.4283 87.8438 89.4145 87.8607C89.4007 87.8776 89.3906 87.8973 89.3849 87.9183C89.3849 88.1082 89.2474 88.3152 89.1786 88.505L88.9208 89.0745C88.7489 89.4369 88.5426 89.7992 88.3363 90.1616C87.954 90.812 87.5351 91.44 87.0815 92.0425L86.6173 91.9562L85.3453 91.8009C84.4343 91.6974 83.5061 91.6456 83.5061 91.6456C83.4814 91.6453 83.4575 91.6538 83.4386 91.6696C83.4197 91.6854 83.407 91.7075 83.4029 91.7319C83.4005 91.7455 83.4007 91.7595 83.4038 91.773C83.4068 91.7865 83.4125 91.7992 83.4205 91.8105C83.4285 91.8218 83.4387 91.8313 83.4504 91.8386C83.4622 91.8458 83.4753 91.8506 83.4889 91.8527C83.4889 91.8527 84.3999 92.008 85.2938 92.215C85.7407 92.3013 86.1705 92.4221 86.4971 92.5084L86.9784 92.6464C87.2018 93.2849 87.3909 93.9406 87.5799 94.5964C87.769 95.2521 87.941 96.0631 88.1129 96.8051C88.3812 98.1506 88.4851 99.524 88.4223 100.895C87.8977 101.005 87.3852 101.167 86.8924 101.378C86.4059 101.579 85.9348 101.815 85.4829 102.085L84.8812 102.465C84.8648 102.481 84.8542 102.503 84.8513 102.526C84.8484 102.549 84.8533 102.572 84.8652 102.592C84.8771 102.612 84.8953 102.627 84.9169 102.636C84.9385 102.644 84.9623 102.645 84.9844 102.638L85.6204 102.327C86.0744 102.1 86.5458 101.91 87.0299 101.758C87.5067 101.61 87.9957 101.506 88.491 101.447C88.6856 101.434 88.8809 101.434 89.0755 101.447C91.5594 101.591 93.9927 102.212 96.2434 103.276C97.3641 103.809 98.4101 104.488 99.3547 105.295C100.318 106.059 101.104 107.025 101.658 108.125C101.909 108.665 102.033 109.255 102.019 109.851C102.012 110.138 101.944 110.421 101.82 110.68C101.695 110.938 101.517 111.168 101.297 111.352C100.799 111.708 100.185 111.862 99.5782 111.783C98.9519 111.777 98.3265 111.737 97.7046 111.662C96.4669 111.524 95.2293 111.3 93.9916 111.11L92.118 110.817L90.2443 110.558L86.4971 110.058L84.6234 109.816C84.3312 109.816 83.9874 109.816 83.7295 109.678C83.4632 109.594 83.2213 109.446 83.0247 109.247L80.2401 106.693L78.8477 105.416L78.143 104.777C77.9195 104.553 77.6445 104.329 77.4897 104.139C77.32 103.928 77.2022 103.68 77.146 103.414L76.9397 102.482L76.51 100.636C76.235 99.4108 75.9599 98.1856 75.6677 96.9432L73.9487 89.7302C73.9568 89.6962 73.9568 89.6607 73.9487 89.6267C73.9487 89.6267 73.9487 89.3506 73.9487 88.8847C73.9512 88.308 73.9856 87.7319 74.0519 87.1591C74.1264 86.3543 74.2412 85.5538 74.3957 84.7605C74.401 84.7264 74.3933 84.6914 74.3742 84.6627C74.3551 84.6339 74.326 84.6135 74.2925 84.6052C74.2767 84.6 74.26 84.5981 74.2435 84.5997C74.2269 84.6012 74.2109 84.6062 74.1963 84.6143C74.1818 84.6224 74.1691 84.6335 74.159 84.6467C74.149 84.66 74.1417 84.6753 74.1378 84.6915C74.1378 84.6915 73.8112 85.8821 73.605 87.1073C73.5018 87.7113 73.4159 88.3325 73.3815 88.8329C73.3815 88.9364 73.3815 89.0227 73.3815 89.109L67.0214 84.795L60.1456 80.5156C60.1145 80.4888 60.0748 80.4742 60.0339 80.4742C59.9929 80.4742 59.9533 80.4888 59.9221 80.5156C59.8942 80.5496 59.8789 80.5923 59.8789 80.6364C59.8789 80.6804 59.8942 80.7232 59.9221 80.7572L66.6604 85.1574L73.2784 89.4369L74.9973 96.6671C75.2723 97.9095 75.5817 99.1347 75.8739 100.36L76.3209 102.206L76.5443 103.121C76.6133 103.478 76.7732 103.811 77.0084 104.087C77.2491 104.363 77.4898 104.536 77.7132 104.76L78.418 105.381L79.8275 106.658L82.6466 109.178C82.8974 109.422 83.2045 109.599 83.5405 109.695C83.8579 109.763 84.1795 109.809 84.5031 109.833L86.3767 110.058L90.124 110.524C91.3788 110.662 92.6336 110.8 93.8713 111.024C95.1089 111.248 96.3466 111.473 97.6014 111.628C98.2344 111.709 98.8714 111.755 99.5094 111.766C99.8352 111.799 100.163 111.799 100.489 111.766C100.661 111.742 100.828 111.696 100.988 111.628C101.139 111.548 101.282 111.456 101.417 111.352C101.93 110.918 102.252 110.297 102.311 109.626C102.324 109.237 102.284 108.848 102.191 108.47C102.844 108.85 103.497 109.229 104.185 109.574C105.44 110.213 106.712 110.8 108.001 111.3C110.557 112.45 113.158 113.497 115.805 114.441C117.129 114.907 118.469 115.338 119.81 115.718C121.167 116.13 122.56 116.413 123.97 116.563C124.325 116.589 124.681 116.589 125.036 116.563C125.222 116.553 125.406 116.524 125.586 116.477C125.762 116.427 125.935 116.363 126.101 116.287C126.443 116.15 126.767 115.97 127.064 115.752C127.375 115.535 127.629 115.244 127.803 114.907C127.927 114.653 128.003 114.377 128.027 114.096C129.225 114.612 130.468 115.016 131.74 115.303C132.492 115.454 133.259 115.517 134.026 115.493C134.81 115.46 135.576 115.241 136.26 114.855C136.972 114.477 137.535 113.869 137.859 113.129C138.081 112.373 138.039 111.563 137.739 110.834Z" fill="url(#paint1_linear)"/>
<path d="M101.999 110.868C102.076 110.701 102.094 110.513 102.051 110.334C102.007 110.155 101.904 109.997 101.759 109.885C100.223 108.905 98.4179 108.44 96.6024 108.556C94.1962 108.798 94.5399 110.851 94.8837 111.265C96.7009 111.701 98.5677 111.893 100.435 111.835C100.753 111.806 101.059 111.704 101.33 111.536C101.602 111.368 101.831 111.14 101.999 110.868Z" fill="#FFE5D0"/>
<g style="mix-blend-mode:screen" opacity="0.3">
<path d="M95.986 108.677C95.7164 108.733 95.4642 108.854 95.2506 109.028C95.037 109.203 94.8684 109.426 94.7589 109.68C94.6494 109.934 94.6022 110.21 94.6213 110.486C94.6405 110.762 94.7254 111.029 94.8689 111.265H95.3673C95.5736 110.575 96.1923 108.832 95.986 108.677Z" fill="#FFE5D0"/>
</g>
<g style="mix-blend-mode:multiply" opacity="0.6">
<path d="M101.141 111.386C98.7242 111.474 96.3052 111.312 93.9219 110.903C93.964 111.014 94.0219 111.119 94.0938 111.213C96.0254 111.637 97.9948 111.862 99.9718 111.886C100.336 111.92 100.702 111.855 101.032 111.697C101.361 111.539 101.642 111.294 101.845 110.989C101.76 111.099 101.654 111.192 101.533 111.26C101.412 111.328 101.279 111.371 101.141 111.386Z" fill="#FFE5D0"/>
</g>
<path opacity="0.6" d="M73.9836 85.7275C72.66 84.5023 67.9501 79.9123 67.9501 79.9123C68.2595 73.6484 74.3102 66.7288 79.6217 65.0549L77.1292 63.5364C69.0158 62.1559 60.1289 80.6715 60.1289 80.6715L73.5366 89.2994C73.6398 88.2468 73.9664 85.762 73.9836 85.7275Z" fill="#FFB18F"/>
<path d="M77.3359 88.471L116.923 111.421L136.141 100.274V93.7513L77.3359 81.9482V88.471Z" fill="#C2B3C6"/>
<path d="M97.2603 86.0728L88.3906 84.2954V94.8732L97.2603 100.015V86.0728Z" fill="#A091BC"/>
<path opacity="0.9" d="M115.082 95.2528C114.807 93.3374 114.773 91.3357 114.463 89.4031L107.742 88.0571C106.591 88.7301 105.336 89.2478 104.201 89.9725C102.586 90.9734 101.056 92.1295 99.457 93.1821V101.292L115.701 110.714V104.226C115.701 104.002 115.701 103.329 115.839 103.311C115.749 100.612 115.497 97.9211 115.082 95.2528Z" fill="#BF90B2"/>
<path d="M118.555 89.4199L118.469 90.2137L136.139 93.7511V100.274L129.109 104.363L136.139 100.274V93.7511L118.555 89.4199Z" fill="#E2D4DD"/>
<path d="M118.469 90.2139L116.922 104.899V111.421L129.109 104.364L136.14 100.274V93.7513L118.469 90.2139Z" fill="#EBDAED"/>
<g style="mix-blend-mode:multiply" opacity="0.7">
<path d="M98.9102 100.964L108.588 106.589V100.101L100.423 94.5103L98.9102 100.964Z" fill="#E0AACC"/>
</g>
<path d="M79.793 83.3803L116.922 104.898L136.14 93.751L99.0107 72.2329L79.793 83.3803Z" fill="#F9F8F2"/>
<path d="M116.923 104.916L77.3359 81.9652L96.5537 70.8179L136.141 93.7682L116.923 104.916Z" fill="#F9F8F2"/>
<path d="M108.657 100.102L88.3906 88.4022L107.626 77.2549L130.608 90.5419L122.082 95.4771L119.366 93.9068L108.657 100.102Z" fill="#D9CAED"/>
<path opacity="0.2" d="M116.476 84.2612L96.4676 80.6029H96.5707L116.614 84.1921L116.476 84.2612ZM117.662 83.571L97.7052 79.9127H97.5849L117.593 83.5537L117.662 83.571ZM115.496 84.8134L95.4878 81.1724H95.3847L115.393 84.8306L115.496 84.8134ZM114.431 85.4346L94.422 81.7936H94.3017L114.31 85.4518L114.431 85.4346ZM116.871 82.6046L98.7194 79.2915H98.6163L117.078 82.6564L116.871 82.6046ZM113.434 86.0558L93.4251 82.3975H93.3219L113.176 86.1248L113.434 86.0558ZM112.815 80.1888L100.971 78.0318H100.851L113.021 80.2578L112.815 80.1888ZM106.592 76.5823L104.203 76.1509H104.083L106.798 76.634L106.592 76.5823ZM108.655 77.7902L103.12 76.7721H103.017L108.861 77.842L108.655 77.7902ZM110.735 78.9809L102.037 77.3933H101.934L110.941 79.0326L110.735 78.9809ZM114.877 81.3794L99.8883 78.653H99.7851L115.084 81.4485L114.877 81.3794ZM112.351 86.677L92.2562 83.0705H92.153L112.162 86.7115L112.351 86.677ZM100.507 93.5794L95.9691 92.7511L96.1753 92.8719L100.404 93.6311L100.507 93.5794ZM102.656 92.3197L91.8264 90.3525L92.0327 90.4733L102.553 92.3887L102.656 92.3197ZM103.739 91.6985L89.7465 89.1446L89.9528 89.2654L103.704 91.7675L103.739 91.6985ZM99.4242 94.1833L98.049 93.9245L98.2553 94.0452L99.321 94.2524L99.4242 94.1833ZM101.59 92.9409L93.9064 91.5259L94.1126 91.6467L101.47 92.9927L101.59 92.9409ZM104.822 91.06L87.6323 87.9367L87.8557 88.0575L104.667 91.129L104.822 91.06ZM109.119 88.5579L89.1105 84.9169H89.0074L109.016 88.5752L109.119 88.5579ZM110.202 87.9367L90.1935 84.2785H90.0903L110.099 87.9367H110.202ZM111.285 87.3155L91.2764 83.6572H91.1561L111.165 87.3155H111.285ZM106.97 89.8176L86.9618 86.1593H86.8587L106.867 89.8003L106.97 89.8176ZM108.053 89.1791L88.0448 85.5381H87.9244L107.933 89.1963L108.053 89.1791ZM105.887 90.4388L85.8789 86.7805H85.793L105.784 90.4388H105.887Z" fill="#7F7799"/>
<path opacity="0.6" d="M125.898 97.6861L111.27 89.2135L119.778 84.2783L134.407 92.751L125.898 97.6861Z" fill="#E0AACC"/>
<path opacity="0.6" d="M115.701 104.225L100.145 95.2003L102.878 93.6128L117.042 101.827L115.701 104.225Z" fill="#E0AACC"/>
<path d="M111.938 83.7257C109.918 82.6483 107.673 82.0634 105.385 82.0184C103.098 81.9735 100.832 82.4697 98.7712 83.4669C95.2473 85.5031 95.4364 88.9197 99.1837 91.094C99.2009 91.1112 111.938 83.7257 111.938 83.7257Z" fill="#D4A8C6"/>
<path d="M97.8259 93.8549L97.293 93.5616L116.528 82.397L117.061 82.7076L97.8259 93.8549Z" fill="#7F7799"/>
<path d="M99.5811 76.7717L93.9258 73.4931L96.6417 71.9229L102.28 75.2014L99.5811 76.7717Z" fill="#3263A8"/>
<path d="M120.945 88.2459C120.521 88.0148 120.052 87.8793 119.57 87.849L120.962 87.2105C121.019 87.1671 121.089 87.1437 121.16 87.1437C121.231 87.1437 121.301 87.1671 121.358 87.2105L123.076 88.2286L123.695 88.0561L121.358 86.6411H121.237L118.883 87.8318L118.969 87.9871C119.466 87.9476 119.965 88.043 120.412 88.2632C120.859 88.5393 121.031 89.0052 120.172 89.5056C119.863 89.7124 119.507 89.8368 119.137 89.867C118.767 89.8972 118.396 89.8322 118.058 89.6781C117.969 89.6448 117.89 89.5889 117.829 89.5159C117.767 89.4428 117.726 89.355 117.709 89.2611C117.691 89.1673 117.699 89.0705 117.73 88.9803C117.761 88.89 117.815 88.8094 117.886 88.7463C117.904 88.7356 117.918 88.7204 117.929 88.7023C117.939 88.6841 117.944 88.6636 117.944 88.6428C117.944 88.622 117.939 88.6014 117.929 88.5833C117.918 88.5652 117.904 88.55 117.886 88.5393C117.77 88.4874 117.644 88.4606 117.516 88.4606C117.389 88.4606 117.263 88.4874 117.147 88.5393C116.855 88.7118 116.889 89.264 117.817 89.7989C118.293 90.0982 118.84 90.2655 119.402 90.2837C119.963 90.3018 120.52 90.1703 121.014 89.9024C121.925 89.2812 121.77 88.6428 120.945 88.2459Z" fill="#6B6597"/>
<path d="M126.309 89.3166C125.686 89.0348 124.999 88.9246 124.32 88.9974C123.64 89.0702 122.992 89.3233 122.442 89.7307C121.119 90.5073 120.569 91.3011 121.737 91.9741C122.36 92.2595 123.047 92.3716 123.727 92.2988C124.408 92.2259 125.056 91.9707 125.604 91.5599C126.928 90.8007 127.478 89.9723 126.309 89.3166ZM121.961 91.836C121.29 91.4564 122.081 90.7834 123.164 90.1104C124.247 89.4374 125.398 89.0405 126.069 89.4202C126.739 89.7998 125.948 90.49 124.883 91.1458C123.817 91.8015 122.631 92.2329 121.961 91.836Z" fill="#6B6597"/>
<path d="M130.04 91.4909C129.417 91.2054 128.73 91.0933 128.05 91.1661C127.369 91.239 126.721 91.4942 126.172 91.905C124.849 92.6642 124.299 93.4753 125.468 94.1483C126.091 94.4301 126.778 94.5403 127.457 94.4675C128.137 94.3947 128.785 94.1416 129.335 93.7341C130.658 92.9748 131.208 92.1638 130.04 91.4909ZM125.708 94.0102C125.038 93.6306 125.812 92.9403 126.894 92.2846C127.977 91.6289 129.146 91.1975 129.816 91.5944C130.487 91.9913 129.696 92.6643 128.613 93.32C127.53 93.9757 126.379 94.4071 125.708 94.0102Z" fill="#6B6597"/>
<path d="M85.9977 82.3102C85.6021 82.1298 85.1658 82.0587 84.7337 82.1042C84.3017 82.1497 83.8895 82.3102 83.5399 82.569C82.6977 83.0522 82.354 83.5699 83.093 84.0013C83.4886 84.1817 83.9249 84.2528 84.3569 84.2073C84.789 84.1617 85.2011 84.0013 85.5508 83.7425C86.393 83.242 86.7367 82.7416 85.9977 82.3102ZM83.2305 83.915C82.8008 83.6561 83.3164 83.2247 83.9867 82.8279C84.657 82.431 85.4305 82.1549 85.843 82.3965C86.2555 82.638 85.843 83.0695 85.0867 83.4664C84.3305 83.8633 83.6602 84.1566 83.2305 83.915Z" fill="#F4C245"/>
<path d="M88.3688 83.6905C87.9732 83.5101 87.5369 83.4391 87.1048 83.4846C86.6728 83.5301 86.2606 83.6905 85.911 83.9494C85.0688 84.4325 84.7251 84.9502 85.4641 85.3816C85.8611 85.5595 86.2983 85.6277 86.7304 85.5792C87.1625 85.5307 87.5738 85.3671 87.9219 85.1055C88.7641 84.6223 89.1078 84.1219 88.3688 83.6905ZM85.6188 85.2953C85.1891 85.0365 85.6188 84.6051 86.375 84.2082C87.1313 83.8113 87.8016 83.518 88.2312 83.7768C88.6609 84.0357 88.1453 84.4498 87.4578 84.8467C86.7703 85.2435 86.0313 85.5369 85.6703 85.2953H85.6188Z" fill="#F4C245"/>
<path d="M130.365 96.0115L128.2 95.6146V95.4766L130.365 95.8907V96.0115ZM129.781 96.2531L127.598 95.8562V95.977L129.764 96.3911L129.781 96.2531ZM129.128 96.6327L126.962 96.2358V96.3566L129.128 96.7535V96.6327ZM128.475 97.0123L126.309 96.6154V96.7363L128.475 97.1331V97.0123ZM127.839 97.3919L125.656 96.9778V97.1159L127.822 97.5127L127.839 97.3919ZM127.186 97.7543L125.02 97.3574V97.4782L127.186 97.8924V97.7543ZM126.533 98.134L124.367 97.7371V97.8579L126.533 98.2547V98.134ZM125.897 98.5136L123.731 98.1167V98.2375L125.914 98.6343L125.897 98.5136ZM125.244 98.8932L123.078 98.479V98.5998L125.244 99.014V98.8932Z" fill="#6B6597"/>
<path d="M99.0977 73.5972C98.73 73.4107 98.3238 73.3135 97.9118 73.3135C97.4998 73.3135 97.0936 73.4107 96.7259 73.5972C96.0899 73.9768 96.1243 74.5808 96.7259 74.9777C97.0936 75.1642 97.4998 75.2614 97.9118 75.2614C98.3238 75.2614 98.73 75.1642 99.0977 74.9777C99.8024 74.598 99.7681 73.9941 99.0977 73.5972ZM96.9493 74.8396C96.3649 74.4945 96.3306 73.9596 96.9493 73.649C97.2682 73.484 97.6218 73.3979 97.9806 73.3979C98.3393 73.3979 98.6929 73.484 99.0118 73.649C99.5962 73.9941 99.6306 74.529 99.0118 74.8396C98.6929 75.0046 98.3393 75.0907 97.9806 75.0907C97.6218 75.0907 97.2682 75.0046 96.9493 74.8396Z" fill="#F4C245"/>
<path d="M113.915 81.9998L113.64 82.5002L114.207 82.9316H113.296L112.798 83.3457L112.505 82.828L111.629 82.6555L112.351 82.3794V81.8445L113.09 82.1723L113.915 81.9998ZM107.761 80.2742L107.005 79.9463V80.4812L106.283 80.7573L107.159 80.9299L107.452 81.4476L107.95 81.0162H108.861L108.294 80.5848L108.552 80.0843L107.761 80.2742ZM101.934 80.1706L101.178 79.8428V80.3604L100.456 80.6538L101.332 80.8264L101.624 81.3268L102.123 80.9126H103.034L102.467 80.4812L102.725 79.9808L101.934 80.1706ZM96.777 81.8099L96.0379 81.4821V81.9998L95.2988 82.2931L96.1754 82.4657L96.4849 82.9661L96.9833 82.552H97.8772L97.3099 82.1206L97.5849 81.6374L96.777 81.8099ZM93.9924 84.7952L93.2532 84.4673V85.0023L92.5312 85.2956L93.4079 85.4682L93.7002 85.9686L94.1986 85.5545H95.1097L94.5424 85.1231L94.8175 84.6399L93.9924 84.7952ZM94.1815 88.2464L93.4423 87.9185V88.4362L92.7204 88.7296L93.597 88.9021L93.8892 89.4198L94.3877 88.9884H95.2988L94.7315 88.557L95.0065 88.0566L94.1815 88.2464ZM97.3443 91.3179L96.6051 90.9901V91.525L95.9863 91.6976L96.863 91.8701L97.1552 92.3878L97.6537 91.9564H98.5648L97.9975 91.525L98.2554 91.0246L97.3443 91.3179Z" fill="#E8AB31"/>
<path d="M110.58 78.9453L120.533 84.7088L101.281 95.8733L91.3281 90.1099L110.58 78.9453Z" fill="#F9F8F2"/>
<path d="M91.3281 96.5818L101.281 102.345V95.8743L91.3281 90.1108V96.5818Z" fill="#D1C1D3"/>
<path d="M92.3087 90.6797L111.578 79.5151L110.444 78.8594L91.1914 90.024V96.5122L92.3087 97.168V90.6797Z" fill="#788EFF"/>
<path d="M101.453 95.9773L120.723 84.83L119.588 84.1743L100.336 95.3216V101.81L101.453 102.466V95.9773Z" fill="#788EFF"/>
<path d="M92.3086 90.6806L91.1914 90.0249V96.5132L92.3086 97.1689V90.6806Z" fill="#7D239B"/>
<path d="M101.453 95.977L100.336 95.3213V101.81L101.453 102.465V95.977Z" fill="#7D239B"/>
<g style="mix-blend-mode:multiply">
<path d="M94.7314 71.8711L78.9688 81.0167L109.05 98.4452H114.757L94.7314 71.8711Z" fill="#C2B3C6"/>
</g>
<path d="M114.792 98.428L78.918 77.6346V72.5269L114.792 81.638V98.428Z" fill="#C4BEA3"/>
<path d="M131.398 88.7826L114.793 98.4286V81.6387L131.398 83.6749V88.7826Z" fill="#D8D2B8"/>
<path d="M114.79 93.3203L78.8984 72.5269L95.5206 62.8809L131.412 83.6915L114.79 93.3203Z" fill="#FFF9E1"/>
<path d="M95.2126 63.6411L80.2578 72.2691L115.152 92.5103L130.124 83.8823L95.2126 63.6411ZM117.473 90.6811C117.062 90.889 116.609 90.9972 116.149 90.9972C115.69 90.9972 115.236 90.889 114.826 90.6811L83.5926 72.5797C82.819 72.1311 82.7675 71.4408 83.4722 71.0266L92.8233 65.6083C93.2356 65.3963 93.6922 65.2857 94.1555 65.2857C94.6187 65.2857 95.0753 65.3963 95.4876 65.6083L126.721 83.7097C127.494 84.1584 127.546 84.8487 126.841 85.2455L117.473 90.6811Z" fill="#687A51"/>
<path d="M112.626 73.7703C109.188 71.7686 103 72.0447 98.8744 74.4433C94.7489 76.8418 94.2676 80.3793 97.7398 82.3982C101.212 84.4171 107.366 84.1238 111.491 81.7425C115.617 79.3612 116.098 75.7892 112.626 73.7703ZM97.843 82.3982C94.4051 80.4138 94.9208 76.8936 98.9775 74.5468C103.034 72.2 109.119 71.8894 112.54 73.8738C115.961 75.8583 115.445 79.3957 111.405 81.7425C107.366 84.0893 101.264 84.3309 97.843 82.3464V82.3982Z" fill="#A5AA9F"/>
<path d="M111.216 81.5862C107.245 83.8812 101.332 84.1746 97.9969 82.2592C94.6621 80.3438 95.195 76.8926 99.1658 74.5976C103.137 72.3025 109.05 71.9919 112.384 73.9246C115.719 75.8573 115.186 79.2739 111.216 81.5862Z" fill="#A5AA9F"/>
<path d="M110.339 81.0687C108.632 82.0428 106.721 82.6018 104.76 82.7007C102.799 82.7996 100.842 82.4357 99.046 81.6381C96.2098 79.9988 96.6567 77.0653 100.043 75.0981C101.75 74.1239 103.661 73.565 105.622 73.4661C107.584 73.3672 109.541 73.7311 111.336 74.5287C114.173 76.168 113.726 79.1015 110.339 81.0687Z" fill="#FFF9E1"/>
<path d="M112.215 84.5374L111.029 83.8472L110.582 84.106L111.785 84.7962L112.215 84.5374Z" fill="#687A51"/>
<path d="M112.848 84.8984L112.418 85.1573L117.557 88.1425L118.004 87.8837L112.848 84.8984Z" fill="#687A51"/>
<path d="M89.1094 71.1458L87.9062 70.4556L87.4766 70.7144L88.6797 71.4047L89.1094 71.1458Z" fill="#687A51"/>
<path d="M89.7477 71.5083L89.3008 71.7671L94.457 74.7525L94.9039 74.4936L89.7477 71.5083Z" fill="#687A51"/>
<path d="M94.2828 66.1079L93.6641 66.453L99.903 70.0594L100.505 69.7143L94.2828 66.1079Z" fill="#687A51"/>
<path d="M119.469 80.7061L118.867 81.0512L125.089 84.6577L125.691 84.3126L119.469 80.7061Z" fill="#A5AA9F"/>
<path d="M113.02 88.4879L114.344 87.7113L113.673 87.418V87.556C113.673 87.556 113.673 87.5561 113.673 87.6768L112.642 88.2635C112.618 88.2831 112.588 88.2938 112.556 88.2938C112.525 88.2938 112.495 88.2831 112.47 88.2635L112.281 88.1772H112.195L113.072 88.6777H113.158L113.003 88.5741C113.003 88.5741 112.952 88.5224 113.02 88.4879Z" fill="#687A51"/>
<path d="M115.533 88.384C115.315 88.2764 115.073 88.2293 114.831 88.2475C114.589 88.2657 114.357 88.3486 114.158 88.4876C113.745 88.7291 113.539 89.0225 113.986 89.2813C114.202 89.3914 114.443 89.4414 114.685 89.4263C114.927 89.4111 115.16 89.3312 115.361 89.195C115.773 88.9534 115.997 88.6601 115.533 88.384ZM114.089 89.2296C113.9 89.1088 114.295 88.8499 114.536 88.7118C114.776 88.5738 115.24 88.3322 115.429 88.453C115.619 88.5738 115.24 88.8154 114.983 88.9707C114.725 89.126 114.295 89.3504 114.089 89.2296Z" fill="#687A51"/>
<path d="M116.888 89.1779C116.671 89.0703 116.428 89.0232 116.187 89.0414C115.945 89.0596 115.712 89.1425 115.513 89.2815C115.101 89.5058 114.894 89.8164 115.341 90.0752C115.562 90.1826 115.807 90.2295 116.051 90.2113C116.296 90.1931 116.531 90.1105 116.733 89.9717C117.129 89.7474 117.352 89.4368 116.888 89.1779ZM115.444 90.0235C115.255 89.9027 115.651 89.6439 115.908 89.5058C116.166 89.3677 116.596 89.1261 116.785 89.2297C116.974 89.3332 116.596 89.6093 116.338 89.7474C116.08 89.8854 115.651 90.127 115.444 89.9717V90.0235Z" fill="#687A51"/>
<path d="M124.557 82.0171L125.434 81.5166L124.987 81.3096C124.987 81.3096 124.987 81.3095 124.987 81.3958L124.299 81.7927H124.179H124.059L124.574 82.1551V82.0515C124.574 82.0515 124.505 82.0516 124.557 82.0171Z" fill="#FFF9E1"/>
<path d="M126.239 81.9654C126.099 81.88 125.939 81.835 125.775 81.835C125.611 81.835 125.451 81.88 125.311 81.9654C125.036 82.1379 124.898 82.3278 125.208 82.5004C125.345 82.5842 125.503 82.6285 125.663 82.6285C125.824 82.6285 125.981 82.5842 126.119 82.5004C126.394 82.3278 126.531 82.1379 126.239 81.9654ZM125.277 82.5176C125.139 82.5176 125.397 82.276 125.569 82.1725C125.741 82.0689 126.033 81.9136 126.17 81.9999C126.308 82.0862 126.033 82.2415 125.861 82.345C125.689 82.4486 125.397 82.6039 125.208 82.5176H125.277Z" fill="#FFF9E1"/>
<path d="M127.149 82.4826C127.007 82.4024 126.848 82.3604 126.685 82.3604C126.522 82.3604 126.363 82.4024 126.221 82.4826C125.946 82.6379 125.808 82.8449 126.101 83.0175C126.242 83.0976 126.402 83.1397 126.565 83.1397C126.727 83.1397 126.887 83.0976 127.029 83.0175C127.304 82.8622 127.441 82.6551 127.149 82.4826ZM126.187 83.052C126.049 82.9657 126.307 82.7932 126.479 82.7069C126.651 82.6206 126.943 82.4481 127.08 82.5343C127.218 82.6206 126.943 82.7759 126.771 82.8795C126.599 82.983 126.307 83.0693 126.187 83.0693V83.052Z" fill="#FFF9E1"/>
<path d="M97.2601 66.1933L98.1539 65.6929L97.6898 65.4858V65.5894L97.0023 65.9863H96.882H96.7617L97.2945 66.3486V66.2451C97.2945 66.2451 97.2257 66.2279 97.2601 66.1933Z" fill="#FFF9E1"/>
<path d="M98.9422 66.1418C98.8005 66.0616 98.6407 66.0195 98.4781 66.0195C98.3156 66.0195 98.1557 66.0616 98.014 66.1418C97.7391 66.2971 97.6016 66.5041 97.9109 66.6767C98.0526 66.7568 98.2124 66.7989 98.375 66.7989C98.5376 66.7989 98.6974 66.7568 98.8391 66.6767C99.0969 66.5214 99.2515 66.3143 98.9422 66.1418ZM97.9797 66.6939C97.8422 66.6939 98.1 66.4523 98.2718 66.3488C98.4437 66.2453 98.7359 66.1072 98.8734 66.1762C99.0109 66.2453 98.7531 66.4351 98.5813 66.5214C98.4094 66.6077 98.1172 66.7802 97.9797 66.6939Z" fill="#FFF9E1"/>
<path d="M99.8524 66.6763C99.7125 66.591 99.552 66.5459 99.3883 66.5459C99.2247 66.5459 99.0641 66.591 98.9242 66.6763C98.6492 66.8489 98.5117 67.0387 98.8211 67.2112C98.961 67.2965 99.1215 67.3416 99.2852 67.3416C99.4489 67.3416 99.6094 67.2965 99.7492 67.2112C100.007 67.0387 100.162 66.8489 99.8524 66.6763ZM98.8899 67.2285C98.7524 67.2285 99.0101 66.9869 99.182 66.8834C99.3539 66.7798 99.6461 66.6245 99.7836 66.7108C99.9211 66.7971 99.6633 66.9524 99.4914 67.0559C99.3196 67.1594 99.0274 67.3147 98.8899 67.2285Z" fill="#FFF9E1"/>
<path d="M84.0394 73.2688H83.9362C83.8808 73.299 83.8188 73.3148 83.7558 73.3148C83.6928 73.3148 83.6307 73.299 83.5753 73.2688L82.4238 72.5958C82.3206 72.5958 82.3034 72.4578 82.4238 72.406H82.5269C82.5805 72.38 82.6392 72.3665 82.6988 72.3665C82.7583 72.3665 82.817 72.38 82.8706 72.406L83.0425 72.4922L84.4003 71.7158L84.2456 71.595C84.2456 71.595 84.2456 71.4569 84.2456 71.4224H84.3316C84.3802 71.4005 84.4329 71.3892 84.4862 71.3892C84.5396 71.3892 84.5923 71.4005 84.6409 71.4224L85.5347 71.802C85.5872 71.8275 85.6296 71.8701 85.655 71.9228C85.655 71.9228 85.655 72.0263 85.655 72.0608L83.9362 73.0617L84.0909 73.1652C84.0936 73.1857 84.0901 73.2065 84.0809 73.2249C84.0717 73.2434 84.0572 73.2586 84.0394 73.2688ZM88.8174 74.9944C88.493 75.2053 88.1193 75.3273 87.7334 75.3485C87.3475 75.3697 86.9628 75.2893 86.6174 75.1152C86.1534 74.8391 86.0846 74.5284 86.3596 74.2006C86.1031 74.2888 85.8307 74.3206 85.5608 74.2938C85.2909 74.267 85.0299 74.1822 84.7956 74.0453C84.1597 73.6829 84.2284 73.217 85.0018 72.7856C85.3226 72.567 85.6961 72.4388 86.0831 72.4145C86.47 72.3902 86.8564 72.4707 87.2018 72.6475C87.6659 72.9236 87.7346 73.2342 87.4596 73.5621C87.7171 73.4792 87.9887 73.4503 88.2577 73.477C88.5267 73.5037 88.7874 73.5855 89.0237 73.7174C89.6596 74.097 89.5736 74.5629 88.8174 75.0116V74.9944Z" fill="#FFF9E1"/>
<path d="M83.6609 72.8883L85.3797 71.8702L84.4687 71.4561H84.3828L84.5547 71.5941C84.5547 71.5941 84.5547 71.6804 84.5547 71.7494L83.1796 72.5432C83.1446 72.5685 83.1025 72.5821 83.0594 72.5821C83.0162 72.5821 82.9741 72.5685 82.939 72.5432L82.6984 72.4224H82.5781L83.7469 73.0954H83.8672L83.6609 72.9574C83.6609 72.9574 83.575 72.9401 83.6609 72.8883Z" fill="#A5AA9F"/>
<path d="M87.0306 72.7165C86.74 72.5714 86.4159 72.5076 86.0922 72.5319C85.7686 72.5562 85.4574 72.6676 85.1916 72.8546C84.6416 73.1652 84.3494 73.5621 84.9509 73.9245C85.2446 74.0693 85.5714 74.1329 85.8977 74.1086C86.224 74.0844 86.538 73.9731 86.8072 73.7864C87.3915 73.5275 87.6494 73.1134 87.0306 72.7165ZM85.0884 73.8382C84.8306 73.6828 85.3634 73.3377 85.69 73.1479C86.0166 72.9581 86.6353 72.6475 86.8931 72.8028C87.1509 72.9581 86.6353 73.286 86.2915 73.4931C85.9478 73.7001 85.3634 74.0452 85.0884 73.8899V73.8382Z" fill="#A5AA9F"/>
<path d="M88.851 73.8204C88.559 73.6805 88.2357 73.6196 87.9132 73.6439C87.5906 73.6681 87.2799 73.7765 87.0119 73.9584C86.4619 74.269 86.1697 74.6831 86.7885 75.0282C87.0776 75.1759 87.4009 75.2426 87.7245 75.2213C88.0482 75.2 88.3601 75.0916 88.6275 74.9074C89.1088 74.5796 89.4697 74.1827 88.851 73.8204ZM86.926 74.9592C86.651 74.8039 87.1838 74.4588 87.5275 74.2518C87.8713 74.0447 88.4557 73.7513 88.7135 73.9066C88.9713 74.0619 88.4557 74.407 88.1119 74.5969C87.7682 74.7867 87.1838 75.1145 86.926 74.9592Z" fill="#A5AA9F"/>
<path d="M119.156 83.2941C118.573 82.9832 117.926 82.8134 117.267 82.7984C116.607 82.7835 115.953 82.9236 115.357 83.2078C114.36 83.7945 114.429 84.7781 115.512 85.4166C116.094 85.7275 116.741 85.8972 117.401 85.9122C118.06 85.9272 118.714 85.787 119.31 85.5029C120.324 84.9162 120.256 83.9326 119.156 83.2941ZM115.718 85.2958C114.738 84.7264 114.67 83.8463 115.581 83.3286C116.119 83.0664 116.712 82.9375 117.31 82.9525C117.908 82.9675 118.494 83.1261 119.018 83.4149C119.98 83.9844 120.049 84.8471 119.156 85.3821C118.617 85.6443 118.024 85.7733 117.426 85.7582C116.828 85.7432 116.243 85.5847 115.718 85.2958Z" fill="#A5AA9F"/>
<path d="M95.9848 69.9033C95.4036 69.5884 94.7562 69.4165 94.0959 69.4015C93.4356 69.3865 92.7812 69.5289 92.1864 69.8171C91.1723 70.4038 91.2411 71.3873 92.3411 72.0086C92.9223 72.3222 93.5685 72.4949 94.228 72.5129C94.8876 72.5309 95.5422 72.3936 96.1395 72.1121C97.2051 71.5254 97.1364 70.5418 95.9848 69.9033ZM92.5473 71.905C91.5848 71.3356 91.5161 70.4556 92.4098 69.9379C92.9481 69.6757 93.541 69.5467 94.139 69.5617C94.7371 69.5767 95.3228 69.7353 95.8473 70.0241C96.827 70.5763 96.8786 71.4564 95.9848 71.9741C95.4468 72.2348 94.8551 72.3644 94.2578 72.3524C93.6606 72.3404 93.0745 72.1871 92.5473 71.905Z" fill="#A5AA9F"/>
<path d="M118.848 84.2606C118.765 84.2567 118.684 84.2326 118.613 84.1906C118.541 84.1485 118.48 84.0896 118.436 84.019C118.396 83.9383 118.335 83.8701 118.259 83.8215C118.183 83.7729 118.096 83.7458 118.006 83.7429H117.903C117.823 83.7363 117.746 83.7111 117.677 83.6691C117.608 83.6272 117.55 83.5697 117.508 83.5013C117.454 83.4593 117.387 83.4365 117.319 83.4365C117.25 83.4365 117.184 83.4593 117.13 83.5013L116.184 84.0362C116.146 84.0564 116.113 84.0859 116.089 84.1221C116.065 84.1583 116.051 84.2 116.047 84.2433V85.1234H117.611C117.731 85.1261 117.85 85.0963 117.955 85.0371L118.9 84.4849C119.089 84.3986 119.02 84.2778 118.848 84.2606Z" fill="#687A51"/>
<path d="M95.7273 70.8533C95.6464 70.8487 95.5674 70.8262 95.4961 70.7875C95.4248 70.7487 95.3628 70.6946 95.3148 70.6289C95.2728 70.5483 95.2116 70.4793 95.1367 70.4281C95.0617 70.3769 94.9753 70.3451 94.8851 70.3356H94.782C94.704 70.3286 94.6284 70.305 94.5602 70.2663C94.4921 70.2276 94.4329 70.1747 94.3867 70.1112C94.3451 70.0529 94.2836 70.012 94.2139 69.9961C94.1443 69.9802 94.0712 69.9905 94.0086 70.025L93.0633 70.5772C93.0262 70.5945 92.9941 70.621 92.9701 70.6542C92.946 70.6874 92.9307 70.7262 92.9258 70.767V71.647H94.4898C94.6027 71.6748 94.7206 71.6748 94.8336 71.647L95.7789 71.0948C95.9851 70.9913 95.9851 70.8878 95.7273 70.8533Z" fill="#687A51"/>
<path d="M106.988 78.0305L106.61 77.5991L108.964 76.2359C109.24 76.443 109.325 76.7881 108.844 77.461C108.724 77.6163 108.724 77.7544 108.999 77.9097C109.242 78.0499 109.513 78.1336 109.793 78.1545C110.073 78.1754 110.354 78.133 110.615 78.0305C111.096 77.7544 111.096 76.8916 109.497 75.9252L110.408 75.3903L109.721 74.9935L108.793 75.5111C108.082 75.0763 107.274 74.8264 106.442 74.7842C105.611 74.742 104.782 74.9089 104.031 75.2696C102.965 75.8908 103.206 76.719 103.945 77.5818L104.375 78.0822L101.676 79.6525C101.47 79.48 101.229 79.0831 101.831 78.203C101.986 77.996 101.951 77.8407 101.659 77.6681C101.388 77.5473 101.096 77.4848 100.799 77.4848C100.503 77.4848 100.211 77.5473 99.94 77.6681C99.5446 77.8924 99.1321 78.738 101.143 79.9804L99.9572 80.6706L100.662 81.0848L101.848 80.3946C102.595 80.8401 103.439 81.0979 104.307 81.1459C105.175 81.194 106.041 81.0309 106.833 80.6706C108.019 79.8941 107.847 79.0658 106.988 78.0305ZM106.163 77.0469C105.699 76.5983 105.578 76.1323 106.163 75.8045C106.497 75.6387 106.864 75.5524 107.237 75.5524C107.61 75.5524 107.977 75.6387 108.311 75.8045L106.163 77.0469ZM102.381 80.0494L104.839 78.6172C104.953 78.7159 105.039 78.843 105.089 78.9856C105.139 79.1283 105.15 79.2816 105.122 79.4301C105.094 79.5786 105.028 79.7172 104.93 79.8319C104.832 79.9467 104.706 80.0336 104.564 80.0839C104.229 80.2694 103.851 80.3638 103.468 80.3577C103.085 80.3516 102.71 80.2454 102.381 80.0494Z" fill="#687A51"/>
<path d="M109.152 86.4525L106.109 84.6924L106.281 84.5889L109.323 86.3662L109.152 86.4525Z" fill="#A5AA9F"/>
<path d="M93.6828 77.4961L90.6406 75.7188L90.8125 75.6152L93.8547 77.3925L93.6828 77.4961Z" fill="#A5AA9F"/>
<path d="M109.825 71.1631L116.976 75.3218L100.354 84.9505L93.2031 80.8091L109.825 71.1631Z" fill="#F9F8F2"/>
<path d="M93.2031 85.9509L100.353 90.0923V84.95L93.2031 80.8086V85.9509Z" fill="#D1C1D3"/>
<path d="M93.9759 81.2573L110.615 71.6285L109.721 71.1108L93.082 80.7397V85.8819L93.9759 86.4168V81.2573Z" fill="#788EFF"/>
<path d="M100.491 85.0373L117.131 75.4085L116.237 74.8735L99.5977 84.5196V89.6618L100.491 90.1795V85.0373Z" fill="#788EFF"/>
<path d="M93.9757 81.2579L93.082 80.7402V85.8825L93.9757 86.4174V81.2579Z" fill="#7D239B"/>
<path d="M100.491 85.0372L99.5977 84.5195V89.6618L100.491 90.1795V85.0372Z" fill="#7D239B"/>
<defs>
<linearGradient id="paint0_linear" x1="80.0855" y1="64.0015" x2="66.8766" y2="86.7869" gradientUnits="userSpaceOnUse">
<stop stop-color="#FFFEFA"/>
<stop offset="1" stop-color="#F1F0EC"/>
</linearGradient>
<linearGradient id="paint1_linear" x1="110.029" y1="70.024" x2="96.5676" y2="102.446" gradientUnits="userSpaceOnUse">
<stop stop-color="#FFD2B1"/>
<stop offset="0.49" stop-color="#FFB59A"/>
<stop offset="1" stop-color="#ED9783"/>
</linearGradient>
</defs>
</svg>
