<svg width="138" height="88" viewBox="0 0 138 88" fill="none" xmlns="http://www.w3.org/2000/svg">
<path d="M30.1641 67.4468L91.1893 32.0704V22.7983L30.1641 36.9814V67.4468Z" fill="#D8D2B8"/>
<path d="M0 49.9644L30.1642 67.4464V36.981L0 40.6923V49.9644Z" fill="#C4BEA3"/>
<path d="M91.1879 22.7979L30.1627 58.1743L0.0234375 40.6923L61.0486 5.31592L91.1879 22.7979Z" fill="#FFF9E1"/>
<path d="M2.28906 41.0428L29.4294 56.7503L88.7871 22.3362L61.6468 6.64111L2.28906 41.0428ZM82.9882 19.8994C84.2326 20.6367 84.2326 21.8613 82.9882 22.6111L29.84 53.4014C29.1165 53.7682 28.3173 53.9593 27.5068 53.9593C26.6962 53.9593 25.897 53.7682 25.1735 53.4014L8.21239 43.567C6.968 42.8297 6.968 41.6176 8.21239 40.8553L61.3108 10.065C62.0365 9.69806 62.8377 9.50691 63.6503 9.50691C64.4628 9.50691 65.264 9.69806 65.9897 10.065L82.9882 19.8994Z" fill="#687A51"/>
<path d="M32.0569 23.8852C26.146 27.3091 27.4029 33.6071 34.8319 37.9183C42.261 42.2294 53.1246 42.9167 59.0354 39.5302C64.9463 36.1438 63.7517 29.8083 56.2853 25.5097C48.8189 21.211 37.9678 20.5112 32.0569 23.8852ZM58.8737 39.4428C53.0623 42.8167 42.3356 42.0919 34.9813 37.8308C27.6269 33.5696 26.3825 27.3591 32.2062 23.9726C38.03 20.5862 48.7443 21.3235 56.0987 25.5846C63.4531 29.8458 64.6974 36.0688 58.8737 39.4428Z" fill="#A5AA9F"/>
<path d="M55.7878 25.7724C62.9928 29.9461 64.2372 35.9817 58.5752 39.2681C52.9132 42.5546 42.4976 41.7673 35.2925 37.6561C28.0875 33.5449 26.8555 27.4344 32.5051 24.1479C38.1547 20.8614 48.5952 21.5987 55.7878 25.7724Z" fill="#A5AA9F"/>
<path d="M54.2947 26.6345C60.442 30.1959 61.5122 35.3818 56.6715 38.1684C51.8308 40.955 42.9831 40.3552 36.7611 36.7813C30.5392 33.2074 29.5436 28.0341 34.3843 25.26C39.225 22.4858 48.1474 23.0731 54.2947 26.6345Z" fill="#FFF9E1"/>
<path d="M64.7088 24.9224L62.668 26.097L63.4644 26.5593L65.5052 25.3722L64.7088 24.9224Z" fill="#687A51"/>
<path d="M65.793 24.2978L66.5769 24.7477L75.3375 19.6743L74.5535 19.2119L65.793 24.2978Z" fill="#687A51"/>
<path d="M25.4229 47.6899L23.3945 48.8771L24.1785 49.3394L26.2193 48.1523L25.4229 47.6899Z" fill="#687A51"/>
<path d="M26.5078 47.0656L27.2918 47.5279L36.0523 42.4545L35.2684 41.9922L26.5078 47.0656Z" fill="#687A51"/>
<path d="M9.84375 42.1546L10.9388 42.7794L21.5162 36.6438L20.4336 36.019L9.84375 42.1546Z" fill="#687A51"/>
<path d="M52.6758 17.3245L53.7584 17.9493L64.3482 11.8138L63.2531 11.189L52.6758 17.3245Z" fill="#A5AA9F"/>
<path d="M76.6055 24.2608L74.2287 22.8862H74.1541L73.3203 23.5485L73.4447 23.6235L73.7558 23.4985C73.8079 23.4652 73.8683 23.4474 73.9301 23.4474C73.9918 23.4474 74.0523 23.4652 74.1043 23.4985L75.9833 24.5857C76.1078 24.6607 76.0953 24.7107 75.9833 24.7731L75.7344 24.9481L75.8838 25.0356L77.4393 24.2608L77.2775 24.1733L76.9788 24.3233C76.9197 24.3603 76.8492 24.3743 76.7804 24.3628C76.7117 24.3513 76.6495 24.3151 76.6055 24.2608Z" fill="#687A51"/>
<path d="M76.1952 21.7612C75.4237 22.211 75.8219 22.7484 76.5685 23.1732C76.9199 23.4165 77.3276 23.565 77.7525 23.6043C78.1775 23.6437 78.6054 23.5727 78.9951 23.3982C79.7666 22.9483 79.3684 22.411 78.6218 21.9861C78.2705 21.7429 77.8627 21.5944 77.4378 21.555C77.0128 21.5156 76.585 21.5866 76.1952 21.7612ZM78.8085 23.2857C78.4725 23.4856 77.6761 23.0608 77.2156 22.7984C76.7552 22.5359 76.0334 22.0736 76.3819 21.8737C76.7303 21.6737 77.5018 22.0986 77.9747 22.361C78.4476 22.6234 79.1444 23.0733 78.8085 23.2732V23.2857Z" fill="#687A51"/>
<path d="M78.4959 20.4118C77.7244 20.8617 78.135 21.3865 78.8817 21.8239C79.2411 22.0764 79.6605 22.229 80.0976 22.2663C80.5347 22.3036 80.9738 22.2243 81.3705 22.0363C82.142 21.5865 81.7313 21.0616 80.9971 20.6368C80.6375 20.38 80.2164 20.2238 79.7768 20.1843C79.3373 20.1448 78.8952 20.2233 78.4959 20.4118ZM81.1713 21.9364C80.8354 22.1238 80.0389 21.7114 79.5785 21.449C79.1181 21.1866 78.3341 20.7117 78.7323 20.5243C79.1305 20.3369 79.8647 20.7367 80.3252 21.0116C80.7856 21.2866 81.4576 21.7614 81.1713 21.9364Z" fill="#687A51"/>
<path d="M56.3706 12.202L54.7777 11.2773C54.5659 11.4152 54.3623 11.5654 54.168 11.7272H54.2551L54.4666 11.6522C54.5002 11.6312 54.539 11.62 54.5786 11.62C54.6182 11.62 54.657 11.6312 54.6906 11.6522L55.935 12.3895C56.0221 12.3895 56.0097 12.4645 55.935 12.502L55.7732 12.6269H55.8728L56.8559 12.0521H56.7563L56.5572 12.1521C56.5336 12.1767 56.5037 12.1944 56.4708 12.2032C56.4379 12.212 56.4033 12.2116 56.3706 12.202Z" fill="#FFF9E1"/>
<path d="M56.0986 10.5149C55.576 10.8148 55.8497 11.1772 56.3475 11.4646C56.5831 11.6297 56.8579 11.7294 57.1442 11.7535C57.4304 11.7776 57.718 11.7254 57.9777 11.602C58.4879 11.3021 58.2141 10.9522 57.7163 10.6648C57.4838 10.4988 57.2117 10.3975 56.9276 10.3711C56.6435 10.3448 56.3575 10.3944 56.0986 10.5149ZM57.8532 11.5395C57.6168 11.6645 57.0941 11.3896 56.783 11.2022C56.4719 11.0147 55.9866 10.7273 56.2231 10.5898C56.4595 10.4524 56.9697 10.7398 57.2808 10.9147C57.5919 11.0897 58.0772 11.3771 57.8532 11.5146V11.5395Z" fill="#FFF9E1"/>
<path d="M57.6416 9.58931C57.119 9.88922 57.3927 10.2516 57.8905 10.539C58.1254 10.705 58.3996 10.8061 58.6856 10.8324C58.9717 10.8588 59.2596 10.8093 59.5206 10.689C60.0433 10.3891 59.7695 10.0267 59.2718 9.73927C59.0368 9.57333 58.7627 9.47215 58.4766 9.44584C58.1906 9.41953 57.9027 9.469 57.6416 9.58931ZM59.3962 10.614C59.1722 10.739 58.6371 10.464 58.326 10.2891C58.0149 10.1142 57.5421 9.80175 57.766 9.66429C57.99 9.52683 58.5251 9.81425 58.8362 9.98919C59.1473 10.1641 59.6202 10.514 59.3962 10.614Z" fill="#FFF9E1"/>
<path d="M9.9682 39.1059L8.37538 38.1812C8.16356 38.319 7.95996 38.4692 7.76562 38.631H7.85273L8.06428 38.556C8.10022 38.5352 8.14099 38.5242 8.1825 38.5242C8.224 38.5242 8.26477 38.5352 8.30072 38.556L9.54511 39.2933C9.63222 39.2933 9.61977 39.3683 9.54511 39.4058L9.3709 39.5307H9.47044L10.4535 38.9684H10.354L10.1549 39.0684C10.13 39.0909 10.0995 39.1062 10.0666 39.1128C10.0338 39.1194 9.9998 39.117 9.9682 39.1059Z" fill="#FFF9E1"/>
<path d="M9.69238 37.3933C9.16973 37.6932 9.4435 38.0556 9.94126 38.343C10.1768 38.5081 10.4517 38.6078 10.7379 38.6319C11.0242 38.6561 11.3117 38.6038 11.5714 38.4804C12.0816 38.1805 11.8079 37.8306 11.3101 37.5432C11.0776 37.3772 10.8055 37.2759 10.5213 37.2496C10.2372 37.2232 9.95124 37.2728 9.69238 37.3933ZM11.447 38.4055C11.2105 38.5429 10.6879 38.268 10.3768 38.0806C10.0657 37.8931 9.58039 37.5932 9.81682 37.4683C10.0533 37.3433 10.5635 37.6182 10.8746 37.7932C11.1857 37.9681 11.671 38.2805 11.4843 38.4055H11.447Z" fill="#FFF9E1"/>
<path d="M11.2377 36.4941C10.7275 36.794 10.9888 37.1564 11.4866 37.4438C11.7227 37.6077 11.9974 37.7067 12.2834 37.7308C12.5694 37.7549 12.8568 37.7034 13.1168 37.5813C13.6394 37.2814 13.3656 36.9315 12.8679 36.6441C12.6329 36.4781 12.3588 36.3769 12.0727 36.3506C11.7867 36.3243 11.4988 36.3738 11.2377 36.4941ZM12.9923 37.5188C12.7683 37.6437 12.2332 37.3688 11.9221 37.1814C11.611 36.9939 11.1382 36.7065 11.3621 36.5691C11.5861 36.4316 12.1212 36.719 12.4323 36.894C12.7434 37.0689 13.2163 37.3813 12.9923 37.5188Z" fill="#FFF9E1"/>
<path d="M32.1426 53.0008L32.3417 53.1132C32.5159 53.2132 32.5035 53.3756 32.3417 53.4756L30.3631 54.6253C30.2681 54.6717 30.1639 54.6958 30.0582 54.6958C29.9526 54.6958 29.8483 54.6717 29.7534 54.6253L29.5418 54.5003C29.5102 54.4849 29.4836 54.461 29.465 54.4311C29.4464 54.4013 29.4365 54.3668 29.4365 54.3316C29.4365 54.2964 29.4464 54.2619 29.465 54.232C29.4836 54.2022 29.5102 54.1782 29.5418 54.1629L29.8156 53.988L27.3268 52.5759L26.9783 52.7134C26.8918 52.7505 26.7987 52.7696 26.7046 52.7696C26.6105 52.7696 26.5173 52.7505 26.4308 52.7134L26.2691 52.6134C26.1197 52.5259 26.1073 52.401 26.2691 52.301L27.3766 51.4013C27.4726 51.3373 27.5849 51.3026 27.7001 51.3013H27.7997C27.905 51.2686 28.0178 51.2686 28.1232 51.3013L31.2466 53.1132L31.5702 52.9633C31.6626 52.9276 31.7617 52.9124 31.8605 52.9189C31.9593 52.9254 32.0556 52.9533 32.1426 53.0008ZM37.1202 48.2398C38.5139 49.0395 38.7006 49.8642 37.618 50.4891C37.1987 50.7128 36.7375 50.8462 36.2639 50.8806C35.7903 50.9151 35.3148 50.8498 34.8678 50.689C35.4029 51.2763 35.3034 51.8261 34.5194 52.2885C33.9059 52.5857 33.2254 52.7156 32.546 52.6652C31.8667 52.6147 31.2126 52.3857 30.6493 52.0011C29.2556 51.1888 29.0689 50.3766 30.1516 49.7518C30.571 49.5289 31.0315 49.395 31.5046 49.3584C31.9777 49.3219 32.4533 49.3835 32.9017 49.5394C32.3666 48.9645 32.4662 48.4022 33.2501 47.9523C33.8598 47.6452 34.5402 47.5075 35.2208 47.5536C35.9014 47.5998 36.5572 47.8281 37.1202 48.2148V48.2398Z" fill="#FFF9E1"/>
<path d="M30.9972 53.3385L27.7991 51.4766H27.6622L26.5547 52.3638L26.7165 52.4638L27.1271 52.3013C27.199 52.2596 27.2805 52.2377 27.3635 52.2377C27.4465 52.2377 27.5281 52.2596 27.6 52.3013L30.0888 53.7633C30.263 53.8633 30.2381 53.9133 30.0888 54.0008L29.7528 54.2382L29.9519 54.3632L31.9305 53.2135L31.7314 53.0886L31.3207 53.2885C31.2741 53.321 31.2208 53.3423 31.1647 53.351C31.1086 53.3597 31.0513 53.3554 30.9972 53.3385Z" fill="#A5AA9F"/>
<path d="M30.4512 49.9027C29.4059 50.5026 29.9534 51.1524 30.9489 51.7897C31.4196 52.125 31.9703 52.3294 32.5451 52.382C33.1199 52.4347 33.6983 52.3338 34.2217 52.0896C35.2545 51.4897 34.707 50.765 33.7115 50.1902C33.241 49.8591 32.692 49.6583 32.1197 49.6078C31.5473 49.5574 30.9719 49.6591 30.4512 49.9027ZM33.9604 51.9396C33.5124 52.202 32.4546 51.6397 31.8324 51.2898C31.2102 50.9399 30.2396 50.3151 30.7 50.0402C31.1605 49.7653 32.2182 50.3401 32.8404 50.7025C33.4626 51.0649 34.4208 51.6772 33.9604 51.9396Z" fill="#A5AA9F"/>
<path d="M33.5472 48.1027C32.5143 48.7025 33.0619 49.3523 34.0574 49.9896C34.5267 50.3227 35.0752 50.5257 35.6475 50.5784C36.2198 50.631 36.7959 50.5314 37.3177 50.2895C38.363 49.6772 37.8154 48.9649 36.8199 48.3901C36.347 48.0591 35.796 47.8584 35.2217 47.808C34.6475 47.7576 34.0701 47.8592 33.5472 48.1027ZM37.0688 50.1396C36.6208 50.402 35.5506 49.8396 34.9284 49.4898C34.3062 49.1399 33.3481 48.5026 33.8085 48.2401C34.2689 47.9777 35.3142 48.5401 35.9364 48.9024C36.5586 49.2648 37.5292 49.8771 37.0688 50.1396Z" fill="#A5AA9F"/>
<path d="M60.5533 17.7752C58.6991 18.8499 58.6618 20.5868 60.4911 21.6365C61.5223 22.1632 62.6628 22.4378 63.8198 22.4378C64.9768 22.4378 66.1174 22.1632 67.1486 21.6365C69.0152 20.5493 69.0401 18.8249 67.2108 17.7627C66.1777 17.2408 65.037 16.97 63.8805 16.9722C62.7241 16.9744 61.5844 17.2494 60.5533 17.7752ZM66.7752 21.3991C65.8539 21.8698 64.8349 22.1152 63.8011 22.1152C62.7674 22.1152 61.7483 21.8698 60.827 21.3991C59.2093 20.4619 59.2342 18.8998 60.8893 17.9626C61.8092 17.4949 62.826 17.2512 63.8572 17.2512C64.8883 17.2512 65.905 17.4949 66.825 17.9626C68.4676 18.8998 68.4552 20.4369 66.8001 21.3991H66.7752Z" fill="#A5AA9F"/>
<path d="M21.2554 40.5048C19.4013 41.5795 19.3764 43.3164 21.2554 44.3661C22.2888 44.893 23.4315 45.1675 24.5904 45.1675C25.7494 45.1675 26.892 44.893 27.9254 44.3661C29.7796 43.2789 29.8044 41.5545 27.9876 40.4923C26.9429 39.9649 25.7894 39.6912 24.62 39.6934C23.4507 39.6955 22.2982 39.9735 21.2554 40.5048ZM27.4774 44.1287C26.5586 44.6003 25.5414 44.8462 24.5095 44.8462C23.4776 44.8462 22.4605 44.6003 21.5416 44.1287C19.9115 43.1915 19.9364 41.6295 21.5416 40.6923C22.4616 40.2245 23.4783 39.9808 24.5095 39.9808C25.5407 39.9808 26.5574 40.2245 27.4774 40.6923C29.1823 41.6794 29.1574 43.2165 27.5023 44.1787L27.4774 44.1287Z" fill="#A5AA9F"/>
<path d="M63.4774 18.1497C63.4068 18.2704 63.3071 18.3714 63.1875 18.4434C63.068 18.5155 62.9323 18.5562 62.793 18.562H62.6188C62.4816 18.564 62.347 18.6005 62.2275 18.6682C62.1079 18.7359 62.0071 18.8325 61.9344 18.9494V19.0494C61.8654 19.1669 61.7672 19.2643 61.6494 19.3322C61.5316 19.4002 61.3982 19.4362 61.2624 19.4367C60.9264 19.4367 60.8144 19.6992 61.0384 19.8241L62.7432 20.8238C62.9358 20.9229 63.1491 20.9743 63.3654 20.9738H66.016H66.1155V19.4367C66.1061 19.3591 66.0771 19.2851 66.0314 19.2217C65.9857 19.1583 65.9248 19.1076 65.8542 19.0744L64.1369 18.0122C63.913 17.9122 63.5396 18.0122 63.4774 18.1497Z" fill="#687A51"/>
<path d="M24.1652 40.9424C24.0946 41.0631 23.9949 41.1642 23.8753 41.2362C23.7558 41.3082 23.6201 41.349 23.4808 41.3548H23.3066C23.1798 41.3707 23.0581 41.4149 22.9505 41.4841C22.8428 41.5533 22.7519 41.6457 22.6844 41.7547V41.8546C22.6154 41.9721 22.5172 42.0696 22.3994 42.1375C22.2816 42.2054 22.1482 42.2414 22.0124 42.242C21.6764 42.242 21.5644 42.5044 21.7884 42.6294L23.4932 43.6291C23.6853 43.7283 23.8997 43.7757 24.1154 43.7665H26.766H26.8656V42.2295C26.8561 42.1518 26.8272 42.0779 26.7815 42.0145C26.7358 41.9511 26.6748 41.9004 26.6042 41.8671L24.8994 40.8799C24.6008 40.705 24.2274 40.7675 24.1652 40.9424Z" fill="#687A51"/>
<path d="M45.2945 29.8836L43.9754 30.2335L39.6947 27.7343C40.929 27.4042 42.2355 27.4742 43.4279 27.9342C43.6529 28.0088 43.891 28.0352 44.1268 28.0115C44.3626 27.9878 44.5908 27.9147 44.7967 27.7968C45.1949 27.5594 46.0411 26.7346 45.0954 26.1473C44.1496 25.56 41.6111 25.5975 38.7489 27.1845L37.0939 26.2223L35.9117 26.8971L37.5668 27.8593C35.2273 29.3213 34.4807 31.1957 37.0939 32.7077C39.0351 33.8324 41.4991 33.62 44.1123 32.9327L45.6056 32.5203L50.4836 35.3444C49.9734 35.5443 48.8037 35.7693 46.0909 35.107C45.8295 35.02 45.553 34.9884 45.2788 35.0142C45.0046 35.04 44.7388 35.1227 44.498 35.2569C44.3353 35.3373 44.1982 35.4618 44.1023 35.6164C44.0064 35.771 43.9556 35.9495 43.9556 36.1317C43.9556 36.3138 44.0064 36.4923 44.1023 36.6469C44.1982 36.8015 44.3353 36.926 44.498 37.0064C45.2074 37.4188 47.7957 37.8936 51.4791 35.9067L53.6319 37.1563L54.8141 36.4691L52.6613 35.2194C54.6025 34.0948 56.1829 31.8955 53.2213 30.146C50.8569 28.8714 48.3681 29.0589 45.2945 29.8836ZM42.3328 30.6584C41.7429 30.9121 41.1079 31.0429 40.4662 31.0429C39.8245 31.0429 39.1895 30.9121 38.5996 30.6584C37.5543 30.0586 37.517 29.1464 38.5249 28.4841L42.3328 30.6584ZM51.6533 34.6946L47.1735 32.0954C48.6527 31.6267 50.2558 31.7567 51.6409 32.4578C52.8728 33.1701 52.7733 34.0448 51.6533 34.6946Z" fill="#687A51"/>
<path d="M70.6955 28.1464L65.5064 31.1455L65.1953 30.9705L70.3969 27.959L70.6955 28.1464Z" fill="#A5AA9F"/>
<path d="M44.3987 43.3913L39.2095 46.4028L38.8984 46.2154L44.0876 43.2163L44.3987 43.3913Z" fill="#A5AA9F"/>
<path d="M37.2064 19.1245L24.2148 26.6471L54.3915 44.1416L67.3705 36.619L37.2064 19.1245Z" fill="#F9F8F2"/>
<path d="M67.3736 45.9537L54.3945 53.4763V44.1418L67.3736 36.6191V45.9537Z" fill="#E5E2D8"/>
<path d="M65.954 37.4432L35.7773 19.9487L37.4075 18.999L67.5717 36.4935V45.8406L65.954 46.7903V37.4432Z" fill="#788EFF"/>
<path d="M54.1336 44.2915L23.957 26.7971L25.5872 25.8599L55.7638 43.3543V52.7014L54.1336 53.6386V44.2915Z" fill="#788EFF"/>
<path d="M65.9531 37.4434L67.5709 36.4937V45.8407L65.9531 46.7904V37.4434Z" fill="#576FD3"/>
<path d="M54.1328 44.2917L55.763 43.3545V52.7015L54.1328 53.6387V44.2917Z" fill="#576FD3"/>
<g style="mix-blend-mode:multiply" opacity="0.8">
<g style="mix-blend-mode:multiply" opacity="0.8">
<path d="M32.889 41.5183C30.7172 40.4093 28.2474 40.0325 25.8457 40.4436C23.4116 40.0301 20.9097 40.4203 18.7153 41.5558C15.8283 43.2427 15.8407 45.9669 18.7153 47.6289C20.3053 48.485 22.0882 48.9153 23.892 48.8785H27.6252C29.4495 48.9222 31.2542 48.4917 32.8641 47.6289C35.8009 45.8919 35.7884 43.1803 32.889 41.5183Z" fill="#C4BEA3"/>
</g>
<g style="mix-blend-mode:multiply" opacity="0.8">
<path d="M24.0796 34.6072C21.9078 33.4982 19.438 33.1214 17.0363 33.5325C14.5982 33.1198 12.0926 33.5099 9.89344 34.6446C7.01888 36.3316 7.03133 39.0557 9.89344 40.7177C11.4829 41.5754 13.2661 42.0059 15.0701 41.9673H18.8033C20.6317 42.0121 22.4407 41.5816 24.0547 40.7177C26.9914 38.9808 26.979 36.2691 24.0796 34.6072Z" fill="#C4BEA3"/>
</g>
</g>
<g style="mix-blend-mode:multiply" opacity="0.4">
<path d="M105.624 39.2552C104.594 39.1719 103.561 39.3888 102.65 39.88L54.2807 67.9961C52.887 68.8084 52.7376 70.0205 53.9447 70.7203L82.9267 87.4775C83.6916 87.8785 84.5574 88.0437 85.4155 87.9523L108.113 39.6925C107.344 39.3058 106.479 39.1538 105.624 39.2552Z" fill="#50197C"/>
</g>
<path d="M137.93 57.7124C137.885 58.0434 137.755 58.3571 137.555 58.6239C137.355 58.8907 137.09 59.1017 136.786 59.2369L88.4158 87.3406C87.7004 87.7364 86.9034 87.9604 86.0873 87.9951C85.2712 88.0298 84.4582 87.8742 83.712 87.5405L54.7424 70.7833C54.5022 70.6751 54.2982 70.4997 54.1547 70.2781C54.0113 70.0565 53.9345 69.798 53.9336 69.5337C53.9336 69.2588 53.9336 69.0213 54.0083 68.6964C54.0756 68.3907 54.213 68.1051 54.4096 67.8621C54.6062 67.6191 54.8565 67.4256 55.1407 67.2969L103.573 39.1432C104.286 38.7418 105.084 38.5145 105.901 38.4798C106.718 38.4451 107.532 38.6038 108.276 38.9433L137.171 55.7005C137.389 55.7991 137.577 55.9519 137.719 56.1444C137.86 56.3369 137.95 56.5627 137.98 56.8002C138.017 57.1376 137.93 57.4375 137.93 57.7124Z" fill="#E0DBE1"/>
<path d="M103.572 39.1428L55.1401 67.2465C53.7463 68.0587 53.597 69.2708 54.8041 69.9706L83.7736 86.7403C84.5183 87.0798 85.3321 87.2386 86.1493 87.2039C86.9664 87.1691 87.7639 86.9418 88.4774 86.5404L136.86 58.4368C138.241 57.6245 138.39 56.4124 137.183 55.7126L108.214 38.9429C107.477 38.6137 106.675 38.4604 105.869 38.495C105.064 38.5297 104.278 38.7515 103.572 39.1428Z" fill="#788EFF"/>
<path d="M96.7535 46.6537C96.5753 46.7334 96.4182 46.8541 96.295 47.0061C96.1718 47.158 96.0859 47.337 96.0442 47.5284C96.035 47.6986 96.0777 47.8675 96.1667 48.0126C96.2556 48.1578 96.3865 48.2722 96.542 48.3406L98.4583 49.4403C98.9184 49.6525 99.4218 49.7529 99.9277 49.7334C100.434 49.7139 100.928 49.5749 101.37 49.3278L108.314 45.2916C108.488 45.2115 108.642 45.0921 108.763 44.9425C108.884 44.7929 108.969 44.6173 109.011 44.4294C109.021 44.2574 108.979 44.0865 108.89 43.9392C108.801 43.7919 108.669 43.6753 108.513 43.6046L106.597 42.505C106.137 42.2927 105.633 42.1923 105.127 42.2119C104.621 42.2314 104.127 42.3703 103.685 42.6174L96.7535 46.6537Z" fill="#F0F2FF"/>
<path opacity="0.4" d="M81.0857 79.7297C80.9075 79.8094 80.7504 79.9301 80.6272 80.0821C80.504 80.234 80.4181 80.413 80.3765 80.6044C80.3664 80.7763 80.4086 80.9473 80.4975 81.0945C80.5864 81.2418 80.7178 81.3585 80.8742 81.4291L84.6074 83.5535C85.067 83.7608 85.5685 83.8574 86.0719 83.8357C86.5752 83.8141 87.0666 83.6746 87.5068 83.4285L95.0852 79.0299C95.2597 78.9498 95.4134 78.8303 95.5343 78.6808C95.6552 78.5312 95.74 78.3556 95.7821 78.1677C95.7921 77.9957 95.7499 77.8248 95.661 77.6775C95.5721 77.5302 95.4407 77.4135 95.2843 77.3429L91.5511 75.2186C91.0901 75.0082 90.5862 74.91 90.0803 74.9317C89.5744 74.9534 89.0807 75.0945 88.6392 75.3435L81.0857 79.7297Z" fill="#3452A5"/>
<path d="M94.7495 79.1061L87.1835 83.5047C86.8184 83.7074 86.4113 83.8219 85.9944 83.8393C85.5776 83.8566 85.1624 83.7763 84.7818 83.6046L81.0487 81.4803C80.4389 81.1179 80.5136 80.4931 81.2229 80.0807L88.7888 75.6821C89.1539 75.4794 89.5611 75.3649 89.9779 75.3475C90.3948 75.3302 90.8099 75.4105 91.1905 75.5822L94.9237 77.7065C95.5334 78.0689 95.4588 78.6937 94.7495 79.1061Z" fill="#FFC440"/>
<g opacity="0.6">
<path opacity="0.6" d="M90.6789 76.4688L88.3021 77.8559C87.8639 77.7022 87.3987 77.6418 86.936 77.6783C86.4732 77.7149 86.0231 77.8477 85.6143 78.0683C84.8303 78.5307 84.6934 79.193 85.2409 79.6303L82.7522 81.0799L81.1593 80.1677L80.9727 80.3176L86.784 83.6791C86.8761 83.6547 86.9642 83.6168 87.0453 83.5666L85.6143 82.7419L88.1031 81.2798C88.5344 81.4211 88.9901 81.4718 89.4417 81.4288C89.8934 81.3858 90.3315 81.25 90.7287 81.0299C91.4878 80.5925 91.6371 79.9552 91.1394 79.5179L93.5286 78.1308L94.9597 78.9555C95.0196 78.9078 95.0739 78.8533 95.1215 78.7931L89.3848 75.4941L89.0986 75.5941L90.6789 76.4688ZM87.8915 81.1799L85.4027 82.6169L82.9139 81.2048L85.4027 79.7553L87.8915 81.1549V81.1799ZM88.3395 81.1799L90.9154 79.6803C91.3136 80.0552 91.1767 80.5925 90.5421 80.9299C90.2076 81.111 89.8404 81.2231 89.4621 81.2596C89.0839 81.2961 88.7022 81.2562 88.3395 81.1424V81.1799ZM88.0657 78.0308L85.4774 79.5304C85.0294 79.1555 85.1538 78.6057 85.8134 78.2808C86.1483 78.0783 86.5216 77.9481 86.9094 77.8987C87.2972 77.8492 87.691 77.8814 88.0657 77.9934V78.0308ZM90.7163 79.5304L88.1155 81.0799L85.6267 79.6553L88.2648 78.1308L90.7163 79.5304ZM90.8781 76.6188L93.3668 78.0433L91.0025 79.4179L88.5137 77.9934L90.8781 76.6188Z" fill="#D88C1D"/>
</g>
<path d="M128.31 58.9244C129.994 58.9244 131.359 58.1299 131.359 57.1499C131.359 56.1699 129.994 55.3755 128.31 55.3755C126.627 55.3755 125.262 56.1699 125.262 57.1499C125.262 58.1299 126.627 58.9244 128.31 58.9244Z" fill="#F4AC1C"/>
<path d="M123.346 61.8106C125.029 61.8106 126.394 61.0162 126.394 60.0362C126.394 59.0562 125.029 58.2617 123.346 58.2617C121.662 58.2617 120.297 59.0562 120.297 60.0362C120.297 61.0162 121.662 61.8106 123.346 61.8106Z" fill="#B53333"/>
<path d="M71.2794 74.3947L70.8189 74.6696C70.6074 74.7946 70.5078 74.9195 70.5078 75.0695C70.5078 75.2194 70.6074 75.3444 70.8189 75.4694L72.4366 76.3941C72.6439 76.517 72.8803 76.5817 73.1211 76.5815C73.3602 76.5815 73.5955 76.5214 73.8055 76.4066L74.2659 76.1316C74.4774 76.0067 74.5895 75.8817 74.5895 75.7318C74.5895 75.5818 74.4774 75.4694 74.2659 75.3319L72.6482 74.4072C72.4414 74.2831 72.2047 74.2183 71.9638 74.2198C71.7247 74.2197 71.4894 74.2799 71.2794 74.3947ZM73.9175 75.5193C74.1912 75.6818 74.1912 75.8317 73.9175 75.9817L73.5317 76.2066C73.4139 76.2796 73.2782 76.3183 73.1397 76.3183C73.0013 76.3183 72.8656 76.2796 72.7477 76.2066L71.1674 75.2819C70.8936 75.132 70.8811 74.982 71.1674 74.8321L71.5531 74.6071C71.6718 74.5302 71.8101 74.4893 71.9513 74.4893C72.0926 74.4893 72.2309 74.5302 72.3495 74.6071L73.9175 75.5193Z" fill="#F4A9FF"/>
<path d="M73.7059 72.9952L73.233 73.2576C73.0214 73.3825 72.9219 73.5075 72.9219 73.6575C72.9219 73.8074 73.0214 73.9324 73.2454 74.0573L74.8507 74.982C75.0595 75.1122 75.3019 75.1775 75.5476 75.1695C75.7825 75.1679 76.0134 75.1078 76.2196 74.9945L76.6924 74.7196C76.904 74.5947 77.0035 74.4697 77.0035 74.3322C77.0035 74.1948 76.904 74.0573 76.68 73.9324L75.0747 72.9952C74.8635 72.8707 74.6227 72.8059 74.3778 72.8077C74.1406 72.8046 73.9075 72.8696 73.7059 72.9952ZM76.3315 74.1073C76.6053 74.2698 76.6053 74.4197 76.3315 74.5697L75.9582 74.7946C75.8395 74.8715 75.7013 74.9125 75.56 74.9125C75.4188 74.9125 75.2805 74.8715 75.1618 74.7946L73.5814 73.8824C73.3076 73.7199 73.3076 73.57 73.5814 73.42L73.9547 73.1951C74.0734 73.1182 74.2117 73.0772 74.3529 73.0772C74.4942 73.0772 74.6325 73.1182 74.7511 73.1951L76.3315 74.1073Z" fill="#F4A9FF"/>
<path d="M76.0223 71.6577L75.5618 71.9201C75.3503 72.0451 75.2383 72.1825 75.2383 72.32C75.2383 72.4574 75.3503 72.5949 75.5618 72.7198L77.1795 73.6571C77.3864 73.7811 77.6231 73.846 77.864 73.8445C78.1039 73.8386 78.3387 73.7743 78.5484 73.6571L79.0088 73.3821C79.2204 73.2572 79.3199 73.1322 79.3324 72.9948C79.3448 72.8573 79.2204 72.7198 79.0088 72.5949L77.3911 71.6577C77.1838 71.5348 76.9474 71.47 76.7067 71.4702C76.4658 71.4688 76.2291 71.5336 76.0223 71.6577ZM78.6604 72.7823C78.9217 72.9323 78.9342 73.0822 78.6604 73.2322L78.2746 73.4571C78.1578 73.533 78.0217 73.5733 77.8826 73.5733C77.7436 73.5733 77.6074 73.533 77.4906 73.4571L75.8978 72.5449C75.6365 72.3825 75.624 72.2325 75.8978 72.0825L76.2711 71.8576C76.3909 71.7835 76.5287 71.7443 76.6694 71.7443C76.81 71.7443 76.9478 71.7835 77.0676 71.8576L78.6604 72.7823Z" fill="#F4A9FF"/>
<path d="M78.3848 70.2832L77.9244 70.5456C77.7128 70.6705 77.6133 70.808 77.6133 70.9455C77.6133 71.0829 77.7128 71.2204 77.9244 71.3453L79.5421 72.2825C79.7494 72.4055 79.9858 72.4702 80.2265 72.47C80.4674 72.4714 80.7041 72.4066 80.9109 72.2825L81.3714 72.0076C81.5829 71.8952 81.6949 71.7577 81.6949 71.6203C81.6949 71.4828 81.5829 71.3453 81.3714 71.2204L79.7536 70.2832C79.5468 70.1591 79.3101 70.0943 79.0692 70.0957C78.8285 70.0955 78.5921 70.1603 78.3848 70.2832ZM81.0229 71.4078C81.2967 71.5578 81.2967 71.7077 81.0229 71.8577L80.6372 72.0826C80.5204 72.1585 80.3843 72.1988 80.2452 72.1988C80.1061 72.1988 79.97 72.1585 79.8532 72.0826L78.2728 71.1704C77.999 71.0079 77.999 70.858 78.2728 70.708L78.6835 70.4956C78.8032 70.4215 78.9411 70.3823 79.0817 70.3823C79.2223 70.3823 79.3602 70.4215 79.4799 70.4956L81.0229 71.4078Z" fill="#F4A9FF"/>
<path d="M84.159 66.9348L83.6985 67.2097C83.487 67.3222 83.375 67.4596 83.375 67.5971C83.375 67.7345 83.487 67.872 83.6985 67.9969L85.3038 68.9341C85.5157 69.057 85.756 69.1216 86.0007 69.1216C86.2414 69.1218 86.4778 69.0571 86.6851 68.9341L87.1455 68.6717C87.2273 68.6358 87.2993 68.5808 87.3556 68.5112C87.4119 68.4416 87.4508 68.3596 87.4691 68.2719C87.4691 68.1344 87.3571 67.9969 87.1455 67.872L85.5278 66.9348C85.3388 66.8221 85.1251 66.7578 84.9056 66.7473C84.6437 66.7339 84.3837 66.7992 84.159 66.9348ZM86.7971 68.0594C87.0584 68.2094 87.0709 68.3718 86.7971 68.5218L86.4113 68.7342C86.2935 68.8072 86.1578 68.8458 86.0193 68.8458C85.8809 68.8458 85.7452 68.8072 85.6274 68.7342L84.0345 67.8095C83.7732 67.6595 83.7608 67.4971 84.0345 67.3471L84.4079 67.1347C84.5276 67.0606 84.6654 67.0214 84.806 67.0214C84.9467 67.0214 85.0845 67.0606 85.2043 67.1347L86.7971 68.0594Z" fill="#F4A9FF"/>
<path d="M86.5254 65.5593L86.065 65.8342C85.8535 65.9592 85.7539 66.0841 85.7539 66.2216C85.7539 66.359 85.8535 66.4965 86.065 66.6214L87.6827 67.5586C87.89 67.6816 88.1264 67.7463 88.3671 67.7461C88.6081 67.7475 88.8448 67.6827 89.0516 67.5586L89.512 67.2962C89.7235 67.1713 89.8355 67.0338 89.8355 66.8964C89.8355 66.7589 89.7235 66.6214 89.512 66.4965L87.8943 65.5593C87.6843 65.4444 87.449 65.3843 87.2099 65.3843C86.9708 65.3843 86.7354 65.4444 86.5254 65.5593ZM89.1636 66.6839C89.4373 66.8464 89.4373 66.9963 89.1636 67.1463L88.7778 67.3712C88.66 67.4442 88.5243 67.4828 88.3858 67.4828C88.2474 67.4828 88.1117 67.4442 87.9938 67.3712L86.4135 66.4465C86.1397 66.2966 86.1397 66.1466 86.4135 65.9966L86.7992 65.7717C86.9179 65.6948 87.0561 65.6539 87.1974 65.6539C87.3387 65.6539 87.4769 65.6948 87.5956 65.7717L89.1636 66.6839Z" fill="#F4A9FF"/>
<path d="M88.9012 64.2477L88.4283 64.5226C88.2167 64.6476 88.1172 64.7725 88.1172 64.91C88.1172 65.0474 88.2292 65.1849 88.4407 65.3099L90.046 66.2471C90.2579 66.3699 90.4982 66.4345 90.7429 66.4345C90.9801 66.4376 91.2132 66.3726 91.4148 66.2471L91.8877 65.9847C92.0993 65.8597 92.1988 65.7347 92.1988 65.5848C92.1988 65.4348 92.0993 65.3099 91.8753 65.1849L90.27 64.2477C90.0594 64.1343 89.8245 64.0743 89.5856 64.0728C89.3465 64.0727 89.1112 64.1329 88.9012 64.2477ZM91.5268 65.3723C91.8006 65.5348 91.8006 65.6847 91.5268 65.8347L91.1535 66.0596C91.0338 66.1337 90.8959 66.1729 90.7553 66.1729C90.6147 66.1729 90.4768 66.1337 90.3571 66.0596L88.7767 65.1349C88.5029 64.985 88.5029 64.835 88.7767 64.6851L89.15 64.4601C89.2687 64.3832 89.407 64.3423 89.5482 64.3423C89.6895 64.3423 89.8278 64.3832 89.9465 64.4601L91.5268 65.3723Z" fill="#F4A9FF"/>
<path d="M91.2644 62.8102L90.804 63.0851C90.5925 63.2101 90.4805 63.3351 90.4805 63.485C90.4805 63.635 90.5925 63.7599 90.804 63.8724L92.4217 64.8096C92.629 64.9327 92.8653 64.9977 93.1061 64.9977C93.3469 64.9977 93.5833 64.9327 93.7906 64.8096L94.251 64.5472C94.4625 64.4222 94.5621 64.2973 94.5745 64.1473C94.587 63.9974 94.4625 63.8724 94.251 63.7474L92.6333 62.8227C92.4265 62.6987 92.1898 62.6338 91.9489 62.6353C91.7098 62.6353 91.4744 62.6954 91.2644 62.8102ZM93.9026 63.9349C94.1639 64.0973 94.1763 64.2473 93.9026 64.3972L93.5168 64.6222C93.399 64.6951 93.2633 64.7338 93.1248 64.7338C92.9864 64.7338 92.8507 64.6951 92.7328 64.6222L91.14 63.6974C90.8787 63.5475 90.8662 63.3975 91.14 63.2476L91.5258 63.0227C91.6426 62.9468 91.7787 62.9065 91.9177 62.9065C92.0568 62.9065 92.193 62.9468 92.3097 63.0227L93.9026 63.9349Z" fill="#F4A9FF"/>
<path d="M97.0379 59.4742L96.565 59.7366C96.3535 59.8615 96.2539 59.999 96.2539 60.1365C96.2539 60.2739 96.3535 60.4114 96.5775 60.5363L98.1827 61.4735C98.3946 61.5964 98.6349 61.661 98.8796 61.661C99.1168 61.6641 99.3499 61.5991 99.5516 61.4735L100.024 61.1986C100.236 61.0862 100.336 60.9487 100.336 60.8112C100.336 60.6738 100.236 60.5363 100.012 60.4114L98.4067 59.4742C98.1955 59.3497 97.9547 59.2849 97.7098 59.2867C97.4726 59.2836 97.2395 59.3486 97.0379 59.4742ZM99.6635 60.5988C99.9373 60.7488 99.9373 60.8987 99.6635 61.0487L99.2902 61.2736C99.1715 61.3505 99.0333 61.3915 98.892 61.3915C98.7508 61.3915 98.6125 61.3505 98.4938 61.2736L96.9134 60.3614C96.6397 60.1989 96.6397 60.049 96.9134 59.899L97.2868 59.6741C97.4065 59.6 97.5443 59.5608 97.685 59.5608C97.8256 59.5608 97.9634 59.6 98.0832 59.6741L99.6635 60.5988Z" fill="#F4A9FF"/>
<path d="M99.4011 58.0997L98.9407 58.3622C98.7292 58.4871 98.6172 58.6246 98.6172 58.762C98.6172 58.8995 98.7292 59.0369 98.9407 59.1619L100.558 60.0991C100.765 60.2232 101.002 60.288 101.243 60.2866C101.484 60.2868 101.72 60.222 101.927 60.0991L102.388 59.8242C102.47 59.7922 102.542 59.7399 102.599 59.6722C102.656 59.6045 102.694 59.5235 102.711 59.4368C102.711 59.2994 102.599 59.1619 102.388 59.0369L100.77 58.0997C100.563 57.9766 100.326 57.9116 100.086 57.9116C99.8448 57.9116 99.6084 57.9766 99.4011 58.0997ZM102.039 59.2244C102.301 59.3743 102.313 59.5243 102.039 59.6867L101.654 59.8992C101.537 59.975 101.401 60.0154 101.262 60.0154C101.122 60.0154 100.986 59.975 100.87 59.8992L99.2767 58.987C99.0154 58.8245 99.003 58.6746 99.2767 58.5246L99.65 58.3122C99.7687 58.2352 99.907 58.1943 100.048 58.1943C100.19 58.1943 100.328 58.2352 100.446 58.3122L102.039 59.2244Z" fill="#F4A9FF"/>
<path d="M101.768 56.7505L101.307 57.0129C101.096 57.1378 100.996 57.2753 100.996 57.4127C100.996 57.5502 101.096 57.6877 101.307 57.8126L102.925 58.7498C103.132 58.8727 103.369 58.9375 103.609 58.9373C103.85 58.9387 104.087 58.8739 104.294 58.7498L104.754 58.4749C104.966 58.3624 105.078 58.225 105.078 58.0875C105.078 57.9501 104.966 57.8126 104.754 57.6877L103.136 56.7505C102.93 56.6264 102.693 56.5616 102.452 56.563C102.211 56.5628 101.975 56.6275 101.768 56.7505ZM104.406 57.8751C104.68 58.0251 104.68 58.1875 104.406 58.3374L104.02 58.5499C103.903 58.6257 103.767 58.6661 103.628 58.6661C103.489 58.6661 103.353 58.6257 103.236 58.5499L101.656 57.6377C101.382 57.4752 101.382 57.3253 101.656 57.1753L102.041 56.9629C102.161 56.8888 102.299 56.8496 102.44 56.8496C102.58 56.8496 102.718 56.8888 102.838 56.9629L104.406 57.8751Z" fill="#F4A9FF"/>
<path d="M104.143 55.351L103.67 55.6259C103.459 55.7384 103.359 55.8759 103.359 56.0133C103.359 56.1508 103.471 56.2882 103.683 56.4132L105.288 57.3504C105.5 57.4732 105.74 57.5379 105.985 57.5378C106.222 57.541 106.455 57.4759 106.657 57.3504L107.13 57.088C107.341 56.963 107.441 56.8256 107.441 56.6881C107.441 56.5507 107.341 56.4132 107.117 56.2882L105.512 55.351C105.305 55.2281 105.068 55.1634 104.828 55.1636C104.587 55.1621 104.35 55.227 104.143 55.351ZM106.769 56.4757C107.043 56.6256 107.043 56.7881 106.769 56.938L106.396 57.1505C106.276 57.2245 106.138 57.2638 105.997 57.2638C105.857 57.2638 105.719 57.2245 105.599 57.1505L104.019 56.2258C103.745 56.0758 103.745 55.9134 104.019 55.7634L104.392 55.551C104.512 55.4769 104.65 55.4377 104.79 55.4377C104.931 55.4377 105.069 55.4769 105.189 55.551L106.769 56.4757Z" fill="#F4A9FF"/>
<path d="M109.904 52.0021L109.444 52.277C109.232 52.402 109.133 52.527 109.133 52.6769C109.133 52.8269 109.232 52.9518 109.444 53.0643L111.062 54.0015C111.269 54.1244 111.505 54.1891 111.746 54.1889C111.987 54.1904 112.224 54.1256 112.43 54.0015L112.891 53.7391C113.102 53.6141 113.214 53.4892 113.214 53.3392C113.214 53.1892 113.102 53.0643 112.891 52.9393L111.273 52.0146C111.066 51.8905 110.83 51.8257 110.589 51.8272C110.35 51.8287 110.115 51.8888 109.904 52.0021ZM112.542 53.1268C112.816 53.2892 112.816 53.4392 112.542 53.5891L112.157 53.8141C112.039 53.887 111.903 53.9257 111.765 53.9257C111.626 53.9257 111.491 53.887 111.373 53.8141L109.792 52.8769C109.519 52.7269 109.519 52.5769 109.792 52.427L110.178 52.2021C110.297 52.1251 110.435 52.0842 110.576 52.0842C110.718 52.0842 110.856 52.1251 110.975 52.2021L112.542 53.1268Z" fill="#F4A9FF"/>
<path d="M112.284 50.6266L111.811 50.9015C111.6 51.0265 111.5 51.1514 111.5 51.3014C111.5 51.4513 111.612 51.5763 111.824 51.7013L113.429 52.626C113.641 52.7488 113.881 52.8134 114.126 52.8134C114.361 52.8119 114.592 52.7518 114.798 52.6385L115.271 52.3636C115.482 52.2386 115.582 52.1136 115.582 51.9637C115.582 51.8137 115.482 51.6888 115.258 51.5638L113.653 50.6391C113.446 50.5162 113.209 50.4515 112.968 50.4517C112.729 50.4516 112.494 50.5118 112.284 50.6266ZM114.91 51.7512C115.183 51.9137 115.183 52.0637 114.91 52.2136L114.536 52.4385C114.417 52.5126 114.279 52.5518 114.138 52.5518C113.998 52.5518 113.86 52.5126 113.74 52.4385L112.16 51.5138C111.886 51.3639 111.886 51.2139 112.16 51.064L112.533 50.839C112.652 50.7621 112.79 50.7212 112.931 50.7212C113.072 50.7212 113.211 50.7621 113.329 50.839L114.91 51.7512Z" fill="#F4A9FF"/>
<path d="M114.647 49.2521L114.187 49.5145C113.975 49.6395 113.863 49.7644 113.863 49.9144C113.863 50.0643 113.975 50.1893 114.187 50.3142L115.805 51.239C116.011 51.363 116.248 51.4279 116.489 51.4264C116.728 51.4264 116.963 51.3663 117.173 51.2515L117.634 50.9765C117.845 50.8516 117.945 50.7266 117.957 50.5892C117.97 50.4517 117.845 50.3142 117.634 50.1768L116.016 49.2521C115.809 49.1289 115.572 49.064 115.332 49.064C115.091 49.064 114.854 49.1289 114.647 49.2521ZM117.285 50.3642C117.547 50.5267 117.559 50.6766 117.285 50.8266L116.9 51.0515C116.783 51.1274 116.647 51.1677 116.508 51.1677C116.369 51.1677 116.232 51.1274 116.116 51.0515L114.523 50.1393C114.261 49.9768 114.249 49.8269 114.523 49.6769L114.909 49.452C115.025 49.3762 115.161 49.3358 115.301 49.3358C115.44 49.3358 115.576 49.3762 115.693 49.452L117.285 50.3642Z" fill="#F4A9FF"/>
<path d="M117.694 47.7022C117.453 47.702 117.217 47.7667 117.01 47.8896L116.549 48.152C116.338 48.277 116.238 48.402 116.238 48.5519C116.238 48.7019 116.338 48.8268 116.549 48.9518L118.167 49.889C118.374 50.0125 118.611 50.0732 118.852 50.0639C119.092 50.0732 119.329 50.0125 119.536 49.889L119.996 49.6141C120.208 49.4891 120.32 49.3642 120.32 49.2267C120.32 49.0892 120.208 48.9518 119.996 48.8268L118.379 47.8896C118.172 47.7655 117.935 47.7007 117.694 47.7022ZM119.648 48.9518C119.922 49.1142 119.922 49.2642 119.648 49.4141L119.275 49.6391C119.156 49.716 119.018 49.7569 118.876 49.7569C118.735 49.7569 118.597 49.716 118.478 49.6391L116.898 48.7269C116.624 48.5644 116.624 48.4144 116.898 48.2645L117.284 48.0396C117.402 47.9626 117.541 47.9217 117.682 47.9217C117.823 47.9217 117.961 47.9626 118.08 48.0396L119.648 48.9518Z" fill="#F4A9FF"/>
<path d="M116.117 48.4899C116.117 48.6399 116.229 48.7648 116.453 48.9023L118.133 49.8645C118.346 49.9968 118.592 50.0661 118.842 50.0644C119.081 50.0629 119.316 50.0028 119.527 49.8895L119.987 49.6145C120.199 49.4896 120.311 49.3646 120.298 49.2147C120.286 49.0647 120.186 48.9398 119.962 48.8023L118.295 47.8401C118.082 47.7078 117.836 47.6385 117.586 47.6402C117.343 47.6402 117.103 47.7002 116.889 47.8151L116.428 48.09C116.217 48.215 116.117 48.3399 116.117 48.4899ZM116.802 48.7148C116.528 48.5524 116.515 48.3899 116.802 48.24L117.187 48.0275C117.308 47.951 117.449 47.9103 117.592 47.9103C117.735 47.9103 117.875 47.951 117.996 48.0275L119.639 48.9772C119.913 49.1397 119.925 49.3021 119.639 49.4521L119.253 49.6645C119.132 49.7411 118.992 49.7817 118.849 49.7817C118.706 49.7817 118.565 49.7411 118.444 49.6645L116.802 48.7148Z" fill="#F0F2FF"/>
<path d="M113.738 49.8645C113.738 50.0144 113.85 50.1519 114.074 50.2769L115.754 51.2391C115.967 51.3714 116.213 51.4407 116.464 51.439C116.704 51.4483 116.941 51.3875 117.148 51.2641L117.608 50.9891C117.82 50.8642 117.932 50.7392 117.932 50.5893C117.932 50.4393 117.807 50.3144 117.583 50.1769L115.916 49.2522C115.701 49.1256 115.456 49.0567 115.207 49.0522C114.968 49.0522 114.732 49.1124 114.522 49.2272L114.049 49.5021C113.838 49.5896 113.738 49.727 113.738 49.8645ZM114.435 50.0894C114.149 49.927 114.136 49.777 114.435 49.6146L114.821 49.4021C114.942 49.3256 115.082 49.2849 115.225 49.2849C115.368 49.2849 115.509 49.3256 115.63 49.4021L117.272 50.3518C117.546 50.5143 117.559 50.6767 117.272 50.8267L116.899 51.0516C116.778 51.1282 116.638 51.1688 116.495 51.1688C116.351 51.1688 116.211 51.1282 116.09 51.0516L114.435 50.0894Z" fill="#F0F2FF"/>
<path d="M111.359 51.2394C111.359 51.3893 111.484 51.5268 111.708 51.6518L113.375 52.6264C113.592 52.7492 113.836 52.8138 114.085 52.8139C114.325 52.8232 114.563 52.7624 114.769 52.6389L115.242 52.364C115.453 52.2516 115.553 52.1141 115.553 51.9642C115.553 51.8142 115.429 51.6893 115.205 51.5643L113.525 50.5896C113.309 50.463 113.065 50.3942 112.815 50.3897C112.574 50.3882 112.338 50.453 112.131 50.5771L111.658 50.8395C111.459 50.9645 111.359 51.1019 111.359 51.2394ZM112.056 51.4643C111.77 51.3019 111.77 51.1519 112.056 51.002L112.442 50.777C112.563 50.7005 112.703 50.6598 112.846 50.6598C112.99 50.6598 113.13 50.7005 113.251 50.777L114.893 51.7392C115.167 51.9017 115.18 52.0516 114.893 52.2016L114.508 52.4265C114.387 52.5031 114.246 52.5437 114.103 52.5437C113.96 52.5437 113.82 52.5031 113.699 52.4265L112.056 51.4643Z" fill="#F0F2FF"/>
<path d="M108.997 52.6139C108.997 52.7639 109.109 52.9013 109.333 53.0263L111.001 54.001C111.216 54.1276 111.46 54.1964 111.71 54.2009C111.951 54.2024 112.187 54.1375 112.394 54.0135L112.867 53.7511C113.079 53.6261 113.178 53.4886 113.178 53.3512C113.178 53.2137 113.066 53.0638 112.842 52.9388L111.162 51.9641C110.944 51.8432 110.702 51.7747 110.453 51.7642C110.212 51.7627 109.975 51.8276 109.769 51.9516L109.308 52.214C109.097 52.339 108.985 52.4765 108.997 52.6139ZM109.681 52.8388C109.395 52.6764 109.395 52.5264 109.681 52.3765L110.055 52.1516C110.176 52.075 110.316 52.0344 110.459 52.0344C110.602 52.0344 110.743 52.075 110.864 52.1516L112.506 53.1013C112.792 53.2637 112.792 53.4137 112.506 53.5636L112.12 53.7885C111.999 53.8651 111.859 53.9057 111.716 53.9057C111.573 53.9057 111.433 53.8651 111.312 53.7885L109.681 52.8388Z" fill="#F0F2FF"/>
<path d="M103.212 55.9755C103.212 56.1088 103.324 56.2463 103.548 56.3879L105.215 57.3501C105.428 57.4824 105.674 57.5517 105.925 57.55C106.17 57.5519 106.41 57.4871 106.622 57.3626L107.082 57.1002C107.293 56.9752 107.393 56.8378 107.393 56.7003C107.393 56.5629 107.281 56.4129 107.057 56.2879L105.377 55.3132C105.164 55.194 104.924 55.1313 104.68 55.1313C104.436 55.1313 104.196 55.194 103.983 55.3132L103.523 55.5882C103.311 55.7006 103.199 55.8256 103.212 55.9755ZM103.896 56.2005C103.623 56.038 103.61 55.8756 103.896 55.7256L104.282 55.5007C104.401 55.4237 104.539 55.3828 104.68 55.3828C104.822 55.3828 104.96 55.4237 105.078 55.5007L106.721 56.4504C107.007 56.6128 107.02 56.7753 106.721 56.9252L106.335 57.1377C106.214 57.2142 106.074 57.2549 105.931 57.2549C105.788 57.2549 105.648 57.2142 105.526 57.1377L103.896 56.2005Z" fill="#F0F2FF"/>
<path d="M100.836 57.3496C100.836 57.4995 100.948 57.6245 101.172 57.762L102.852 58.7242C103.065 58.8565 103.311 58.9258 103.561 58.9241C103.8 58.9226 104.035 58.8625 104.246 58.7492L104.706 58.4742C104.918 58.3493 105.03 58.2243 105.017 58.0744C105.005 57.9244 104.905 57.7995 104.681 57.662L103.014 56.7498C102.801 56.6175 102.555 56.5482 102.304 56.5498C102.061 56.5498 101.822 56.6099 101.607 56.7248L101.147 56.9997C100.935 57.0747 100.836 57.1996 100.836 57.3496ZM101.52 57.5745C101.247 57.4121 101.234 57.2496 101.52 57.0997L101.906 56.8872C102.027 56.8107 102.167 56.77 102.311 56.77C102.454 56.77 102.594 56.8107 102.715 56.8872L104.358 57.8369C104.631 57.9994 104.644 58.1618 104.358 58.3118L103.972 58.5242C103.851 58.6008 103.71 58.6414 103.567 58.6414C103.424 58.6414 103.284 58.6008 103.163 58.5242L101.52 57.5745Z" fill="#F0F2FF"/>
<path d="M98.457 58.7243C98.457 58.8742 98.569 59.0117 98.793 59.1366L100.473 60.0988C100.686 60.2311 100.932 60.3004 101.182 60.2988C101.422 60.308 101.66 60.2473 101.867 60.1238L102.327 59.8489C102.539 59.724 102.651 59.599 102.651 59.449C102.651 59.2991 102.526 59.1741 102.302 59.0367L100.635 58.0745C100.419 57.9479 100.175 57.879 99.9254 57.8745C99.6845 57.8731 99.4478 57.9379 99.241 58.062L98.7681 58.3244C98.5939 58.4494 98.457 58.5868 98.457 58.7243ZM99.1415 58.9492C98.8677 58.7867 98.8552 58.6368 99.1415 58.4743L99.5272 58.2619C99.6483 58.1853 99.7885 58.1447 99.9316 58.1447C100.075 58.1447 100.215 58.1853 100.336 58.2619L101.979 59.2116C102.252 59.3741 102.265 59.5365 101.979 59.6865L101.605 59.9114C101.484 59.988 101.344 60.0286 101.201 60.0286C101.058 60.0286 100.918 59.988 100.796 59.9114L99.1415 58.9492Z" fill="#F0F2FF"/>
<path d="M96.1055 60.0988C96.1055 60.2487 96.2299 60.3862 96.4539 60.5112L98.1214 61.4858C98.3378 61.6086 98.5821 61.6732 98.8307 61.6733C99.0709 61.6826 99.3086 61.6218 99.5151 61.4983L99.988 61.2234C100.2 61.111 100.299 60.9735 100.299 60.8236C100.299 60.6736 100.175 60.5486 99.9506 60.4237L98.2832 59.449C98.0653 59.328 97.8225 59.2596 97.5738 59.249C97.3329 59.2476 97.0963 59.3124 96.8894 59.4365L96.4166 59.6989C96.1801 59.8239 96.1055 59.9613 96.1055 60.0988ZM96.8023 60.3237C96.5161 60.1613 96.5037 60.0113 96.8023 59.8614L97.1881 59.6364C97.3092 59.5599 97.4494 59.5192 97.5925 59.5192C97.7356 59.5192 97.8758 59.5599 97.9969 59.6364L99.6395 60.5986C99.9133 60.7611 99.9257 60.911 99.6395 61.061L99.2662 61.2859C99.1451 61.3625 99.0049 61.4031 98.8618 61.4031C98.7187 61.4031 98.5785 61.3625 98.4574 61.2859L96.8023 60.3237Z" fill="#F0F2FF"/>
<path d="M90.3056 63.4605C90.3056 63.598 90.4176 63.7354 90.6416 63.8604L92.3091 64.8351C92.5246 64.9617 92.7688 65.0305 93.0184 65.035C93.2593 65.0365 93.496 64.9717 93.7028 64.8476L94.1757 64.5852C94.3872 64.4602 94.4868 64.3227 94.4868 64.1853C94.4868 64.0478 94.3748 63.8979 94.1508 63.7729L92.4709 62.7982C92.2551 62.6738 92.0104 62.6092 91.7616 62.6108C91.5214 62.6015 91.2837 62.6623 91.0772 62.7857L90.6167 63.0606C90.4052 63.1731 90.2932 63.3106 90.3056 63.4605ZM90.99 63.6854C90.7038 63.523 90.7038 63.3605 90.99 63.2106L91.3634 62.9857C91.4845 62.9091 91.6247 62.8685 91.7678 62.8685C91.9109 62.8685 92.0511 62.9091 92.1722 62.9857L93.8148 63.9354C94.101 64.0978 94.101 64.2478 93.8148 64.3977L93.4291 64.6227C93.308 64.6992 93.1677 64.7399 93.0246 64.7399C92.8815 64.7399 92.7413 64.6992 92.6202 64.6227L90.99 63.6854Z" fill="#F0F2FF"/>
<path d="M87.9306 64.8349C87.9306 64.9682 88.0426 65.1057 88.2666 65.2473L89.9341 66.2095C90.1471 66.3418 90.393 66.4111 90.6434 66.4094C90.8883 66.4112 91.1291 66.3465 91.3403 66.222L91.8007 65.9595C92.0122 65.8346 92.1118 65.6971 92.1118 65.5597C92.1118 65.4222 91.9998 65.2723 91.7758 65.1473L90.0959 64.1726C89.8828 64.0533 89.643 63.9907 89.399 63.9907C89.1551 63.9907 88.9152 64.0533 88.7022 64.1726L88.2417 64.4475C88.0302 64.56 87.9182 64.685 87.9306 64.8349ZM88.615 65.0598C88.3413 64.8974 88.3288 64.7349 88.615 64.585L89.0008 64.36C89.1195 64.2831 89.2578 64.2422 89.399 64.2422C89.5403 64.2422 89.6785 64.2831 89.7972 64.36L91.4398 65.3098C91.726 65.4722 91.7385 65.6347 91.4398 65.7846L91.0541 65.997C90.933 66.0736 90.7928 66.1142 90.6496 66.1142C90.5065 66.1142 90.3663 66.0736 90.2452 65.997L88.615 65.0598Z" fill="#F0F2FF"/>
<path d="M85.5547 66.2101C85.5547 66.3601 85.6667 66.4975 85.8907 66.6225L87.5582 67.5847C87.7725 67.714 88.0174 67.7831 88.2675 67.7846C88.5105 67.7846 88.7499 67.7245 88.9643 67.6097L89.4248 67.3348C89.6363 67.2098 89.7483 67.0848 89.7359 66.9349C89.7234 66.7849 89.6239 66.66 89.3999 66.5225L87.7324 65.5603C87.5194 65.428 87.2735 65.3587 87.0231 65.3604C86.78 65.3604 86.5407 65.4205 86.3262 65.5353L85.8658 65.8102C85.6542 65.9352 85.5547 66.0602 85.5547 66.2101ZM86.2391 66.435C85.9653 66.2726 85.9529 66.1102 86.2391 65.9602L86.6249 65.7478C86.7435 65.6708 86.8818 65.6299 87.0231 65.6299C87.1643 65.6299 87.3026 65.6708 87.4213 65.7478L89.0639 66.6975C89.3501 66.8599 89.3625 67.0224 89.0639 67.1723L88.6781 67.3848C88.5581 67.4643 88.4175 67.5067 88.2737 67.5067C88.1299 67.5067 87.9893 67.4643 87.8693 67.3848L86.2391 66.435Z" fill="#F0F2FF"/>
<path d="M83.1758 67.5841C83.1758 67.7341 83.2878 67.8716 83.5118 67.9965L85.1917 68.9712C85.4081 69.094 85.6524 69.1585 85.901 69.1587C86.1407 69.1633 86.3771 69.1028 86.5854 68.9837L87.0459 68.7088C87.2574 68.5838 87.3694 68.4589 87.357 68.3089C87.3445 68.159 87.245 68.034 87.021 67.8965L85.3535 66.9344C85.138 66.8077 84.8938 66.7389 84.6442 66.7344C84.3993 66.7326 84.1585 66.7974 83.9473 66.9219L83.4869 67.1843C83.2753 67.3092 83.1758 67.4467 83.1758 67.5841ZM83.8602 67.8091C83.5864 67.6466 83.574 67.4967 83.8602 67.3467L84.246 67.1218C84.3671 67.0452 84.5073 67.0046 84.6504 67.0046C84.7935 67.0046 84.9337 67.0452 85.0548 67.1218L86.6974 68.084C86.9712 68.2339 86.9836 68.3964 86.6974 68.5464L86.3241 68.7713C86.2006 68.8475 86.0584 68.8879 85.9134 68.8879C85.7685 68.8879 85.6263 68.8475 85.5028 68.7713L83.8602 67.8091Z" fill="#F0F2FF"/>
<path d="M77.4375 70.9323C77.4375 71.0822 77.5619 71.2197 77.7859 71.3446L79.4534 72.3193C79.6689 72.4459 79.9131 72.5148 80.1627 72.5193C80.4036 72.5207 80.6403 72.4559 80.8471 72.3318L81.32 72.0694C81.5315 71.9445 81.6311 71.807 81.6311 71.6695C81.6311 71.5321 81.5067 71.3821 81.2827 71.2572L79.6152 70.2825C79.3974 70.1615 79.1545 70.0931 78.9059 70.0825C78.665 70.0811 78.4283 70.1459 78.2215 70.27L77.7486 70.5324C77.4375 70.6574 77.4375 70.7948 77.4375 70.9323ZM78.1344 71.1572C77.8481 70.9948 77.8357 70.8448 78.1344 70.6949L78.5201 70.4699C78.6412 70.3934 78.7814 70.3527 78.9246 70.3527C79.0677 70.3527 79.2079 70.3934 79.329 70.4699L80.9716 71.4196C81.2453 71.5821 81.2578 71.732 80.9716 71.882L80.5982 72.1069C80.4771 72.1835 80.3369 72.2241 80.1938 72.2241C80.0507 72.2241 79.9105 72.1835 79.7894 72.1069L78.1344 71.1572Z" fill="#F0F2FF"/>
<path d="M75.0244 72.3199C75.0244 72.4574 75.1364 72.5948 75.3604 72.7198L77.0279 73.6945C77.2433 73.8211 77.4876 73.8899 77.7372 73.8944C77.9781 73.8959 78.2148 73.831 78.4216 73.707L78.8944 73.4445C79.106 73.3196 79.2055 73.1821 79.2055 73.0447C79.2055 72.9072 79.0936 72.7573 78.8571 72.6323L77.1896 71.6576C76.9732 71.5348 76.7289 71.4703 76.4803 71.4702C76.2401 71.4609 76.0024 71.5216 75.7959 71.6451L75.3355 71.92C75.1239 72.0325 75.0119 72.1699 75.0244 72.3199ZM75.7088 72.5448C75.4226 72.3824 75.4226 72.2199 75.7088 72.07L76.0821 71.845C76.2032 71.7685 76.3434 71.7279 76.4865 71.7279C76.6297 71.7279 76.7699 71.7685 76.891 71.845L78.5336 72.7947C78.8073 72.9572 78.8198 73.1071 78.5336 73.2571L78.1478 73.482C78.0267 73.5586 77.8865 73.5992 77.7434 73.5992C77.6003 73.5992 77.4601 73.5586 77.339 73.482L75.7088 72.5448Z" fill="#F0F2FF"/>
<path d="M72.6494 73.6944C72.6494 73.8277 72.7614 73.9652 72.9854 74.1068L74.6529 75.069C74.8659 75.2013 75.1117 75.2706 75.3622 75.2689C75.6052 75.2689 75.8446 75.2088 76.059 75.094L76.5194 74.8191C76.731 74.6941 76.8305 74.5566 76.8305 74.4192C76.8305 74.2817 76.7186 74.1318 76.4946 74.0068L74.8146 73.0446C74.6072 72.91 74.3647 72.8404 74.1178 72.8447C73.874 72.8384 73.6331 72.8989 73.4209 73.0196L72.9605 73.2945C72.7489 73.4195 72.6369 73.5445 72.6494 73.6944ZM73.3338 73.9193C73.06 73.7569 73.0476 73.5944 73.3338 73.4445L73.7071 73.2196C73.8282 73.143 73.9684 73.1024 74.1115 73.1024C74.2547 73.1024 74.3949 73.143 74.516 73.2196L76.1959 74.2442C76.4821 74.4067 76.4946 74.5691 76.1959 74.7191L75.8102 74.9315C75.689 75.0081 75.5488 75.0487 75.4057 75.0487C75.2626 75.0487 75.1224 75.0081 75.0013 74.9315L73.3338 73.9193Z" fill="#F0F2FF"/>
<path d="M70.6055 75.4941L72.273 76.4563C72.486 76.5886 72.7318 76.6579 72.9823 76.6562C73.2254 76.6562 73.4647 76.5961 73.6792 76.4813L74.1396 76.2063C74.3512 76.0814 74.4507 75.9564 74.4507 75.8065C74.4507 75.6565 74.3387 75.5316 74.1147 75.3941L72.4472 74.4319C72.2342 74.2996 71.9884 74.2303 71.7379 74.232C71.4948 74.232 71.2555 74.292 71.0411 74.4069L70.5806 74.6818C70.3691 74.8068 70.2695 74.9317 70.2695 75.0817C70.2695 75.2316 70.3815 75.3566 70.6055 75.4941ZM70.9539 75.3066C70.6802 75.1442 70.6677 74.9817 70.9539 74.8318L71.3397 74.6193C71.4584 74.5424 71.5966 74.5015 71.7379 74.5015C71.8792 74.5015 72.0174 74.5424 72.1361 74.6193L73.7787 75.569C74.0649 75.7315 74.0774 75.8939 73.7787 76.0439L73.393 76.2563C73.2729 76.3359 73.1323 76.3783 72.9885 76.3783C72.8447 76.3783 72.7041 76.3359 72.5841 76.2563L70.9539 75.3066Z" fill="#F0F2FF"/>
<path d="M63.4412 70.1209L62.9807 70.3833C62.7948 70.4891 62.5847 70.5451 62.371 70.5457C62.1519 70.5434 61.9372 70.4831 61.7488 70.3708L60.3924 69.5835C60.1933 69.4711 60.0938 69.3461 60.0938 69.2212C60.0938 69.0962 60.1809 68.9837 60.38 68.8713L60.8279 68.6088C61.0109 68.4958 61.223 68.4393 61.4377 68.4464C61.661 68.4465 61.8802 68.5069 62.0723 68.6213L62.259 68.7338C62.259 68.7338 62.259 68.7338 62.259 68.8088L62.0101 68.9587C61.9893 68.9708 61.9657 68.9771 61.9417 68.9771C61.9176 68.9771 61.894 68.9708 61.8732 68.9587L61.699 68.8463C61.6101 68.7947 61.5093 68.7676 61.4066 68.7676C61.3039 68.7676 61.2031 68.7947 61.1142 68.8463L60.7782 69.0462C60.5915 69.1587 60.5915 69.2711 60.7782 69.3836L62.0972 70.1459C62.1836 70.2044 62.2854 70.2357 62.3896 70.2357C62.4939 70.2357 62.5957 70.2044 62.6821 70.1459L63.0181 69.9459C63.2047 69.8459 63.2047 69.7335 63.0181 69.6085L62.8314 69.5086C62.8314 69.5086 62.8314 69.5086 62.8314 69.4336L63.0803 69.2836C63.1011 69.2716 63.1247 69.2652 63.1487 69.2652C63.1727 69.2652 63.1964 69.2716 63.2172 69.2836L63.4163 69.3961C63.6154 69.5086 63.7149 69.6335 63.7149 69.7585C63.7149 69.8834 63.6278 70.0084 63.4412 70.1209Z" fill="#F0F2FF"/>
<path d="M64.8472 69.2464L64.5983 69.3964C64.5775 69.4084 64.5539 69.4148 64.5299 69.4148C64.5059 69.4148 64.4823 69.4084 64.4614 69.3964L61.9727 67.9593C61.9727 67.9593 61.9727 67.9593 61.9727 67.8844L62.8935 67.347C63.0844 67.2422 63.2981 67.1864 63.5157 67.1846C63.7337 67.194 63.9467 67.2539 64.1379 67.3595L64.4739 67.5595C64.785 67.7469 64.8596 67.9218 64.6979 68.1218L66.0916 68.4217C66.1787 68.4217 66.1787 68.4217 66.0916 68.4967L65.8552 68.6466C65.7953 68.6709 65.7284 68.6709 65.6685 68.6466L64.3121 68.3467L63.9139 68.5841L64.7974 69.0965C64.7974 69.0965 64.8845 69.2464 64.8472 69.2464ZM63.6028 68.4217L64.1006 68.1343C64.2872 68.0218 64.2872 67.9093 64.1006 67.7969L63.7646 67.5969C63.6782 67.5384 63.5764 67.5071 63.4721 67.5071C63.3679 67.5071 63.2661 67.5384 63.1797 67.5969L62.682 67.8844L63.5406 68.3842C63.545 68.4057 63.5556 68.4255 63.5711 68.441C63.5866 68.4566 63.6062 68.4672 63.6277 68.4717L63.6028 68.4217Z" fill="#F0F2FF"/>
<path d="M67.9677 67.4837L66.7233 68.2084C66.7025 68.2205 66.6789 68.2268 66.6549 68.2268C66.6309 68.2268 66.6073 68.2205 66.5864 68.2084L64.0977 66.7839C64.0977 66.7839 64.0977 66.7839 64.0977 66.6964L65.3421 65.9716C65.3597 65.9574 65.3817 65.9497 65.4043 65.9497C65.4269 65.9497 65.4488 65.9574 65.4665 65.9716L65.678 66.0841C65.678 66.0841 65.678 66.0841 65.678 66.1591L64.7945 66.6839L65.4789 67.0838C65.4916 67.0929 65.5069 67.0979 65.5225 67.0979C65.5381 67.0979 65.5534 67.0929 65.5661 67.0838L66.3251 66.6464C66.3459 66.6344 66.3695 66.628 66.3936 66.628C66.4176 66.628 66.4412 66.6344 66.462 66.6464L66.6736 66.7714C66.6736 66.7714 66.6736 66.7714 66.6736 66.8464L65.9145 67.2837L66.6362 67.7086C66.6682 67.7211 66.7038 67.7211 66.7358 67.7086L67.6193 67.1838C67.6401 67.1717 67.6637 67.1653 67.6877 67.1653C67.7118 67.1653 67.7354 67.1717 67.7562 67.1838L67.9677 67.3087C67.9677 67.3087 68.0051 67.4587 67.9677 67.4837Z" fill="#F0F2FF"/>
<path d="M68.4654 67.1211L65.9766 65.684C65.9766 65.684 65.9766 65.684 65.9766 65.609L66.9472 65.0592C67.1303 64.945 67.3414 64.8844 67.557 64.8843C67.7761 64.8866 67.9907 64.9469 68.1792 65.0592L69.5231 65.8465C69.7222 65.9589 69.8218 66.0839 69.8342 66.2089C69.8466 66.3338 69.7347 66.4588 69.548 66.5587L68.5774 67.1211C68.5603 67.1309 68.541 67.1361 68.5214 67.1361C68.5017 67.1361 68.4824 67.1309 68.4654 67.1211ZM68.6022 66.7212L69.1622 66.3963C69.3489 66.2838 69.3365 66.1714 69.1622 66.0589L67.8432 65.2966C67.7575 65.2422 67.6583 65.2133 67.557 65.2133C67.4556 65.2133 67.3564 65.2422 67.2707 65.2966L66.7108 65.6215L68.54 66.6712C68.5398 66.6891 68.5459 66.7065 68.5573 66.7203C68.5687 66.734 68.5847 66.7432 68.6022 66.7462V66.7212Z" fill="#F0F2FF"/>
<path d="M68.5686 64.2474L71.0574 65.6845C71.0574 65.6845 71.0574 65.6845 71.0574 65.7595L70.821 65.8969C70.8002 65.909 70.7766 65.9153 70.7525 65.9153C70.7285 65.9153 70.7049 65.909 70.6841 65.8969L68.1953 64.4724C68.1953 64.4724 68.1953 64.4724 68.1953 64.3849L68.4442 64.2474C68.4635 64.2376 68.4848 64.2324 68.5064 64.2324C68.528 64.2324 68.5494 64.2376 68.5686 64.2474Z" fill="#F0F2FF"/>
<path d="M72.3891 64.9222L72.1402 65.0721C72.1194 65.0842 72.0958 65.0905 72.0718 65.0905C72.0478 65.0905 72.0242 65.0842 72.0034 65.0721L69.8505 63.8225H69.7634L69.2781 64.1099C69.2573 64.122 69.2337 64.1284 69.2097 64.1284C69.1856 64.1284 69.162 64.122 69.1412 64.1099L68.9297 63.985C68.9297 63.985 68.9297 63.985 68.9297 63.91L70.3856 63.0728C70.4052 63.0576 70.4293 63.0493 70.4541 63.0493C70.4788 63.0493 70.5029 63.0576 70.5225 63.0728L70.7341 63.1977C70.7341 63.1977 70.7341 63.1977 70.7341 63.2852L70.2363 63.5601L72.3891 64.8097C72.3891 64.8097 72.4638 64.8972 72.3891 64.9222Z" fill="#F0F2FF"/>
<path d="M75.3484 63.2108L74.8879 63.4732C74.7019 63.5791 74.4919 63.635 74.2782 63.6357C74.0591 63.6334 73.8444 63.5731 73.656 63.4608L72.312 62.6735C72.1129 62.561 72.0134 62.4361 72.0009 62.3111C71.9885 62.1861 72.1005 62.0737 72.2871 61.9612L72.7476 61.6988C72.9317 61.5884 73.1429 61.5321 73.3573 61.5364C73.5764 61.5386 73.7911 61.599 73.9795 61.7113L74.1786 61.8238C74.1786 61.8238 74.1786 61.8238 74.1786 61.9112L73.9297 62.0487C73.9089 62.0608 73.8853 62.0671 73.8613 62.0671C73.8373 62.0671 73.8137 62.0608 73.7929 62.0487L73.6062 61.9362C73.5206 61.8818 73.4213 61.8529 73.32 61.8529C73.2187 61.8529 73.1194 61.8818 73.0338 61.9362L72.6853 62.1237C72.4987 62.2361 72.5111 62.3486 72.6853 62.4611L73.992 63.2358C74.0795 63.2913 74.1809 63.3208 74.2844 63.3208C74.3879 63.3208 74.4893 63.2913 74.5768 63.2358L74.9501 62.9984C75.1368 62.8859 75.1244 62.7735 74.9501 62.661L74.7759 62.5485C74.7759 62.5485 74.7759 62.5485 74.7759 62.4736L75.0248 62.3236C75.0479 62.3116 75.0735 62.3053 75.0995 62.3053C75.1255 62.3053 75.1511 62.3116 75.1741 62.3236L75.3608 62.4486C75.5599 62.561 75.6594 62.6735 75.6719 62.7985C75.6843 62.9234 75.535 63.0984 75.3484 63.2108Z" fill="#F0F2FF"/>
<path d="M76.5801 62.4984L76.2938 62.6609C76.2938 62.6609 76.2192 62.6609 76.1819 62.6609L74.4023 60.8365C74.4023 60.8365 74.4023 60.8365 74.4023 60.749L74.7881 60.5241C74.8157 60.5124 74.8453 60.5063 74.8752 60.5063C74.9051 60.5063 74.9348 60.5124 74.9623 60.5241L78.1107 61.5612C78.1107 61.5612 78.1729 61.5612 78.1107 61.6362L77.8245 61.7862H77.7498L77.0778 61.5737L76.2192 62.0736L76.5925 62.4609C76.5925 62.4609 76.6174 62.4734 76.5801 62.4984ZM74.9499 60.8365L75.9081 61.7862L76.6174 61.3738L74.9748 60.824L74.9499 60.8365Z" fill="#F0F2FF"/>
<path d="M78.8973 61.1488L78.6608 61.2862C78.64 61.2983 78.6164 61.3046 78.5924 61.3046C78.5684 61.3046 78.5448 61.2983 78.5239 61.2862L76.0352 59.8617C76.0352 59.8617 76.0352 59.8617 76.0352 59.7867L76.956 59.2494C77.142 59.1435 77.352 59.0876 77.5658 59.0869C77.7891 59.087 78.0083 59.1474 78.2004 59.2619L78.5364 59.4618C78.8475 59.6367 78.9222 59.8242 78.7604 60.0116L80.1541 60.324C80.2412 60.324 80.2412 60.324 80.1541 60.399L79.9301 60.499C79.87 60.522 79.8036 60.522 79.7435 60.499L78.3871 60.1991L77.9889 60.424L78.8724 60.9488C78.8724 60.9488 78.947 61.1238 78.8973 61.1488ZM77.6529 60.3115L78.1506 60.0241C78.3373 59.9117 78.3373 59.7992 78.1506 59.6867L77.8147 59.4868C77.7271 59.4313 77.6257 59.4018 77.5222 59.4018C77.4187 59.4018 77.3173 59.4313 77.2298 59.4868L76.732 59.7742L77.5907 60.274C77.5947 60.2831 77.6005 60.2913 77.6077 60.2981C77.6149 60.3049 77.6234 60.3102 77.6326 60.3137C77.6419 60.3172 77.6517 60.3188 77.6616 60.3184C77.6715 60.318 77.6812 60.3157 77.6902 60.3115H77.6529Z" fill="#F0F2FF"/>
<path d="M80.6372 60.0615L78.1484 58.6245C78.1484 58.6245 78.1484 58.6245 78.1484 58.5495L79.1066 57.9872C79.2981 57.8837 79.5114 57.828 79.7288 57.8247C79.9479 57.827 80.1626 57.8873 80.351 57.9997L81.695 58.7869C81.8941 58.8994 81.9936 59.0243 81.9936 59.1493C81.9936 59.2742 81.9065 59.3867 81.7199 59.4992L80.7492 60.0615C80.7316 60.0694 80.7125 60.0735 80.6932 60.0735C80.6739 60.0735 80.6549 60.0694 80.6372 60.0615ZM80.7866 59.6491L81.3465 59.3367C81.5332 59.2243 81.5208 59.1118 81.3465 58.9993L80.0275 58.2371C79.943 58.1796 79.8433 58.1489 79.7413 58.1489C79.6392 58.1489 79.5395 58.1796 79.455 58.2371L78.8951 58.562L80.7243 59.6241C80.7243 59.6241 80.7617 59.6741 80.7866 59.6491Z" fill="#F0F2FF"/>
<path d="M44.1765 6.69028C40.0078 9.11451 37.4194 14.3004 37.3945 21.6856V31.9948L46.1053 26.8589V16.5622C46.1053 9.18949 48.7185 4.06611 52.8873 1.56689L44.1765 6.69028Z" fill="#7621D8"/>
<path d="M92.2198 37.7685C90.3034 26.722 83.3348 11.8517 69.5095 3.19189C63.0387 -0.556932 57.1527 -0.881831 52.9217 1.57989L44.2109 6.69078C48.4419 4.19157 54.2657 4.59144 60.7241 8.34026C71.9237 14.8507 81.2815 29.4461 83.4343 42.9169L80.398 44.6913C83.5618 48.2145 86.5082 51.9286 89.2208 55.8128C89.2208 55.8128 94.721 38.9306 95.3432 35.9691L92.2198 37.7685Z" fill="url(#paint0_linear)"/>
<path d="M24.3049 32.2207C22.2712 31.6406 20.1167 31.6406 18.083 32.2207C15.2333 33.0454 13.8022 34.57 13.7773 36.107C13.7773 36.6818 13.7773 37.2441 13.7773 37.8189C13.7773 39.3559 15.2582 40.868 18.1078 41.6677C20.1416 42.2478 22.2961 42.2478 24.3298 41.6677C27.1671 40.843 28.5981 39.3185 28.623 37.7814C28.623 37.2066 28.623 36.6443 28.623 36.0695C28.5981 34.5325 27.1546 33.008 24.3049 32.2207Z" fill="url(#paint1_linear)"/>
<path style="mix-blend-mode:multiply" opacity="0.2" d="M14.5344 38.0061V39.6306C14.3115 39.3528 14.135 39.0405 14.0117 38.7059V37.0814C14.1373 37.4149 14.3136 37.7269 14.5344 38.0061ZM18.2676 40.1305V41.7549L18.7902 41.8924V40.2054L18.2676 40.1305ZM20.4204 40.4429V42.1173H20.943V40.4304L20.4204 40.4429ZM19.3377 40.3304V41.9924H19.8604V40.3679L19.3377 40.3304ZM15.0446 38.5934V40.1929C15.2087 40.339 15.3834 40.4727 15.5672 40.5928V38.9183C15.4006 38.8098 15.2425 38.6887 15.0943 38.556L15.0446 38.5934ZM17.1974 39.843V41.3801L17.72 41.555V39.9305L17.1974 39.843ZM16.1272 39.3557V40.9677L16.6498 41.2176V39.5931L16.1272 39.3557ZM21.4905 40.4928V42.1673H22.0132V40.3929L21.4905 40.4928ZM26.8414 38.9433V40.5053L27.3641 40.093V38.4935C27.2645 38.6184 27.0655 38.7434 26.8912 38.8684L26.8414 38.9433ZM22.5607 40.4304V42.0049C22.7349 42.0049 22.8967 42.0049 23.0709 41.9299V40.2679C22.9194 40.3065 22.7656 40.3357 22.6105 40.3554L22.5607 40.4304ZM27.9116 37.9311V39.5681C28.1318 39.2768 28.304 38.952 28.4218 38.6059V36.9814C28.3152 37.3033 28.1599 37.6067 27.9614 37.8812L27.9116 37.9311ZM25.7713 39.5306V41.1426C25.9455 41.0552 26.1321 40.9802 26.2939 40.8802V39.2557L25.7713 39.5306ZM24.7011 39.943V41.5675L25.2237 41.3926V39.7306L24.7011 39.943ZM23.6309 40.2304V41.8799L24.1411 41.7424V40.118L23.6309 40.2304Z" fill="url(#paint2_linear)"/>
<path d="M26.4173 33.0953C29.3043 34.7572 29.3168 37.4814 26.4173 39.1683C24.7955 39.9939 23.0029 40.4241 21.1846 40.4241C19.3664 40.4241 17.5737 39.9939 15.9519 39.1683C13.0525 37.5064 13.0525 34.7947 15.9519 33.1078C17.5727 32.2802 19.3649 31.8479 21.1831 31.8457C23.0014 31.8435 24.7946 32.2716 26.4173 33.0953Z" fill="#FFCE45"/>
<path d="M25.9833 33.3698C28.6215 34.8819 28.6339 37.3561 25.9833 38.8931C24.5084 39.645 22.8776 40.0368 21.2235 40.0368C19.5694 40.0368 17.9387 39.645 16.4637 38.8931C13.8256 37.3811 13.8132 34.9068 16.4637 33.3698C17.9387 32.6179 19.5694 32.2261 21.2235 32.2261C22.8776 32.2261 24.5084 32.6179 25.9833 33.3698Z" fill="#FFCE45"/>
<path opacity="0.6" d="M16.5891 33.7703C18.0252 33.0372 19.6134 32.6551 21.2244 32.6551C22.8355 32.6551 24.4237 33.0372 25.8598 33.7703C27.7264 34.8325 28.2366 36.407 27.3904 37.744C28.4855 36.307 28.0251 34.57 25.9843 33.4079C24.5093 32.656 22.8786 32.2642 21.2244 32.2642C19.5703 32.2642 17.9396 32.656 16.4646 33.4079C14.4363 34.6575 13.9759 36.332 15.0958 37.769C14.2372 36.4195 14.7349 34.8575 16.5891 33.7703Z" fill="#E0890B"/>
<path d="M24.2652 29.7584C22.2323 29.1717 20.076 29.1717 18.0432 29.7584C15.2059 30.5707 13.7749 32.1077 13.75 33.6322C13.75 34.207 13.75 34.7818 13.75 35.3442C13.75 36.8812 15.2308 38.3932 18.0805 39.1929C20.1143 39.773 22.2687 39.773 24.3025 39.1929C27.1397 38.3682 28.5708 36.8437 28.5957 35.3067C28.5957 34.7443 28.5957 34.1695 28.5957 33.5947C28.5583 32.0702 27.1148 30.5082 24.2652 29.7584Z" fill="url(#paint3_linear)"/>
<path style="mix-blend-mode:multiply" opacity="0.2" d="M14.5109 35.507V37.1315C14.283 36.8571 14.106 36.5439 13.9883 36.2068V34.6073C14.1161 34.932 14.2924 35.2354 14.5109 35.507ZM18.2441 37.6313V39.2558L18.7543 39.3808V37.7313C18.6423 37.6938 18.4681 37.6688 18.2939 37.6189L18.2441 37.6313ZM20.3845 37.9437V39.6182H20.9071V38.0062L20.3845 37.9437ZM19.3143 37.8313V39.4933L19.8369 39.5682V37.9063L19.3143 37.8313ZM15.0211 36.0943V37.6938L15.5438 38.1062V36.4567C15.3796 36.3404 15.2217 36.2152 15.0709 36.0818L15.0211 36.0943ZM17.1739 37.3439V38.9434L17.6966 39.1184V37.4939L17.1739 37.3439ZM16.0913 36.8441V38.4561C16.2607 38.5493 16.4352 38.6327 16.614 38.706V37.0565L16.0913 36.8441ZM21.4671 37.9937V39.6557H21.9898V37.9188L21.4671 37.9937ZM26.818 36.4317V38.0062C26.9953 37.878 27.1656 37.7404 27.3282 37.5939V36.0194C27.1814 36.1524 27.0277 36.2775 26.8678 36.3942L26.818 36.4317ZM22.5373 37.9313V39.5807L23.0599 39.4933V37.8063L22.5373 37.9313ZM27.8882 35.432V37.0565C28.1108 36.7668 28.2833 36.4415 28.3984 36.0943V34.5073C28.2948 34.8343 28.1393 35.1423 27.938 35.4195L27.8882 35.432ZM25.7976 37.0065V38.631L26.3078 38.3686V36.7566L25.7976 37.0065ZM24.7274 37.4189V39.0434L25.2376 38.8685V37.2565L24.7274 37.4189ZM23.6572 37.7063V39.3558L24.1674 39.2183V37.5939L23.6572 37.7063Z" fill="url(#paint4_linear)"/>
<path d="M26.4181 30.6339C29.3051 32.2959 29.3175 35.0075 26.4181 36.6945C24.7963 37.52 23.0036 37.9502 21.1854 37.9502C19.3671 37.9502 17.5745 37.52 15.9527 36.6945C13.0532 35.0325 13.0408 32.3208 15.9527 30.6339C17.5736 29.8054 19.3666 29.3735 21.1854 29.3735C23.0042 29.3735 24.7972 29.8054 26.4181 30.6339Z" fill="#FFCE45"/>
<path d="M25.9599 30.8959C28.598 32.408 28.6105 34.8822 25.9599 36.4192C24.4828 37.1712 22.85 37.5631 21.1939 37.5631C19.5377 37.5631 17.9049 37.1712 16.4278 36.4192C13.7897 34.8947 13.7897 32.4205 16.4278 30.8959C17.9044 30.142 19.5374 29.749 21.1939 29.749C22.8503 29.749 24.4833 30.142 25.9599 30.8959Z" fill="#FFCE45"/>
<path opacity="0.6" d="M16.5617 31.2957C17.9979 30.5626 19.5861 30.1805 21.1971 30.1805C22.8082 30.1805 24.3964 30.5626 25.8325 31.2957C27.6991 32.3703 28.2093 33.9323 27.3631 35.2819C28.4582 33.8449 27.9978 32.1079 25.957 30.9333C24.482 30.1814 22.8512 29.7896 21.1971 29.7896C19.543 29.7896 17.9122 30.1814 16.4373 30.9333C14.4089 32.1079 13.9485 33.8574 15.0685 35.2819C14.2098 33.9573 14.7076 32.3828 16.5617 31.2957Z" fill="#E0890B"/>
<path d="M24.2932 27.7969C22.2595 27.2168 20.105 27.2168 18.0712 27.7969C15.2216 28.6091 13.7905 30.1336 13.7656 31.6706C13.7656 32.2455 13.7656 32.8203 13.7656 33.3826C13.7656 34.9196 15.2465 36.4316 18.0961 37.2314C20.1104 37.7997 22.2416 37.7997 24.2559 37.2314C27.0931 36.4066 28.5242 34.8821 28.5491 33.3451C28.5491 32.7703 28.5491 32.208 28.5491 31.6332C28.574 30.1211 27.1305 28.5966 24.2932 27.7969Z" fill="url(#paint5_linear)"/>
<path style="mix-blend-mode:multiply" opacity="0.2" d="M14.5241 33.5453V35.1698C14.2911 34.8993 14.106 34.5908 13.9766 34.2576V32.6581C14.1132 32.98 14.2978 33.2792 14.5241 33.5453ZM18.2573 35.6696V37.3066L18.7675 37.4316V35.7821C18.6555 35.7446 18.4813 35.7196 18.3071 35.6696H18.2573ZM20.4101 35.982V37.6565H20.9327V36.007L20.4101 35.982ZM19.3275 35.8696V37.5315L19.8501 37.6065V35.957L19.3275 35.8696ZM15.0343 34.1326V35.7321C15.1969 35.8786 15.3672 36.0163 15.5445 36.1445V34.5075C15.3845 34.3908 15.2309 34.2656 15.0841 34.1326H15.0343ZM17.1871 35.3822V36.9942L17.7098 37.1692V35.5072L17.1871 35.3822ZM16.1045 34.8949V36.5069C16.2738 36.6001 16.4483 36.6835 16.6271 36.7568V35.1073L16.1045 34.8949ZM21.4803 36.0445V37.7065H22.0029V35.9695L21.4803 36.0445ZM26.8312 34.4825V36.1195C27.0085 35.9913 27.1788 35.8536 27.3414 35.7071V34.0701C27.1946 34.2032 27.0409 34.3283 26.881 34.445L26.8312 34.4825ZM22.5505 35.982V37.6315L23.0607 37.544V35.8571L22.5505 35.982ZM27.9014 33.4828V35.1198C28.1215 34.8285 28.2938 34.5036 28.4116 34.1576V32.5581C28.3049 32.8799 28.1496 33.1834 27.9511 33.4578L27.9014 33.4828ZM25.761 35.0823V36.6943L26.2712 36.4444V34.8074L25.761 35.0823ZM24.6908 35.4947V37.1192L25.201 36.9442V35.3072L24.6908 35.4947ZM23.6206 35.7821V37.4316L24.1309 37.2941V35.6696L23.6206 35.7821Z" fill="url(#paint6_linear)"/>
<path d="M26.4181 28.6714C29.3051 30.3334 29.3175 33.0575 26.4181 34.7445C24.7963 35.5701 23.0036 36.0003 21.1854 36.0003C19.3671 36.0003 17.5745 35.5701 15.9527 34.7445C13.0532 33.0825 13.0408 30.3709 15.9527 28.6839C17.5735 27.8564 19.3656 27.4241 21.1839 27.4219C23.0021 27.4197 24.7953 27.8478 26.4181 28.6714Z" fill="#FFCE45"/>
<path d="M25.9708 28.9458C28.609 30.4578 28.6214 32.932 25.9708 34.469C24.4946 35.2239 22.8614 35.6175 21.2048 35.6175C19.5482 35.6175 17.915 35.2239 16.4388 34.469C13.8131 32.957 13.8006 30.4828 16.4388 28.9458C17.9153 28.1918 19.5483 27.7988 21.2048 27.7988C22.8613 27.7988 24.4943 28.1918 25.9708 28.9458Z" fill="#FFCE45"/>
<path opacity="0.6" d="M16.5774 29.3465C18.0135 28.6134 19.6017 28.2312 21.2127 28.2312C22.8238 28.2312 24.412 28.6134 25.8481 29.3465C27.7147 30.4211 28.2249 31.9831 27.3787 33.3327C28.4738 31.8957 28.0134 30.1587 25.9726 28.9841C24.4976 28.2322 22.8668 27.8403 21.2127 27.8403C19.5586 27.8403 17.9279 28.2322 16.4529 28.9841C14.4246 30.2337 13.9641 31.9082 15.0841 33.3452C14.2255 31.9956 14.7232 30.4336 16.5774 29.3465Z" fill="#E0890B"/>
<path d="M24.3049 25.8472C22.2712 25.2671 20.1167 25.2671 18.083 25.8472C15.2333 26.6719 13.8022 28.1964 13.7773 29.7334C13.7773 30.3083 13.7773 30.8706 13.7773 31.4454C13.7773 32.9824 15.2582 34.4944 18.1078 35.2942C20.1416 35.8743 22.2961 35.8743 24.3298 35.2942C27.1671 34.4695 28.5981 32.9449 28.623 31.4079C28.623 30.8331 28.623 30.2708 28.623 29.696C28.5981 28.1589 27.1546 26.6469 24.3049 25.8472Z" fill="url(#paint7_linear)"/>
<path style="mix-blend-mode:multiply" opacity="0.2" d="M14.5344 31.5951V33.2196C14.309 32.9435 14.1323 32.6307 14.0117 32.2949V30.7079C14.1407 31.0282 14.3169 31.3273 14.5344 31.5951ZM18.2676 33.7194V35.3564L18.7902 35.4814V33.8319C18.6658 33.7944 18.4915 33.7694 18.3173 33.7194H18.2676ZM20.4204 34.0318V35.7063H20.943V34.0568L20.4204 34.0318ZM19.3377 33.9194V35.5813L19.8604 35.6563V33.9943L19.3377 33.9194ZM15.0446 32.1824V33.7819C15.2087 33.928 15.3834 34.0617 15.5672 34.1818V32.5573C15.403 32.4409 15.2452 32.3158 15.0943 32.1824H15.0446ZM17.1974 33.432V35.0065L17.72 35.1815V33.557L17.1974 33.432ZM16.1272 32.9447V34.5567C16.2966 34.6499 16.471 34.7333 16.6498 34.8066V33.1821L16.1272 32.9447ZM21.4905 34.0943V35.7563H22.0132V34.0193L21.4905 34.0943ZM26.8414 32.5323V34.1318L27.3641 33.7194V32.1199C27.2133 32.2533 27.0554 32.3785 26.8912 32.4948L26.8414 32.5323ZM22.5607 34.0193V35.6813L23.0709 35.5938V33.9069L22.5607 34.0193ZM27.9116 31.5201V33.1571C28.1318 32.8658 28.304 32.5409 28.4218 32.1949V30.6079C28.3152 30.9297 28.1599 31.2332 27.9614 31.5076L27.9116 31.5201ZM25.7713 33.1196V34.7316L26.2939 34.4817V32.8572L25.7713 33.1196ZM24.7011 33.532V35.1565L25.2237 34.9815V33.357L24.7011 33.532ZM23.6309 33.8194V35.5064L24.1411 35.3689V33.7444L23.6309 33.8194Z" fill="url(#paint8_linear)"/>
<path d="M26.4173 26.7593C29.3043 28.4213 29.3168 31.1454 26.4173 32.8324C24.7955 33.658 23.0029 34.0882 21.1846 34.0882C19.3664 34.0882 17.5737 33.658 15.9519 32.8324C13.0525 31.1704 13.0525 28.4588 15.9519 26.7718C17.5727 25.9443 19.3649 25.5119 21.1831 25.5098C23.0014 25.5076 24.7946 25.9357 26.4173 26.7593Z" fill="#FFCE45"/>
<path d="M25.9833 26.9978C28.6215 28.5098 28.6339 30.984 25.9833 32.521C24.5093 33.2758 22.8782 33.6693 21.2235 33.6693C19.5689 33.6693 17.9378 33.2758 16.4637 32.521C13.8256 31.009 13.8132 28.5348 16.4637 26.9978C17.9387 26.2459 19.5694 25.854 21.2235 25.854C22.8776 25.854 24.5084 26.2459 25.9833 26.9978Z" fill="#FFCE45"/>
<path opacity="0.6" d="M16.5891 27.3963C18.0252 26.6632 19.6134 26.281 21.2244 26.281C22.8355 26.281 24.4237 26.6632 25.8598 27.3963C27.7264 28.4709 28.2366 30.0329 27.3904 31.3825C28.4855 29.933 28.0251 28.2085 25.9843 27.0339C24.5093 26.282 22.8786 25.8901 21.2244 25.8901C19.5703 25.8901 17.9396 26.282 16.4646 27.0339C14.4363 28.2835 13.9759 29.958 15.0958 31.395C14.2372 30.0454 14.7349 28.4834 16.5891 27.3963Z" fill="#E0890B"/>
<path d="M24.9253 23.9224C22.8915 23.3423 20.7371 23.3423 18.7033 23.9224C15.8661 24.7471 14.435 26.2716 14.4102 27.8086C14.4102 28.371 14.4102 28.9458 14.4102 29.5206C14.4102 31.0451 15.9034 32.5696 18.7407 33.3694C20.7735 33.9561 22.9298 33.9561 24.9626 33.3694C27.8123 32.5571 29.2433 31.0201 29.2682 29.4956C29.2682 28.9208 29.2682 28.346 29.2682 27.7836C29.2185 26.2341 27.775 24.7221 24.9253 23.9224Z" fill="url(#paint9_linear)"/>
<path style="mix-blend-mode:multiply" opacity="0.2" d="M15.218 29.6583V31.2953C14.9905 31.0206 14.8135 30.7075 14.6953 30.3706V28.7836C14.8216 29.1014 14.9981 29.3968 15.218 29.6583ZM18.9511 31.7576V33.3821L19.4738 33.5196V31.9076L18.9511 31.7576ZM21.0915 32.0575V33.7445H21.6142V32.1325L21.0915 32.0575ZM20.0213 31.9576V33.6195H20.5315V32.07L20.0213 31.9576ZM15.7282 30.2206V31.8201C15.8947 31.9633 16.0692 32.0968 16.2508 32.22V30.6205C16.0679 30.5128 15.8932 30.3917 15.7282 30.2581V30.2206ZM17.881 31.4702V33.0822L18.4036 33.2572V31.6327L17.881 31.4702ZM16.7983 30.9829V32.5949L17.321 32.8448V31.2203C17.1468 31.1453 16.9601 31.0703 16.7983 30.9829ZM22.1741 32.12V33.7945H22.6968V32.095L22.1741 32.12ZM27.525 30.5705V32.2075C27.7117 32.07 27.8735 31.9326 28.0352 31.7951V30.1956C27.8984 30.3206 27.6619 30.508 27.525 30.5705ZM23.2443 32.0575V33.707L23.767 33.632V31.9701C23.5951 32.0119 23.4204 32.0411 23.2443 32.0575ZM28.5952 29.5583V31.1953C28.8235 30.9073 29.0003 30.5817 29.1179 30.2331V28.6836C28.9977 29.012 28.8208 29.3166 28.5952 29.5833V29.5583ZM26.4175 31.1703V32.7948C26.5917 32.7073 26.766 32.6324 26.9277 32.5324V30.9329L26.4175 31.1703ZM25.3473 31.5952V33.2197L25.87 33.0447V31.4327L25.3473 31.5952ZM24.2772 31.8826V33.5196L24.7998 33.3946V31.7576L24.2772 31.8826Z" fill="url(#paint10_linear)"/>
<path d="M27.0775 24.7981C29.977 26.4601 29.9894 29.1717 27.0775 30.8587C25.4579 31.6842 23.6673 32.1144 21.851 32.1144C20.0348 32.1144 18.2442 31.6842 16.6246 30.8587C13.7251 29.1967 13.7127 26.4851 16.6246 24.7981C18.2442 23.9727 20.0348 23.5425 21.851 23.5425C23.6673 23.5425 25.4579 23.9727 27.0775 24.7981Z" fill="#FFCE45"/>
<path d="M26.6169 25.0721C29.255 26.5841 29.2675 29.0584 26.6169 30.5954C25.1398 31.3474 23.507 31.7393 21.8509 31.7393C20.1947 31.7393 18.5619 31.3474 17.0848 30.5954C14.4467 29.0833 14.4343 26.6091 17.0848 25.0721C18.5619 24.3201 20.1947 23.9282 21.8509 23.9282C23.507 23.9282 25.1398 24.3201 26.6169 25.0721Z" fill="#FFCE45"/>
<path opacity="0.6" d="M17.2235 25.5102C18.6596 24.7771 20.2479 24.395 21.8589 24.395C23.4699 24.395 25.0582 24.7771 26.4943 25.5102C28.3609 26.5723 28.8586 28.1344 28.0249 29.4839C29.1199 28.0469 28.6471 26.3099 26.6187 25.1478C25.1416 24.3958 23.5088 24.0039 21.8527 24.0039C20.1966 24.0039 18.5637 24.3958 17.0866 25.1478C15.0707 26.3349 14.5978 28.0719 15.7178 29.5089C14.8716 28.1219 15.3694 26.5598 17.2235 25.5102Z" fill="#E0890B"/>
<path d="M24.8628 21.8237C22.829 21.2437 20.6746 21.2437 18.6408 21.8237C15.8036 22.6485 14.3725 24.173 14.3477 25.6975C14.3477 26.2723 14.3477 26.8471 14.3477 27.422C14.3477 28.9465 15.8285 30.4585 18.6781 31.2582C20.7119 31.8383 22.8664 31.8383 24.9001 31.2582C27.7498 30.4335 29.1809 28.909 29.2058 27.3845C29.2058 26.8097 29.2058 26.2348 29.2058 25.66C29.156 24.1355 27.6627 22.6235 24.8628 21.8237Z" fill="url(#paint11_linear)"/>
<path style="mix-blend-mode:multiply" opacity="0.2" d="M15.1093 27.5595V29.2589C14.8828 28.9815 14.7021 28.6692 14.5742 28.3342V26.6722C14.7041 26.9948 14.8848 27.2944 15.1093 27.5595ZM18.8425 29.6963V31.3208L19.3651 31.4457V29.7963L18.8425 29.6963ZM20.9829 29.9962V31.6707H21.5055V30.0212L20.9829 29.9962ZM19.9127 29.8962V31.5457L20.4229 31.6207V29.9712L19.9127 29.8962ZM15.6195 28.1593V29.7588C15.786 29.9019 15.9605 30.0354 16.1422 30.1586V28.5217C15.979 28.4084 15.8212 28.2874 15.6693 28.1593H15.6195ZM17.7599 29.4089V31.0209L18.2825 31.1833V29.5588C18.1581 29.4713 17.9839 29.4339 17.8096 29.3714L17.7599 29.4089ZM16.6897 28.909V30.5085L17.1999 30.7709V29.1465C17.0405 29.0652 16.8867 28.9734 16.7395 28.8715L16.6897 28.909ZM22.053 30.0587V31.7206H22.6877V29.9962L22.053 30.0587ZM27.4164 28.4967V30.1336C27.6005 30.0093 27.7752 29.8715 27.939 29.7213V28.0843C27.7882 28.2177 27.6304 28.3428 27.4662 28.4592L27.4164 28.4967ZM23.1357 29.9962V31.6457L23.6583 31.5707V29.8712L23.1357 29.9962ZM28.4866 27.497V29.1215C28.7171 28.8396 28.8942 28.5177 29.0092 28.1718V26.5723C28.9018 26.9 28.7421 27.2081 28.5363 27.4845L28.4866 27.497ZM26.4209 29.0715V30.696L26.9435 30.4336V28.8216C26.7743 28.915 26.5998 28.9984 26.4209 29.0715ZM25.3507 29.4838V31.1208C25.5249 31.1208 25.7116 31.0084 25.8733 30.9334V29.3339C25.6742 29.3964 25.5 29.4339 25.3258 29.4838H25.3507ZM24.2805 29.7713V31.4207L24.8032 31.2958V29.6588C24.6041 29.7088 24.4298 29.7338 24.2556 29.7713H24.2805Z" fill="url(#paint12_linear)"/>
<path d="M21.8298 30.026C25.9121 30.0088 29.2134 28.076 29.2035 25.7088C29.1937 23.3417 25.8763 21.4366 21.794 21.4538C17.7117 21.4709 14.4104 23.4038 14.4202 25.771C14.4301 28.1381 17.7475 30.0432 21.8298 30.026Z" fill="#FFCE45"/>
<path d="M26.5544 23.0108C29.1925 24.5228 29.205 26.997 26.5544 28.534C25.0773 29.286 23.4445 29.6779 21.7884 29.6779C20.1323 29.6779 18.4994 29.286 17.0223 28.534C14.3842 27.022 14.3718 24.5478 17.0223 23.0108C18.4986 22.2558 20.1317 21.8623 21.7884 21.8623C23.445 21.8623 25.0782 22.2558 26.5544 23.0108Z" fill="#FFCE45"/>
<path opacity="0.6" d="M17.161 23.3606C18.598 22.6304 20.1859 22.25 21.7964 22.25C23.4069 22.25 24.9948 22.6304 26.4318 23.3606C28.2983 24.4353 28.7961 25.9973 27.9624 27.3469C29.0574 25.9098 28.5846 24.1729 26.5562 23.0108C25.08 22.2558 23.4468 21.8623 21.7902 21.8623C20.1335 21.8623 18.5004 22.2558 17.0241 23.0108C15.0082 24.2604 14.5353 25.9348 15.6553 27.3594C14.8091 26.0223 15.3069 24.4478 17.161 23.3606Z" fill="#E0890B"/>
<path d="M38.938 33.2075C36.9238 32.6392 34.7925 32.6392 32.7783 33.2075C29.9286 34.0322 28.4975 35.5567 28.4727 37.0937C28.4727 37.6561 28.4727 38.2309 28.4727 38.8057C28.4727 40.3302 29.9535 41.8547 32.8032 42.642C34.836 43.2287 36.9923 43.2287 39.0252 42.642C41.8624 41.8298 43.2934 40.2927 43.3183 38.7682C43.3183 38.1934 43.3183 37.6186 43.3183 37.0563C43.2312 35.5067 41.7877 34.0072 38.938 33.2075Z" fill="url(#paint13_linear)"/>
<path style="mix-blend-mode:multiply" opacity="0.2" d="M29.1672 38.9431V40.58C28.9443 40.3022 28.7678 39.9899 28.6445 39.6553V38.0683C28.7708 38.3862 28.9473 38.6816 29.1672 38.9431ZM32.9004 41.0799V42.7044L33.423 42.8293V41.1924L32.9004 41.0799ZM35.0532 41.3798V43.0668H35.5758V41.4173L35.0532 41.3798ZM33.9706 41.2798V42.9293C34.1428 42.9667 34.3175 42.9917 34.4932 43.0043V41.3548C34.3688 41.3423 34.1946 41.3048 34.0203 41.2798H33.9706ZM29.6774 39.5429V41.1424C29.8415 41.2885 30.0162 41.4221 30.2 41.5422V39.9053C30.036 39.7931 29.8782 39.6721 29.7272 39.5429H29.6774ZM31.8302 40.7925V42.4045L32.3528 42.5794V40.9549L31.8302 40.7925ZM30.7476 40.3051V41.8796L31.2702 42.1296V40.5051L30.7476 40.3051ZM36.1234 41.4423V43.1167H36.646V41.3798L36.1234 41.4423ZM41.4743 39.8803V41.5173C41.6574 41.3969 41.8282 41.2588 41.9845 41.1049V39.4804C41.8375 39.6093 41.6838 39.7303 41.524 39.8428L41.4743 39.8803ZM37.1936 41.3798V43.0043C37.3678 43.0043 37.5295 43.0043 37.7038 42.9293V41.2548C37.5522 41.2934 37.3984 41.3226 37.2433 41.3423L37.1936 41.3798ZM42.5445 38.8806V40.5051C42.7646 40.2138 42.9368 39.8889 43.0547 39.5429V38.0059C42.9445 38.3146 42.7894 38.6052 42.5942 38.8681L42.5445 38.8806ZM40.4539 40.5051V42.1296L40.9765 41.8671V40.2177C40.8147 40.3051 40.6281 40.3801 40.4539 40.5051ZM39.3837 40.9299V42.5544L39.9063 42.3795V40.7175L39.3837 40.9299ZM38.3135 41.2173V42.8543L38.8237 42.7294V41.0424L38.3135 41.2173Z" fill="url(#paint14_linear)"/>
<path d="M41.0892 34.082C43.9762 35.7439 43.9886 38.4556 41.0892 40.1425C39.4674 40.9681 37.6747 41.3983 35.8565 41.3983C34.0382 41.3983 32.2456 40.9681 30.6238 40.1425C27.7244 38.4806 27.7244 35.7689 30.6238 34.082C32.2456 33.2564 34.0382 32.8262 35.8565 32.8262C37.6747 32.8262 39.4674 33.2564 41.0892 34.082Z" fill="#FFCE45"/>
<path d="M40.6162 34.3571C43.2543 35.8692 43.2667 38.3434 40.6162 39.8804C39.1412 40.6323 37.5105 41.0241 35.8564 41.0241C34.2023 41.0241 32.5715 40.6323 31.0965 39.8804C28.4584 38.3684 28.446 35.8941 31.0965 34.3571C32.5715 33.6052 34.2023 33.2134 35.8564 33.2134C37.5105 33.2134 39.1412 33.6052 40.6162 34.3571Z" fill="#FFCE45"/>
<path opacity="0.6" d="M31.2219 34.7571C32.658 34.024 34.2463 33.6419 35.8573 33.6419C37.4683 33.6419 39.0565 34.024 40.4927 34.7571C42.3592 35.8193 42.8694 37.3813 42.0233 38.7309C43.1183 37.2938 42.6579 35.5569 40.6171 34.3947C39.1422 33.6428 37.5114 33.251 35.8573 33.251C34.2032 33.251 32.5724 33.6428 31.0974 34.3947C29.0691 35.6443 28.6087 37.3188 29.7286 38.7559C28.9073 37.4063 29.3677 35.8443 31.2219 34.7571Z" fill="#E0890B"/>
<path d="M38.2659 30.7335C36.233 30.1468 34.0767 30.1468 32.0439 30.7335C29.1942 31.5458 27.7632 33.0703 27.7383 34.6073C27.7383 35.1821 27.7383 35.7444 27.7383 36.3193C27.7383 37.8563 29.2191 39.3683 32.0688 40.168C34.1025 40.7481 36.257 40.7481 38.2907 40.168C41.128 39.3433 42.559 37.8188 42.5839 36.2818C42.5839 35.7069 42.5839 35.1446 42.5839 34.5698C42.5964 33.0078 41.1155 31.5333 38.2659 30.7335Z" fill="url(#paint15_linear)"/>
<path style="mix-blend-mode:multiply" opacity="0.2" d="M28.5109 36.4815V38.106C28.2856 37.8299 28.1088 37.5172 27.9883 37.1813V35.5943C28.1181 35.9143 28.2942 36.2132 28.5109 36.4815ZM32.2441 38.6059V40.2428L32.7668 40.3678V38.7183L32.2441 38.6059ZM34.3969 38.9183V40.5927H34.9196V38.9433L34.3969 38.9183ZM33.3143 38.8058V40.5053H33.8867V38.8808L33.3143 38.8058ZM29.0211 37.0688V38.6683C29.1881 38.8148 29.3625 38.9525 29.5438 39.0807V37.4437C29.3753 37.3278 29.2133 37.2026 29.0585 37.0688H29.0211ZM31.174 38.3184V39.9304L31.6966 40.1054V38.4809L31.174 38.3184ZM30.1038 37.8311V39.4431L30.6264 39.693V38.006L30.1038 37.8311ZM35.4671 38.9807V40.6427H35.9898V38.9058L35.4671 38.9807ZM40.818 37.4187V39.0557L41.3407 38.6434V37.0064C41.1858 37.1401 41.0238 37.2653 40.8554 37.3812L40.818 37.4187ZM36.5373 38.9183V40.5053L37.0475 40.4178V38.7933L36.5373 38.9183ZM41.8882 36.4191V38.006C42.1083 37.7147 42.2806 37.3899 42.3984 37.0439V35.5068C42.2867 35.825 42.1273 36.1242 41.9255 36.3941L41.8882 36.4191ZM39.7852 38.006V39.618L40.3078 39.3681V37.7436L39.7852 38.006ZM38.715 38.4184V40.0429L39.2376 39.868V38.2435L38.715 38.4184ZM37.6448 38.7058V40.3553L38.1675 40.2178V38.5934L37.6448 38.7058Z" fill="url(#paint16_linear)"/>
<path d="M40.4205 31.6074C43.3075 33.2694 43.3199 35.9936 40.4205 37.6805C38.7987 38.5061 37.006 38.9363 35.1878 38.9363C33.3695 38.9363 31.5768 38.5061 29.9551 37.6805C27.0681 36.0186 27.0556 33.3069 29.9551 31.6199C31.5759 30.7924 33.368 30.3601 35.1863 30.3579C37.0045 30.3557 38.7977 30.7838 40.4205 31.6074Z" fill="#FFCE45"/>
<path d="M35.2023 38.5798C38.9204 38.5642 41.9271 36.8004 41.9181 34.6403C41.9091 32.4802 38.8877 30.7417 35.1696 30.7573C31.4516 30.773 28.4448 32.5368 28.4538 34.6969C28.4628 36.857 31.4842 38.5954 35.2023 38.5798Z" fill="#FFCE45"/>
<path opacity="0.6" d="M30.55 32.2825C31.9861 31.5494 33.5744 31.1673 35.1854 31.1673C36.7964 31.1673 38.3847 31.5494 39.8208 32.2825C41.6874 33.3572 42.1976 34.9192 41.3514 36.2687C42.4465 34.8317 41.986 33.0947 39.9452 31.9201C38.4703 31.1682 36.8395 30.7764 35.1854 30.7764C33.5313 30.7764 31.9005 31.1682 30.4256 31.9201C28.3972 33.1697 27.9368 34.8442 29.0567 36.2812C28.1981 34.9317 28.6959 33.3697 30.55 32.2825Z" fill="#E0890B"/>
<path d="M38.2779 28.7841C36.2636 28.2158 34.1324 28.2158 32.1181 28.7841C29.2685 29.6089 27.8374 31.1334 27.8125 32.6704C27.8125 33.2452 27.8125 33.8076 27.8125 34.3824C27.8125 35.9194 29.2933 37.4314 32.143 38.2312C34.1573 38.7995 36.2885 38.7995 38.3028 38.2312C41.14 37.4064 42.5711 35.8819 42.5959 34.3449C42.5959 33.7701 42.5959 33.2077 42.5959 32.6329C42.5959 31.0959 41.1276 29.5839 38.2779 28.7841Z" fill="url(#paint17_linear)"/>
<path style="mix-blend-mode:multiply" opacity="0.2" d="M28.5226 34.5326V36.1571C28.2973 35.881 28.1205 35.5682 28 35.2324V33.6454C28.1241 33.9681 28.3007 34.268 28.5226 34.5326ZM32.2558 36.6569V38.2939L32.7785 38.4189V36.7569L32.2558 36.6569ZM34.4086 36.9693V38.6438H34.9313V36.9943L34.4086 36.9693ZM33.3385 36.8569V38.5189L33.8611 38.5938V36.9318C33.7118 36.9193 33.55 36.8819 33.3758 36.8569H33.3385ZM29.0329 35.1199V36.7569C29.197 36.903 29.3717 37.0367 29.5555 37.1568V35.5073C29.3867 35.3873 29.2247 35.2579 29.0702 35.1199H29.0329ZM31.1857 36.3695V38.0065L31.6959 38.1815V36.557L31.1857 36.3695ZM30.1155 35.8822V37.4942L30.6381 37.7441V36.1196C30.4715 36.037 30.3094 35.9452 30.1528 35.8447L30.1155 35.8822ZM35.4788 37.0318V38.6938H35.989V36.9568L35.4788 37.0318ZM40.8297 35.4698V37.1068L41.3524 36.6944V35.0574C41.1967 35.1902 41.0348 35.3153 40.8671 35.4323L40.8297 35.4698ZM36.549 36.9568V38.6188L37.0592 38.5313V36.8444C36.9348 36.8694 36.7605 36.9069 36.5863 36.9193L36.549 36.9568ZM41.8999 34.4576V36.0946C42.1246 35.8062 42.2973 35.4806 42.4101 35.1324V33.5454C42.3042 33.87 42.1443 34.1742 41.9372 34.4451L41.8999 34.4576ZM39.7595 36.0571V37.6691L40.2822 37.4192V35.7947L39.7595 36.0571ZM38.6894 36.4695V38.094L39.212 37.919V36.2945L38.6894 36.4695ZM37.6192 36.7569V38.4064L38.1418 38.2689V36.6319L37.6192 36.7569Z" fill="url(#paint18_linear)"/>
<path d="M40.4322 29.6582C43.3316 31.3202 43.3316 34.0444 40.4322 35.7313C38.8104 36.5569 37.0177 36.9871 35.1995 36.9871C33.3812 36.9871 31.5886 36.5569 29.9668 35.7313C27.0798 34.0693 27.0674 31.3577 29.9668 29.6707C31.5876 28.8432 33.3797 28.4109 35.198 28.4087C37.0162 28.4065 38.8094 28.8346 40.4322 29.6582Z" fill="#FFCE45"/>
<path d="M39.956 29.9333C42.5942 31.4453 42.6066 33.9195 39.956 35.4566C38.482 36.2114 36.8508 36.6049 35.1962 36.6049C33.5416 36.6049 31.9104 36.2114 30.4364 35.4566C27.7983 33.9445 27.7858 31.4703 30.4364 29.9333C31.9113 29.1814 33.5421 28.7896 35.1962 28.7896C36.8503 28.7896 38.4811 29.1814 39.956 29.9333Z" fill="#FFCE45"/>
<path opacity="0.6" d="M30.5617 30.3333C31.9979 29.6002 33.5861 29.2181 35.1971 29.2181C36.8081 29.2181 38.3964 29.6002 39.8325 30.3333C41.6991 31.4079 42.2093 32.97 41.3631 34.3195C42.4582 32.87 41.9978 31.1455 39.9569 29.9709C38.482 29.219 36.8512 28.8271 35.1971 28.8271C33.543 28.8271 31.9122 29.219 30.4373 29.9709C28.4089 31.2205 27.9485 32.895 29.0685 34.332C28.2098 33.0074 28.7076 31.4204 30.5617 30.3333Z" fill="#E0890B"/>
<path d="M31.012 39.0177C28.9791 38.431 26.8228 38.431 24.79 39.0177C21.9403 39.8299 20.5093 41.367 20.4844 42.8915C20.4844 43.4663 20.4844 44.0411 20.4844 44.6034C20.4844 46.1404 21.9652 47.6525 24.8149 48.4522C26.8486 49.0323 29.0031 49.0323 31.0369 48.4522C33.8741 47.6275 35.3051 46.103 35.33 44.5659C35.33 44.0036 35.33 43.4288 35.33 42.854C35.3051 41.3295 33.8865 39.8049 31.012 39.0177Z" fill="url(#paint19_linear)"/>
<path style="mix-blend-mode:multiply" opacity="0.2" d="M21.2531 44.7538V46.3783C21.028 46.1066 20.8512 45.798 20.7305 45.4661V43.8666C20.8546 44.1893 21.0312 44.4892 21.2531 44.7538ZM24.9863 46.8781V48.5151L25.509 48.6401V46.9906C25.3721 46.9531 25.173 46.9281 25.0236 46.8781H24.9863ZM27.1391 47.1905V48.865H27.6618V47.2155L27.1391 47.1905ZM26.0689 47.0781V48.74L26.5916 48.815V47.1655L26.0689 47.0781ZM21.7633 45.3536V46.9406C21.9303 47.0871 22.1047 47.2247 22.286 47.353V45.716C22.1491 45.591 21.95 45.5036 21.8007 45.3536H21.7633ZM23.9161 46.6032V48.2027L24.4263 48.3777V46.7532L23.9161 46.6032ZM22.8459 46.1034V47.7154L23.3686 47.9653V46.3158L22.8459 46.1034ZM28.2093 47.253V48.8775C28.3791 48.8899 28.5497 48.8899 28.7195 48.8775V47.178L28.2093 47.253ZM33.5602 45.691V47.328L34.0828 46.9156V45.2786C33.9301 45.415 33.7679 45.5402 33.5975 45.6535L33.5602 45.691ZM29.2795 47.1905V48.84L29.8021 48.7525V47.0656L29.2795 47.1905ZM34.6304 44.6913V46.3158C34.8576 46.0291 35.0305 45.7029 35.1406 45.3536V43.7666C35.0324 44.094 34.8727 44.402 34.6677 44.6788L34.6304 44.6913ZM32.49 46.2783V47.9028L33.0127 47.6404V46.0159L32.49 46.2783ZM31.4198 46.6907V48.3152L31.9425 48.1402V46.5157L31.4198 46.6907ZM30.3497 46.9781V48.6276L30.8723 48.4901V46.8656L30.3497 46.9781Z" fill="url(#paint20_linear)"/>
<path d="M33.1626 39.8925C36.0621 41.5545 36.0621 44.2661 33.1626 45.9531C31.5408 46.7787 29.7482 47.2089 27.9299 47.2089C26.1117 47.2089 24.319 46.7787 22.6973 45.9531C19.8103 44.2911 19.7978 41.5795 22.6973 39.8925C24.319 39.0669 26.1117 38.6367 27.9299 38.6367C29.7482 38.6367 31.5408 39.0669 33.1626 39.8925Z" fill="#FFCE45"/>
<path d="M27.9718 46.8576C31.6899 46.842 34.6966 45.0782 34.6876 42.9181C34.6786 40.758 31.6572 39.0195 27.9392 39.0352C24.2211 39.0508 21.2143 40.8146 21.2234 42.9747C21.2324 45.1348 24.2538 46.8733 27.9718 46.8576Z" fill="#FFCE45"/>
<path opacity="0.6" d="M23.2961 40.5047C24.7331 39.7745 26.321 39.394 27.9315 39.394C29.542 39.394 31.1299 39.7745 32.5669 40.5047C34.4335 41.5793 34.9437 43.1413 34.0975 44.4909C35.1925 43.0539 34.7321 41.3169 32.6913 40.1423C31.2164 39.3904 29.5856 38.9985 27.9315 38.9985C26.2774 38.9985 24.6466 39.3904 23.1717 40.1423C21.1433 41.3169 20.6829 43.0664 21.8028 44.4909C20.9442 43.2163 21.442 41.6418 23.2961 40.5047Z" fill="#E0890B"/>
<path d="M30.7378 37.0566C28.704 36.4766 26.5496 36.4766 24.5158 37.0566C21.6786 37.8689 20.2475 39.4059 20.2227 40.9304C20.2227 41.5052 20.2227 42.0801 20.2227 42.6424C20.2227 44.1794 21.7035 45.6914 24.5532 46.4912C26.5869 47.0712 28.7414 47.0712 30.7751 46.4912C33.6248 45.6664 35.0559 44.1419 35.0808 42.6049C35.0808 42.0426 35.0808 41.4677 35.0808 40.8929C35.031 39.3809 33.5875 37.8564 30.7378 37.0566Z" fill="url(#paint21_linear)"/>
<path style="mix-blend-mode:multiply" opacity="0.2" d="M20.9797 42.8036V44.4281C20.7497 44.1552 20.5725 43.8416 20.457 43.5034V41.9164C20.586 42.2367 20.7622 42.5358 20.9797 42.8036ZM24.7129 44.9279V46.5649L25.2355 46.6899V45.0404L24.7129 44.9279ZM26.8532 45.2403V46.9148H27.3759V45.2653L26.8532 45.2403ZM25.7831 45.1279V46.7523L26.2932 46.8273V45.2153L25.7831 45.1279ZM21.4899 43.3909V44.9904L22.0125 45.4028V43.7658C21.8464 43.652 21.6884 43.5268 21.5397 43.3909H21.4899ZM23.6302 44.6405V46.2525L24.1529 46.4274V44.803L23.6302 44.6405ZM22.5601 44.1532V45.7652C22.7294 45.8583 22.9039 45.9418 23.0827 46.0151V44.3656L22.5601 44.1532ZM27.9234 45.3028V46.9648H28.4461V45.2278L27.9234 45.3028ZM33.2868 43.7408V45.3778C33.468 45.2495 33.6424 45.1119 33.8094 44.9654V43.3284C33.6586 43.4618 33.5007 43.587 33.3365 43.7033L33.2868 43.7408ZM29.006 45.2403V46.8898L29.5287 46.8023V45.1154L29.006 45.2403ZM34.3569 42.7411V44.3656C34.5852 44.0776 34.762 43.752 34.8796 43.4034V41.8164C34.7722 42.1442 34.6125 42.4523 34.4067 42.7286L34.3569 42.7411ZM32.2166 44.3281V45.9401C32.3954 45.8668 32.5699 45.7834 32.7392 45.6902V44.0657L32.2166 44.3281ZM31.1464 44.7405V46.365L31.669 46.19V44.5655L31.1464 44.7405ZM30.0762 45.0279V46.6774L30.5989 46.5399V44.9154L30.0762 45.0279Z" fill="url(#paint22_linear)"/>
<path d="M32.89 37.931C35.7894 39.6055 35.8019 42.3172 32.89 44.0041C31.2704 44.8296 29.4798 45.2598 27.6635 45.2598C25.8473 45.2598 24.0566 44.8296 22.4371 44.0041C19.5376 42.3422 19.5252 39.6305 22.4371 37.9435C24.0557 37.1161 25.8458 36.6838 27.662 36.6816C29.4783 36.6795 31.2694 37.1075 32.89 37.931Z" fill="#FFCE45"/>
<path d="M27.24 45.5784C30.9581 45.5784 33.9722 43.8273 33.9722 41.6671C33.9722 39.507 30.9581 37.7559 27.24 37.7559C23.5219 37.7559 20.5078 39.507 20.5078 41.6671C20.5078 43.8273 23.5219 45.5784 27.24 45.5784Z" fill="#FFCE45"/>
<path opacity="0.6" d="M23.036 38.6053C24.4721 37.8722 26.0604 37.49 27.6714 37.49C29.2824 37.49 30.8707 37.8722 32.3068 38.6053C34.1734 39.6799 34.6711 41.2419 33.8374 42.5915C34.9325 41.1545 34.4596 39.4175 32.4312 38.2429C30.9532 37.4938 29.3208 37.1035 27.6652 37.1035C26.0096 37.1035 24.3771 37.4938 22.8991 38.2429C20.8832 39.4925 20.4103 41.167 21.5303 42.604C20.6841 41.2669 21.1819 39.6924 23.036 38.6053Z" fill="#E0890B"/>
<defs>
<linearGradient id="paint0_linear" x1="26.7023" y1="-10.9537" x2="98.2003" y2="43.3785" gradientUnits="userSpaceOnUse">
<stop stop-color="#7626F5"/>
<stop offset="0.25" stop-color="#8328F6"/>
<stop offset="0.73" stop-color="#A62FFA"/>
<stop offset="1" stop-color="#BD33FC"/>
</linearGradient>
<linearGradient id="paint1_linear" x1="13.8396" y1="36.9567" x2="28.6479" y2="36.9567" gradientUnits="userSpaceOnUse">
<stop stop-color="#D88000"/>
<stop offset="1" stop-color="#FFAC33"/>
</linearGradient>
<linearGradient id="paint2_linear" x1="14.0117" y1="39.5306" x2="28.4841" y2="39.5306" gradientUnits="userSpaceOnUse">
<stop stop-color="#D88F25"/>
<stop offset="1" stop-color="#EBA136"/>
</linearGradient>
<linearGradient id="paint3_linear" x1="1778.45" y1="835.325" x2="1955.12" y2="835.325" gradientUnits="userSpaceOnUse">
<stop stop-color="#D88000"/>
<stop offset="1" stop-color="#FFAC33"/>
</linearGradient>
<linearGradient id="paint4_linear" x1="1728.93" y1="447.665" x2="1896.52" y2="447.665" gradientUnits="userSpaceOnUse">
<stop stop-color="#D88F25"/>
<stop offset="1" stop-color="#EBA136"/>
</linearGradient>
<linearGradient id="paint5_linear" x1="1771.26" y1="816.226" x2="1947.19" y2="816.226" gradientUnits="userSpaceOnUse">
<stop stop-color="#D88000"/>
<stop offset="1" stop-color="#FFAC33"/>
</linearGradient>
<linearGradient id="paint6_linear" x1="1732.03" y1="437.684" x2="1899.91" y2="437.684" gradientUnits="userSpaceOnUse">
<stop stop-color="#D88F25"/>
<stop offset="1" stop-color="#EBA136"/>
</linearGradient>
<linearGradient id="paint7_linear" x1="1778.78" y1="799.816" x2="1955.44" y2="799.816" gradientUnits="userSpaceOnUse">
<stop stop-color="#D88000"/>
<stop offset="1" stop-color="#FFAC33"/>
</linearGradient>
<linearGradient id="paint8_linear" x1="1729.25" y1="427.702" x2="1896.84" y2="427.702" gradientUnits="userSpaceOnUse">
<stop stop-color="#D88F25"/>
<stop offset="1" stop-color="#EBA136"/>
</linearGradient>
<linearGradient id="paint9_linear" x1="1788.32" y1="782.371" x2="1965.13" y2="782.371" gradientUnits="userSpaceOnUse">
<stop stop-color="#D88000"/>
<stop offset="1" stop-color="#FFAC33"/>
</linearGradient>
<linearGradient id="paint10_linear" x1="1738.77" y1="414.965" x2="1906.5" y2="414.965" gradientUnits="userSpaceOnUse">
<stop stop-color="#D88F25"/>
<stop offset="1" stop-color="#EBA136"/>
</linearGradient>
<linearGradient id="paint11_linear" x1="1787.51" y1="761.57" x2="1964.32" y2="761.57" gradientUnits="userSpaceOnUse">
<stop stop-color="#D88000"/>
<stop offset="1" stop-color="#FFAC33"/>
</linearGradient>
<linearGradient id="paint12_linear" x1="1739.41" y1="407.037" x2="1907.29" y2="407.037" gradientUnits="userSpaceOnUse">
<stop stop-color="#D88F25"/>
<stop offset="1" stop-color="#EBA136"/>
</linearGradient>
<linearGradient id="paint13_linear" x1="1968.06" y1="866.631" x2="2144.72" y2="866.631" gradientUnits="userSpaceOnUse">
<stop stop-color="#D88000"/>
<stop offset="1" stop-color="#FFAC33"/>
</linearGradient>
<linearGradient id="paint14_linear" x1="1913.34" y1="462.261" x2="2080.93" y2="462.261" gradientUnits="userSpaceOnUse">
<stop stop-color="#D88F25"/>
<stop offset="1" stop-color="#EBA136"/>
</linearGradient>
<linearGradient id="paint15_linear" x1="1959.32" y1="844.446" x2="2135.98" y2="844.446" gradientUnits="userSpaceOnUse">
<stop stop-color="#D88000"/>
<stop offset="1" stop-color="#FFAC33"/>
</linearGradient>
<linearGradient id="paint16_linear" x1="1904.91" y1="451.719" x2="2072.5" y2="451.719" gradientUnits="userSpaceOnUse">
<stop stop-color="#D88F25"/>
<stop offset="1" stop-color="#EBA136"/>
</linearGradient>
<linearGradient id="paint17_linear" x1="1951.43" y1="825.641" x2="2127.36" y2="825.641" gradientUnits="userSpaceOnUse">
<stop stop-color="#D88000"/>
<stop offset="1" stop-color="#FFAC33"/>
</linearGradient>
<linearGradient id="paint18_linear" x1="1905.21" y1="442.739" x2="2072.65" y2="442.739" gradientUnits="userSpaceOnUse">
<stop stop-color="#D88F25"/>
<stop offset="1" stop-color="#EBA136"/>
</linearGradient>
<linearGradient id="paint19_linear" x1="1865.5" y1="920.98" x2="2042.17" y2="920.98" gradientUnits="userSpaceOnUse">
<stop stop-color="#D88000"/>
<stop offset="1" stop-color="#FFAC33"/>
</linearGradient>
<linearGradient id="paint20_linear" x1="1813.78" y1="492.604" x2="1981.23" y2="492.604" gradientUnits="userSpaceOnUse">
<stop stop-color="#D88F25"/>
<stop offset="1" stop-color="#EBA136"/>
</linearGradient>
<linearGradient id="paint21_linear" x1="1863.52" y1="902.52" x2="2040.33" y2="902.52" gradientUnits="userSpaceOnUse">
<stop stop-color="#D88000"/>
<stop offset="1" stop-color="#FFAC33"/>
</linearGradient>
<linearGradient id="paint22_linear" x1="1811.88" y1="485.091" x2="1979.62" y2="485.091" gradientUnits="userSpaceOnUse">
<stop stop-color="#D88F25"/>
<stop offset="1" stop-color="#EBA136"/>
</linearGradient>
</defs>
</svg>
