<svg width="138" height="74" viewBox="0 0 138 74" fill="none" xmlns="http://www.w3.org/2000/svg" xmlns:xlink="http://www.w3.org/1999/xlink">
<rect y="29.0908" width="127.813" height="44.909" fill="url(#pattern0)" fill-opacity="0.5"/>
<path fill-rule="evenodd" clip-rule="evenodd" d="M27.2363 27.9464L10.3633 63.7027L53.107 56.5063L90.4525 65.2772L137.696 60.3299L122.174 25.2464L86.1784 28.6209L58.2815 20.75L27.2363 27.9464Z" fill="white"/>
<path fill-rule="evenodd" clip-rule="evenodd" d="M90.4336 65.4879L111.643 63.2315C110.326 58.4206 109.008 53.6097 107.69 48.7988L93.842 50.0897C92.7059 55.2243 91.5697 60.357 90.4336 65.4879Z" fill="#ACACAC"/>
<path fill-rule="evenodd" clip-rule="evenodd" d="M90.4336 65.4882L111.266 63.1755L107.398 48.79L93.842 50.09C92.7059 55.2246 91.5697 60.3573 90.4336 65.4882Z" fill="#ABABAB"/>
<path fill-rule="evenodd" clip-rule="evenodd" d="M90.4336 65.4881L110.892 63.1244L107.105 48.7881L93.842 50.0954C92.7059 55.2263 91.5697 60.3572 90.4336 65.4881Z" fill="#AAAAAA"/>
<path fill-rule="evenodd" clip-rule="evenodd" d="M90.4336 65.4881L110.517 63.0645C109.284 58.3008 108.049 53.5378 106.814 48.7754L93.8439 50.0918C92.7065 55.2251 91.5697 60.3572 90.4336 65.4881Z" fill="#A9A9A9"/>
<path fill-rule="evenodd" clip-rule="evenodd" d="M90.4336 65.4883L110.14 63.0064C108.936 58.2598 107.728 53.5125 106.515 48.7646L93.8384 50.0901C92.7047 55.2246 91.5697 60.3574 90.4336 65.4883Z" fill="#A8A8A8"/>
<path fill-rule="evenodd" clip-rule="evenodd" d="M90.4336 65.488L109.764 62.9426C108.585 58.2153 107.406 53.4838 106.226 48.748L93.842 50.0826C92.7059 55.222 91.5697 60.3571 90.4336 65.488Z" fill="#A6A6A6"/>
<path fill-rule="evenodd" clip-rule="evenodd" d="M90.4336 65.4879L109.389 62.8933C108.236 58.1782 107.084 53.4624 105.933 48.7461L93.8439 50.0897C92.7065 55.2243 91.5697 60.357 90.4336 65.4879Z" fill="#A5A5A5"/>
<path fill-rule="evenodd" clip-rule="evenodd" d="M90.4336 65.4882L109.013 62.8373C107.889 58.1403 106.764 53.4403 105.639 48.7373L93.842 50.09C92.7059 55.2246 91.5697 60.3573 90.4336 65.4882Z" fill="#A4A4A4"/>
<path fill-rule="evenodd" clip-rule="evenodd" d="M90.4336 65.4875L108.638 62.7821C107.539 58.0972 106.442 53.4124 105.346 48.7275L93.842 50.0894C92.7059 55.2239 91.5697 60.3566 90.4336 65.4875Z" fill="#A3A3A3"/>
<path fill-rule="evenodd" clip-rule="evenodd" d="M90.4336 65.4878L108.258 62.726L105.06 48.7188L93.8493 50.0897C92.7083 55.2242 91.5697 60.3569 90.4336 65.4878Z" fill="#A2A2A2"/>
<path fill-rule="evenodd" clip-rule="evenodd" d="M90.4336 65.4876L107.885 62.6694C106.842 58.0149 105.801 53.3616 104.76 48.7095L93.8475 50.0895C92.7077 55.224 91.5697 60.3567 90.4336 65.4876Z" fill="#A1A1A1"/>
<path fill-rule="evenodd" clip-rule="evenodd" d="M90.4336 65.4884L107.51 62.6139L104.466 48.7012L93.842 50.0903C92.7059 55.2248 91.5697 60.3575 90.4336 65.4884Z" fill="#A0A0A0"/>
<path fill-rule="evenodd" clip-rule="evenodd" d="M90.4336 65.4882L107.134 62.5573C106.148 57.9355 105.161 53.3137 104.173 48.6919L93.842 50.0901C92.7059 55.2246 91.5697 60.3573 90.4336 65.4882Z" fill="#9F9F9F"/>
<path fill-rule="evenodd" clip-rule="evenodd" d="M90.4336 65.488L106.759 62.5008C105.799 57.8947 104.839 53.2887 103.88 48.6826L93.842 50.0899C92.7059 55.2244 91.5697 60.3571 90.4336 65.488Z" fill="#9E9E9E"/>
<path fill-rule="evenodd" clip-rule="evenodd" d="M90.4336 65.4879L106.383 62.4442C105.451 57.8539 104.52 53.2636 103.587 48.6733L93.842 50.0897C92.7059 55.2242 91.5697 60.357 90.4336 65.4879Z" fill="#9D9D9D"/>
<path fill-rule="evenodd" clip-rule="evenodd" d="M90.4336 65.4877L106.008 62.3877C105.102 57.8131 104.198 53.2386 103.294 48.6641L93.8366 50.0895C92.7041 55.2241 91.5697 60.3568 90.4336 65.4877Z" fill="#9C9C9C"/>
<path fill-rule="evenodd" clip-rule="evenodd" d="M90.4336 65.4879L105.632 62.337C104.755 57.7782 103.878 53.2194 103 48.6606L93.842 50.0952C92.7059 55.2261 91.5697 60.357 90.4336 65.4879Z" fill="#9B9B9B"/>
<path fill-rule="evenodd" clip-rule="evenodd" d="M90.4336 65.4877L105.255 62.275L102.709 48.6387L93.8439 50.0823C92.7065 55.2217 91.5697 60.3568 90.4336 65.4877Z" fill="#9A9A9A"/>
<path fill-rule="evenodd" clip-rule="evenodd" d="M90.4336 65.4886L104.88 62.2195L102.414 48.6377L93.842 50.0904L90.4336 65.4886Z" fill="#999999"/>
<path fill-rule="evenodd" clip-rule="evenodd" d="M86.1955 28.4097L122.302 25.0261L138 60.5115L90.4387 65.4878L53.1005 56.7187L10.0039 63.9751L27.0898 27.7661L58.2823 20.5352L86.1955 28.4097Z" fill="#C8C8C8"/>
<path fill-rule="evenodd" clip-rule="evenodd" d="M53.107 56.5081C45.9809 57.7118 38.8555 58.9118 31.7306 60.1081L10.3633 63.7027C13.1776 57.7499 15.9907 51.7924 18.8025 45.83C21.6144 39.8675 24.4257 33.9069 27.2363 27.9482C32.4054 26.7457 37.5768 25.5458 42.7507 24.3482C47.9246 23.1506 53.1016 21.9512 58.2815 20.75C57.4133 26.7124 56.5494 32.6742 55.6897 38.6354C54.83 44.5966 53.9691 50.5542 53.107 56.5081Z" fill="#788EFF"/>
<path fill-rule="evenodd" clip-rule="evenodd" d="M53.2454 55.5302L33.2204 58.9266L13.1953 62.3247C15.7538 56.6944 18.3098 51.0623 20.8634 45.4284C23.417 39.7945 25.9706 34.1581 28.5242 28.5193L43.3311 25.1212C48.2637 23.9927 53.1993 22.8636 58.138 21.7339C57.3232 27.369 56.5071 33.0054 55.6899 38.643L53.2454 55.5302Z" fill="#D4EBFF"/>
<path fill-rule="evenodd" clip-rule="evenodd" d="M53.9522 50.6182C51.3549 51.8727 48.7189 53.1273 46.044 54.3818C43.354 55.64 40.6149 56.8909 37.8594 58.14L42.6119 57.3363C44.4998 56.4727 46.3877 55.6091 48.2502 54.7418C50.1127 53.8745 51.926 53.0073 53.7521 52.1345C53.8085 51.6291 53.8812 51.1218 53.9522 50.6182Z" fill="white"/>
<path fill-rule="evenodd" clip-rule="evenodd" d="M56.0245 36.3149C50.3377 37.4458 44.6515 38.5786 38.9659 39.7131C33.2804 40.8477 27.596 41.9804 21.9128 43.1113C21.7309 43.5058 21.5491 43.9004 21.3672 44.2967L38.604 40.8986C44.349 39.7677 50.0976 38.6349 55.8499 37.5004C55.9045 37.1095 55.9681 36.7113 56.0245 36.3149Z" fill="white"/>
<path fill-rule="evenodd" clip-rule="evenodd" d="M55.8526 37.5318C54.2375 37.5318 52.637 37.5136 51.051 37.5063C50.5053 37.9319 49.9597 38.3521 49.4141 38.7686C51.4748 38.7813 53.5591 38.7995 55.658 38.8068C55.7271 38.3866 55.789 37.9574 55.8526 37.5318Z" fill="#788EFF"/>
<path fill-rule="evenodd" clip-rule="evenodd" d="M49.8235 54.1803C50.4219 53.7585 51.0312 53.3385 51.6295 52.9076C47.4608 52.5439 43.3704 52.176 39.3581 51.8039C35.4295 51.4403 31.5766 51.0706 27.7996 50.6948C27.163 51.1203 26.5264 51.5457 25.8789 51.9675C29.6754 52.3312 33.5488 52.6991 37.4993 53.0712C41.5188 53.4457 45.6269 53.8154 49.8235 54.1803Z" fill="#788EFF"/>
<path fill-rule="evenodd" clip-rule="evenodd" d="M36.8789 51.753C37.1281 52.0621 37.3827 52.3639 37.6355 52.6621C40.5202 51.6185 43.3793 50.5718 46.213 49.5221C49.0176 48.4821 51.8016 47.4355 54.565 46.3821C54.5795 46.2785 54.5995 46.1767 54.6141 46.0676C54.3831 45.8367 54.163 45.604 53.9429 45.373C51.1602 46.4397 48.3537 47.5052 45.5237 48.5694C42.6754 49.6385 39.7835 50.7003 36.8789 51.753Z" fill="#788EFF"/>
<path fill-rule="evenodd" clip-rule="evenodd" d="M19.3477 48.7641C23.6364 47.5956 27.8997 46.4241 32.1375 45.2496C36.3462 44.0859 40.5276 42.9041 44.6872 41.7314C44.6872 41.3587 44.6872 40.9805 44.6872 40.606C40.6186 41.766 36.5281 42.935 32.4067 44.0859C28.2574 45.2459 24.0832 46.4029 19.8842 47.5569L19.3477 48.7641Z" fill="#788EFF"/>
<path fill-rule="evenodd" clip-rule="evenodd" d="M39.5093 47.3931C40.1041 46.9767 40.7025 46.5549 41.2972 46.1313C39.7585 45.8513 38.2344 45.5749 36.7357 45.2931C35.237 45.0113 33.7837 44.7294 32.3414 44.4458C31.7285 44.8676 31.1192 45.2931 30.5117 45.7094C31.9668 45.9931 33.4382 46.2785 34.9296 46.5549C36.421 46.8313 37.9615 47.1185 39.5093 47.3931Z" fill="#788EFF"/>
<path fill-rule="evenodd" clip-rule="evenodd" d="M57.4251 26.6294C52.3325 27.2355 47.3004 27.8415 42.329 28.4476C37.4074 29.0536 32.5421 29.6597 27.7331 30.2658C27.5513 30.6603 27.3694 31.0603 27.1875 31.4548C32.057 30.8488 36.983 30.2464 41.9653 29.6476C47.0022 29.0415 52.0948 28.4355 57.2432 27.8294C57.3105 27.4276 57.3687 27.0294 57.4251 26.6294Z" fill="white"/>
<path fill-rule="evenodd" clip-rule="evenodd" d="M39.8594 39.4129C40.0704 39.716 40.2856 40.019 40.5051 40.322C43.4151 38.5039 46.2634 36.6857 49.0352 34.8548C51.7635 33.0366 54.4207 31.2184 57.0289 29.3857C57.1053 28.8584 57.1817 28.3257 57.2581 27.793C54.5299 29.7293 51.7362 31.6839 48.8625 33.6111C45.9378 35.5548 42.9313 37.4748 39.8594 39.4129Z" fill="white"/>
<path fill-rule="evenodd" clip-rule="evenodd" d="M50.0815 33.8275C50.729 33.3639 51.3801 32.8912 52.0331 32.4185C47.4897 32.9191 42.9881 33.4203 38.5284 33.9221C34.1112 34.4203 29.7345 34.9221 25.3985 35.4275C25.2166 35.8348 25.0347 36.2421 24.8438 36.6512C28.9542 36.1821 33.1054 35.7136 37.2971 35.2457C41.524 34.7669 45.7855 34.2942 50.0815 33.8275Z" fill="#788EFF"/>
<path fill-rule="evenodd" clip-rule="evenodd" d="M21.8633 43.2058C26.7741 39.9876 31.5339 36.8076 36.0627 33.5531C40.4951 30.3731 44.6784 27.1149 48.7179 23.8931C47.9359 24.0688 47.1544 24.2476 46.3735 24.4294C42.7468 27.2822 39.0164 30.1603 35.1078 32.9749C31.1065 35.8494 26.9232 38.6658 22.6399 41.5094L21.8633 43.2058Z" fill="#788EFF"/>
<path fill-rule="evenodd" clip-rule="evenodd" d="M43.7429 37.8312L45.7981 36.4185C42.8881 36.7118 39.9986 37.0039 37.1297 37.2948L28.6286 38.1548C27.9011 38.6275 27.1681 39.0984 26.4297 39.5675L34.9981 38.7039C37.8973 38.4166 40.8122 38.1257 43.7429 37.8312Z" fill="#788EFF"/>
<path fill-rule="evenodd" clip-rule="evenodd" d="M56.7976 30.9766L50.7464 32.2384C49.797 32.8566 48.8464 33.4754 47.8945 34.0947L52.2506 33.1857C53.7056 32.8838 55.1607 32.5875 56.6157 32.2875C56.6684 31.8529 56.7303 31.4147 56.7976 30.9766Z" fill="#788EFF"/>
<path fill-rule="evenodd" clip-rule="evenodd" d="M57.9536 22.9385C56.1567 23.1876 54.3651 23.433 52.5827 23.6858C50.8003 23.9385 49.0306 24.1894 47.2682 24.4385C46.6443 24.9112 46.0277 25.3785 45.3984 25.8512L51.5569 24.9876L57.7918 24.1239C57.8391 23.733 57.8973 23.3385 57.9536 22.9385Z" fill="#788EFF"/>
<path fill-rule="evenodd" clip-rule="evenodd" d="M54.5117 45.0351C54.5845 45.1133 54.6554 45.1806 54.7282 45.2552C54.7482 45.1424 54.7609 45.026 54.7809 44.915C54.69 44.9532 54.599 44.9969 54.5117 45.0351Z" fill="white"/>
<path fill-rule="evenodd" clip-rule="evenodd" d="M51.1929 33.4113C48.4041 35.2671 45.5546 37.1229 42.6445 38.9786C44.8689 38.5368 47.1006 38.7422 49.3286 38.3004C51.5567 37.8586 53.7647 36.9186 55.9982 36.4732C56.1946 35.1241 56.4111 33.6186 56.6075 32.2695C54.7948 32.6513 52.9899 33.032 51.1929 33.4113Z" fill="#CB52CD"/>
<path fill-rule="evenodd" clip-rule="evenodd" d="M33.918 44.7514C36.3285 45.2157 38.7881 45.6757 41.2969 46.1314C43.9032 45.1733 46.846 44.0514 49.4142 43.0933C47.9337 42.586 46.1185 42.2424 44.6853 41.7314C42.9029 42.2387 41.1095 42.7442 39.318 43.2442C37.5265 43.7442 35.724 44.2496 33.918 44.7514Z" fill="#CB52CD"/>
<path fill-rule="evenodd" clip-rule="evenodd" d="M57.2077 27.8281C56.1164 28.6009 55.0252 29.3827 53.9102 30.1608C51.41 30.4396 48.9243 30.7184 46.4531 30.9972C47.4262 30.2463 48.3938 29.5027 49.3523 28.7518C51.9556 28.4427 54.5741 28.1348 57.2077 27.8281Z" fill="#A638A8"/>
<path fill-rule="evenodd" clip-rule="evenodd" d="M27.3543 52.1147C29.0076 52.2729 30.6809 52.4366 32.367 52.5947C34.053 52.7529 35.7881 52.9166 37.5233 53.0766C35.559 53.9917 33.5801 54.9038 31.5867 55.8129C29.8425 55.5329 28.1164 55.2547 26.4213 54.9711C24.7262 54.6875 23.0801 54.4038 21.4414 54.1202C23.4203 53.4547 25.3912 52.7863 27.3543 52.1147Z" fill="#CB52CD"/>
<path fill-rule="evenodd" clip-rule="evenodd" d="M39.2086 29.9736C37.1352 31.5082 35.0254 33.0391 32.8792 34.5664L25.3984 35.4282C26.0047 34.1045 26.6055 32.7797 27.2009 31.4536C29.1797 31.2136 31.1677 30.9609 33.1629 30.7154C35.1581 30.47 37.1825 30.2155 39.2086 29.9736Z" fill="#CB52CD"/>
<path fill-rule="evenodd" clip-rule="evenodd" d="M42.0464 33.7915L39.3291 34.0915C37.5175 35.4782 35.6727 36.863 33.7944 38.246C31.8993 39.6369 29.9568 41.0115 27.9961 42.3951L31.079 41.9442C32.9796 40.586 34.8566 39.2333 36.6936 37.8715C38.5306 36.5097 40.2876 35.1424 42.0464 33.7915Z" fill="#788EFF"/>
<path fill-rule="evenodd" clip-rule="evenodd" d="M33.0132 35.7152C31.8904 36.5009 30.7597 37.2824 29.6211 38.0597C31.3186 37.8887 33.0307 37.7141 34.7574 37.5358C35.8159 36.7465 36.8684 35.9583 37.9148 35.1714L33.0132 35.7152Z" fill="#A638A8"/>
<path fill-rule="evenodd" clip-rule="evenodd" d="M90.451 65.2772C84.2258 63.8142 78.0013 62.3542 71.7773 60.8972C65.5534 59.4402 59.3294 57.9809 53.1055 56.519C53.5408 53.5009 53.9767 50.4815 54.4132 47.4609C54.9789 48.7414 55.3745 50.0904 55.59 51.4736C56.4897 51.6336 57.39 51.7912 58.2909 51.9463C57.798 49.0027 56.5394 46.3718 54.9115 44.0591L54.7297 45.3318L55.6991 38.6372C56.5612 32.6797 57.4239 26.7173 58.2872 20.75C62.9325 22.0627 67.5807 23.3742 72.232 24.6845C76.8833 25.9948 81.534 27.3076 86.1841 28.6227C86.9007 34.7354 87.6143 40.8457 88.3248 46.9536C89.0354 53.0615 89.7441 59.1693 90.451 65.2772Z" fill="#75AFE1"/>
<path fill-rule="evenodd" clip-rule="evenodd" d="M88.1298 45.3423C82.928 46.2677 77.5298 47.2041 71.9424 48.0696C67.37 48.7696 62.6847 49.4277 57.8649 50.0877C58.0019 50.5641 58.1183 51.0489 58.2141 51.5423C62.8957 50.915 67.4645 50.2805 71.9133 49.6077C77.5789 48.7514 83.0426 47.8223 88.308 46.9005C88.2498 46.3841 88.1898 45.8623 88.1262 45.3423H88.1298ZM55.3913 50.4223L53.9544 50.615C53.8799 51.1223 53.8089 51.6295 53.7344 52.1368L56.9409 51.7132L55.5914 51.4732C55.5344 51.1192 55.4671 50.7689 55.3895 50.4223H55.3913Z" fill="#C8C8C8"/>
<path fill-rule="evenodd" clip-rule="evenodd" d="M88.0392 44.5769L72.0337 40.4478C66.6986 39.0732 61.3634 37.6963 56.0283 36.3169C55.9682 36.7114 55.9119 37.1096 55.8555 37.5005C61.2416 38.886 66.6283 40.2696 72.0156 41.6514L88.1811 45.7914C88.132 45.3914 88.0865 44.9805 88.0392 44.5769Z" fill="#C8C8C8"/>
<path fill-rule="evenodd" clip-rule="evenodd" d="M88.5122 48.5698C85.784 47.4134 83.7433 45.5952 83.616 44.0334C83.4886 42.4716 85.2183 41.6152 87.721 41.7971C87.9829 44.0552 88.2466 46.3128 88.5122 48.5698Z" fill="#4C1C84"/>
<path fill-rule="evenodd" clip-rule="evenodd" d="M88.3538 47.297C86.8987 46.5261 85.8729 45.4952 85.7838 44.5897C85.6947 43.6843 86.5386 43.1352 87.8609 43.0752C88.0245 44.4825 88.1888 45.8897 88.3538 47.297Z" fill="#A638A8"/>
<path fill-rule="evenodd" clip-rule="evenodd" d="M76.5278 48.8824C76.9607 48.6642 77.4027 48.446 77.8319 48.2187C74.0452 46.4296 70.3057 44.643 66.6135 42.8587C62.9759 41.0896 59.382 39.3006 55.8498 37.5278C55.7862 37.9551 55.7262 38.3824 55.668 38.8006C59.0328 40.4733 62.443 42.1606 65.9024 43.8278C69.3896 45.5139 72.9315 47.1987 76.5278 48.8824Z" fill="#374BB3"/>
<path fill-rule="evenodd" clip-rule="evenodd" d="M87.2818 38.0931C82.1807 36.1731 77.1299 34.2543 72.1294 32.3367C67.1762 30.4349 62.2757 28.5307 57.428 26.624C57.368 27.0204 57.3116 27.4168 57.2461 27.8131C62.146 29.7186 67.0992 31.6289 72.1057 33.544C77.1535 35.4652 82.2565 37.3858 87.4146 39.3058C87.3782 38.9076 87.3291 38.4986 87.2818 38.0931Z" fill="#C8C8C8"/>
<path fill-rule="evenodd" clip-rule="evenodd" d="M65.1719 30.2113C65.743 30.5585 66.3141 30.9004 66.8906 31.244C68.7731 30.5804 70.6247 29.9222 72.4325 29.244C74.2059 28.5804 75.9428 27.8913 77.6416 27.2058L75.1517 26.5186C73.5675 27.1404 71.9524 27.7713 70.3027 28.3786C68.6531 28.9858 66.9125 29.6095 65.1719 30.2113Z" fill="#374BB3"/>
<path fill-rule="evenodd" clip-rule="evenodd" d="M63.4414 38.6189L65.3621 39.7098C66.018 36.8395 66.6528 33.9613 67.2664 31.0753C66.6698 30.7116 66.075 30.348 65.4857 29.9844C64.8273 32.8698 64.138 35.7516 63.4414 38.6189Z" fill="#374BB3"/>
<path fill-rule="evenodd" clip-rule="evenodd" d="M66.7562 34.9747C66.718 34.5129 66.6853 34.0529 66.6507 33.5947L61.7218 32.2857L56.8001 30.9766C56.7328 31.4129 56.6691 31.8547 56.6055 32.2947C58.2933 32.7444 59.9836 33.1911 61.6763 33.6347C63.3641 34.0802 65.0647 34.5184 66.7562 34.9747Z" fill="#374BB3"/>
<path fill-rule="evenodd" clip-rule="evenodd" d="M87.4318 39.4062C83.7578 38.3856 80.0893 37.3632 76.4262 36.3389C72.7631 35.3147 69.1043 34.2886 65.4497 33.2607C65.3333 33.6844 65.2114 34.1116 65.0859 34.5335C68.8278 35.5747 72.5734 36.6171 76.3225 37.6607C80.0693 38.6953 83.8305 39.7444 87.5991 40.7807C87.5409 40.3371 87.4882 39.8698 87.4318 39.4062Z" fill="#374BB3"/>
<path fill-rule="evenodd" clip-rule="evenodd" d="M70.5742 40.9245C71.4036 41.0591 72.2366 41.1882 73.066 41.3264C73.0442 39.6427 73.0241 37.9591 73.006 36.2755C72.2075 36.1918 71.4036 36.1118 70.6051 36.0264C70.5942 37.6579 70.5839 39.2906 70.5742 40.9245Z" fill="#374BB3"/>
<path fill-rule="evenodd" clip-rule="evenodd" d="M78.5968 42.8476C79.4225 42.9767 80.2464 43.1149 81.0722 43.2494C80.9412 41.5525 80.8121 39.8555 80.6848 38.1585C79.8918 38.0785 79.1042 37.9985 78.3203 37.9131C78.4058 39.5658 78.5058 41.2058 78.5968 42.8476Z" fill="#374BB3"/>
<path fill-rule="evenodd" clip-rule="evenodd" d="M71.1315 29.1605C71.6244 28.9423 72.1173 28.7187 72.603 28.5005C70.1391 27.572 67.6819 26.6447 65.2313 25.7187C62.7808 24.7926 60.3557 23.8648 57.9561 22.9351C57.8997 23.3314 57.8415 23.7278 57.7852 24.1278C59.9805 24.966 62.1958 25.806 64.4129 26.6405C66.63 27.4751 68.8799 28.3187 71.1315 29.1605Z" fill="#374BB3"/>
<path fill-rule="evenodd" clip-rule="evenodd" d="M89.3941 56.1933C85.6959 55.0405 82.0146 53.889 78.3503 52.7387C74.686 51.5884 71.0484 50.4369 67.4375 49.2842C67.4521 49.6933 67.4702 50.0987 67.4848 50.5042C71.1224 51.6533 74.7752 52.7993 78.4431 53.9424C82.111 55.0854 85.8092 56.2369 89.5378 57.3969C89.4869 57.0005 89.4396 56.5951 89.3941 56.1933Z" fill="#374BB3"/>
<path fill-rule="evenodd" clip-rule="evenodd" d="M63.8477 53.5352C64.9001 53.9376 65.9575 54.34 67.0197 54.7425C68.7075 54.4394 70.3802 54.1291 72.0377 53.8115C73.6747 53.4988 75.2989 53.1752 76.9085 52.8588L73.8074 51.6606C72.1863 51.9806 70.5493 52.2952 68.8967 52.6043C67.244 52.9134 65.561 53.2237 63.8477 53.5352Z" fill="#374BB3"/>
<path d="M54.9049 44.0581C56.5327 46.3708 57.7913 49.0017 58.2842 51.9454C57.3833 51.789 56.483 51.6314 55.5833 51.4726C55.3698 50.0854 54.9754 48.732 54.4102 47.4472C54.5763 46.3223 54.7412 45.1926 54.9049 44.0581Z" fill="#4C1C84"/>
<path fill-rule="evenodd" clip-rule="evenodd" d="M54.7284 45.2464L54.7629 45.0082C54.7502 45.0882 54.7393 45.1664 54.7266 45.2446L54.7284 45.2464ZM56.2325 46.1704C58.2896 45.9885 60.3339 45.8066 62.351 45.612C64.6451 45.3938 66.9156 45.1706 69.1624 44.9427C68.8787 44.5025 68.5986 44.0569 68.3221 43.6113C66.1268 43.835 63.9079 44.0606 61.6635 44.2752C59.6107 44.4716 57.5366 44.6632 55.4414 44.8499C55.7202 45.284 55.984 45.7266 56.2325 46.1777V46.1704Z" fill="#374BB3"/>
<path fill-rule="evenodd" clip-rule="evenodd" d="M64.6827 58.2293C65.6249 57.0657 66.5524 55.9014 67.4655 54.7366C66.6325 54.3644 65.8043 53.9905 64.981 53.6147C63.9273 54.9299 62.8542 56.2378 61.7617 57.5384L64.6827 58.2293Z" fill="#374BB3"/>
<path fill-rule="evenodd" clip-rule="evenodd" d="M88.7517 50.7013L82.0894 49.0359C79.8668 48.4807 77.6461 47.9225 75.4271 47.3613C75.318 47.7759 75.2095 48.1898 75.1016 48.6031L82.013 50.3231C84.3084 50.8916 86.6122 51.4644 88.9245 52.0413C88.8554 51.6104 88.8044 51.1577 88.7517 50.7013Z" fill="#374BB3"/>
<path fill-rule="evenodd" clip-rule="evenodd" d="M65.8728 50.0024C67.4224 50.4933 70.6017 51.4915 72.1549 51.9806C69.9723 52.4 67.7564 52.8176 65.5072 53.2333C63.4907 52.6188 61.4779 52.0012 59.4688 51.3806C62.1788 51.1006 63.2373 50.3006 65.8728 50.0024Z" fill="#A638A8"/>
<path fill-rule="evenodd" clip-rule="evenodd" d="M56.0273 36.3167C58.5288 36.9664 61.0309 37.613 63.5336 38.2567C63.8573 36.9385 64.1756 35.6258 64.4884 34.3076C63.1753 33.9639 61.8566 33.6258 60.5453 33.2876C59.2339 32.9494 57.9244 32.6112 56.6094 32.2676C56.4154 33.6167 56.2213 34.9664 56.0273 36.3167Z" fill="#A638A8"/>
<path fill-rule="evenodd" clip-rule="evenodd" d="M73.0117 36.7388C73.0299 38.066 73.0463 39.3879 73.0645 40.7151L78.5573 42.1315C78.479 40.826 78.4008 39.5169 78.3263 38.2133L73.0117 36.7388Z" fill="#A638A8"/>
<path fill-rule="evenodd" clip-rule="evenodd" d="M68.1406 30.8047C69.7466 30.2338 71.3235 29.6556 72.8695 29.0811C74.2518 29.6156 75.6383 30.1514 77.0291 30.6883C78.4223 31.2229 79.8264 31.7665 81.2306 32.2992C80.2448 33.092 79.2444 33.8847 78.2204 34.6629C76.5253 34.0229 74.8338 33.372 73.1533 32.732C71.4727 32.092 69.803 31.4501 68.1406 30.8047Z" fill="#A638A8"/>
<path fill-rule="evenodd" clip-rule="evenodd" d="M87.4318 39.4063C83.9761 38.4499 80.5113 37.4735 77.0646 36.5117C73.618 35.5499 70.1714 34.5844 66.7266 33.6172C66.8684 32.9626 67.0079 32.3069 67.1449 31.6499C70.4697 32.9226 73.8163 34.1954 77.1847 35.4681C80.5531 36.7408 83.964 38.0226 87.4173 39.3135C87.4173 39.3444 87.4318 39.3808 87.4318 39.4063Z" fill="#A638A8"/>
<path fill-rule="evenodd" clip-rule="evenodd" d="M89.91 60.6332C84.3953 58.9739 78.9104 57.3157 73.4552 55.6587C68.3062 54.0987 63.1844 52.5187 58.09 50.9551C58.1645 51.2824 58.23 51.6114 58.2864 51.946L57.2188 51.7642V51.9187C62.623 53.5696 68.054 55.2217 73.5116 56.8751C78.9959 58.5296 84.5129 60.186 90.0627 61.8442C90.0082 61.4387 89.9663 61.0332 89.91 60.6332Z" fill="#4C1C84"/>
<path fill-rule="evenodd" clip-rule="evenodd" d="M122.166 25.2461C124.753 31.0982 127.341 36.9485 129.931 42.797C132.521 48.6454 135.108 54.4921 137.693 60.3369L114.062 62.8078C106.19 63.6333 98.3181 64.4563 90.4463 65.2769C89.7297 59.1739 89.0174 53.0667 88.3092 46.9551C87.6011 40.8436 86.89 34.7321 86.1758 28.6206L104.166 26.9352C110.162 26.3728 116.162 25.8097 122.166 25.2461Z" fill="#788EFF"/>
<path fill-rule="evenodd" clip-rule="evenodd" d="M120.559 26.4077C122.909 31.9519 125.255 37.4938 127.598 43.0331C129.94 48.5725 132.286 54.1113 134.635 59.6495L112.476 61.9622L90.3286 64.2767C89.6545 58.4986 88.9815 52.7246 88.3098 46.955C87.638 41.1853 86.9644 35.4101 86.2891 29.6295L103.424 28.0204C109.13 27.4847 114.842 26.9471 120.559 26.4077Z" fill="#D4EBFF"/>
<path fill-rule="evenodd" clip-rule="evenodd" d="M101.005 28.2496C99.3463 31.1078 97.6184 34.0042 95.7305 36.8678C93.7862 39.7914 91.6855 42.6841 89.5156 45.6096L92.2566 45.815C94.4391 42.8078 96.558 39.8369 98.4914 36.8351C100.387 33.8914 102.107 30.9223 103.766 27.9878C102.838 28.0769 101.922 28.1551 101.005 28.2496Z" fill="#788EFF"/>
<path d="M94.693 44.3008C95.817 45.9917 98.0632 49.0135 104.136 51.859C106.97 53.1408 110.655 54.4044 115.46 55.4389C120.351 56.4989 126.418 57.348 133.894 57.888C134.094 58.3517 134.29 58.8208 134.487 59.2771C126.104 58.748 119.341 57.8608 113.934 56.7189C108.618 55.5989 104.589 54.2299 101.508 52.828C95.1295 49.8026 92.8432 46.6226 91.6992 44.8462L94.693 44.3008Z" fill="white"/>
<path fill-rule="evenodd" clip-rule="evenodd" d="M121.611 28.897C116.557 31.5679 111.306 34.2933 105.811 36.9915C100.142 39.7751 94.2289 42.5315 88.125 45.3424C88.1814 45.8624 88.2432 46.3824 88.3069 46.8988C94.4908 44.0769 100.475 41.3151 106.224 38.5206C111.789 35.8151 117.115 33.0661 122.246 30.3952C122.031 29.8988 121.826 29.397 121.611 28.897Z" fill="white"/>
<path fill-rule="evenodd" clip-rule="evenodd" d="M95.1345 63.7767C94.2784 58.0276 93.4248 52.2792 92.5736 46.5313C91.7224 40.7834 90.867 35.0337 90.0073 29.2822C89.1579 29.3622 88.3085 29.4459 87.4609 29.5222C88.1885 35.2895 88.916 41.0567 89.6435 46.824C90.371 52.5913 91.1028 58.3567 91.8388 64.1203C92.9392 64.004 94.0359 63.8931 95.1345 63.7767Z" fill="#788EFF"/>
<path fill-rule="evenodd" clip-rule="evenodd" d="M126.628 40.7461C120.193 41.3873 113.758 42.0267 107.323 42.6643L88.0312 44.577C88.0767 44.9825 88.1295 45.3897 88.1749 45.7952L107.636 43.857L127.116 41.9152C126.957 41.5315 126.797 41.1388 126.628 40.7461Z" fill="white"/>
<path fill-rule="evenodd" clip-rule="evenodd" d="M90.3791 41.3386C93.1383 41.0695 98.9784 42.115 99.3749 44.0659C99.7714 46.0168 94.2696 48.1841 91.3576 48.4768C88.4457 48.7695 89.4006 48.6059 88.4985 48.5695C88.2366 46.3114 87.9741 44.0532 87.7109 41.795C88.5349 41.5914 87.6218 41.6095 90.3791 41.3386Z" fill="#7734C6"/>
<path fill-rule="evenodd" clip-rule="evenodd" d="M90.54 42.5084C92.5898 42.3066 96.3602 43.0211 96.6039 44.3411C96.8476 45.6611 93.3301 47.1029 91.2057 47.3156C89.0813 47.5284 89.205 47.4084 88.3502 47.2956C88.1865 45.8872 88.0216 44.4799 87.8555 43.0738C88.6339 42.8084 88.4902 42.7102 90.54 42.5084Z" fill="#CB52CD"/>
<path fill-rule="evenodd" clip-rule="evenodd" d="M90.0801 39.286C90.0492 38.8858 90.0237 38.4766 89.9928 38.0674C89.0798 38.0807 88.1746 38.0892 87.2773 38.0928C87.3246 38.4966 87.3701 38.9059 87.4174 39.3133C88.3031 39.306 89.1944 39.2969 90.0801 39.286Z" fill="white"/>
<path fill-rule="evenodd" clip-rule="evenodd" d="M90.8618 40.5024C90.9127 40.0331 90.96 39.5693 91.0055 39.1001C89.816 39.2056 88.624 39.3074 87.4297 39.4057C87.4861 39.8695 87.5388 40.326 87.5952 40.7861C88.6828 40.7006 89.7687 40.5988 90.8618 40.5024Z" fill="#788EFF"/>
<path fill-rule="evenodd" clip-rule="evenodd" d="M93.2917 57.219C93.188 56.8225 93.0898 56.426 92.988 56.0259C91.7821 56.0786 90.5871 56.1386 89.3867 56.1914C89.4322 56.5952 89.4795 56.9989 89.5249 57.3991C90.7763 57.3445 92.0319 57.2845 93.2917 57.219Z" fill="#788EFF"/>
<path fill-rule="evenodd" clip-rule="evenodd" d="M102.934 52.9078C104.041 52.9878 105.149 53.0714 106.257 53.1478C108.215 51.3823 110.138 49.6332 111.98 47.875C113.799 46.1387 115.536 44.3841 117.24 42.6478C116.18 42.5587 115.129 42.4751 114.072 42.3823C112.34 44.1241 110.569 45.8769 108.73 47.6187C106.864 49.3805 104.918 51.135 102.934 52.9078Z" fill="#788EFF"/>
<path fill-rule="evenodd" clip-rule="evenodd" d="M109.537 62.2714C108.778 60.6218 108.03 58.9696 107.294 57.3151C106.558 55.6605 105.834 54.0012 105.121 52.3369C103.999 52.4987 102.88 52.6533 101.758 52.8133C102.427 54.4593 103.105 56.1024 103.791 57.7424C104.478 59.3824 105.182 61.0187 105.905 62.6514L109.537 62.2714Z" fill="#788EFF"/>
<path fill-rule="evenodd" clip-rule="evenodd" d="M104.646 53.5841C104.475 53.0387 104.306 52.4841 104.135 51.9351C102.1 52.5508 100.052 53.1684 97.9892 53.7878C95.9194 54.4078 93.8315 55.0332 91.7344 55.6496C91.8526 56.2096 91.9763 56.7678 92.0981 57.3241L98.4294 55.4496C100.514 54.8314 102.58 54.2041 104.646 53.5841Z" fill="#788EFF"/>
<path fill-rule="evenodd" clip-rule="evenodd" d="M92.3637 51.6998C92.5638 51.2324 92.7602 50.7559 92.9603 50.2866C91.5537 50.4297 90.149 50.571 88.7461 50.7104C88.7988 51.156 88.8498 51.6034 88.9007 52.049L92.3637 51.6998Z" fill="#788EFF"/>
<path fill-rule="evenodd" clip-rule="evenodd" d="M100.035 31.9209C100.186 32.3574 100.335 32.7976 100.49 33.2341C103.374 33.0607 106.259 32.8855 109.144 32.7085C112.028 32.5314 114.929 32.3495 117.847 32.1628C118.46 31.7354 119.082 31.3098 119.695 30.8896C116.403 31.0715 113.107 31.237 109.824 31.4098C106.541 31.5826 103.293 31.7481 100.035 31.9209Z" fill="#788EFF"/>
<path fill-rule="evenodd" clip-rule="evenodd" d="M106.121 31.9604C107.274 32.004 108.435 32.044 109.593 32.0804C110.746 30.4222 111.87 28.7695 112.947 27.124C111.716 27.2404 110.49 27.3568 109.262 27.4677C108.247 28.9622 107.2 30.4598 106.121 31.9604Z" fill="#788EFF"/>
<path fill-rule="evenodd" clip-rule="evenodd" d="M96.1328 37.1846C96.2674 37.6284 96.4056 38.074 96.5402 38.5141C98.4463 38.294 100.36 38.0631 102.259 37.8412C104.157 37.6193 106.065 37.3919 107.971 37.1646C108.647 36.7317 109.32 36.2976 109.992 35.8623L103.059 36.528C100.755 36.7499 98.4463 36.9687 96.1328 37.1846Z" fill="#788EFF"/>
<path fill-rule="evenodd" clip-rule="evenodd" d="M103.757 27.9883C103.049 29.2695 102.321 30.5519 101.574 31.8355C103.177 31.7555 104.779 31.6755 106.392 31.5883C107.376 30.2149 108.332 28.8416 109.26 27.4683C107.422 27.644 105.588 27.8173 103.757 27.9883Z" fill="#A638A8"/>
<path fill-rule="evenodd" clip-rule="evenodd" d="M130.008 48.7205C126.763 48.3569 123.545 47.9932 120.354 47.6296C117.201 47.2587 114.071 46.8781 110.962 46.4878C110.582 46.8842 110.194 47.2769 109.809 47.6696C113.182 48.086 116.598 48.5023 120.039 48.8987C123.511 49.2987 127.036 49.6914 130.579 50.0787C130.39 49.6223 130.199 49.1732 130.008 48.7205Z" fill="#788EFF"/>
<path fill-rule="evenodd" clip-rule="evenodd" d="M114.617 56.4951C115.565 56.6224 116.523 56.7515 117.476 56.8715C120.083 54.1442 122.58 51.4351 124.966 48.7442C124.033 48.6169 123.111 48.4842 122.183 48.3569C119.768 51.0551 117.246 53.7678 114.617 56.4951Z" fill="#788EFF"/>
<path fill-rule="evenodd" clip-rule="evenodd" d="M131.829 53.0213C128.234 52.5292 124.674 52.0286 121.149 51.5195C120.649 51.9523 120.15 52.3759 119.645 52.805C121.753 53.1092 123.871 53.408 125.998 53.7013C128.149 53.9977 130.314 54.285 132.489 54.5777C132.272 54.0613 132.056 53.5413 131.829 53.0213Z" fill="#788EFF"/>
<path fill-rule="evenodd" clip-rule="evenodd" d="M122.523 57.8317C123.538 57.9244 124.55 58.0135 125.57 58.1044C127.254 56.4075 128.895 54.7232 130.493 53.0517C129.5 52.9572 128.493 52.8699 127.511 52.7681C125.894 54.4541 124.232 56.142 122.523 57.8317Z" fill="#788EFF"/>
<path fill-rule="evenodd" clip-rule="evenodd" d="M121.135 53.0171C120.209 54.0135 119.268 55.011 118.312 56.0098C118.312 56.0098 119.68 56.2644 120.859 56.4462C122.037 56.628 123.527 56.8389 123.527 56.8389C124.55 55.8159 125.558 54.7953 126.55 53.7771C124.737 53.5238 122.932 53.2704 121.135 53.0171Z" fill="#CB52CD"/>
<path fill-rule="evenodd" clip-rule="evenodd" d="M88.6584 39.3057C88.2473 39.342 87.8399 39.3766 87.4271 39.4057C87.4257 39.3746 87.4226 39.3437 87.418 39.3129C87.829 39.3129 88.2419 39.3093 88.6584 39.3057Z" fill="#D4CBBA"/>
<path fill-rule="evenodd" clip-rule="evenodd" d="M122.244 30.3955L111.934 35.6937L113.983 42.0028L126.63 40.7464L122.244 30.3955Z" fill="#CB52CD"/>
<path fill-rule="evenodd" clip-rule="evenodd" d="M110.32 36.0259L112.645 42.3714L114.309 42.1659L111.879 35.2568L110.32 36.0259Z" fill="#788EFF"/>
<path fill-rule="evenodd" clip-rule="evenodd" d="M121.612 28.897L122.245 30.3952C113.62 34.9624 104.817 39.3188 95.8358 43.4642C95.1643 43.1065 94.4406 42.8568 93.6914 42.7242C103.211 38.1933 112.518 33.5842 121.612 28.897Z" fill="#7734C6"/>
<path fill-rule="evenodd" clip-rule="evenodd" d="M122.244 30.3952C121.346 30.8703 120.448 31.343 119.548 31.8133V31.7915C120.454 31.3224 121.352 30.8552 122.244 30.3897V30.3952ZM119.548 29.9842V29.957C120.238 29.6042 120.926 29.2509 121.611 28.897L119.548 29.9842ZM119.548 31.8133C116.771 33.2679 113.976 34.6964 111.162 36.0988V36.0824C114.017 34.6521 116.813 33.2218 119.548 31.7915V31.8079V31.8133ZM119.548 29.957V29.9842L117.611 31.0042H117.495L119.557 29.9515L119.548 29.957ZM111.162 34.3206C112.46 33.6624 113.746 33.0036 115.019 32.3442L114.837 32.357C113.616 32.9727 112.393 33.5879 111.167 34.2024L111.162 34.3206ZM111.162 36.0988C107.865 37.7461 104.543 39.3642 101.196 40.9533V40.9297C102.894 40.1285 104.569 39.3254 106.222 38.5206C107.874 37.7158 109.521 36.903 111.162 36.0824V36.0988ZM111.162 34.2024C109.88 34.8424 108.594 35.4818 107.304 36.1206L107.64 36.0879C108.826 35.4988 110 34.9097 111.162 34.3206V34.2024ZM101.196 39.2279C102.357 38.6715 103.509 38.1151 104.652 37.5588L104.299 37.6006C103.269 38.1061 102.238 38.6109 101.207 39.1151L101.196 39.2279ZM101.196 40.9533C100.058 41.4939 98.9168 42.0309 97.7734 42.5642L97.7443 42.5515C98.9035 42.0097 100.055 41.4691 101.2 40.9297V40.9533H101.196ZM101.196 39.1151C99.3327 40.0206 97.46 40.9236 95.5781 41.8242L95.6636 41.846C97.5297 40.9721 99.374 40.0994 101.196 39.2279V39.1151Z" fill="#7734C6"/>
<path fill-rule="evenodd" clip-rule="evenodd" d="M88.1298 45.3423L88.1443 45.4696L88.1298 45.3423ZM86.2892 45.6841C75.5328 47.5556 64.7545 49.1992 53.9544 50.615L53.7344 52.1368C64.9873 50.6914 76.3385 48.9968 87.8115 46.9859C87.2339 46.6414 86.7191 46.2012 86.2892 45.6841Z" fill="#4C1C84"/>
<path fill-rule="evenodd" clip-rule="evenodd" d="M53.9553 50.6128L53.7352 52.1364L42.6041 57.3364L37.8516 58.1401L53.9553 50.6128Z" fill="#7734C6"/>
<path fill-rule="evenodd" clip-rule="evenodd" d="M22.0459 43.0841L21.3711 44.2969L55.8484 37.5314L56.1557 36.3496L22.0459 43.0841Z" fill="#7734C6"/>
<path fill-rule="evenodd" clip-rule="evenodd" d="M56.1574 36.3496L55.8555 37.5005L83.8523 44.6823L84.0269 43.5423L56.1574 36.3496Z" fill="#4C1C84"/>
<path fill-rule="evenodd" clip-rule="evenodd" d="M99.08 43.4825L126.629 40.7461L127.124 41.9152C127.124 41.9152 99.6711 44.9297 99.2309 44.7006C98.7908 44.4715 98.1378 43.577 99.08 43.4825Z" fill="#7734C6"/>
<path fill-rule="evenodd" clip-rule="evenodd" d="M87.4609 29.5222L90.0073 29.2822L91.7951 41.3058C91.3227 41.2863 90.8494 41.2972 90.3783 41.3386C89.7326 41.4022 89.287 41.4495 88.9742 41.4877L87.4609 29.5222Z" fill="#7734C6"/>
<path d="M95.7089 45.7041C97.0876 47.4114 99.4938 49.6859 104.13 51.8586C106.964 53.1405 110.649 54.4041 115.454 55.4386C120.345 56.4986 126.412 57.3477 133.887 57.8877C134.087 58.3514 134.284 58.8204 134.48 59.2768C126.097 58.7477 119.335 57.8604 113.928 56.7186C108.612 55.5986 104.583 54.2295 101.502 52.8277C97.1221 50.7496 94.6722 48.6005 93.1953 46.8823C94.0863 46.6146 94.9332 46.2176 95.7089 45.7041Z" fill="#7734C6"/>
<path fill-rule="evenodd" clip-rule="evenodd" d="M39.3242 39.6736L57.2049 27.8281L57.0285 29.3827L43.071 38.9336L39.3242 39.6736Z" fill="#7734C6"/>
<path fill-rule="evenodd" clip-rule="evenodd" d="M64.7209 23.5859L57.2074 27.8278L57.0273 29.3823L66.3906 24.0514L64.7209 23.5859Z" fill="#4C1C84"/>
<path fill-rule="evenodd" clip-rule="evenodd" d="M57.4259 26.6294L27.7412 30.2548L27.1992 31.4439L57.2532 27.8203L57.4259 26.6294Z" fill="#7734C6"/>
<path fill-rule="evenodd" clip-rule="evenodd" d="M57.425 26.6313C57.3413 27.0368 57.2594 27.4423 57.1758 27.8459C67.1295 31.7162 77.1936 35.5307 87.3679 39.2895L87.177 37.9204L57.425 26.6313Z" fill="#4C1C84"/>
<path fill-rule="evenodd" clip-rule="evenodd" d="M87.2734 38.0131L88.7703 37.9531L88.7503 39.3009L87.4226 39.3136L87.2734 38.0131Z" fill="#7734C6"/>
<path fill-rule="evenodd" clip-rule="evenodd" d="M16.1055 55.9077C22.3209 53.824 28.44 51.7404 34.4627 49.6568C39.8791 47.7695 45.2118 45.8477 50.4682 43.9368C50.0171 43.6859 49.5588 43.4568 49.0749 43.2495C44.2351 45.0204 39.3189 46.8022 34.3317 48.5568C28.5534 50.5913 22.6641 52.595 16.6893 54.6131C16.4929 55.044 16.3019 55.4768 16.1055 55.9077Z" fill="#7734C6"/>
<path fill-rule="evenodd" clip-rule="evenodd" d="M134.481 59.2769C134.378 58.8806 134.274 58.4806 134.172 58.0806C132.806 58.1569 91.2574 60.566 89.9023 60.626C89.9533 61.0309 90.0012 61.4339 90.046 61.8351C91.452 61.7624 133.072 59.3497 134.481 59.2769Z" fill="#7734C6"/>
<path fill-rule="evenodd" clip-rule="evenodd" d="M91.2494 42.5059H90.6328L90.9402 45.2595L91.2494 42.5059Z" fill="#F6D738"/>
<path fill-rule="evenodd" clip-rule="evenodd" d="M91.2906 42.1621H90.5977L90.905 44.9158H90.9814L91.2906 42.1621Z" fill="#F6D738"/>
<path fill-rule="evenodd" clip-rule="evenodd" d="M91.3259 41.8188H90.5547L90.8639 44.5725H91.0167L91.3259 41.8188Z" fill="#F6D738"/>
<path fill-rule="evenodd" clip-rule="evenodd" d="M91.3671 41.4771H90.5195L90.8287 44.2289H91.0597L91.3671 41.4771Z" fill="#F6D738"/>
<path fill-rule="evenodd" clip-rule="evenodd" d="M91.4044 41.1328H90.4805L90.7897 43.8847H91.097L91.4044 41.1328Z" fill="#F6D738"/>
<path fill-rule="evenodd" clip-rule="evenodd" d="M91.4417 40.7896H90.4414L90.7488 43.5432H91.1344L91.4417 40.7896Z" fill="#F6D738"/>
<path fill-rule="evenodd" clip-rule="evenodd" d="M91.4791 40.4458H90.4023L90.7097 43.1995H91.1717L91.4791 40.4458Z" fill="#F6D738"/>
<path fill-rule="evenodd" clip-rule="evenodd" d="M91.5221 40.1025H90.3672L90.6746 42.8562H91.2129L91.5221 40.1025Z" fill="#F6D738"/>
<path fill-rule="evenodd" clip-rule="evenodd" d="M91.5595 39.7588H90.3281L90.6355 42.5125H91.2503L91.5595 39.7588Z" fill="#F6D738"/>
<path fill-rule="evenodd" clip-rule="evenodd" d="M91.5986 39.417H90.2891L90.5983 42.1688H91.2894L91.5986 39.417Z" fill="#F6D738"/>
<path fill-rule="evenodd" clip-rule="evenodd" d="M91.6359 39.0728H90.25L90.5592 41.8246H91.3286L91.6359 39.0728Z" fill="#F6D738"/>
<path fill-rule="evenodd" clip-rule="evenodd" d="M91.6733 38.7295H90.2109L90.5201 41.4813H91.3659L91.6733 38.7295Z" fill="#F6D738"/>
<path fill-rule="evenodd" clip-rule="evenodd" d="M91.7106 38.3857H90.1719L90.4792 41.1376H91.4032L91.7106 38.3857Z" fill="#F6D738"/>
<path fill-rule="evenodd" clip-rule="evenodd" d="M91.7479 38.0425H90.1328L90.4402 40.7961H91.4405L91.7479 38.0425Z" fill="#F6D738"/>
<path fill-rule="evenodd" clip-rule="evenodd" d="M91.791 37.6987H90.0977L90.405 40.4524H91.4818L91.791 37.6987Z" fill="#F6D738"/>
<path fill-rule="evenodd" clip-rule="evenodd" d="M91.8283 37.355H90.0586L90.366 40.1086H91.5191L91.8283 37.355Z" fill="#F6D738"/>
<path fill-rule="evenodd" clip-rule="evenodd" d="M91.8674 37.0107H90.0195L90.3287 39.7644H91.5582L91.8674 37.0107Z" fill="#F6D738"/>
<path fill-rule="evenodd" clip-rule="evenodd" d="M91.9048 36.6694H89.9805L90.2897 39.4213H91.5974L91.9048 36.6694Z" fill="#F6D738"/>
<path fill-rule="evenodd" clip-rule="evenodd" d="M91.9421 36.3252H89.9414L90.2506 39.077H91.6347L91.9421 36.3252Z" fill="#F6D738"/>
<path fill-rule="evenodd" clip-rule="evenodd" d="M91.9794 35.9824H89.9023L90.2115 38.7361H91.672L91.9794 35.9824Z" fill="#F6D738"/>
<path fill-rule="evenodd" clip-rule="evenodd" d="M92.0225 35.6387H89.8672L90.1746 38.3923H91.7133L92.0225 35.6387Z" fill="#F6D738"/>
<path fill-rule="evenodd" clip-rule="evenodd" d="M92.0598 35.2949H89.8281L90.1355 38.0486H91.7506L92.0598 35.2949Z" fill="#F6D738"/>
<path fill-rule="evenodd" clip-rule="evenodd" d="M92.0971 34.9517H89.7891L90.0964 37.7053H91.7879L92.0971 34.9517Z" fill="#F6D738"/>
<path fill-rule="evenodd" clip-rule="evenodd" d="M92.1363 34.6079H89.75L90.0592 37.3616H91.8289L92.1363 34.6079Z" fill="#F6D738"/>
<path fill-rule="evenodd" clip-rule="evenodd" d="M92.1736 34.2661H89.7109L90.0201 37.018H91.8662L92.1736 34.2661Z" fill="#F6D738"/>
<path fill-rule="evenodd" clip-rule="evenodd" d="M92.2109 33.9224H89.6719L89.9811 36.676H91.9035L92.2109 33.9224Z" fill="#F6D738"/>
<path fill-rule="evenodd" clip-rule="evenodd" d="M92.2483 33.5786H89.6328L89.942 36.3323H91.9409L92.2483 33.5786Z" fill="#F6D738"/>
<path fill-rule="evenodd" clip-rule="evenodd" d="M92.2895 33.2354H89.5977L89.905 35.989H91.9821L92.2895 33.2354Z" fill="#F6D738"/>
<path fill-rule="evenodd" clip-rule="evenodd" d="M92.3286 32.8916H89.5586L89.866 35.6453H92.0194L92.3286 32.8916Z" fill="#F6D738"/>
<path fill-rule="evenodd" clip-rule="evenodd" d="M92.366 32.5474H89.5195L89.8269 35.301H92.0568L92.366 32.5474Z" fill="#F6D738"/>
<path fill-rule="evenodd" clip-rule="evenodd" d="M92.4051 32.2041H89.4805L89.7897 34.9578H92.0959L92.4051 32.2041Z" fill="#F6D738"/>
<path fill-rule="evenodd" clip-rule="evenodd" d="M92.4424 31.8623H89.4414L89.7506 34.6142H92.1351L92.4424 31.8623Z" fill="#F6D738"/>
<path fill-rule="evenodd" clip-rule="evenodd" d="M92.4798 31.519H89.4023L89.7115 34.2709H92.1724L92.4798 31.519Z" fill="#F6D738"/>
<path fill-rule="evenodd" clip-rule="evenodd" d="M92.5171 31.1753H89.3633L89.6707 33.929H92.2097L92.5171 31.1753Z" fill="#F6D738"/>
<path fill-rule="evenodd" clip-rule="evenodd" d="M92.5583 30.8311H89.3281L89.6355 33.5847H92.2509L92.5583 30.8311Z" fill="#F6D738"/>
<path fill-rule="evenodd" clip-rule="evenodd" d="M92.5975 30.4878H89.2891L89.5964 33.2415H92.2883L92.5975 30.4878Z" fill="#F6D738"/>
<path fill-rule="evenodd" clip-rule="evenodd" d="M92.6348 30.1445H89.25L89.5574 32.8982H92.3256L92.6348 30.1445Z" fill="#F6D738"/>
<path fill-rule="evenodd" clip-rule="evenodd" d="M92.6721 29.8022H89.2109L89.5183 32.5541H92.3629L92.6721 29.8022Z" fill="#F6D738"/>
<path fill-rule="evenodd" clip-rule="evenodd" d="M92.7113 29.4585H89.1719L89.4811 32.2103H92.4039L92.7113 29.4585Z" fill="#F6D738"/>
<path fill-rule="evenodd" clip-rule="evenodd" d="M92.7486 29.1147H89.1328L89.442 31.8666H92.4412L92.7486 29.1147Z" fill="#F6D738"/>
<path fill-rule="evenodd" clip-rule="evenodd" d="M92.7898 28.7715H89.0977L89.4069 31.5233H92.4824L92.7898 28.7715Z" fill="#F6D738"/>
<path fill-rule="evenodd" clip-rule="evenodd" d="M92.829 28.4277H89.0586L89.366 31.1814H92.5198L92.829 28.4277Z" fill="#F6D738"/>
<path fill-rule="evenodd" clip-rule="evenodd" d="M92.8663 28.084H89.0195L89.3269 30.8377H92.5571L92.8663 28.084Z" fill="#F6D738"/>
<path fill-rule="evenodd" clip-rule="evenodd" d="M92.9036 27.7402H88.9805L89.2878 30.4939H92.5944L92.9036 27.7402Z" fill="#F6D738"/>
<path fill-rule="evenodd" clip-rule="evenodd" d="M92.941 27.397H88.9414L89.2488 30.1506H92.6318L92.941 27.397Z" fill="#F6D738"/>
<path fill-rule="evenodd" clip-rule="evenodd" d="M92.9783 27.0645H88.9023L89.2115 29.8163H92.6673L92.9546 27.2445C92.9674 27.1754 92.9728 27.1154 92.9783 27.0645Z" fill="#F6D738"/>
<path fill-rule="evenodd" clip-rule="evenodd" d="M93.0128 26.7114H88.875C88.8823 26.7951 88.8914 26.8824 88.9023 26.9733L89.1806 29.4633H92.7127L92.9619 27.2352C92.9819 27.0643 92.9946 26.8824 93.0128 26.7114Z" fill="#F6D738"/>
<path fill-rule="evenodd" clip-rule="evenodd" d="M93.0571 26.3677H88.832C88.8557 26.5496 88.8702 26.7514 88.8957 26.9733L89.1358 29.1213H92.7497L92.9607 27.2352C92.9935 26.9442 93.008 26.6387 93.0571 26.3677Z" fill="#F6D738"/>
<path fill-rule="evenodd" clip-rule="evenodd" d="M96.2953 24.6519H85.5898C86.4054 25.0297 87.259 25.3193 88.1362 25.5158C88.8637 25.6795 88.8146 26.216 88.9001 26.9708L88.9474 27.4001H92.9487L92.9669 27.2327C93.0488 26.5052 93.0215 25.6758 93.7126 25.5231C94.6023 25.3263 95.4682 25.0342 96.2953 24.6519Z" fill="#F6D738"/>
<path fill-rule="evenodd" clip-rule="evenodd" d="M96.9813 24.3086H84.9062C85.9217 24.8564 87.0073 25.2627 88.1328 25.5163C88.8603 25.68 88.8112 26.2165 88.8967 26.9713L88.9058 27.0568H92.9799C93.0436 26.3748 93.0709 25.6636 93.7074 25.5236C94.8495 25.2714 95.9512 24.8626 96.9813 24.3086Z" fill="#F6D738"/>
<path d="M38.7045 39.6479C39.9159 39.6916 41.6146 39.7679 43.5153 40.0116C45.5831 40.2496 47.6219 40.6942 49.601 41.3389C51.5035 41.9698 53.3441 42.8498 54.8955 44.0661C54.7373 45.1916 54.5754 46.3225 54.4117 47.4516C52.793 45.0116 50.1321 43.517 47.3348 42.5898C45.4892 41.9852 43.5865 41.5716 41.6564 41.3552C39.8777 41.1407 38.2826 41.068 37.1367 41.0207C37.6642 40.5649 38.1868 40.1073 38.7045 39.6479Z" fill="#7734C6"/>
<path d="M90.8482 26C98.0304 26 103.853 20.1797 103.853 13C103.853 5.82029 98.0304 0 90.8482 0C83.666 0 77.8438 5.82029 77.8438 13C77.8438 20.1797 83.666 26 90.8482 26Z" fill="#F6D738"/>
<path d="M90.8493 24.0338C96.9447 24.0338 101.886 19.0941 101.886 13.0008C101.886 6.90741 96.9447 1.96777 90.8493 1.96777C84.7538 1.96777 79.8125 6.90741 79.8125 13.0008C79.8125 19.0941 84.7538 24.0338 90.8493 24.0338Z" fill="#F3CC30"/>
<path d="M96.6226 3.58252C97.7595 5.35599 98.3622 7.41888 98.3589 9.52525C98.3589 15.6187 93.4176 20.5582 87.3221 20.5582C85.283 20.5615 83.2833 19.9972 81.5469 18.9286C82.5442 20.4902 83.9192 21.7753 85.5448 22.6651C87.1704 23.555 88.9941 24.0208 90.8474 24.0197C96.9429 24.0197 101.884 19.0801 101.884 12.9867C101.885 11.1001 101.402 9.24482 100.481 7.59827C99.5598 5.95172 98.2313 4.56904 96.6226 3.58252Z" fill="#EDBD31"/>
<path d="M81.7462 14.0096C81.7462 8.6307 86.1083 4.27008 91.489 4.27008C92.9819 4.26891 94.455 4.61129 95.7942 5.27069C97.1334 5.9301 98.3028 6.88883 99.2119 8.07263C98.3581 6.58734 97.1274 5.35353 95.6441 4.4958C94.1608 3.63807 92.4773 3.18678 90.7637 3.1875C85.3829 3.1875 81.0195 7.54772 81.0195 12.9266C81.0164 15.0746 81.7268 17.1629 83.0392 18.8636C82.1892 17.3873 81.7432 15.7131 81.7462 14.0096Z" fill="#F7DB5E"/>
<path d="M91.7603 5.87891V7.28454C92.3247 7.37544 92.7863 7.56188 93.1451 7.84385C93.5039 8.12582 93.8452 8.55847 94.1691 9.1418L92.7703 9.92344C92.3493 9.15913 91.7993 8.77698 91.1205 8.77698C90.6994 8.77698 90.3502 8.90132 90.0728 9.14999C89.9392 9.26529 89.8327 9.40861 89.7608 9.56976C89.6889 9.7309 89.6535 9.90591 89.657 10.0823C89.657 10.4216 89.7694 10.7036 89.9941 10.9282C90.2139 11.1485 90.6586 11.409 91.3281 11.7099C91.8205 11.9283 92.2992 12.1762 92.7617 12.4522C93.1399 12.6842 93.4246 12.9078 93.6157 13.1229C94.1558 13.7059 94.426 14.411 94.4263 15.2381C94.4263 16.0512 94.1823 16.7685 93.6943 17.3897C93.2116 18.0064 92.5659 18.4222 91.7574 18.6373V20.122H90.5049V18.6795C89.5677 18.5266 88.8527 18.204 88.3599 17.7115C87.867 17.2191 87.5035 16.4589 87.2695 15.4309L88.8477 15.1034C89.0631 15.8303 89.3262 16.3489 89.637 16.6593C89.9622 16.9557 90.395 17.1039 90.9354 17.1039C91.4613 17.1039 91.9013 16.9343 92.2555 16.595C92.6044 16.2606 92.7789 15.828 92.7789 15.297C92.7789 14.8237 92.6331 14.4436 92.3415 14.1567C92.1932 14.0178 91.9748 13.8612 91.6861 13.6871C91.3275 13.4766 90.9575 13.2862 90.5778 13.1167C89.6494 12.7007 89.0396 12.3186 88.7486 11.9703C88.2844 11.4489 88.0523 10.825 88.0523 10.0987C88.0489 9.77114 88.1044 9.44565 88.2161 9.13771C88.3256 8.84233 88.4872 8.56899 88.6933 8.33068C88.9132 8.07966 89.1739 7.86759 89.4645 7.70341C89.7907 7.51835 90.1406 7.37841 90.5045 7.28741V5.87891H91.7603Z" fill="#D49A34"/>
<defs>
<pattern id="pattern0" patternContentUnits="objectBoundingBox" width="1" height="1">
<use xlink:href="#image0" transform="scale(0.000473537 0.00134771)"/>
</pattern>
</defs>
</svg>
