<svg width="108" height="123" viewBox="0 0 108 123" fill="none" xmlns="http://www.w3.org/2000/svg">
<g style="mix-blend-mode:multiply" opacity="0.4">
<path d="M43.3244 122.832C43.184 122.917 43.0239 122.965 42.8597 122.97C42.2677 123.032 41.6697 122.998 41.0885 122.87L26.0145 114.164C25.9258 114.133 25.8489 114.076 25.7945 113.999C25.7401 113.923 25.7109 113.831 25.7109 113.737C25.7109 113.644 25.7401 113.552 25.7945 113.476C25.8489 113.399 25.9258 113.342 26.0145 113.311L73.1457 86.1403C73.5353 85.944 73.9656 85.8418 74.4019 85.8418C74.8383 85.8418 75.2685 85.944 75.6581 86.1403L90.732 94.8585C91.0963 95.0843 46.7412 120.85 43.3244 122.832Z" fill="#50197C"/>
</g>
<path d="M46.2304 84.2847L27.7773 94.9723L35.5027 99.4255L53.9558 88.7379L46.2304 84.2847Z" fill="url(#paint0_linear)"/>
<path d="M54.0535 88.8627L53.9907 88.7749L35.5 99.4249C35.544 99.4623 35.5784 99.5096 35.6005 99.5629C35.7261 99.8514 35.7136 100.454 35.6005 100.541L54.0535 89.8411C54.2043 89.7533 54.2043 89.1512 54.0535 88.8627Z" fill="#E0DBE1"/>
<path d="M44.7337 82.5037C44.5692 82.194 44.4699 81.8539 44.4418 81.5045C44.4137 81.155 44.4575 80.8035 44.5704 80.4715L49.5951 69.395L31.142 80.0827L26.1174 91.1717C26.0044 91.5037 25.9606 91.8552 25.9887 92.2047C26.0168 92.5541 26.1161 92.8942 26.2806 93.2039C26.4627 93.6065 26.6994 93.9821 26.9841 94.3203C27.2144 94.5789 27.481 94.8028 27.7755 94.9852L46.2286 84.2975C45.9284 84.1231 45.6606 83.8981 45.4372 83.6327C45.146 83.2947 44.9087 82.9139 44.7337 82.5037Z" fill="url(#paint1_linear)"/>
<path d="M35.5008 99.4256L27.8256 94.9849C27.1556 94.5591 26.6335 93.937 26.3308 93.2037C26.1663 92.894 26.067 92.5539 26.0389 92.2044C26.0108 91.855 26.0546 91.5035 26.1675 91.1715L31.1922 80.0825V79.8817V69.0938C31.1832 68.9266 31.134 68.7641 31.0487 68.6199C30.9634 68.4758 30.8446 68.3543 30.7023 68.2658C30.451 68.1153 30.2375 68.2658 30.2375 68.5544V79.242L25.2128 90.2432C25.0469 90.7553 24.9847 91.2952 25.03 91.8315C25.0753 92.3678 25.2271 92.8897 25.4766 93.3667C25.9605 94.4939 26.7808 95.4445 27.8256 96.0888L35.5385 100.529C35.7521 100.68 35.752 99.5761 35.5008 99.4256Z" fill="#C0B9C8"/>
<path d="M49.5678 58.0294C49.5196 57.9312 49.4606 57.8386 49.392 57.7534C49.3286 57.6775 49.252 57.6138 49.1658 57.5653C49.1166 57.5353 49.0601 57.5195 49.0025 57.5195C48.9449 57.5195 48.8884 57.5353 48.8392 57.5653L30.3359 68.2278C30.3851 68.1979 30.4416 68.1821 30.4992 68.1821C30.5568 68.1821 30.6133 68.1979 30.6626 68.2278C30.7487 68.2763 30.8253 68.3401 30.8887 68.416C30.9615 68.4981 31.0208 68.5913 31.0645 68.6919C31.1186 68.8059 31.1485 68.9297 31.1524 69.0557V79.8437V80.0444L49.6055 69.3568V69.1561V58.3681C49.6124 58.2539 49.5996 58.1393 49.5678 58.0294Z" fill="url(#paint2_linear)"/>
<path d="M1.50739 102.749L0.0251285 101.884L0 44.2808L1.48228 45.1338L1.50739 102.749Z" fill="#C0B9C8"/>
<path d="M1.48228 45.1339L0 44.2809L76.7892 0L78.2715 0.853004L1.48228 45.1339Z" fill="url(#paint3_linear)"/>
<path d="M78.2697 0.852539L78.2948 58.4679L1.50558 102.749L1.48047 45.1335L78.2697 0.852539Z" fill="#E0DBE1"/>
<path d="M1.82115 45.3971L77.9195 1.51758L77.907 51.4309L1.80859 95.3104L1.82115 45.3971Z" fill="url(#paint4_linear)"/>
<path d="M44.9064 74.625L42.2057 76.1931C41.8288 76.4063 41.5273 76.2683 41.5273 75.9045C41.5482 75.686 41.6206 75.4755 41.7385 75.2902C41.8563 75.1049 42.0164 74.95 42.2057 74.8383L44.9064 73.2828C45.2833 73.0696 45.5848 73.195 45.5848 73.5713C45.562 73.7877 45.4887 73.9957 45.3709 74.1787C45.2531 74.3617 45.0941 74.5145 44.9064 74.625Z" fill="#5917FF"/>
<path d="M26.6445 112.848V113.651C26.6545 113.741 26.6874 113.828 26.7402 113.903C26.7929 113.977 26.8637 114.037 26.946 114.077L42.02 122.783C42.247 122.9 42.4991 122.962 42.7548 122.962C43.0106 122.962 43.2626 122.9 43.4897 122.783L90.6335 95.5871C90.7181 95.5504 90.791 95.4913 90.8441 95.416C90.8973 95.3408 90.9287 95.2524 90.9349 95.1606V94.3828L26.6445 112.848Z" fill="url(#paint5_linear)"/>
<path d="M90.634 94.834L43.5279 122.005C43.3008 122.122 43.0488 122.184 42.793 122.184C42.5372 122.184 42.2852 122.122 42.0581 122.005L26.9842 113.286C26.8939 113.259 26.8148 113.204 26.7585 113.128C26.7023 113.052 26.6719 112.961 26.6719 112.866C26.6719 112.772 26.7023 112.68 26.7585 112.605C26.8148 112.529 26.8939 112.473 26.9842 112.446L74.1029 85.2754C74.3321 85.1576 74.5862 85.0962 74.844 85.0962C75.1018 85.0962 75.3559 85.1576 75.5851 85.2754L90.6591 93.981C90.7469 94.0143 90.8223 94.0742 90.8745 94.1522C90.9267 94.2303 90.9533 94.3226 90.9505 94.4164C90.9477 94.5103 90.9158 94.6009 90.859 94.6757C90.8023 94.7506 90.7236 94.8059 90.634 94.834Z" fill="url(#paint6_linear)"/>
<path d="M34.6325 111.894L32.698 113.011C32.5937 113.067 32.4772 113.096 32.3588 113.096C32.2404 113.096 32.1239 113.067 32.0197 113.011L30.3992 112.083C30.3578 112.068 30.322 112.041 30.2967 112.005C30.2714 111.969 30.2578 111.926 30.2578 111.882C30.2578 111.838 30.2714 111.795 30.2967 111.759C30.322 111.723 30.3578 111.696 30.3992 111.681L32.3337 110.565C32.4399 110.515 32.5557 110.49 32.6728 110.49C32.79 110.49 32.9058 110.515 33.012 110.565L34.6325 111.506C34.8209 111.669 34.8209 111.894 34.6325 111.894ZM37.7603 109.699L36.1399 108.771C36.0334 108.715 35.9148 108.686 35.7944 108.686C35.6741 108.686 35.5555 108.715 35.449 108.771L33.5145 109.887C33.3261 109.988 33.3261 110.163 33.5145 110.276L35.1475 111.217C35.2537 111.266 35.3695 111.292 35.4867 111.292C35.6038 111.292 35.7196 111.266 35.8258 111.217L37.7603 110.101C37.7888 110.081 37.8121 110.055 37.8282 110.024C37.8443 109.994 37.8527 109.96 37.8527 109.925C37.8527 109.89 37.8443 109.856 37.8282 109.826C37.8121 109.795 37.7888 109.769 37.7603 109.749V109.699ZM40.8882 107.905L39.2552 106.965C39.1509 106.909 39.0344 106.879 38.916 106.879C38.7976 106.879 38.6811 106.909 38.5768 106.965L36.6172 108.131C36.4288 108.244 36.4288 108.42 36.6172 108.52L38.2502 109.461C38.3545 109.517 38.471 109.546 38.5894 109.546C38.7078 109.546 38.8243 109.517 38.9285 109.461L40.8631 108.344C41.0766 108.244 41.0766 108.131 40.8882 107.956V107.905ZM44.016 106.099L42.383 105.158C42.2768 105.109 42.161 105.083 42.0438 105.083C41.9267 105.083 41.8109 105.109 41.7047 105.158L39.7702 106.275C39.7288 106.29 39.693 106.317 39.6677 106.353C39.6424 106.389 39.6288 106.431 39.6288 106.475C39.6288 106.519 39.6424 106.562 39.6677 106.598C39.693 106.634 39.7288 106.661 39.7702 106.676L41.3906 107.617C41.499 107.667 41.6169 107.692 41.7361 107.692C41.8553 107.692 41.9731 107.667 42.0815 107.617L44.016 106.5C44.0445 106.481 44.0678 106.455 44.0839 106.424C44.1 106.393 44.1084 106.359 44.1084 106.325C44.1084 106.29 44.1 106.256 44.0839 106.226C44.0678 106.195 44.0445 106.169 44.016 106.149V106.099ZM47.1313 104.305L45.5108 103.364C45.4066 103.308 45.2901 103.279 45.1717 103.279C45.0533 103.279 44.9368 103.308 44.8325 103.364L42.898 104.481C42.7096 104.581 42.7096 104.757 42.898 104.87L44.5185 105.811C44.6227 105.867 44.7393 105.896 44.8576 105.896C44.976 105.896 45.0925 105.867 45.1968 105.811L47.1313 104.694C47.3197 104.631 47.3197 104.456 47.1313 104.368V104.305ZM50.2591 102.499L48.6387 101.558C48.5303 101.508 48.4125 101.483 48.2933 101.483C48.174 101.483 48.0562 101.508 47.9478 101.558L46.0133 102.674C45.8249 102.787 45.8249 102.963 46.0133 103.063L47.6463 104.004C47.7506 104.06 47.8671 104.089 47.9855 104.089C48.1039 104.089 48.2204 104.06 48.3247 104.004L50.2591 102.888C50.435 102.838 50.435 102.662 50.2591 102.549V102.499ZM53.387 100.693L51.754 99.7643C51.6497 99.7083 51.5332 99.6789 51.4148 99.6789C51.2964 99.6789 51.1799 99.7083 51.0757 99.7643L49.1412 100.881C48.9527 100.981 48.9527 101.157 49.1412 101.27L50.7742 102.21C50.8804 102.26 50.9962 102.285 51.1133 102.285C51.2305 102.285 51.3463 102.26 51.4525 102.21L53.387 101.094C53.4155 101.074 53.4388 101.048 53.4549 101.018C53.471 100.987 53.4794 100.953 53.4794 100.918C53.4794 100.884 53.471 100.85 53.4549 100.819C53.4388 100.789 53.4155 100.762 53.387 100.743V100.693ZM56.5148 98.8987L54.8818 97.9579C54.7776 97.9019 54.661 97.8726 54.5426 97.8726C54.4243 97.8726 54.3078 97.9019 54.2035 97.9579L52.269 99.0743C52.0806 99.1872 52.0806 99.3628 52.269 99.4632L53.8895 100.404C53.996 100.46 54.1145 100.489 54.2349 100.489C54.3553 100.489 54.4738 100.46 54.5803 100.404L56.5148 99.2876C56.7158 99.2249 56.7158 99.0492 56.5148 98.9489V98.8987ZM59.6301 97.0923L58.0097 96.1515C57.9034 96.1022 57.7877 96.0766 57.6705 96.0766C57.5533 96.0766 57.4376 96.1022 57.3313 96.1515L55.3969 97.268C55.3555 97.2828 55.3197 97.3101 55.2944 97.346C55.2691 97.3819 55.2554 97.4248 55.2554 97.4687C55.2554 97.5126 55.2691 97.5554 55.2944 97.5914C55.3197 97.6273 55.3555 97.6545 55.3969 97.6694L57.0173 98.5976C57.1215 98.6536 57.2381 98.683 57.3565 98.683C57.4749 98.683 57.5914 98.6536 57.6956 98.5976L59.6301 97.4812C59.8186 97.431 59.8186 97.2554 59.6301 97.1425V97.0923ZM63.7629 94.709L62.1425 93.7681C62.0362 93.7188 61.9204 93.6932 61.8033 93.6932C61.6861 93.6932 61.5704 93.7188 61.4641 93.7681L58.5121 95.587C58.3237 95.6874 58.3237 95.863 58.5121 95.9759L60.1452 96.9167C60.2514 96.9661 60.3671 96.9917 60.4843 96.9917C60.6015 96.9917 60.7172 96.9661 60.8235 96.9167L63.7629 95.2233C63.8245 95.2233 63.8836 95.1988 63.9272 95.1553C63.9708 95.1118 63.9953 95.0527 63.9953 94.9912C63.9953 94.9296 63.9708 94.8706 63.9272 94.8271C63.8836 94.7836 63.8245 94.7591 63.7629 94.7591V94.709ZM77.1787 96.854L75.5583 95.9257C75.4518 95.8697 75.3332 95.8404 75.2128 95.8404C75.0925 95.8404 74.9739 95.8697 74.8674 95.9257L72.9329 97.0422C72.7445 97.1425 72.7445 97.3181 72.9329 97.431L74.5659 98.3719C74.6721 98.4212 74.7879 98.4468 74.9051 98.4468C75.0222 98.4468 75.138 98.4212 75.2442 98.3719L77.1787 97.2554C77.2072 97.2358 77.2305 97.2096 77.2466 97.179C77.2627 97.1484 77.2711 97.1144 77.2711 97.0798C77.2711 97.0452 77.2627 97.0112 77.2466 96.9806C77.2305 96.95 77.2072 96.9238 77.1787 96.9042V96.854ZM80.3066 95.0602L78.6736 94.1194C78.5693 94.0634 78.4528 94.0341 78.3344 94.0341C78.216 94.0341 78.0995 94.0634 77.9952 94.1194L76.0607 95.2358C75.8723 95.3487 75.8723 95.5243 76.0607 95.6247L77.6938 96.5655C77.798 96.6215 77.9145 96.6508 78.0329 96.6508C78.1513 96.6508 78.2678 96.6215 78.3721 96.5655L80.3066 95.4491C80.495 95.3863 80.495 95.2107 80.3066 95.1104V95.0602ZM83.4344 93.2538L81.8014 92.313C81.6952 92.2637 81.5794 92.2381 81.4622 92.2381C81.3451 92.2381 81.2293 92.2637 81.1231 92.313L79.1886 93.4294C79.1472 93.4443 79.1114 93.4715 79.0861 93.5075C79.0608 93.5434 79.0472 93.5862 79.0472 93.6302C79.0472 93.6741 79.0608 93.7169 79.0861 93.7529C79.1114 93.7888 79.1472 93.816 79.1886 93.8309L80.809 94.7591C80.9155 94.8152 81.0341 94.8444 81.1545 94.8444C81.2748 94.8444 81.3934 94.8152 81.4999 94.7591L83.4344 93.6427C83.6228 93.5925 83.6228 93.4169 83.4344 93.304V93.2538ZM80.0428 98.5098L78.4097 97.569C78.3055 97.513 78.189 97.4837 78.0706 97.4837C77.9522 97.4837 77.8357 97.513 77.7314 97.569L75.7969 98.6855C75.6085 98.7984 75.6085 98.974 75.7969 99.0743L77.4174 100.015C77.5239 100.071 77.6425 100.1 77.7628 100.1C77.8832 100.1 78.0018 100.071 78.1083 100.015L80.0428 98.8987C80.2312 98.836 80.2312 98.6604 80.0428 98.56V98.5098ZM83.158 96.7035L81.5376 95.7627C81.4314 95.7133 81.3156 95.6877 81.1984 95.6877C81.0813 95.6877 80.9655 95.7133 80.8593 95.7627L78.9248 96.8791C78.8834 96.8939 78.8476 96.9212 78.8223 96.9571C78.797 96.993 78.7834 97.0359 78.7834 97.0798C78.7834 97.1237 78.797 97.1666 78.8223 97.2025C78.8476 97.2384 78.8834 97.2657 78.9248 97.2805L80.5452 98.2088C80.6495 98.2648 80.766 98.2941 80.8844 98.2941C81.0028 98.2941 81.1193 98.2648 81.2236 98.2088L83.158 97.0923C83.3465 97.0422 83.3465 96.8415 83.158 96.7536V96.7035ZM86.2859 94.8971L84.6655 93.9689C84.5589 93.9128 84.4404 93.8835 84.32 93.8835C84.1996 93.8835 84.0811 93.9128 83.9746 93.9689L82.0401 95.0853C81.8517 95.1856 81.8517 95.3613 82.0401 95.4742L83.6731 96.415C83.7793 96.4643 83.8951 96.4899 84.0123 96.4899C84.1294 96.4899 84.2452 96.4643 84.3514 96.415L86.2859 95.2985C86.3144 95.2789 86.3377 95.2527 86.3538 95.2221C86.3699 95.1915 86.3783 95.1575 86.3783 95.1229C86.3783 95.0884 86.3699 95.0543 86.3538 95.0237C86.3377 94.9931 86.3144 94.9669 86.2859 94.9473V94.8971ZM38.5517 112.559L36.9313 111.618C36.827 111.563 36.7105 111.533 36.5921 111.533C36.4737 111.533 36.3572 111.563 36.2529 111.618L33.3009 113.312C33.1125 113.425 33.1125 113.6 33.3009 113.701L34.934 114.642C35.0382 114.698 35.1547 114.727 35.2731 114.727C35.3915 114.727 35.508 114.698 35.6123 114.642L38.5517 112.948C38.7401 112.885 38.7401 112.71 38.5517 112.609V112.559ZM41.6796 110.753L40.0466 109.812C39.9403 109.763 39.8245 109.737 39.7074 109.737C39.5902 109.737 39.4744 109.763 39.3682 109.812L37.4337 110.929C37.3923 110.943 37.3565 110.971 37.3312 111.007C37.3059 111.043 37.2923 111.085 37.2923 111.129C37.2923 111.173 37.3059 111.216 37.3312 111.252C37.3565 111.288 37.3923 111.315 37.4337 111.33L39.0667 112.258C39.171 112.314 39.2875 112.344 39.4059 112.344C39.5243 112.344 39.6408 112.314 39.745 112.258L41.6796 111.142C41.868 111.092 41.868 110.916 41.6419 110.803L41.6796 110.753ZM44.8074 108.947L43.1744 108.018C43.0701 107.962 42.9536 107.933 42.8352 107.933C42.7169 107.933 42.6003 107.962 42.496 108.018L40.5616 109.135C40.3732 109.235 40.3732 109.411 40.5616 109.524L42.1946 110.464C42.3008 110.514 42.4166 110.539 42.5337 110.539C42.6509 110.539 42.7667 110.514 42.8729 110.464L44.8074 109.348C44.8359 109.328 44.8592 109.302 44.8753 109.272C44.8914 109.241 44.8998 109.207 44.8998 109.172C44.8998 109.138 44.8914 109.104 44.8753 109.073C44.8592 109.043 44.8359 109.016 44.8074 108.997V108.947ZM47.9353 107.153L46.3022 106.212C46.198 106.156 46.0814 106.127 45.9631 106.127C45.8447 106.127 45.7282 106.156 45.6239 106.212L43.6894 107.328C43.501 107.441 43.501 107.617 43.6894 107.717L45.3099 108.658C45.4141 108.714 45.5307 108.743 45.649 108.743C45.7674 108.743 45.8839 108.714 45.9882 108.658L47.9353 107.542C48.1237 107.479 48.1237 107.303 47.9227 107.203L47.9353 107.153ZM51.0505 105.346L49.4301 104.406C49.3239 104.356 49.2081 104.331 49.0909 104.331C48.9737 104.331 48.858 104.356 48.7518 104.406L46.8047 105.522C46.7633 105.537 46.7275 105.564 46.7022 105.6C46.6769 105.636 46.6633 105.679 46.6633 105.723C46.6633 105.767 46.6769 105.81 46.7022 105.845C46.7275 105.881 46.7633 105.909 46.8047 105.923L48.4377 106.852C48.542 106.908 48.6585 106.937 48.7769 106.937C48.8952 106.937 49.0118 106.908 49.1161 106.852L51.0505 105.748C51.079 105.728 51.1023 105.702 51.1184 105.671C51.1345 105.641 51.1429 105.607 51.1429 105.572C51.1429 105.538 51.1345 105.504 51.1184 105.473C51.1023 105.442 51.079 105.416 51.0505 105.397V105.346ZM54.1784 103.553L52.5454 102.612C52.4411 102.556 52.3246 102.526 52.2062 102.526C52.0878 102.526 51.9713 102.556 51.8671 102.612L49.9326 103.728C49.7441 103.829 49.7441 104.004 49.9326 104.117L51.5655 105.058C51.6698 105.114 51.7864 105.143 51.9047 105.143C52.0231 105.143 52.1396 105.114 52.2439 105.058L54.1784 103.941C54.3668 103.879 54.3668 103.703 54.2035 103.603L54.1784 103.553ZM57.3062 101.746L55.6732 100.805C55.567 100.756 55.4512 100.73 55.334 100.73C55.2169 100.73 55.1011 100.756 54.9949 100.805L53.0604 101.922C52.872 102.035 52.872 102.21 53.0604 102.311L54.6808 103.252C54.7873 103.308 54.9059 103.337 55.0263 103.337C55.1467 103.337 55.2652 103.308 55.3717 103.252L57.3062 102.135C57.4946 102.085 57.4946 101.859 57.3062 101.859V101.746ZM60.4215 99.9399L58.8011 99.0116C58.6968 98.9556 58.5803 98.9263 58.4619 98.9263C58.3435 98.9263 58.227 98.9556 58.1227 99.0116L56.1882 100.128C55.9998 100.228 55.9998 100.404 56.1882 100.517L57.8087 101.458C57.9149 101.507 58.0307 101.533 58.1479 101.533C58.265 101.533 58.3808 101.507 58.487 101.458L60.4215 100.341C60.4541 100.327 60.4827 100.306 60.5048 100.278C60.5269 100.25 60.5417 100.217 60.5479 100.183C60.5542 100.148 60.5516 100.112 60.5405 100.078C60.5294 100.045 60.5101 100.014 60.4843 99.99L60.4215 99.9399ZM63.5494 98.1461L61.9289 97.2052C61.8224 97.1492 61.7038 97.1199 61.5835 97.1199C61.4631 97.1199 61.3445 97.1492 61.238 97.2052L59.3035 98.3217C59.1151 98.4346 59.1151 98.6102 59.3035 98.7106L60.9365 99.6514C61.0408 99.7074 61.1573 99.7367 61.2757 99.7367C61.3941 99.7367 61.5106 99.7074 61.6149 99.6514L63.5494 98.5349C63.7378 98.4722 63.7378 98.2966 63.5494 98.1962V98.1461ZM66.6772 96.3397L65.0442 95.3989C64.938 95.3495 64.8222 95.3239 64.705 95.3239C64.5878 95.3239 64.4721 95.3495 64.3659 95.3989L62.4313 96.5153C62.39 96.5302 62.3542 96.5574 62.3289 96.5933C62.3036 96.6292 62.29 96.6721 62.29 96.716C62.29 96.7599 62.3036 96.8028 62.3289 96.8387C62.3542 96.8747 62.39 96.9019 62.4313 96.9167L64.0644 97.845C64.1686 97.901 64.2852 97.9303 64.4035 97.9303C64.5219 97.9303 64.6385 97.901 64.7427 97.845L66.6772 96.7286C66.8656 96.6784 66.8656 96.5028 66.6772 96.3899V96.3397ZM40.2978 114.78L38.6773 113.839C38.5711 113.789 38.4553 113.764 38.3382 113.764C38.221 113.764 38.1052 113.789 37.999 113.839L36.0645 114.955C36.0231 114.97 35.9873 114.997 35.962 115.033C35.9367 115.069 35.9231 115.112 35.9231 115.156C35.9231 115.2 35.9367 115.243 35.962 115.279C35.9873 115.315 36.0231 115.342 36.0645 115.357L37.685 116.285C37.7892 116.341 37.9057 116.37 38.0241 116.37C38.1425 116.37 38.259 116.341 38.3633 116.285L40.2978 115.169C40.4987 115.118 40.4988 114.943 40.3103 114.83L40.2978 114.78ZM43.4256 112.973L41.8052 112.045C41.6987 111.989 41.5801 111.96 41.4597 111.96C41.3394 111.96 41.2208 111.989 41.1143 112.045L39.1798 113.161C38.9914 113.262 38.9914 113.437 39.1798 113.55L40.8128 114.491C40.919 114.54 41.0348 114.566 41.1519 114.566C41.2691 114.566 41.3849 114.54 41.4911 114.491L43.4256 113.375C43.4549 113.356 43.4791 113.331 43.4963 113.301C43.5135 113.271 43.5232 113.237 43.5244 113.202C43.5257 113.168 43.5184 113.133 43.5034 113.102C43.4884 113.071 43.466 113.044 43.4382 113.023L43.4256 112.973ZM46.5535 111.179L44.9204 110.239C44.8162 110.183 44.6997 110.153 44.5813 110.153C44.4629 110.153 44.3464 110.183 44.2421 110.239L42.3076 111.355C42.1192 111.468 42.1192 111.644 42.3076 111.744L43.9406 112.685C44.0449 112.741 44.1614 112.77 44.2798 112.77C44.3982 112.77 44.5147 112.741 44.619 112.685L46.5535 111.568C46.7545 111.506 46.7545 111.33 46.566 111.23L46.5535 111.179ZM49.6813 109.373L48.0483 108.432C47.9421 108.383 47.8263 108.357 47.7091 108.357C47.5919 108.357 47.4762 108.383 47.37 108.432L45.4355 109.549C45.3941 109.564 45.3583 109.591 45.333 109.627C45.3077 109.663 45.2941 109.705 45.2941 109.749C45.2941 109.793 45.3077 109.836 45.333 109.872C45.3583 109.908 45.3941 109.935 45.4355 109.95L47.0559 110.878C47.1624 110.934 47.281 110.964 47.4014 110.964C47.5217 110.964 47.6403 110.934 47.7468 110.878L49.6813 109.775C49.7194 109.759 49.7521 109.733 49.7756 109.699C49.7991 109.665 49.8123 109.625 49.8136 109.584C49.8149 109.543 49.8043 109.502 49.7831 109.467C49.7618 109.432 49.7309 109.404 49.6939 109.386L49.6813 109.373ZM45.9128 118.041L44.2798 117.113C44.1756 117.057 44.059 117.028 43.9406 117.028C43.8222 117.028 43.7057 117.057 43.6015 117.113L41.667 118.229C41.4786 118.33 41.4786 118.505 41.667 118.618L43.2874 119.559C43.3937 119.608 43.5094 119.634 43.6266 119.634C43.7438 119.634 43.8595 119.608 43.9658 119.559L45.9128 118.443C45.9464 118.43 45.9762 118.409 45.9996 118.382C46.023 118.355 46.0392 118.322 46.0468 118.288C46.0543 118.253 46.0528 118.216 46.0426 118.182C46.0323 118.148 46.0136 118.116 45.9882 118.091L45.9128 118.041ZM49.0281 116.247L47.4076 115.306C47.3034 115.25 47.1869 115.221 47.0685 115.221C46.9501 115.221 46.8336 115.25 46.7293 115.306L44.7823 116.423C44.5938 116.536 44.5938 116.711 44.7823 116.812L46.4153 117.753C46.5195 117.809 46.6361 117.838 46.7545 117.838C46.8728 117.838 46.9894 117.809 47.0936 117.753L49.0281 116.636C49.2919 116.586 49.2919 116.41 49.1035 116.297L49.0281 116.247ZM52.1559 114.441L50.5229 113.5C50.4167 113.451 50.3009 113.425 50.1838 113.425C50.0666 113.425 49.9508 113.451 49.8446 113.5L47.9101 114.617C47.8687 114.631 47.8329 114.659 47.8076 114.695C47.7823 114.73 47.7687 114.773 47.7687 114.817C47.7687 114.861 47.7823 114.904 47.8076 114.94C47.8329 114.976 47.8687 115.003 47.9101 115.018L49.5431 115.959C49.6494 116.008 49.7651 116.034 49.8823 116.034C49.9995 116.034 50.1152 116.008 50.2214 115.959L52.1559 114.842C52.1895 114.83 52.2194 114.809 52.2428 114.782C52.2662 114.755 52.2824 114.722 52.2899 114.687C52.2974 114.652 52.2959 114.616 52.2857 114.582C52.2755 114.547 52.2568 114.516 52.2313 114.491L52.1559 114.441ZM55.2838 112.647L53.6508 111.706C53.5465 111.65 53.43 111.621 53.3116 111.621C53.1933 111.621 53.0767 111.65 52.9724 111.706L51.038 112.823C50.8496 112.923 50.8496 113.099 51.038 113.212L52.6584 114.152C52.7649 114.208 52.8835 114.238 53.0039 114.238C53.1243 114.238 53.2428 114.208 53.3493 114.152L55.2838 113.036C55.5476 112.973 55.5476 112.798 55.3592 112.697L55.2838 112.647ZM75.0181 101.27L73.3851 100.329C73.2808 100.273 73.1643 100.243 73.0459 100.243C72.9276 100.243 72.811 100.273 72.7068 100.329L69.7674 102.022C69.5789 102.135 69.5789 102.311 69.7674 102.411L71.3878 103.352C71.4943 103.408 71.6129 103.437 71.7332 103.437C71.8536 103.437 71.9722 103.408 72.0787 103.352L75.0181 101.658C75.2819 101.596 75.2819 101.42 75.0935 101.32L75.0181 101.27ZM52.7338 107.542L51.1133 106.601C51.0091 106.545 50.8925 106.516 50.7742 106.516C50.6558 106.516 50.5393 106.545 50.435 106.601L48.5005 107.717C48.3121 107.818 48.3121 107.993 48.5005 108.106L50.121 109.047C50.2252 109.103 50.3417 109.132 50.4601 109.132C50.5785 109.132 50.6951 109.103 50.7993 109.047L52.7338 107.931C52.9473 107.905 52.9474 107.73 52.8092 107.629L52.7338 107.542ZM55.8616 105.735L54.2412 104.794C54.1328 104.745 54.015 104.719 53.8957 104.719C53.7765 104.719 53.6587 104.745 53.5503 104.794L51.6158 105.911C51.4274 106.024 51.4274 106.199 51.6158 106.3L53.2488 107.241C53.3531 107.297 53.4696 107.326 53.588 107.326C53.7064 107.326 53.8229 107.297 53.9271 107.241L55.8616 106.124C56.1254 106.112 56.1254 105.936 55.937 105.823L55.8616 105.735ZM58.9895 103.929L57.3565 103.001C57.2522 102.945 57.1357 102.915 57.0173 102.915C56.8989 102.915 56.7824 102.945 56.6781 103.001L54.7436 104.117C54.5552 104.217 54.5552 104.393 54.7436 104.506L56.3767 105.447C56.4829 105.496 56.5986 105.522 56.7158 105.522C56.833 105.522 56.9487 105.496 57.055 105.447L58.9895 104.33C59.0167 104.316 59.0406 104.297 59.0594 104.272C59.0783 104.248 59.0918 104.22 59.0989 104.191C59.1061 104.161 59.1068 104.13 59.1009 104.1C59.095 104.07 59.0827 104.042 59.0648 104.017L58.9895 103.929ZM62.1173 102.135L60.4843 101.194C60.3801 101.138 60.2635 101.109 60.1452 101.109C60.0268 101.109 59.9102 101.138 59.806 101.194L57.8715 102.311C57.6831 102.424 57.6831 102.599 57.8715 102.7L59.4919 103.64C59.5984 103.696 59.717 103.726 59.8374 103.726C59.9577 103.726 60.0763 103.696 60.1828 103.64L62.1173 102.524C62.3811 102.499 62.3811 102.323 62.1927 102.223L62.1173 102.135ZM65.2326 100.329L63.6121 99.3879C63.5059 99.3386 63.3902 99.313 63.273 99.313C63.1558 99.313 63.0401 99.3386 62.9338 99.3879L60.9993 100.504C60.9579 100.519 60.9221 100.546 60.8968 100.582C60.8715 100.618 60.858 100.661 60.858 100.705C60.858 100.749 60.8715 100.792 60.8968 100.828C60.9221 100.864 60.9579 100.891 60.9993 100.906L62.6198 101.834C62.7241 101.89 62.8406 101.919 62.959 101.919C63.0773 101.919 63.1938 101.89 63.2981 101.834L65.2326 100.718C65.509 100.705 65.509 100.529 65.308 100.417L65.2326 100.329ZM69.3654 97.9454L67.7449 97.0045C67.6387 96.9552 67.523 96.9296 67.4058 96.9296C67.2886 96.9296 67.1728 96.9552 67.0666 97.0045L64.2528 98.7984C64.0644 98.8987 64.0644 99.0743 64.2528 99.1872L65.8858 100.128C65.992 100.177 66.1078 100.203 66.225 100.203C66.3422 100.203 66.4579 100.177 66.5641 100.128L69.5036 98.4346C69.5266 98.4102 69.5436 98.3807 69.5532 98.3485C69.5627 98.3163 69.5644 98.2823 69.5583 98.2493C69.5522 98.2163 69.5384 98.1852 69.5179 98.1585C69.4975 98.1319 69.4711 98.1104 69.4408 98.0959L69.3654 97.9454ZM44.1542 115.796L42.5337 114.855C42.4295 114.799 42.313 114.77 42.1946 114.77C42.0762 114.77 41.9597 114.799 41.8554 114.855L38.9034 116.548C38.715 116.661 38.715 116.837 38.9034 116.937L40.5364 117.878C40.6407 117.934 40.7572 117.963 40.8756 117.963C40.994 117.963 41.1105 117.934 41.2148 117.878L44.1542 116.185C44.418 116.159 44.418 115.984 44.2296 115.884L44.1542 115.796ZM47.282 113.989L45.649 113.049C45.5428 112.999 45.4271 112.974 45.3099 112.974C45.1927 112.974 45.0769 112.999 44.9707 113.049L43.0362 114.165C42.8478 114.278 42.8478 114.453 43.0362 114.554L44.6692 115.495C44.7735 115.551 44.89 115.58 45.0084 115.58C45.1268 115.58 45.2433 115.551 45.3476 115.495L47.282 114.378C47.5458 114.403 47.5458 114.19 47.3574 114.077L47.282 113.989ZM50.435 112.271L48.802 111.343C48.6978 111.287 48.5812 111.257 48.4628 111.257C48.3444 111.257 48.2279 111.287 48.1237 111.343L46.1892 112.459C46.0007 112.559 46.0007 112.735 46.1892 112.848L47.8222 113.789C47.9284 113.838 48.0442 113.864 48.1614 113.864C48.2785 113.864 48.3943 113.838 48.5005 113.789L50.435 112.672C50.4764 112.657 50.5122 112.63 50.5375 112.594C50.5628 112.558 50.5764 112.515 50.5764 112.472C50.5764 112.428 50.5628 112.385 50.5375 112.349C50.5122 112.313 50.4764 112.286 50.435 112.271ZM53.5628 110.477L51.9298 109.536C51.8256 109.48 51.7091 109.451 51.5907 109.451C51.4723 109.451 51.3558 109.48 51.2515 109.536L49.317 110.653C49.1286 110.765 49.1286 110.941 49.317 111.041L50.9375 111.982C51.0417 112.038 51.1583 112.068 51.2767 112.068C51.395 112.068 51.5115 112.038 51.6158 111.982L53.5628 110.866C53.8015 110.753 53.8015 110.64 53.6131 110.477H53.5628ZM56.6781 108.671L55.0577 107.73C54.9514 107.68 54.8357 107.655 54.7185 107.655C54.6014 107.655 54.4856 107.68 54.3794 107.73L52.4323 108.846C52.3909 108.861 52.3551 108.888 52.3298 108.924C52.3045 108.96 52.2909 109.003 52.2909 109.047C52.2909 109.091 52.3045 109.134 52.3298 109.17C52.3551 109.206 52.3909 109.233 52.4323 109.248L54.0653 110.176C54.1696 110.232 54.2861 110.261 54.4045 110.261C54.5229 110.261 54.6394 110.232 54.7436 110.176L56.6781 109.059C56.9168 108.959 56.9168 108.784 56.7158 108.671H56.6781ZM70.9858 103.653L69.3528 102.712C69.2486 102.656 69.132 102.627 69.0137 102.627C68.8953 102.627 68.7787 102.656 68.6745 102.712L54.2035 111.092C54.0151 111.205 54.0151 111.38 54.2035 111.481L55.824 112.421C55.9305 112.477 56.049 112.507 56.1694 112.507C56.2898 112.507 56.4083 112.477 56.5148 112.421L70.9858 104.079C71.2245 103.967 71.2245 103.791 71.0361 103.691L70.9858 103.653ZM59.8562 106.877L58.2232 105.936C58.119 105.88 58.0024 105.851 57.884 105.851C57.7657 105.851 57.6491 105.88 57.5449 105.936L55.6104 107.052C55.422 107.153 55.422 107.328 55.6104 107.441L57.2434 108.382C57.3497 108.431 57.4654 108.457 57.5826 108.457C57.6998 108.457 57.8155 108.431 57.9217 108.382L59.8562 107.266C60.0447 107.153 60.0447 106.977 59.8562 106.877ZM62.9841 105.07L61.3511 104.13C61.2448 104.08 61.1291 104.055 61.0119 104.055C60.8947 104.055 60.779 104.08 60.6727 104.13L58.7382 105.246C58.5498 105.359 58.5498 105.535 58.7382 105.635L60.3587 106.576C60.4652 106.632 60.5837 106.661 60.7041 106.661C60.8245 106.661 60.9431 106.632 61.0496 106.576L62.9841 105.459C63.1725 105.359 63.1725 105.183 62.9966 105.07H62.9841ZM66.1119 103.264L64.4789 102.336C64.3746 102.28 64.2581 102.251 64.1398 102.251C64.0214 102.251 63.9049 102.28 63.8006 102.336L61.8661 103.452C61.6777 103.553 61.6777 103.728 61.8661 103.841L63.4866 104.782C63.5928 104.831 63.7085 104.857 63.8257 104.857C63.9429 104.857 64.0586 104.831 64.1649 104.782L66.1119 103.665C66.1533 103.651 66.1891 103.623 66.2144 103.587C66.2397 103.552 66.2533 103.509 66.2533 103.465C66.2533 103.421 66.2397 103.378 66.2144 103.342C66.1891 103.306 66.1533 103.279 66.1119 103.264ZM69.2272 101.47L67.6068 100.529C67.5003 100.473 67.3817 100.444 67.2613 100.444C67.1409 100.444 67.0224 100.473 66.9159 100.529L64.9814 101.646C64.7929 101.759 64.7929 101.934 64.9814 102.035L66.6144 102.976C66.7186 103.032 66.8352 103.061 66.9535 103.061C67.0719 103.061 67.1885 103.032 67.2927 102.976L69.2775 101.859C69.4156 101.746 69.4156 101.571 69.2775 101.47H69.2272ZM72.3551 99.6639L70.722 98.7231C70.6158 98.6737 70.5001 98.6482 70.3829 98.6482C70.2657 98.6482 70.1499 98.6737 70.0437 98.7231L68.1092 99.8395C68.0678 99.8544 68.032 99.8816 68.0067 99.9175C67.9814 99.9535 67.9678 99.9963 67.9678 100.04C67.9678 100.084 67.9814 100.127 68.0067 100.163C68.032 100.199 68.0678 100.226 68.1092 100.241L69.7422 101.169C69.8465 101.225 69.963 101.255 70.0814 101.255C70.1998 101.255 70.3163 101.225 70.4206 101.169L72.3551 100.053C72.5435 99.9524 72.5435 99.7768 72.3551 99.6639ZM68.5866 91.9743L66.9661 91.0461C66.8619 90.9901 66.7453 90.9608 66.627 90.9608C66.5086 90.9608 66.392 90.9901 66.2878 91.0461L64.3533 92.1499C64.3119 92.1648 64.2761 92.192 64.2508 92.228C64.2255 92.2639 64.2119 92.3067 64.2119 92.3506C64.2119 92.3946 64.2255 92.4374 64.2508 92.4733C64.2761 92.5093 64.3119 92.5365 64.3533 92.5514L65.9737 93.4922C66.08 93.5415 66.1958 93.5671 66.3129 93.5671C66.4301 93.5671 66.5458 93.5415 66.6521 93.4922L68.5866 92.3757C68.6298 92.3652 68.6686 92.3416 68.6976 92.308C68.7267 92.2744 68.7445 92.2326 68.7487 92.1884C68.7528 92.1443 68.7431 92.0999 68.7207 92.0615C68.6984 92.0231 68.6647 91.9926 68.6243 91.9743H68.5866ZM71.7144 90.1805L70.094 89.2397C69.9874 89.1837 69.8689 89.1544 69.7485 89.1544C69.6281 89.1544 69.5096 89.1837 69.4031 89.2397L67.4686 90.3561C67.4253 90.3672 67.387 90.3923 67.3597 90.4275C67.3323 90.4627 67.3175 90.506 67.3175 90.5506C67.3175 90.5951 67.3323 90.6384 67.3597 90.6736C67.387 90.7088 67.4253 90.7339 67.4686 90.745L69.1016 91.6858C69.2058 91.7418 69.3224 91.7711 69.4408 91.7711C69.5591 91.7711 69.6757 91.7418 69.7799 91.6858L71.7898 90.5694C71.9405 90.4565 71.9405 90.2809 71.7898 90.1805H71.7144ZM74.8422 88.3741L73.2092 87.4333C73.103 87.384 72.9872 87.3584 72.8701 87.3584C72.7529 87.3584 72.6371 87.384 72.5309 87.4333L70.5964 88.5498C70.555 88.5646 70.5192 88.5919 70.4939 88.6278C70.4686 88.6637 70.455 88.7066 70.455 88.7505C70.455 88.7944 70.4686 88.8372 70.4939 88.8732C70.5192 88.9091 70.555 88.9363 70.5964 88.9512L72.2294 89.8794C72.3337 89.9354 72.4502 89.9648 72.5686 89.9648C72.687 89.9648 72.8035 89.9354 72.9078 89.8794L74.8422 88.763C75.0684 88.6627 75.0684 88.487 74.8799 88.3741H74.8422ZM77.6938 90.0174L76.0607 89.0766C75.9545 89.0273 75.8387 89.0017 75.7216 89.0017C75.6044 89.0017 75.4886 89.0273 75.3824 89.0766L73.4479 90.193C73.4065 90.2079 73.3707 90.2351 73.3454 90.2711C73.3201 90.307 73.3065 90.3498 73.3065 90.3938C73.3065 90.4377 73.3201 90.4805 73.3454 90.5165C73.3707 90.5524 73.4065 90.5796 73.4479 90.5945L75.0683 91.5227C75.1748 91.5788 75.2934 91.608 75.4138 91.608C75.5342 91.608 75.6528 91.5788 75.7593 91.5227L77.6938 90.4063C77.9199 90.3059 77.9199 90.1303 77.7314 90.0174H77.6938ZM80.4573 91.5353L78.862 90.6195C78.7762 90.5765 78.6816 90.5541 78.5856 90.5541C78.4897 90.5541 78.395 90.5765 78.3093 90.6195L75.5583 92.175C75.4853 92.2157 75.4031 92.237 75.3196 92.237C75.236 92.237 75.1539 92.2157 75.0809 92.175L72.9455 90.9206C72.8135 90.8524 72.667 90.8168 72.5183 90.8168C72.3697 90.8168 72.2233 90.8524 72.0912 90.9206L67.1922 93.7431C66.9535 93.881 66.9535 94.1068 67.1922 94.2323L71.4632 96.7411C71.5949 96.8027 71.7386 96.8346 71.884 96.8346C72.0294 96.8346 72.1731 96.8027 72.3048 96.7411L80.4448 92.0496C80.7337 91.8865 80.7337 91.6733 80.495 91.5353H80.4573Z" fill="#FFFEFB"/>
<path opacity="0.7" d="M83.0807 54.2154L7.07031 98.0447V51.117L83.0807 7.2876V54.2154Z" fill="#CFE9FF"/>
<path opacity="0.7" d="M83.0807 50.0511L7.07031 93.8804V54.7551L83.0807 10.9258V50.0511Z" fill="#95ACF4"/>
<g style="mix-blend-mode:multiply" opacity="0.5">
<path d="M42.0938 34.559V73.6843L83.0823 50.0511V10.9258L42.0938 34.559Z" fill="#832DF1"/>
</g>
<path d="M7.07031 47.781V55.6086L83.0807 11.7792V3.95166L7.07031 47.781Z" fill="#788EFF"/>
<path d="M34.3435 55.9594L14.0062 67.6882C12.9636 68.2903 12.1094 67.914 12.1094 66.8477C12.1651 66.2286 12.3658 65.6313 12.6953 65.104C13.0248 64.5766 13.4738 64.1341 14.0062 63.812L34.3561 52.0707C35.3987 51.4686 36.2528 51.8449 36.2528 52.9237C36.1938 53.5434 35.9904 54.1407 35.6589 54.6678C35.3273 55.1949 34.8769 55.6372 34.3435 55.9594Z" fill="white"/>
<path d="M34.3435 62.7331L14.0062 74.4619C12.9636 75.064 12.1094 74.6877 12.1094 73.6215C12.1651 73.0024 12.3658 72.4051 12.6953 71.8777C13.0248 71.3504 13.4738 70.9078 14.0062 70.5858L34.3561 58.8444C35.3987 58.2423 36.2528 58.6312 36.2528 59.6974C36.1958 60.3176 35.9932 60.9157 35.6614 61.4431C35.3297 61.9706 34.8782 62.4125 34.3435 62.7331Z" fill="white"/>
<path d="M19.7611 78.0253L13.9828 81.3495C12.9401 81.9516 12.0859 81.5753 12.0859 80.4965C12.1455 79.8785 12.3477 79.2827 12.6769 78.7559C13.006 78.2292 13.453 77.7859 13.9828 77.4608L19.7611 74.1366C20.8037 73.5345 21.6579 73.9108 21.6579 74.9896C21.5983 75.6076 21.3961 76.2035 21.0669 76.7302C20.7378 77.2569 20.2908 77.7003 19.7611 78.0253Z" fill="#CFE9FF"/>
<path d="M14.4217 72.28C14.407 72.4308 14.3573 72.5763 14.2767 72.7047C14.196 72.8331 14.0865 72.9411 13.9569 73.0201C13.7057 73.1706 13.4922 73.0828 13.4922 72.8194C13.507 72.6668 13.5565 72.5196 13.6371 72.3892C13.7177 72.2587 13.8271 72.1484 13.9569 72.0667C14.2082 71.9287 14.4217 72.0165 14.4217 72.28Z" fill="#CFCAD4"/>
<path d="M16.3436 71.176C16.3289 71.3268 16.2792 71.4723 16.1986 71.6007C16.1179 71.7291 16.0084 71.8371 15.8788 71.9161C15.615 72.0666 15.4141 71.9161 15.4141 71.7154C15.4259 71.562 15.4743 71.4137 15.5551 71.2828C15.636 71.1519 15.747 71.0421 15.8788 70.9627C16.1301 70.8247 16.3436 70.9125 16.3436 71.176Z" fill="#CFCAD4"/>
<path d="M18.2538 70.0717C18.241 70.2231 18.1922 70.3693 18.1113 70.498C18.0305 70.6267 17.9199 70.7343 17.789 70.8117C17.5378 70.9623 17.3242 70.8117 17.3242 70.5985C17.3408 70.4481 17.3912 70.3035 17.4717 70.1753C17.5522 70.0471 17.6607 69.9388 17.789 69.8584C18.0528 69.7079 18.2538 69.8082 18.2538 70.0717Z" fill="#CFCAD4"/>
<path d="M20.1756 68.9676C20.1609 69.1185 20.1112 69.2639 20.0305 69.3924C19.9499 69.5208 19.8404 69.6288 19.7109 69.7077C19.4471 69.8583 19.2461 69.7077 19.2461 69.4945C19.2589 69.3431 19.3077 69.1969 19.3886 69.0681C19.4694 68.9394 19.5799 68.8318 19.7109 68.7544C19.9621 68.6039 20.1756 68.7042 20.1756 68.9676Z" fill="#CFCAD4"/>
<path d="M22.0819 67.8641C22.0691 68.0156 22.0203 68.1617 21.9394 68.2905C21.8586 68.4192 21.7481 68.5268 21.6171 68.6042C21.3659 68.7548 21.1523 68.6042 21.1523 68.391C21.1671 68.2401 21.2168 68.0947 21.2974 67.9663C21.3781 67.8378 21.4875 67.7299 21.6171 67.6509C21.8809 67.5004 22.0819 67.6007 22.0819 67.8641Z" fill="#CFCAD4"/>
<path d="M24.0545 66.7349C24.0379 66.8852 23.9875 67.0299 23.907 67.1581C23.8265 67.2862 23.7181 67.3946 23.5898 67.475C23.3385 67.6255 23.125 67.475 23.125 67.2617C23.1398 67.1108 23.1894 66.9654 23.2701 66.837C23.3507 66.7086 23.4602 66.6006 23.5898 66.5216C23.7907 66.3962 24.0545 66.4965 24.0545 66.7349Z" fill="#CFCAD4"/>
<path d="M25.9131 65.6438C25.9007 65.7955 25.8534 65.9423 25.775 66.0728C25.6966 66.2033 25.5891 66.314 25.4609 66.3964C25.1971 66.5344 24.9961 66.3964 24.9961 66.1831C25.0089 66.0317 25.0577 65.8855 25.1386 65.7568C25.2194 65.6281 25.3299 65.5205 25.4609 65.443C25.7121 65.2925 25.9131 65.3803 25.9131 65.6438Z" fill="#CFCAD4"/>
<path d="M27.8241 64.54C27.8122 64.6934 27.7639 64.8417 27.683 64.9726C27.6022 65.1035 27.4912 65.2132 27.3593 65.2927C27.1081 65.4307 26.8945 65.2927 26.8945 65.0794C26.9093 64.9285 26.9589 64.7831 27.0396 64.6547C27.1203 64.5262 27.2297 64.4183 27.3593 64.3393C27.6357 64.2264 27.8241 64.2264 27.8241 64.54Z" fill="#CFCAD4"/>
<path d="M14.0048 65.1666V66.2705C14.0048 66.5213 14.143 66.559 14.3565 66.4335C14.5509 66.3149 14.7043 66.1398 14.7962 65.9318V64.6773L15.0097 64.5645V66.1826L14.8339 66.283V66.0697C14.7146 66.311 14.5267 66.5117 14.2938 66.6468C13.9797 66.8224 13.8164 66.7095 13.8164 66.3959V65.2544L14.0048 65.1666Z" fill="#CFCAD4"/>
<path d="M16.4424 64.9533C16.4424 64.74 16.3168 64.7526 16.0028 64.9533C15.6887 65.154 15.45 65.0912 15.45 64.8404C15.4706 64.6622 15.537 64.4924 15.6426 64.3473C15.7482 64.2022 15.8896 64.0869 16.053 64.0124C16.4801 63.7616 16.6434 63.8996 16.6434 64.2257L16.4299 64.3511C16.4299 64.1128 16.3419 64.025 16.053 64.2006C15.9485 64.2409 15.857 64.309 15.7884 64.3974C15.7198 64.4858 15.6766 64.5913 15.6636 64.7024C15.6636 64.8655 15.739 64.9156 16.0907 64.7024C16.4424 64.4891 16.656 64.5142 16.656 64.8153C16.6371 64.9972 16.5718 65.1711 16.4662 65.3205C16.3606 65.4699 16.2183 65.5896 16.053 65.6683C15.6008 65.9317 15.4375 65.7435 15.4375 65.5052C15.5015 65.455 15.5686 65.4089 15.6385 65.3672C15.6385 65.5428 15.7264 65.6683 16.053 65.4801C16.1579 65.4333 16.249 65.3602 16.3172 65.2679C16.3854 65.1756 16.4286 65.0672 16.4424 64.9533Z" fill="#CFCAD4"/>
<path d="M17.2233 64.2265C17.2233 64.5777 17.3866 64.7157 17.7006 64.5275C17.8242 64.4714 17.9309 64.384 18.0103 64.274C18.0896 64.164 18.1387 64.0352 18.1528 63.9003L18.3538 63.7749C18.3275 63.9722 18.2546 64.1604 18.141 64.324C18.0274 64.4876 17.8764 64.6219 17.7006 64.7157C17.2233 64.9917 17.0098 64.7157 17.0098 64.2892V64.2265C16.9963 63.9753 17.0525 63.7253 17.1722 63.504C17.2919 63.2827 17.4704 63.0986 17.6881 62.9721C18.1528 62.7086 18.3538 62.9721 18.3538 63.3986V63.524L17.2233 64.2265ZM17.2233 64.0509L18.1403 63.524C18.1403 63.1728 17.9895 63.0348 17.6881 63.2104C17.5422 63.2959 17.422 63.4191 17.3402 63.567C17.2585 63.7148 17.2181 63.882 17.2233 64.0509Z" fill="#CFCAD4"/>
<path d="M19.4088 62.0312V62.2445C19.2008 62.3595 19.0373 62.5405 18.944 62.7588V64.0132L18.7305 64.1387V62.5079L18.9063 62.4076V62.6083C19.0015 62.4023 19.1541 62.228 19.346 62.1065L19.4088 62.0312Z" fill="#CFCAD4"/>
<path d="M20.6242 62.9718L20.3984 63.0972V60.7138L20.6242 60.5884V62.9718Z" fill="#CFCAD4"/>
<path d="M21.7327 62.3574L21.1172 62.7086V60.3127L21.7327 59.9489C22.3105 59.6227 22.6497 59.7356 22.6497 60.5636V60.689C22.6736 61.0257 22.5998 61.3621 22.4372 61.658C22.2745 61.9539 22.0299 62.1967 21.7327 62.3574ZM21.7327 62.1692C21.9682 62.0351 22.1599 61.8359 22.2847 61.5955C22.4095 61.3552 22.4621 61.0839 22.4362 60.8144V60.7015C22.4362 60.0116 22.1849 59.8987 21.7327 60.1621L21.3433 60.3879V62.3824L21.7327 62.1692Z" fill="#CFCAD4"/>
<path d="M10.8405 51.1554L10.1622 51.5442C9.94653 51.707 9.67759 51.7831 9.40849 51.7575C9.23263 51.7073 9.14471 51.5442 9.14471 51.2682V49.5999C9.13992 49.3141 9.23298 49.0353 9.40849 48.8096C9.60499 48.5361 9.86319 48.3127 10.1622 48.1573L10.8405 47.7559C11.0569 47.5953 11.3265 47.5235 11.5942 47.5552C11.7575 47.5552 11.8454 47.7559 11.8454 48.0444V49.7128C11.8417 49.9952 11.7543 50.2702 11.5942 50.5031C11.3941 50.7732 11.1368 50.996 10.8405 51.1554ZM10.2752 50.9045L10.7149 50.6536C10.8223 50.5937 10.9163 50.5126 10.9913 50.4153C11.0481 50.3297 11.0787 50.2294 11.0792 50.1267V48.5211C11.0792 48.4082 11.0792 48.3455 10.9913 48.3204C10.8919 48.3176 10.7944 48.3485 10.7149 48.4082L10.2752 48.6591C10.1683 48.7146 10.0775 48.7967 10.0115 48.8974C9.94896 48.9802 9.9178 49.0824 9.92352 49.1859V50.7916C9.92352 50.9045 9.92353 50.9672 10.0115 50.9797C10.0994 50.9923 10.1496 50.9672 10.2376 50.9045H10.2752Z" fill="#F0F2FF"/>
<path d="M13.0656 49.8755L12.5631 50.164C12.4752 50.164 12.4375 50.164 12.4375 50.164V46.9903C12.4387 46.9503 12.4511 46.9115 12.4733 46.8782C12.4955 46.845 12.5266 46.8186 12.5631 46.8021L13.0153 46.5387C13.1033 46.5387 13.1661 46.5387 13.1912 46.5387L14.4474 47.7931V45.8112C14.4508 45.7734 14.4642 45.7372 14.4863 45.7063C14.5084 45.6754 14.5383 45.651 14.573 45.6355L15.088 45.3345C15.1634 45.3345 15.2136 45.3345 15.2136 45.3345V48.5082C15.2099 48.5475 15.1965 48.5852 15.1746 48.6181C15.1527 48.6509 15.1229 48.6778 15.088 48.6963L14.6358 48.9597C14.5437 49.0099 14.4809 49.0099 14.4474 48.9597L13.1912 47.7053V49.6748C13.1925 49.7169 13.1812 49.7584 13.1589 49.7941C13.1365 49.8298 13.104 49.8581 13.0656 49.8755Z" fill="#F0F2FF"/>
<path d="M17.987 47.0406L15.9772 48.1946C15.8893 48.1946 15.8516 48.1946 15.8516 48.1946V45.021C15.8527 44.981 15.8651 44.9421 15.8873 44.9089C15.9095 44.8756 15.9407 44.8492 15.9772 44.8328L16.4922 44.5317C16.5801 44.5317 16.6304 44.5317 16.6304 44.5317V47.1786C16.6304 47.1786 16.6304 47.1786 16.6932 47.1786L17.9493 46.4385C18.0373 46.4385 18.0749 46.4385 18.0749 46.4385V46.8022C18.0878 46.8461 18.0862 46.893 18.0704 46.9359C18.0545 46.9788 18.0253 47.0155 17.987 47.0406Z" fill="#F0F2FF"/>
<path d="M19.2437 43.0264V46.2001C19.2426 46.24 19.2301 46.2789 19.2079 46.3121C19.1857 46.3454 19.1546 46.3718 19.1181 46.3882L18.603 46.6767C18.5151 46.6767 18.4648 46.6767 18.4648 46.6767V43.4905C18.4648 43.4905 18.4649 43.3651 18.603 43.3149L19.1181 43.0138C19.206 42.9009 19.2437 42.9009 19.2437 43.0264Z" fill="#F0F2FF"/>
<path d="M20.55 45.5605L20.0475 45.8491C19.9596 45.8491 19.9219 45.8491 19.9219 45.8491V42.6754C19.923 42.6354 19.9354 42.5966 19.9576 42.5633C19.9799 42.53 20.011 42.5036 20.0475 42.4872L20.4997 42.2238C20.5877 42.2238 20.6505 42.2238 20.6756 42.2238L21.9318 43.4782V41.4962C21.9338 41.458 21.9466 41.4212 21.9689 41.3901C21.9912 41.359 22.0219 41.3349 22.0574 41.3206L22.5724 41.0195C22.6603 41.0195 22.698 41.0195 22.698 41.0195V44.1556C22.6969 44.1956 22.6844 44.2344 22.6622 44.2677C22.64 44.3009 22.6089 44.3273 22.5724 44.3437L22.1202 44.5946C22.0322 44.6574 21.9694 44.6574 21.9318 44.5946L20.6756 43.3402V45.3096C20.6886 45.3596 20.683 45.4125 20.6599 45.4586C20.6368 45.5047 20.5977 45.5409 20.55 45.5605Z" fill="#F0F2FF"/>
<path d="M25.4628 42.7256L23.4655 43.8797C23.3775 43.8797 23.3398 43.8797 23.3398 43.8797V40.706C23.341 40.666 23.3534 40.6272 23.3756 40.5939C23.3978 40.5607 23.429 40.5343 23.4655 40.5179L25.4628 39.3638C25.5507 39.3638 25.5884 39.3638 25.5884 39.3638V39.7276C25.588 39.7662 25.5758 39.8037 25.5533 39.8351C25.5309 39.8666 25.4992 39.8903 25.4628 39.9032L24.2066 40.6433C24.1855 40.6507 24.1671 40.6642 24.1537 40.682C24.1403 40.6999 24.1325 40.7213 24.1312 40.7436V41.4336C24.1312 41.4336 24.1312 41.4336 24.2066 41.4336L25.2493 40.8315C25.3372 40.8315 25.3748 40.8315 25.3748 40.8315V41.1952C25.3745 41.2338 25.3622 41.2714 25.3398 41.3028C25.3173 41.3342 25.2857 41.358 25.2493 41.3708L24.2066 41.973C24.2066 41.973 24.1312 41.973 24.1312 42.0733V42.9012C24.1312 42.9012 24.1312 42.9012 24.2066 42.9012L25.4628 42.1737C25.5507 42.1737 25.5884 42.1737 25.5884 42.1737V42.5249C25.5897 42.567 25.5784 42.6086 25.5561 42.6443C25.5337 42.68 25.5012 42.7083 25.4628 42.7256Z" fill="#F0F2FF"/>
<path d="M27.3086 41.5584V38.3847C27.3098 38.3447 27.3221 38.3059 27.3444 38.2726C27.3666 38.2393 27.3977 38.213 27.4342 38.1965L28.8914 37.3435C29.1103 37.1884 29.3779 37.1172 29.6451 37.1428C29.821 37.1428 29.9089 37.3435 29.9089 37.6195V37.8829C29.8952 38.0524 29.8441 38.2167 29.7595 38.3641C29.6748 38.5116 29.5585 38.6385 29.419 38.7359C29.4806 38.71 29.5468 38.6967 29.6137 38.6967C29.6805 38.6967 29.7467 38.71 29.8084 38.7359C29.9089 38.7359 29.9591 38.8739 29.9591 39.0495V39.3631C29.9565 39.6477 29.8642 39.9242 29.6953 40.1534C29.5027 40.4224 29.2486 40.6417 28.9542 40.7932L27.4342 41.6838C27.3463 41.6462 27.3086 41.6462 27.3086 41.5584ZM28.1502 39.1624L28.7658 38.7986C28.8793 38.7426 28.9782 38.661 29.0547 38.5603C29.1172 38.4775 29.1483 38.3753 29.1426 38.2718V38.0711C29.1426 37.9582 29.1426 37.8955 29.0547 37.8829C28.9545 37.8873 28.858 37.9223 28.7783 37.9833L28.1502 38.347C28.1502 38.347 28.0749 38.3471 28.0749 38.4349V39.1373C28.0749 39.1373 28.1 39.1373 28.1502 39.1373V39.1624ZM28.1502 40.6175L28.8286 40.2287C28.9391 40.1683 29.0372 40.0874 29.1175 39.9903C29.1765 39.9058 29.2073 39.8048 29.2054 39.7018V39.3882C29.2054 39.2879 29.2054 39.2251 29.1175 39.2126C29.0092 39.2151 28.9042 39.2501 28.816 39.313L28.1502 39.7018C28.1292 39.7092 28.1107 39.7227 28.0973 39.7406C28.0839 39.7584 28.0761 39.7799 28.0749 39.8022V40.605C28.0749 40.605 28.1 40.6426 28.1502 40.6175Z" fill="#F0F2FF"/>
<path d="M30.9525 39.5647L30.3621 39.9034C30.2868 39.9034 30.2616 39.8784 30.2868 39.8282L31.254 36.0649C31.2688 36.0182 31.2932 35.9751 31.3256 35.9384C31.3581 35.9017 31.3979 35.8721 31.4424 35.8517L32.2464 35.375C32.3594 35.375 32.4097 35.375 32.4348 35.375L33.4021 37.9842C33.4021 37.9842 33.4021 38.0971 33.3267 38.1473L32.7363 38.4859C32.7076 38.4947 32.677 38.4947 32.6484 38.4859L32.4725 37.9967L31.2917 38.6867L31.1158 39.364V39.477L30.9525 39.5647ZM31.8319 36.2907L31.3922 38.072L32.2966 37.5577L31.857 36.3033L31.8319 36.2907Z" fill="#F0F2FF"/>
<path d="M34.4297 37.5569L33.9147 37.8454C33.8268 37.8454 33.7891 37.8454 33.7891 37.8454V34.6718C33.7891 34.5965 33.7891 34.5463 33.9147 34.4961L34.3795 34.2327C34.4548 34.2327 34.5176 34.17 34.5428 34.2327L35.7989 35.4871V33.5177C35.8026 33.4767 35.8174 33.4376 35.8418 33.4044C35.8661 33.3712 35.8991 33.3454 35.9371 33.3295L36.4395 33.041C36.5275 33.041 36.5652 33.041 36.5652 33.041V36.2147C36.5648 36.2533 36.5525 36.2909 36.5301 36.3223C36.5076 36.3537 36.476 36.3774 36.4395 36.3903L35.9873 36.6537C35.8994 36.6537 35.8366 36.6537 35.7989 36.6537L34.5428 35.3993V37.3687C34.5404 37.4069 34.5289 37.4439 34.5092 37.4766C34.4895 37.5093 34.4623 37.5369 34.4297 37.5569Z" fill="#F0F2FF"/>
<path d="M37.8719 35.5749L37.3443 35.8759C37.269 35.8759 37.2188 35.8759 37.2188 35.8759V32.7022C37.2224 32.6629 37.2358 32.6252 37.2578 32.5923C37.2797 32.5595 37.3094 32.5326 37.3443 32.5141L37.8719 32.2256C37.9599 32.2256 37.9976 32.2256 37.9976 32.2256V33.7309L38.1986 33.2793L39.1281 31.6109C39.1762 31.5023 39.2606 31.4136 39.3668 31.36L39.9697 31.0088C39.9697 31.0088 39.9697 31.0088 40.0451 31.0088C40.1205 31.0088 40.0451 31.0088 40.0451 31.1217L38.8894 33.1789L40.1456 34.1825V34.2703C40.1456 34.2703 40.1456 34.2703 40.0325 34.3706L39.5929 34.634C39.4421 34.7093 39.3542 34.7344 39.304 34.634L38.3744 33.8814L37.985 34.4961V35.3742C37.9874 35.4149 37.978 35.4555 37.9579 35.491C37.9379 35.5266 37.908 35.5557 37.8719 35.5749Z" fill="#F0F2FF"/>
<path d="M41.2788 30.3572V33.5434C41.2788 33.6062 41.2789 33.6689 41.1407 33.7191L40.6256 34.0201C40.5377 34.0201 40.5 34.0201 40.5 34.0201V30.8464C40.5012 30.8065 40.5136 30.7676 40.5358 30.7344C40.558 30.7011 40.5891 30.6747 40.6256 30.6583L41.1407 30.3698C41.2286 30.2443 41.2788 30.2569 41.2788 30.3572Z" fill="#F0F2FF"/>
<path d="M42.586 32.8654L42.0709 33.1664C41.983 33.1664 41.9453 33.1664 41.9453 33.1664V29.9928C41.9465 29.9528 41.9589 29.9139 41.9811 29.8807C42.0033 29.8474 42.0344 29.821 42.0709 29.8046L42.5357 29.5412C42.6236 29.5412 42.6739 29.4784 42.699 29.5412L43.9552 30.7956V28.8136C43.9563 28.7736 43.9687 28.7348 43.9909 28.7015C44.0131 28.6682 44.0443 28.6419 44.0808 28.6254L44.5832 28.3369C44.6712 28.3369 44.7089 28.3369 44.7089 28.3369V31.5106C44.7077 31.5506 44.6953 31.5894 44.6731 31.6227C44.6509 31.656 44.6197 31.6823 44.5832 31.6988L44.1436 31.9496C44.0431 31.9496 43.9803 31.9496 43.9426 31.9496L42.6864 30.6952V32.6772C42.6855 32.7142 42.6759 32.7505 42.6585 32.7831C42.641 32.8158 42.6162 32.844 42.586 32.8654Z" fill="#F0F2FF"/>
<path d="M46.955 30.357L46.3144 30.7333C46.098 30.8939 45.8283 30.9657 45.5607 30.934C45.3848 30.934 45.2969 30.7709 45.2969 30.4448V28.7764C45.2995 28.4918 45.3918 28.2153 45.5607 27.9861C45.7608 27.7159 46.0181 27.4932 46.3144 27.3338L46.955 26.9575C47.1696 26.8033 47.4329 26.732 47.6962 26.7568C47.872 26.807 47.96 26.97 47.96 27.246V27.4091C47.9588 27.449 47.9464 27.4879 47.9242 27.5212C47.902 27.5544 47.8708 27.5808 47.8343 27.5972L47.3068 27.8983C47.2314 27.8983 47.1811 27.8983 47.1811 27.8983V27.7729C47.1811 27.6642 47.156 27.6014 47.1058 27.5847C47.1058 27.5847 46.955 27.5847 46.8294 27.6725L46.4274 27.8983C46.3243 27.9538 46.2343 28.0308 46.1636 28.1241C46.1011 28.2069 46.07 28.3091 46.0757 28.4126V30.0183C46.0757 30.1312 46.0757 30.1939 46.1636 30.219C46.2591 30.2209 46.3522 30.1899 46.4274 30.1312L46.8294 29.9054C46.9397 29.8497 47.0346 29.7679 47.1058 29.667C47.1589 29.5804 47.1851 29.48 47.1811 29.3785V29.0524C47.1811 29.0524 47.1811 29.0524 47.1183 29.0524L46.754 29.2656C46.6661 29.2656 46.6158 29.2656 46.6158 29.2656V28.9144C46.6195 28.8734 46.6344 28.8343 46.6587 28.8011C46.6831 28.7679 46.716 28.742 46.754 28.7262L47.8218 28.1116C47.9097 28.1116 47.96 28.1116 47.96 28.1116V28.9897C47.9573 29.2742 47.865 29.5507 47.6962 29.7799C47.4928 30.0225 47.2402 30.2192 46.955 30.357Z" fill="#F0F2FF"/>
<path opacity="0.8" d="M80.3186 40.6554L62.3555 51.0043V47.3791L80.3186 37.0176V40.6554Z" fill="#95ACF4"/>
<path d="M63.2617 47.8932L79.416 38.5854V40.1284L63.2617 49.4487V47.8932Z" fill="#291B2A"/>
<path d="M89.2759 71.3258L88.4971 70.8742C87.9678 70.5643 87.4961 70.1653 87.1028 69.695C86.5851 69.1116 86.1613 68.4514 85.8466 67.7381C85.4986 66.9862 85.3104 66.1704 85.2939 65.3422V47.9936C85.2815 47.1259 85.0846 46.2707 84.7161 45.4848C84.3993 44.7496 83.9761 44.0649 83.4599 43.4526C83.0416 42.9622 82.5501 42.5391 82.0027 42.1982L76.0234 38.7485L64.0898 45.6729L70.0692 49.1226C70.6191 49.46 71.1111 49.8835 71.5263 50.377C72.0378 50.9927 72.4606 51.6767 72.7825 52.4091C73.1468 53.1965 73.3435 54.0508 73.3603 54.918V72.2666C73.372 73.0954 73.5604 73.9122 73.9131 74.6625C74.2278 75.3758 74.6515 76.036 75.1692 76.6194C75.5625 77.0897 76.0342 77.4887 76.5635 77.7986L77.3424 78.2501C77.6697 78.4863 78.0543 78.6306 78.4564 78.6681C78.8584 78.7056 79.2632 78.635 79.6286 78.4634L91.5496 71.539C91.1864 71.7108 90.7836 71.7816 90.3834 71.7441C89.9833 71.7066 89.6008 71.5621 89.2759 71.3258Z" fill="url(#paint7_linear)"/>
<path d="M81.6516 68.7545C81.3273 68.9814 81.0692 69.2904 80.9037 69.6496C80.7381 70.0089 80.6711 70.4056 80.7095 70.7992V76.4942C80.752 76.9034 80.6848 77.3165 80.5148 77.6912C80.3449 78.0659 80.0782 78.3888 79.7422 78.6267L91.6757 71.7024C92.0099 71.4626 92.2751 71.1394 92.4448 70.7652C92.6146 70.3909 92.6829 69.9787 92.643 69.5698V63.8748C92.6046 63.4825 92.6703 63.087 92.8335 62.7281C92.9966 62.3691 93.2515 62.0594 93.5726 61.8301L81.6516 68.7545Z" fill="#DAD7D7"/>
<path d="M95.8585 61.9058C95.5179 61.6623 95.1188 61.5132 94.7019 61.4736C94.2849 61.4339 93.8648 61.5051 93.4843 61.68L81.5508 68.6044C81.9313 68.4295 82.3513 68.3583 82.7683 68.398C83.1853 68.4376 83.5843 68.5867 83.9249 68.8301L95.0671 75.2528L106.988 68.3284L95.8585 61.9058Z" fill="#F8F5F4"/>
<path d="M81.9533 68.4527C81.1243 68.6785 80.5841 69.4688 80.5841 70.7358V76.4183C80.5841 78.4379 79.1395 79.2658 77.3683 78.2497L76.5895 77.7981C75.657 77.1931 74.8808 76.3767 74.3242 75.4154C73.7676 74.454 73.4462 73.375 73.3863 72.2661V54.9175C73.3215 53.7663 72.9865 52.6464 72.4082 51.6484C71.8299 50.6503 71.0247 49.8021 70.0575 49.1723L64.0781 45.7227V45.8732L70.0575 49.3228C70.9883 49.9266 71.7635 50.741 72.32 51.7C72.8766 52.659 73.1989 53.7356 73.2607 54.8423V72.1909C73.3255 73.3421 73.6605 74.462 74.2388 75.46C74.817 76.4581 75.6223 77.3063 76.5895 77.9361L77.3683 78.3877C79.2149 79.4539 80.7097 78.6009 80.7097 76.4935V70.7985C80.6423 70.3449 80.7295 69.8819 80.9573 69.4837C81.1851 69.0856 81.5404 68.7755 81.9659 68.6032L81.9533 68.4527Z" fill="#F3F0F0"/>
<path d="M95.0695 75.2524L83.9273 68.8297C82.0933 67.776 80.5859 68.629 80.5859 70.7365V71.8153H80.7241V70.7992C80.7241 68.767 82.1687 67.9517 83.9399 68.9677L95.0821 75.3903L107.003 68.466V68.3154L95.0695 75.2524Z" fill="#F3F0F0"/>
<g style="mix-blend-mode:multiply">
<path d="M78.6632 52.7101L79.5927 52.1707V52.3965L78.6632 52.9359V52.7101ZM77.407 55.219L75.9499 56.0594V56.2852L77.6708 55.2817L78.2738 54.943V54.7172L77.407 55.219ZM78.6632 53.814V53.6008L77.9346 54.0147L77.4573 54.2907V54.5165L78.0728 54.1903L78.6632 53.814ZM77.1181 54.4914L75.9248 55.1813V55.3946L77.1181 54.7172V54.4914ZM77.7336 53.4753L78.2361 53.1868V52.9359L77.3693 53.4377L75.9248 54.2656V54.4914L77.7336 53.4502V53.4753ZM76.3142 53.4753L77.495 52.7979V52.5721L76.3142 53.2495L75.9373 53.4628V53.6886L76.3142 53.4753ZM78.6632 52.1205L79.04 51.8947V51.6815L78.5501 51.97L77.8341 52.3714V52.5972L78.6632 52.1205ZM79.5174 54.0523L78.5878 54.5918V54.805L79.5174 54.2782V54.0523ZM77.6959 58.2923L75.9248 59.3084V59.5342L77.6959 58.5055V58.2923ZM75.9373 60.1865V60.3997L76.3016 60.199L77.7839 59.346V59.1202L76.5277 59.8478L75.9373 60.1865ZM79.5174 55.4698L78.2612 56.2099L77.407 56.7117V56.925L78.2612 56.4357L79.5174 55.6956V55.4698ZM79.3289 58.2296L79.0149 58.4052L78.123 58.9195V59.1453L78.839 58.7313L79.3289 58.4428V58.2296ZM76.9799 57.8156L75.9248 58.4303V58.6435L76.9799 58.0414L78.1607 57.364V57.1382L76.9799 57.8156ZM78.4999 56.9375V57.1633L79.128 56.7995V56.5863L78.4999 56.9375ZM78.0351 58.3174L79.1531 57.6651V57.4518L78.0728 57.9536L78.0351 58.3174ZM75.9248 57.7654L77.0427 57.1257V56.8999L75.9248 57.5396V57.7654ZM79.1656 60.5252L78.0477 61.1775V61.3907L79.1656 60.7509V60.5252ZM78.9521 62.6326L79.5676 62.2813V62.0555L78.9521 62.4193V62.6326ZM77.3065 63.5859L78.5627 62.8584V62.6451L77.3065 63.3601V63.5859ZM79.3038 61.328L78.1984 61.9677V62.181L79.3038 61.5538V61.328ZM75.9373 61.7294L76.4021 61.4534L77.7839 60.6631V60.4373L76.5277 61.1649L75.9499 61.5036L75.9373 61.7294ZM77.8592 62.1559L76.4398 62.9838L75.9373 63.2723V63.4981L76.6156 63.0967L77.8718 62.3817L77.8592 62.1559ZM75.9373 62.6075L76.7664 62.1308L77.7085 61.5914V61.3656L76.3518 62.1433L75.9373 62.3817V62.6075ZM75.9373 64.3762L76.9674 63.7741V63.5483L75.9373 64.1504V64.3762ZM79.3289 59.5467L78.927 59.7851H78.839L78.123 60.199V60.4123L78.839 60.0108H78.927L79.3289 59.7725V59.5467ZM78.5501 63.8243L77.8341 64.2257V64.4515L78.6632 63.9748L79.04 63.749V63.5358L78.5501 63.8243ZM77.495 64.4264L76.3142 65.1038L75.9373 65.317V65.4801L76.3142 65.2669L77.495 64.5895V64.4264ZM77.0302 65.5805L75.9248 66.2077V66.4335L77.0302 65.7937V65.5805ZM78.5752 64.6898L77.3191 65.3798V65.4801L78.5752 64.7274L79.4169 64.2382V64.025L78.4873 64.5644L78.5752 64.6898ZM77.3191 67.3617L78.4371 66.722V66.4962L77.3191 67.136V67.3617ZM75.8619 68.2022L76.9799 67.5624V67.3366L75.8619 67.9764V68.2022ZM78.1105 65.8062L77.3944 66.2077V66.4335L78.1105 66.0195L78.6004 65.731V65.5177L78.1105 65.8062ZM75.8619 67.3241L77.0553 66.6342V66.4084L75.8619 67.0983V67.3241ZM82.2181 52.4592L81.3513 52.961V53.1743L82.2181 52.6725V52.4592ZM82.2181 49.8124L81.6905 50.1135V50.3393L82.2181 50.0382V49.8124ZM81.3513 50.3142L80.8991 50.5776V50.8034L81.3513 50.54V50.3142ZM82.2307 50.6905L81.3639 51.1923V51.4055L82.2307 50.9163V50.6905ZM80.9745 52.3212L80.6102 52.5345V52.7478L80.9745 52.5345V52.3212ZM81.3137 52.3212L82.2684 51.7693V51.5435L81.3137 52.0955V52.3212ZM82.2558 56.511L81.4393 56.9751V57.2009L82.2558 56.7368V56.511ZM82.2558 55.6204L80.7233 56.4985V56.6992L82.2558 55.8211V55.6204ZM81.0876 57.1759L80.6354 57.4267V57.6525L81.0876 57.4016V57.1759ZM81.0876 55.658L82.3437 54.9555V54.7423L81.0876 55.4322V55.658ZM81.4268 54.5792L82.2935 54.0774V53.8516L81.4268 54.3534V54.5792ZM80.673 58.9822L81.1252 58.7188V58.493L80.673 58.7564V58.9822ZM81.4644 58.5181L82.2809 58.0539V57.8281L81.4644 58.2923V58.5181ZM81.3765 60.337L82.2809 59.8101V59.5969L81.3765 60.1112V60.337ZM81.2258 59.5467L82.2809 58.932V58.7063L81.2258 59.3209V59.5467ZM80.8866 59.5467L80.4469 59.7851V60.0108L80.8866 59.76V59.5467ZM82.2809 60.5001L81.0248 61.2276V61.4409L82.2809 60.7259V60.5001ZM81.0248 60.337L80.5851 60.5879V60.8137L81.0248 60.5628V60.337ZM81.3262 64.2006L82.2809 63.6486V63.4229L81.3262 63.9748V64.2006ZM80.6228 64.602L80.9871 64.4013V64.1755L80.6228 64.3888V64.602ZM80.9494 62.6577L81.4016 62.3942V62.1684L80.9494 62.4319V62.6577ZM82.2809 62.5448L81.4142 63.0465V63.2723L82.2809 62.7706V62.5448ZM82.2809 61.8925V61.6792L81.7533 61.9803V62.1935L82.2809 61.8925ZM81.4268 65.0411L82.2935 64.5393V64.2257L81.4268 64.7274V65.0411ZM83.6501 51.6815L83.2733 51.8947V52.1205L83.6501 51.8947V51.6815ZM83.6501 49.0347L83.1225 49.3357V49.5615L83.6501 49.2605V49.0347ZM83.6501 49.9128L83.2858 50.126V50.3518L83.6501 50.1386V49.9128ZM83.2105 51.0543V51.2801L83.6627 51.0167V50.7908L83.2105 51.0543ZM83.6376 55.7584L83.3235 55.934V56.1598L83.6376 55.9841V55.7584ZM83.6376 54.8677L83.1728 55.1311V55.3569L83.6376 55.0935V54.8677ZM83.4366 54.3283L83.6376 54.2029V53.9896L83.4366 54.1025V54.3283ZM83.2733 53.538L83.6501 53.3248V52.9359L83.2733 53.1492V53.538ZM83.2733 57.4769L83.5874 57.3013V57.0755L83.2733 57.2511V57.4769ZM83.1854 59.2958L83.5999 59.0575V58.8442L83.1854 59.07V59.2958ZM83.0346 58.5055L83.5999 58.1794V57.9536L83.0346 58.2797V58.5055ZM83.5999 59.76L83.3361 59.9105V60.1363L83.5999 59.9732V59.76ZM83.1602 63.172L83.6125 62.9085V62.6828L83.1602 62.9462V63.172ZM83.5999 61.8047L83.2356 62.0179V62.2437L83.5999 62.0305V61.8047ZM83.5999 61.1524V60.9266L83.0723 61.2276V61.4534L83.5999 61.1524ZM83.2356 64.0124L83.6125 63.7992V63.5734L83.2356 63.7866V64.0124ZM74.6058 57.1257L74.9952 56.8999V56.6741L74.6058 56.8999V57.1257ZM74.6058 54.4914L74.8444 54.3534V54.1276L74.6058 54.2656V54.4914ZM74.6058 55.3695L75.0077 55.1311V54.9054L74.6058 55.1437V55.3695ZM74.6058 56.0218V56.235L74.9198 56.072V55.8462L74.6058 56.0218ZM74.6058 61.2025L75.058 60.9517V60.7259L74.6058 60.9767V61.2025ZM74.6058 60.3119L74.8947 60.1488V59.923L74.6058 60.0861V60.3119ZM75.1585 58.8944L74.6058 59.208V59.4338L75.1585 59.1077V58.8944ZM74.9952 58.1041L74.6058 58.3299V58.5432L74.9952 58.3299V58.1041ZM74.9952 62.043L74.543 62.3064V62.5197L74.9952 62.2688V62.043ZM74.8947 63.8619L74.543 64.0626V64.2884L74.8947 64.0877V63.8619ZM74.744 63.0716L74.543 63.1845V63.4103L74.744 63.2974V63.0716ZM74.5555 65.1665L75.0454 64.878V64.6522L74.5555 64.9407V65.1665ZM74.8696 67.6753L74.5555 67.851V67.9889L74.8696 67.8133V67.6753ZM74.5555 67.1987L74.9575 66.9603V66.7471L74.5555 66.9729V67.1987ZM74.7816 66.1826V65.9568L74.543 66.0948V66.3206L74.7816 66.1826ZM74.9449 68.5158L74.5555 68.729V68.9549L74.9449 68.729V68.5158Z" fill="#CFCAD4"/>
</g>
<path d="M90.131 66.7349L90.9978 66.2332L91.2113 66.3461L90.332 66.8478L90.131 66.7349ZM90.6586 68.328L89.302 69.1183L89.5155 69.2438L91.1234 68.3155L91.6761 67.9893L91.4751 67.8639L90.6586 68.328ZM91.249 67.2869L91.0355 67.1614L90.3571 67.5503L89.9049 67.8137L90.1185 67.9392L90.5707 67.6757L91.249 67.2869ZM89.5909 68.0019L88.4729 68.6417L88.6739 68.7671L89.7918 68.1148L89.5909 68.0019ZM89.5909 67.312L90.0557 67.036L89.8421 66.9231L89.0382 67.3872L87.6941 68.165L87.8951 68.2779L89.5909 67.312ZM87.4303 67.6005L88.5357 66.9607L88.3222 66.8353L87.2293 67.475L86.865 67.6757L87.0786 67.8012L87.4303 67.6005ZM89.6286 66.3461L89.9803 66.1328L89.7793 66.0199L89.3145 66.2833L88.6488 66.6722L88.8497 66.7851L89.6286 66.3461ZM92.7061 67.1865L91.8269 67.7008L92.0404 67.8137L92.9071 67.312L92.7061 67.1865ZM93.9623 69.8961L92.3042 70.8494L92.5177 70.9749L94.1759 70.0215L93.9623 69.8961ZM93.1458 71.3261L93.3594 71.439L93.6859 71.2508L95.0803 70.448L94.8667 70.3226L93.6859 71.0125L93.1458 71.3261ZM94.0126 67.9643L92.7564 68.6542L91.965 69.1183L92.166 69.2312L92.9699 68.7796L94.2261 68.0772L94.0126 67.9643ZM96.3239 69.4946L96.0224 69.6703L95.1934 70.1469L95.3943 70.2598L96.0601 69.8835L96.5249 69.6075L96.3239 69.4946ZM92.4675 69.8083L91.4751 70.3727L91.6887 70.4982L92.681 69.9211L93.7739 69.2939L93.5729 69.1685L92.4675 69.8083ZM93.8869 68.9803L94.1005 69.1058L94.6783 68.7671L94.4773 68.6542L93.8869 68.9803ZM94.4899 69.8333L95.5325 69.2312L95.3315 69.1058L94.2763 69.7079L94.4899 69.8333ZM90.8596 70.0215L91.9022 69.4194L91.6887 69.3065L90.6461 69.8961L90.8596 70.0215ZM94.6281 72.154L95.0677 71.9031L96.3239 71.163L96.1103 71.0376L94.9296 71.7275L94.3894 72.0411L94.6281 72.154ZM97.5926 70.2097L97.2158 70.4229H97.1279L96.4621 70.8118L96.6756 70.9247L97.3414 70.5484H97.4293L97.8062 70.3226L97.5926 70.2097ZM95.3064 65.6938L94.4899 66.1704L94.6909 66.2959L95.5074 65.8192L95.3064 65.6938ZM92.7941 64.2763L92.3042 64.5522L92.5177 64.6777L93.0077 64.4017L92.7941 64.2763ZM91.9901 64.7404L91.563 64.9913L91.7766 65.1042L92.1911 64.8658L91.9901 64.7404ZM93.6357 64.7404L92.8318 65.2045L93.0328 65.3174L93.8367 64.8533L93.6357 64.7404ZM93.2589 65.907L92.9071 66.1077L93.1207 66.2206L93.4598 66.0325L93.2589 65.907ZM93.7865 65.8443L94.6783 65.33L94.4648 65.2045L93.5729 65.7189L93.7865 65.8443ZM99.0875 67.9015L98.3338 68.328L98.5473 68.4535L99.301 68.0144L99.0875 67.9015ZM98.2835 67.4123L96.8515 68.2402L97.0524 68.3531L98.4845 67.5378L98.2835 67.4123ZM98.0197 68.5162L97.5926 68.7545L97.8062 68.88L98.2207 68.6417L98.0197 68.5162ZM96.5375 67.7008L97.6554 67.0611L97.4544 66.9356L96.3239 67.5879L96.5375 67.7008ZM96.0224 67.0485L96.8389 66.5719L96.6254 66.459L95.8089 66.9231L96.0224 67.0485ZM99.0372 69.5574L99.4643 69.319L99.2507 69.1936L98.8362 69.4319L99.0372 69.5574ZM99.7783 69.1309L100.545 68.6918L100.331 68.5664L99.5773 69.0054L99.7783 69.1309ZM96.55 64.916L96.2108 65.1167L96.4118 65.2422L96.7636 65.0415L96.55 64.916ZM94.0377 63.4985L93.5478 63.7745L93.7613 63.9L94.2512 63.6114L94.0377 63.4985ZM94.8667 63.9752L94.5276 64.1634L94.7411 64.2888L95.0803 64.0881L94.8667 63.9752ZM95.2813 64.6902L95.4822 64.8031L95.9094 64.5648L95.7084 64.4393L95.2813 64.6902ZM100.306 67.1238L100.017 67.2994L100.218 67.4123L100.519 67.2492L100.306 67.1238ZM99.4894 66.6471L99.0623 66.898L99.2633 67.0109L99.703 66.76L99.4894 66.6471ZM98.6855 66.3962L98.8739 66.2833L98.6604 66.1704L98.4719 66.2833L98.6855 66.3962ZM97.6931 66.0074L98.0448 65.8067L97.8438 65.6938L97.4921 65.8945L97.6931 66.0074ZM101.462 68.1273L101.751 67.9643L101.55 67.8388L101.248 68.0144L101.462 68.1273ZM88.2845 69.8961L88.6488 69.6954L88.4352 69.5699L88.0835 69.7832L88.2845 69.8961ZM85.7722 68.4786L85.9857 68.3531L85.7847 68.2277L85.5586 68.3531L85.7722 68.4786ZM86.6012 68.9427L86.9781 68.7295L86.7645 68.6166L86.4002 68.8298L86.6012 68.9427ZM87.2293 69.2939L87.4428 69.4194L87.7192 69.2563L87.5182 69.1309L87.2293 69.2939ZM92.0655 72.1038L92.48 71.8655L92.2791 71.7401L91.852 71.9909L92.0655 72.1038ZM91.249 71.6272L91.5254 71.4641L91.3118 71.3386L91.048 71.5017L91.249 71.6272ZM90.734 70.724L90.219 71.025L90.4199 71.1505L90.935 70.8494L90.734 70.724ZM89.7542 70.3351L89.3899 70.5484L89.6034 70.6738L89.9552 70.4606L89.7542 70.3351ZM93.5226 72.4551L93.1081 72.7059L93.3217 72.8189L93.7362 72.5805L93.5226 72.4551Z" fill="#CFCAD4"/>
<path opacity="0.8" d="M80.3186 29.4161L62.3555 39.7651V36.1398L80.3186 25.7783V29.4161Z" fill="#95ACF4"/>
<path d="M63.2617 36.654L79.416 27.3462V28.9017L63.2617 38.2094V36.654Z" fill="#291B2A"/>
<path d="M62.2673 35.6129C62.2844 35.755 62.3387 35.8901 62.4247 36.0046C62.5107 36.1191 62.6254 36.209 62.7572 36.2652L83.8859 48.4707C84.1987 48.6445 84.5478 48.743 84.9055 48.7582C85.2632 48.7735 85.6194 48.7051 85.946 48.5585L98.5955 41.2829C98.7053 41.2365 98.798 41.1574 98.861 41.0563C98.924 40.9553 98.9541 40.8372 98.9473 40.7184C98.9473 40.6055 98.9473 40.4926 98.9473 40.3546C98.9172 40.2235 98.8575 40.101 98.7725 39.9966C98.6876 39.8922 98.5798 39.8087 98.4574 39.7525L77.3287 27.547C77.0169 27.3703 76.6674 27.2703 76.3092 27.255C75.951 27.2397 75.5943 27.3097 75.2686 27.4592L62.619 34.7349C62.5233 34.7776 62.4398 34.8436 62.3761 34.9269C62.3125 35.0102 62.2708 35.108 62.2547 35.2115C62.2296 35.3746 62.2673 35.4875 62.2673 35.6129Z" fill="#E0DBE1"/>
<path d="M77.3023 27.547L98.4309 39.7525C99.0338 40.1038 99.0967 40.6306 98.5691 40.9317L85.9195 48.2073C85.5938 48.3568 85.2371 48.4268 84.8789 48.4115C84.5207 48.3963 84.1712 48.2962 83.8594 48.1195L62.7308 35.914C62.1278 35.5628 62.065 35.0359 62.5926 34.7349L75.2421 27.4592C75.5679 27.3097 75.9246 27.2397 76.2828 27.255C76.641 27.2703 76.9904 27.3703 77.3023 27.547Z" fill="url(#paint8_linear)"/>
<path d="M96.183 39.9905C96.3714 40.1034 96.4845 40.2288 96.497 40.3668C96.4987 40.4412 96.4796 40.5147 96.4419 40.5789C96.4042 40.6432 96.3493 40.6957 96.2835 40.7306L95.4418 41.2072C95.2465 41.3035 95.0316 41.3535 94.8137 41.3535C94.5959 41.3535 94.381 41.3035 94.1856 41.2072L91.1458 39.4511C91.0697 39.416 91.0029 39.3637 90.9506 39.2984C90.8983 39.2331 90.8619 39.1565 90.8443 39.0747C90.8403 39.0015 90.8585 38.9288 90.8966 38.8661C90.9347 38.8035 90.9909 38.7537 91.0578 38.7235L91.8995 38.2343C92.094 38.1352 92.3092 38.0835 92.5275 38.0835C92.7459 38.0835 92.9611 38.1352 93.1556 38.2343L96.183 39.9905Z" fill="#F8F5F4"/>
<path d="M70.8944 35.8268C70.9703 35.8655 71.0366 35.9204 71.0887 35.9876C71.1408 36.0548 71.1774 36.1327 71.1959 36.2157C71.2017 36.2892 71.1843 36.3627 71.1459 36.4258C71.1076 36.4888 71.0504 36.5382 70.9823 36.5669L69.3744 37.4952C69.175 37.5848 68.9572 37.6257 68.7388 37.6148C68.5204 37.6039 68.3078 37.5414 68.1183 37.4325L64.8146 35.5258C64.7356 35.4931 64.6658 35.4418 64.6111 35.3763C64.5564 35.3107 64.5185 35.2329 64.5005 35.1495C64.4965 35.0762 64.5148 35.0035 64.5529 34.9408C64.591 34.8782 64.6472 34.8284 64.7141 34.7982L66.322 33.8699C66.5173 33.7737 66.7322 33.7236 66.9501 33.7236C67.1679 33.7236 67.3828 33.7737 67.5781 33.8699L70.8944 35.8268Z" fill="#8A31C9"/>
<path d="M64.9158 35.5625L68.2195 37.4692C68.3831 37.5518 68.5638 37.5949 68.7471 37.5949C68.9304 37.5949 69.1112 37.5518 69.2747 37.4692L70.8826 36.5535C71.1464 36.3904 71.1213 36.1269 70.8072 35.9388L67.5035 34.1199C67.34 34.0372 67.1593 33.9941 66.976 33.9941C66.7927 33.9941 66.6119 34.0372 66.4484 34.1199L64.8405 35.0356C64.5767 35.1109 64.6144 35.3743 64.9158 35.5625Z" fill="#FFC440"/>
<g opacity="0.6">
<path opacity="0.6" d="M67.3919 34.02H67.2662L64.7539 35.4751C64.7616 35.4901 64.7723 35.5034 64.7852 35.5142C64.7982 35.5249 64.8131 35.533 64.8293 35.5379L65.4448 35.1866L66.5 35.7887C66.2739 35.9769 66.3367 36.2529 66.6758 36.4536C66.8497 36.5467 67.0406 36.6036 67.2371 36.6209C67.4336 36.6381 67.6315 36.6153 67.819 36.5539L68.9244 37.1811L68.2837 37.5449H68.4094L70.9217 36.0898L70.8337 36.0145L70.1429 36.416L69.05 35.7887C69.2887 35.6006 69.2259 35.3121 68.8867 35.1114C68.7104 35.0125 68.5149 34.9524 68.3134 34.9351C68.112 34.9178 67.9091 34.9437 67.7185 35.011L66.6758 34.4089L67.3919 34.02ZM67.932 36.4536L68.9998 35.8389L70.0801 36.4661L68.9998 37.0808L67.9195 36.4536H67.932ZM66.7638 36.3532C66.4874 36.1902 66.4246 35.9518 66.5879 35.7887L67.7185 36.441C67.4011 36.539 67.0579 36.5074 66.7638 36.3532ZM68.8239 35.1615C69.1128 35.3246 69.1631 35.5629 68.9746 35.726L67.8441 35.0737C68.0049 35.0218 68.1746 35.0028 68.343 35.0179C68.5113 35.033 68.6749 35.0818 68.8239 35.1615ZM67.7436 35.1615L68.8993 35.8264L67.8315 36.4285L66.6633 35.7762L67.7436 35.1615ZM67.6431 35.0988L66.5879 35.7135L65.5327 35.1239L66.613 34.4967L67.6431 35.0988Z" fill="#D88C1D"/>
</g>
<path d="M82.9175 45.6104C83.6528 45.6104 84.249 45.2679 84.249 44.8453C84.249 44.4227 83.6528 44.0801 82.9175 44.0801C82.1821 44.0801 81.5859 44.4227 81.5859 44.8453C81.5859 45.2679 82.1821 45.6104 82.9175 45.6104Z" fill="#9B2C2C"/>
<path d="M85.0776 46.8648C85.813 46.8648 86.4091 46.5223 86.4091 46.0997C86.4091 45.6771 85.813 45.3345 85.0776 45.3345C84.3422 45.3345 83.7461 45.6771 83.7461 46.0997C83.7461 46.5223 84.3422 46.8648 85.0776 46.8648Z" fill="#FFC440"/>
<path d="M91.0689 42.7755C90.9658 42.7736 90.8646 42.8044 90.78 42.8633L90.0639 43.2647C89.976 43.2647 89.9258 43.3776 89.9258 43.4403C89.9258 43.503 89.9258 43.5532 90.0639 43.6034L90.2649 43.7289C90.3581 43.7773 90.4614 43.8031 90.5665 43.8041C90.6718 43.8058 90.7757 43.7798 90.8679 43.7289L91.5714 43.3149C91.6719 43.3149 91.7095 43.202 91.7095 43.1393C91.7095 43.0765 91.7096 43.0264 91.5714 42.9762L91.3704 42.8508C91.2782 42.7998 91.1743 42.7738 91.0689 42.7755ZM90.9182 42.9511C90.9682 42.9171 91.0273 42.8989 91.0877 42.8989C91.1482 42.8989 91.2073 42.9171 91.2573 42.9511L91.4332 43.0514C91.5337 43.0514 91.5337 43.1769 91.4332 43.2522L90.7423 43.6536C90.6888 43.6844 90.6282 43.7006 90.5665 43.7006C90.5047 43.7006 90.444 43.6844 90.3906 43.6536L90.2273 43.5532C90.1142 43.5532 90.1142 43.4278 90.2273 43.3525L90.9182 42.9511Z" fill="#FFD85A"/>
<path d="M90.0416 42.186C89.9365 42.187 89.8332 42.2128 89.7401 42.2613L89.0366 42.6627C88.9487 42.7255 88.8984 42.7756 88.8984 42.8384C88.8984 42.9011 88.8985 42.9638 89.0366 43.014L89.2376 43.1269C89.3286 43.1822 89.4326 43.2125 89.5391 43.2147C89.645 43.2089 89.7482 43.1789 89.8406 43.1269L90.544 42.7255C90.632 42.6627 90.6822 42.6126 90.6822 42.5498C90.6822 42.4871 90.6822 42.4244 90.544 42.3742L90.343 42.2613C90.2504 42.2114 90.1468 42.1855 90.0416 42.186ZM89.8783 42.3491C89.9308 42.3156 89.9918 42.2978 90.0541 42.2978C90.1165 42.2978 90.1775 42.3156 90.23 42.3491L90.3933 42.4369C90.5064 42.5122 90.5064 42.5749 90.3933 42.6376L89.6898 43.0391C89.6398 43.073 89.5807 43.0912 89.5202 43.0912C89.4598 43.0912 89.4007 43.073 89.3507 43.0391L89.1874 42.9512C89.0743 42.876 89.0743 42.8133 89.1874 42.7506L89.8783 42.3491Z" fill="#FFD85A"/>
<path d="M89.0083 41.647C88.903 41.6454 88.799 41.6713 88.7068 41.7223L88.0034 42.1363C87.9029 42.1363 87.8526 42.2492 87.8652 42.3119C87.8777 42.3746 87.8652 42.4248 88.0034 42.475L88.2044 42.6004C88.2924 42.6503 88.392 42.6763 88.4933 42.6757C88.5986 42.6773 88.7026 42.6514 88.7948 42.6004L89.4982 42.1864C89.5987 42.1864 89.649 42.0735 89.649 42.0108C89.649 41.9481 89.649 41.8979 89.5108 41.8478L89.2972 41.7223C89.2092 41.6724 89.1096 41.6464 89.0083 41.647ZM88.845 41.8101C88.8985 41.7793 88.9591 41.7631 89.0209 41.7631C89.0826 41.7631 89.1433 41.7793 89.1967 41.8101L89.36 41.9105C89.4731 41.9732 89.4731 42.0359 89.36 42.1112L88.6692 42.5C88.6191 42.534 88.56 42.5522 88.4996 42.5522C88.4391 42.5522 88.38 42.534 88.33 42.5L88.1541 42.3997C88.0411 42.337 88.0411 42.2743 88.1541 42.199L88.845 41.8101Z" fill="#FFD85A"/>
<path d="M87.9673 40.9819C87.8614 40.9877 87.7583 41.0177 87.6659 41.0697L86.9624 41.4712C86.8744 41.4712 86.8242 41.5841 86.8242 41.6468C86.8242 41.7095 86.8242 41.7722 86.9624 41.8224L87.1634 41.9353C87.2562 41.9847 87.3597 42.0106 87.4649 42.0106C87.57 42.0106 87.6736 41.9847 87.7663 41.9353L88.4698 41.5339C88.5577 41.5339 88.608 41.421 88.608 41.3583C88.608 41.2955 88.608 41.2328 88.4698 41.1826L88.2688 41.0697C88.1778 41.0144 88.0738 40.9841 87.9673 40.9819ZM87.8166 41.1576C87.8659 41.1218 87.9252 41.1026 87.9862 41.1026C88.0471 41.1026 88.1064 41.1218 88.1557 41.1576L88.3191 41.2454C88.4321 41.2454 88.4321 41.3833 88.3191 41.4461L87.6281 41.8475C87.5747 41.8783 87.514 41.8945 87.4523 41.8945C87.3906 41.8945 87.3299 41.8783 87.2764 41.8475L87.1131 41.7597C87.0001 41.6844 87.0001 41.6217 87.1131 41.559L87.8166 41.1576Z" fill="#FFD85A"/>
<path d="M85.4536 39.5386C85.3482 39.537 85.2443 39.5629 85.1521 39.6139L84.4487 40.0153C84.3482 40.078 84.2979 40.1282 84.3105 40.1909C84.3231 40.2537 84.3105 40.3164 84.4487 40.3666L84.6496 40.4795C84.7369 40.5327 84.8364 40.563 84.9386 40.5673C85.0459 40.5709 85.1515 40.5402 85.24 40.4795L85.9435 40.078C86.044 40.078 86.0943 39.9651 86.0943 39.9024C86.0943 39.8397 86.0942 39.7895 85.9561 39.7268L85.7425 39.6139C85.6545 39.564 85.5548 39.538 85.4536 39.5386ZM85.2903 39.7017C85.3438 39.6709 85.4044 39.6547 85.4662 39.6547C85.5279 39.6547 85.5885 39.6709 85.642 39.7017L85.8053 39.7895C85.9184 39.8648 85.9184 39.9275 85.8053 39.9902L85.1144 40.3917C85.0644 40.4256 85.0053 40.4438 84.9449 40.4438C84.8844 40.4438 84.8253 40.4256 84.7753 40.3917L84.5994 40.3038C84.4864 40.2411 84.4989 40.1659 84.5994 40.1031L85.2903 39.7017Z" fill="#FFD85A"/>
<path d="M84.4126 38.9371C84.3076 38.9381 84.2043 38.9639 84.1112 39.0123L83.4077 39.4263C83.3198 39.4263 83.2695 39.5392 83.2695 39.6019C83.2695 39.6646 83.2695 39.7148 83.4077 39.765L83.6087 39.8905C83.7018 39.9389 83.8051 39.9647 83.9102 39.9657C84.0155 39.9674 84.1195 39.9414 84.2117 39.8905L84.9151 39.4765C85.0156 39.4765 85.0533 39.3636 85.0533 39.3009C85.0533 39.2382 85.0533 39.188 84.9151 39.1378L84.7141 39.0123C84.622 38.9614 84.518 38.9354 84.4126 38.9371ZM84.2619 39.1127C84.3119 39.0787 84.371 39.0606 84.4315 39.0606C84.492 39.0606 84.5511 39.0787 84.6011 39.1127L84.7644 39.2131C84.8774 39.2131 84.8774 39.3385 84.7644 39.4138L84.0735 39.8152C84.02 39.846 83.9594 39.8622 83.8976 39.8622C83.8359 39.8622 83.7752 39.846 83.7217 39.8152L83.5584 39.7148C83.4454 39.7148 83.4454 39.5894 83.5584 39.5141L84.2619 39.1127Z" fill="#FFD85A"/>
<path d="M83.3814 38.3477C83.2762 38.3471 83.1725 38.373 83.0799 38.4229L82.3764 38.8243C82.2759 38.8871 82.2383 38.9372 82.2383 39C82.2383 39.0627 82.2383 39.1254 82.3764 39.1756L82.5774 39.2885C82.6684 39.3438 82.7724 39.3741 82.8789 39.3763C82.9848 39.3705 83.088 39.3405 83.1804 39.2885L83.8839 38.8871C83.9718 38.8243 84.022 38.7742 84.022 38.7115C84.022 38.6487 84.022 38.586 83.8839 38.5358L83.6829 38.4229C83.5897 38.3744 83.4864 38.3487 83.3814 38.3477ZM83.2181 38.5107C83.2706 38.4772 83.3316 38.4594 83.3939 38.4594C83.4563 38.4594 83.5173 38.4772 83.5698 38.5107L83.7331 38.5986C83.8462 38.6613 83.8462 38.7365 83.7331 38.7993L83.0422 39.2007C82.9911 39.2317 82.9325 39.2481 82.8727 39.2481C82.8128 39.2481 82.7542 39.2317 82.7031 39.2007L82.5397 39.1129C82.4267 39.0376 82.4267 38.9749 82.5397 38.9122L83.2181 38.5107Z" fill="#FFD85A"/>
<path d="M82.351 37.7452C82.2456 37.7435 82.1417 37.7695 82.0495 37.8205L81.346 38.2344C81.2456 38.2344 81.1953 38.3473 81.1953 38.41C81.207 38.4465 81.2266 38.48 81.2527 38.5082C81.2787 38.5364 81.3106 38.5585 81.346 38.5731L81.547 38.6985C81.6351 38.7485 81.7347 38.7744 81.836 38.7738C81.9433 38.7774 82.0489 38.7467 82.1374 38.686L82.8409 38.2846C82.9414 38.2846 82.9791 38.1717 82.9791 38.109C82.9791 38.0462 82.9791 37.9961 82.8535 37.9459L82.6399 37.8205C82.5519 37.7705 82.4522 37.7446 82.351 37.7452ZM82.1877 37.9083C82.2388 37.8773 82.2975 37.8609 82.3573 37.8609C82.4171 37.8609 82.4757 37.8773 82.5268 37.9083L82.7027 38.0086C82.8158 38.0713 82.8032 38.134 82.7027 38.2093L82.0118 38.5982C81.9618 38.6322 81.9027 38.6503 81.8423 38.6503C81.7818 38.6503 81.7227 38.6322 81.6727 38.5982L81.4968 38.4978C81.3838 38.4351 81.3838 38.3724 81.4968 38.2971L82.1877 37.9083Z" fill="#FFD85A"/>
<path d="M79.8267 36.2901C79.7198 36.2897 79.6151 36.3202 79.5252 36.3779L78.8218 36.7793C78.7339 36.7793 78.6836 36.8922 78.6836 36.955C78.6836 37.0177 78.6836 37.0679 78.8218 37.118L79.0228 37.2435C79.115 37.2944 79.2189 37.3204 79.3242 37.3187C79.4293 37.3178 79.5326 37.292 79.6257 37.2435L80.3291 36.8295C80.4171 36.8295 80.4673 36.7166 80.4673 36.6665C80.4673 36.6163 80.4673 36.541 80.3291 36.4908L80.1282 36.3779C80.0389 36.3188 79.9338 36.2882 79.8267 36.2901ZM79.6634 36.4657C79.7159 36.4322 79.7769 36.4144 79.8393 36.4144C79.9016 36.4144 79.9626 36.4322 80.0151 36.4657L80.1784 36.5661C80.2915 36.6288 80.2915 36.6915 80.1784 36.7668L79.4875 37.1682C79.4364 37.1992 79.3778 37.2156 79.318 37.2156C79.2581 37.2156 79.1995 37.1992 79.1484 37.1682L78.9851 37.0679C78.872 37.0051 78.872 36.9424 78.9851 36.8672L79.6634 36.4657Z" fill="#FFD85A"/>
<path d="M78.7963 35.7008C78.6909 35.6991 78.587 35.7251 78.4948 35.776L77.7914 36.1774C77.6909 36.2402 77.6406 36.2903 77.6406 36.3531C77.6498 36.3923 77.6683 36.4287 77.6945 36.4593C77.7208 36.4898 77.754 36.5136 77.7914 36.5287L77.9924 36.6416C78.0796 36.6949 78.1791 36.7251 78.2813 36.7294C78.3878 36.7272 78.4918 36.6969 78.5828 36.6416L79.2862 36.2402C79.3867 36.1775 79.437 36.1273 79.437 36.0646C79.437 36.0018 79.437 35.9391 79.2988 35.8889L79.0852 35.776C78.9972 35.7261 78.8975 35.7001 78.7963 35.7008ZM78.633 35.8638C78.6865 35.833 78.7471 35.8168 78.8089 35.8168C78.8706 35.8168 78.9313 35.833 78.9848 35.8638L79.148 35.9517C79.2611 36.0269 79.2485 36.0896 79.148 36.1524L78.4571 36.5538C78.4071 36.5878 78.348 36.6059 78.2875 36.6059C78.2271 36.6059 78.168 36.5878 78.118 36.5538L77.9421 36.466C77.829 36.4032 77.829 36.328 77.9421 36.2653L78.633 35.8638Z" fill="#FFD85A"/>
<path d="M77.7564 35.0992C77.6514 35.1002 77.5481 35.126 77.4549 35.1745L76.7515 35.5884C76.6635 35.5884 76.6133 35.7013 76.6133 35.764C76.6133 35.8268 76.6133 35.8769 76.7515 35.9271L76.9524 36.0526C77.0452 36.102 77.1488 36.1278 77.2539 36.1278C77.3591 36.1278 77.4626 36.102 77.5554 36.0526L78.2589 35.6386C78.3468 35.6386 78.397 35.5257 78.397 35.463C78.397 35.4003 78.397 35.3501 78.2589 35.2999L78.0579 35.1745C77.9657 35.1235 77.8617 35.0975 77.7564 35.0992ZM77.6057 35.2623C77.6568 35.2313 77.7154 35.2149 77.7753 35.2149C77.8351 35.2149 77.8937 35.2313 77.9448 35.2623L78.1081 35.3626C78.2212 35.3626 78.2212 35.4881 78.1081 35.5633L77.4172 35.9522C77.3647 35.9857 77.3037 36.0035 77.2414 36.0035C77.179 36.0035 77.118 35.9857 77.0655 35.9522L76.9022 35.8519C76.7892 35.8519 76.7892 35.7264 76.9022 35.6511L77.6057 35.2623Z" fill="#FFD85A"/>
<path d="M76.7251 34.4966C76.6186 34.4987 76.5146 34.529 76.4237 34.5844L75.7202 34.9858C75.6197 35.0485 75.582 35.0987 75.582 35.1614C75.582 35.2242 75.5821 35.2869 75.7202 35.3371L75.9212 35.4499C76.0134 35.5009 76.1173 35.5269 76.2227 35.5252C76.3284 35.5302 76.4332 35.504 76.5241 35.4499L77.2276 35.0485C77.3155 34.9858 77.3658 34.9356 77.3658 34.8729C77.3658 34.8102 77.3657 34.7475 77.2276 34.6973L77.0266 34.5844C76.9342 34.5324 76.831 34.5024 76.7251 34.4966ZM76.5618 34.6722C76.6143 34.6387 76.6754 34.6209 76.7377 34.6209C76.8 34.6209 76.861 34.6387 76.9135 34.6722L77.0768 34.76C77.1899 34.8227 77.1899 34.898 77.0768 34.9607L76.386 35.3621C76.3349 35.3932 76.2762 35.4096 76.2164 35.4096C76.1566 35.4096 76.0979 35.3932 76.0468 35.3621L75.8835 35.2743C75.7705 35.1991 75.7705 35.1363 75.8835 35.0736L76.5618 34.6722Z" fill="#FFD85A"/>
<path d="M74.1978 33.0533C74.0928 33.0543 73.9894 33.0801 73.8963 33.1286L73.1928 33.53C73.1049 33.5927 73.0547 33.6429 73.0547 33.7056C73.0547 33.7683 73.0547 33.831 73.1928 33.8812L73.3938 33.9941C73.4841 34.0509 73.5886 34.0811 73.6953 34.0811C73.802 34.0811 73.9066 34.0509 73.9968 33.9941L74.7003 33.5927C74.8008 33.5927 74.8384 33.4798 74.8384 33.4171C74.8384 33.3544 74.8384 33.3042 74.7003 33.2415L74.4993 33.1286C74.4071 33.0776 74.3032 33.0516 74.1978 33.0533ZM74.047 33.2164C74.0981 33.1854 74.1568 33.169 74.2166 33.169C74.2764 33.169 74.3351 33.1854 74.3862 33.2164L74.5495 33.3042C74.6626 33.3795 74.6626 33.4422 74.5495 33.5049L73.8586 33.9063C73.8074 33.9431 73.7459 33.9628 73.6828 33.9628C73.6197 33.9628 73.5581 33.9431 73.5069 33.9063L73.3436 33.8185C73.2305 33.8185 73.2305 33.6805 73.3436 33.6178L74.047 33.2164Z" fill="#FFD85A"/>
<path d="M73.1705 32.452C73.0632 32.4483 72.9575 32.4791 72.869 32.5398L72.1655 32.9412C72.065 32.9412 72.0273 33.0541 72.0273 33.1168C72.0273 33.1795 72.0273 33.2297 72.1655 33.2799L72.3665 33.4053C72.4587 33.4563 72.5626 33.4822 72.668 33.4806C72.773 33.4796 72.8763 33.4538 72.9695 33.4053L73.6729 32.9914C73.7609 32.9914 73.8111 32.8785 73.8111 32.8157C73.8111 32.753 73.8111 32.7028 73.6729 32.6527L73.4719 32.5272C73.3788 32.4787 73.2755 32.4529 73.1705 32.452ZM73.0072 32.6276C73.0597 32.5941 73.1207 32.5763 73.183 32.5763C73.2453 32.5763 73.3064 32.5941 73.3589 32.6276L73.5222 32.7279C73.6352 32.7906 73.6352 32.8534 73.5222 32.9286L72.8313 33.33C72.7802 33.3611 72.7215 33.3775 72.6617 33.3775C72.6019 33.3775 72.5432 33.3611 72.4921 33.33L72.3288 33.2297C72.2158 33.167 72.2158 33.1043 72.3288 33.029L73.0072 32.6276Z" fill="#FFD85A"/>
<path d="M72.1401 31.8629C72.0347 31.8612 71.9308 31.8872 71.8386 31.9381L71.1351 32.3395C71.0347 32.3395 70.9844 32.4524 70.9844 32.5152C70.9844 32.5779 70.9844 32.6406 71.1226 32.6908L71.3361 32.8037C71.4234 32.8569 71.5228 32.8872 71.625 32.8915C71.7315 32.8893 71.8355 32.859 71.9265 32.8037L72.63 32.4023C72.7305 32.4023 72.7681 32.2894 72.7681 32.2267C72.7681 32.1639 72.7682 32.1012 72.63 32.051L72.429 31.9381C72.341 31.8882 72.2413 31.8622 72.1401 31.8629ZM71.9768 32.0259C72.0268 31.992 72.0859 31.9738 72.1463 31.9738C72.2068 31.9738 72.2659 31.992 72.3159 32.0259L72.4918 32.1137C72.6048 32.189 72.5923 32.2517 72.4918 32.3145L71.8009 32.7159C71.7509 32.7499 71.6918 32.768 71.6313 32.768C71.5708 32.768 71.5117 32.7499 71.4617 32.7159L71.2859 32.6281C71.1728 32.5653 71.1728 32.4901 71.2859 32.4273L71.9768 32.0259Z" fill="#FFD85A"/>
<path d="M70.7947 31.3356L70.0913 31.7495C70.0034 31.7495 69.9531 31.8624 69.9531 31.9252C69.9531 31.9879 69.9531 32.0381 70.0913 32.0882L70.2923 32.2137C70.3849 32.2636 70.4885 32.2895 70.5937 32.2889C70.6988 32.2879 70.8021 32.2622 70.8952 32.2137L71.5987 31.7997C71.6866 31.7997 71.7368 31.6868 71.7368 31.6241C71.7368 31.5614 71.7368 31.5112 71.5987 31.461L71.3977 31.3356C71.3055 31.2846 71.2016 31.2587 71.0962 31.2603C70.9912 31.2613 70.8879 31.2871 70.7947 31.3356ZM70.9329 31.4234C70.9864 31.3926 71.047 31.3763 71.1088 31.3763C71.1705 31.3763 71.2312 31.3926 71.2846 31.4234L71.4479 31.5237C71.561 31.5237 71.561 31.6492 71.4479 31.7245L70.757 32.1133C70.7045 32.1468 70.6435 32.1646 70.5812 32.1646C70.5189 32.1646 70.4578 32.1468 70.4053 32.1133L70.242 32.013C70.129 31.9503 70.129 31.8875 70.242 31.8123L70.9329 31.4234Z" fill="#FFD85A"/>
<path d="M74.9291 28.9646L75.9341 28.375C76.0953 28.4415 76.2508 28.5212 76.3989 28.6133C76.4868 28.6133 76.5245 28.7011 76.5245 28.7639C76.5245 28.8266 76.5245 28.8642 76.3989 28.9144L75.8462 29.228C75.7706 29.2736 75.6831 29.2955 75.5949 29.2907C75.503 29.2937 75.4119 29.2721 75.3311 29.228L74.9291 28.9897C74.9291 28.9897 74.904 28.9646 74.9291 28.9646ZM75.2181 28.9646L75.4568 29.09C75.492 29.1137 75.5336 29.1264 75.5761 29.1264C75.6186 29.1264 75.6601 29.1137 75.6954 29.09L76.2356 28.7764C76.311 28.7764 76.3235 28.6886 76.2356 28.6384L76.0094 28.513L75.2181 28.9395C75.2181 28.9395 75.2055 28.9897 75.2181 29.0022V28.9646Z" fill="#FFD85A"/>
<path d="M76.3713 29.8301L75.8438 29.5165L76.8612 28.9019C77.0594 28.9957 77.2523 29.1004 77.439 29.2155L77.3637 29.2907C77.2114 29.2322 77.0643 29.1608 76.924 29.0775C76.8155 29.124 76.7105 29.1785 76.61 29.2405L76.9366 29.4413L76.8487 29.5291C76.717 29.4792 76.5908 29.4162 76.4718 29.3409C76.3553 29.3878 76.242 29.4423 76.1326 29.504L76.522 29.7423L76.4341 29.8301H76.3713Z" fill="#FFD85A"/>
<path d="M76.6479 29.9432L77.6529 29.3662C77.8097 29.4287 77.9609 29.5042 78.1051 29.592C78.1804 29.592 78.2307 29.6923 78.2307 29.7425C78.2307 29.7927 78.2307 29.8429 78.1051 29.8931H78.0297C77.979 29.9185 77.9231 29.9317 77.8664 29.9317C77.8097 29.9317 77.7538 29.9185 77.7031 29.8931C77.7097 29.9068 77.7132 29.9217 77.7132 29.937C77.7132 29.9522 77.7097 29.9672 77.7031 29.9809C77.7031 29.9809 77.7031 30.0561 77.6152 30.0812H77.5147C77.4347 30.1272 77.343 30.149 77.2509 30.144C77.1627 30.1487 77.0752 30.1269 76.9996 30.0812L76.5977 29.8429C76.5977 29.8429 76.6228 29.9558 76.6479 29.9432ZM77.4016 29.7175L77.6277 29.8429C77.663 29.8666 77.7045 29.8793 77.747 29.8793C77.7896 29.8793 77.8311 29.8666 77.8664 29.8429H77.9418C78.0297 29.8429 78.0297 29.7551 77.9418 29.7049L77.7282 29.5795C77.6157 29.6262 77.5066 29.6807 77.4016 29.7425C77.4016 29.7425 77.3891 29.7049 77.4016 29.7175ZM76.9368 29.9934L77.1629 30.1189C77.1992 30.1398 77.2404 30.1508 77.2823 30.1508C77.3242 30.1508 77.3653 30.1398 77.4016 30.1189H77.5147C77.59 30.1189 77.59 30.0185 77.5147 29.9683L77.2886 29.8429C77.1677 29.8938 77.0502 29.9525 76.9368 30.0185V29.9934Z" fill="#FFD85A"/>
<path d="M78.7346 29.9931L77.7297 30.5701C77.6757 30.5792 77.6205 30.5792 77.5664 30.5701L78.5839 29.9429C78.6376 29.9542 78.6887 29.9755 78.7346 30.0056C78.7346 30.0056 78.7597 29.9805 78.7346 29.9931Z" fill="#FFD85A"/>
<path d="M78.245 30.9095L78.1445 30.8467C78.4273 30.6506 78.7209 30.4705 79.0238 30.3073L78.8103 30.1568L78.8982 30.0815L79.564 30.4328L79.4886 30.5206C79.3914 30.491 79.2985 30.4488 79.2123 30.3951L78.2953 30.9095H78.245Z" fill="#FFD85A"/>
<path d="M79.5015 31.6114L79.3131 31.4986C79.2252 31.4986 79.1875 31.4107 79.1875 31.3606C79.1875 31.3104 79.1875 31.2602 79.3131 31.21L79.8658 30.8839C79.943 30.8422 80.0293 30.8203 80.1171 30.8203C80.2048 30.8203 80.2911 30.8422 80.3683 30.8839L80.5693 30.9968C80.629 31.029 80.674 31.0829 80.6949 31.1473C80.6949 31.1473 80.6949 31.2477 80.5693 31.2978H80.4814C80.4239 31.2857 80.3688 31.2645 80.318 31.2351L80.3934 31.1599C80.3934 31.1599 80.4813 31.0595 80.3934 31.0219L80.2427 30.9341C80.2074 30.9103 80.1659 30.8977 80.1233 30.8977C80.0808 30.8977 80.0393 30.9103 80.004 30.9341L79.4638 31.2477C79.3759 31.2477 79.3759 31.3355 79.4638 31.3857L79.602 31.4735C79.639 31.4922 79.6799 31.502 79.7214 31.502C79.7628 31.502 79.8037 31.4922 79.8407 31.4735H79.9161C79.97 31.463 80.0254 31.463 80.0794 31.4735L80.004 31.5487C79.925 31.5984 79.8335 31.6245 79.7402 31.624C79.6609 31.6413 79.5785 31.6369 79.5015 31.6114Z" fill="#FFD85A"/>
<path d="M80.0154 31.9246L79.9023 31.8619L81.1585 31.4229H81.2339L81.3972 31.5232L80.6812 32.3135C80.6245 32.2991 80.5697 32.278 80.5179 32.2507L80.6686 32.0501L80.3043 31.8368L80.028 31.9246H80.0154ZM81.1962 31.5608L80.5179 31.7866L80.8194 31.9622L81.2088 31.5608H81.1962Z" fill="#FFD85A"/>
<path d="M81.0076 32.4897H80.8945L81.912 31.875C82.0632 31.9361 82.2101 32.0073 82.3517 32.0882C82.4396 32.0882 82.4773 32.1886 82.4773 32.2388C82.4773 32.2889 82.4773 32.3517 82.3517 32.3893L82.2135 32.4771C82.1501 32.5047 82.0817 32.519 82.0125 32.519C81.9434 32.519 81.8749 32.5047 81.8115 32.4771L81.6105 32.8158C81.6105 32.8158 81.6105 32.8158 81.5477 32.8158L81.4472 32.7531L81.6231 32.3893L81.4598 32.2889C81.3221 32.3482 81.1879 32.4152 81.0578 32.4897H81.0076ZM81.598 32.2137L81.799 32.3266C81.8361 32.3514 81.8799 32.3646 81.9246 32.3646C81.9693 32.3646 82.013 32.3514 82.0502 32.3266L82.1884 32.2513C82.2637 32.2513 82.2637 32.151 82.1884 32.1133L81.9748 31.9879C81.8411 32.047 81.7111 32.1141 81.5854 32.1886L81.598 32.2137Z" fill="#FFD85A"/>
<path d="M81.8359 32.8661L82.8409 32.2891C83.0021 32.3555 83.1576 32.4353 83.3057 32.5274C83.3936 32.5274 83.4313 32.6152 83.4313 32.6779C83.4313 32.7407 83.4313 32.7783 83.3182 32.8159L82.7655 33.1421C82.6847 33.1861 82.5937 33.2078 82.5017 33.2048C82.4104 33.2018 82.3207 33.1805 82.2379 33.1421L81.8359 32.9037C81.8359 32.9037 81.8359 32.9288 81.8359 32.8661ZM82.1249 32.8661L82.3635 33.0041C82.3988 33.0278 82.4404 33.0405 82.4829 33.0405C82.5254 33.0405 82.5669 33.0278 82.6022 33.0041L83.1424 32.6905C83.2303 32.6905 83.2303 32.6027 83.1424 32.5525L82.9162 32.4145L82.1249 32.8536C82.1249 32.8536 82.0746 32.9539 82.0872 32.9539L82.1249 32.8661Z" fill="#FFD85A"/>
<path d="M48.6255 47.1415L45.887 48.722C45.4976 48.9353 45.1836 48.8098 45.1836 48.421V46.6648C45.2074 46.439 45.2833 46.2218 45.4053 46.0302C45.5274 45.8387 45.6923 45.678 45.887 45.5609L48.6255 43.9803C49.0149 43.7545 49.3289 43.8925 49.3289 44.2814V46.0125C49.3089 46.2427 49.2348 46.4649 49.1126 46.6611C48.9903 46.8573 48.8234 47.0219 48.6255 47.1415Z" fill="#B3D7FF"/>
<path d="M53.7904 44.1554L51.0394 45.736C50.6625 45.9618 50.3359 45.8364 50.3359 45.4475V43.7038C50.3606 43.4783 50.4369 43.2615 50.5589 43.0701C50.6808 42.8787 50.8453 42.7178 51.0394 42.6L53.7904 41.0194C54.1672 40.7936 54.4938 40.9316 54.4938 41.3205V43.0515C54.47 43.2773 54.3941 43.4946 54.2721 43.6861C54.15 43.8777 53.9851 44.0383 53.7904 44.1554Z" fill="#B3D7FF"/>
<path d="M58.938 41.1831L56.1995 42.7636C55.8101 42.9894 55.4961 42.8514 55.4961 42.4626V40.7315C55.5169 40.5049 55.5916 40.2865 55.714 40.0945C55.8363 39.9025 56.0028 39.7424 56.1995 39.6276L58.938 38.047C59.3274 37.8212 59.6414 37.9467 59.6414 38.3355V40.0792C59.6186 40.3053 59.5431 40.5229 59.421 40.7146C59.2988 40.9062 59.1334 41.0667 58.938 41.1831Z" fill="#B3D7FF"/>
<path d="M48.6255 51.0799L45.887 52.6605C45.4976 52.8863 45.1836 52.7483 45.1836 52.3594V50.6283C45.2055 50.4003 45.2805 50.1806 45.4026 49.9867C45.5248 49.7929 45.6907 49.6303 45.887 49.5119L48.6255 47.9313C49.0149 47.7181 49.3289 47.8435 49.3289 48.2324V49.976C49.3061 50.2021 49.2306 50.4197 49.1085 50.6114C48.9863 50.8031 48.8209 50.9635 48.6255 51.0799Z" fill="#B3D7FF"/>
<path d="M53.7904 48.1065L51.0394 49.687C50.6625 49.9003 50.3359 49.7748 50.3359 49.386V47.6423C50.3624 47.4173 50.4395 47.2012 50.5613 47.0101C50.6831 46.8189 50.8465 46.6577 51.0394 46.5384L53.7904 44.9579C54.1672 44.7321 54.4938 44.8701 54.4938 45.2589V46.99C54.4691 47.2172 54.3929 47.4359 54.271 47.6293C54.1492 47.8227 53.9848 47.9859 53.7904 48.1065Z" fill="#B3D7FF"/>
<path d="M58.938 45.1218L56.1995 46.6647C55.8101 46.8905 55.4961 46.7651 55.4961 46.3762V44.6326C55.5189 44.4065 55.5944 44.1889 55.7166 43.9972C55.8387 43.8055 56.0041 43.6451 56.1995 43.5287L58.938 41.9481C59.3274 41.7223 59.6414 41.8603 59.6414 42.2492V43.9803C59.6265 44.2135 59.5546 44.4394 59.4319 44.6384C59.3093 44.8374 59.1397 45.0034 58.938 45.1218Z" fill="#B3D7FF"/>
<path d="M48.6255 55.0185L45.887 56.5991C45.4976 56.8249 45.1836 56.6869 45.1836 56.298V54.5669C45.2044 54.3403 45.2791 54.1219 45.4015 53.9299C45.5238 53.7379 45.6903 53.5779 45.887 53.463L48.6255 51.8825C49.0149 51.6567 49.3289 51.7821 49.3289 52.171V53.9146C49.3061 54.1407 49.2306 54.3583 49.1085 54.55C48.9863 54.7417 48.8209 54.9021 48.6255 55.0185Z" fill="#B3D7FF"/>
<path d="M53.7904 52.0457L51.0394 53.6263C50.6625 53.8521 50.3359 53.7141 50.3359 53.3252V51.5941C50.3606 51.3669 50.4368 51.1483 50.5587 50.9549C50.6805 50.7614 50.845 50.5982 51.0394 50.4777L53.7904 48.8971C54.1672 48.6839 54.4938 48.8093 54.4938 49.1982V50.9418C54.4691 51.1674 54.3928 51.3842 54.2709 51.5756C54.1489 51.767 53.9845 51.9279 53.7904 52.0457Z" fill="#B3D7FF"/>
<path d="M58.938 49.0728L56.1995 50.6533C55.8101 50.8666 55.4961 50.7411 55.4961 50.3523V48.6086C55.5189 48.3826 55.5944 48.165 55.7166 47.9733C55.8387 47.7816 56.0041 47.6211 56.1995 47.5047L58.938 45.9242C59.3274 45.6984 59.6414 45.8364 59.6414 46.2252V47.9187C59.6253 48.1533 59.553 48.3805 59.4306 48.5814C59.3082 48.7822 59.1392 48.9507 58.938 49.0728Z" fill="#B3D7FF"/>
<path d="M48.6255 58.9577L45.887 60.5383C45.4976 60.7641 45.1836 60.6386 45.1836 60.2497V58.5061C45.2064 58.28 45.2819 58.0624 45.4041 57.8707C45.5262 57.6791 45.6916 57.5186 45.887 57.4022L48.6255 55.8217C49.0149 55.5959 49.3289 55.7338 49.3289 56.1227V57.8538C49.3081 58.0804 49.2334 58.2988 49.1111 58.4908C48.9887 58.6828 48.8222 58.8429 48.6255 58.9577Z" fill="#95ACF4"/>
<path d="M53.7904 55.9848L51.0394 57.5654C50.6625 57.7912 50.3359 57.6532 50.3359 57.2643V55.5333C50.3597 55.3075 50.4356 55.0902 50.5576 54.8987C50.6797 54.7072 50.8446 54.5465 51.0394 54.4294L53.7904 52.8488C54.1672 52.623 54.4938 52.7484 54.4938 53.1373V54.881C54.4691 55.1065 54.3928 55.3233 54.2709 55.5147C54.1489 55.7061 53.9845 55.867 53.7904 55.9848Z" fill="#B3D7FF"/>
<path d="M58.938 53.012L56.1995 54.5926C55.8101 54.8184 55.4961 54.6804 55.4961 54.2915V52.5604C55.518 52.3324 55.593 52.1127 55.7151 51.9188C55.8373 51.725 56.0032 51.5624 56.1995 51.444L58.938 49.8634C59.3274 49.6502 59.6414 49.7756 59.6414 50.1645V51.9081C59.6186 52.1342 59.5431 52.3518 59.421 52.5435C59.2988 52.7352 59.1334 52.8956 58.938 53.012Z" fill="#95ACF4"/>
<defs>
<linearGradient id="paint0_linear" x1="27.7773" y1="91.8488" x2="53.9558" y2="91.8488" gradientUnits="userSpaceOnUse">
<stop stop-color="#F8F6FA"/>
<stop offset="1" stop-color="#FBF8FC"/>
</linearGradient>
<linearGradient id="paint1_linear" x1="38.2393" y1="81.8514" x2="41.1601" y2="86.9102" gradientUnits="userSpaceOnUse">
<stop stop-color="#CFCAD5"/>
<stop offset="1" stop-color="#EAE7ED"/>
</linearGradient>
<linearGradient id="paint2_linear" x1="49.6432" y1="68.7923" x2="30.3862" y2="68.7923" gradientUnits="userSpaceOnUse">
<stop stop-color="#E0DBE1"/>
<stop offset="1" stop-color="#E0DBE1"/>
</linearGradient>
<linearGradient id="paint3_linear" x1="18976.9" y1="5328.51" x2="23854" y2="5328.51" gradientUnits="userSpaceOnUse">
<stop stop-color="#F8F6FA"/>
<stop offset="1" stop-color="#FBF8FC"/>
</linearGradient>
<linearGradient id="paint4_linear" x1="19818.8" y1="11902.9" x2="22249.5" y2="13583.3" gradientUnits="userSpaceOnUse">
<stop stop-color="#5917FF"/>
<stop offset="0.16" stop-color="#6D22F8"/>
<stop offset="0.48" stop-color="#A13DE7"/>
<stop offset="0.95" stop-color="#F569CA"/>
<stop offset="1" stop-color="#FF6EC7"/>
</linearGradient>
<linearGradient id="paint5_linear" x1="18297.3" y1="6194.31" x2="18155.9" y2="6194.31" gradientUnits="userSpaceOnUse">
<stop stop-color="#E0DBE1"/>
<stop offset="1" stop-color="#E0DBE1"/>
</linearGradient>
<linearGradient id="paint6_linear" x1="26.645" y1="103.64" x2="90.9606" y2="103.64" gradientUnits="userSpaceOnUse">
<stop stop-color="#F8F6FA"/>
<stop offset="1" stop-color="#FAF8FC"/>
</linearGradient>
<linearGradient id="paint7_linear" x1="72.9207" y1="48.972" x2="75.7913" y2="53.9555" gradientUnits="userSpaceOnUse">
<stop offset="0.5" stop-color="#F8F5F4"/>
<stop offset="1" stop-color="#E8E5E5"/>
</linearGradient>
<linearGradient id="paint8_linear" x1="62.5423" y1="33.0038" x2="93.8903" y2="41.4176" gradientUnits="userSpaceOnUse">
<stop stop-color="#8C32EE"/>
<stop offset="0.19" stop-color="#9C3DE6"/>
<stop offset="0.57" stop-color="#C75AD2"/>
<stop offset="1" stop-color="#FF80B7"/>
</linearGradient>
</defs>
</svg>
