<svg width="91" height="123" viewBox="0 0 91 123" fill="none" xmlns="http://www.w3.org/2000/svg">
<g style="mix-blend-mode:multiply" opacity="0.4">
<path d="M43.3437 122.837C43.2032 122.922 43.0431 122.969 42.8788 122.975C42.2864 123.03 41.6891 122.996 41.1068 122.874L26.0264 114.168C25.9376 114.137 25.8608 114.08 25.8063 114.003C25.7519 113.927 25.7227 113.836 25.7227 113.742C25.7227 113.648 25.7519 113.557 25.8063 113.48C25.8608 113.404 25.9376 113.346 26.0264 113.315L73.1779 86.1438C73.5658 85.9416 73.9969 85.8359 74.4346 85.8359C74.8722 85.8359 75.3034 85.9416 75.6913 86.1438L90.7717 94.8497C91.1362 95.0755 46.762 120.855 43.3437 122.837Z" fill="#50197C"/>
</g>
<path d="M46.2461 84.2871L27.7852 94.9751L35.5139 99.4284L53.9749 88.7279L46.2461 84.2871Z" fill="url(#paint0_linear)"/>
<path d="M54.0729 88.8652C54.0729 88.8652 54.0729 88.7899 54.0729 88.7774C54.0729 88.7648 35.5742 99.4277 35.5742 99.4277C35.6182 99.4651 35.6527 99.5124 35.6748 99.5657C35.8004 99.8542 35.7879 100.456 35.6748 100.532L54.1358 89.8437C54.186 89.7558 54.1986 89.2039 54.0729 88.8652Z" fill="#E0DBE1"/>
<path d="M44.7486 82.5049C44.584 82.1952 44.4846 81.8551 44.4565 81.5056C44.4284 81.1562 44.4722 80.8046 44.5852 80.4727L49.612 69.3833L31.151 80.0838L26.1242 91.1732C26.0092 91.5027 25.9644 91.8524 25.9925 92.2002C26.0207 92.548 26.1212 92.886 26.2876 93.1928C26.4638 93.5986 26.7011 93.9751 26.9913 94.3093C27.2149 94.5748 27.4827 94.7997 27.783 94.9742L46.244 84.2862C45.9494 84.1038 45.6827 83.8799 45.4523 83.6213C45.1675 83.2832 44.9307 82.9075 44.7486 82.5049Z" fill="url(#paint1_linear)"/>
<path d="M35.5126 99.4272L27.7839 94.9739C27.1116 94.5558 26.5884 93.9369 26.2884 93.2052C26.1238 92.8954 26.0244 92.5554 25.9963 92.2059C25.9683 91.8564 26.012 91.5049 26.125 91.1729L31.1518 80.0836V79.8828V69.0945C31.145 68.9269 31.0966 68.7635 31.0111 68.619C30.9256 68.4745 30.8055 68.3535 30.6617 68.2666C30.4103 68.116 30.1967 68.2666 30.1967 68.5426V79.2431L25.1699 90.2321C25.0039 90.7442 24.9417 91.2841 24.987 91.8204C25.0323 92.3567 25.1842 92.8786 25.4338 93.3557C25.8941 94.4784 26.6936 95.43 27.721 96.0779L35.4372 100.531C35.7639 100.682 35.7639 99.5778 35.5126 99.4272Z" fill="#C0B9C8"/>
<path d="M49.5883 58.0309C49.54 57.9327 49.481 57.8401 49.4123 57.7549C49.349 57.679 49.2723 57.6153 49.1861 57.5667C49.1369 57.5368 49.0804 57.521 49.0228 57.521C48.9651 57.521 48.9086 57.5368 48.8594 57.5667L30.3984 68.2672C30.4477 68.2373 30.5042 68.2215 30.5618 68.2215C30.6194 68.2215 30.676 68.2373 30.7252 68.2672C30.8134 68.3072 30.8909 68.3674 30.9514 68.4429C31.0219 68.5268 31.081 68.6196 31.1273 68.7189C31.1802 68.8376 31.21 68.9653 31.2153 69.0952V79.8835V80.0842L49.6762 69.3837V69.1955V58.3947C49.6716 58.2688 49.6417 58.145 49.5883 58.0309Z" fill="url(#paint2_linear)"/>
<path d="M1.49549 102.74L0.0251397 101.887L0 44.2695L1.48291 45.1351L1.49549 102.74Z" fill="#C0B9C8"/>
<path d="M1.4829 45.1353L0 44.2697L76.8348 0L78.3051 0.85302L1.4829 45.1353Z" fill="url(#paint3_linear)"/>
<path d="M78.3066 0.852539L78.3318 58.4696L1.49695 102.739L1.48438 45.1348L78.3066 0.852539Z" fill="#E0DBE1"/>
<path d="M1.80859 45.3984L77.9522 1.51758L77.9396 51.4198L1.80859 95.3006V45.3984Z" fill="#6979FC"/>
<path d="M44.9274 74.627L42.2255 76.1826C41.8485 76.3958 41.5469 76.2704 41.5469 75.9066C41.5678 75.688 41.6401 75.4775 41.7581 75.2922C41.876 75.1069 42.0362 74.952 42.2255 74.8403L44.9274 73.2847C45.3044 73.0715 45.606 73.1969 45.606 73.5607C45.5852 73.7793 45.5128 73.9898 45.3948 74.1751C45.2769 74.3604 45.1167 74.5153 44.9274 74.627Z" fill="#5917FF"/>
<path d="M26.6562 112.85V113.653C26.6662 113.744 26.6992 113.831 26.7519 113.905C26.8047 113.98 26.8756 114.04 26.9579 114.08L42.0383 122.785C42.2655 122.903 42.5176 122.965 42.7735 122.965C43.0294 122.965 43.2815 122.903 43.5086 122.785L90.6602 95.6139C90.744 95.5762 90.8162 95.5167 90.8692 95.4417C90.9223 95.3667 90.9542 95.2789 90.9618 95.1874V94.4097L26.6562 112.85Z" fill="url(#paint4_linear)"/>
<path d="M90.6969 94.8361L43.5454 122.008C43.3165 122.119 43.0651 122.178 42.8102 122.178C42.5554 122.178 42.3039 122.119 42.0751 122.008L26.9946 113.289C26.5799 113.051 26.5799 112.674 26.9946 112.436L74.1335 85.2646C74.3648 85.1534 74.6183 85.0957 74.875 85.0957C75.1317 85.0957 75.3851 85.1534 75.6165 85.2646L90.6969 93.983C90.7856 94.0139 90.8625 94.0715 90.9169 94.1479C90.9713 94.2244 91.0006 94.3158 91.0006 94.4096C91.0006 94.5033 90.9713 94.5948 90.9169 94.6712C90.8625 94.7476 90.7856 94.8052 90.6969 94.8361Z" fill="url(#paint5_linear)"/>
<path d="M34.646 111.947L32.7107 113.064C32.6064 113.12 32.4898 113.149 32.3714 113.149C32.2529 113.149 32.1363 113.12 32.032 113.064L30.4109 112.123C30.2224 112.022 30.2224 111.847 30.4109 111.734L32.3462 110.617C32.4505 110.561 32.5671 110.532 32.6855 110.532C32.804 110.532 32.9205 110.561 33.0248 110.617L34.646 111.558C34.8345 111.659 34.8345 111.784 34.646 111.947ZM37.7752 109.752L36.1541 108.811C36.0456 108.761 35.9277 108.736 35.8084 108.736C35.6891 108.736 35.5713 108.761 35.4628 108.811L33.5275 109.927C33.4861 109.942 33.4503 109.97 33.425 110.005C33.3997 110.041 33.3861 110.084 33.3861 110.128C33.3861 110.172 33.3997 110.215 33.425 110.251C33.4503 110.287 33.4861 110.314 33.5275 110.329L35.1612 111.257C35.2655 111.313 35.3821 111.342 35.5005 111.342C35.619 111.342 35.7356 111.313 35.8399 111.257L37.7752 110.141C37.9637 110.04 37.9637 109.865 37.7752 109.752ZM40.9044 107.958L39.2707 107.017C39.1664 106.961 39.0498 106.932 38.9314 106.932C38.8129 106.932 38.6963 106.961 38.592 107.017L36.6567 108.134C36.4682 108.234 36.4682 108.41 36.6567 108.522L38.2904 109.463C38.3967 109.513 38.5125 109.538 38.6297 109.538C38.7469 109.538 38.8628 109.513 38.9691 109.463L40.9044 108.347C41.0929 108.234 41.0929 108.021 40.9044 108.021V107.958ZM44.0336 106.152L42.3998 105.211C42.2935 105.161 42.1778 105.136 42.0605 105.136C41.9433 105.136 41.8275 105.161 41.7212 105.211L39.7859 106.327C39.5974 106.44 39.5974 106.616 39.7859 106.716L41.4071 107.657C41.5136 107.713 41.6322 107.742 41.7526 107.742C41.8731 107.742 41.9917 107.713 42.0982 107.657L44.0336 106.54C44.2221 106.44 44.2221 106.264 44.0336 106.152ZM47.1502 104.345L45.529 103.417C45.4247 103.361 45.3081 103.332 45.1897 103.332C45.0713 103.332 44.9547 103.361 44.8504 103.417L42.9151 104.533C42.7266 104.634 42.7266 104.809 42.9151 104.922L44.5362 105.863C44.6425 105.912 44.7583 105.938 44.8755 105.938C44.9928 105.938 45.1086 105.912 45.2149 105.863L47.1502 104.747C47.1916 104.732 47.2274 104.704 47.2527 104.669C47.278 104.633 47.2916 104.59 47.2916 104.546C47.2916 104.502 47.278 104.459 47.2527 104.423C47.2274 104.387 47.1916 104.36 47.1502 104.345ZM50.2794 102.551L48.6582 101.61C48.5517 101.554 48.4331 101.525 48.3126 101.525C48.1922 101.525 48.0736 101.554 47.9671 101.61L46.0317 102.727C45.8432 102.84 45.8432 103.015 46.0317 103.116L47.6654 104.057C47.7697 104.113 47.8863 104.142 48.0048 104.142C48.1232 104.142 48.2397 104.113 48.344 104.057L50.2794 102.94C50.4679 102.827 50.4679 102.652 50.2794 102.551ZM53.4086 100.745L51.7749 99.804C51.6686 99.7547 51.5527 99.7291 51.4355 99.7291C51.3183 99.7291 51.2025 99.7547 51.0962 99.804L49.1609 100.92C49.1195 100.935 49.0837 100.963 49.0584 100.998C49.0331 101.034 49.0195 101.077 49.0195 101.121C49.0195 101.165 49.0331 101.208 49.0584 101.244C49.0837 101.28 49.1195 101.307 49.1609 101.322L50.7946 102.25C50.8989 102.306 51.0155 102.336 51.1339 102.336C51.2524 102.336 51.3689 102.306 51.4732 102.25L53.4086 101.134C53.5971 101.033 53.5971 100.858 53.4086 100.745ZM56.5377 98.951L54.904 98.0101C54.7997 97.9541 54.6832 97.9248 54.5647 97.9248C54.4463 97.9248 54.3297 97.9541 54.2254 98.0101L52.2901 99.1266C52.1016 99.227 52.1016 99.4026 52.2901 99.5155L53.8861 100.494C53.9945 100.544 54.1124 100.569 54.2317 100.569C54.351 100.569 54.4688 100.544 54.5773 100.494L56.5126 99.3775C56.7263 99.2395 56.7262 99.0513 56.5377 98.951ZM59.6544 97.1445L58.0332 96.2037C57.9289 96.1477 57.8123 96.1184 57.6939 96.1184C57.5755 96.1184 57.4589 96.1477 57.3546 96.2037L55.4193 97.3202C55.2308 97.4331 55.2308 97.6087 55.4193 97.7091L57.0404 98.6499C57.1447 98.7059 57.2613 98.7352 57.3797 98.7352C57.4982 98.7352 57.6147 98.7059 57.719 98.6499L59.6544 97.5335C59.8429 97.4331 59.8429 97.2574 59.6544 97.1445ZM63.7889 94.7611L62.1678 93.8202C62.0615 93.7709 61.9457 93.7453 61.8285 93.7453C61.7113 93.7453 61.5954 93.7709 61.4891 93.8202L58.5359 95.4761C58.4945 95.491 58.4587 95.5182 58.4334 95.5542C58.4081 95.5901 58.3944 95.6329 58.3944 95.6769C58.3944 95.7208 58.4081 95.7636 58.4334 95.7995C58.4587 95.8355 58.4945 95.8627 58.5359 95.8776L60.1696 96.8184C60.2759 96.8678 60.3917 96.8933 60.5089 96.8933C60.6261 96.8933 60.742 96.8678 60.8483 96.8184L63.7889 95.1123C63.9397 95.0496 63.9397 94.874 63.7889 94.7611ZM77.2105 96.9062L75.5894 95.9654C75.4809 95.9158 75.3631 95.8901 75.2438 95.8901C75.1245 95.8901 75.0066 95.9158 74.8982 95.9654L72.9629 97.0818C72.9214 97.0967 72.8856 97.1239 72.8603 97.1599C72.835 97.1958 72.8214 97.2386 72.8214 97.2825C72.8214 97.3265 72.835 97.3693 72.8603 97.4052C72.8856 97.4412 72.9214 97.4684 72.9629 97.4833L74.5966 98.4116C74.7009 98.4675 74.8175 98.4968 74.9359 98.4968C75.0543 98.4968 75.1709 98.4675 75.2752 98.4116L77.2105 97.2951C77.399 97.1948 77.399 97.0191 77.2105 96.9062ZM80.3397 95.1123L78.706 94.1715C78.6017 94.1155 78.4851 94.0862 78.3667 94.0862C78.2483 94.0862 78.1317 94.1155 78.0274 94.1715L76.0921 95.288C75.9036 95.3883 75.9036 95.564 76.0921 95.6769L77.7258 96.6177C77.832 96.6671 77.9478 96.6926 78.0651 96.6926C78.1823 96.6926 78.2981 96.6671 78.4044 96.6177L80.3397 95.5012C80.5282 95.3883 80.5282 95.2127 80.3397 95.1123ZM83.4689 93.3059L81.8352 92.3651C81.7309 92.3091 81.6143 92.2798 81.4959 92.2798C81.3774 92.2798 81.2609 92.3091 81.1566 92.3651L79.2212 93.4816C79.0327 93.5945 79.0327 93.7701 79.2212 93.8704L80.8424 94.8113C80.949 94.8673 81.0676 94.8966 81.188 94.8966C81.3084 94.8966 81.427 94.8673 81.5336 94.8113L83.4689 93.6948C83.6574 93.5944 83.6574 93.4188 83.4689 93.3059ZM80.0758 98.5496L78.4421 97.6212C78.3378 97.5652 78.2212 97.5359 78.1028 97.5359C77.9843 97.5359 77.8678 97.5652 77.7635 97.6212L75.8281 98.7377C75.6396 98.8381 75.6396 99.0137 75.8281 99.1266L77.4493 100.067C77.5577 100.117 77.6756 100.143 77.7949 100.143C77.9142 100.143 78.032 100.117 78.1405 100.067L80.0758 98.951C80.1172 98.9361 80.153 98.9089 80.1783 98.873C80.2037 98.837 80.2172 98.7942 80.2172 98.7502C80.2172 98.7063 80.2037 98.6635 80.1783 98.6275C80.153 98.5916 80.1172 98.5644 80.0758 98.5496ZM83.1924 96.7557L81.5713 95.8148C81.467 95.7588 81.3504 95.7295 81.232 95.7295C81.1135 95.7295 80.9969 95.7588 80.8926 95.8148L78.9573 96.9313C78.7688 97.0442 78.7688 97.2198 78.9573 97.3202L80.5785 98.261C80.6828 98.317 80.7994 98.3463 80.9178 98.3463C81.0362 98.3463 81.1528 98.317 81.2571 98.261L83.1924 97.1445C83.3809 97.0316 83.3809 96.856 83.1924 96.7306V96.7557ZM86.3216 94.9492L84.7005 94.0084C84.592 93.9588 84.4741 93.9331 84.3549 93.9331C84.2356 93.9331 84.1177 93.9588 84.0093 94.0084L82.0739 95.1249C82.0325 95.1397 81.9967 95.167 81.9714 95.2029C81.9461 95.2388 81.9325 95.2817 81.9325 95.3256C81.9325 95.3695 81.9461 95.4124 81.9714 95.4483C81.9967 95.4842 82.0325 95.5115 82.0739 95.5263L83.7077 96.4546C83.812 96.5106 83.9286 96.5399 84.047 96.5399C84.1654 96.5399 84.282 96.5106 84.3863 96.4546L86.3216 95.3507C86.363 95.3358 86.3988 95.3086 86.4242 95.2727C86.4495 95.2367 86.4631 95.1939 86.4631 95.15C86.4631 95.106 86.4495 95.0632 86.4242 95.0273C86.3988 94.9913 86.363 94.9641 86.3216 94.9492ZM38.5669 112.599L36.9457 111.671C36.8414 111.615 36.7249 111.586 36.6064 111.586C36.488 111.586 36.3715 111.615 36.2672 111.671L33.3139 113.365C33.2706 113.376 33.2323 113.401 33.2049 113.436C33.1776 113.471 33.1627 113.515 33.1627 113.559C33.1627 113.604 33.1776 113.647 33.2049 113.682C33.2323 113.717 33.2706 113.742 33.3139 113.754L34.9476 114.694C35.0519 114.75 35.1685 114.78 35.2869 114.78C35.4054 114.78 35.5219 114.75 35.6262 114.694L38.5669 113.001C38.6083 112.986 38.6441 112.959 38.6695 112.923C38.6948 112.887 38.7083 112.844 38.7083 112.8C38.7083 112.756 38.6948 112.713 38.6695 112.677C38.6441 112.642 38.6083 112.614 38.5669 112.599ZM41.6961 110.806L40.0624 109.865C39.9581 109.809 39.8415 109.779 39.7231 109.779C39.6047 109.779 39.488 109.809 39.3837 109.865L37.4485 110.981C37.2599 111.094 37.2599 111.27 37.4485 111.37L39.0822 112.311C39.1865 112.367 39.303 112.396 39.4214 112.396C39.5399 112.396 39.6565 112.367 39.7608 112.311L41.6961 111.194C41.8846 111.082 41.8846 110.906 41.6961 110.806ZM44.8253 108.999L43.1916 108.058C43.0853 108.009 42.9695 107.983 42.8523 107.983C42.735 107.983 42.6192 108.009 42.513 108.058L40.5776 109.175C40.5362 109.19 40.5004 109.217 40.4751 109.253C40.4498 109.289 40.4362 109.332 40.4362 109.375C40.4362 109.419 40.4498 109.462 40.4751 109.498C40.5004 109.534 40.5362 109.561 40.5776 109.576L42.2113 110.505C42.3156 110.561 42.4322 110.59 42.5507 110.59C42.6691 110.59 42.7857 110.561 42.89 110.505L44.8253 109.388C45.0138 109.275 45.0138 109.112 44.8253 108.999ZM47.9545 107.205L46.3208 106.264C46.2165 106.208 46.0999 106.179 45.9814 106.179C45.863 106.179 45.7464 106.208 45.6421 106.264L43.7068 107.381C43.5183 107.481 43.5183 107.657 43.7068 107.77L45.328 108.711C45.4342 108.76 45.55 108.786 45.6673 108.786C45.7845 108.786 45.9003 108.76 46.0066 108.711L47.9545 107.594C47.992 107.577 48.0238 107.55 48.0462 107.515C48.0685 107.481 48.0804 107.441 48.0804 107.4C48.0804 107.359 48.0685 107.318 48.0462 107.284C48.0238 107.249 47.992 107.222 47.9545 107.205ZM51.0711 105.399L49.45 104.458C49.3437 104.409 49.2279 104.383 49.1107 104.383C48.9934 104.383 48.8776 104.409 48.7713 104.458L46.8234 105.574C46.6349 105.687 46.6349 105.863 46.8234 105.963L48.4571 106.904C48.5614 106.96 48.6781 106.99 48.7965 106.99C48.9149 106.99 49.0315 106.96 49.1358 106.904L51.0711 105.788C51.2596 105.687 51.2596 105.512 51.0711 105.399ZM54.2003 103.592L52.5666 102.664C52.4623 102.608 52.3457 102.579 52.2273 102.579C52.1088 102.579 51.9923 102.608 51.888 102.664L49.9526 103.768C49.9112 103.783 49.8754 103.81 49.8501 103.846C49.8248 103.882 49.8112 103.925 49.8112 103.969C49.8112 104.013 49.8248 104.056 49.8501 104.091C49.8754 104.127 49.9112 104.155 49.9526 104.169L51.5864 105.11C51.6926 105.16 51.8084 105.185 51.9257 105.185C52.0429 105.185 52.1587 105.16 52.265 105.11L54.2003 103.994C54.2417 103.979 54.2775 103.952 54.3028 103.916C54.3282 103.88 54.3417 103.837 54.3417 103.793C54.3417 103.749 54.3282 103.706 54.3028 103.67C54.2775 103.635 54.2417 103.607 54.2003 103.592ZM57.3295 101.799L55.6958 100.858C55.5915 100.802 55.4749 100.772 55.3565 100.772C55.238 100.772 55.1214 100.802 55.0171 100.858L53.0818 101.974C52.8933 102.087 52.8933 102.263 53.0818 102.363L54.703 103.304C54.8095 103.36 54.9281 103.389 55.0485 103.389C55.169 103.389 55.2876 103.36 55.3942 103.304L57.3295 102.187C57.518 102.075 57.518 101.899 57.3295 101.748V101.799ZM60.4587 99.9922L58.8249 99.0513C58.7187 99.002 58.6029 98.9764 58.4856 98.9764C58.3684 98.9764 58.2526 99.002 58.1464 99.0513L56.211 100.168C56.1696 100.183 56.1338 100.21 56.1085 100.246C56.0831 100.282 56.0696 100.325 56.0696 100.368C56.0696 100.412 56.0831 100.455 56.1085 100.491C56.1338 100.527 56.1696 100.554 56.211 100.569L57.8322 101.497C57.9365 101.553 58.053 101.583 58.1715 101.583C58.2899 101.583 58.4065 101.553 58.5108 101.497L60.4587 100.381C60.4962 100.364 60.528 100.337 60.5503 100.302C60.5727 100.268 60.5846 100.228 60.5846 100.187C60.5846 100.146 60.5727 100.105 60.5503 100.071C60.528 100.036 60.4962 100.009 60.4587 99.9922ZM63.5753 98.1983L61.9542 97.2575C61.8476 97.2014 61.729 97.1721 61.6085 97.1721C61.4881 97.1721 61.3695 97.2014 61.263 97.2575L59.3276 98.3739C59.1391 98.4743 59.1391 98.6499 59.3276 98.7628L60.9614 99.7036C61.0676 99.753 61.1834 99.7786 61.3006 99.7786C61.4179 99.7786 61.5337 99.753 61.64 99.7036L63.5753 98.5872C63.7638 98.4743 63.7638 98.2987 63.5753 98.1983ZM66.7045 96.3919L65.0708 95.4511C64.9665 95.3951 64.8499 95.3657 64.7315 95.3657C64.613 95.3657 64.4964 95.3951 64.3921 95.4511L62.4568 96.5675C62.2683 96.6804 62.2683 96.856 62.4568 96.9564L64.0905 97.8972C64.1948 97.9532 64.3114 97.9826 64.4299 97.9826C64.5483 97.9826 64.6649 97.9532 64.7692 97.8972L66.7045 96.7808C66.893 96.7306 66.893 96.5048 66.7045 96.3919ZM40.3137 114.832L38.6926 113.892C38.5883 113.836 38.4717 113.806 38.3533 113.806C38.2349 113.806 38.1182 113.836 38.0139 113.892L36.0786 115.008C35.8901 115.121 35.8901 115.297 36.0786 115.397L37.6998 116.338C37.8041 116.394 37.9207 116.423 38.0391 116.423C38.1575 116.423 38.2741 116.394 38.3784 116.338L40.3137 115.221C40.5148 115.108 40.5148 114.933 40.3263 114.832H40.3137ZM43.4555 113.038L41.8343 112.098C41.7259 112.048 41.608 112.022 41.4887 112.022C41.3695 112.022 41.2516 112.048 41.1431 112.098L39.2078 113.214C39.1664 113.229 39.1306 113.256 39.1053 113.292C39.08 113.328 39.0664 113.371 39.0664 113.415C39.0664 113.459 39.08 113.502 39.1053 113.538C39.1306 113.573 39.1664 113.601 39.2078 113.616L40.8415 114.544C40.9458 114.6 41.0624 114.629 41.1809 114.629C41.2993 114.629 41.4159 114.6 41.5202 114.544L43.4555 113.427C43.644 113.314 43.644 113.139 43.4555 113.038ZM46.5847 111.245L44.951 110.304C44.8467 110.248 44.7301 110.218 44.6116 110.218C44.4932 110.218 44.3766 110.248 44.2723 110.304L42.337 111.42C42.1485 111.521 42.1485 111.696 42.337 111.809L43.9707 112.75C44.077 112.799 44.1928 112.825 44.31 112.825C44.4273 112.825 44.5431 112.799 44.6493 112.75L46.5847 111.634C46.7732 111.508 46.7732 111.332 46.5847 111.232V111.245ZM49.7138 109.438L48.0802 108.497C47.9759 108.441 47.8592 108.412 47.7408 108.412C47.6224 108.412 47.5058 108.441 47.4015 108.497L45.4662 109.614C45.2777 109.727 45.2777 109.902 45.4662 110.003L47.0873 110.944C47.1939 111 47.3125 111.029 47.4329 111.029C47.5534 111.029 47.672 111 47.7786 110.944L49.7138 109.827C49.9024 109.714 49.9024 109.539 49.7138 109.426V109.438ZM46.0066 118.056L44.3729 117.115C44.2666 117.066 44.1508 117.041 44.0336 117.041C43.9163 117.041 43.8006 117.066 43.6943 117.115L41.7589 118.232C41.7175 118.247 41.6817 118.274 41.6564 118.31C41.6311 118.346 41.6175 118.389 41.6175 118.433C41.6175 118.477 41.6311 118.519 41.6564 118.555C41.6817 118.591 41.7175 118.618 41.7589 118.633L43.3801 119.562C43.4844 119.618 43.601 119.647 43.7194 119.647C43.8378 119.647 43.9544 119.618 44.0587 119.562L46.0066 118.458C46.048 118.443 46.0838 118.416 46.1091 118.38C46.1344 118.344 46.148 118.301 46.148 118.257C46.148 118.213 46.1344 118.17 46.1091 118.134C46.0838 118.098 46.048 118.071 46.0066 118.056ZM49.1232 116.262L47.5021 115.322C47.3978 115.266 47.2812 115.236 47.1627 115.236C47.0443 115.236 46.9277 115.266 46.8234 115.322L44.8755 116.438C44.687 116.538 44.687 116.714 44.8755 116.827L46.5093 117.768C46.6156 117.817 46.7313 117.843 46.8486 117.843C46.9658 117.843 47.0816 117.817 47.1879 117.768L49.1232 116.651C49.3117 116.576 49.3117 116.4 49.1232 116.3V116.262ZM52.2524 114.456L50.6187 113.515C50.5124 113.466 50.3966 113.44 50.2794 113.44C50.1622 113.44 50.0463 113.466 49.94 113.515L48.0048 114.632C47.8162 114.745 47.8162 114.92 48.0048 115.021L49.6384 115.961C49.7428 116.017 49.8594 116.047 49.9778 116.047C50.0962 116.047 50.2128 116.017 50.3171 115.961L52.2524 114.845C52.4409 114.782 52.4409 114.607 52.2524 114.494V114.456ZM55.3816 112.65L53.7479 111.721C53.6436 111.665 53.527 111.636 53.4086 111.636C53.2901 111.636 53.1736 111.665 53.0693 111.721L51.1339 112.838C50.9454 112.938 50.9454 113.114 51.1339 113.227L52.7551 114.167C52.8635 114.217 52.9814 114.243 53.1007 114.243C53.22 114.243 53.3378 114.217 53.4463 114.167L55.3816 113.051C55.4128 113.032 55.4386 113.005 55.4565 112.973C55.4743 112.942 55.4837 112.906 55.4837 112.869C55.4837 112.833 55.4743 112.797 55.4565 112.765C55.4386 112.733 55.4128 112.706 55.3816 112.687V112.65ZM75.1244 101.272L73.4907 100.331C73.3844 100.281 73.2686 100.256 73.1513 100.256C73.0341 100.256 72.9183 100.281 72.8121 100.331L69.8714 102.037C69.6829 102.137 69.6829 102.313 69.8714 102.426L71.4925 103.367C71.601 103.416 71.7188 103.442 71.8381 103.442C71.9574 103.442 72.0753 103.416 72.1837 103.367L75.1244 101.748C75.1827 101.748 75.2387 101.725 75.2799 101.684C75.3211 101.643 75.3443 101.587 75.3443 101.529C75.3443 101.471 75.3211 101.415 75.2799 101.374C75.2387 101.332 75.1827 101.309 75.1244 101.309V101.272ZM52.8305 107.544L51.2093 106.616C51.105 106.56 50.9885 106.53 50.87 106.53C50.7516 106.53 50.635 106.56 50.5307 106.616L48.5954 107.72C48.554 107.734 48.5182 107.762 48.4929 107.798C48.4675 107.834 48.454 107.876 48.454 107.92C48.454 107.964 48.4675 108.007 48.4929 108.043C48.5182 108.079 48.554 108.106 48.5954 108.121L50.2165 109.062C50.3228 109.111 50.4386 109.137 50.5559 109.137C50.6731 109.137 50.7889 109.111 50.8952 109.062L52.8305 107.945C52.8543 107.925 52.8734 107.9 52.8865 107.872C52.8996 107.844 52.9065 107.813 52.9065 107.782C52.9065 107.751 52.8996 107.721 52.8865 107.692C52.8734 107.664 52.8543 107.639 52.8305 107.619V107.544ZM55.9597 105.75L54.3385 104.809C54.232 104.753 54.1133 104.724 53.9929 104.724C53.8725 104.724 53.7539 104.753 53.6473 104.809L51.712 105.926C51.5235 106.039 51.5235 106.214 51.712 106.315L53.3457 107.255C53.45 107.311 53.5666 107.341 53.685 107.341C53.8035 107.341 53.92 107.311 54.0243 107.255L55.9597 106.139C56.1482 106.101 56.1482 105.926 55.9597 105.825V105.75ZM59.0889 103.944L57.4551 103.003C57.3489 102.953 57.2331 102.928 57.1158 102.928C56.9986 102.928 56.8828 102.953 56.7765 103.003L54.8412 104.119C54.7998 104.134 54.764 104.161 54.7387 104.197C54.7133 104.233 54.6997 104.276 54.6997 104.32C54.6997 104.364 54.7133 104.407 54.7387 104.443C54.764 104.479 54.7998 104.506 54.8412 104.521L56.4749 105.449C56.5792 105.505 56.6958 105.534 56.8142 105.534C56.9326 105.534 57.0492 105.505 57.1535 105.449L59.0889 104.333C59.2774 104.257 59.2774 104.132 59.0889 104.019V103.944ZM62.2181 102.137L60.5843 101.209C60.48 101.153 60.3635 101.124 60.245 101.124C60.1266 101.124 60.01 101.153 59.9057 101.209L57.9704 102.325C57.7819 102.426 57.7819 102.601 57.9704 102.714L59.5916 103.655C59.7 103.705 59.8179 103.73 59.9371 103.73C60.0564 103.73 60.1743 103.705 60.2827 103.655L62.2181 102.539C62.2419 102.519 62.261 102.494 62.2741 102.466C62.2872 102.437 62.294 102.407 62.294 102.376C62.294 102.345 62.2872 102.314 62.2741 102.286C62.261 102.258 62.2419 102.233 62.2181 102.213V102.137ZM65.3347 100.343L63.7135 99.4026C63.6092 99.3466 63.4926 99.3172 63.3742 99.3172C63.2558 99.3172 63.1392 99.3466 63.0349 99.4026L61.0996 100.519C60.9111 100.632 60.9111 100.808 61.0996 100.908L62.7207 101.849C62.825 101.905 62.9416 101.934 63.06 101.934C63.1785 101.934 63.2951 101.905 63.3994 101.849L65.3347 100.732C65.5232 100.707 65.5232 100.494 65.3347 100.419V100.343ZM69.4692 97.96L67.8481 97.0191C67.7418 96.9698 67.626 96.9442 67.5088 96.9442C67.3915 96.9442 67.2757 96.9698 67.1695 97.0191L64.2162 98.7126C64.1748 98.7275 64.139 98.7547 64.1137 98.7906C64.0883 98.8266 64.0748 98.8694 64.0748 98.9133C64.0748 98.9572 64.0883 99.0001 64.1137 99.036C64.139 99.0719 64.1748 99.0992 64.2162 99.114L65.8499 100.055C65.9562 100.104 66.072 100.13 66.1892 100.13C66.3065 100.13 66.4223 100.104 66.5285 100.055L69.4692 98.3488C69.6577 98.3238 69.6577 98.1481 69.4692 97.985V97.96ZM44.2472 115.798L42.6261 114.87C42.5218 114.814 42.4052 114.785 42.2867 114.785C42.1683 114.785 42.0517 114.814 41.9474 114.87L38.9942 116.563C38.8057 116.664 38.8057 116.839 38.9942 116.952L40.6279 117.893C40.7322 117.949 40.8488 117.979 40.9672 117.979C41.0856 117.979 41.2022 117.949 41.3065 117.893L44.2472 116.2C44.271 116.18 44.2901 116.155 44.3033 116.127C44.3164 116.098 44.3232 116.068 44.3232 116.037C44.3232 116.006 44.3164 115.975 44.3033 115.947C44.2901 115.919 44.271 115.894 44.2472 115.874V115.798ZM47.3764 114.004L45.7427 113.064C45.6384 113.008 45.5218 112.978 45.4034 112.978C45.2849 112.978 45.1684 113.008 45.0641 113.064L43.1287 114.18C42.9402 114.293 42.9402 114.469 43.1287 114.569L44.7624 115.51C44.8667 115.566 44.9833 115.595 45.1018 115.595C45.2202 115.595 45.3368 115.566 45.4411 115.51L47.3764 114.393C47.6026 114.356 47.6026 114.18 47.3764 114.08V114.004ZM50.5056 112.198L48.8719 111.257C48.7656 111.208 48.6498 111.182 48.5325 111.182C48.4153 111.182 48.2995 111.208 48.1932 111.257L46.2579 112.374C46.2165 112.388 46.1807 112.416 46.1554 112.452C46.13 112.488 46.1165 112.53 46.1165 112.574C46.1165 112.618 46.13 112.661 46.1554 112.697C46.1807 112.733 46.2165 112.76 46.2579 112.775L47.8917 113.703C47.996 113.759 48.1125 113.789 48.2309 113.789C48.3494 113.789 48.4659 113.759 48.5702 113.703L50.5056 112.587C50.6941 112.562 50.6941 112.386 50.5056 112.273V112.198ZM53.6348 110.53L52.0011 109.589C51.8968 109.533 51.7802 109.503 51.6618 109.503C51.5433 109.503 51.4267 109.533 51.3224 109.589L49.3871 110.705C49.1986 110.806 49.1986 110.981 49.3871 111.094L51.0082 112.035C51.1145 112.084 51.2304 112.11 51.3476 112.11C51.4648 112.11 51.5806 112.084 51.6869 112.035L53.6348 110.918C53.8861 110.755 53.8861 110.53 53.6348 110.53ZM56.7514 108.723L55.1302 107.782C55.0259 107.726 54.9094 107.697 54.7909 107.697C54.6725 107.697 54.5559 107.726 54.4516 107.782L52.5037 108.899C52.3152 109.012 52.3152 109.187 52.5037 109.288L54.1375 110.229C54.2418 110.285 54.3583 110.314 54.4768 110.314C54.5952 110.314 54.7118 110.285 54.8161 110.229L56.7514 109.112C56.9399 108.962 56.9399 108.786 56.7514 108.673V108.723ZM71.0653 103.705L69.4315 102.765C69.3272 102.709 69.2107 102.679 69.0922 102.679C68.9738 102.679 68.8572 102.709 68.7529 102.765L54.2757 111.107C54.0872 111.207 54.0872 111.383 54.2757 111.495L55.8968 112.436C56.0034 112.492 56.122 112.522 56.2424 112.522C56.3629 112.522 56.4815 112.492 56.588 112.436L71.0653 104.094C71.2538 103.969 71.2538 103.793 71.0653 103.693V103.705ZM59.8806 106.879L58.2469 105.951C58.1426 105.895 58.026 105.865 57.9076 105.865C57.7891 105.865 57.6725 105.895 57.5682 105.951L55.6329 107.055C55.5915 107.07 55.5557 107.097 55.5304 107.133C55.5051 107.169 55.4915 107.212 55.4915 107.255C55.4915 107.299 55.5051 107.342 55.5304 107.378C55.5557 107.414 55.5915 107.441 55.6329 107.456L57.2666 108.397C57.3729 108.446 57.4887 108.472 57.6059 108.472C57.7232 108.472 57.839 108.446 57.9453 108.397L59.8806 107.281C59.9269 107.269 59.968 107.242 59.9974 107.205C60.0268 107.167 60.0428 107.121 60.0428 107.074C60.0428 107.026 60.0268 106.98 59.9974 106.942C59.968 106.905 59.9269 106.878 59.8806 106.867V106.879ZM63.0098 105.085L61.376 104.144C61.2717 104.088 61.1552 104.059 61.0368 104.059C60.9183 104.059 60.8018 104.088 60.6975 104.144L58.7621 105.261C58.5736 105.361 58.5736 105.537 58.7621 105.65L60.3833 106.591C60.4898 106.647 60.6084 106.676 60.7289 106.676C60.8493 106.676 60.9679 106.647 61.0745 106.591L63.0098 105.474C63.1983 105.349 63.1983 105.173 63.0098 105.073V105.085ZM66.139 103.279L64.5053 102.338C64.399 102.289 64.2832 102.263 64.1659 102.263C64.0487 102.263 63.9329 102.289 63.8266 102.338L61.8913 103.454C61.8499 103.469 61.8141 103.497 61.7887 103.532C61.7634 103.568 61.7499 103.611 61.7499 103.655C61.7499 103.699 61.7634 103.742 61.7887 103.778C61.8141 103.814 61.8499 103.841 61.8913 103.856L63.5125 104.784C63.6168 104.84 63.7333 104.869 63.8518 104.869C63.9702 104.869 64.0868 104.84 64.1911 104.784L66.139 103.668C66.1804 103.653 66.2162 103.626 66.2415 103.59C66.2668 103.554 66.2804 103.511 66.2804 103.467C66.2804 103.423 66.2668 103.38 66.2415 103.344C66.2162 103.308 66.1804 103.281 66.139 103.266V103.279ZM69.2556 101.472L67.6344 100.544C67.5279 100.488 67.4093 100.459 67.2889 100.459C67.1684 100.459 67.0498 100.488 66.9433 100.544L65.0079 101.661C64.8194 101.761 64.8194 101.937 65.0079 102.049L66.6416 102.99C66.7479 103.04 66.8637 103.065 66.981 103.065C67.0982 103.065 67.214 103.04 67.3203 102.99L69.2556 101.874C69.3019 101.862 69.343 101.836 69.3724 101.798C69.4018 101.761 69.4178 101.714 69.4178 101.667C69.4178 101.619 69.4018 101.573 69.3724 101.535C69.343 101.498 69.3019 101.471 69.2556 101.46V101.472ZM72.3848 99.6786L70.7511 98.7377C70.6468 98.6817 70.5302 98.6524 70.4117 98.6524C70.2933 98.6524 70.1768 98.6817 70.0724 98.7377L68.1371 99.8542C67.9486 99.9671 67.9486 100.143 68.1371 100.243L69.7709 101.184C69.8752 101.24 69.9917 101.269 70.1101 101.269C70.2286 101.269 70.3451 101.24 70.4494 101.184L72.3848 100.067C72.4112 100.067 72.4373 100.062 72.4617 100.052C72.4861 100.042 72.5083 100.027 72.5269 100.009C72.5456 99.99 72.5604 99.9679 72.5706 99.9435C72.5807 99.9192 72.5859 99.8931 72.5859 99.8667C72.5859 99.8404 72.5807 99.8143 72.5706 99.7899C72.5604 99.7656 72.5456 99.7434 72.5269 99.7248C72.5083 99.7062 72.4861 99.6914 72.4617 99.6813C72.4373 99.6712 72.4112 99.666 72.3848 99.666V99.6786ZM68.6147 91.9888L66.9935 91.0479C66.8872 90.9985 66.7714 90.973 66.6542 90.973C66.537 90.973 66.4212 90.9985 66.3149 91.0479L64.3796 92.1644C64.1911 92.2773 64.1911 92.4529 64.3796 92.5533L66.0007 93.4941C66.105 93.5501 66.2216 93.5794 66.34 93.5794C66.4585 93.5794 66.575 93.5501 66.6793 93.4941L68.6147 92.3776C68.8409 92.2647 68.8409 92.0891 68.6524 91.9762L68.6147 91.9888ZM71.7438 90.1823L70.2232 89.2039C70.1167 89.1478 69.9981 89.1185 69.8777 89.1185C69.7572 89.1185 69.6386 89.1478 69.5321 89.2039L67.5967 90.3203C67.4082 90.4207 67.4082 90.5963 67.5967 90.7092L69.2304 91.6501C69.3367 91.6994 69.4526 91.725 69.5698 91.725C69.687 91.725 69.8028 91.6994 69.9091 91.6501L71.8444 90.5336C71.8732 90.5096 71.8951 90.4785 71.908 90.4434C71.921 90.4083 71.9244 90.3704 71.9181 90.3336C71.9117 90.2967 71.8957 90.2622 71.8718 90.2334C71.8478 90.2047 71.8167 90.1827 71.7815 90.1698L71.7438 90.1823ZM74.8731 88.3885L73.2393 87.4476C73.135 87.3916 73.0185 87.3623 72.9 87.3623C72.7816 87.3623 72.665 87.3916 72.5607 87.4476L70.6254 88.5641C70.4369 88.677 70.4369 88.8526 70.6254 88.953L72.2591 89.8938C72.3634 89.9498 72.48 89.9791 72.5984 89.9791C72.7169 89.9791 72.8334 89.9498 72.9377 89.8938L74.8731 88.7774C75.0993 88.6519 75.0993 88.4763 74.9108 88.3759L74.8731 88.3885ZM77.7258 90.0318L76.0921 89.091C75.9878 89.035 75.8712 89.0057 75.7527 89.0057C75.6343 89.0057 75.5177 89.035 75.4134 89.091L73.4781 90.2074C73.2896 90.3203 73.2896 90.4959 73.4781 90.5963L75.0993 91.5371C75.2058 91.5932 75.3244 91.6225 75.4448 91.6225C75.5653 91.6225 75.6839 91.5932 75.7904 91.5371L77.7635 90.4583C77.952 90.2952 77.952 90.1196 77.7635 90.0193L77.7258 90.0318ZM80.4905 91.5497L78.8945 90.634C78.8097 90.5878 78.7146 90.5637 78.618 90.5637C78.5214 90.5637 78.4264 90.5878 78.3415 90.634L75.6019 92.1895C75.5279 92.2269 75.4461 92.2465 75.3632 92.2465C75.2802 92.2465 75.1984 92.2269 75.1244 92.1895L72.988 90.935C72.8559 90.8668 72.7094 90.8312 72.5607 90.8312C72.412 90.8312 72.2655 90.8668 72.1334 90.935L67.2323 93.7575C66.9935 93.8955 66.9935 94.1088 67.2323 94.2468L71.5051 96.7557C71.6349 96.8238 71.7794 96.8594 71.9261 96.8594C72.0728 96.8594 72.2172 96.8238 72.3471 96.7557L80.4905 92.0766C80.767 91.8884 80.767 91.7128 80.5282 91.5371L80.4905 91.5497Z" fill="#FFFEFB"/>
<path opacity="0.9" d="M86.6369 56.2493L10.5938 100.067V53.1383L86.6369 9.30762V56.2493Z" fill="#282525"/>
<path d="M10.5938 49.8018V57.6297L86.6369 13.799V5.97119L10.5938 49.8018Z" fill="#788EFF"/>
<path d="M24.1543 60.3516L24.4308 60.1885V60.2889C24.4363 60.2985 24.4392 60.3093 24.4392 60.3203C24.4392 60.3313 24.4363 60.3421 24.4308 60.3516L24.1543 60.5147V60.8032C24.1543 60.8032 24.1543 60.8032 24.1543 60.866H24.0664V60.5649L23.7773 60.728V60.6276L24.0664 60.4645V60.176L24.1543 60.1133V60.3516Z" fill="#CFE9FF"/>
<path d="M25.1469 59.7624L25.0338 59.8251H24.971C24.9479 59.871 24.9183 59.9133 24.883 59.9506L24.7573 60.0258C24.7389 59.8172 24.7389 59.6073 24.7573 59.3986L25.4234 59.0098V59.1352L24.9207 59.4237V59.7875C24.9321 59.746 24.9527 59.7075 24.981 59.675C25.0093 59.6424 25.0445 59.6165 25.084 59.5993L25.1972 59.5241C25.2662 59.4992 25.3418 59.4992 25.4108 59.5241C25.4108 59.5241 25.4862 59.5994 25.4862 59.6997V59.9255C25.4864 60.0226 25.4604 60.1179 25.4108 60.2015C25.3549 60.2907 25.2771 60.3641 25.1846 60.4147L25.0212 60.5025C24.9207 60.5653 24.8453 60.5778 24.795 60.5025C24.7447 60.4273 24.707 60.4273 24.707 60.3269C24.707 60.2266 24.707 60.2391 24.707 60.2266L24.8327 60.1513C24.8327 60.3144 24.9081 60.3269 25.0086 60.2768L25.1217 60.214C25.1619 60.191 25.1956 60.1582 25.2198 60.1188C25.2439 60.0793 25.2578 60.0344 25.26 59.9882V59.7875C25.2725 59.7509 25.2725 59.7112 25.26 59.6746C25.2133 59.69 25.1734 59.721 25.1469 59.7624Z" fill="#CFE9FF"/>
<path d="M25.8738 59.7369V59.8874C25.8823 59.933 25.8823 59.9798 25.8738 60.0254L25.7734 60.2763V59.8498L25.9114 59.7745C25.9114 59.7745 25.8738 59.7118 25.8738 59.7369Z" fill="#CFE9FF"/>
<path d="M26.7811 59.4864L26.6554 59.5617V59.3359L26.1276 59.637C26.1189 59.5872 26.1189 59.5363 26.1276 59.4864L26.5675 58.4578C26.6355 58.407 26.7068 58.361 26.7811 58.3198V59.0976L26.9319 59.0223V59.1352L26.7811 59.223V59.4237C26.7866 59.4333 26.7895 59.4441 26.7895 59.4551C26.7895 59.4661 26.7866 59.4769 26.7811 59.4864ZM26.6303 59.1728V58.4704L26.2407 59.3861L26.6303 59.1728Z" fill="#CFE9FF"/>
<path d="M27.5723 58.3693L27.4466 58.432C27.4466 58.5198 27.3838 58.5449 27.3587 58.5574L27.233 58.6327C27.2207 58.4238 27.2207 58.2144 27.233 58.0055C27.2263 57.9851 27.2263 57.9631 27.233 57.9427L27.8991 57.5664V57.6919L27.3964 57.9804V58.3442C27.4249 58.263 27.4833 58.1957 27.5597 58.156L27.6729 58.0807C27.7462 58.0559 27.8257 58.0559 27.8991 58.0807C27.8991 58.0807 27.9745 58.156 27.9745 58.2563V58.4822C27.9703 58.5803 27.9399 58.6756 27.8865 58.7581C27.8335 58.8467 27.7546 58.9167 27.6603 58.9589L27.4969 59.0968C27.3964 59.1595 27.321 59.1721 27.2707 59.0968C27.2204 59.0216 27.1953 59.0215 27.1953 58.9212C27.1953 58.8208 27.1953 58.8334 27.1953 58.8208L27.321 58.7456C27.321 58.9087 27.4089 58.9212 27.4969 58.871L27.61 58.8083C27.6533 58.7879 27.6902 58.7561 27.7168 58.7163C27.7433 58.6765 27.7586 58.6303 27.7608 58.5825V58.3818C27.7608 58.3149 27.7608 58.2773 27.7608 58.2689C27.7608 58.2689 27.6226 58.3316 27.5723 58.3693Z" fill="#CFE9FF"/>
<path d="M28.6285 58.4203L28.4275 58.5458C28.3269 58.5458 28.2515 58.621 28.2013 58.5458C28.151 58.4705 28.1133 58.4705 28.1133 58.3702V58.2698C28.1134 58.2108 28.1257 58.1525 28.1495 58.0985C28.1733 58.0445 28.208 57.9961 28.2515 57.9562C28.1636 57.9562 28.1133 57.9562 28.1133 57.7931V57.6928C28.1133 57.5978 28.1442 57.5053 28.2013 57.4293C28.2615 57.3471 28.3386 57.2787 28.4275 57.2286L28.6285 57.1157C28.7011 57.0864 28.7822 57.0864 28.8547 57.1157C28.8852 57.1329 28.9099 57.1588 28.9256 57.1901C28.9413 57.2214 28.9472 57.2566 28.9427 57.2913V57.3917C28.9533 57.4498 28.9533 57.5092 28.9427 57.5673C28.9166 57.6182 28.8827 57.6648 28.8422 57.7053C28.9302 57.7053 28.9804 57.7053 28.9804 57.8684V57.9687C28.974 58.0626 28.9438 58.1533 28.8924 58.2322C28.8238 58.3182 28.7324 58.3834 28.6285 58.4203ZM28.4526 57.8182L28.6034 57.7304C28.6462 57.7073 28.6818 57.6727 28.7062 57.6307C28.7306 57.5886 28.7429 57.5406 28.7416 57.492V57.4042C28.7522 57.3759 28.7522 57.3447 28.7416 57.3164C28.7416 57.3164 28.6788 57.3164 28.6285 57.3164L28.4777 57.4042C28.4321 57.4275 28.3932 57.4621 28.3646 57.5046C28.352 57.5455 28.352 57.5891 28.3646 57.63V57.7178C28.3227 57.8015 28.3521 57.8433 28.4526 57.8433V57.8182ZM28.4526 58.3576L28.6034 58.2698C28.6457 58.2469 28.6839 58.2172 28.7165 58.182C28.7236 58.1362 28.7236 58.0897 28.7165 58.044V57.9436C28.7165 57.8433 28.7165 57.8182 28.5783 57.8809L28.4275 57.9687C28.3823 57.9866 28.3437 58.0178 28.3167 58.0581C28.2898 58.0985 28.2758 58.146 28.2767 58.1945V58.3074C28.27 58.3211 28.2665 58.3361 28.2665 58.3513C28.2665 58.3665 28.27 58.3816 28.2767 58.3952L28.4526 58.3576Z" fill="#CFE9FF"/>
<path d="M22.6187 60.7529L21.9023 62.3963L23.335 61.5683L22.6187 60.7529Z" fill="#6FAF00"/>
<path d="M32.2482 55.7854L31.8594 56.0113V55.9109L32.2482 55.6851V55.7854C32.2482 55.7854 32.2733 55.7729 32.2482 55.7854Z" fill="#CFE9FF"/>
<path d="M32.4227 55.3334V55.2205C32.4227 55.2205 32.4227 55.2204 32.4227 55.1577L32.6233 54.9194V54.8567L32.7488 54.7939V56.0484L32.6233 56.1237C32.6048 55.7769 32.6048 55.4293 32.6233 55.0824L32.4102 55.3334H32.4227Z" fill="#CFE9FF"/>
<path d="M33.3037 55.459V55.6096C33.3122 55.6552 33.3122 55.7019 33.3037 55.7475L33.2034 55.9985C33.1406 55.9985 33.1406 55.5719 33.1406 55.5719L33.2661 55.4967C33.2661 55.4967 33.3037 55.434 33.3037 55.459Z" fill="#CFE9FF"/>
<path d="M34.0183 55.3345L33.8172 55.4474C33.7167 55.4474 33.6413 55.5226 33.591 55.4474C33.5408 55.3721 33.5156 55.3596 33.5156 55.2718V54.6194C33.5154 54.5223 33.5415 54.427 33.591 54.3434C33.6469 54.2542 33.7248 54.1808 33.8172 54.1302L34.0183 54.0173C34.0539 54.0014 34.0924 53.9932 34.1314 53.9932C34.1704 53.9932 34.2089 54.0014 34.2445 54.0173C34.2445 54.0173 34.3199 54.1051 34.3199 54.1929V54.8452C34.3201 54.9423 34.294 55.0377 34.2445 55.1212C34.1818 55.2046 34.1053 55.2768 34.0183 55.3345ZM33.8423 55.2592L33.9932 55.1839C34.0333 55.1609 34.067 55.1281 34.0912 55.0887C34.1153 55.0492 34.1291 55.0043 34.1314 54.9582V54.3184C34.1314 54.218 34.1314 54.1929 33.9932 54.2557L33.8423 54.3309C33.8005 54.352 33.7654 54.3843 33.741 54.4241C33.7166 54.464 33.7038 54.51 33.7041 54.5567V55.1965C33.7041 55.3345 33.7795 55.3345 33.8423 55.2466V55.2592Z" fill="#CFE9FF"/>
<path d="M35.0379 54.7196L34.8494 54.8325C34.7489 54.8325 34.6735 54.9077 34.6232 54.8325C34.5729 54.7572 34.5352 54.7572 34.5352 54.6568V54.0798C34.5334 53.9806 34.5643 53.8837 34.6232 53.8038C34.6791 53.7146 34.757 53.6411 34.8494 53.5905L35.0379 53.4776C35.1112 53.4528 35.1907 53.4528 35.2641 53.4776C35.3269 53.4776 35.3521 53.5655 35.3521 53.6658V54.3181C35.354 54.4134 35.3229 54.5065 35.2641 54.5816C35.2017 54.646 35.1238 54.6935 35.0379 54.7196ZM34.8745 54.6443L35.0128 54.5691C35.0567 54.5507 35.0937 54.519 35.1185 54.4785C35.1433 54.4379 35.1547 54.3906 35.151 54.3432V53.7035C35.151 53.6031 35.151 53.5905 35.0128 53.6407L34.8745 53.716C34.8334 53.7411 34.7992 53.776 34.7751 53.8176C34.7509 53.8592 34.7376 53.9062 34.7363 53.9543V54.5816C34.7489 54.6819 34.7991 54.707 34.8871 54.6443H34.8745Z" fill="#CFE9FF"/>
<path d="M35.9049 53.5155L36.018 53.4528C36.0613 53.4324 36.0982 53.4005 36.1248 53.3608C36.1513 53.321 36.1665 53.2748 36.1688 53.227V53.1266C36.1688 53.0263 36.1688 53.0137 36.018 53.0639L35.9049 53.1266C35.8618 53.1535 35.8236 53.1874 35.7918 53.227C35.7784 53.2677 35.7784 53.3117 35.7918 53.3525C35.7918 53.4403 35.7918 53.4528 35.7918 53.4653L35.6661 53.5406C35.6385 53.4862 35.6241 53.426 35.6241 53.365C35.6241 53.304 35.6385 53.2438 35.6661 53.1894C35.7228 53.104 35.8007 53.0348 35.8923 52.9887L36.0557 52.8883C36.1562 52.8256 36.2316 52.813 36.2819 52.8883C36.3322 52.9635 36.3699 52.9636 36.3699 53.0639V53.1643C36.3704 53.2259 36.3559 53.2867 36.3274 53.3414C36.2989 53.3961 36.2574 53.4429 36.2065 53.4779C36.3196 53.4779 36.3699 53.4779 36.3699 53.6033V53.7162C36.3717 53.8153 36.3408 53.9123 36.2819 53.9922C36.2224 54.0784 36.1453 54.1511 36.0557 54.2055L35.8923 54.2933C35.7918 54.356 35.7164 54.3685 35.6661 54.2933C35.6158 54.218 35.5781 54.218 35.5781 54.1302V54.08L35.7038 54.0047V54.08V54.1678C35.7038 54.1678 35.7038 54.1678 35.8169 54.1678L35.93 54.1051C35.9733 54.0846 36.0102 54.0529 36.0368 54.0131C36.0633 53.9733 36.0786 53.927 36.0808 53.8793V53.7664C36.0808 53.6786 36.0808 53.6535 35.93 53.7037L35.8169 53.7664V53.6661C35.807 53.6603 35.7983 53.6526 35.7914 53.6435C35.7845 53.6344 35.7794 53.624 35.7765 53.613C35.7736 53.6019 35.7729 53.5903 35.7744 53.579C35.776 53.5677 35.7797 53.5568 35.7855 53.5469C35.7913 53.537 35.799 53.5284 35.8081 53.5214C35.8172 53.5145 35.8276 53.5094 35.8387 53.5065C35.8498 53.5036 35.8613 53.5029 35.8727 53.5044C35.884 53.506 35.895 53.5097 35.9049 53.5155Z" fill="#CFE9FF"/>
<path d="M30.853 57.2535L30.1367 56.4256L31.5693 55.5977L30.853 57.2535Z" fill="#DB3E3E"/>
<path d="M40.591 50.8176L40.88 50.6546V50.7549L40.591 50.9055V51.194C40.5965 51.2035 40.5994 51.2143 40.5994 51.2253C40.5994 51.2363 40.5965 51.2471 40.591 51.2567H40.503V50.9556L40.2266 51.1187V51.0183L40.503 50.8553V50.5793C40.4975 50.5698 40.4946 50.559 40.4946 50.548C40.4946 50.5369 40.4975 50.5261 40.503 50.5166H40.591V50.8176Z" fill="#CFE9FF"/>
<path d="M41.1066 50.3162V50.2033C41.0999 50.183 41.0999 50.161 41.1066 50.1406L41.3198 49.8897H41.3825L41.4955 49.8145V51.0689L41.37 51.1442C41.3515 50.7973 41.3515 50.4498 41.37 50.1029L41.1568 50.3539L41.1066 50.3162Z" fill="#CFE9FF"/>
<path d="M41.9871 50.4537V50.6042C41.9941 50.65 41.9941 50.6965 41.9871 50.7422L41.8867 50.9931V50.5666L42.0247 50.4913C42.0247 50.4913 41.9871 50.4286 41.9871 50.4537Z" fill="#CFE9FF"/>
<path d="M42.5783 49.7017L42.6788 49.6389C42.724 49.6211 42.7626 49.5899 42.7896 49.5496C42.8165 49.5092 42.8305 49.4616 42.8296 49.4132V49.3128C42.8296 49.2125 42.8296 49.1999 42.6788 49.2501L42.5657 49.3253C42.5209 49.3442 42.4819 49.3745 42.4526 49.4132C42.4456 49.4547 42.4456 49.4971 42.4526 49.5386C42.4526 49.6264 42.4526 49.639 42.4526 49.6515L42.3269 49.7268C42.3013 49.674 42.2881 49.6161 42.2881 49.5574C42.2881 49.4988 42.3013 49.4409 42.3269 49.3881C42.3791 49.2959 42.458 49.2216 42.5532 49.1748L42.7165 49.0745C42.817 49.0745 42.8925 48.9992 42.9427 49.0745C42.993 49.1497 43.0307 49.1497 43.0307 49.2501V49.363C43.0292 49.4225 43.0137 49.4808 42.9853 49.5331C42.9569 49.5855 42.9165 49.6303 42.8673 49.6641C42.9804 49.6641 43.0307 49.664 43.0307 49.802V49.9149C43.0307 50.0099 42.9998 50.1024 42.9427 50.1784C42.8869 50.2676 42.8089 50.341 42.7165 50.3916L42.5532 50.492C42.4798 50.5169 42.4003 50.5169 42.3269 50.492C42.2975 50.4737 42.2737 50.4475 42.2582 50.4165C42.2427 50.3856 42.236 50.3509 42.239 50.3164V50.2411L42.3646 50.1658V50.2537C42.3559 50.2823 42.3559 50.3128 42.3646 50.3414C42.4011 50.3549 42.4413 50.3549 42.4778 50.3414L42.5909 50.2787C42.636 50.2609 42.6746 50.2297 42.7016 50.1893C42.7285 50.149 42.7425 50.1014 42.7417 50.0529V49.94C42.7417 49.8522 42.7417 49.8271 42.5909 49.94L42.4903 50.0027V49.9024C42.4636 49.8908 42.4427 49.869 42.4321 49.842C42.4215 49.8149 42.4221 49.7847 42.4338 49.7581C42.4454 49.7315 42.4672 49.7106 42.4943 49.7C42.5214 49.6895 42.5516 49.69 42.5783 49.7017Z" fill="#CFE9FF"/>
<path d="M43.7068 49.7261L43.4932 49.8516C43.4619 49.8772 43.4257 49.8961 43.3867 49.9069C43.3477 49.9177 43.3069 49.9202 43.2669 49.9143C43.2669 49.9143 43.1915 49.8265 43.1915 49.7387V49.6258C43.1945 49.5072 43.2442 49.3945 43.3298 49.3122C43.2418 49.3122 43.1915 49.3121 43.1915 49.1616V49.0613C43.1895 48.9679 43.2158 48.8761 43.2669 48.7978C43.3296 48.7144 43.4061 48.6423 43.4932 48.5846L43.7068 48.4717C43.7793 48.4424 43.8604 48.4424 43.933 48.4717C43.933 48.4717 44.0084 48.5595 44.0084 48.6473V48.7477C44.0203 48.8056 44.0203 48.8654 44.0084 48.9233C43.9866 48.9737 43.9569 49.0203 43.9204 49.0613C44.0084 49.0613 44.0461 49.0613 44.0461 49.2244V49.3247C44.0481 49.4181 44.0218 49.5099 43.9707 49.5882C43.8987 49.6597 43.8067 49.7078 43.7068 49.7261ZM43.5183 49.124L43.6817 49.0362C43.7235 49.0152 43.7586 48.9828 43.783 48.9429C43.8074 48.903 43.8202 48.8571 43.8199 48.8104V48.71C43.8199 48.71 43.8199 48.6347 43.8199 48.6222C43.8199 48.6097 43.8199 48.6222 43.7194 48.6222L43.556 48.7226C43.517 48.7449 43.4828 48.7747 43.4555 48.8104C43.4429 48.8512 43.4429 48.8949 43.4555 48.9358V49.0613C43.38 49.1616 43.4303 49.1742 43.5183 49.124ZM43.5183 49.6759L43.6817 49.5756C43.7229 49.5565 43.7577 49.526 43.7822 49.4878C43.7948 49.4469 43.7948 49.4032 43.7822 49.3623V49.2494C43.7822 49.1616 43.7822 49.1365 43.644 49.2494L43.4806 49.3372C43.4395 49.3623 43.4053 49.3973 43.3811 49.4389C43.357 49.4805 43.3436 49.5275 43.3423 49.5756V49.6759C43.3423 49.6759 43.3423 49.7512 43.3423 49.7638C43.3589 49.7749 43.3782 49.7814 43.3982 49.7827C43.4181 49.7839 43.438 49.7799 43.4559 49.771C43.4738 49.762 43.489 49.7486 43.4999 49.7319C43.5109 49.7152 43.5172 49.6959 43.5183 49.6759Z" fill="#CFE9FF"/>
<path d="M44.7245 49.1498L44.536 49.2501C44.4354 49.3129 44.36 49.3254 44.3098 49.2501C44.2595 49.1749 44.2344 49.1749 44.2344 49.0745V48.4222C44.2342 48.3251 44.2602 48.2298 44.3098 48.1462C44.3664 48.0609 44.4444 47.9917 44.536 47.9455L44.9255 47.7197V47.8326L44.5611 48.0459C44.5193 48.0669 44.4842 48.0992 44.4597 48.1391C44.4353 48.179 44.4225 48.2249 44.4229 48.2717V48.4348L44.7245 48.2591C44.7978 48.2343 44.8773 48.2343 44.9507 48.2591C44.9801 48.2775 45.0039 48.3036 45.0194 48.3346C45.0349 48.3656 45.0416 48.4002 45.0386 48.4348V48.6104C45.0344 48.7086 45.0041 48.8038 44.9507 48.8863C44.9022 48.994 44.8236 49.0855 44.7245 49.1498ZM44.5611 49.0745L44.6993 48.9993C44.7422 48.9761 44.7778 48.9416 44.8022 48.8996C44.8266 48.8575 44.8388 48.8095 44.8376 48.7609V48.6104C44.8376 48.5101 44.8376 48.4975 44.6993 48.5477L44.4229 48.7107V49.062C44.4229 49.062 44.4731 49.1247 44.5611 49.062V49.0745Z" fill="#CFE9FF"/>
<path d="M39.0718 51.2695L38.3555 52.9254L39.7881 52.0975L39.0718 51.2695Z" fill="#6FAF00"/>
<path d="M48.6975 46.3146L48.3086 46.5403V46.4274L48.6975 46.2017V46.302C48.6979 46.3062 48.6979 46.3104 48.6975 46.3146Z" fill="#CFE9FF"/>
<path d="M49.2494 45.8249L49.35 45.7621C49.3952 45.7443 49.4338 45.7131 49.4607 45.6727C49.4877 45.6324 49.5017 45.5848 49.5008 45.5363V45.436C49.5008 45.3482 49.5008 45.3231 49.35 45.436L49.2369 45.4987C49.1946 45.5216 49.1564 45.5513 49.1238 45.5865C49.1167 45.6323 49.1167 45.6788 49.1238 45.7245C49.1238 45.7998 49.1238 45.8123 49.1238 45.8249L48.9981 45.9001C48.9706 45.8479 48.9562 45.7898 48.9562 45.7308C48.9562 45.6718 48.9706 45.6136 48.9981 45.5614C49.054 45.4722 49.1319 45.3988 49.2243 45.3482L49.3877 45.2478C49.4882 45.2478 49.5636 45.1725 49.6139 45.2478C49.6642 45.3231 49.7019 45.3356 49.7019 45.4234V45.5363C49.6995 45.5974 49.6836 45.6572 49.6554 45.7114C49.6271 45.7656 49.5872 45.813 49.5385 45.85C49.6516 45.85 49.7019 45.85 49.7019 45.9754V46.0883C49.706 46.1839 49.6747 46.2777 49.6139 46.3517C49.558 46.441 49.4801 46.5144 49.3877 46.565L49.2243 46.6653C49.1238 46.6653 49.0484 46.7406 48.9981 46.6653C48.9478 46.5901 48.9102 46.5901 48.9102 46.4897V46.4145L49.0358 46.3392C49.0417 46.3531 49.0447 46.368 49.0447 46.3831C49.0447 46.3982 49.0417 46.4131 49.0358 46.427C49.0252 46.4553 49.0252 46.4865 49.0358 46.5148C49.0729 46.5244 49.1118 46.5244 49.1489 46.5148L49.262 46.4395C49.3072 46.4217 49.3458 46.3905 49.3727 46.3501C49.3997 46.3098 49.4137 46.2622 49.4128 46.2137V46.1134C49.4128 46.013 49.4128 45.9879 49.262 46.0507L49.1615 46.1134V46.013C49.1365 46.0014 49.1171 45.9803 49.1077 45.9544C49.0983 45.9285 49.0996 45.9 49.1112 45.875C49.1229 45.8501 49.144 45.8308 49.1699 45.8214C49.1958 45.8119 49.2244 45.8132 49.2494 45.8249Z" fill="#CFE9FF"/>
<path d="M50.1162 45.775V45.9255C50.1248 45.9753 50.1248 46.0262 50.1162 46.076L50.0159 46.3269C49.9531 46.3269 49.9531 45.8879 49.9531 45.8879L50.0911 45.8126C50.0911 45.8126 50.1162 45.7624 50.1162 45.775Z" fill="#CFE9FF"/>
<path d="M50.7846 45.6497L50.3825 45.8881V45.7752L50.7595 45.5494C50.8013 45.5284 50.8364 45.496 50.8608 45.4561C50.8853 45.4162 50.898 45.3703 50.8977 45.3236V45.173L50.5961 45.3487C50.5228 45.3735 50.4433 45.3735 50.3699 45.3487C50.3405 45.3303 50.3167 45.3042 50.3011 45.2732C50.2856 45.2422 50.279 45.2076 50.2819 45.173V44.9849C50.2861 44.8867 50.3165 44.7914 50.3699 44.7089C50.4266 44.6235 50.5045 44.5543 50.5961 44.5082L50.7846 44.3953C50.8851 44.3953 50.9605 44.32 51.0108 44.3953C51.0611 44.4705 51.0862 44.4706 51.0862 44.5709V45.2232C51.0864 45.3203 51.0604 45.4157 51.0108 45.4992C50.9481 45.5663 50.8707 45.6178 50.7846 45.6497ZM50.6212 45.1103L50.8977 44.9472V44.6336C50.8977 44.5458 50.8977 44.5207 50.7595 44.5709L50.6212 44.6462C50.5801 44.6713 50.5459 44.7062 50.5218 44.7478C50.4976 44.7894 50.4843 44.8364 50.483 44.8845V45.0476C50.483 45.1479 50.5333 45.1605 50.6212 45.1103Z" fill="#CFE9FF"/>
<path d="M51.7523 44.433L51.6267 44.5083H51.5638C51.5638 44.5961 51.5638 44.6212 51.4758 44.6337L51.3502 44.709C51.3379 44.5001 51.3379 44.2906 51.3502 44.0817L52.0163 43.6929V43.8183L51.5135 44.1068V44.4706C51.5421 44.3895 51.6005 44.3222 51.6769 44.2825L51.79 44.2072C51.8634 44.1823 51.9429 44.1823 52.0163 44.2072C52.0163 44.2072 52.0917 44.295 52.0917 44.3828V44.6086C52.0935 44.7078 52.0626 44.8048 52.0037 44.8846C51.9478 44.9739 51.8699 45.0473 51.7775 45.0979L51.6141 45.1857C51.5136 45.2484 51.4382 45.2609 51.3879 45.1857C51.3376 45.1104 51.3125 45.1104 51.3125 45.01C51.3125 44.9097 51.3125 44.9222 51.3125 44.9097L51.4381 44.8344C51.4381 44.9975 51.5261 45.0101 51.6141 44.9599L51.7272 44.8971C51.7705 44.8767 51.8074 44.8449 51.834 44.8051C51.8605 44.7653 51.8758 44.7191 51.878 44.6713V44.4706C51.878 44.4079 51.878 44.3703 51.878 44.3703C51.853 44.3623 51.8259 44.3643 51.8024 44.3761C51.7789 44.3878 51.7609 44.4082 51.7523 44.433Z" fill="#CFE9FF"/>
<path d="M52.6306 43.881L52.7437 43.8183C52.7855 43.7972 52.8206 43.765 52.8451 43.7251C52.8695 43.6852 52.8823 43.6392 52.882 43.5925V43.4921C52.882 43.4043 52.8819 43.3792 52.7437 43.4921L52.618 43.5548C52.5794 43.5776 52.5453 43.6074 52.5175 43.6426C52.5046 43.6877 52.5046 43.7356 52.5175 43.7806C52.5175 43.8559 52.5175 43.8684 52.5175 43.881L52.3918 43.9562C52.3478 43.8476 52.3478 43.7262 52.3918 43.6176C52.4477 43.5283 52.5256 43.4549 52.618 43.4043L52.794 43.3039C52.8295 43.288 52.8681 43.2798 52.9071 43.2798C52.9461 43.2798 52.9846 43.288 53.0202 43.3039C53.0202 43.3039 53.0956 43.3917 53.0956 43.4795V43.5925C53.0932 43.6523 53.0786 43.7109 53.0526 43.7648C53.0267 43.8188 52.99 43.8668 52.9448 43.9061C53.0453 43.9061 53.0956 43.9061 53.0956 44.0315V44.0441C53.0976 44.1375 53.0713 44.2293 53.0202 44.3075C52.9575 44.3909 52.881 44.4631 52.794 44.5208L52.618 44.6211C52.5175 44.6211 52.4421 44.6964 52.3918 44.6211C52.3415 44.5458 52.3164 44.5459 52.3164 44.4455V44.3702L52.4421 44.295C52.448 44.3089 52.451 44.3238 52.451 44.3388C52.451 44.3539 52.448 44.3689 52.4421 44.3828C52.4421 44.3828 52.4421 44.458 52.4421 44.4706C52.4421 44.4831 52.4421 44.4706 52.5426 44.4706L52.6683 44.3953C52.7101 44.3743 52.7452 44.342 52.7697 44.3021C52.7941 44.2622 52.8069 44.2163 52.8066 44.1695V44.0441C52.8066 43.9437 52.8065 43.9186 52.6683 43.9814L52.6306 44.0441V43.9437C52.6251 43.9342 52.6222 43.9233 52.6222 43.9123C52.6222 43.9013 52.6251 43.8905 52.6306 43.881Z" fill="#CFE9FF"/>
<path d="M47.2906 47.7691L46.5742 46.9412L48.0069 46.1133L47.2906 47.7691Z" fill="#DB3E3E"/>
<g opacity="0.2">
<path opacity="0.2" d="M82.5913 50.3164L58.4375 64.2408L82.5913 50.3164Z" fill="#CFE9FF"/>
<path opacity="0.2" d="M82.5913 45.562L58.4375 59.4865L82.5913 45.5244V45.562Z" fill="#CFE9FF"/>
<path opacity="0.2" d="M82.5913 40.7831L58.4375 54.695L82.5913 40.7329V40.7831Z" fill="#CFE9FF"/>
<path opacity="0.2" d="M82.5913 35.9903L58.4375 49.9147L82.5913 35.9526V35.9903Z" fill="#CFE9FF"/>
<path opacity="0.2" d="M82.5913 31.1993L58.4375 45.1237L82.5913 31.1616V31.1993Z" fill="#CFE9FF"/>
<path opacity="0.2" d="M82.5913 26.4819L58.4375 40.2809L82.5913 26.3188V26.4819Z" fill="#CFE9FF"/>
</g>
<path d="M14.053 95.0739V66.2842L13.5 66.5978V66.7484L13.9022 66.5226V71.1641L13.5 71.4024V71.5529L13.9022 71.3146V75.9686L13.5 76.1944V76.345L13.9022 76.1191V80.7606L13.5 80.999V81.1495L13.9022 80.9112V85.5652L13.5 85.791V85.9415L13.9022 85.7157V90.3572L13.5 90.5955V90.7461L13.9022 90.5077V95.3123L63.2246 66.3723V66.8365L63.3754 66.7486V66.2845L68.0252 63.6V64.0641L68.176 63.9763V63.5122L72.8384 60.8276V61.2918L72.9892 61.204V60.7398L77.639 58.0678V58.532L77.7898 58.4442V57.98L82.4521 55.2955V55.7596L82.603 55.6718V55.0571L14.053 95.0739Z" fill="#CFE9FF"/>
<path d="M20.4812 90.6228L18.7344 91.6264V86.0031L20.4812 84.9995L20.4812 90.6228Z" fill="#D457D6"/>
<path d="M18.7342 91.6265L17 92.63V88.5035L18.7342 87.5V91.6265Z" fill="#FFD91F"/>
<path d="M22.2273 89.6194L20.4805 90.6229V82.9996L22.2273 81.9961L22.2273 89.6194Z" fill="#7C36CE"/>
<path d="M23.7342 88.8352L22 89.8388V81.4997L23.7342 80.4961L23.7342 88.8352Z" fill="#D457D6"/>
<path d="M25.4812 87.8322L23.7344 88.8357V80.0035L25.4812 79L25.4812 87.8322Z" fill="#FFD91F"/>
<path d="M56.7468 68.8322L55 69.8357V61.0035L56.7468 60L56.7468 68.8322Z" fill="#FFD91F"/>
<path d="M40.7468 79L39 80V71.0035L40.7468 70V79Z" fill="#FFD91F"/>
<path d="M27.2273 86.8285L25.4805 87.8321V78.5007L27.2273 77.4971V86.8285Z" fill="#788EFF"/>
<path d="M58.4929 67.8285L56.7461 68.8321V59.5007L58.4929 58.4971V67.8285Z" fill="#788EFF"/>
<path d="M42.4929 77.8285L40.7461 78.8321V69.5007L42.4929 68.4971V77.8285Z" fill="#788EFF"/>
<path d="M28.9733 85.8241L27.2266 86.8277V76.5035L28.9733 75.5V85.8241Z" fill="#FFD91F"/>
<path d="M60.239 66.8241L58.4922 67.8277V57.5035L60.239 56.5V66.8241Z" fill="#FFD91F"/>
<path d="M44.239 76.8241L42.4922 77.8277V67.5035L44.239 66.5V76.8241Z" fill="#FFD91F"/>
<path d="M30.7108 84.8216L28.9766 85.8252V75.0006L30.7108 73.9971V84.8216Z" fill="#788EFF"/>
<path d="M61.9765 65.8216L60.2422 66.8252V56.0006L61.9765 54.9971V65.8216Z" fill="#788EFF"/>
<path d="M45.9765 75.8216L44.2422 76.8252V66.0006L45.9765 64.9971V75.8216Z" fill="#788EFF"/>
<path d="M32.4579 83.8184L30.711 84.822L30.7109 73.5036L32.4578 72.5L32.4579 83.8184Z" fill="#7C36CE"/>
<path d="M63.7234 64.8181L61.9766 65.8217L61.9767 51.4997L63.7235 50.4961L63.7234 64.8181Z" fill="#7C36CE"/>
<path d="M47.7235 74.8184L45.9767 75.822L45.9766 64.5036L47.7234 63.5L47.7235 74.8184Z" fill="#7C36CE"/>
<path d="M34.2038 82.8136L32.457 83.8172V72.0036L34.2038 71L34.2038 82.8136Z" fill="#788EFF"/>
<path d="M65.4694 63.813L63.7227 64.8165L63.7227 49.4997L65.4694 48.4961L65.4694 63.813Z" fill="#788EFF"/>
<path d="M49.4694 73.8136L47.7227 74.8172V63.0036L49.4694 62L49.4694 73.8136Z" fill="#788EFF"/>
<path d="M35.9374 81.8103L34.2031 82.8138V70.0036L35.9374 69V81.8103Z" fill="#7C36CE"/>
<path d="M67.203 62.8106L65.4688 63.8142V44.0036L67.203 43V62.8106Z" fill="#7C36CE"/>
<path d="M51.203 72.8103L49.4688 73.8138V61.0036L51.203 60V72.8103Z" fill="#7C36CE"/>
<path d="M37.6843 80.7935L35.9375 81.8096V71.5035L37.6843 70.5V80.7935Z" fill="#D457D6"/>
<path d="M52.9499 71.7935L51.2031 72.8096V62.5035L52.9499 61.5V71.7935Z" fill="#D457D6"/>
<path d="M39.4304 79.7919L37.6836 80.7955L37.6836 75.0006L39.4304 73.9971L39.4304 79.7919Z" fill="#FFD91F"/>
<path d="M54.9998 70L52.9492 71.7955L52.9492 66.0006L54.9998 64.5V70Z" fill="#7C36CE"/>
<path opacity="0.7" d="M24.4676 55.6976L13.8359 61.8193V58.7585L24.4676 52.6367V55.6976Z" fill="#788EFF"/>
<path opacity="0.5" d="M35.1122 49.5638L24.4805 55.6855V52.6246L35.1122 46.5029V49.5638Z" fill="#788EFF"/>
<path opacity="0.7" d="M45.7567 43.429L35.125 49.5508V46.4899L45.7567 40.3682V43.429Z" fill="#788EFF"/>
<path opacity="0.5" d="M56.4012 37.2947L45.7695 43.4164V40.3556L56.4012 34.2339V37.2947Z" fill="#788EFF"/>
<path d="M13.4205 53.9169L12.9178 54.2054C12.8424 54.2054 12.8047 54.2054 12.8047 54.2054V50.7305C12.806 50.6922 12.817 50.6548 12.8368 50.6218C12.8566 50.5889 12.8845 50.5616 12.9178 50.5424L14.7651 49.4761C14.8405 49.4761 14.8782 49.4761 14.8782 49.4761V49.865C14.8797 49.9039 14.8698 49.9424 14.8497 49.9759C14.8296 50.0093 14.8002 50.0361 14.7651 50.0532L13.609 50.718C13.609 50.718 13.5336 50.7807 13.5336 50.8309V51.7216C13.5336 51.7216 13.5336 51.7843 13.609 51.7216L14.5892 51.1571C14.6772 51.1571 14.7149 51.1571 14.7149 51.1571V51.546C14.7161 51.5881 14.7048 51.6296 14.6825 51.6653C14.6601 51.701 14.6277 51.7294 14.5892 51.7467L13.609 52.3112C13.5879 52.3186 13.5694 52.3321 13.556 52.3499C13.5426 52.3678 13.5348 52.3893 13.5336 52.4115V53.666C13.5503 53.7143 13.5479 53.7672 13.5269 53.8138C13.5058 53.8604 13.4678 53.8973 13.4205 53.9169Z" fill="#F0F2FF"/>
<path d="M17.3056 47.9698L17.7957 47.6938C17.8836 47.6938 17.9213 47.6938 17.9213 47.6938V50.3533C17.918 50.6514 17.8309 50.9426 17.67 51.1938C17.4924 51.4622 17.2505 51.6821 16.9662 51.8335L16.3253 52.2099C16.2267 52.286 16.1127 52.3399 15.9913 52.3681C15.8698 52.3962 15.7437 52.3979 15.6216 52.373C15.4582 52.2977 15.3828 52.1221 15.3828 51.8085V49.1615C15.3841 49.1232 15.3951 49.0858 15.4149 49.0529C15.4347 49.0199 15.4626 48.9926 15.4959 48.9734L15.986 48.6849C16.074 48.6849 16.1117 48.6849 16.1117 48.6849V51.2941C16.1117 51.4196 16.1117 51.4949 16.1871 51.5074C16.2625 51.5199 16.3253 51.5074 16.451 51.5074L16.8406 51.269C16.9488 51.2213 17.0406 51.1427 17.1045 51.0432C17.1617 50.9532 17.1922 50.8488 17.1925 50.7422V48.1204C17.1994 48.0886 17.213 48.0587 17.2326 48.0328C17.2521 48.0068 17.277 47.9853 17.3056 47.9698Z" fill="#F0F2FF"/>
<path d="M19.2399 50.5669L18.7624 50.8428C18.687 50.8428 18.6367 50.8428 18.6367 50.8428V47.368C18.6404 47.3287 18.6538 47.2909 18.6758 47.2581C18.6977 47.2253 18.7275 47.1984 18.7624 47.1798L19.2022 46.9289C19.2776 46.9289 19.3279 46.9289 19.353 46.9289L20.5218 48.4468V46.2892C20.5205 46.2471 20.5318 46.2056 20.5542 46.1698C20.5765 46.1341 20.609 46.1058 20.6474 46.0885L21.125 45.8125C21.2129 45.8125 21.2507 45.8125 21.2507 45.8125V49.2873C21.2495 49.3273 21.2371 49.3661 21.2149 49.3994C21.1927 49.4327 21.1615 49.459 21.125 49.4755L20.7103 49.7138C20.6265 49.764 20.5637 49.764 20.5218 49.7138L19.3656 48.2336V50.3787C19.3644 50.4186 19.352 50.4575 19.3298 50.4908C19.3076 50.524 19.2764 50.5504 19.2399 50.5669Z" fill="#F0F2FF"/>
<path d="M22.0314 48.8358V45.3735C22.0299 45.3345 22.0398 45.296 22.0599 45.2626C22.08 45.2292 22.1094 45.2023 22.1445 45.1853L23.5771 44.3574C23.6758 44.2813 23.7897 44.2273 23.9112 44.1992C24.0326 44.171 24.1587 44.1694 24.2809 44.1943C24.4443 44.2695 24.5322 44.4452 24.5322 44.7462V46.5527C24.5303 46.851 24.4431 47.1426 24.2809 47.3932C24.1007 47.6626 23.8596 47.886 23.5771 48.0455L22.1445 48.8609C22.0691 48.9361 22.0314 48.9236 22.0314 48.8358ZM22.8231 47.8698L23.4515 47.5061C23.5584 47.4505 23.6493 47.3684 23.7154 47.2677C23.7695 47.1769 23.7957 47.0722 23.7908 46.9666V45.2104C23.7908 45.0849 23.7657 45.0097 23.7154 44.9846C23.6211 44.9757 23.5268 45.0026 23.4515 45.0599L22.8231 45.4237C22.8052 45.4339 22.7901 45.4485 22.7791 45.466C22.7682 45.4835 22.7617 45.5034 22.7603 45.524V47.8071C22.7603 47.8071 22.7854 47.8949 22.8231 47.8698Z" fill="#F0F2FF"/>
<path d="M28.9684 41.2465L29.823 40.7573C29.8984 40.7573 29.9361 40.7573 29.9361 40.7573V44.2321C29.9348 44.2705 29.9238 44.3079 29.904 44.3409C29.8842 44.3738 29.8563 44.4011 29.823 44.4203L29.3454 44.6963C29.27 44.6963 29.2198 44.6963 29.2198 44.6963V41.9616L28.6166 44.2447C28.5928 44.3279 28.539 44.3993 28.4657 44.4454L27.9756 44.7214C27.9128 44.7214 27.8625 44.7214 27.8374 44.7214L27.2342 43.1282V45.888C27.2342 45.888 27.2342 45.9758 27.2342 46.0009C27.2142 46.0352 27.1832 46.0617 27.1462 46.0762L26.6686 46.3522C26.5807 46.3522 26.543 46.3522 26.543 46.3522V42.7895C26.5441 42.7496 26.5566 42.7107 26.5788 42.6774C26.601 42.6442 26.6321 42.6178 26.6686 42.6014L27.5232 42.1121C27.5232 42.1121 27.6237 42.1121 27.6363 42.1121L28.2521 43.7931L28.9056 41.3845C28.91 41.3327 28.9322 41.2839 28.9684 41.2465Z" fill="#F0F2FF"/>
<path d="M31.0792 43.7434L30.5262 44.0695C30.4508 44.0695 30.4257 44.0696 30.4508 43.9817L31.3682 39.9925C31.38 39.9447 31.4018 39.8999 31.4321 39.861C31.4624 39.8221 31.5006 39.79 31.5441 39.7667L32.3107 39.3277C32.4112 39.265 32.4615 39.3277 32.4867 39.3277L33.404 42.2757C33.413 42.3074 33.4104 42.3412 33.3965 42.3711C33.3827 42.4011 33.3586 42.425 33.3286 42.4388L32.7757 42.7524C32.7757 42.7524 32.7003 42.7524 32.6877 42.7524C32.683 42.7275 32.683 42.702 32.6877 42.6771L32.5243 42.1377L31.4059 42.79L31.2425 43.5176V43.6305L31.0792 43.7434ZM31.9211 40.2434L31.5064 42.1502L32.361 41.661L31.9463 40.2309L31.9211 40.2434Z" fill="#F0F2FF"/>
<path d="M34.5094 41.7608L34.0319 42.0368C33.9565 42.0368 33.9062 42.0368 33.9062 42.0368V38.5243C33.9079 38.4828 33.9203 38.4425 33.9423 38.4073C33.9644 38.3721 33.9953 38.3432 34.0319 38.3236L34.4717 38.0852C34.5471 38.0852 34.5975 38.0225 34.6226 38.0852L35.7913 39.5906V37.4329C35.7925 37.393 35.8049 37.3541 35.8271 37.3208C35.8493 37.2876 35.8805 37.2612 35.917 37.2447L36.3945 36.9688C36.4825 36.9688 36.5202 36.9688 36.5202 36.9688V40.4311C36.5214 40.4732 36.5102 40.5147 36.4878 40.5504C36.4655 40.5862 36.433 40.6145 36.3945 40.6318L35.9798 40.8701C35.8918 40.8701 35.829 40.8701 35.7913 40.8701L34.6351 39.3899V41.5476C34.6411 41.592 34.6319 41.6372 34.6091 41.6758C34.5863 41.7145 34.5512 41.7444 34.5094 41.7608Z" fill="#F0F2FF"/>
<path d="M37.6762 39.9414L37.1233 40.255C37.0604 40.255 37.0353 40.255 37.0604 40.1797L37.9653 36.178C37.9977 36.0889 38.0598 36.0136 38.1412 35.9648L38.9078 35.5132C39.0083 35.5132 39.0712 35.5132 39.0838 35.5132L40.0012 38.4611C40.0012 38.5197 39.976 38.5699 39.9258 38.6117L39.3728 38.9378C39.3443 38.9474 39.3134 38.9474 39.2848 38.9378V38.8625L39.134 38.3231L38.003 38.9629L37.8396 39.6905C37.843 39.7322 37.843 39.7742 37.8396 39.8159C37.8034 39.8772 37.7449 39.9222 37.6762 39.9414ZM38.5182 36.4415L38.1035 38.3482L38.9581 37.859L38.5434 36.4289L38.5182 36.4415Z" fill="#F0F2FF"/>
<path d="M42.024 37.4324L41.4082 37.7837C41.1066 37.9593 40.8679 38.022 40.7045 37.9468C40.5411 37.8715 40.4531 37.6959 40.4531 37.3948V35.5633C40.4551 35.265 40.5423 34.9734 40.7045 34.7228C40.8855 34.4574 41.1266 34.2382 41.4082 34.083L42.024 33.7192C42.3256 33.5562 42.5518 33.4934 42.7278 33.5687C42.9037 33.644 42.9665 33.8196 42.9665 34.1207V34.2963C42.968 34.3353 42.9581 34.3738 42.938 34.4072C42.918 34.4406 42.8885 34.4675 42.8534 34.4845L42.3633 34.773C42.2753 34.773 42.2377 34.773 42.2377 34.7103V34.5723C42.2377 34.4594 42.2377 34.3841 42.1623 34.359C42.0869 34.3339 42.024 34.359 41.8983 34.4343L41.5213 34.6476C41.4188 34.699 41.332 34.777 41.27 34.8734C41.2172 34.9647 41.191 35.069 41.1946 35.1744V36.9432C41.1946 37.0686 41.1946 37.1314 41.27 37.1565C41.3454 37.1816 41.4082 37.1565 41.5213 37.0812L41.8983 36.8679C42.0041 36.8163 42.095 36.7386 42.1623 36.6421C42.2151 36.5508 42.2412 36.4465 42.2377 36.341V35.9773C42.2377 35.9773 42.2376 35.9773 42.1748 35.9773L41.8229 36.1654C41.7475 36.1654 41.7098 36.1654 41.7098 36.1654V35.7766C41.7111 35.7382 41.7221 35.7008 41.7419 35.6678C41.7617 35.6349 41.7896 35.6076 41.8229 35.5884L42.8409 34.9988C42.9288 34.9988 42.9665 34.9988 42.9665 34.9988V35.9647C42.969 36.2619 42.8861 36.5536 42.7278 36.8052C42.542 37.0632 42.3018 37.2773 42.024 37.4324Z" fill="#F0F2FF"/>
<path d="M45.6826 35.3252L43.785 36.4166C43.7096 36.4166 43.6719 36.4166 43.6719 36.4166V32.9543C43.6752 32.9082 43.6927 32.8642 43.7219 32.8283C43.7511 32.7924 43.7907 32.7663 43.8353 32.7536L45.7329 31.6748C45.8083 31.6748 45.846 31.6748 45.846 31.6748V32.0637C45.8475 32.1026 45.8375 32.1411 45.8174 32.1745C45.7974 32.208 45.768 32.2348 45.7329 32.2518L44.4762 32.9543C44.4582 32.9646 44.4431 32.9791 44.4322 32.9966C44.4212 33.0141 44.4147 33.0341 44.4133 33.0547V33.8073C44.4133 33.8073 44.4133 33.8073 44.4762 33.8073L45.4689 33.2303C45.5569 33.2303 45.5946 33.2303 45.5946 33.2303V33.6317C45.5935 33.6717 45.5811 33.7105 45.5588 33.7438C45.5366 33.7771 45.5055 33.8035 45.4689 33.8199L44.4762 34.3844C44.4582 34.3947 44.4431 34.4092 44.4322 34.4267C44.4212 34.4442 44.4147 34.4642 44.4133 34.4848V35.2876C44.4133 35.2876 44.4133 35.2876 44.4762 35.2876L45.7329 34.5977C45.8083 34.5977 45.846 34.5977 45.846 34.5977V34.9865C45.8743 35.0161 45.8929 35.0535 45.8993 35.0939C45.9057 35.1342 45.8997 35.1756 45.8819 35.2124C45.8641 35.2492 45.8355 35.2798 45.7999 35.2999C45.7643 35.3201 45.7234 35.3289 45.6826 35.3252Z" fill="#F0F2FF"/>
<path d="M48.8621 29.7553L49.7167 29.2661C49.8046 29.2661 49.8423 29.2661 49.8423 29.2661V32.7535C49.8412 32.7935 49.8288 32.8323 49.8066 32.8656C49.7843 32.8989 49.7532 32.9252 49.7167 32.9417L49.2517 33.2177C49.1637 33.2177 49.126 33.2177 49.126 33.2177V30.4704L48.5102 32.7661C48.4918 32.8483 48.4423 32.9202 48.372 32.9668L47.8819 33.2428C47.8065 33.2428 47.7562 33.2428 47.7436 33.2428L47.1404 31.6496V34.4094C47.149 34.4466 47.149 34.4852 47.1404 34.5223C47.1147 34.5564 47.0798 34.5825 47.0399 34.5976L46.5749 34.8736C46.4869 34.8736 46.4492 34.8736 46.4492 34.8736V31.3987C46.4504 31.3587 46.4628 31.3199 46.485 31.2866C46.5073 31.2534 46.5384 31.227 46.5749 31.2105L47.4294 30.7213C47.4294 30.7213 47.5174 30.7213 47.5426 30.7213L48.1584 32.4023L48.8118 29.9937C48.7929 29.954 48.7875 29.9091 48.7966 29.866C48.8057 29.823 48.8287 29.7841 48.8621 29.7553Z" fill="#F0F2FF"/>
<path d="M52.6319 31.3111L50.7469 32.4025C50.6589 32.4025 50.6212 32.4025 50.6212 32.4025V28.9402C50.6199 28.8981 50.6312 28.8566 50.6536 28.8208C50.6759 28.7851 50.7084 28.7568 50.7469 28.7395L52.6319 27.6606C52.7073 27.6606 52.745 27.6606 52.745 27.6606V28.0495C52.7465 28.0885 52.7366 28.127 52.7165 28.1604C52.6965 28.1938 52.6671 28.2207 52.6319 28.2377L51.3752 28.9402C51.3541 28.9476 51.3357 28.9611 51.3223 28.979C51.3088 28.9968 51.301 29.0183 51.2998 29.0405V29.7932C51.2998 29.7932 51.2998 29.7932 51.3752 29.7932L52.3555 29.2162C52.4434 29.2162 52.4811 29.2162 52.4811 29.2162V29.605C52.4824 29.6471 52.4711 29.6887 52.4488 29.7244C52.4264 29.7601 52.3939 29.7884 52.3555 29.8057L51.3752 30.3703C51.3541 30.3777 51.3357 30.3911 51.3223 30.409C51.3088 30.4269 51.301 30.4483 51.2998 30.4706V31.2735C51.2998 31.2735 51.2998 31.2735 51.3752 31.2735L52.6319 30.5835C52.7073 30.5835 52.745 30.5835 52.745 30.5835V30.9724C52.7709 30.9988 52.7889 31.0317 52.7972 31.0677C52.8055 31.1037 52.8037 31.1412 52.7921 31.1762C52.7804 31.2112 52.7592 31.2423 52.731 31.2661C52.7028 31.2899 52.6685 31.3055 52.6319 31.3111Z" fill="#F0F2FF"/>
<path d="M54.0017 30.5332L53.5241 30.8092C53.4361 30.8092 53.3984 30.8092 53.3984 30.8092V27.3343C53.3996 27.2944 53.412 27.2555 53.4343 27.2223C53.4565 27.189 53.4876 27.1626 53.5241 27.1462L53.9514 26.8953C54.0394 26.8953 54.0896 26.8953 54.1148 26.8953L55.2835 28.4132V26.2555C55.2822 26.2134 55.2935 26.1719 55.3159 26.1361C55.3382 26.1004 55.3707 26.0721 55.4091 26.0548L55.8867 25.7788C55.9621 25.7788 56.0124 25.7788 56.0124 25.7788V29.2536C56.0099 29.2933 55.9969 29.3315 55.9748 29.3646C55.9528 29.3976 55.9224 29.4242 55.8867 29.4418L55.4594 29.6927C55.384 29.6927 55.3212 29.6927 55.2835 29.6927L54.1273 28.2125V30.3701C54.1219 30.4057 54.1075 30.4393 54.0855 30.4678C54.0635 30.4963 54.0347 30.5188 54.0017 30.5332Z" fill="#F0F2FF"/>
<path d="M57.9344 28.263L57.4442 28.5515C57.3688 28.5515 57.3186 28.5515 57.3186 28.5515V25.6036C57.3186 25.6036 57.3186 25.6036 57.2557 25.6036L56.6022 25.9799C56.5143 25.9799 56.4766 25.9799 56.4766 25.9799V25.591C56.4777 25.5511 56.4901 25.5122 56.5123 25.479C56.5346 25.4457 56.5657 25.4193 56.6022 25.4029L58.7889 24.1484C58.8643 24.1484 58.902 24.1484 58.902 24.1484V24.5498C58.9007 24.5882 58.8897 24.6256 58.8699 24.6586C58.8501 24.6915 58.8222 24.7188 58.7889 24.738L58.1229 25.1143C58.1021 25.1245 58.0849 25.1407 58.0737 25.1609C58.0624 25.1811 58.0577 25.2043 58.06 25.2272V28.1125C58.0518 28.1454 58.0362 28.176 58.0144 28.202C57.9926 28.2281 57.9653 28.249 57.9344 28.263Z" fill="#F0F2FF"/>
<path d="M65.5608 30.5957L58.9883 34.3841V32.7032L65.5608 28.9272V30.5957Z" fill="#D457D6"/>
<path d="M74.0326 25.7166L67.4727 29.505V27.8241L74.0326 24.0356V25.7166Z" fill="#7C36CE"/>
<path d="M82.514 20.8237L75.9414 24.6121V22.9312L82.514 19.1553V20.8237Z" fill="#788EFF"/>
<path d="M59.9836 35.2627L60.1218 35.1749C60.178 35.1504 60.2258 35.11 60.2593 35.0587C60.2928 35.0075 60.3106 34.9476 60.3103 34.8864V34.7609C60.3103 34.6355 60.2475 34.6104 60.1218 34.6856L59.9836 34.7734C59.9267 34.8015 59.8788 34.845 59.8453 34.8989C59.8237 34.9511 59.8237 35.0098 59.8453 35.062V35.1247C59.8509 35.1365 59.8539 35.1493 59.8539 35.1623C59.8539 35.1754 59.8509 35.1882 59.8453 35.2L59.682 35.2878V35.1874C59.68 35.0669 59.7151 34.9487 59.7825 34.8487C59.8568 34.7395 59.9558 34.6492 60.0716 34.5853L60.2852 34.4598C60.326 34.4291 60.3729 34.4075 60.4228 34.3967C60.4727 34.3859 60.5244 34.386 60.5743 34.3971C60.5743 34.3971 60.6748 34.4975 60.6748 34.6229V34.7484C60.6748 34.8263 60.6566 34.9031 60.6217 34.9728C60.5868 35.0424 60.5362 35.103 60.4737 35.1498C60.612 35.1498 60.6748 35.1498 60.6748 35.3129V35.4634C60.6708 35.583 60.6362 35.6996 60.5743 35.8021C60.5 35.9113 60.401 36.0016 60.2852 36.0655L60.0716 36.191C60.0309 36.2217 59.9839 36.2433 59.934 36.2541C59.8841 36.2649 59.8324 36.2648 59.7825 36.2537C59.7071 36.2537 59.682 36.1533 59.682 36.0404V35.9526C59.6753 35.9412 59.6719 35.9282 59.6719 35.915C59.6719 35.9018 59.6753 35.8888 59.682 35.8773L59.8453 35.7896V35.8773C59.8453 35.9401 59.8453 35.9777 59.8453 35.9902C59.8453 36.0028 59.9208 35.9902 59.9836 35.9902L60.1218 35.9025C60.1771 35.8767 60.2241 35.836 60.2574 35.785C60.2907 35.7341 60.309 35.6748 60.3103 35.6139V35.4759C60.3103 35.3672 60.2475 35.3421 60.1218 35.4006L59.9836 35.4885V35.3505C59.9721 35.3388 59.9656 35.323 59.9656 35.3066C59.9656 35.2902 59.9721 35.2744 59.9836 35.2627Z" fill="#D457D6"/>
<path d="M61.0751 35.2626V35.5637C61.0806 35.5732 61.0835 35.5841 61.0835 35.5951C61.0835 35.6061 61.0806 35.6169 61.0751 35.6264L60.912 35.7268V35.4006C60.9043 35.3804 60.9043 35.3581 60.912 35.3379L61.0751 35.2376C61.0751 35.2376 61.0751 35.1623 61.0751 35.2626Z" fill="#D457D6"/>
<path d="M61.9935 35.012L61.7296 35.1626C61.6895 35.1948 61.643 35.2182 61.5932 35.2311C61.5434 35.2441 61.4913 35.2464 61.4406 35.2379C61.3777 35.2379 61.34 35.1375 61.34 35.012V34.8741C61.338 34.8002 61.3528 34.7268 61.3833 34.6594C61.4138 34.5921 61.4591 34.5325 61.516 34.4852C61.3903 34.4852 61.34 34.4852 61.34 34.2719V34.1465C61.3427 34.0306 61.3775 33.9177 61.4406 33.8203C61.5115 33.7083 61.6113 33.6173 61.7296 33.5569L61.9935 33.4063C62.0332 33.3734 62.0797 33.3496 62.1296 33.3366C62.1796 33.3236 62.2318 33.3217 62.2825 33.3311C62.3453 33.3311 62.3831 33.4314 62.3831 33.5443V33.6823C62.4017 33.7522 62.4017 33.8257 62.3831 33.8956C62.3644 33.9676 62.3196 34.0302 62.2574 34.0712C62.3705 34.0712 62.4333 34.0712 62.4333 34.2845V34.4099C62.433 34.5301 62.3981 34.6477 62.3328 34.7486C62.2406 34.8604 62.1247 34.9504 61.9935 35.012ZM61.7673 34.2343L61.9558 34.1214C62.012 34.0969 62.0598 34.0565 62.0933 34.0053C62.1268 33.954 62.1445 33.894 62.1443 33.8328V33.7074C62.1531 33.6899 62.1577 33.6706 62.1577 33.651C62.1577 33.6314 62.1531 33.612 62.1443 33.5945C62.1443 33.5945 62.0689 33.5945 62.006 33.5945L61.8176 33.7074C61.7606 33.7355 61.7128 33.7789 61.6793 33.8328C61.6612 33.8857 61.6612 33.9431 61.6793 33.9959V34.1088C61.5788 34.2719 61.6416 34.3095 61.7673 34.2343ZM61.7673 34.9368L61.9558 34.8114C62.0119 34.7879 62.0599 34.7486 62.094 34.6984C62.1068 34.6448 62.1068 34.589 62.094 34.5354V34.3974C62.094 34.2719 62.0312 34.2468 61.9055 34.3221L61.717 34.435C61.6608 34.4595 61.6131 34.4998 61.5796 34.5511C61.5461 34.6024 61.5283 34.6623 61.5285 34.7235V34.8615C61.5285 34.9242 61.5285 34.9493 61.5285 34.9619C61.5662 34.9821 61.6092 34.9904 61.6518 34.986C61.6943 34.9815 61.7346 34.9644 61.7673 34.9368Z" fill="#D457D6"/>
<path d="M63.3254 34.2336L63.0615 34.3967C62.9771 34.4547 62.8733 34.4772 62.7724 34.4594C62.7096 34.4594 62.6719 34.3716 62.6719 34.2461V34.1081C62.6729 34.0329 62.689 33.9586 62.7192 33.8897C62.7495 33.8208 62.7932 33.7586 62.8478 33.7067C62.7347 33.7067 62.6719 33.7067 62.6719 33.506V33.3806C62.6742 33.2607 62.7089 33.1437 62.7724 33.0419C62.8471 32.9362 62.9463 32.8502 63.0615 32.791L63.3254 32.6279C63.4184 32.5921 63.5214 32.5921 63.6144 32.6279C63.6772 32.6279 63.715 32.7157 63.715 32.8412V32.9666C63.7326 33.0409 63.7326 33.1182 63.715 33.1924C63.6924 33.2594 63.6536 33.3197 63.6019 33.368C63.715 33.368 63.7652 33.368 63.7652 33.5687V33.7067C63.7649 33.8269 63.73 33.9445 63.6647 34.0454C63.5711 34.1381 63.4537 34.2032 63.3254 34.2336ZM63.0992 33.4684L63.2877 33.3555C63.343 33.3298 63.3899 33.2891 63.4232 33.2381C63.4565 33.1871 63.4749 33.1278 63.4762 33.067V32.9415C63.4762 32.9415 63.4762 32.8412 63.4762 32.8286C63.4762 32.8161 63.4008 32.8286 63.3379 32.8286L63.1494 32.9415C63.0925 32.9696 63.0446 33.0131 63.0112 33.067C62.999 33.1164 62.999 33.1681 63.0112 33.2175V33.3429C62.9107 33.506 62.9735 33.5311 63.0992 33.4684ZM63.0992 34.1583L63.2877 34.0454C63.3446 34.0174 63.3925 33.9739 63.4259 33.92C63.4455 33.8717 63.4455 33.8177 63.4259 33.7694V33.6315C63.4259 33.506 63.3631 33.4809 63.2374 33.5437L63.0489 33.6566C62.9927 33.6844 62.9452 33.7273 62.912 33.7804C62.8787 33.8336 62.8608 33.8949 62.8604 33.9576V34.0831C62.8516 34.1006 62.847 34.1199 62.847 34.1395C62.847 34.1591 62.8516 34.1784 62.8604 34.196C62.8604 34.196 63.0363 34.196 63.0992 34.1583Z" fill="#D457D6"/>
<path d="M64.6088 33.4937L64.1061 33.7948V33.6568L64.5837 33.3808C64.6376 33.3545 64.6827 33.3133 64.7139 33.2622C64.7451 33.2111 64.7609 33.1521 64.7596 33.0923V32.8916L64.37 33.1174C64.2773 33.1544 64.1738 33.1544 64.081 33.1174C64.0182 33.1174 63.9805 33.017 63.9805 32.8916V32.6532C63.9808 32.5331 64.0157 32.4155 64.081 32.3145C64.1545 32.2013 64.2535 32.1068 64.37 32.0385L64.6088 31.9006C64.6937 31.8438 64.797 31.8213 64.8979 31.8378C64.9733 31.8378 64.9984 31.9507 64.9984 32.0636V32.9041C65.0021 33.0248 64.9668 33.1436 64.8979 33.2428C64.8288 33.3534 64.7281 33.4408 64.6088 33.4937ZM64.4077 32.8038L64.7596 32.6031V32.2016C64.7596 32.0762 64.7596 32.0511 64.5837 32.1264L64.4077 32.2267C64.3539 32.253 64.3087 32.2942 64.2775 32.3453C64.2464 32.3964 64.2305 32.4554 64.2318 32.5152V32.7536C64.2318 32.8414 64.2946 32.8665 64.4077 32.7536V32.8038Z" fill="#D457D6"/>
<path d="M68.969 30.1564L68.8182 30.2442C68.788 30.2581 68.762 30.2797 68.7428 30.3069C68.7428 30.3069 68.7428 30.3069 68.7428 30.3696C68.7242 30.4039 68.6985 30.4338 68.6674 30.4575L68.5166 30.5578C68.4924 30.2907 68.4924 30.022 68.5166 29.7549C68.5166 29.7549 68.5166 29.7549 68.5166 29.6797L69.3586 29.1904V29.3284L68.7177 29.7048V30.2442C68.7511 30.1416 68.8232 30.0561 68.9188 30.0058L69.0696 29.918C69.1952 29.8553 69.2832 29.8302 69.346 29.8553C69.4089 29.8804 69.4466 29.9557 69.4466 30.0811V30.3696C69.4425 30.4893 69.4079 30.6058 69.346 30.7083C69.2721 30.8179 69.173 30.9082 69.057 30.9718L68.8434 31.0972C68.8026 31.128 68.7557 31.1496 68.7058 31.1604C68.6558 31.1712 68.6042 31.1711 68.5543 31.16C68.4915 31.16 68.4538 31.0596 68.4538 30.9341V30.8714C68.4482 30.8597 68.4453 30.8468 68.4453 30.8338C68.4453 30.8208 68.4482 30.8079 68.4538 30.7962L68.6172 30.7083C68.6172 30.7083 68.6172 30.9091 68.8057 30.8464L68.9439 30.7585C69.0001 30.7341 69.0479 30.6937 69.0814 30.6424C69.1149 30.5912 69.1326 30.5312 69.1324 30.47V30.2442C69.1324 30.1689 69.1324 30.1313 69.1324 30.1187C69.1324 30.1062 68.969 30.1062 68.969 30.1564Z" fill="#7C36CE"/>
<path d="M69.874 30.1192V30.4203C69.8795 30.4298 69.8824 30.4406 69.8824 30.4516C69.8824 30.4626 69.8795 30.4735 69.874 30.483L69.7109 30.5833V30.2697C69.7109 30.2697 69.7109 30.2697 69.7109 30.1944L69.874 30.1067C69.874 30.1067 69.874 30.0941 69.874 30.1192Z" fill="#7C36CE"/>
<path d="M70.0744 29.1406V28.9901C70.069 28.9653 70.069 28.9396 70.0744 28.9148L70.3378 28.6012L70.4256 28.5259L70.5635 28.4507V29.9811L70.4005 30.0815C70.3757 29.6427 70.3757 29.203 70.4005 28.7643L70.1371 29.0779C70.1371 29.0779 70.0744 29.1657 70.0744 29.1406Z" fill="#7C36CE"/>
<path d="M71.4799 28.6766L71.3291 28.7644C71.3291 28.7644 71.3291 28.7644 71.2537 28.8271V28.8898C71.2433 28.9288 71.2214 28.9638 71.1908 28.9902L71.0275 29.078C71.0093 28.8107 71.0093 28.5424 71.0275 28.2751C71.022 28.2656 71.019 28.2548 71.019 28.2438C71.019 28.2327 71.022 28.2219 71.0275 28.2124L71.882 27.7231V27.8612C71.8876 27.8729 71.8905 27.8858 71.8905 27.8988C71.8905 27.9118 71.8876 27.9247 71.882 27.9364L71.2285 28.3002V28.7644C71.2655 28.6569 71.3419 28.5673 71.4422 28.5135L71.593 28.4256C71.7186 28.3629 71.8066 28.3378 71.8694 28.3629C71.9323 28.388 71.9574 28.4633 71.9574 28.5887V28.8773C71.9629 28.9982 71.9275 29.1175 71.8569 29.216C71.788 29.3286 71.6933 29.4233 71.5804 29.4919L71.3668 29.6048C71.2411 29.6801 71.1405 29.7052 71.0777 29.6676C71.0149 29.63 70.9772 29.5672 70.9772 29.4418V29.379C70.9717 29.3695 70.9688 29.3587 70.9688 29.3477C70.9688 29.3367 70.9717 29.3259 70.9772 29.3163L71.1406 29.216C71.1406 29.216 71.2034 29.4292 71.3165 29.354L71.4673 29.2787C71.5217 29.2518 71.5679 29.2109 71.6011 29.1601C71.6342 29.1094 71.6531 29.0507 71.6558 28.9902V28.7393C71.6558 28.664 71.6558 28.6138 71.6558 28.6013C71.6558 28.5887 71.5804 28.6389 71.4799 28.6766Z" fill="#7C36CE"/>
<path d="M72.8125 28.7774L72.3098 29.0659V28.9907C72.3098 28.9907 72.3098 28.9907 72.3098 28.9154L72.7748 28.6394C72.831 28.6149 72.8788 28.5746 72.9123 28.5233C72.9458 28.472 72.9635 28.4121 72.9633 28.3509V28.1502L72.5737 28.376C72.533 28.4068 72.486 28.4283 72.4361 28.4391C72.3862 28.45 72.3346 28.4498 72.2847 28.4387C72.2093 28.4387 72.1841 28.3384 72.1841 28.2129V27.9871C72.1787 27.8623 72.214 27.739 72.2847 27.6359C72.3518 27.5207 72.4527 27.4287 72.5737 27.3724L72.8125 27.2345C72.8522 27.2015 72.8987 27.1777 72.9486 27.1647C72.9986 27.1517 73.0508 27.1498 73.1016 27.1592C73.1384 27.1861 73.1672 27.2225 73.185 27.2644C73.2027 27.3064 73.2086 27.3525 73.2021 27.3976V28.2255C73.2018 28.3457 73.1669 28.4632 73.1016 28.5642C73.0212 28.6546 72.9227 28.7272 72.8125 28.7774ZM72.6114 28.0749L72.9633 27.8742V27.4853C72.9633 27.3599 72.9005 27.3348 72.7748 27.3976L72.6114 27.4979C72.5552 27.5224 72.5074 27.5627 72.4739 27.614C72.4404 27.6653 72.4227 27.7252 72.4229 27.7864V27.9997C72.4229 28.1251 72.4858 28.1502 72.6114 28.0749Z" fill="#7C36CE"/>
<path d="M77.465 26.0926L77.3142 26.1804V25.9044L76.6607 26.2807H76.5853V26.1929C76.5809 26.1596 76.5809 26.1259 76.5853 26.0926L77.1382 24.7754C77.1335 24.7506 77.1335 24.725 77.1382 24.7001H77.201L77.4147 24.5747H77.4901V25.5908L77.666 25.4904V25.6284C77.666 25.6284 77.666 25.6284 77.666 25.7037L77.4901 25.804V26.0675C77.4843 26.0781 77.4756 26.0868 77.465 26.0926ZM77.2639 25.6911V24.8005L76.7738 25.9671L77.2639 25.6911Z" fill="#788EFF"/>
<path d="M78.1552 25.3528V25.6538C78.1607 25.6634 78.1637 25.6742 78.1637 25.6852C78.1637 25.6962 78.1607 25.7071 78.1552 25.7166L77.9922 25.8169V25.4908L78.1552 25.403C78.1552 25.403 78.1552 25.3277 78.1552 25.3528Z" fill="#788EFF"/>
<path d="M79.2856 25.0387L79.1474 25.1265V24.8505L78.4939 25.2268H78.4185V25.1516C78.4126 25.1142 78.4126 25.0761 78.4185 25.0387L78.9714 23.7842C78.9667 23.7594 78.9667 23.7338 78.9714 23.709L79.1977 23.5835H79.2731V24.5996L79.449 24.4867V24.6372C79.449 24.6372 79.449 24.6372 79.449 24.7125L79.2731 24.8129V25.0763C79.2731 25.0627 79.2774 25.0495 79.2856 25.0387ZM79.0971 24.6247V23.7466L78.607 24.9132L79.0971 24.6247Z" fill="#788EFF"/>
<path d="M80.1664 23.6339L80.2921 23.5586C80.3465 23.5318 80.3927 23.4908 80.4258 23.4401C80.459 23.3893 80.4779 23.3306 80.4806 23.2701V23.1321C80.4806 23.0234 80.4178 22.9983 80.2921 23.0568L80.1538 23.1446C80.0969 23.1727 80.049 23.2162 80.0156 23.2701C80.0012 23.3235 80.0012 23.3798 80.0156 23.4332V23.5084C80.0211 23.518 80.024 23.5288 80.024 23.5398C80.024 23.5508 80.0211 23.5616 80.0156 23.5711L79.8522 23.659V23.5711C79.8547 23.4473 79.8893 23.3263 79.9527 23.2199C80.027 23.1106 80.1261 23.0204 80.2418 22.9565L80.4555 22.831C80.5485 22.7953 80.6515 22.7953 80.7445 22.831C80.8199 22.831 80.8451 22.9314 80.8451 23.0568V23.1948C80.8431 23.2706 80.824 23.345 80.7892 23.4123C80.7544 23.4797 80.7047 23.5382 80.644 23.5837C80.7822 23.5837 80.8451 23.5837 80.8451 23.7468V23.8973C80.8506 24.0183 80.8151 24.1376 80.7445 24.236C80.6774 24.3512 80.5765 24.4432 80.4555 24.4995L80.2418 24.6249C80.2017 24.6571 80.1552 24.6805 80.1054 24.6934C80.0555 24.7064 80.0035 24.7087 79.9527 24.7001C79.9169 24.6753 79.8886 24.6411 79.8709 24.6013C79.8532 24.5615 79.8467 24.5176 79.8522 24.4743V24.3865C79.8466 24.3748 79.8437 24.3619 79.8438 24.3489C79.8437 24.3359 79.8466 24.323 79.8522 24.3113L80.0156 24.2235V24.3238C80.0068 24.3413 80.0021 24.3607 80.0021 24.3803C80.0021 24.3999 80.0068 24.4192 80.0156 24.4367C80.0156 24.4367 80.091 24.4367 80.1538 24.4367L80.2921 24.3489C80.3473 24.3266 80.3947 24.2885 80.4282 24.2394C80.4617 24.1903 80.48 24.1323 80.4806 24.0729V23.9349C80.4806 23.8095 80.4178 23.7844 80.2921 23.8597L80.1664 23.9349V23.7969C80.1447 23.7969 80.124 23.7884 80.1086 23.7731C80.0933 23.7578 80.0847 23.7371 80.0847 23.7154C80.0847 23.6938 80.0933 23.673 80.1086 23.6577C80.124 23.6424 80.1447 23.6339 80.1664 23.6339Z" fill="#788EFF"/>
<path d="M81.6367 23.6846L81.398 23.8351C81.3131 23.8919 81.2098 23.9143 81.1089 23.8978C81.0335 23.8978 81.0084 23.785 81.0084 23.6721V22.8316C81.0029 22.7106 81.0383 22.5913 81.1089 22.4929C81.1791 22.377 81.2789 22.2817 81.398 22.2169L81.888 21.9409V22.0789C81.8936 22.0884 81.8965 22.0993 81.8965 22.1103C81.8965 22.1213 81.8936 22.1321 81.888 22.1416L81.4357 22.4176C81.3795 22.4421 81.3317 22.4825 81.2982 22.5337C81.2647 22.585 81.2469 22.6449 81.2471 22.7061V22.9194L81.6367 22.6936C81.721 22.6356 81.8249 22.613 81.9257 22.6308C81.9886 22.6308 82.0263 22.7312 82.0263 22.8566V23.0825C82.024 23.2023 81.9892 23.3194 81.9257 23.4211C81.8553 23.5336 81.7553 23.6247 81.6367 23.6846ZM81.4357 23.5968L81.599 23.4964C81.6539 23.4714 81.7 23.4305 81.7313 23.3791C81.7627 23.3277 81.7779 23.2681 81.775 23.2079V23.0072C81.775 22.8818 81.7749 22.8567 81.599 22.9319L81.2471 23.1326V23.5215C81.2471 23.6344 81.31 23.6721 81.4357 23.5968Z" fill="#788EFF"/>
<path d="M18.9296 82.1743L17.5 83L34.5 63.5704L38.2178 65.1415L47 54.5704L48.5168 55.2114L56.7052 44.3531L58.1352 43.5273L48.5168 56.6414L47 56L38.2178 66.5715L34.5 65L18.9296 82.1743Z" fill="#FFD91F"/>
<path d="M51.0938 45.9767V47.5939L58.1331 43.5193V50.5303L59.714 49.6282V43.0263V41.0079V41L51.0938 45.9767Z" fill="#FFD91F"/>
<defs>
<linearGradient id="paint0_linear" x1="6623.14" y1="5828.59" x2="7168.93" y2="5828.59" gradientUnits="userSpaceOnUse">
<stop stop-color="#F8F6FA"/>
<stop offset="1" stop-color="#FBF8FC"/>
</linearGradient>
<linearGradient id="paint1_linear" x1="6324.16" y1="10258.1" x2="6386.06" y2="10357" gradientUnits="userSpaceOnUse">
<stop stop-color="#CFCAD5"/>
<stop offset="1" stop-color="#EAE7ED"/>
</linearGradient>
<linearGradient id="paint2_linear" x1="5344.13" y1="8805.96" x2="5048.6" y2="8805.96" gradientUnits="userSpaceOnUse">
<stop stop-color="#E0DBE1"/>
<stop offset="1" stop-color="#E0DBE1"/>
</linearGradient>
<linearGradient id="paint3_linear" x1="17988.3" y1="14630.6" x2="22867.4" y2="14630.6" gradientUnits="userSpaceOnUse">
<stop stop-color="#F8F6FA"/>
<stop offset="1" stop-color="#FBF8FC"/>
</linearGradient>
<linearGradient id="paint4_linear" x1="17483" y1="12074" x2="17341.6" y2="12074" gradientUnits="userSpaceOnUse">
<stop stop-color="#E0DBE1"/>
<stop offset="1" stop-color="#E0DBE1"/>
</linearGradient>
<linearGradient id="paint5_linear" x1="16577.4" y1="15493" x2="19870.4" y2="15493" gradientUnits="userSpaceOnUse">
<stop stop-color="#F8F6FA"/>
<stop offset="1" stop-color="#FAF8FC"/>
</linearGradient>
</defs>
</svg>
