<svg width="139" height="105" viewBox="0 0 139 105" fill="none" xmlns="http://www.w3.org/2000/svg">
<g style="mix-blend-mode:multiply" opacity="0.4">
<path d="M136.272 70.8093L63.9015 28.8987C62.8094 28.3148 61.5865 28.019 60.3483 28.039H55.7209C54.4889 28.0275 53.2734 28.3229 52.1842 28.8987L1.48054 58.1121C1.04885 58.2587 0.673899 58.5368 0.408349 58.9074C0.142798 59.2781 0 59.7227 0 60.1787C0 60.6348 0.142798 61.0793 0.408349 61.45C0.673899 61.8206 1.04885 62.0988 1.48054 62.2453L73.8506 104.156C74.8692 104.697 76.0026 104.986 77.1559 104.999H81.9651C83.2138 105.019 84.4473 104.723 85.5514 104.139L136.238 74.926C136.666 74.7793 137.037 74.5037 137.301 74.1371C137.564 73.7705 137.708 73.331 137.712 72.8793C137.715 72.4276 137.579 71.9858 137.321 71.6151C137.063 71.2443 136.696 70.9628 136.272 70.8093Z" fill="#50197C"/>
</g>
<path d="M4.57207 59.1208L80.1813 102.982L133.975 71.9007C135.364 71.1071 137.876 70.0986 136.487 69.305L61.374 25.9231C59.7294 25.6411 58.0457 25.6804 56.416 26.0388L4.01016 56.3268C3.83628 56.5373 3.71156 56.784 3.64508 57.0488C3.5786 57.3137 3.57204 57.59 3.62588 57.8577C3.67972 58.1254 3.79259 58.3777 3.95628 58.5962C4.11997 58.8148 4.33035 58.994 4.57207 59.1208Z" fill="#6979FC"/>
<path d="M137.991 71.1081C137.95 71.5562 137.788 71.9848 137.523 72.3486C137.259 72.7124 136.9 72.9978 136.487 73.1747L85.7998 102.388C84.6937 102.95 83.4706 103.243 82.23 103.243C80.9895 103.243 79.7664 102.95 78.6603 102.388L4.57154 59.4856C4.17053 59.3017 3.82499 59.0154 3.56969 58.6556C3.31439 58.2957 3.15833 57.8749 3.11719 57.4355V59.1715C3.15822 59.6131 3.31612 60.0358 3.57463 60.3961C3.83315 60.7564 4.18295 61.0414 4.58805 61.2216L78.6603 104.124C79.7676 104.682 80.9902 104.973 82.23 104.973C83.4699 104.973 84.6925 104.682 85.7998 104.124L136.503 74.9107C136.913 74.7258 137.267 74.4356 137.528 74.0697C137.789 73.7038 137.949 73.2752 137.991 72.8275V71.1081Z" fill="url(#paint0_linear)"/>
<path d="M15.2789 66.5438L9.64332 63.2372C9.3789 63.0719 9.16406 63.2372 9.16406 63.5183V63.6671C9.17355 63.835 9.22176 63.9986 9.3049 64.1448C9.38804 64.2911 9.50386 64.4162 9.64332 64.5102L15.2789 67.8167C15.5433 67.9655 15.7582 67.8168 15.7582 67.5357V67.3869C15.7513 67.2183 15.7042 67.0538 15.6208 66.9072C15.5374 66.7605 15.4202 66.6359 15.2789 66.5438Z" fill="#C0B9C8"/>
<path d="M16.0728 66.9079C16.0242 66.7999 15.969 66.6949 15.9075 66.5937C15.8261 66.4982 15.7315 66.4147 15.6266 66.3458L9.99099 63.0392C9.94134 63.0085 9.8841 62.9922 9.82571 62.9922C9.76733 62.9922 9.71011 63.0085 9.66046 63.0392L9.29688 63.2376C9.34904 63.2054 9.40911 63.1884 9.4704 63.1884C9.53169 63.1884 9.59176 63.2054 9.64392 63.2376L15.2795 66.5441C15.3886 66.6143 15.4838 66.704 15.5605 66.8087C15.6262 66.899 15.6764 66.9995 15.7092 67.1063C15.7249 67.1993 15.7249 67.2943 15.7092 67.3873V67.5361C15.716 67.5971 15.7057 67.6588 15.6794 67.7143C15.6531 67.7698 15.612 67.8168 15.5605 67.8502L15.9241 67.6518C15.9712 67.6152 16.0082 67.5671 16.0314 67.5121C16.0545 67.4571 16.0631 67.397 16.0563 67.3377V67.255C16.074 67.1402 16.0795 67.0239 16.0728 66.9079Z" fill="#F9F7FB"/>
<path d="M21.7269 70.1647C21.6942 70.058 21.6439 69.9574 21.5782 69.8672C21.5015 69.7625 21.4063 69.6729 21.2972 69.6028L18.6199 68.0656C18.5703 68.0348 18.513 68.0186 18.4546 68.0186C18.3962 68.0186 18.339 68.0348 18.2894 68.0656L17.9258 68.2639C17.9779 68.2317 18.038 68.2147 18.0993 68.2147C18.1606 68.2147 18.2207 68.2317 18.2728 68.2639L20.9502 69.8011C21.0577 69.8674 21.1483 69.958 21.2146 70.0656C21.2854 70.1552 21.3412 70.2556 21.3799 70.3631C21.3944 70.4561 21.3944 70.5509 21.3799 70.644V70.7928C21.3887 70.854 21.3793 70.9164 21.3529 70.9723C21.3264 71.0281 21.2841 71.0749 21.2311 71.1068L21.5782 70.9085C21.6297 70.8751 21.6709 70.828 21.6971 70.7726C21.7234 70.7171 21.7337 70.6554 21.7269 70.5944V70.4457C21.7426 70.3527 21.7426 70.2577 21.7269 70.1647Z" fill="#F9F7FB"/>
<path d="M20.9496 69.8008L18.2722 68.2636C18.0078 68.0983 17.793 68.2636 17.793 68.5446V68.6933C17.8025 68.8613 17.8507 69.0248 17.9338 69.171C18.017 69.3173 18.1328 69.4423 18.2722 69.5363L20.9496 71.0735C21.214 71.2388 21.4288 71.0735 21.4288 70.7925V70.6437C21.4193 70.4758 21.3711 70.3123 21.288 70.1661C21.2048 70.0198 21.089 69.8948 20.9496 69.8008Z" fill="#C0B9C8"/>
<path d="M136.521 69.0405L62.4321 26.1545C61.3289 25.5927 60.1086 25.2998 58.8707 25.2998C57.6327 25.2998 56.4124 25.5927 55.3092 26.1545L4.60554 55.3514C4.17385 55.4979 3.7989 55.776 3.53335 56.1467C3.2678 56.5174 3.125 56.9619 3.125 57.4179C3.125 57.874 3.2678 58.3186 3.53335 58.6892C3.7989 59.0599 4.17385 59.338 4.60554 59.4845L78.6943 102.387C79.8004 102.949 81.0235 103.242 82.2641 103.242C83.5046 103.242 84.7277 102.949 85.8338 102.387L136.521 73.1737C136.953 73.0271 137.328 72.749 137.593 72.3784C137.859 72.0077 138.001 71.5631 138.001 71.1071C138.001 70.651 137.859 70.2065 137.593 69.8358C137.328 69.4652 136.953 69.187 136.521 69.0405ZM134.356 69.3216L79.2397 101.081C79.0351 101.195 78.8047 101.255 78.5704 101.255C78.336 101.255 78.1056 101.195 77.901 101.081L4.55596 58.6249C4.35036 58.5036 4.17994 58.3308 4.06154 58.1234C3.94315 57.9161 3.88087 57.6815 3.88087 57.4428C3.88087 57.204 3.94315 56.9694 4.06154 56.762C4.17994 56.5547 4.35036 56.3819 4.55596 56.2607L21.4792 46.5064L24.0243 46.7543L42.3854 36.1403L41.9887 34.6854L55.5075 26.8985C56.5476 26.2978 57.7275 25.9815 58.9285 25.9815C60.1295 25.9815 61.3094 26.2978 62.3495 26.8985L134.406 68.5941C134.471 68.6295 134.526 68.682 134.564 68.7461C134.602 68.8101 134.622 68.8833 134.622 68.9578C134.622 69.0324 134.602 69.1056 134.564 69.1696C134.526 69.2336 134.471 69.2861 134.406 69.3216H134.356Z" fill="#353131"/>
<path d="M112.241 85.2265L111.282 84.6644C111 84.5219 110.689 84.4478 110.373 84.4478C110.057 84.4478 109.746 84.5219 109.464 84.6644L106.06 86.6318C105.889 86.7176 105.746 86.8493 105.647 87.012C105.602 87.0877 105.575 87.1721 105.566 87.2594C105.557 87.3468 105.567 87.435 105.595 87.5182C105.623 87.6013 105.669 87.6774 105.729 87.7412C105.789 87.8051 105.863 87.8552 105.944 87.8883L106.886 88.4338C107.167 88.5801 107.478 88.6566 107.795 88.6566C108.111 88.6566 108.423 88.5801 108.704 88.4338L112.108 86.483C112.271 86.3869 112.412 86.2572 112.522 86.1027C112.564 86.0274 112.59 85.9442 112.599 85.8583C112.607 85.7724 112.598 85.6856 112.572 85.6033C112.546 85.5211 112.503 85.4452 112.446 85.3804C112.389 85.3155 112.319 85.2631 112.241 85.2265Z" fill="#262424"/>
<path d="M112.242 85.5408L111.284 84.9952C111.003 84.8489 110.691 84.7725 110.375 84.7725C110.058 84.7725 109.747 84.8489 109.466 84.9952L106.062 87.0949C105.896 87.18 105.754 87.305 105.648 87.4586C105.643 87.5136 105.643 87.569 105.648 87.6239C105.677 87.7099 105.722 87.7893 105.782 87.8575C105.841 87.9256 105.914 87.9811 105.995 88.0207L106.937 88.5663C107.218 88.7127 107.53 88.789 107.846 88.789C108.163 88.789 108.475 88.7127 108.755 88.5663L112.16 86.6154C112.323 86.5193 112.464 86.3897 112.573 86.2352C112.578 86.1802 112.578 86.1248 112.573 86.0698C112.558 85.9633 112.521 85.861 112.464 85.7698C112.407 85.6786 112.332 85.6006 112.242 85.5408Z" fill="#353131"/>
<path d="M32.963 40.8028C32.7928 40.8848 32.6064 40.9274 32.4176 40.9274C32.2287 40.9274 32.0423 40.8848 31.8722 40.8028C31.5582 40.621 31.5582 40.34 31.8722 40.1581C32.043 40.0684 32.233 40.0215 32.4258 40.0215C32.6187 40.0215 32.8088 40.0684 32.9795 40.1581C33.277 40.3565 33.277 40.6375 32.963 40.8028Z" fill="#191414"/>
<path opacity="0.1" d="M32.0212 40.802C32.1491 40.8673 32.2907 40.9013 32.4343 40.9013C32.578 40.9013 32.7196 40.8673 32.8475 40.802C33.0624 40.6532 33.0624 40.4549 32.8475 40.3226C32.7185 40.261 32.5773 40.229 32.4343 40.229C32.2914 40.229 32.1502 40.261 32.0212 40.3226C31.7898 40.4053 31.7898 40.6036 32.0212 40.802Z" fill="#D0D6D6"/>
<path opacity="0.1" d="M32.2029 40.6038C32.2699 40.636 32.3434 40.6527 32.4177 40.6527C32.4921 40.6527 32.5656 40.636 32.6326 40.6038C32.7648 40.5211 32.7648 40.4054 32.6326 40.3393C32.5638 40.3031 32.4872 40.2842 32.4095 40.2842C32.3318 40.2842 32.2552 40.3031 32.1864 40.3393C32.0707 40.4219 32.0707 40.5376 32.2029 40.6038Z" fill="#D0D6D6"/>
<g style="mix-blend-mode:screen" opacity="0.2">
<path d="M32.3345 40.522C32.359 40.5383 32.3877 40.547 32.4171 40.547C32.4466 40.547 32.4753 40.5383 32.4998 40.522C32.4998 40.522 32.4998 40.522 32.4998 40.4229H32.3345C32.3345 40.4229 32.285 40.5055 32.3345 40.522Z" fill="#D0D6D6"/>
</g>
<path d="M40.2039 35.8436L36.6837 37.8931C36.4523 38.0088 36.4358 38.2072 36.6837 38.3229C36.8006 38.3753 36.9274 38.4024 37.0555 38.4024C37.1837 38.4024 37.3105 38.3753 37.4274 38.3229L40.9641 36.2733C41.179 36.1576 41.1955 35.9593 40.9641 35.8436C40.8449 35.7887 40.7152 35.7603 40.584 35.7603C40.4527 35.7603 40.3231 35.7887 40.2039 35.8436Z" fill="#191414"/>
<path d="M27.3601 43.1663L23.8399 45.1993C23.6086 45.3315 23.592 45.5299 23.8399 45.6291C23.9545 45.6899 24.0821 45.7216 24.2118 45.7216C24.3414 45.7216 24.4691 45.6899 24.5836 45.6291L28.1203 43.596C28.3352 43.4638 28.3517 43.282 28.1203 43.1663C28.0025 43.1067 27.8723 43.0757 27.7402 43.0757C27.6082 43.0757 27.4779 43.1067 27.3601 43.1663Z" fill="#191414"/>
<path d="M111.847 88.7477L109.913 89.8551C109.682 89.9873 109.5 89.8551 109.5 89.6898C109.512 89.557 109.556 89.429 109.627 89.3168C109.699 89.2045 109.797 89.1113 109.913 89.0452L111.847 87.9213C112.078 87.789 112.26 87.9212 112.26 88.1031C112.242 88.2341 112.196 88.3597 112.125 88.471C112.053 88.5824 111.958 88.6768 111.847 88.7477Z" fill="#262424"/>
<path d="M109.167 88.9633L108.902 89.1286L109.861 89.674L110.125 89.5252L109.167 88.9633ZM109.762 88.6327L109.497 88.7814L110.456 89.3269L110.72 89.1781L109.762 88.6327ZM110.357 88.2856L110.092 88.4343L111.034 88.9963L111.315 88.831L110.357 88.2856ZM110.952 87.9385L110.671 88.1037L111.629 88.6492L111.91 88.5005L110.952 87.9385Z" fill="#9E6512"/>
<path style="mix-blend-mode:multiply" opacity="0.4" d="M57.0246 19.2109L3.875 49.9123L81.2691 94.6003L134.419 63.9155L57.0246 19.2109Z" fill="url(#paint1_linear)"/>
<path style="mix-blend-mode:multiply" opacity="0.4" d="M57.0246 9.95215L3.875 40.6535L81.2691 85.3415L134.419 54.6567L57.0246 9.95215Z" fill="url(#paint2_linear)"/>
<path opacity="0.9" d="M134.421 44.7034L81.2712 75.3882L9.28125 33.8083L62.4143 3.12354L134.421 44.7034Z" fill="#CFE9FF"/>
<path d="M62.7097 3.29L9.56014 33.9913L3.875 30.7013L57.0246 0L62.7097 3.29Z" fill="#788EFF"/>
<path d="M67.8168 60.3777C67.7837 60.3886 67.7549 60.4097 67.7345 60.4379C67.7141 60.4661 67.7031 60.4999 67.7031 60.5348C67.7031 60.5696 67.7141 60.6035 67.7345 60.6317C67.7549 60.6599 67.7837 60.6809 67.8168 60.6918C67.9019 60.7328 67.9951 60.7541 68.0895 60.7541C68.1839 60.7541 68.2771 60.7328 68.3622 60.6918C68.3952 60.6809 68.424 60.6599 68.4444 60.6317C68.4649 60.6035 68.4758 60.5696 68.4758 60.5348C68.4758 60.4999 68.4649 60.4661 68.4444 60.4379C68.424 60.4097 68.3952 60.3886 68.3622 60.3777C68.2771 60.3367 68.1839 60.3154 68.0895 60.3154C67.9951 60.3154 67.9019 60.3367 67.8168 60.3777ZM68.9075 61.0058C68.7588 61.105 68.7588 61.2373 68.9075 61.3199C68.9899 61.3695 69.0842 61.3956 69.1802 61.3956C69.2763 61.3956 69.3706 61.3695 69.4529 61.3199C69.6017 61.2373 69.6017 61.105 69.4529 61.0058C69.3679 60.9648 69.2747 60.9435 69.1802 60.9435C69.0858 60.9435 68.9926 60.9648 68.9075 61.0058ZM70.0148 61.6505C69.8661 61.7331 69.8661 61.8653 70.0148 61.9645C70.0999 62.0055 70.1931 62.0268 70.2875 62.0268C70.3819 62.0268 70.4751 62.0055 70.5602 61.9645C70.7089 61.8653 70.7089 61.7331 70.5602 61.6505C70.4708 61.5871 70.364 61.5531 70.2545 61.5531C70.1449 61.5531 70.0381 61.5871 69.9487 61.6505H70.0148Z" fill="#788EFF"/>
<path d="M77.2227 67.8506L77.2722 67.9498L107.731 50.359L107.681 50.2598L77.2227 67.8506Z" fill="#353131"/>
<path d="M121.945 42.0264L111.5 48.0608L111.55 48.16L121.994 42.1256L121.945 42.0264Z" fill="#353131"/>
<path d="M120.011 41.2491C119.957 41.2343 119.9 41.2343 119.846 41.2491C119.295 41.5754 118.78 41.9577 118.309 42.3899C117.598 43.0016 116.92 43.6464 116.276 44.3077L116.788 43.5637L117.268 42.8693C117.499 42.5056 117.383 42.456 117.35 42.423C117.257 42.4047 117.162 42.4047 117.069 42.423L115.978 43.2827L115.813 43.4149C116.151 43.073 116.51 42.7528 116.887 42.456C117.681 41.9104 118.54 41.3648 119.251 40.8027C119.251 40.8027 119.168 40.8027 119.152 40.8027C118.326 41.3057 117.531 41.8578 116.772 42.456L115.483 43.3157L115.185 43.5141C114.987 43.5141 114.673 43.8117 114.673 43.8117L114.574 43.9275L113.946 44.3408C114.111 43.8944 114.243 43.4645 114.375 43.0181C114.508 42.5717 114.607 42.2742 114.739 41.9105C114.739 41.9105 114.623 41.9105 114.607 41.9105L112.772 45.217C112.26 45.5642 111.781 45.9279 111.318 46.2916C111.103 46.4421 110.909 46.62 110.739 46.8207C110.756 46.8328 110.777 46.8393 110.797 46.8393C110.818 46.8393 110.838 46.8328 110.855 46.8207L112.508 45.7295L111.929 46.7876H112.045L112.855 45.465L113.086 45.2997L113.499 45.0021V45.2335C113.301 45.3988 113.103 45.5642 112.921 45.746C112.739 45.9279 112.921 45.746 113.02 45.746L113.384 45.4484L113.285 45.6303C113.049 46.1481 112.648 46.5727 112.144 46.8372C112.012 46.9136 111.866 46.9641 111.715 46.986C111.472 47.0042 111.228 46.9646 111.004 46.8703C110.809 46.7837 110.626 46.6726 110.459 46.5396C110.443 46.5309 110.426 46.5263 110.409 46.5263C110.392 46.5263 110.374 46.5309 110.359 46.5396C110.509 46.7219 110.703 46.864 110.921 46.9529C111.182 47.0616 111.467 47.1014 111.748 47.0687C111.923 47.049 112.092 46.9926 112.243 46.9033C112.76 46.6384 113.174 46.2076 113.417 45.6799C113.451 45.6226 113.479 45.5616 113.499 45.498V45.8287C113.582 45.8287 113.615 45.8287 113.632 45.8287L113.913 45.2831C114.212 45.2323 114.479 45.066 114.656 44.8202C114.656 44.9029 114.656 44.9194 114.755 44.9194C114.855 44.9194 115.02 44.6714 115.053 44.5226C115.086 44.3738 115.053 44.5226 115.053 44.4234L115.284 44.225C115.407 44.1824 115.518 44.1127 115.609 44.021C115.701 43.9294 115.771 43.8183 115.813 43.696C115.88 43.6061 115.94 43.5123 115.995 43.4149L116.111 43.3157C116.392 43.0677 117.135 42.5056 117.152 42.5056H117.268C117.268 42.5056 117.268 42.6048 117.152 42.8528L116.689 43.5472L115.731 44.9359C116.639 44.1093 117.499 43.2826 118.441 42.4395C118.908 42.0184 119.417 41.6472 119.961 41.3318H120.11C120.077 41.2491 120.044 41.2491 120.011 41.2491ZM112.557 45.5146C112.144 45.8287 111.698 46.1263 111.252 46.4239L111.417 46.2916C111.814 45.9775 112.227 45.6799 112.657 45.3658L112.557 45.5146ZM114.21 44.2911L113.88 44.5392L114.21 44.2911ZM113.797 44.7375L113.962 44.6053L114.161 44.4565L114.078 44.6053L113.962 44.8037L113.681 45.0351C113.727 44.9388 113.766 44.8394 113.797 44.7375ZM113.566 44.7375C113.596 44.6775 113.642 44.6263 113.698 44.5888C113.667 44.6627 113.622 44.7301 113.566 44.7871V44.7375ZM114.408 42.456C114.408 42.6213 114.293 42.7866 114.243 42.952C114.094 43.448 113.946 43.9274 113.764 44.4234L113.566 44.5557V44.4069C113.351 44.4069 113.318 44.4069 113.268 44.5061L114.408 42.456ZM113.185 44.7871C113.248 44.6826 113.326 44.5878 113.417 44.5061V44.6549L113.152 44.8367L113.185 44.7871ZM112.921 45.217L113.02 45.0517L113.433 44.7706C113.287 44.9591 113.114 45.1261 112.921 45.2666V45.217ZM113.582 45.5642V45.2666L113.813 45.0847C113.725 45.256 113.648 45.4327 113.582 45.6138V45.5642ZM114.508 44.7541C114.386 44.9368 114.213 45.0803 114.012 45.1674C114.185 44.8511 114.435 44.5837 114.739 44.3904C114.701 44.5342 114.645 44.673 114.574 44.8037L114.508 44.7541ZM114.838 44.225H114.689L114.871 44.0762L114.838 44.225ZM114.838 44.0597L114.673 44.2085L114.309 44.4896L114.392 44.3738V44.2911L114.491 44.1423L115.119 43.6794C115.129 43.7174 115.129 43.7572 115.119 43.7952L114.838 44.0597ZM115.317 43.6298C115.364 43.557 115.426 43.495 115.499 43.448L115.317 43.6298Z" fill="#353131"/>
<g style="mix-blend-mode:multiply" opacity="0.8">
<path d="M79.2563 59.9481C75.951 61.8494 75.951 64.908 79.2563 66.8092C81.0965 67.747 83.1324 68.2359 85.1976 68.2359C87.2629 68.2359 89.2988 67.747 91.139 66.8092C94.4443 64.908 94.4443 61.8494 91.139 59.9481C89.2988 59.0103 87.2629 58.5215 85.1976 58.5215C83.1324 58.5215 81.0965 59.0103 79.2563 59.9481ZM90.9076 66.6769C89.1404 67.5731 87.1871 68.0401 85.2059 68.0401C83.2247 68.0401 81.2713 67.5731 79.5042 66.6769C76.3476 64.8583 76.3476 61.899 79.5042 60.0639C81.2742 59.1675 83.2303 58.7005 85.2142 58.7005C87.198 58.7005 89.1541 59.1675 90.9241 60.0639C94.0642 61.899 94.0641 64.8583 90.9076 66.6769ZM81.1569 65.7181C82.4089 66.3541 83.7934 66.6856 85.1976 66.6856C86.6019 66.6856 87.9863 66.3541 89.2384 65.7181C91.4695 64.4285 91.4695 62.3288 89.2384 61.0393C87.9863 60.4032 86.6019 60.0717 85.1976 60.0717C83.7934 60.0717 82.4089 60.4032 81.1569 61.0393C78.9258 62.2958 78.9258 64.4285 81.1569 65.7181ZM82.3964 61.7502C83.2675 61.31 84.2299 61.0806 85.2059 61.0806C86.1819 61.0806 87.1443 61.31 88.0154 61.7502C88.4537 61.7502 88.8741 61.9244 89.184 62.2344C89.4939 62.5445 89.6681 62.965 89.6681 63.4035C89.6681 63.842 89.4939 64.2625 89.184 64.5725C88.8741 64.8826 88.4537 65.0568 88.0154 65.0568C87.1443 65.497 86.1819 65.7264 85.2059 65.7264C84.2299 65.7264 83.2675 65.497 82.3964 65.0568C81.9581 65.0568 81.5377 64.8826 81.2278 64.5725C80.9178 64.2625 80.7437 63.842 80.7437 63.4035C80.7437 62.965 80.9178 62.5445 81.2278 62.2344C81.5377 61.9244 81.9581 61.7502 82.3964 61.7502ZM80.7437 60.7417L80.1157 60.3614L80.1983 60.2788C80.3866 60.3779 80.5688 60.4883 80.7437 60.6095L80.9916 60.4772C81.1734 60.5433 80.8098 60.7417 80.8098 60.7417H80.7437ZM81.3552 60.4441H81.4544C81.4786 60.4398 81.5015 60.4302 81.5216 60.4159C81.5416 60.4016 81.5581 60.383 81.57 60.3614C81.5814 60.3293 81.5814 60.2943 81.57 60.2622L81.4048 60.13C81.3508 60.1144 81.2935 60.1144 81.2395 60.13C81.1798 60.1153 81.1174 60.1153 81.0577 60.13H80.9586C80.9344 60.1343 80.9114 60.144 80.8914 60.1583C80.8714 60.1726 80.8548 60.1911 80.8429 60.2126C80.8429 60.2126 80.8429 60.2127 80.8429 60.3284L80.9916 60.4441C81.0178 60.455 81.0459 60.4607 81.0742 60.4607C81.1026 60.4607 81.1307 60.455 81.1569 60.4441C81.2422 60.4758 81.336 60.4758 81.4213 60.4441H81.3552ZM81.0081 60.2292C81.0614 60.2003 81.1211 60.1851 81.1817 60.1851C81.2423 60.1851 81.3019 60.2003 81.3552 60.2292C81.3107 60.2478 81.263 60.2575 81.2147 60.2575C81.1665 60.2575 81.1187 60.2478 81.0742 60.2292H81.0081ZM81.6692 60.2292L81.3222 59.882H81.4378C81.7188 59.882 81.6362 59.882 81.6362 59.882C81.6362 59.882 81.6362 59.882 81.6362 59.9647L81.8675 60.1796H81.7518L81.6692 60.2292ZM82.1154 60.0474C82.1793 60.0715 82.2498 60.0715 82.3137 60.0474L82.6112 59.9647C82.6112 59.882 82.2642 59.9647 82.2642 59.9647L82.479 59.8159V59.7001C82.4359 59.6873 82.3899 59.6873 82.3468 59.7001H82.1485H82.0493C82.0058 59.6908 81.9607 59.6908 81.9171 59.7001V59.8159L82.0328 59.9647C82.0411 60.0009 82.0595 60.0341 82.0858 60.0604C82.1121 60.0867 82.1453 60.1051 82.1815 60.1135L82.1154 60.0474ZM82.0328 59.7828C82.2642 59.7828 82.0328 59.7828 82.0328 59.7828V59.7828ZM82.7104 59.8985L82.4955 59.5183H82.6443H82.8261C82.9066 59.4918 82.9935 59.4918 83.074 59.5183C83.074 59.5183 83.074 59.5183 83.2062 59.4356H83.4376C83.4376 59.4356 83.5202 59.4356 83.5367 59.5183L83.6854 59.7828H83.5532L83.3549 59.5018C83.3549 59.5018 83.1401 59.5018 83.1566 59.5018L83.2888 59.7332H83.1566L82.9748 59.4687C82.9748 59.4687 82.7269 59.4687 82.76 59.4687L82.8922 59.7167H82.76L82.7104 59.8985ZM83.9664 59.2207C83.9664 59.105 84.0656 59.105 84.0656 59.105L84.0325 59.2868L83.9664 59.2207ZM84.0986 59.7001C84.0371 59.567 83.9873 59.4287 83.9499 59.2868H84.0986L84.2473 59.7001H84.0986ZM84.3961 59.7001H84.5448V59.5348C84.5989 59.5496 84.656 59.5496 84.7101 59.5348H84.9249C84.9327 59.5165 84.9366 59.4969 84.9366 59.477C84.9366 59.4571 84.9327 59.4374 84.9249 59.4191V59.2703C84.9249 59.2703 84.9249 59.1876 84.9249 59.1711H84.7597H84.3961C84.3917 59.3988 84.4139 59.6263 84.4622 59.8489L84.3961 59.7001ZM84.6275 59.2372C84.6712 59.2537 84.7105 59.2803 84.7421 59.3147C84.7736 59.3492 84.7967 59.3906 84.8093 59.4356C84.5944 59.4356 84.5614 59.4356 84.5448 59.4356V59.3199C84.5448 59.3199 84.6275 59.386 84.6936 59.386L84.6275 59.2372ZM85.0241 59.2372C85.0167 59.2217 85.0129 59.2048 85.0129 59.1876C85.0129 59.1705 85.0167 59.1535 85.0241 59.138H85.4373C85.4373 59.2207 85.2389 59.2207 85.2389 59.2207L85.3712 59.3364H85.4703C85.4703 59.4852 85.4703 59.5183 85.2555 59.5183H84.9745C84.9745 59.4356 85.2389 59.4356 85.2389 59.4356L85.0406 59.353H84.9249L85.0241 59.2372ZM85.6852 59.4191V59.1546H85.8339V59.4522H86.0818V59.2042H86.4784C86.4957 59.3414 86.4957 59.4803 86.4784 59.6175H86.1314H85.9165C85.905 59.6298 85.8905 59.639 85.8745 59.6441C85.8584 59.6493 85.8413 59.6503 85.8247 59.647C85.8082 59.6436 85.7927 59.6362 85.7799 59.6252C85.767 59.6143 85.7572 59.6002 85.7513 59.5844L85.6852 59.4191ZM86.3462 59.5844L86.528 59.2042H86.6933H86.8751C87.0073 59.2042 87.0569 59.2042 87.0734 59.3034C87.1021 59.2911 87.133 59.2848 87.1643 59.2848C87.1955 59.2848 87.2265 59.2911 87.2552 59.3034C87.3709 59.3034 87.4205 59.3034 87.4535 59.3034C87.4656 59.3202 87.4721 59.3405 87.4721 59.3612C87.4721 59.382 87.4656 59.4022 87.4535 59.4191L87.3213 59.6836H87.156C87.1765 59.5807 87.2098 59.4807 87.2552 59.386C87.1065 59.386 87.0569 59.386 87.0403 59.386L86.9247 59.634H86.7594C86.7799 59.5311 86.8132 59.4311 86.8585 59.3364C86.6933 59.3364 86.6437 59.3364 86.6272 59.3364L86.5115 59.5844H86.4784C86.4784 59.5844 86.4784 59.7663 86.4784 59.7497L86.3462 59.5844ZM87.751 59.8324C87.7663 59.8544 87.7859 59.8731 87.8086 59.8873C87.8314 59.9015 87.8567 59.9109 87.8832 59.9151H88.0319H88.2137C88.3829 59.7475 88.5429 59.5709 88.693 59.386H88.5608L88.379 59.5679C88.1476 59.4522 88.0981 59.4522 88.0319 59.4687C87.9892 59.4536 87.9425 59.4536 87.8997 59.4687L87.784 59.6175C87.784 59.6175 87.8006 59.9646 87.8171 59.9977L87.751 59.8324ZM87.9493 59.8324L88.065 59.7001C88.3129 59.7001 88.3129 59.7002 88.2798 59.7828V59.8985C88.259 59.916 88.2327 59.9256 88.2055 59.9256C88.1783 59.9256 88.1519 59.916 88.1311 59.8985C87.9989 59.9647 88.0154 59.9482 88.0154 59.9316L87.9493 59.8324ZM88.9574 60.1796L89.1062 60.0474C89.1183 60.0305 89.1248 60.0103 89.1248 59.9895C89.1248 59.9687 89.1183 59.9485 89.1062 59.9316C89.1062 59.9316 89.1062 59.9316 88.9905 59.8489H88.8913C88.8262 59.8328 88.7581 59.8328 88.693 59.8489H88.5443L88.3955 59.9812C88.3955 59.9812 88.3955 59.9812 88.3955 60.097C88.3955 60.2127 88.3955 60.097 88.5112 60.097H88.6104C88.6755 60.1131 88.7436 60.1131 88.8087 60.097C88.8267 60.1427 88.8558 60.1831 88.8933 60.2149C88.9307 60.2466 88.9755 60.2686 89.0235 60.2788L88.9574 60.1796ZM88.5773 60.0804L88.7261 59.9151C88.9409 59.9977 88.7261 60.1135 88.7261 60.1135L88.5773 60.0804ZM89.635 59.8985C89.4539 60.072 89.2606 60.2322 89.0566 60.378H88.9244C89.1055 60.2045 89.2988 60.0443 89.5028 59.8985H89.635ZM89.635 60.1631C89.5812 60.1465 89.5236 60.1465 89.4698 60.1631L89.3045 60.2953C89.3045 60.2953 89.3045 60.2953 89.3045 60.3945C89.3045 60.4937 89.3045 60.3945 89.4037 60.4937H89.5193C89.5481 60.506 89.579 60.5123 89.6102 60.5123C89.6415 60.5123 89.6724 60.506 89.7011 60.4937H89.8499L90.0151 60.3614C90.0151 60.3614 90.0151 60.3614 90.0151 60.2622C90.0151 60.163 90.0151 60.2622 89.916 60.1631H89.8168C89.7566 60.1765 89.7036 60.2118 89.6681 60.2622L89.635 60.1631ZM89.8333 60.3284C89.7774 60.3884 89.7166 60.4437 89.6515 60.4937C89.4532 60.4111 89.6515 60.2788 89.6515 60.2788L89.8333 60.3284ZM90.3291 60.5433H90.4118C90.5275 60.5433 90.4118 60.6591 90.4118 60.6591C90.4118 60.6591 90.1969 60.5764 90.1473 60.6591L89.8168 60.8409H89.6846L90.1969 60.5599C90.2406 60.5518 90.2854 60.5518 90.3291 60.5599V60.5433ZM90.1969 61.0393L90.3787 61.155V61.0062C90.3787 61.0062 90.3787 60.8905 90.4614 60.874C90.5152 60.8574 90.5728 60.8574 90.6266 60.874C90.6694 60.8589 90.7161 60.8589 90.7588 60.874L90.9076 60.9897H90.8084L90.6597 60.8905C90.6319 60.8983 90.608 60.9161 90.5927 60.9406C90.5775 60.9651 90.5718 60.9944 90.577 61.0228C90.577 61.122 90.577 61.1385 90.577 61.155C90.5341 61.1872 90.4819 61.2046 90.4283 61.2046C90.3747 61.2046 90.3225 61.1872 90.2796 61.155L90.1969 61.0393ZM91.4034 61.0393H91.5025H91.3868H91.2877H91.4034ZM90.5605 61.3369L91.1555 61.1385H91.2711L90.6597 61.37H90.5605C90.5605 61.37 90.577 61.4196 90.5936 61.4196L90.5605 61.3369ZM91.5191 61.3369H91.6182H91.486C91.5011 61.3524 91.5096 61.3731 91.5096 61.3947C91.5096 61.4164 91.5011 61.4371 91.486 61.4526C91.3703 61.4526 91.0894 61.4526 91.0894 61.4526L90.9737 61.6014C90.9737 61.6014 90.8415 61.4692 90.858 61.4361C90.8745 61.403 90.858 61.4361 90.9902 61.3534H91.2877L91.3703 61.2542C91.4187 61.3059 91.4825 61.3407 91.5521 61.3534L91.5191 61.3369ZM91.2711 61.9321C91.2223 61.9201 91.1713 61.9201 91.1224 61.9321C91.1136 61.9501 91.1091 61.9699 91.1091 61.9899C91.1091 62.01 91.1136 62.0298 91.1224 62.0478C91.2712 62.2462 91.9322 62.0478 91.9322 62.0478L91.8331 61.8329C91.8331 61.8329 91.8331 61.8329 91.7174 61.7502H91.5356L91.2711 61.9321ZM91.7009 61.9321H91.4199C91.3373 61.9321 91.2877 61.9321 91.2711 61.9321C91.2546 61.9321 91.5521 61.7998 91.5521 61.7998C91.5521 61.7998 91.7174 62.0147 91.7339 62.0313L91.7009 61.9321ZM91.9818 62.1635C92.114 62.4446 92.0975 62.4777 91.9818 62.5107C92.0075 62.5097 92.0329 62.5172 92.0538 62.5322C92.0748 62.5471 92.0901 62.5687 92.0975 62.5934C92.1137 62.6115 92.1227 62.6351 92.1227 62.6595C92.1227 62.6839 92.1137 62.7075 92.0975 62.7257H91.9322H91.4695C91.4695 62.6265 91.8992 62.5769 91.8992 62.5769C91.8992 62.5769 91.8992 62.4446 91.8165 62.4446H91.3868C91.3868 62.3454 91.8165 62.2792 91.8165 62.2792C91.8165 62.2792 91.8165 62.147 91.7339 62.1635H91.3042C91.3373 62.2958 92.0149 62.2958 92.0149 62.2958L91.9818 62.1635ZM91.7174 62.8909H91.5521C91.5434 62.909 91.5388 62.9288 91.5388 62.9488C91.5388 62.9689 91.5434 62.9887 91.5521 63.0067V63.1886H91.6678V62.9902L91.8165 63.1555H92.0479H92.2132C92.2132 63.1555 92.2132 63.1555 92.2132 63.0398C92.2132 62.924 92.2132 62.891 92.2132 62.8744C92.1538 62.8574 92.0908 62.8574 92.0314 62.8744L91.7174 62.8909ZM92.081 63.0232C91.9157 63.1059 91.9157 63.0232 91.9157 63.0232C91.9157 63.0232 92.114 63.1059 92.114 63.1224L92.081 63.0232ZM92.2793 63.2878H92.428C92.428 63.387 92.2793 63.387 92.2793 63.387C92.2651 63.4149 92.244 63.4387 92.2179 63.4561C92.1919 63.4735 92.1618 63.4838 92.1305 63.4861C92.1305 63.3869 91.7504 63.3704 91.7504 63.3704C91.7248 63.4025 91.692 63.4282 91.6547 63.4454C91.6174 63.4626 91.5766 63.4709 91.5356 63.4696C91.5356 63.3539 91.5356 63.3208 91.5356 63.3043C91.595 63.2873 91.658 63.2873 91.7174 63.3043H92.0644H92.2132L92.3123 63.387L92.2793 63.2878ZM91.3703 63.5192H91.7009C91.7011 63.5337 91.6981 63.5482 91.6921 63.5614C91.6861 63.5747 91.6773 63.5865 91.6662 63.5959C91.6552 63.6054 91.6422 63.6123 91.6282 63.6162C91.6142 63.6201 91.5995 63.6208 91.5852 63.6184H91.486H91.3538H91.4364L91.3703 63.5192ZM91.9322 63.9325C91.9866 63.9204 92.0431 63.9204 92.0975 63.9325C92.1048 63.948 92.1086 63.9649 92.1086 63.9821C92.1086 63.9993 92.1048 64.0162 92.0975 64.0317V64.164H91.9653V64.0317C91.8611 64.0168 91.7554 64.0168 91.6513 64.0317C91.5852 64.0615 91.5323 64.1145 91.5025 64.1805H91.4364V64.0317C91.4323 64.0043 91.4323 63.9765 91.4364 63.9491C91.5015 63.9323 91.5697 63.9323 91.6347 63.9491L91.9322 63.9325ZM91.5521 64.2136H91.4364C91.4364 64.2136 91.3538 64.2136 91.3373 64.2136C91.3207 64.2136 91.3373 64.3624 91.3373 64.3954C91.3373 64.4285 91.3373 64.3954 91.486 64.3954H91.7504C91.8098 64.4124 91.8728 64.4124 91.9322 64.3954C91.9816 64.3776 92.0227 64.3423 92.0479 64.2962C92.06 64.2794 92.0665 64.2591 92.0665 64.2384C92.0665 64.2176 92.06 64.1974 92.0479 64.1805C91.999 64.1686 91.948 64.1686 91.8992 64.1805L91.5521 64.2136ZM91.8 64.4285C91.6762 64.4667 91.5437 64.4667 91.4199 64.4285C91.5025 64.2963 91.7504 64.3293 91.7504 64.3293C91.7504 64.3293 91.8496 64.5112 91.8331 64.5277L91.8 64.4285ZM91.139 64.5773L91.7669 64.7426C91.7669 64.7426 91.7669 64.7426 91.7669 64.8418C91.7249 64.8903 91.6698 64.9254 91.6082 64.943C91.5465 64.9606 91.4811 64.9599 91.4199 64.941L90.9902 64.8253C90.9902 64.7261 91.5025 64.8253 91.5025 64.8253C91.5025 64.8253 91.6347 64.7096 91.5025 64.6931L91.0894 64.5939V64.5112L91.139 64.5773ZM91.139 65.0733H91.4364H91.5356C91.5356 65.0733 91.5356 65.0733 91.5356 65.1725L91.4199 65.3048H91.3042V65.1725C91.3042 65.1725 91.3042 65.1725 91.205 65.1725H91.0563H90.9406H90.8249C90.7093 65.1725 90.6762 65.0733 90.8249 64.9906L90.9572 64.8583C91.0004 64.8464 91.0461 64.8464 91.0894 64.8583L90.9737 65.0072C90.9737 65.0072 90.9737 65.0072 91.0728 65.0072H91.2216L91.139 65.0733ZM90.5109 65.2717C90.4622 65.2591 90.411 65.2591 90.3622 65.2717L90.1639 65.4205H90.263C90.3398 65.3788 90.4119 65.3289 90.4779 65.2717C90.6266 65.2717 90.4779 65.4535 90.4779 65.4535L90.6432 65.5527C90.7027 65.5689 90.7654 65.5689 90.8249 65.5527C90.8735 65.567 90.9251 65.567 90.9737 65.5527C90.9737 65.5527 90.9737 65.5527 90.9737 65.4535C90.9737 65.3543 90.9737 65.4535 90.8745 65.3544L90.6432 65.2717C90.6217 65.302 90.6049 65.3354 90.5936 65.3708L90.5109 65.2717ZM90.858 65.5031C90.6101 65.5031 90.7258 65.5031 90.7258 65.5031H90.858ZM90.2796 65.6354L90.4779 65.7346C90.4779 65.7346 90.577 65.7346 90.577 65.8338C90.5844 65.8493 90.5882 65.8663 90.5882 65.8834C90.5882 65.9006 90.5844 65.9175 90.577 65.933L90.4283 66.0322H90.3126L90.4283 65.933C90.4283 65.8503 90.23 65.7511 90.23 65.7511C90.1412 65.766 90.0566 65.7999 89.9821 65.8503H89.8664L89.9986 65.7181C90.0525 65.7015 90.11 65.7015 90.1639 65.7181L90.2796 65.6354ZM90.2796 66.0156H90.3787V66.1314H90.2796H90.1473H90.0317C89.916 66.1314 90.0317 66.0156 90.0317 66.0156L89.8168 65.8669H89.5359C89.5359 65.8669 89.7011 65.7511 89.7672 65.7511C89.8211 65.7345 89.8787 65.7345 89.9325 65.7511L90.1804 65.8999L90.2796 66.0156ZM89.3045 66.0156L89.0401 66.1479C89.1392 66.1479 89.3706 66.1479 89.3706 66.1479L89.2384 66.3298L89.3375 66.429H89.5028C89.5625 66.4437 89.6249 66.4437 89.6846 66.429H89.7838L89.8829 66.3298C89.8903 66.3143 89.8941 66.2973 89.8941 66.2802C89.8941 66.263 89.8903 66.2461 89.8829 66.2306L89.7011 66.0983C89.6473 66.0817 89.5897 66.0817 89.5359 66.0983L89.3045 66.0156ZM89.6681 66.2306C89.4367 66.2306 89.6681 66.2306 89.6681 66.2306V66.2306ZM89.321 66.4455C89.3312 66.5161 89.3664 66.5806 89.4202 66.6274H89.3045H89.1888H89.0731C88.974 66.5447 89.0731 66.5116 89.0731 66.5116C89.0167 66.4521 88.956 66.3968 88.8913 66.3463C88.7591 66.2141 88.8913 66.214 88.8913 66.214C88.9401 66.2014 88.9913 66.2014 89.0401 66.214L89.2384 66.3794L89.321 66.4455ZM88.693 66.4455L88.9244 66.6935H88.8087C88.7132 66.6191 88.6247 66.5361 88.5443 66.4455C88.3129 66.4455 88.2964 66.4455 88.346 66.5282L88.5608 66.7431H88.4286C88.2941 66.6303 88.1671 66.5088 88.0485 66.3794H88.1807C88.4451 66.2967 88.5112 66.2802 88.5608 66.2967C88.6066 66.3307 88.6429 66.376 88.6661 66.4281C88.6892 66.4803 88.6985 66.5375 88.693 66.5943V66.4455ZM87.9658 66.5447L88.2303 66.9084H88.098C87.8171 66.9084 87.9162 66.9084 87.9162 66.9084C87.9162 66.9084 87.9162 66.9084 87.9162 66.8257L87.7345 66.5943H87.8667L87.9658 66.6935V66.5447ZM87.6022 66.7596C87.5903 66.7381 87.5738 66.7195 87.5537 66.7052C87.5337 66.6909 87.5108 66.6812 87.4866 66.6769H87.3048H86.9742C87.0303 66.814 87.0966 66.9467 87.1726 67.0738C87.2935 67.0852 87.4152 67.0852 87.5361 67.0738C87.6188 67.0738 87.6684 67.0738 87.6849 67.0738V66.9745L87.6022 66.7596ZM87.437 66.7596V66.8919C87.3789 66.939 87.3112 66.9729 87.2387 66.9911L87.123 66.8092C87.123 66.8092 87.4205 66.9415 87.437 66.958V66.7596ZM86.7759 66.7596H86.5941H86.4619H86.2471C86.2898 66.9577 86.3507 67.1513 86.4289 67.3382H86.5776V67.1234C86.5776 67.1234 86.7098 67.1234 86.7263 67.1234C86.7429 67.1234 86.9247 67.1234 86.9412 67.1234C86.9533 67.1065 86.9598 67.0863 86.9598 67.0655C86.9598 67.0447 86.9533 67.0245 86.9412 67.0076V66.8588C86.9064 66.8531 86.8706 66.8598 86.8403 66.878C86.81 66.8962 86.7872 66.9246 86.7759 66.958V66.7596ZM86.6933 66.8753V67.0241C86.5115 67.0241 86.4619 67.0241 86.4454 67.0241V66.9084L86.6933 66.8753ZM85.9661 66.8753H86.0983C86.15 67.0091 86.1887 67.1475 86.214 67.2887H86.0653C86.0136 67.1549 85.9749 67.0165 85.9496 66.8753H85.9661ZM86.1975 67.3548C86.1975 67.454 86.0983 67.4705 86.0983 67.4705L86.1975 67.4871V67.3548ZM85.8008 66.7927H85.6521V66.958H85.4868C85.3546 66.958 85.3051 66.958 85.272 66.958C85.2633 66.9731 85.2587 66.9902 85.2587 67.0076C85.2587 67.025 85.2633 67.0421 85.272 67.0572V67.2226C85.2647 67.2381 85.2608 67.255 85.2608 67.2722C85.2608 67.2893 85.2647 67.3062 85.272 67.3217H85.4538H85.8174C85.8213 67.1893 85.8158 67.0566 85.8008 66.9249V66.7927ZM85.553 67.2391C85.5099 67.2244 85.4716 67.1981 85.4425 67.1631C85.4133 67.1281 85.3944 67.0857 85.3877 67.0407C85.6025 67.0407 85.6356 67.0407 85.6356 67.0407V67.2556C85.6356 67.2556 85.6191 67.3713 85.553 67.3713V67.2391ZM84.8919 67.3878H85.0241C85.0241 67.5036 84.8754 67.5036 84.8754 67.5036L84.8258 67.5201L84.8919 67.3878ZM85.0737 66.9249V67.3217H84.8258C84.8093 67.1789 84.8093 67.0347 84.8258 66.8919H85.0076L85.0737 66.9249ZM84.6771 67.3052H84.2473C84.2473 67.206 84.4787 67.2226 84.4787 67.2226L84.3465 67.1068H84.2639C84.2639 66.9746 84.2639 66.9415 84.4953 66.9415H84.8258C84.8258 67.0407 84.5614 67.0241 84.5614 67.0241H84.4787C84.5392 67.0674 84.6062 67.1009 84.6771 67.1234H84.7762C84.8258 67.3879 84.7101 67.4209 84.6771 67.4374V67.3052ZM84.1812 66.8753L84.049 67.2722H83.8838C83.9052 67.1318 83.9384 66.9936 83.9829 66.8588H84.1482C84.1482 66.8588 84.1812 66.9911 84.1812 67.0076V66.8753ZM83.8672 67.3217H83.9995C83.9995 67.4209 83.8342 67.4044 83.8342 67.4044C83.8342 67.4044 83.8507 67.454 83.8672 67.454V67.3217ZM83.6194 67.206H83.4376H83.2227H83.4541C83.5259 67.1706 83.584 67.1125 83.6194 67.0407C83.545 66.9897 83.4604 66.9559 83.3714 66.9415C83.3714 66.8588 83.6194 66.9415 83.6194 66.9415C83.6455 66.9306 83.6736 66.9249 83.702 66.9249C83.7304 66.9249 83.7584 66.9306 83.7846 66.9415C83.7967 66.9583 83.8032 66.9786 83.8032 66.9993C83.8032 67.0201 83.7967 67.0404 83.7846 67.0572V67.206C83.7825 67.2256 83.7766 67.2446 83.7672 67.2619C83.7578 67.2791 83.745 67.2944 83.7296 67.3067C83.7142 67.319 83.6966 67.3281 83.6776 67.3336C83.6587 67.339 83.6389 67.3405 83.6194 67.3382V67.206ZM82.8426 67.206H82.9748C82.9467 67.2205 82.9155 67.2281 82.8839 67.2281C82.8523 67.2281 82.8211 67.2205 82.793 67.206V67.1068L82.8426 67.206ZM83.2558 66.7761L83.0409 67.1564C82.9863 67.1663 82.9303 67.1663 82.8757 67.1564C82.9317 67.0194 82.998 66.8868 83.074 66.7596C83.1285 66.7485 83.1847 66.7485 83.2392 66.7596C83.2392 66.7596 83.2723 66.8588 83.2558 66.8753V66.7761ZM82.5286 67.0572H82.3799C82.1981 67.0572 82.1485 66.958 82.2146 66.8753L82.4129 66.6108H82.5617L82.3964 66.8753C82.3964 66.8753 82.5947 66.958 82.6277 66.8753L82.8095 66.6274H82.9583C82.8797 66.7605 82.7913 66.8876 82.6939 67.0076H82.5451C82.5451 67.0076 82.5121 67.1564 82.5286 67.1564V67.0572ZM82.2146 66.6935C82.2146 66.6935 82.2146 66.6108 82.2146 66.5778C82.2146 66.5447 82.2146 66.5778 82.0989 66.5778H81.9667C82.0659 66.5778 82.2807 66.5778 82.2807 66.5778L82.1154 66.4124H81.9336C81.8848 66.4005 81.8338 66.4005 81.7849 66.4124L81.4213 66.7927L81.7353 66.9084C81.7949 66.9238 81.8575 66.9238 81.9171 66.9084C81.9651 66.9261 82.0178 66.9261 82.0658 66.9084L82.2146 66.6935ZM81.8841 66.6935H81.7023L81.8179 66.5447C81.8388 66.5272 81.8651 66.5176 81.8923 66.5176C81.9195 66.5176 81.9459 66.5272 81.9667 66.5447C81.9667 66.6274 81.9667 66.7265 81.9667 66.7265L81.8841 66.6935ZM81.4709 66.5116L81.6362 66.3959C81.6362 66.3959 81.6362 66.3959 81.6362 66.2802C81.6362 66.1644 81.6361 66.2802 81.537 66.2802L81.2726 66.1644C81.1734 66.2471 81.4213 66.3463 81.4213 66.3463H81.0908L80.942 66.4455C80.942 66.4455 80.942 66.4455 80.942 66.5447C80.942 66.6439 80.942 66.5447 81.0412 66.6439H81.1404C81.2 66.6593 81.2625 66.6593 81.3222 66.6439C81.3464 66.6711 81.3783 66.6904 81.4137 66.6992C81.449 66.708 81.4862 66.7061 81.5205 66.6935L81.4709 66.5116ZM81.1238 66.4124C81.2065 66.3298 81.3717 66.4124 81.3717 66.4124H81.1238ZM81.1238 66.0322L80.4958 66.462H80.3471C80.5539 66.2969 80.7691 66.1424 80.9916 65.9991H81.1238C81.1238 65.9991 81.1899 66.214 81.1734 66.214L81.1238 66.0322ZM80.1818 66.3132H80.0331L80.1322 66.2306H80.2645L80.1818 66.3132ZM80.7272 65.8173H80.8429C80.6965 65.9331 80.5418 66.0381 80.3801 66.1314H80.2314L80.7107 65.8173H80.7272ZM79.967 66.1148H79.8513L79.9504 66.0322H79.8678H79.9504H80.0661L80.3306 65.8999C80.3306 65.7842 80.3306 65.7511 80.3306 65.7511C80.3306 65.7511 80.5123 65.8503 80.5123 65.8834C80.5123 65.9165 80.5123 65.8834 80.4297 65.9826L80.1818 66.1148V66.214C80.1216 66.2298 80.0653 66.2579 80.0165 66.2967L79.967 66.1148ZM80.2479 65.5031H80.4297L80.1983 65.6519C80.1548 65.6613 80.1097 65.6613 80.0661 65.6519H80.1653L80.2479 65.5031ZM79.5538 65.6519C79.505 65.6645 79.4538 65.6645 79.4051 65.6519L79.2563 65.5362H79.3555L79.5042 65.6354C79.532 65.6276 79.5559 65.6097 79.5711 65.5853C79.5864 65.5608 79.592 65.5315 79.5869 65.5031C79.5869 65.4039 79.5869 65.3874 79.5869 65.3708C79.6315 65.343 79.683 65.3283 79.7356 65.3283C79.7882 65.3283 79.8397 65.343 79.8843 65.3708L80.0496 65.5031H79.967L79.8678 65.6023C79.8584 65.6515 79.8584 65.702 79.8678 65.7511C79.8678 65.8503 79.8678 65.8834 79.8678 65.8999L79.5538 65.6519ZM79.372 65.3213L79.6034 65.2386C79.6299 65.2345 79.6552 65.225 79.6779 65.2108C79.7007 65.1966 79.7203 65.178 79.7356 65.156C79.7356 65.156 79.7356 65.156 79.7356 65.0568L79.5703 64.8914C79.5271 64.8795 79.4814 64.8795 79.4381 64.8914L79.5703 65.0733L79.3059 64.9575H79.1076C79.0811 64.9617 79.0557 64.9711 79.033 64.9853C79.0103 64.9995 78.9907 65.0182 78.9754 65.0402C78.9754 65.0402 78.9754 65.0402 78.9754 65.1394C79.0234 65.1571 79.0761 65.1571 79.1241 65.1394C79.1227 65.2254 79.1518 65.3092 79.2062 65.3758C79.2607 65.4424 79.337 65.4875 79.4216 65.5031L79.372 65.3213ZM79.1406 65.1725C79.1706 65.1468 79.2087 65.1328 79.2481 65.1328C79.2875 65.1328 79.3256 65.1468 79.3555 65.1725C79.2233 65.3874 79.1902 65.3544 79.1902 65.3544L79.1406 65.1725ZM78.6944 64.7757C78.6944 64.941 78.7936 64.9741 78.8432 64.9741H79.025H79.2728C79.3221 64.9827 79.3724 64.9827 79.4216 64.9741C79.4337 64.9572 79.4402 64.937 79.4402 64.9162C79.4402 64.8954 79.4337 64.8752 79.4216 64.8583L79.2728 64.66L78.3308 64.8914C78.4652 64.9309 78.604 64.9531 78.744 64.9575L78.6944 64.7757ZM78.8432 64.7757C78.8432 64.7757 78.8432 64.6765 78.8432 64.66H79.0415C79.0415 64.66 79.1572 64.66 79.1737 64.66C79.1902 64.66 78.9258 64.8253 78.9258 64.8253C78.9258 64.8253 78.9093 65.0402 78.8927 65.0237L78.8432 64.7757ZM78.3474 64.0648C78.3474 64.2467 78.3474 64.2632 78.3474 64.2797H78.5457H78.8101C78.8587 64.294 78.9103 64.294 78.9588 64.2797V64.164C78.8266 63.9491 77.8846 64.164 77.8846 64.164L78.3969 64.3128L78.3474 64.0648ZM78.5292 64.0648H78.7275C78.7275 64.0648 78.8432 64.0648 78.8597 64.0648C78.8762 64.0648 78.5622 64.197 78.5622 64.197C78.5622 64.197 78.5126 64.2963 78.5787 64.2797L78.5292 64.0648ZM78.6944 63.8829H78.8597C78.8718 63.866 78.8783 63.8458 78.8783 63.825C78.8783 63.8043 78.8718 63.7841 78.8597 63.7672C78.8597 63.6515 78.8597 63.6184 78.7605 63.6019C78.7011 63.5849 78.6381 63.5849 78.5787 63.6019H78.2978C78.2443 63.583 78.186 63.583 78.1325 63.6019V63.7011C78.1325 63.8333 78.1325 63.8664 78.2317 63.8829H78.6944ZM78.3143 63.7507C78.3143 63.6515 78.6283 63.6349 78.6283 63.6349L78.3969 63.8003L78.3639 63.9491L78.3143 63.7507ZM78.5953 63.4696C78.6539 63.4911 78.7184 63.4911 78.777 63.4696C78.7857 63.4545 78.7903 63.4374 78.7903 63.42C78.7903 63.4026 78.7857 63.3855 78.777 63.3704V63.1886H78.6448V63.3704L78.4961 63.2051H78.2647C78.2113 63.1862 78.1529 63.1862 78.0995 63.2051C78.0887 63.2194 78.0829 63.2368 78.0829 63.2547C78.0829 63.2725 78.0887 63.2899 78.0995 63.3043C78.0995 63.42 78.0995 63.4531 78.1821 63.4696C78.2647 63.4861 78.2812 63.4696 78.3639 63.4696H78.5953ZM78.2317 63.3208C78.4135 63.2381 78.4135 63.3208 78.4135 63.3208C78.4135 63.3208 78.2151 63.5523 78.2151 63.5357L78.2317 63.3208ZM77.9342 63.0728H77.8185C77.8185 62.9736 77.9507 62.9736 77.9507 62.9736C77.9507 62.9736 78.0168 63.2878 77.9838 63.2878L77.9342 63.0728ZM78.0664 63.0728C78.0664 62.9736 78.7936 63.0728 78.7936 63.0728L78.0995 63.172C78.0995 63.172 78.116 63.2877 78.116 63.2712L78.0664 63.0728ZM78.5953 62.9075H78.116C78.116 62.7918 78.6118 62.8248 78.6118 62.8248V62.6926H78.1656C78.1656 62.5768 78.8762 62.6926 78.8762 62.6926C78.8762 62.9736 78.8762 63.0067 78.777 63.0232L78.5953 62.9075ZM78.3804 62.4446H78.2482C78.2394 62.4265 78.2349 62.4068 78.2349 62.3867C78.2349 62.3667 78.2394 62.3469 78.2482 62.3288V62.1966H78.3804V62.3288C78.3804 62.3288 78.463 62.3288 78.4961 62.3288H78.6118C78.6493 62.3162 78.6899 62.3162 78.7275 62.3288H78.8432C78.9754 62.3288 79.025 62.3288 78.9754 62.4776V62.643H78.8432V62.4776C78.8432 62.4776 78.8432 62.4776 78.7275 62.4776H78.6118H78.5126L78.3804 62.4446ZM79.025 62.1635L78.3639 62.0313C78.5126 61.7667 78.5622 61.7337 78.6283 61.7337C78.6944 61.7337 78.6283 61.7337 78.6283 61.6179C78.6283 61.5022 78.7109 61.5187 78.777 61.5187H78.9588L79.4051 61.6179C79.4051 61.7171 78.8927 61.6179 78.8927 61.6179C78.8927 61.6179 78.7771 61.7337 78.8927 61.7502H79.3059C79.3059 61.8494 78.8101 61.7502 78.8101 61.7502C78.8101 61.7502 78.6779 61.8659 78.8101 61.8825L79.2233 61.9651C79.0911 62.2958 79.0911 62.3785 79.0745 62.2958L79.025 62.1635ZM79.4216 61.5353C79.4789 61.5249 79.5312 61.4958 79.5703 61.4526C79.5703 61.4526 79.5703 61.4526 79.5703 61.3534C79.5584 61.3319 79.5418 61.3133 79.5218 61.299C79.5018 61.2847 79.4789 61.2751 79.4546 61.2708H79.2068H79.025C78.9704 61.2881 78.9198 61.3162 78.8762 61.3534C78.8611 61.3689 78.8526 61.3896 78.8526 61.4113C78.8526 61.4329 78.8611 61.4537 78.8762 61.4692C78.9141 61.479 78.954 61.479 78.9919 61.4692H79.2398C79.2529 61.5292 79.281 61.5849 79.3214 61.6312C79.3619 61.6775 79.4134 61.7127 79.4712 61.7337L79.4216 61.5353ZM79.0415 61.3204C79.1687 61.2689 79.3109 61.2689 79.4381 61.3204C79.3224 61.4361 79.0911 61.3204 79.0911 61.3204C79.0911 61.3204 79.0911 61.5353 79.0911 61.5187L79.0415 61.3204ZM79.7521 61.2046H79.9009L80.1157 61.0228L79.3059 60.6756H79.1902L79.4712 60.8079C79.4712 60.8079 79.2233 60.9566 79.2398 60.9897C79.2517 61.0112 79.2683 61.0298 79.2883 61.0441C79.3083 61.0584 79.3313 61.0681 79.3555 61.0724L79.5703 61.1716L79.7521 61.2046ZM79.4216 60.9566C79.5207 60.8574 79.5703 60.8575 79.6364 60.874H79.8017C79.8017 60.874 79.8017 60.874 79.8017 60.9566C79.6832 60.9925 79.5567 60.9925 79.4381 60.9566H79.4216Z" fill="#788EFF"/>
</g>
<path d="M90.2957 47.7132C90.3288 47.724 90.3576 47.7451 90.378 47.7733C90.3984 47.8015 90.4094 47.8354 90.4094 47.8702C90.4094 47.905 90.3984 47.939 90.378 47.9672C90.3576 47.9953 90.3288 48.0164 90.2957 48.0272C90.2107 48.0682 90.1175 48.0895 90.0231 48.0895C89.9286 48.0895 89.8354 48.0682 89.7504 48.0272C89.7173 48.0164 89.6885 47.9953 89.6681 47.9672C89.6477 47.939 89.6367 47.905 89.6367 47.8702C89.6367 47.8354 89.6477 47.8015 89.6681 47.7733C89.6885 47.7451 89.7173 47.724 89.7504 47.7132C89.8354 47.6722 89.9286 47.6509 90.0231 47.6509C90.1175 47.6509 90.2107 47.6722 90.2957 47.7132Z" fill="#788EFF"/>
<path d="M90.8402 48.3416C90.8072 48.3525 90.7784 48.3735 90.758 48.4017C90.7375 48.4299 90.7266 48.4638 90.7266 48.4987C90.7266 48.5335 90.7375 48.5674 90.758 48.5956C90.7784 48.6238 90.8072 48.6448 90.8402 48.6557C90.9225 48.7053 91.0168 48.7314 91.1129 48.7314C91.209 48.7314 91.3033 48.7053 91.3856 48.6557C91.4186 48.6448 91.4474 48.6238 91.4678 48.5956C91.4883 48.5674 91.4992 48.5335 91.4992 48.4987C91.4992 48.4638 91.4883 48.4299 91.4678 48.4017C91.4474 48.3735 91.4186 48.3525 91.3856 48.3416C91.3005 48.3006 91.2073 48.2793 91.1129 48.2793C91.0185 48.2793 90.9253 48.3006 90.8402 48.3416Z" fill="#788EFF"/>
<path d="M91.9319 49.0689C91.7831 49.1515 91.7831 49.2837 91.9319 49.3829C92.0169 49.4239 92.1101 49.4452 92.2046 49.4452C92.299 49.4452 92.3922 49.4239 92.4773 49.3829C92.6425 49.2837 92.6425 49.1515 92.4773 49.0689C92.3949 49.0193 92.3006 48.9932 92.2046 48.9932C92.1085 48.9932 92.0142 49.0193 91.9319 49.0689Z" fill="#788EFF"/>
<path d="M42.3511 28.5516L42.6486 28.7335L44.8136 27.477L44.5161 27.2951L42.3511 28.5516ZM46.5654 26.1048L44.8136 27.1133L45.1276 27.2951L46.8794 26.2867L46.5654 26.1048ZM35.7405 32.7179L35.4265 32.536L30.0057 35.6772L30.3197 35.8591L35.7405 32.7179ZM46.8133 25.9229L47.1273 26.0883L51.0606 23.8233L50.7466 23.6414L46.8133 25.9229ZM55.2914 21.3764L58.1671 19.7232L57.8696 19.5413L54.994 21.1946L55.2914 21.3764ZM36.9965 31.9574L36.6825 31.7755L35.6909 32.3542L35.9884 32.5195L36.9965 31.9574ZM41.9545 28.6508L36.9965 31.5276L37.294 31.7094L42.252 28.8162L41.9545 28.6508ZM54.6469 21.3103L51.0276 23.41L51.3416 23.5753L54.9609 21.4922L54.6469 21.3103ZM29.6917 35.8426L28.0391 36.8346L28.3531 36.9999L30.0057 36.0079L29.6917 35.8426ZM77.5032 55.2355L77.2222 55.0867L73.2559 57.3352L73.5368 57.5005L77.5032 55.2355ZM79.1559 55.2355L79.4203 55.4008L83.3536 53.1193L83.0727 52.9705L79.1559 55.2355ZM85.7665 50.5071L88.0967 49.1514L87.8158 49.0026L85.4855 50.3418L85.7665 50.5071ZM83.4528 52.7887L83.7337 52.9374L85.3864 51.9455L85.1054 51.7967L83.4528 52.7887ZM77.5693 54.9214L77.8503 55.0702L81.8166 52.7721L81.5522 52.6233L77.5693 54.9214ZM85.1881 50.5237L81.8827 52.4415L82.1472 52.6068L85.4525 50.689L85.1881 50.5237ZM85.1881 53.0532L82.99 54.3262L83.2545 54.4915L85.469 53.202L85.1881 53.0532ZM85.783 53.0532L87.7993 51.8959L87.5183 51.7305L85.5021 52.9044L85.783 53.0532ZM85.783 51.7967L88.3612 50.3087L88.0802 50.16L85.5021 51.6479L85.783 51.7967ZM82.6926 54.5411L77.6024 57.4839L77.8833 57.6327L82.9735 54.6899L82.6926 54.5411ZM75.9662 58.4263L71.4379 61.0385L71.7189 61.1873L76.2306 58.5917L75.9662 58.4263ZM73.5864 58.5255L70.2811 60.3937L70.562 60.5591L73.8673 58.6909L73.5864 58.5255ZM77.5693 57.8146L77.2883 57.6493L76.2802 58.2444L76.5447 58.4098L77.5693 57.8146ZM73.3054 57.8146L73.041 57.6493L69.2564 59.8316L69.5374 59.9804L73.3054 57.8146ZM79.2054 55.6653L78.9245 55.5165L73.9665 58.4098L74.2475 58.5751L79.2054 55.6653ZM61.0262 22.699L61.3071 22.8644L65.257 20.5828L64.976 20.4175L61.0262 22.699ZM60.927 23.0793L60.646 22.914L55.9194 25.6419L56.2004 25.8072L60.927 23.0793ZM61.8194 23.5422L62.1004 23.7075L64.7281 22.2031L64.4472 22.0377L61.8194 23.5422ZM64.8108 21.8889L65.1082 22.0543L67.2237 20.8309L66.9262 20.6655L64.8108 21.8889ZM66.0833 22.4676L66.3808 22.6329L70.3306 20.3514L70.0332 20.1861L66.0833 22.4676ZM62.497 25.8568L62.778 26.0221L65.4057 24.5011L65.1248 24.3358L62.497 25.8568ZM65.7197 22.6825L60.9931 25.4104L61.2741 25.5758L66.0007 22.8479L65.7197 22.6825ZM67.6038 22.8975L65.4884 24.1209L65.7858 24.2862L67.9012 23.0627L67.6038 22.8975ZM72.0659 17.6896L67.3063 20.4506L67.5872 20.6159L72.3469 17.8549L72.0659 17.6896ZM60.894 25.7907L60.613 25.6254L49.6559 31.9574L49.9533 32.1227L60.894 25.7907ZM55.3245 27.5762L55.027 27.4109L48.4164 31.2465L48.6973 31.4118L55.3245 27.5762ZM69.7026 17.6566L65.3561 20.1695L65.6371 20.3349L69.9836 17.8219L69.7026 17.6566ZM55.8533 25.9229L55.5558 25.7576L48.7965 29.6593L49.094 29.8246L55.8533 25.9229ZM68.0004 22.5172L68.2814 22.6825L73.041 19.9381L72.7601 19.7727L68.0004 22.5172ZM70.4298 19.8058L70.7108 19.9711L72.8262 18.7477L72.5452 18.5824L70.4298 19.8058ZM56.0021 29.7254L55.7046 29.5602L51.5399 31.9739L51.8208 32.1393L56.0021 29.7254ZM62.1335 25.8568L56.0847 29.3452L56.3657 29.5106L62.4309 26.0221L62.1335 25.8568ZM70.0662 17.3259L70.3637 17.4912L72.8923 16.0198L72.6113 15.8545L70.0662 17.3259ZM61.8029 23.7737L61.5054 23.6084L55.4567 27.1133L55.7376 27.2786L61.8029 23.7737ZM72.9584 18.3179L73.2559 18.4832L74.5614 17.7227L74.264 17.5574L72.9584 18.3179ZM74.611 18.6816L73.1898 19.5082L73.4872 19.6736L74.9085 18.8469L74.611 18.6816ZM64.2819 26.6173L64.5629 26.7826L67.1906 25.2781L66.9096 25.1128L64.2819 26.6173ZM64.9926 27.8573L64.7116 27.6919L60.0346 30.4364L60.332 30.6017L64.9926 27.8573ZM69.3886 23.6745L67.2897 24.8979L67.5707 25.0632L69.6861 23.8398L69.3886 23.6745ZM66.8766 27.758L67.1575 27.9234L71.8346 25.2285L71.5536 25.0632L66.8766 27.758ZM69.7687 23.4596L70.0497 23.6249L74.8259 20.8639L74.5284 20.6986L69.7687 23.4596ZM74.7267 22.2031L77.5032 20.5498L77.2057 20.3844L74.4458 22.0377L74.7267 22.2031ZM71.8511 24.8483L72.1486 25.0137L74.1979 23.8233L73.9004 23.658L71.8511 24.8483ZM57.7043 30.7174L57.4234 30.5521L53.3082 32.9163L53.5892 33.0816L57.7043 30.7174ZM63.8357 26.8322L57.787 30.3372L58.0679 30.5025L64.1332 26.9976L63.8357 26.8322ZM65.0091 27.477L65.3066 27.6424L70.0332 24.9145L69.7522 24.7491L65.0091 27.477ZM74.0657 22.2527L70.1158 24.5342L70.4133 24.6995L74.3631 22.418L74.0657 22.2527ZM73.7517 25.0632L71.1239 26.5842L71.4214 26.7496L74.0491 25.2285L73.7517 25.0632ZM76.2637 19.6736L74.8424 20.4836L75.1234 20.649L76.5447 19.8389L76.2637 19.6736ZM74.4127 25.0137L76.8091 23.6249L76.5281 23.4596L74.1318 24.8483L74.4127 25.0137ZM74.5614 23.6084L77.6354 21.8393L77.3379 21.674L74.2805 23.443L74.5614 23.6084ZM70.7603 26.7992L64.6951 30.2876L64.9926 30.4529L71.0413 26.9645L70.7603 26.7992ZM62.7449 31.4118L57.787 34.305L58.0844 34.4704L63.0424 31.5772L62.7449 31.4118ZM60.0841 31.6432L55.4071 34.3381L55.6881 34.5034L60.3816 31.8086L60.0841 31.6432ZM64.6124 30.6678L64.3315 30.5025L63.125 31.1969L63.406 31.3622L64.6124 30.6678ZM59.8858 30.767L59.6049 30.6017L53.8206 33.9082L54.1015 34.0736L59.8858 30.767ZM66.7279 28.1383L66.4469 27.973L60.4643 31.4283L60.7452 31.5937L66.7279 28.1383ZM74.0822 29.246L78.8419 26.5016L79.1393 26.6669L74.3797 29.4113L74.0822 29.246ZM74.4127 30.7009L74.1318 30.5356L69.4052 33.28L69.6861 33.4453L74.4127 30.7009ZM71.8841 30.8497L73.9995 29.6263L73.7186 29.461L71.6032 30.6844L71.8841 30.8497ZM71.5206 31.0646L71.2231 30.8993L68.5953 32.4203L68.8928 32.5856L71.5206 31.0646ZM76.8091 26.7L78.9245 25.4766L78.627 25.3112L76.5116 26.5346L76.8091 26.7ZM79.222 26.2867L79.5029 26.452L83.899 23.9059L83.618 23.7406L79.222 26.2867ZM69.306 33.6602L69.0085 33.4784L58.0018 39.8435L58.2828 40.0088L69.306 33.6602ZM67.3558 32.1393L72.099 29.4113L71.8015 29.246L67.0749 31.9739L67.3558 32.1393ZM72.4626 29.1964L76.4124 26.9149L76.1315 26.7496L72.1816 29.0311L72.4626 29.1964ZM66.9923 32.3542L66.6948 32.1889L60.0841 36.0575L60.3651 36.2229L66.9923 32.3542ZM79.2715 25.2616L82.2794 23.5257L81.9984 23.3604L78.9906 25.0137L79.2715 25.2616ZM68.2979 32.6848L57.6217 38.8516L57.9026 39.0169L68.5788 32.8502L68.2979 32.6848ZM57.4564 36.6527L61.4724 34.3215L61.1914 34.1563L57.1589 36.4874L57.4564 36.6527ZM78.6105 24.0878L78.8914 24.2531L81.5192 22.7321L81.2382 22.5668L78.6105 24.0878ZM73.7682 27.229L78.5278 24.468L78.2138 24.2697L73.4542 27.0306L73.7682 27.229ZM71.2727 28.6674L73.3881 27.444L73.1071 27.2786L70.9917 28.502L71.2727 28.6674ZM68.2814 30.3206L70.9091 28.8162L70.6116 28.6508L67.9839 30.1553L68.2814 30.3206ZM61.7864 34.1893L67.8351 30.6844L67.5542 30.519L61.4889 34.024L61.7864 34.1893ZM79.0402 29.8577L79.3376 30.0231L83.2875 27.7415L82.99 27.5762L79.0402 29.8577ZM75.4539 33.2469L75.7348 33.4123L78.3626 31.8912L78.0816 31.7259L75.4539 33.2469ZM78.6766 30.0727L73.9335 32.8006L74.2309 32.9659L78.9575 30.238L78.6766 30.0727ZM76.1645 34.4704L75.8836 34.305L71.2065 37.0164L71.4875 37.1817L76.1645 34.4704ZM80.5606 30.2876L78.4452 31.511L78.7427 31.6763L80.8416 30.4529L80.5606 30.2876ZM73.8508 33.1808L73.5699 33.0155L62.5301 39.3971L62.811 39.5625L73.8508 33.1808ZM78.0486 34.3711L78.3295 34.5365L83.0065 31.8416L82.7256 31.6763L78.0486 34.3711ZM80.9407 30.0727L81.2217 30.238L85.9813 27.4936L85.7004 27.3282L80.9407 30.0727ZM83.3701 27.3613L83.6511 27.5266L85.7665 26.3032L85.4855 26.1379L83.3701 27.3613ZM85.9648 28.8162L88.7248 27.1629L88.4438 26.9976L85.6839 28.6508L85.9648 28.8162ZM83.1718 31.3787L83.4528 31.5441L85.5021 30.3702L85.2211 30.2049L83.1718 31.3787ZM69.025 37.2479L68.7276 37.0825L64.5298 39.5129L64.8273 39.6782L69.025 37.2479ZM75.1564 33.3792L69.1077 36.8676L69.3886 37.0329L75.4539 33.5445L75.1564 33.3792ZM76.3298 34.0075L76.6273 34.1728L81.3539 31.4449L81.0729 31.2795L76.3298 34.0075ZM85.3864 28.7831L81.4365 31.0646L81.7175 31.2299L85.6673 28.9484L85.3864 28.7831ZM85.9318 25.8403L86.2292 26.0056L88.0141 24.9641L87.7332 24.7987L85.9318 25.8403ZM87.5844 26.204L86.1631 27.0306L86.4606 27.1959L87.8819 26.3693L87.5844 26.204ZM71.4214 38.1737L66.6452 40.9016L66.9262 41.0669L71.6363 38.339L71.4214 38.1737ZM71.2231 37.314L70.9256 37.1487L64.9926 40.5709L65.2735 40.7363L71.2231 37.314ZM78.0651 34.6688L77.7676 34.5034L71.8015 37.9588L72.0825 38.1241L78.0651 34.6688ZM44.4169 32.2385L44.7144 32.4038L48.6643 30.1223L48.3668 29.9569L44.4169 32.2385ZM44.3343 32.6187L44.0533 32.4534L39.3102 35.1978L39.6077 35.3631L44.3343 32.6187ZM45.2102 33.0981L45.5077 33.2635L48.1354 31.7424L47.8545 31.5772L45.2102 33.0981ZM45.8878 35.3466L46.1853 35.5119L48.813 33.9909L48.532 33.8256L45.8878 35.3466ZM49.1931 32.1558L44.45 34.9002L44.7475 35.0655L49.4741 32.3211L49.1931 32.1558ZM51.0772 32.3872L48.9618 33.6107L49.2427 33.776L51.3581 32.5526L51.0772 32.3872ZM44.3674 35.2805L44.0864 35.1151L34.534 40.6206L34.8315 40.7859L44.3674 35.2805ZM38.55 37.1983L38.269 37.0329L33.1954 39.9592L33.4763 40.1246L38.55 37.1983ZM39.0788 35.545L38.7979 35.3797L32.0385 39.2814L32.3194 39.4467L39.0788 35.545ZM39.2276 39.3971L38.9466 39.2318L35.5256 41.2157L35.8066 41.3811L39.2276 39.3971ZM45.3755 35.5285L39.3267 39.0169L39.6077 39.1822L45.6564 35.6938L45.3755 35.5285ZM44.9788 33.4453L44.6979 33.28L38.6491 36.785L38.9301 36.9503L44.9788 33.4453ZM47.4578 36.2889L47.7388 36.4543L50.3665 34.9333L50.0855 34.768L47.4578 36.2889ZM48.1685 37.5289L47.8875 37.3636L43.2105 40.0584L43.4914 40.2238L48.1685 37.5289ZM52.5645 33.3461L50.4491 34.553L50.7466 34.7184L52.862 33.5115L52.5645 33.3461ZM50.1186 37.4959L50.3996 37.6612L55.0766 34.9498L54.7956 34.7845L50.1186 37.4959ZM41.0125 40.4552L40.715 40.2899L37.294 42.2573L37.5749 42.4226L41.0125 40.4552ZM47.1438 36.57L41.0951 40.075L41.376 40.2403L47.4413 36.7354L47.1438 36.57ZM48.3172 37.2148L48.6147 37.3801L53.3413 34.6522L53.0603 34.4704L48.3172 37.2148ZM57.0598 34.801L54.4321 36.3055L54.713 36.4708L57.3407 34.9663L57.0598 34.801ZM54.0685 36.4543L48.0032 39.9592L48.3007 40.1246L54.3494 36.6196L54.0685 36.4543ZM46.0531 41.0835L40.6819 44.1916L40.9629 44.3569L46.334 41.2488L46.0531 41.0835ZM43.3923 41.3149L39.5416 43.5303L39.8391 43.6956L43.6898 41.4803L43.3923 41.3149ZM47.9206 40.3395L47.6396 40.1742L46.4332 40.8686L46.7141 41.0339L47.9206 40.3395ZM43.194 40.4387L42.8965 40.2733L38.4178 42.869L38.6987 43.0343L43.194 40.4387ZM50.036 37.81L49.7385 37.6446L43.7724 41.1L44.0533 41.2653L50.036 37.81ZM57.7209 40.3725L57.4399 40.2073L52.6968 42.9351L52.9942 43.1005L57.7209 40.3725ZM55.1923 40.5213L57.3077 39.2979L57.0102 39.1326L54.8948 40.356L55.1923 40.5213ZM54.8122 40.7363L54.5312 40.5709L51.9035 42.092L52.1844 42.2573L54.8122 40.7363ZM52.6141 43.3154L52.3332 43.1501L45.5738 47.0518L45.8713 47.2171L52.6141 43.3154ZM50.6805 41.8109L55.4071 39.083L55.1262 38.9177L50.3996 41.6456L50.6805 41.8109ZM55.7872 38.8681L59.7371 36.5866L59.4561 36.4212L55.5063 38.7028L55.7872 38.8681ZM50.3169 42.0258L50.0195 41.8605L43.2931 45.7622L43.5906 45.9276L50.3169 42.0258ZM51.5234 42.3069L44.4169 46.407L44.7144 46.5723L51.7713 42.4557L51.5234 42.3069ZM42.4998 45.2167L44.7144 43.9436L44.4335 43.7783L42.2189 45.0513L42.4998 45.2167ZM54.5147 38.2894L56.6301 37.066L56.3326 36.9007L54.2172 38.1076L54.5147 38.2894ZM51.5068 39.9427L54.1346 38.4382L53.8536 38.2563L51.2259 39.7774L51.5068 39.9427ZM45.078 43.6626L51.1432 40.1576L50.8458 39.9923L44.797 43.4973L45.078 43.6626ZM58.7455 42.7202L59.043 42.8856L61.6707 41.3645L61.3732 41.1992L58.7455 42.7202ZM62.0508 39.5294L57.2251 42.4557L57.5225 42.621L62.2491 39.8766L62.0508 39.5294ZM59.4561 44.109L59.1587 43.9436L54.4981 46.655L54.7791 46.8204L59.4561 44.109ZM63.8522 39.9262L61.7368 41.1496L62.0178 41.3149L64.1332 40.0915L63.8522 39.9262ZM57.1424 42.8194L56.8615 42.6541L47.3091 48.1595L47.6066 48.3248L57.1424 42.8194ZM61.3402 44.0098L61.6211 44.1751L66.2981 41.4803L66.0007 41.3149L61.3402 44.0098ZM52.2175 46.9691L51.9365 46.8038L48.5155 48.7877L48.7965 48.953L52.2175 46.9691ZM58.3654 43.1005L52.3166 46.5889L52.5976 46.7542L58.6463 43.2658L58.3654 43.1005ZM59.5388 43.7287L59.8197 43.894L64.5629 41.1661L64.2654 41.0008L59.5388 43.7287ZM54.5808 47.895L50.7301 50.1104L51.011 50.2757L54.8617 48.0603L54.5808 47.895ZM54.366 47.0352L54.085 46.8699L49.6063 49.4491L49.8872 49.6143L54.366 47.0352ZM61.208 44.39L60.927 44.2247L54.9444 47.68L55.2419 47.8454L61.208 44.39ZM83.6511 35.7434L83.9321 35.9087L87.8819 33.6272L87.6009 33.4619L83.6511 35.7434ZM83.5685 36.1237L83.2875 35.9583L78.5444 38.6862L78.8419 38.8516L83.5685 36.1237ZM84.4444 36.6031L84.7418 36.7684L87.3696 35.2474L87.0721 35.0821L84.4444 36.6031ZM87.4522 34.8672L87.7332 35.0325L89.8486 33.809L89.5676 33.6437L87.4522 34.8672ZM88.7248 35.4458L89.0057 35.6111L92.9556 33.3296L92.6746 33.1643L88.7248 35.4458ZM85.1219 38.7524L85.4194 38.9177L88.1298 37.4959L87.8323 37.3305L85.1219 38.7524ZM88.4273 35.5781L83.7007 38.3059L83.9816 38.4713L88.7248 35.7434L88.4273 35.5781ZM90.3278 35.793L88.2124 37.0164L88.4934 37.1817L90.6088 35.9583L90.3278 35.793ZM94.7735 30.6017L90.0138 33.3461L90.3113 33.5115L95.071 30.767L94.7735 30.6017ZM83.618 38.6862L83.3371 38.5209L72.3799 44.853L72.6609 45.0182L83.618 38.6862ZM78.0155 40.604L77.7346 40.4387L71.1239 44.2743L71.4214 44.4396L78.0155 40.604ZM92.3937 30.6844L88.0637 33.1973L88.3447 33.3627L92.6911 30.8497L92.3937 30.6844ZM78.5444 38.9507L78.2634 38.7854L71.504 42.6872L71.785 42.8525L78.5444 38.9507ZM90.6914 35.545L90.9889 35.7103L95.7486 32.9659L95.4511 32.8006L90.6914 35.545ZM93.1208 32.8336L93.4183 32.9989L95.5337 31.7755L95.2362 31.6102L93.1208 32.8336ZM78.6931 42.7533L78.4121 42.5879L74.2309 44.9852L74.5284 45.1671L78.6931 42.7533ZM84.8245 38.9838L78.7262 42.4557L79.0236 42.621L85.0724 39.1161L84.8245 38.9838ZM92.7573 30.4529L93.0382 30.6182L95.5833 29.1633L95.2858 28.998L92.7573 30.4529ZM84.4939 36.9172L84.213 36.7519L78.1477 40.2403L78.4452 40.4056L84.4939 36.9172ZM95.6659 31.4449L95.9469 31.6102L97.2525 30.8497L96.9715 30.6844L95.6659 31.4449ZM97.3186 31.8086L95.8973 32.6352L96.1782 32.8006L97.5995 31.9739L97.3186 31.8086ZM86.9729 39.7608L87.2704 39.9262L89.8982 38.4051L89.6172 38.2399L86.9729 39.7608ZM87.7001 40.9842L87.4192 40.819L82.7421 43.5303L83.0231 43.6956L87.7001 40.9842ZM92.0962 36.8015L89.9808 38.0249L90.2617 38.1903L92.3772 36.9668L92.0962 36.8015ZM89.5841 40.8851L89.8651 41.0504L94.5421 38.3555L94.2446 38.1903L89.5841 40.8851ZM92.4598 36.5866L92.7573 36.7519L97.5169 34.0075L97.2359 33.8421L92.4598 36.5866ZM97.4177 35.3301L100.178 33.6768L99.8967 33.5115L97.1203 35.1647L97.4177 35.3301ZM94.5421 37.9753L94.8231 38.1407L96.8724 36.9503L96.5914 36.785L94.5421 37.9753ZM80.3788 43.8444L80.0979 43.6791L75.9993 46.0598L76.2802 46.2251L80.3788 43.8444ZM86.4771 39.9758L80.4284 43.4642L80.7093 43.6295L86.7581 40.1411L86.4771 39.9758ZM87.6505 40.604L87.9315 40.7694L92.6746 38.0414L92.3772 37.8761L87.6505 40.604ZM96.7071 35.3797L92.7573 37.6612L93.0382 37.8265L96.9881 35.545L96.7071 35.3797ZM81.5192 46.8204L76.8917 49.4821L77.1892 49.6474L81.8001 46.9856L81.5192 46.8204ZM98.9382 32.8006L97.5169 33.6272L97.8144 33.7925L99.2357 32.9659L98.9382 32.8006ZM97.2855 36.7354L100.343 34.9663L100.062 34.801L96.9881 36.57L97.2855 36.7354ZM76.5612 49.697L72.4956 52.0447L72.7766 52.21L76.8421 49.8624L76.5612 49.697ZM82.8082 44.7372L78.0486 47.4155L78.3461 47.5808L83.0231 44.8695L82.8082 44.7372ZM72.2312 52.4911L71.9337 52.3257L69.4547 53.7641L69.7522 53.9294L72.2312 52.4911ZM82.6099 43.8775L82.3124 43.7122L76.5447 47.0187L76.8256 47.184L82.6099 43.8775ZM89.4354 41.2323L89.1544 41.0669L83.1718 44.5553L83.4693 44.7207L89.4354 41.2323ZM67.0419 45.2993L67.3228 45.4647L71.2727 43.1831L70.9917 43.0178L67.0419 45.2993ZM67.0419 45.6796L66.7444 45.5143L62.0178 48.2421L62.2987 48.4075L67.0419 45.6796ZM67.9178 46.1425L68.1987 46.3078L70.8264 44.8034L70.5455 44.638L67.9178 46.1425ZM68.5953 48.3909L68.8763 48.5563L71.504 47.0352L71.2231 46.8699L68.5953 48.3909ZM71.818 45.2167L67.0914 47.9446L67.3724 48.1099L72.1155 45.382L71.818 45.2167ZM73.7021 45.4316L71.6032 46.655L71.8841 46.8204L73.9995 45.5969L73.7021 45.4316ZM67.0088 48.3248L66.7113 48.1595L57.1755 53.6649L57.4564 53.8468L67.0088 48.3248ZM61.4063 50.2426L61.1253 50.0773L56.0351 53.0201L56.3161 53.1854L61.4063 50.2426ZM61.9351 48.5893L61.6377 48.424L54.7461 52.3753L55.027 52.5407L61.9351 48.5893ZM62.0839 52.4415L61.6872 52.3753L58.2497 54.3593L58.5472 54.5246L62.0839 52.4415ZM68.2152 48.5728L62.1665 52.0612L62.464 52.2265L68.5127 48.7381L68.2152 48.5728ZM67.8351 46.4897L67.5376 46.3243L61.4889 49.8293L61.7864 49.9946L67.8351 46.4897ZM70.2976 49.3499L70.5951 49.5151L73.2228 47.9942L72.9253 47.8288L70.2976 49.3499ZM71.0248 50.5733L70.7273 50.4079L66.0503 53.1028L66.3477 53.2681L71.0248 50.5733ZM75.4208 46.3905L73.3054 47.6139L73.5864 47.7792L75.7018 46.5558L75.4208 46.3905ZM72.8923 50.4741L73.1898 50.6394L77.8668 47.9446L77.5693 47.7792L72.8923 50.4741ZM63.7861 53.4335L63.5052 53.2681L60.0841 55.252L60.3651 55.4174L63.7861 53.4335ZM69.934 49.5647L63.8688 53.0532L64.1662 53.2185L70.215 49.7301L69.934 49.5647ZM71.1074 50.193L71.3883 50.3583L76.1315 47.6304L75.834 47.4651L71.1074 50.193ZM68.8433 54.1278L63.3399 57.3352L63.6374 57.5005L69.0085 54.3923L68.8433 54.1278ZM66.1825 54.3593L62.3318 56.5747L62.6127 56.74L66.4634 54.5246L66.1825 54.3593ZM65.9676 53.4831L65.6867 53.3177L61.208 55.9134L61.4889 56.0787L65.9676 53.4831ZM72.8096 50.8543L72.5287 50.689L66.5461 54.1444L66.8435 54.3097L72.8096 50.8543ZM103.351 41.2984L107.35 38.9838L107.631 39.1491L103.615 41.4637L103.351 41.2984ZM99.6984 44.9852L99.4175 44.8199L103.4 42.5218L103.665 42.6872L99.6984 44.9852ZM101.12 42.5714L102.905 41.5464L103.186 41.7117L101.401 42.7368L101.12 42.5714ZM98.8721 44.2247L98.6077 44.0594L100.806 42.7864L101.087 42.9351L98.8721 44.2247ZM105.119 39.0334L106.904 38.0084L107.168 38.1572L105.4 39.1822L105.119 39.0334ZM110.821 36.9999L111.102 37.1652L107.796 39.0665L107.516 38.9012L110.821 36.9999ZM93.6993 48.4736L93.4349 48.3248L99.1035 45.0182L99.3844 45.1836L93.6993 48.4736ZM97.2029 43.613L101.169 41.3149L101.45 41.4637L97.4673 43.7618L97.2029 43.613ZM101.483 41.1331L104.789 39.2153L105.07 39.3641L101.764 41.2819L101.483 41.1331ZM91.5673 47.2006L91.3029 47.0352L96.9385 43.7287L97.2029 43.894L91.5673 47.2006ZM107.251 37.8265L109.78 36.3716L110.061 36.5204L107.532 37.9753L107.251 37.8265ZM98.6242 44.4396L92.6416 47.8784L92.3606 47.7296L98.3432 44.2743L98.6242 44.4396Z" fill="#FFFFF7"/>
<path d="M27.9874 33.3299L26.7974 34.0243C26.2658 34.3419 25.6641 34.5236 25.0456 34.5533C24.4651 34.57 23.8919 34.4208 23.393 34.1234L20.2529 32.3048C19.724 32.0072 19.4762 31.6931 19.5257 31.3459C19.5753 30.9988 19.8563 30.6681 20.4347 30.3209L21.6411 29.6431C22.1716 29.3228 22.774 29.1409 23.393 29.114C23.9722 29.0896 24.5461 29.2331 25.0456 29.5273L25.5084 29.7919C25.6571 29.8745 25.6406 29.9737 25.5084 30.0564L24.5829 30.5854C24.5171 30.6302 24.4393 30.6542 24.3598 30.6542C24.2802 30.6542 24.2024 30.6302 24.1367 30.5854L23.7235 30.354C23.5462 30.2385 23.34 30.1755 23.1285 30.1721C22.8989 30.1879 22.6771 30.2618 22.484 30.3871L21.7403 30.8169C21.5089 30.9491 21.3932 31.0649 21.3767 31.1806C21.3602 31.2963 21.4759 31.3956 21.6907 31.5278L24.7151 33.2803C24.8972 33.3984 25.1095 33.4613 25.3266 33.4613C25.5436 33.4613 25.756 33.3984 25.938 33.2803L26.6818 32.8504C26.9297 32.7016 27.0453 32.5859 27.0619 32.4702C27.0784 32.3544 26.9627 32.2553 26.7479 32.123L26.3512 31.8915C26.2025 31.8088 26.2025 31.7262 26.3512 31.627L27.2767 31.098C27.347 31.0573 27.4269 31.036 27.5081 31.036C27.5893 31.036 27.6691 31.0573 27.7395 31.098L28.2022 31.379C28.7311 31.6766 28.9624 31.9907 28.9294 32.3379C28.8963 32.6851 28.6319 32.9992 27.9874 33.3299Z" fill="#788EFF"/>
<path d="M32.1713 30.8831L31.2459 31.4122C31.1801 31.457 31.1023 31.4809 31.0228 31.4809C30.9432 31.4809 30.8654 31.457 30.7996 31.4122L24.8335 27.9734C24.7013 27.9734 24.7013 27.808 24.8335 27.7088L27.4613 26.2044C27.996 25.8802 28.6047 25.6981 29.2296 25.6753C29.8078 25.6607 30.379 25.8035 30.8823 26.0887L31.6425 26.535C32.4027 26.9649 32.568 27.4444 32.1548 27.9569L35.5924 28.5851C35.5924 28.5851 35.8403 28.7174 35.5924 28.8331L34.6999 29.3456C34.6008 29.4061 34.4955 29.456 34.3859 29.4944C34.2819 29.5105 34.1759 29.5105 34.0719 29.4944L30.7666 28.8827L30.0394 29.3125C29.9403 29.3125 29.9403 29.4117 30.0394 29.4448L32.0887 30.6186C32.3366 30.7343 32.3366 30.8831 32.1713 30.8831ZM29.1635 28.7339L30.2377 28.1057C30.4691 27.9734 30.6013 27.8411 30.6178 27.7254C30.6344 27.6097 30.6178 27.494 30.3534 27.3948L29.5767 26.9318C29.3927 26.8213 29.1794 26.7694 28.9652 26.783C28.7308 26.8008 28.5042 26.8745 28.3041 26.9979L27.2299 27.6096C27.1417 27.6096 27.1417 27.6592 27.2299 27.7584L28.8825 28.7339C28.8987 28.7547 28.9188 28.7721 28.9417 28.7851C28.9647 28.798 28.9899 28.8063 29.0161 28.8093C29.0423 28.8124 29.0688 28.8103 29.0941 28.803C29.1194 28.7957 29.143 28.7835 29.1635 28.767V28.7339Z" fill="#788EFF"/>
<path d="M40.8462 25.9227L37.2599 27.9893C37.1941 28.0341 37.1164 28.058 37.0368 28.058C36.9573 28.058 36.8795 28.0341 36.8137 27.9893L30.8476 24.5505C30.6989 24.4679 30.7154 24.3852 30.8476 24.286L34.4504 22.2194C34.5137 22.1761 34.5886 22.1528 34.6653 22.1528C34.742 22.1528 34.8169 22.1761 34.8801 22.2194L35.5412 22.6162C35.6844 22.7044 35.6844 22.787 35.5412 22.8642L33.244 24.1868C33.1448 24.1868 33.1448 24.286 33.244 24.3191L34.5331 25.0795C34.5712 25.0998 34.6138 25.1104 34.657 25.1104C34.7002 25.1104 34.7428 25.0998 34.781 25.0795L36.665 23.9884C36.7297 23.949 36.8041 23.9281 36.8798 23.9281C36.9556 23.9281 37.0299 23.949 37.0947 23.9884L37.7723 24.3852C37.921 24.3852 37.9045 24.5505 37.7723 24.6332L35.8882 25.7243C35.8056 25.7243 35.7891 25.8235 35.8882 25.8566L37.2599 26.6667C37.2981 26.687 37.3407 26.6975 37.3839 26.6975C37.4271 26.6975 37.4697 26.687 37.5078 26.6667L39.805 25.3441C39.8683 25.3007 39.9432 25.2775 40.0199 25.2775C40.0966 25.2775 40.1715 25.3007 40.2347 25.3441L40.9123 25.7409C40.9949 25.7409 40.9949 25.8235 40.8462 25.9227Z" fill="#788EFF"/>
<path d="M42.0857 24.9484L36.1031 21.5096C35.9709 21.4269 35.9709 21.3443 36.1031 21.2451L38.8134 19.6745C39.3472 19.3616 39.9476 19.1803 40.5653 19.1454C41.1462 19.125 41.7205 19.2744 42.2179 19.5753L45.358 21.3939C45.8868 21.6914 46.1182 22.0055 46.0851 22.3527C46.0521 22.6999 45.7381 23.0306 45.1762 23.3612L42.4493 24.9318C42.3949 24.9648 42.3331 24.9836 42.2696 24.9865C42.2061 24.9893 42.1429 24.9763 42.0857 24.9484ZM42.7137 23.5596L43.9036 22.8652C44.1515 22.733 44.2672 22.6172 44.2837 22.5015C44.3003 22.3858 44.1846 22.2866 43.9697 22.1543L40.9454 20.4019C40.7671 20.2906 40.5605 20.2332 40.3504 20.2366C40.1192 20.244 39.8953 20.3187 39.7059 20.4515L38.5159 21.1293C38.5159 21.1293 38.5159 21.2285 38.5159 21.2616L42.4989 23.5761C42.5333 23.591 42.5709 23.5973 42.6083 23.5944C42.6458 23.5916 42.6819 23.5796 42.7137 23.5596Z" fill="#788EFF"/>
<path d="M43.6412 17.145L49.6073 20.6003C49.7561 20.683 49.7395 20.7656 49.6073 20.8483L48.6653 21.3939C48.6006 21.4333 48.5263 21.4542 48.4505 21.4542C48.3747 21.4542 48.3004 21.4333 48.2356 21.3939L42.2695 17.9386C42.1208 17.8559 42.1373 17.7732 42.2695 17.6905L43.2115 17.145C43.2774 17.1088 43.3513 17.0898 43.4264 17.0898C43.5015 17.0898 43.5754 17.1088 43.6412 17.145Z" fill="#788EFF"/>
<path d="M53.4244 18.5998L52.4989 19.1288C52.4331 19.1736 52.3553 19.1975 52.2758 19.1975C52.1962 19.1975 52.1184 19.1736 52.0527 19.1288L47.0947 16.2686C47.0609 16.2444 47.0205 16.2314 46.979 16.2314C46.9375 16.2314 46.897 16.2444 46.8633 16.2686L45.6073 16.9961C45.5385 17.0323 45.4619 17.0512 45.3841 17.0512C45.3064 17.0512 45.2298 17.0323 45.161 16.9961L44.5 16.5992C44.3512 16.5166 44.3678 16.4339 44.5 16.3513L48.6482 13.9375C48.7154 13.8966 48.7926 13.875 48.8713 13.875C48.9499 13.875 49.0271 13.8966 49.0944 13.9375L49.772 14.3177C49.9042 14.4004 49.9042 14.4831 49.772 14.5823L48.5159 15.2932C48.4168 15.2932 48.4168 15.3924 48.5159 15.442L53.4739 18.3187C53.6557 18.4344 53.6392 18.5171 53.4244 18.5998Z" fill="#788EFF"/>
<defs>
<linearGradient id="paint0_linear" x1="23816.4" y1="19521.2" x2="22955.9" y2="19521.2" gradientUnits="userSpaceOnUse">
<stop stop-color="#E0DBE1"/>
<stop offset="1" stop-color="#C0B9C8"/>
</linearGradient>
<linearGradient id="paint1_linear" x1="57.4543" y1="3.76935" x2="86.8263" y2="137.168" gradientUnits="userSpaceOnUse">
<stop stop-color="#852EF0"/>
<stop offset="0.18" stop-color="#9536EB"/>
<stop offset="0.52" stop-color="#BD4CDD"/>
<stop offset="1" stop-color="#FF6EC7"/>
</linearGradient>
<linearGradient id="paint2_linear" x1="19854.3" y1="25082.2" x2="20818.3" y2="32142.7" gradientUnits="userSpaceOnUse">
<stop stop-color="#852EF0"/>
<stop offset="0.18" stop-color="#9536EB"/>
<stop offset="0.52" stop-color="#BD4CDD"/>
<stop offset="1" stop-color="#FF6EC7"/>
</linearGradient>
</defs>
</svg>
