<svg width="213" height="248" viewBox="0 0 213 248" fill="none" xmlns="http://www.w3.org/2000/svg">
<path d="M20.2109 209.808C21.6372 209.329 22.9077 208.562 23.9623 207.584C26.0266 205.655 27.2746 202.927 27.2746 199.975V191.186H44.6033V199.975C44.6033 202.713 45.673 205.266 47.4858 207.153C48.6193 208.339 50.0399 209.263 51.667 209.807H20.2109V209.808Z" fill="#FEDFC5"/>
<path d="M44.6022 190.777V196.297L40.6575 198.699C37.7563 200.463 34.1194 200.463 31.2181 198.699L27.2734 196.297V190.777H44.6022Z" fill="#FECBAA"/>
<path d="M52.5509 160.319V181.02C52.5509 184.144 50.9305 187.042 48.282 188.665L40.5828 193.376C37.7393 195.116 34.1749 195.116 31.3314 193.376L23.6322 188.665C20.98 187.042 19.3633 184.144 19.3633 181.02V160.319C19.3633 154.622 23.9522 150.01 29.6153 150.01H42.3007C47.962 150.01 52.5509 154.622 52.5509 160.319Z" fill="#FEDFC5"/>
<path d="M42.0995 150.01H35.5421C41.3155 150.01 45.9953 154.622 45.9953 160.32V181.022C45.9953 184.146 44.3428 187.045 41.6418 188.668L33.7902 193.379C33.3269 193.656 32.8449 193.885 32.3516 194.073C34.955 195.069 37.9111 194.842 40.3476 193.379L48.1993 188.668C50.9002 187.045 52.5527 184.146 52.5527 181.022V160.32C52.5527 154.622 47.8729 150.01 42.0995 150.01Z" fill="#FECBAA"/>
<path d="M3.52925 248C1.91535 248 0.605469 246.692 0.605469 245.08V230.413C0.605469 222.04 5.9501 214.6 13.8882 211.931L20.2106 209.806C21.6387 209.326 22.9073 208.557 23.9601 207.577C27.3549 208.809 31.3502 209.637 35.8692 209.541C40.3168 209.446 44.207 208.469 47.4836 207.152C48.6152 208.338 50.0377 209.26 51.6666 209.806L57.9908 211.931C65.9233 214.601 71.2717 222.04 71.2717 230.415V248H3.52925Z" fill="#576BC1"/>
<path d="M35.5286 209.6L28.0934 235.846C27.9019 236.523 28.069 237.252 28.54 237.775L34.0742 243.937C34.8624 244.816 36.2304 244.85 37.0618 244.012L43.2209 237.812C43.7557 237.271 43.949 236.48 43.7219 235.755L35.5286 209.6Z" fill="#4053A4"/>
<path d="M90.8789 209.809C92.3033 209.33 93.57 208.563 94.6247 207.585C96.6946 205.656 97.9425 202.928 97.9425 199.976V190.326H115.266V199.976C115.266 202.714 116.341 205.266 118.148 207.154C119.282 208.34 120.702 209.264 122.329 209.807H90.8789V209.809Z" fill="#FECBAA"/>
<path d="M115.268 190.328V196.299L111.324 198.702C108.428 200.465 104.786 200.465 101.884 198.702L97.9453 196.303V190.326H115.268V190.328Z" fill="#FFAE85"/>
<path d="M123.254 160.319V181.02C123.254 184.144 121.639 187.042 118.985 188.665L111.286 193.376C108.448 195.116 104.878 195.116 102.034 193.376L94.3353 188.665C91.6868 187.042 90.0664 184.144 90.0664 181.02V160.319C90.0664 154.622 94.6554 150.01 100.318 150.01H113.009C118.665 150.01 123.254 154.622 123.254 160.319Z" fill="#FECBAA"/>
<path d="M112.616 150.01H103.799C109.676 150.01 114.442 154.622 114.442 160.319V181.022C114.442 184.145 112.763 187.044 110.008 188.667L102.011 193.378C101.881 193.456 101.747 193.524 101.613 193.594C104.498 195.111 108.008 195.041 110.826 193.378L118.823 188.667C121.58 187.044 123.257 184.145 123.257 181.022V160.319C123.257 154.622 118.491 150.01 112.616 150.01Z" fill="#FFAE85"/>
<path d="M71.2734 248V230.414C71.2734 222.04 76.6181 214.6 84.5562 211.931L90.8804 209.806C92.3067 209.326 93.5753 208.558 94.6299 207.578C98.0229 208.809 102.018 209.637 106.537 209.542C110.985 209.446 114.875 208.47 118.152 207.152C119.285 208.339 120.708 209.261 122.336 209.806L128.659 211.931C136.593 214.602 141.942 222.04 141.942 230.416V248H71.2734Z" fill="#8FA3F9"/>
<path d="M106.196 209.6L98.761 235.846C98.5696 236.523 98.7385 237.252 99.2095 237.775L104.742 243.937C105.532 244.816 106.898 244.85 107.731 244.012L113.888 237.812C114.425 237.271 114.618 236.48 114.39 235.755L106.196 209.6Z" fill="#576BC1"/>
<path d="M91.0664 62.6552C92.4908 62.1754 93.7631 61.4108 94.8178 60.4306C96.8821 58.5078 98.13 55.7754 98.13 52.8237V42.1113H115.459V52.8237C115.459 55.5617 116.528 58.118 118.341 60.0052C119.469 61.1915 120.894 62.1117 122.522 62.6552H91.0664Z" fill="#FEDFC5"/>
<path d="M115.462 42.1113V49.6452L111.517 52.0459C108.616 53.8113 104.973 53.8113 102.077 52.0459L98.1328 49.6452V42.1113H115.462Z" fill="#FECBAA"/>
<path d="M123.725 12.8168V33.8254C123.725 36.9889 122.072 39.9312 119.369 41.5767L111.514 46.3631C108.613 48.1267 104.97 48.1267 102.074 46.3631L94.2189 41.5767C91.511 39.9312 89.8633 36.9908 89.8633 33.8254V12.8168C89.8633 7.03892 94.5455 2.35742 100.322 2.35742H113.267C119.043 2.35742 123.725 7.03892 123.725 12.8168Z" fill="#FEDFC5"/>
<path d="M113.267 2.35742H104.6C110.378 2.35742 115.061 7.03892 115.061 12.8168V33.8254C115.061 36.9889 113.407 39.9312 110.705 41.5767L102.849 46.3631C102.722 46.44 102.592 46.5093 102.461 46.5805C105.291 48.1192 108.74 48.0498 111.514 46.3631L119.369 41.5767C122.072 39.9312 123.725 36.9908 123.725 33.8254V12.8168C123.725 7.03892 119.043 2.35742 113.267 2.35742Z" fill="#FECBAA"/>
<path d="M73.6247 100.85C72.4293 100.85 71.4609 99.8829 71.4609 98.689V83.2652C71.4609 74.8899 76.8037 67.4516 84.7437 64.781L91.0661 62.6558C92.4923 62.176 93.7628 61.4076 94.8156 60.4293C98.2104 61.6587 102.206 62.489 106.723 62.3915C111.172 62.2959 115.062 61.3214 118.337 60.0039C119.471 61.1883 120.893 62.1123 122.522 62.6558L128.844 64.781C136.779 67.4516 142.127 74.8899 142.127 83.2652V98.689C142.127 99.8829 141.159 100.85 139.963 100.85H73.6247Z" fill="#C6D0FF"/>
<path d="M106.384 62.4492L98.9267 88.7766C98.7503 89.4044 98.9061 90.0791 99.3415 90.5626L105.037 96.9045C105.769 97.7198 107.036 97.7516 107.807 96.9757L114.141 90.5982C114.638 90.0978 114.816 89.3631 114.606 88.6903L106.384 62.4492Z" fill="#8FA3F9"/>
<path d="M161.547 209.808C162.971 209.328 164.244 208.562 165.298 207.583C167.363 205.655 168.61 202.926 168.61 199.975V190.385H185.939V199.975C185.939 202.713 187.009 205.265 188.822 207.152C189.95 208.339 191.374 209.263 193.003 209.806H161.547V209.808Z" fill="#FEDFC5"/>
<path d="M185.938 190.385V196.545L181.993 198.948C179.092 200.711 175.45 200.711 172.554 198.948L168.609 196.545V190.385H185.938Z" fill="#FECBAA"/>
<path d="M193.961 160.319V181.02C193.961 184.144 192.341 187.042 189.692 188.665L181.993 193.376C179.149 195.116 175.579 195.116 172.742 193.376L165.042 188.665C162.388 187.042 160.773 184.144 160.773 181.02V160.319C160.773 154.622 165.362 150.01 171.02 150.01H183.711C189.372 150.01 193.961 154.622 193.961 160.319Z" fill="#FEDFC5"/>
<path d="M183.847 150.01H176.184C181.771 150.01 186.298 154.622 186.298 160.32V181.022C186.298 184.146 184.699 187.045 182.087 188.668L174.491 193.379C174.251 193.529 174.006 193.658 173.758 193.782C176.422 195.101 179.586 194.97 182.152 193.379L189.747 188.668C192.36 187.045 193.959 184.146 193.959 181.022V160.32C193.959 154.622 189.432 150.01 183.847 150.01Z" fill="#FECBAA"/>
<path d="M141.938 248V230.414C141.938 222.04 147.28 214.6 155.218 211.931L161.543 209.806C162.969 209.326 164.237 208.558 165.292 207.578C168.685 208.809 172.68 209.637 177.199 209.542C181.647 209.446 185.537 208.47 188.814 207.152C189.947 208.339 191.37 209.261 192.999 209.806L199.321 211.931C207.255 214.602 212.604 222.04 212.604 230.416V245.08C212.604 246.694 211.294 248 209.68 248H141.938Z" fill="#576BC1"/>
<path d="M176.86 209.6L169.425 235.846C169.234 236.523 169.403 237.252 169.874 237.775L175.406 243.937C176.196 244.816 177.562 244.85 178.395 244.012L184.553 237.812C185.089 237.271 185.283 236.48 185.055 235.755L176.86 209.6Z" fill="#4053A4"/>
<path d="M177.269 138.671C175.22 138.671 173.557 137.01 173.557 134.964C173.557 131.557 170.782 128.785 167.37 128.785H45.8357C42.4221 128.785 39.6485 131.557 39.6485 134.964C39.6485 137.012 37.9858 138.671 35.9346 138.671C33.8853 138.671 32.2227 137.01 32.2227 134.964C32.2227 127.468 38.3292 121.371 45.8357 121.371H167.37C174.876 121.371 180.983 127.469 180.983 134.964C180.981 137.01 179.32 138.671 177.269 138.671Z" fill="#6C80D7"/>
<path d="M106.603 138.667C104.553 138.667 102.891 137.006 102.891 134.96V114.693C102.891 112.645 104.553 110.984 106.603 110.984C108.654 110.984 110.316 112.645 110.316 114.693V134.96C110.316 137.006 108.654 138.667 106.603 138.667Z" fill="#6C80D7"/>
<path d="M107.676 13.032L123.733 18.3302V8.33203L107.676 13.032Z" fill="#89603E"/>
<path d="M99.6012 0C98.3491 5.47074e-07 97.1092 0.244125 95.9524 0.718436C94.7956 1.19275 93.7445 1.88795 92.8591 2.76437C91.9737 3.64078 91.2714 4.68123 90.7922 5.82631C90.313 6.9714 90.0664 8.1987 90.0664 9.43813V16.6636L122.428 9.98994C124.701 9.52133 126.741 8.29232 128.205 6.50967C129.669 4.72702 130.469 2.49952 130.469 0.201913V0H99.6012Z" fill="#89603E"/>
<path d="M34.5156 160.096L52.5524 165.86V155.773L34.5156 160.096Z" fill="#89603E"/>
<path d="M28.8981 147.128C27.6459 147.128 26.4061 147.373 25.2493 147.847C24.0924 148.321 23.0413 149.016 22.156 149.893C21.2706 150.769 20.5682 151.81 20.0891 152.955C19.6099 154.1 19.3633 155.327 19.3633 156.567V163.792L51.7251 157.118C53.9974 156.65 56.0374 155.421 57.5018 153.638C58.9662 151.855 59.7656 149.628 59.7656 147.33V147.128H28.8981Z" fill="#89603E"/>
<path d="M105.938 160.096L123.253 165.86V155.773L105.938 160.096Z" fill="#89603E"/>
<path d="M99.6012 147.129C98.3491 147.129 97.1092 147.373 95.9524 147.847C94.7956 148.322 93.7445 149.017 92.8591 149.893C91.9737 150.77 91.2714 151.81 90.7922 152.955C90.313 154.1 90.0664 155.328 90.0664 156.567V163.793L122.428 157.119C124.701 156.65 126.741 155.421 128.205 153.639C129.669 151.856 130.469 149.628 130.469 147.331V147.129H99.6012Z" fill="#89603E"/>
<path d="M178.09 160.515L193.962 165.86V155.773L178.09 160.515Z" fill="#89603E"/>
<path d="M170.308 147.129C169.056 147.129 167.816 147.373 166.659 147.847C165.503 148.322 164.451 149.017 163.566 149.893C162.681 150.77 161.978 151.81 161.499 152.955C161.02 154.1 160.773 155.328 160.773 156.567V163.793L193.135 157.119C195.408 156.65 197.448 155.421 198.912 153.639C200.376 151.856 201.176 149.628 201.176 147.331V147.129H170.308Z" fill="#89603E"/>
</svg>
