<svg width="312" height="248" viewBox="0 0 312 248" fill="none" xmlns="http://www.w3.org/2000/svg">
<path d="M282.875 60.6841H248.438C242.812 60.6841 238.252 65.2496 238.252 70.8815V130.2C238.252 124.568 233.692 120.003 228.067 120.003H193.632C188.006 120.003 183.446 124.568 183.446 130.2V171.449C183.446 165.817 178.886 161.252 173.261 161.252H138.823C133.198 161.252 128.638 165.817 128.638 171.449V198.645C128.638 193.013 124.078 188.447 118.452 188.447H84.0151C78.3897 188.447 73.8318 193.013 73.8318 198.645V223.962C73.8318 218.33 69.2716 213.765 63.6462 213.765H29.2091C23.5837 213.765 19.0234 218.33 19.0234 223.962V243.319H293.058V70.8815C293.061 65.2496 288.5 60.6841 282.875 60.6841Z" fill="#FF84A7"/>
<path d="M73.8295 243.321H19.0234V223.964C19.0234 218.332 23.5837 213.766 29.2091 213.766H63.6438C69.2692 213.766 73.8295 218.332 73.8295 223.964V243.321Z" fill="#C6D0FF"/>
<path d="M128.638 243.321H73.832V198.646C73.832 193.014 78.3899 188.449 84.0153 188.449H118.452C124.078 188.449 128.638 193.014 128.638 198.646V243.321Z" fill="#576BC1"/>
<path d="M183.445 243.318H128.637V171.448C128.637 165.816 133.197 161.251 138.822 161.251H173.259C178.885 161.251 183.445 165.816 183.445 171.448V243.318Z" fill="#C6D0FF"/>
<path d="M238.232 243.319H183.426V130.2C183.426 124.568 187.986 120.002 193.609 120.002H228.046C233.672 120.002 238.232 124.568 238.232 130.2V243.319Z" fill="#576BC1"/>
<path d="M293 243H238V71.162C238 65.5496 242.576 61 248.221 61H282.779C288.424 61 293 65.5496 293 71.162V243Z" fill="#C6D0FF"/>
<path d="M63.4235 213.766H28.9864C23.361 213.766 18.8008 218.332 18.8008 223.964V230.821H47.6339C53.2593 230.821 57.8195 235.387 57.8195 241.019V243.321H73.6092V223.964C73.6092 218.332 69.0489 213.766 63.4235 213.766Z" fill="#8FA3F9"/>
<path d="M118.23 188.449H83.7926C78.1696 188.449 73.6094 193.014 73.6094 198.646V205.504H74.8552C95.7163 205.504 112.626 222.435 112.626 243.321H128.415V198.646C128.415 193.014 123.855 188.449 118.23 188.449Z" fill="#4053A4"/>
<path d="M173.037 161.251H138.6C132.974 161.251 128.414 165.816 128.414 171.448V178.306H129.662C150.521 178.306 167.433 195.238 167.433 216.123V243.318H183.222V171.448C183.222 165.816 178.662 161.251 173.037 161.251Z" fill="#8FA3F9"/>
<path d="M227.845 120.002H193.408C187.783 120.002 183.223 124.568 183.223 130.2V137.058H184.469C205.33 137.058 222.239 153.987 222.239 174.872V243.319H238.029V130.2C238.029 124.568 233.468 120.002 227.845 120.002Z" fill="#4053A4"/>
<path d="M282.65 60.6841H248.213C242.588 60.6841 238.027 65.2496 238.027 70.8815V77.7393H239.276C260.134 77.7393 277.046 94.6708 277.046 115.554V243.319H292.836V70.8815C292.836 65.2496 288.276 60.6841 282.65 60.6841Z" fill="#8FA3F9"/>
<path d="M306.962 248.001H4.67436C2.09229 248.001 0 245.906 0 243.321C0 240.736 2.09229 238.641 4.67436 238.641H306.962C309.544 238.641 311.637 240.736 311.637 243.321C311.637 245.906 309.544 248.001 306.962 248.001Z" fill="#394A93"/>
<path d="M184.951 57.5416L174.779 113.021L162.306 101.044C96.1654 160.418 27.0426 151.111 27.0426 151.111C85.7105 138.847 125.853 102.496 143.691 83.1572L129.995 70.0064L184.951 57.5416Z" fill="#576BC1"/>
<path opacity="0.47" d="M168.851 61.1729L184.951 57.5416L174.779 113.021L162.306 101.044C96.1654 160.418 27.0426 151.111 27.0426 151.111C137.118 139.456 164.988 82.6589 168.851 61.1729Z" fill="#8FA3F9"/>
<path d="M266.247 47.7281C279.427 47.7281 290.111 37.0438 290.111 23.8641C290.111 10.6843 279.427 0 266.247 0C253.067 0 242.383 10.6843 242.383 23.8641C242.383 37.0438 253.067 47.7281 266.247 47.7281Z" fill="#F6D738"/>
<path d="M266.245 44.1183C277.431 44.1183 286.499 35.0506 286.499 23.8651C286.499 12.6795 277.431 3.61182 266.245 3.61182C255.06 3.61182 245.992 12.6795 245.992 23.8651C245.992 35.0506 255.06 44.1183 266.245 44.1183Z" fill="#F3CC30"/>
<path d="M276.845 6.57471C278.931 9.83027 280.037 13.6171 280.031 17.4838C280.031 28.6694 270.963 37.737 259.778 37.737C256.036 37.7429 252.366 36.7071 249.18 34.7456C251.01 37.6121 253.533 39.9712 256.516 41.6046C259.499 43.2381 262.846 44.0933 266.247 44.0913C277.432 44.0913 286.5 35.0237 286.5 23.838C286.502 20.3748 285.616 16.969 283.925 13.9464C282.235 10.9239 279.797 8.38567 276.845 6.57471Z" fill="#EDBD31"/>
<path d="M249.54 25.7172C249.54 15.8432 257.545 7.83837 267.419 7.83837C270.159 7.83622 272.862 8.46473 275.32 9.67519C277.777 10.8857 279.923 12.6456 281.591 14.8187C280.024 12.0922 277.766 9.82726 275.044 8.25272C272.322 6.67818 269.233 5.84975 266.088 5.85108C256.214 5.85108 248.207 13.8551 248.207 23.7292C248.201 27.6723 249.505 31.5056 251.913 34.6278C250.353 31.9176 249.535 28.8443 249.54 25.7172Z" fill="#F7DB5E"/>
<path d="M267.92 10.7915V13.3718C268.956 13.5387 269.803 13.8809 270.462 14.3985C271.12 14.9162 271.747 15.7104 272.341 16.7812L269.774 18.216C269.001 16.813 267.992 16.1115 266.746 16.1115C265.974 16.1115 265.333 16.3397 264.824 16.7962C264.579 17.0079 264.383 17.271 264.251 17.5668C264.119 17.8626 264.054 18.1839 264.061 18.5077C264.061 19.1305 264.267 19.6481 264.679 20.0605C265.083 20.4649 265.899 20.9432 267.128 21.4954C268.031 21.8964 268.909 22.3514 269.758 22.8581C270.452 23.284 270.975 23.6944 271.325 24.0892C272.316 25.1595 272.812 26.4538 272.813 27.9721C272.813 29.4648 272.365 30.7814 271.47 31.9219C270.584 33.0539 269.399 33.8173 267.915 34.2121V36.9375H265.617V34.2895C263.897 34.0089 262.585 33.4166 261.681 32.5127C260.776 31.6087 260.109 30.2132 259.68 28.3261L262.576 27.7248C262.971 29.0592 263.454 30.0113 264.024 30.581C264.621 31.1252 265.415 31.3973 266.407 31.3973C267.372 31.3973 268.179 31.0859 268.829 30.463C269.47 29.8492 269.79 29.055 269.79 28.0804C269.79 27.2115 269.522 26.5137 268.987 25.9871C268.715 25.732 268.314 25.4447 267.784 25.125C267.126 24.7385 266.447 24.389 265.751 24.078C264.047 23.3143 262.928 22.6128 262.394 21.9734C261.542 21.0163 261.116 19.8711 261.116 18.5377C261.11 17.9365 261.212 17.339 261.417 16.7737C261.618 16.2315 261.914 15.7297 262.292 15.2922C262.696 14.8314 263.174 14.4421 263.708 14.1407C264.306 13.801 264.948 13.5441 265.616 13.3771V10.7915H267.92Z" fill="#D49A34"/>
</svg>
