<svg width="139" height="139" viewBox="0 0 139 139" fill="none" xmlns="http://www.w3.org/2000/svg">
<path d="M0 139H1.52259L139 1.519V0L0 139Z" fill="#15316F" fill-opacity="0.5"/>
<path d="M52.3047 139H53.8171L139.001 53.8165V52.3041L52.3047 139Z" fill="#15316F" fill-opacity="0.5"/>
<path d="M17.1953 139H18.7193L138.999 18.7163V17.1959L17.1953 139Z" fill="#15316F" fill-opacity="0.5"/>
<path d="M121.086 139H122.61L138.998 122.612V121.088L121.086 139Z" fill="#15316F" fill-opacity="0.5"/>
<path d="M69.5 139H71.0131L139 71.0131V69.5L69.5 139Z" fill="#15316F" fill-opacity="0.5"/>
<path d="M86.6953 139H88.2097L138.999 88.2103V86.6959L86.6953 139Z" fill="#15316F" fill-opacity="0.5"/>
<path d="M103.891 139H105.408L138.999 105.409V103.892L103.891 139Z" fill="#15316F" fill-opacity="0.5"/>
<path d="M34.3906 139H35.9165L138.999 35.914V34.3917L34.3906 139Z" fill="#15316F" fill-opacity="0.5"/>
</svg>
