<svg width="120" height="82" viewBox="0 0 120 82" fill="none" xmlns="http://www.w3.org/2000/svg">
<path d="M1 11C6.16667 9.33334 22.0502 1 28.5 1C40.5 1 56 10.5 65 11C74 11.5 87 1 103 1C119 1 133 11 145 11" stroke="#15316F" stroke-opacity="0.5" stroke-linecap="round" stroke-linejoin="round"/>
<path d="M1 25.0173C6.16667 23.3507 22.0502 15.0173 28.5 15.0173C40.5 15.0173 56 24.5173 65 25.0173C74 25.5173 87 15.0173 103 15.0173C119 15.0173 133 25.0173 145 25.0173" stroke="#15316F" stroke-opacity="0.5" stroke-linecap="round" stroke-linejoin="round"/>
<path d="M1 39.0347C6.16667 37.368 22.0502 29.0347 28.5 29.0347C40.5 29.0347 56 38.5347 65 39.0347C74 39.5347 87 29.0347 103 29.0347C119 29.0347 133 39.0347 145 39.0347" stroke="#15316F" stroke-opacity="0.5" stroke-linecap="round" stroke-linejoin="round"/>
<path d="M1 53.052C6.16667 51.3853 22.0502 43.052 28.5 43.052C40.5 43.052 56 52.552 65 53.052C74 53.552 87 43.052 103 43.052C119 43.052 133 53.052 145 53.052" stroke="#15316F" stroke-opacity="0.5" stroke-linecap="round" stroke-linejoin="round"/>
<path d="M1 67.0693C6.16667 65.4027 22.0502 57.0693 28.5 57.0693C40.5 57.0693 56 66.5693 65 67.0693C74 67.5693 87 57.0693 103 57.0693C119 57.0693 133 67.0693 145 67.0693" stroke="#15316F" stroke-opacity="0.5" stroke-linecap="round" stroke-linejoin="round"/>
<path d="M1 81.0867C6.16667 79.42 22.0502 71.0867 28.5 71.0867C40.5 71.0867 56 80.5867 65 81.0867C74 81.5867 87 71.0867 103 71.0867C119 71.0867 133 81.0867 145 81.0867" stroke="#15316F" stroke-opacity="0.5" stroke-linecap="round" stroke-linejoin="round"/>
</svg>
