<svg width="650" height="261" viewBox="0 0 650 261" fill="none" xmlns="http://www.w3.org/2000/svg">
<path fill-rule="evenodd" clip-rule="evenodd" d="M21.0001 2C14.6922 2 8.26485 5.14944 1.70718 11.7071L0.292969 10.2929C7.06863 3.51723 13.9747 0 21.0001 0C28.0255 0 34.9315 3.51723 41.7072 10.2929C48.2649 16.8506 54.6922 20 61.0001 20C67.308 20 73.7353 16.8506 80.293 10.2929C87.0686 3.51723 93.9747 0 101 0C108.025 0 114.932 3.51723 121.707 10.2929C128.265 16.8506 134.692 20 141 20C147.308 20 153.735 16.8506 160.293 10.2929C167.069 3.51723 173.975 0 181 0C188.025 0 194.932 3.51723 201.707 10.2929C208.265 16.8506 214.692 20 221 20C227.308 20 233.735 16.8506 240.293 10.2929C247.069 3.51723 253.975 0 261 0C268.025 0 274.932 3.51723 281.707 10.2929C288.265 16.8506 294.692 20 301 20C307.308 20 313.735 16.8506 320.293 10.2929C327.069 3.51723 333.975 0 341 0C348.025 0 354.932 3.51723 361.707 10.2929C368.265 16.8506 374.692 20 381 20C387.308 20 393.735 16.8506 400.293 10.2929C407.069 3.51723 413.975 0 421 0C428.025 0 434.932 3.51723 441.707 10.2929C448.265 16.8506 454.692 20 461 20C467.308 20 473.735 16.8506 480.293 10.2929C487.069 3.51723 493.975 0 501 0C508.025 0 514.932 3.51723 521.707 10.2929C528.265 16.8506 534.692 20 541 20C547.308 20 553.735 16.8506 560.293 10.2929C567.069 3.51723 573.975 0 581 0C588.026 0 594.932 3.51723 601.707 10.2929C608.265 16.8506 614.692 20 621 20C627.308 20 633.735 16.8506 640.293 10.2929C647.069 3.51723 653.975 0 661 0C668.026 0 674.932 3.51723 681.707 10.2929C688.265 16.8506 694.692 20 701 20C707.308 20 713.735 16.8506 720.293 10.2929C727.069 3.51723 733.975 0 741 0C748.026 0 754.932 3.51723 761.707 10.2929C768.265 16.8506 774.692 20 781 20C787.308 20 793.735 16.8506 800.293 10.2929L801.707 11.7071C794.932 18.4828 788.026 22 781 22C773.975 22 767.069 18.4828 760.293 11.7071C753.735 5.14944 747.308 2 741 2C734.692 2 728.265 5.14944 721.707 11.7071C714.932 18.4828 708.026 22 701 22C693.975 22 687.069 18.4828 680.293 11.7071C673.735 5.14944 667.308 2 661 2C654.692 2 648.265 5.14944 641.707 11.7071C634.932 18.4828 628.026 22 621 22C613.975 22 607.069 18.4828 600.293 11.7071C593.735 5.14944 587.308 2 581 2C574.692 2 568.265 5.14944 561.707 11.7071C554.932 18.4828 548.026 22 541 22C533.975 22 527.069 18.4828 520.293 11.7071C513.735 5.14944 507.308 2 501 2C494.692 2 488.265 5.14944 481.707 11.7071C474.932 18.4828 468.025 22 461 22C453.975 22 447.069 18.4828 440.293 11.7071C433.735 5.14944 427.308 2 421 2C414.692 2 408.265 5.14944 401.707 11.7071C394.932 18.4828 388.025 22 381 22C373.975 22 367.069 18.4828 360.293 11.7071C353.735 5.14944 347.308 2 341 2C334.692 2 328.265 5.14944 321.707 11.7071C314.932 18.4828 308.025 22 301 22C293.975 22 287.069 18.4828 280.293 11.7071C273.735 5.14944 267.308 2 261 2C254.692 2 248.265 5.14944 241.707 11.7071C234.932 18.4828 228.025 22 221 22C213.975 22 207.069 18.4828 200.293 11.7071C193.735 5.14944 187.308 2 181 2C174.692 2 168.265 5.14944 161.707 11.7071C154.932 18.4828 148.025 22 141 22C133.975 22 127.069 18.4828 120.293 11.7071C113.735 5.14944 107.308 2 101 2C94.6922 2 88.2649 5.14944 81.7072 11.7071C74.9315 18.4828 68.0255 22 61.0001 22C53.9747 22 47.0686 18.4828 40.293 11.7071C33.7353 5.14944 27.308 2 21.0001 2ZM21.0001 51C14.6922 51 8.26485 54.1494 1.70718 60.7071L0.292969 59.2929C7.06863 52.5172 13.9747 49 21.0001 49C28.0255 49 34.9315 52.5172 41.7072 59.2929C48.2649 65.8506 54.6922 69 61.0001 69C67.308 69 73.7353 65.8506 80.293 59.2929C87.0686 52.5172 93.9747 49 101 49C108.025 49 114.932 52.5172 121.707 59.2929C128.265 65.8506 134.692 69 141 69C147.308 69 153.735 65.8506 160.293 59.2929C167.069 52.5172 173.975 49 181 49C188.025 49 194.932 52.5172 201.707 59.2929C208.265 65.8506 214.692 69 221 69C227.308 69 233.735 65.8506 240.293 59.2929C247.069 52.5172 253.975 49 261 49C268.025 49 274.932 52.5172 281.707 59.2929C288.265 65.8506 294.692 69 301 69C307.308 69 313.735 65.8506 320.293 59.2929C327.069 52.5172 333.975 49 341 49C348.025 49 354.932 52.5172 361.707 59.2929C368.265 65.8506 374.692 69 381 69C387.308 69 393.735 65.8506 400.293 59.2929C407.069 52.5172 413.975 49 421 49C428.025 49 434.932 52.5172 441.707 59.2929C448.265 65.8506 454.692 69 461 69C467.308 69 473.735 65.8506 480.293 59.2929C487.069 52.5172 493.975 49 501 49C508.025 49 514.932 52.5172 521.707 59.2929C528.265 65.8506 534.692 69 541 69C547.308 69 553.735 65.8506 560.293 59.2929C567.069 52.5172 573.975 49 581 49C588.026 49 594.932 52.5172 601.707 59.2929C608.265 65.8506 614.692 69 621 69C627.308 69 633.735 65.8506 640.293 59.2929C647.069 52.5172 653.975 49 661 49C668.026 49 674.932 52.5172 681.707 59.2929C688.265 65.8506 694.692 69 701 69C707.308 69 713.735 65.8506 720.293 59.2929C727.069 52.5172 733.975 49 741 49C748.026 49 754.932 52.5172 761.707 59.2929C768.265 65.8506 774.692 69 781 69C787.308 69 793.735 65.8506 800.293 59.2929L801.707 60.7071C794.932 67.4828 788.026 71 781 71C773.975 71 767.069 67.4828 760.293 60.7071C753.735 54.1494 747.308 51 741 51C734.692 51 728.265 54.1494 721.707 60.7071C714.932 67.4828 708.026 71 701 71C693.975 71 687.069 67.4828 680.293 60.7071C673.735 54.1494 667.308 51 661 51C654.692 51 648.265 54.1494 641.707 60.7071C634.932 67.4828 628.026 71 621 71C613.975 71 607.069 67.4828 600.293 60.7071C593.735 54.1494 587.308 51 581 51C574.692 51 568.265 54.1494 561.707 60.7071C554.932 67.4828 548.026 71 541 71C533.975 71 527.069 67.4828 520.293 60.7071C513.735 54.1494 507.308 51 501 51C494.692 51 488.265 54.1494 481.707 60.7071C474.932 67.4828 468.025 71 461 71C453.975 71 447.069 67.4828 440.293 60.7071C433.735 54.1494 427.308 51 421 51C414.692 51 408.265 54.1494 401.707 60.7071C394.932 67.4828 388.025 71 381 71C373.975 71 367.069 67.4828 360.293 60.7071C353.735 54.1494 347.308 51 341 51C334.692 51 328.265 54.1494 321.707 60.7071C314.932 67.4828 308.025 71 301 71C293.975 71 287.069 67.4828 280.293 60.7071C273.735 54.1494 267.308 51 261 51C254.692 51 248.265 54.1494 241.707 60.7071C234.932 67.4828 228.025 71 221 71C213.975 71 207.069 67.4828 200.293 60.7071C193.735 54.1494 187.308 51 181 51C174.692 51 168.265 54.1494 161.707 60.7071C154.932 67.4828 148.025 71 141 71C133.975 71 127.069 67.4828 120.293 60.7071C113.735 54.1494 107.308 51 101 51C94.6922 51 88.2649 54.1494 81.7072 60.7071C74.9315 67.4828 68.0255 71 61.0001 71C53.9747 71 47.0686 67.4828 40.293 60.7071C33.7353 54.1494 27.308 51 21.0001 51ZM1.70718 109.707C8.26485 103.149 14.6922 100 21.0001 100C27.308 100 33.7353 103.149 40.293 109.707C47.0686 116.483 53.9747 120 61.0001 120C68.0255 120 74.9315 116.483 81.7072 109.707C88.2649 103.149 94.6922 100 101 100C107.308 100 113.735 103.149 120.293 109.707C127.069 116.483 133.975 120 141 120C148.025 120 154.932 116.483 161.707 109.707C168.265 103.149 174.692 100 181 100C187.308 100 193.735 103.149 200.293 109.707C207.069 116.483 213.975 120 221 120C228.025 120 234.932 116.483 241.707 109.707C248.265 103.149 254.692 100 261 100C267.308 100 273.735 103.149 280.293 109.707C287.069 116.483 293.975 120 301 120C308.025 120 314.932 116.483 321.707 109.707C328.265 103.149 334.692 100 341 100C347.308 100 353.735 103.149 360.293 109.707C367.069 116.483 373.975 120 381 120C388.025 120 394.932 116.483 401.707 109.707C408.265 103.149 414.692 100 421 100C427.308 100 433.735 103.149 440.293 109.707C447.069 116.483 453.975 120 461 120C468.025 120 474.932 116.483 481.707 109.707C488.265 103.149 494.692 100 501 100C507.308 100 513.735 103.149 520.293 109.707C527.069 116.483 533.975 120 541 120C548.026 120 554.932 116.483 561.707 109.707C568.265 103.149 574.692 100 581 100C587.308 100 593.735 103.149 600.293 109.707C607.069 116.483 613.975 120 621 120C628.026 120 634.932 116.483 641.707 109.707C648.265 103.149 654.692 100 661 100C667.308 100 673.735 103.149 680.293 109.707C687.069 116.483 693.975 120 701 120C708.026 120 714.932 116.483 721.707 109.707C728.265 103.149 734.692 100 741 100C747.308 100 753.735 103.149 760.293 109.707C767.069 116.483 773.975 120 781 120C788.026 120 794.932 116.483 801.707 109.707L800.293 108.293C793.735 114.851 787.308 118 781 118C774.692 118 768.265 114.851 761.707 108.293C754.932 101.517 748.026 98 741 98C733.975 98 727.069 101.517 720.293 108.293C713.735 114.851 707.308 118 701 118C694.692 118 688.265 114.851 681.707 108.293C674.932 101.517 668.026 98 661 98C653.975 98 647.069 101.517 640.293 108.293C633.735 114.851 627.308 118 621 118C614.692 118 608.265 114.851 601.707 108.293C594.932 101.517 588.026 98 581 98C573.975 98 567.069 101.517 560.293 108.293C553.735 114.851 547.308 118 541 118C534.692 118 528.265 114.851 521.707 108.293C514.932 101.517 508.025 98 501 98C493.975 98 487.069 101.517 480.293 108.293C473.735 114.851 467.308 118 461 118C454.692 118 448.265 114.851 441.707 108.293C434.932 101.517 428.025 98 421 98C413.975 98 407.069 101.517 400.293 108.293C393.735 114.851 387.308 118 381 118C374.692 118 368.265 114.851 361.707 108.293C354.932 101.517 348.025 98 341 98C333.975 98 327.069 101.517 320.293 108.293C313.735 114.851 307.308 118 301 118C294.692 118 288.265 114.851 281.707 108.293C274.932 101.517 268.025 98 261 98C253.975 98 247.069 101.517 240.293 108.293C233.735 114.851 227.308 118 221 118C214.692 118 208.265 114.851 201.707 108.293C194.932 101.517 188.025 98 181 98C173.975 98 167.069 101.517 160.293 108.293C153.735 114.851 147.308 118 141 118C134.692 118 128.265 114.851 121.707 108.293C114.932 101.517 108.025 98 101 98C93.9747 98 87.0686 101.517 80.293 108.293C73.7353 114.851 67.308 118 61.0001 118C54.6922 118 48.2649 114.851 41.7072 108.293C34.9315 101.517 28.0255 98 21.0001 98C13.9747 98 7.06863 101.517 0.292969 108.293L1.70718 109.707ZM21.0001 247C14.6922 247 8.26485 250.149 1.70718 256.707L0.292969 255.293C7.06863 248.517 13.9747 245 21.0001 245C28.0255 245 34.9315 248.517 41.7072 255.293C48.2649 261.851 54.6922 265 61.0001 265C67.308 265 73.7353 261.851 80.293 255.293C87.0686 248.517 93.9747 245 101 245C108.025 245 114.932 248.517 121.707 255.293C128.265 261.851 134.692 265 141 265C147.308 265 153.735 261.851 160.293 255.293C167.069 248.517 173.975 245 181 245C188.025 245 194.932 248.517 201.707 255.293C208.265 261.851 214.692 265 221 265C227.308 265 233.735 261.851 240.293 255.293C247.069 248.517 253.975 245 261 245C268.025 245 274.932 248.517 281.707 255.293C288.265 261.851 294.692 265 301 265C307.308 265 313.735 261.851 320.293 255.293C327.069 248.517 333.975 245 341 245C348.025 245 354.932 248.517 361.707 255.293C368.265 261.851 374.692 265 381 265C387.308 265 393.735 261.851 400.293 255.293C407.069 248.517 413.975 245 421 245C428.025 245 434.932 248.517 441.707 255.293C448.265 261.851 454.692 265 461 265C467.308 265 473.735 261.851 480.293 255.293C487.069 248.517 493.975 245 501 245C508.025 245 514.932 248.517 521.707 255.293C528.265 261.851 534.692 265 541 265C547.308 265 553.735 261.851 560.293 255.293C567.069 248.517 573.975 245 581 245C588.026 245 594.932 248.517 601.707 255.293C608.265 261.851 614.692 265 621 265C627.308 265 633.735 261.851 640.293 255.293C647.069 248.517 653.975 245 661 245C668.026 245 674.932 248.517 681.707 255.293C688.265 261.851 694.692 265 701 265C707.308 265 713.735 261.851 720.293 255.293C727.069 248.517 733.975 245 741 245C748.026 245 754.932 248.517 761.707 255.293C768.265 261.851 774.692 265 781 265C787.308 265 793.735 261.851 800.293 255.293L801.707 256.707C794.932 263.483 788.026 267 781 267C773.975 267 767.069 263.483 760.293 256.707C753.735 250.149 747.308 247 741 247C734.692 247 728.265 250.149 721.707 256.707C714.932 263.483 708.026 267 701 267C693.975 267 687.069 263.483 680.293 256.707C673.735 250.149 667.308 247 661 247C654.692 247 648.265 250.149 641.707 256.707C634.932 263.483 628.026 267 621 267C613.975 267 607.069 263.483 600.293 256.707C593.735 250.149 587.308 247 581 247C574.692 247 568.265 250.149 561.707 256.707C554.932 263.483 548.026 267 541 267C533.975 267 527.069 263.483 520.293 256.707C513.735 250.149 507.308 247 501 247C494.692 247 488.265 250.149 481.707 256.707C474.932 263.483 468.025 267 461 267C453.975 267 447.069 263.483 440.293 256.707C433.735 250.149 427.308 247 421 247C414.692 247 408.265 250.149 401.707 256.707C394.932 263.483 388.025 267 381 267C373.975 267 367.069 263.483 360.293 256.707C353.735 250.149 347.308 247 341 247C334.692 247 328.265 250.149 321.707 256.707C314.932 263.483 308.025 267 301 267C293.975 267 287.069 263.483 280.293 256.707C273.735 250.149 267.308 247 261 247C254.692 247 248.265 250.149 241.707 256.707C234.932 263.483 228.025 267 221 267C213.975 267 207.069 263.483 200.293 256.707C193.735 250.149 187.308 247 181 247C174.692 247 168.265 250.149 161.707 256.707C154.932 263.483 148.025 267 141 267C133.975 267 127.069 263.483 120.293 256.707C113.735 250.149 107.308 247 101 247C94.6922 247 88.2649 250.149 81.7072 256.707C74.9315 263.483 68.0255 267 61.0001 267C53.9747 267 47.0686 263.483 40.293 256.707C33.7353 250.149 27.308 247 21.0001 247ZM21.0001 198C14.6922 198 8.26485 201.149 1.70718 207.707L0.292969 206.293C7.06863 199.517 13.9747 196 21.0001 196C28.0255 196 34.9315 199.517 41.7072 206.293C48.2649 212.851 54.6922 216 61.0001 216C67.308 216 73.7353 212.851 80.293 206.293C87.0686 199.517 93.9747 196 101 196C108.025 196 114.932 199.517 121.707 206.293C128.265 212.851 134.692 216 141 216C147.308 216 153.735 212.851 160.293 206.293C167.069 199.517 173.975 196 181 196C188.025 196 194.932 199.517 201.707 206.293C208.265 212.851 214.692 216 221 216C227.308 216 233.735 212.851 240.293 206.293C247.069 199.517 253.975 196 261 196C268.025 196 274.932 199.517 281.707 206.293C288.265 212.851 294.692 216 301 216C307.308 216 313.735 212.851 320.293 206.293C327.069 199.517 333.975 196 341 196C348.025 196 354.932 199.517 361.707 206.293C368.265 212.851 374.692 216 381 216C387.308 216 393.735 212.851 400.293 206.293C407.069 199.517 413.975 196 421 196C428.025 196 434.932 199.517 441.707 206.293C448.265 212.851 454.692 216 461 216C467.308 216 473.735 212.851 480.293 206.293C487.069 199.517 493.975 196 501 196C508.025 196 514.932 199.517 521.707 206.293C528.265 212.851 534.692 216 541 216C547.308 216 553.735 212.851 560.293 206.293C567.069 199.517 573.975 196 581 196C588.026 196 594.932 199.517 601.707 206.293C608.265 212.851 614.692 216 621 216C627.308 216 633.735 212.851 640.293 206.293C647.069 199.517 653.975 196 661 196C668.026 196 674.932 199.517 681.707 206.293C688.265 212.851 694.692 216 701 216C707.308 216 713.735 212.851 720.293 206.293C727.069 199.517 733.975 196 741 196C748.026 196 754.932 199.517 761.707 206.293C768.265 212.851 774.692 216 781 216C787.308 216 793.735 212.851 800.293 206.293L801.707 207.707C794.932 214.483 788.026 218 781 218C773.975 218 767.069 214.483 760.293 207.707C753.735 201.149 747.308 198 741 198C734.692 198 728.265 201.149 721.707 207.707C714.932 214.483 708.026 218 701 218C693.975 218 687.069 214.483 680.293 207.707C673.735 201.149 667.308 198 661 198C654.692 198 648.265 201.149 641.707 207.707C634.932 214.483 628.026 218 621 218C613.975 218 607.069 214.483 600.293 207.707C593.735 201.149 587.308 198 581 198C574.692 198 568.265 201.149 561.707 207.707C554.932 214.483 548.026 218 541 218C533.975 218 527.069 214.483 520.293 207.707C513.735 201.149 507.308 198 501 198C494.692 198 488.265 201.149 481.707 207.707C474.932 214.483 468.025 218 461 218C453.975 218 447.069 214.483 440.293 207.707C433.735 201.149 427.308 198 421 198C414.692 198 408.265 201.149 401.707 207.707C394.932 214.483 388.025 218 381 218C373.975 218 367.069 214.483 360.293 207.707C353.735 201.149 347.308 198 341 198C334.692 198 328.265 201.149 321.707 207.707C314.932 214.483 308.025 218 301 218C293.975 218 287.069 214.483 280.293 207.707C273.735 201.149 267.308 198 261 198C254.692 198 248.265 201.149 241.707 207.707C234.932 214.483 228.025 218 221 218C213.975 218 207.069 214.483 200.293 207.707C193.735 201.149 187.308 198 181 198C174.692 198 168.265 201.149 161.707 207.707C154.932 214.483 148.025 218 141 218C133.975 218 127.069 214.483 120.293 207.707C113.735 201.149 107.308 198 101 198C94.6922 198 88.2649 201.149 81.7072 207.707C74.9315 214.483 68.0255 218 61.0001 218C53.9747 218 47.0686 214.483 40.293 207.707C33.7353 201.149 27.308 198 21.0001 198ZM21.0001 149C14.6922 149 8.26485 152.149 1.70718 158.707L0.292969 157.293C7.06863 150.517 13.9747 147 21.0001 147C28.0255 147 34.9315 150.517 41.7072 157.293C48.2649 163.851 54.6922 167 61.0001 167C67.308 167 73.7353 163.851 80.293 157.293C87.0686 150.517 93.9747 147 101 147C108.025 147 114.932 150.517 121.707 157.293C128.265 163.851 134.692 167 141 167C147.308 167 153.735 163.851 160.293 157.293C167.069 150.517 173.975 147 181 147C188.025 147 194.932 150.517 201.707 157.293C208.265 163.851 214.692 167 221 167C227.308 167 233.735 163.851 240.293 157.293C247.069 150.517 253.975 147 261 147C268.025 147 274.932 150.517 281.707 157.293C288.265 163.851 294.692 167 301 167C307.308 167 313.735 163.851 320.293 157.293C327.069 150.517 333.975 147 341 147C348.025 147 354.932 150.517 361.707 157.293C368.265 163.851 374.692 167 381 167C387.308 167 393.735 163.851 400.293 157.293C407.069 150.517 413.975 147 421 147C428.025 147 434.932 150.517 441.707 157.293C448.265 163.851 454.692 167 461 167C467.308 167 473.735 163.851 480.293 157.293C487.069 150.517 493.975 147 501 147C508.025 147 514.932 150.517 521.707 157.293C528.265 163.851 534.692 167 541 167C547.308 167 553.735 163.851 560.293 157.293C567.069 150.517 573.975 147 581 147C588.026 147 594.932 150.517 601.707 157.293C608.265 163.851 614.692 167 621 167C627.308 167 633.735 163.851 640.293 157.293C647.069 150.517 653.975 147 661 147C668.026 147 674.932 150.517 681.707 157.293C688.265 163.851 694.692 167 701 167C707.308 167 713.735 163.851 720.293 157.293C727.069 150.517 733.975 147 741 147C748.026 147 754.932 150.517 761.707 157.293C768.265 163.851 774.692 167 781 167C787.308 167 793.735 163.851 800.293 157.293L801.707 158.707C794.932 165.483 788.026 169 781 169C773.975 169 767.069 165.483 760.293 158.707C753.735 152.149 747.308 149 741 149C734.692 149 728.265 152.149 721.707 158.707C714.932 165.483 708.026 169 701 169C693.975 169 687.069 165.483 680.293 158.707C673.735 152.149 667.308 149 661 149C654.692 149 648.265 152.149 641.707 158.707C634.932 165.483 628.026 169 621 169C613.975 169 607.069 165.483 600.293 158.707C593.735 152.149 587.308 149 581 149C574.692 149 568.265 152.149 561.707 158.707C554.932 165.483 548.026 169 541 169C533.975 169 527.069 165.483 520.293 158.707C513.735 152.149 507.308 149 501 149C494.692 149 488.265 152.149 481.707 158.707C474.932 165.483 468.025 169 461 169C453.975 169 447.069 165.483 440.293 158.707C433.735 152.149 427.308 149 421 149C414.692 149 408.265 152.149 401.707 158.707C394.932 165.483 388.025 169 381 169C373.975 169 367.069 165.483 360.293 158.707C353.735 152.149 347.308 149 341 149C334.692 149 328.265 152.149 321.707 158.707C314.932 165.483 308.025 169 301 169C293.975 169 287.069 165.483 280.293 158.707C273.735 152.149 267.308 149 261 149C254.692 149 248.265 152.149 241.707 158.707C234.932 165.483 228.025 169 221 169C213.975 169 207.069 165.483 200.293 158.707C193.735 152.149 187.308 149 181 149C174.692 149 168.265 152.149 161.707 158.707C154.932 165.483 148.025 169 141 169C133.975 169 127.069 165.483 120.293 158.707C113.735 152.149 107.308 149 101 149C94.6922 149 88.2649 152.149 81.7072 158.707C74.9315 165.483 68.0255 169 61.0001 169C53.9747 169 47.0686 165.483 40.293 158.707C33.7353 152.149 27.308 149 21.0001 149Z" fill="white" fill-opacity="0.05"/>
</svg>
