<?xml version="1.0" encoding="UTF-8"?>
<svg width="170px" height="105px" viewBox="0 0 170 105" version="1.1" xmlns="http://www.w3.org/2000/svg" xmlns:xlink="http://www.w3.org/1999/xlink">
    <title>ritofos-logo-dark</title>
    <defs>
        <linearGradient x1="49.9977925%" y1="-593.391118%" x2="49.9977925%" y2="85.6896736%" id="linearGradient-1">
            <stop stop-color="#CA9B4B" offset="0%"></stop>
            <stop stop-color="#BF9349" offset="21.94%"></stop>
            <stop stop-color="#A17F43" offset="60.56%"></stop>
            <stop stop-color="#7D653B" offset="100%"></stop>
        </linearGradient>
        <linearGradient x1="49.9977925%" y1="-0.761670106%" x2="49.9977925%" y2="678.59063%" id="linearGradient-2">
            <stop stop-color="#CA9B4B" offset="0%"></stop>
            <stop stop-color="#BF9349" offset="21.94%"></stop>
            <stop stop-color="#A17F43" offset="60.56%"></stop>
            <stop stop-color="#7D653B" offset="100%"></stop>
        </linearGradient>
        <linearGradient x1="50.041398%" y1="-54.8913325%" x2="50.041398%" y2="150.348318%" id="linearGradient-3">
            <stop stop-color="#CA9B4B" offset="0%"></stop>
            <stop stop-color="#BF9349" offset="21.94%"></stop>
            <stop stop-color="#A17F43" offset="60.56%"></stop>
            <stop stop-color="#7D653B" offset="100%"></stop>
        </linearGradient>
        <linearGradient x1="50.0244565%" y1="-54.9090909%" x2="50.0244565%" y2="150.396959%" id="linearGradient-4">
            <stop stop-color="#CA9B4B" offset="0%"></stop>
            <stop stop-color="#BF9349" offset="21.94%"></stop>
            <stop stop-color="#A17F43" offset="60.56%"></stop>
            <stop stop-color="#7D653B" offset="100%"></stop>
        </linearGradient>
        <linearGradient x1="49.9810271%" y1="-13.7652841%" x2="49.9810271%" y2="110.984274%" id="linearGradient-5">
            <stop stop-color="#CA9B4B" offset="0%"></stop>
            <stop stop-color="#BF9349" offset="21.94%"></stop>
            <stop stop-color="#A17F43" offset="60.56%"></stop>
            <stop stop-color="#7D653B" offset="100%"></stop>
        </linearGradient>
        <linearGradient x1="0.000632511069%" y1="50.047619%" x2="99.9873498%" y2="50.047619%" id="linearGradient-6">
            <stop stop-color="#CA9B4B" offset="0%"></stop>
            <stop stop-color="#C5984A" offset="21.45%"></stop>
            <stop stop-color="#B88E47" offset="45.2%"></stop>
            <stop stop-color="#A27F43" offset="70.03%"></stop>
            <stop stop-color="#83693C" offset="95.47%"></stop>
            <stop stop-color="#7D653B" offset="100%"></stop>
        </linearGradient>
    </defs>
    <g id="Page-1" stroke="none" stroke-width="1" fill="none" fill-rule="evenodd">
        <g id="ritofos-logo-dark" fill-rule="nonzero">
            <polygon id="Path" fill="#000000" points="100.13 104.55 100.13 79.56 111.48 79.56 114.07 83.01 104.19 83.01 104.19 89.24 111.48 89.24 114.07 92.81 104.19 92.81 104.19 104.55"></polygon>
            <polygon id="Path" fill="#000000" points="28.34 104.55 28.34 79.51 32.41 82.97 32.41 104.55 28.34 104.55"></polygon>
            <path d="M91.57,92.03 C91.57,93.73 91.25,95.33 90.62,96.84 C89.98,98.35 89.06,99.7 87.84,100.88 C86.61,102.06 85.23,102.97 83.68,103.6 C82.14,104.23 80.52,104.55 78.82,104.55 C77.1,104.55 75.46,104.23 73.9,103.6 C72.34,102.96 70.96,102.06 69.77,100.89 C68.55,99.71 67.63,98.36 67,96.86 C66.37,95.36 66.05,93.75 66.05,92.03 C66.05,90.32 66.36,88.72 67,87.2 C67.63,85.69 68.55,84.34 69.77,83.14 C70.99,81.96 72.37,81.05 73.91,80.43 C75.45,79.81 77.09,79.5 78.82,79.5 C80.54,79.5 82.16,79.81 83.7,80.43 C85.24,81.05 86.61,81.95 87.83,83.14 C89.05,84.35 89.97,85.71 90.61,87.22 C91.25,88.75 91.57,90.35 91.57,92.03 Z M87.53,92.03 C87.53,90.82 87.31,89.68 86.87,88.59 C86.43,87.5 85.8,86.54 84.97,85.69 C84.17,84.85 83.23,84.21 82.17,83.76 C81.11,83.31 79.99,83.08 78.82,83.08 C77.65,83.08 76.53,83.3 75.47,83.75 C74.41,84.2 73.47,84.84 72.64,85.69 C71.81,86.53 71.18,87.49 70.75,88.58 C70.32,89.67 70.1,90.82 70.1,92.04 C70.1,93.25 70.32,94.39 70.75,95.46 C71.18,96.54 71.82,97.5 72.64,98.35 C73.47,99.2 74.41,99.84 75.46,100.29 C76.51,100.74 77.63,100.96 78.82,100.96 C79.98,100.96 81.09,100.74 82.14,100.29 C83.19,99.84 84.13,99.2 84.97,98.35 C85.8,97.5 86.43,96.54 86.87,95.46 C87.31,94.37 87.53,93.23 87.53,92.03 Z" id="Shape" fill="#000000"></path>
            <path d="M146.93,92.03 C146.93,93.73 146.61,95.33 145.98,96.84 C145.34,98.35 144.42,99.7 143.2,100.88 C141.97,102.06 140.59,102.97 139.04,103.6 C137.5,104.23 135.88,104.55 134.18,104.55 C132.46,104.55 130.82,104.23 129.26,103.6 C127.7,102.96 126.32,102.06 125.13,100.89 C123.91,99.71 122.99,98.36 122.36,96.86 C121.73,95.36 121.41,93.75 121.41,92.03 C121.41,90.32 121.72,88.72 122.36,87.2 C122.99,85.69 123.91,84.34 125.13,83.14 C126.35,81.96 127.73,81.05 129.27,80.43 C130.81,79.81 132.45,79.5 134.18,79.5 C135.9,79.5 137.52,79.81 139.06,80.43 C140.6,81.05 141.97,81.95 143.19,83.14 C144.41,84.35 145.33,85.71 145.97,87.22 C146.61,88.75 146.93,90.35 146.93,92.03 Z M142.88,92.03 C142.88,90.82 142.66,89.68 142.22,88.59 C141.78,87.5 141.15,86.54 140.32,85.69 C139.52,84.85 138.58,84.21 137.52,83.76 C136.46,83.31 135.34,83.08 134.17,83.08 C133,83.08 131.88,83.3 130.82,83.75 C129.76,84.2 128.82,84.84 127.99,85.69 C127.16,86.53 126.53,87.49 126.1,88.58 C125.67,89.67 125.45,90.82 125.45,92.04 C125.45,93.25 125.67,94.39 126.1,95.46 C126.53,96.54 127.17,97.5 127.99,98.35 C128.82,99.2 129.76,99.84 130.81,100.29 C131.86,100.74 132.98,100.96 134.17,100.96 C135.33,100.96 136.44,100.74 137.49,100.29 C138.54,99.84 139.48,99.2 140.32,98.35 C141.15,97.5 141.78,96.54 142.22,95.46 C142.66,94.37 142.88,93.23 142.88,92.03 Z" id="Shape" fill="#000000"></path>
            <path d="M4.37,93.35 L4.37,104.55 L0.38,104.55 L0.38,79.51 L6.32,79.51 C8.06,79.51 9.41,79.62 10.37,79.83 C11.33,80.05 12.15,80.41 12.83,80.91 C13.64,81.51 14.27,82.3 14.71,83.25 C15.15,84.21 15.37,85.26 15.37,86.4 C15.37,88.41 14.86,89.98 13.85,91.11 C12.84,92.24 11.34,92.93 9.36,93.15 L18.37,104.54 L13.56,104.54 L4.85,93.34 L4.37,93.34 L4.37,93.35 Z M4.64,90.18 L5.41,90.18 C7.66,90.18 9.16,89.93 9.9,89.43 C10.64,88.93 11.01,88.04 11.01,86.76 C11.01,85.38 10.61,84.41 9.82,83.84 C9.03,83.28 7.56,82.99 5.41,82.99 L4.64,82.99 L4.64,90.18 L4.64,90.18 Z" id="Shape" fill="#000000"></path>
            <path d="M154.2,99.14 L157.3,97.71 C157.59,98.78 158.13,99.59 158.91,100.15 C159.69,100.71 160.69,100.99 161.91,100.99 C163.06,100.99 163.98,100.67 164.66,100.03 C165.34,99.39 165.68,98.53 165.68,97.45 C165.68,96.05 164.52,94.8 162.19,93.7 C161.86,93.54 161.61,93.42 161.44,93.34 C158.81,92.06 157.06,90.9 156.18,89.86 C155.31,88.82 154.87,87.55 154.87,86.05 C154.87,84.11 155.53,82.53 156.85,81.32 C158.17,80.11 159.9,79.51 162.04,79.51 C163.8,79.51 165.27,79.85 166.46,80.53 C167.64,81.21 168.47,82.18 168.92,83.46 L165.89,85.02 C165.41,84.27 164.89,83.72 164.32,83.37 C163.75,83.02 163.09,82.85 162.36,82.85 C161.32,82.85 160.49,83.12 159.87,83.66 C159.26,84.2 158.95,84.93 158.95,85.84 C158.95,87.27 160.3,88.61 162.99,89.85 C163.2,89.95 163.36,90.02 163.48,90.08 C165.84,91.17 167.46,92.23 168.34,93.27 C169.22,94.31 169.66,95.6 169.66,97.16 C169.66,99.42 168.95,101.22 167.52,102.55 C166.1,103.88 164.17,104.55 161.75,104.55 C159.72,104.55 158.05,104.08 156.75,103.15 C155.45,102.21 154.6,100.88 154.2,99.14 Z" id="Path" fill="#000000"></path>
            <polygon id="Path" fill="#000000" points="53 82.97 53 104.56 48.93 104.56 48.93 82.97 43.14 82.97 40.54 79.52 57.88 79.52 60.48 82.97"></polygon>
            <g id="Group" transform="translate(53.000000, 0.000000)">
                <path d="M14.21,56.27 L12.08,58.4 C23.92,68.02 41.02,68.02 52.85,58.4 L50.72,56.27 C40.07,64.74 24.86,64.74 14.21,56.27 Z" id="Path" fill="url(#linearGradient-1)"></path>
                <path d="M50.72,10.23 L52.85,8.1 C41.01,-1.51 23.91,-1.52 12.08,8.1 L14.21,10.23 C24.86,1.77 40.07,1.77 50.72,10.23 Z" id="Path" fill="url(#linearGradient-2)"></path>
                <path d="M52.68,17.79 L50.54,19.93 C56.36,27.82 56.35,38.68 50.54,46.57 L52.68,48.71 C59.65,39.62 59.65,26.88 52.68,17.79 Z" id="Path" fill="url(#linearGradient-3)"></path>
                <path d="M14.38,19.93 L12.24,17.79 C5.28,26.88 5.28,39.62 12.24,48.7 L14.38,46.56 C8.56,38.68 8.56,27.82 14.38,19.93 Z" id="Path" fill="url(#linearGradient-4)"></path>
                <path d="M56.39,55.06 C56.81,54.59 57.22,54.12 57.61,53.64 C67.23,41.8 67.23,24.7 57.61,12.87 C57.22,12.39 56.81,11.91 56.39,11.45 C56.06,11.08 55.71,10.72 55.36,10.37 C55.01,10.02 54.64,9.67 54.28,9.34 L52.16,11.46 L49.38,14.24 C48.91,13.82 48.43,13.42 47.93,13.04 C38.84,6.08 26.11,6.08 17.02,13.04 C16.52,13.42 16.04,13.82 15.57,14.24 L12.79,11.46 L10.67,9.34 C10.3,9.67 9.94,10.02 9.59,10.37 C9.24,10.72 8.89,11.09 8.56,11.45 C8.14,11.92 7.73,12.39 7.34,12.87 C-2.28,24.71 -2.27,41.81 7.34,53.64 C7.73,54.12 8.14,54.6 8.56,55.06 C8.89,55.43 9.24,55.79 9.59,56.14 C9.94,56.49 10.31,56.84 10.67,57.17 L12.79,55.05 L15.57,52.27 C16.04,52.69 16.52,53.09 17.02,53.47 C26.11,60.43 38.84,60.43 47.93,53.47 C48.43,53.09 48.91,52.69 49.38,52.27 L52.16,55.05 L54.28,57.17 C54.65,56.84 55.01,56.49 55.36,56.14 C55.71,55.79 56.06,55.43 56.39,55.06 Z M51.49,50.16 L49.37,48.04 C49.05,48.42 48.7,48.78 48.35,49.14 C48,49.49 47.63,49.84 47.25,50.16 C46.78,50.58 46.28,50.97 45.79,51.34 C37.9,57.15 27.04,57.16 19.15,51.34 C18.65,50.97 18.16,50.58 17.69,50.16 C17.31,49.84 16.95,49.5 16.59,49.14 C16.24,48.79 15.89,48.42 15.57,48.04 L13.45,50.16 L10.67,52.94 C10.25,52.47 9.84,52 9.46,51.51 C1,40.86 1,25.65 9.46,15 C9.84,14.51 10.25,14.03 10.67,13.57 L13.45,16.35 L15.57,18.47 C15.89,18.09 16.24,17.73 16.59,17.37 C16.94,17.02 17.31,16.67 17.69,16.35 C18.16,15.93 18.66,15.54 19.15,15.17 C27.04,9.36 37.9,9.36 45.79,15.17 C46.29,15.54 46.78,15.93 47.25,16.35 C47.63,16.67 47.99,17.02 48.35,17.37 C48.71,17.73 49.05,18.09 49.37,18.47 L51.49,16.35 L54.27,13.57 C54.69,14.04 55.1,14.51 55.48,15 C63.94,25.65 63.94,40.86 55.48,51.51 C55.1,52 54.69,52.48 54.27,52.94 L51.49,50.16 Z" id="Shape" fill="url(#linearGradient-5)"></path>
            </g>
            <path d="M85.36,29.12 C86.73,28.94 89.5,28.19 89.5,25.88 C89.5,22.95 87.5,22.29 85.02,22.28 L85.02,22.27 L80.48,22.27 L80.48,22.26 L77.56,22.26 L78.49,23.35 C79.12,24.09 79.46,25.03 79.46,26 L79.46,38.02 C79.46,38.92 79.15,39.8 78.58,40.5 L81.84,40.5 L81.84,29.27 L82.43,29.51 L93.37,47.88 L93.37,42.87 L85.36,29.12 Z M84.19,22.62 C85.18,22.69 87.34,23.16 87.34,25.83 C87.34,27.63 86.07,28.92 83.05,28.92 C82.5,28.92 82.1,28.88 81.83,28.79 L81.83,26.04 C81.83,25.04 81.56,24.06 81.04,23.2 L80.69,22.62 L84.19,22.62 Z" id="Shape" fill="url(#linearGradient-6)"></path>
        </g>
    </g>
</svg>
