<?xml version="1.0" encoding="UTF-8"?>
<svg width="170px" height="26px" viewBox="0 0 170 26" version="1.1" xmlns="http://www.w3.org/2000/svg" xmlns:xlink="http://www.w3.org/1999/xlink">
    <title>ritofos-logo-dark</title>
    <g id="Page-1" stroke="none" stroke-width="1" fill="none" fill-rule="evenodd">
        <g id="ritofos-logo-dark" fill="#000000" fill-rule="nonzero">
            <polygon id="Path" points="100.13 25.55 100.13 0.56 111.48 0.56 114.07 4.01 104.19 4.01 104.19 10.24 111.48 10.24 114.07 13.81 104.19 13.81 104.19 25.55"></polygon>
            <polygon id="Path" points="28.34 25.55 28.34 0.51 32.41 3.97 32.41 25.55"></polygon>
            <path d="M91.57,13.03 C91.57,14.73 91.25,16.33 90.62,17.84 C89.98,19.35 89.06,20.7 87.84,21.88 C86.61,23.06 85.23,23.97 83.68,24.6 C82.14,25.23 80.52,25.55 78.82,25.55 C77.1,25.55 75.46,25.23 73.9,24.6 C72.34,23.96 70.96,23.06 69.77,21.89 C68.55,20.71 67.63,19.36 67,17.86 C66.37,16.36 66.05,14.75 66.05,13.03 C66.05,11.32 66.36,9.72 67,8.2 C67.63,6.69 68.55,5.34 69.77,4.14 C70.99,2.96 72.37,2.05 73.91,1.43 C75.45,0.81 77.09,0.5 78.82,0.5 C80.54,0.5 82.16,0.81 83.7,1.43 C85.24,2.05 86.61,2.95 87.83,4.14 C89.05,5.35 89.97,6.71 90.61,8.22 C91.25,9.75 91.57,11.35 91.57,13.03 Z M87.53,13.03 C87.53,11.82 87.31,10.68 86.87,9.59 C86.43,8.5 85.8,7.54 84.97,6.69 C84.17,5.85 83.23,5.21 82.17,4.76 C81.11,4.31 79.99,4.08 78.82,4.08 C77.65,4.08 76.53,4.3 75.47,4.75 C74.41,5.2 73.47,5.84 72.64,6.69 C71.81,7.53 71.18,8.49 70.75,9.58 C70.32,10.67 70.1,11.82 70.1,13.04 C70.1,14.25 70.32,15.39 70.75,16.46 C71.18,17.54 71.82,18.5 72.64,19.35 C73.47,20.2 74.41,20.84 75.46,21.29 C76.51,21.74 77.63,21.96 78.82,21.96 C79.98,21.96 81.09,21.74 82.14,21.29 C83.19,20.84 84.13,20.2 84.97,19.35 C85.8,18.5 86.43,17.54 86.87,16.46 C87.31,15.37 87.53,14.23 87.53,13.03 Z" id="Shape"></path>
            <path d="M146.93,13.03 C146.93,14.73 146.61,16.33 145.98,17.84 C145.34,19.35 144.42,20.7 143.2,21.88 C141.97,23.06 140.59,23.97 139.04,24.6 C137.5,25.23 135.88,25.55 134.18,25.55 C132.46,25.55 130.82,25.23 129.26,24.6 C127.7,23.96 126.32,23.06 125.13,21.89 C123.91,20.71 122.99,19.36 122.36,17.86 C121.73,16.36 121.41,14.75 121.41,13.03 C121.41,11.32 121.72,9.72 122.36,8.2 C122.99,6.69 123.91,5.34 125.13,4.14 C126.35,2.96 127.73,2.05 129.27,1.43 C130.81,0.81 132.45,0.5 134.18,0.5 C135.9,0.5 137.52,0.81 139.06,1.43 C140.6,2.05 141.97,2.95 143.19,4.14 C144.41,5.35 145.33,6.71 145.97,8.22 C146.61,9.75 146.93,11.35 146.93,13.03 Z M142.88,13.03 C142.88,11.82 142.66,10.68 142.22,9.59 C141.78,8.5 141.15,7.54 140.32,6.69 C139.52,5.85 138.58,5.21 137.52,4.76 C136.46,4.31 135.34,4.08 134.17,4.08 C133,4.08 131.88,4.3 130.82,4.75 C129.76,5.2 128.82,5.84 127.99,6.69 C127.16,7.53 126.53,8.49 126.1,9.58 C125.67,10.67 125.45,11.82 125.45,13.04 C125.45,14.25 125.67,15.39 126.1,16.46 C126.53,17.54 127.17,18.5 127.99,19.35 C128.82,20.2 129.76,20.84 130.81,21.29 C131.86,21.74 132.98,21.96 134.17,21.96 C135.33,21.96 136.44,21.74 137.49,21.29 C138.54,20.84 139.48,20.2 140.32,19.35 C141.15,18.5 141.78,17.54 142.22,16.46 C142.66,15.37 142.88,14.23 142.88,13.03 Z" id="Shape"></path>
            <path d="M4.37,14.35 L4.37,25.55 L0.38,25.55 L0.38,0.51 L6.32,0.51 C8.06,0.51 9.41,0.62 10.37,0.83 C11.33,1.05 12.15,1.41 12.83,1.91 C13.64,2.51 14.27,3.3 14.71,4.25 C15.15,5.21 15.37,6.26 15.37,7.4 C15.37,9.41 14.86,10.98 13.85,12.11 C12.84,13.24 11.34,13.93 9.36,14.15 L18.37,25.54 L13.56,25.54 L4.85,14.34 L4.37,14.34 L4.37,14.35 Z M4.64,11.18 L5.41,11.18 C7.66,11.18 9.16,10.93 9.9,10.43 C10.64,9.93 11.01,9.04 11.01,7.76 C11.01,6.38 10.61,5.41 9.82,4.84 C9.03,4.28 7.56,3.99 5.41,3.99 L4.64,3.99 L4.64,11.18 L4.64,11.18 Z" id="Shape"></path>
            <path d="M154.2,20.14 L157.3,18.71 C157.59,19.78 158.13,20.59 158.91,21.15 C159.69,21.71 160.69,21.99 161.91,21.99 C163.06,21.99 163.98,21.67 164.66,21.03 C165.34,20.39 165.68,19.53 165.68,18.45 C165.68,17.05 164.52,15.8 162.19,14.7 C161.86,14.54 161.61,14.42 161.44,14.34 C158.81,13.06 157.06,11.9 156.18,10.86 C155.31,9.82 154.87,8.55 154.87,7.05 C154.87,5.11 155.53,3.53 156.85,2.32 C158.17,1.11 159.9,0.51 162.04,0.51 C163.8,0.51 165.27,0.85 166.46,1.53 C167.64,2.21 168.47,3.18 168.92,4.46 L165.89,6.02 C165.41,5.27 164.89,4.72 164.32,4.37 C163.75,4.02 163.09,3.85 162.36,3.85 C161.32,3.85 160.49,4.12 159.87,4.66 C159.26,5.2 158.95,5.93 158.95,6.84 C158.95,8.27 160.3,9.61 162.99,10.85 C163.2,10.95 163.36,11.02 163.48,11.08 C165.84,12.17 167.46,13.23 168.34,14.27 C169.22,15.31 169.66,16.6 169.66,18.16 C169.66,20.42 168.95,22.22 167.52,23.55 C166.1,24.88 164.17,25.55 161.75,25.55 C159.72,25.55 158.05,25.08 156.75,24.15 C155.45,23.21 154.6,21.88 154.2,20.14 Z" id="Path"></path>
            <polygon id="Path" points="53 3.97 53 25.56 48.93 25.56 48.93 3.97 43.14 3.97 40.54 0.52 57.88 0.52 60.48 3.97"></polygon>
        </g>
    </g>
</svg>
