<?xml version="1.0" encoding="UTF-8"?>
<svg width="65px" height="66px" viewBox="0 0 65 66" version="1.1" xmlns="http://www.w3.org/2000/svg" xmlns:xlink="http://www.w3.org/1999/xlink">
    <title>ritofos-logo-dark</title>
    <defs>
        <linearGradient x1="49.9977925%" y1="-593.391118%" x2="49.9977925%" y2="85.6896736%" id="linearGradient-1">
            <stop stop-color="#CA9B4B" offset="0%"></stop>
            <stop stop-color="#BF9349" offset="21.94%"></stop>
            <stop stop-color="#A17F43" offset="60.56%"></stop>
            <stop stop-color="#7D653B" offset="100%"></stop>
        </linearGradient>
        <linearGradient x1="49.9977925%" y1="-0.761670106%" x2="49.9977925%" y2="678.59063%" id="linearGradient-2">
            <stop stop-color="#CA9B4B" offset="0%"></stop>
            <stop stop-color="#BF9349" offset="21.94%"></stop>
            <stop stop-color="#A17F43" offset="60.56%"></stop>
            <stop stop-color="#7D653B" offset="100%"></stop>
        </linearGradient>
        <linearGradient x1="50.041398%" y1="-54.8913325%" x2="50.041398%" y2="150.348318%" id="linearGradient-3">
            <stop stop-color="#CA9B4B" offset="0%"></stop>
            <stop stop-color="#BF9349" offset="21.94%"></stop>
            <stop stop-color="#A17F43" offset="60.56%"></stop>
            <stop stop-color="#7D653B" offset="100%"></stop>
        </linearGradient>
        <linearGradient x1="50.0244565%" y1="-54.9090909%" x2="50.0244565%" y2="150.396959%" id="linearGradient-4">
            <stop stop-color="#CA9B4B" offset="0%"></stop>
            <stop stop-color="#BF9349" offset="21.94%"></stop>
            <stop stop-color="#A17F43" offset="60.56%"></stop>
            <stop stop-color="#7D653B" offset="100%"></stop>
        </linearGradient>
        <linearGradient x1="49.9810271%" y1="-13.7652841%" x2="49.9810271%" y2="110.984274%" id="linearGradient-5">
            <stop stop-color="#CA9B4B" offset="0%"></stop>
            <stop stop-color="#BF9349" offset="21.94%"></stop>
            <stop stop-color="#A17F43" offset="60.56%"></stop>
            <stop stop-color="#7D653B" offset="100%"></stop>
        </linearGradient>
        <linearGradient x1="0.000632511069%" y1="50.047619%" x2="99.9873498%" y2="50.047619%" id="linearGradient-6">
            <stop stop-color="#CA9B4B" offset="0%"></stop>
            <stop stop-color="#C5984A" offset="21.45%"></stop>
            <stop stop-color="#B88E47" offset="45.2%"></stop>
            <stop stop-color="#A27F43" offset="70.03%"></stop>
            <stop stop-color="#83693C" offset="95.47%"></stop>
            <stop stop-color="#7D653B" offset="100%"></stop>
        </linearGradient>
    </defs>
    <g id="Page-1" stroke="none" stroke-width="1" fill="none" fill-rule="evenodd">
        <g id="ritofos-logo-dark" fill-rule="nonzero">
            <g id="Group">
                <path d="M14.21,56.27 L12.08,58.4 C23.92,68.02 41.02,68.02 52.85,58.4 L50.72,56.27 C40.07,64.74 24.86,64.74 14.21,56.27 Z" id="Path" fill="url(#linearGradient-1)"></path>
                <path d="M50.72,10.23 L52.85,8.1 C41.01,-1.51 23.91,-1.52 12.08,8.1 L14.21,10.23 C24.86,1.77 40.07,1.77 50.72,10.23 Z" id="Path" fill="url(#linearGradient-2)"></path>
                <path d="M52.68,17.79 L50.54,19.93 C56.36,27.82 56.35,38.68 50.54,46.57 L52.68,48.71 C59.65,39.62 59.65,26.88 52.68,17.79 Z" id="Path" fill="url(#linearGradient-3)"></path>
                <path d="M14.38,19.93 L12.24,17.79 C5.28,26.88 5.28,39.62 12.24,48.7 L14.38,46.56 C8.56,38.68 8.56,27.82 14.38,19.93 Z" id="Path" fill="url(#linearGradient-4)"></path>
                <path d="M56.39,55.06 C56.81,54.59 57.22,54.12 57.61,53.64 C67.23,41.8 67.23,24.7 57.61,12.87 C57.22,12.39 56.81,11.91 56.39,11.45 C56.06,11.08 55.71,10.72 55.36,10.37 C55.01,10.02 54.64,9.67 54.28,9.34 L52.16,11.46 L49.38,14.24 C48.91,13.82 48.43,13.42 47.93,13.04 C38.84,6.08 26.11,6.08 17.02,13.04 C16.52,13.42 16.04,13.82 15.57,14.24 L12.79,11.46 L10.67,9.34 C10.3,9.67 9.94,10.02 9.59,10.37 C9.24,10.72 8.89,11.09 8.56,11.45 C8.14,11.92 7.73,12.39 7.34,12.87 C-2.28,24.71 -2.27,41.81 7.34,53.64 C7.73,54.12 8.14,54.6 8.56,55.06 C8.89,55.43 9.24,55.79 9.59,56.14 C9.94,56.49 10.31,56.84 10.67,57.17 L12.79,55.05 L15.57,52.27 C16.04,52.69 16.52,53.09 17.02,53.47 C26.11,60.43 38.84,60.43 47.93,53.47 C48.43,53.09 48.91,52.69 49.38,52.27 L52.16,55.05 L54.28,57.17 C54.65,56.84 55.01,56.49 55.36,56.14 C55.71,55.79 56.06,55.43 56.39,55.06 Z M51.49,50.16 L49.37,48.04 C49.05,48.42 48.7,48.78 48.35,49.14 C48,49.49 47.63,49.84 47.25,50.16 C46.78,50.58 46.28,50.97 45.79,51.34 C37.9,57.15 27.04,57.16 19.15,51.34 C18.65,50.97 18.16,50.58 17.69,50.16 C17.31,49.84 16.95,49.5 16.59,49.14 C16.24,48.79 15.89,48.42 15.57,48.04 L13.45,50.16 L10.67,52.94 C10.25,52.47 9.84,52 9.46,51.51 C1,40.86 1,25.65 9.46,15 C9.84,14.51 10.25,14.03 10.67,13.57 L13.45,16.35 L15.57,18.47 C15.89,18.09 16.24,17.73 16.59,17.37 C16.94,17.02 17.31,16.67 17.69,16.35 C18.16,15.93 18.66,15.54 19.15,15.17 C27.04,9.36 37.9,9.36 45.79,15.17 C46.29,15.54 46.78,15.93 47.25,16.35 C47.63,16.67 47.99,17.02 48.35,17.37 C48.71,17.73 49.05,18.09 49.37,18.47 L51.49,16.35 L54.27,13.57 C54.69,14.04 55.1,14.51 55.48,15 C63.94,25.65 63.94,40.86 55.48,51.51 C55.1,52 54.69,52.48 54.27,52.94 L51.49,50.16 Z" id="Shape" fill="url(#linearGradient-5)"></path>
            </g>
            <path d="M32.36,29.12 C33.73,28.94 36.5,28.19 36.5,25.88 C36.5,22.95 34.5,22.29 32.02,22.28 L32.02,22.27 L27.48,22.27 L27.48,22.26 L24.56,22.26 L25.49,23.35 C26.12,24.09 26.46,25.03 26.46,26 L26.46,38.02 C26.46,38.92 26.15,39.8 25.58,40.5 L28.84,40.5 L28.84,29.27 L29.43,29.51 L40.37,47.88 L40.37,42.87 L32.36,29.12 Z M31.19,22.62 C32.18,22.69 34.34,23.16 34.34,25.83 C34.34,27.63 33.07,28.92 30.05,28.92 C29.5,28.92 29.1,28.88 28.83,28.79 L28.83,26.04 C28.83,25.04 28.56,24.06 28.04,23.2 L27.69,22.62 L31.19,22.62 Z" id="Shape" fill="url(#linearGradient-6)"></path>
        </g>
    </g>
</svg>
